<svg id="Layer_1" data-name="Layer 1" xmlns="http://www.w3.org/2000/svg" viewBox="0 0 210.14 208.74"><defs><style>.cls-1{fill:#f3c500;}.cls-2{fill:#ffd300;}.cls-3{fill:#fcea0d;}</style></defs><path class="cls-1" d="M164.78,44.16c-2.95,19.43-6.46,22.67-3.5,30.2,3.38,8.6,9.8,9.11,29.14,24.69,13.84,11.15,20.73,16.83,19.61,22.15-1.49,7-15.91,9.77-26.39,11.76-23.89,4.54-32.39-1.56-40.06,5.3-6,5.4-3,11.16-7.41,32.21-2.36,11.21-7.9,37.51-16.64,38.26-7.43.63-15.19-17.37-21.09-31C88,153.41,90.25,144.47,81.38,139c-7.78-4.8-13-.06-35.5,1-9.29.42-42.49,1.93-45.67-7.74-1.81-5.49,8-14.4,27.76-32.21C45.76,83.93,49.08,83.53,50.55,77.43,53.18,66.45,44.11,60.5,33.7,32c-5-13.8-8.09-22.38-4.88-25,4-3.27,19.11,5.41,49.17,22.89,8.24,4.79,12.76,7.57,19.5,7.41,9.49-.22,14.86-6.1,27.13-15.47,19-14.49,32.25-24.64,38.67-21.09C170.75,4.84,167.44,26.61,164.78,44.16Z"/><path class="cls-2" d="M149.62,54.42c-2.24,14.75-4.9,17.21-2.65,22.93,2.56,6.53,7.44,6.91,22.13,18.75,10.5,8.46,15.73,12.78,14.88,16.81-1.13,5.34-12.08,7.42-20,8.94-18.15,3.44-24.6-1.19-30.42,4-4.58,4.1-2.27,8.47-5.63,24.46-1.79,8.51-6,28.48-12.64,29-5.64.48-11.53-13.19-16-23.58-7.94-18.43-6.22-25.22-13-29.37-5.91-3.64-9.91-.05-27,.73-7.06.32-32.26,1.46-34.68-5.88-1.37-4.17,6.11-10.93,21.08-24.46,13.51-12.2,16-12.51,17.14-17.14,2-8.34-4.88-12.86-12.79-34.52-3.83-10.48-6.14-17-3.7-19,3-2.48,14.5,4.11,37.33,17.38,6.26,3.64,9.69,5.76,14.81,5.64,7.2-.18,11.28-4.64,20.6-11.75,14.4-11,24.49-18.72,29.37-16C154.16,24.56,151.65,41.09,149.62,54.42Z"/><path class="cls-3" d="M138.08,65.93c-1.6,10.52-3.49,12.27-1.89,16.34,1.82,4.65,5.3,4.92,15.76,13.35,7.48,6,11.21,9.11,10.6,12-.8,3.81-8.6,5.29-14.27,6.37-12.92,2.45-17.52-.85-21.66,2.86-3.27,2.92-1.62,6-4,17.43-1.27,6.06-4.27,20.29-9,20.69-4,.34-8.21-9.39-11.4-16.8-5.66-13.12-4.44-18-9.23-20.92-4.21-2.59-7,0-19.2.52-5,.23-23,1-24.71-4.18-1-3,4.36-7.79,15-17.43,9.62-8.69,11.42-8.91,12.21-12.21,1.43-5.94-3.48-9.16-9.11-24.59-2.73-7.46-4.38-12.1-2.64-13.52,2.16-1.77,10.33,2.92,26.6,12.38,4.45,2.59,6.9,4.1,10.54,4,5.14-.12,8-3.3,14.68-8.37C126.61,46,133.8,40.51,137.28,42.43,141.31,44.67,139.52,56.44,138.08,65.93Z"/></svg>