<svg id="Layer_1" data-name="Layer 1" xmlns="http://www.w3.org/2000/svg" viewBox="0 0 210.14 208.74"><defs><style>.cls-1{fill:#f3c500;}.cls-2{fill:#ffd300;}.cls-3{fill:#fcea0d;}</style></defs><path class="cls-1" d="M45.37,44.16c3,19.43,6.45,22.67,3.49,30.2-3.37,8.6-9.8,9.11-29.14,24.69C5.89,110.2-1,115.88.12,121.2,1.6,128.23,16,131,26.5,133c23.9,4.54,32.4-1.56,40.06,5.3,6,5.4,3,11.16,7.42,32.21,2.36,11.21,7.89,37.51,16.63,38.26,7.44.63,15.19-17.37,21.09-31,10.46-24.27,8.2-33.21,17.06-38.68,7.79-4.8,13-.06,35.5,1,9.3.42,42.49,1.93,45.67-7.74,1.81-5.49-8.05-14.4-27.76-32.21-17.78-16.08-21.11-16.48-22.57-22.58C157,66.45,166,60.5,176.45,32c5-13.8,8.08-22.38,4.87-25-4-3.27-19.1,5.41-49.17,22.89-8.23,4.79-12.75,7.57-19.49,7.41-9.49-.22-14.87-6.1-27.13-15.47C66.56,7.31,53.27-2.84,46.85.71,39.4,4.84,42.7,26.61,45.37,44.16Z"/><path class="cls-2" d="M60.52,54.42c2.24,14.75,4.9,17.21,2.66,22.93-2.57,6.53-7.45,6.91-22.13,18.75-10.5,8.46-15.74,12.78-14.89,16.81,1.13,5.34,12.08,7.42,20,8.94,18.14,3.44,24.6-1.19,30.41,4,4.58,4.1,2.27,8.47,5.64,24.46,1.79,8.51,6,28.48,12.63,29,5.64.48,11.53-13.19,16-23.58,8-18.43,6.23-25.22,13-29.37,5.91-3.64,9.9-.05,27,.73,7.06.32,32.27,1.46,34.68-5.88,1.38-4.17-6.11-10.93-21.08-24.46-13.5-12.2-16-12.51-17.14-17.14-2-8.34,4.89-12.86,12.8-34.52,3.82-10.48,6.14-17,3.7-19-3-2.48-14.51,4.11-37.34,17.38-6.25,3.64-9.68,5.76-14.8,5.64C104.41,49,100.33,44.55,91,37.44c-14.4-11-24.5-18.72-29.37-16C56,24.56,58.5,41.09,60.52,54.42Z"/><path class="cls-3" d="M72.07,65.93C73.66,76.45,75.56,78.2,74,82.27c-1.83,4.65-5.3,4.92-15.76,13.35-7.49,6-11.22,9.11-10.61,12,.8,3.81,8.61,5.29,14.27,6.37,12.93,2.45,17.52-.85,21.67,2.86,3.26,2.92,1.62,6,4,17.43,1.28,6.06,4.27,20.29,9,20.69,4,.34,8.22-9.39,11.41-16.8,5.66-13.12,4.43-18,9.23-20.92,4.21-2.59,7,0,19.2.52,5,.23,23,1,24.7-4.18,1-3-4.35-7.79-15-17.43-9.62-8.69-11.41-8.91-12.2-12.21-1.43-5.94,3.48-9.16,9.11-24.59,2.72-7.46,4.37-12.1,2.64-13.52-2.16-1.77-10.34,2.92-26.6,12.38-4.46,2.59-6.9,4.1-10.55,4-5.13-.12-8-3.3-14.67-8.37C83.53,46,76.34,40.51,72.87,42.43,68.84,44.67,70.63,56.44,72.07,65.93Z"/></svg>