<svg id="Layer_1" data-name="Layer 1" xmlns="http://www.w3.org/2000/svg" viewBox="0 0 214.48 203.27"><defs><style>.cls-1{fill:#f3c500;}.cls-2{fill:#ffd300;}.cls-3{fill:#fcea0d;}</style></defs><path class="cls-1" d="M77.75,37C70.68,55.35,72.13,59.9,65.83,65c-7.2,5.8-13,3.06-37.55,7-17.54,2.83-26.34,4.35-28,9.53-2.19,6.84,9,16.37,17.09,23.28,18.51,15.78,28.92,14.69,32.18,24.45,2.56,7.67-2.94,11.17-9.52,31.66-3.5,10.9-11.72,36.49-4.49,41.47,6.14,4.23,21.79-7.56,33.69-16.53,21.11-15.9,23.58-24.79,34-25.14,9.14-.32,11.37,6.4,30.37,18.41,7.86,5,35.95,22.72,43.51,15.9,4.29-3.87.14-16.49-8.16-41.73-7.49-22.78-10.18-24.78-8.43-30.79,3.15-10.85,14-11.53,37.15-31.15,11.22-9.49,18.12-15.44,16.63-19.31-1.85-4.81-19.28-4.76-54.05-4.47-9.53.08-14.84.27-20.62-3.21-8.13-4.9-9.89-12.67-15.9-26.88C114.41,15.5,107.9.09,100.56,0,92-.1,84.13,20.45,77.75,37Z"/><path class="cls-2" d="M85.83,53.42c-5.36,13.93-4.27,17.38-9,21.24C71.32,79.06,66.89,77,48.27,80,35,82.14,28.27,83.29,27,87.22c-1.67,5.2,6.82,12.43,13,17.68,14,12,21.95,11.16,24.43,18.57,1.94,5.82-2.23,8.48-7.23,24-2.65,8.28-8.9,27.71-3.41,31.5,4.66,3.21,16.55-5.74,25.59-12.55,16-12.08,17.9-18.83,25.8-19.1,6.94-.24,8.63,4.86,23.06,14,6,3.78,27.3,17.26,33,12.08,3.26-2.94.11-12.53-6.19-31.69-5.69-17.3-7.73-18.81-6.4-23.38,2.39-8.24,10.61-8.75,28.21-23.65C185.4,87.48,190.63,83,189.5,80c-1.4-3.66-14.63-3.62-41-3.4-7.23.06-11.26.2-15.65-2.44-6.17-3.72-7.51-9.62-12.07-20.41-7.06-16.69-12-28.39-17.59-28.46C96.69,25.24,90.68,40.85,85.83,53.42Z"/><path class="cls-3" d="M90.16,69.15c-3.82,9.92-3,12.38-6.45,15.12-3.89,3.14-7,1.66-20.31,3.8-9.49,1.53-14.25,2.35-15.15,5.15-1.18,3.71,4.86,8.86,9.25,12.6,10,8.53,15.64,7.94,17.4,13.22,1.39,4.15-1.58,6-5.14,17.13-1.9,5.89-6.34,19.73-2.44,22.43,3.33,2.29,11.79-4.09,18.23-8.94,11.42-8.6,12.75-13.41,18.38-13.6,4.94-.17,6.15,3.46,16.43,10,4.25,2.68,19.44,12.29,23.53,8.6,2.32-2.1.07-8.92-4.42-22.58-4.05-12.32-5.5-13.4-4.55-16.65,1.7-5.87,7.56-6.23,20.09-16.85,6.07-5.13,9.8-8.35,9-10.44-1-2.6-10.42-2.58-29.23-2.42-5.16,0-8,.14-11.15-1.74-4.4-2.65-5.35-6.85-8.6-14.54-5-11.89-8.56-20.22-12.53-20.27C97.89,49.07,93.61,60.19,90.16,69.15Z"/></svg>