<svg id="Layer_1" data-name="Layer 1" xmlns="http://www.w3.org/2000/svg" viewBox="0 0 806.68 795.39"><defs><style>.cls-1{fill:#e24f11;}.cls-2{fill:#ea7a03;}.cls-3{fill:#f49b00;}.cls-4{fill:#13537b;}.cls-5{fill:#1d89b5;}.cls-6{fill:#27a4ca;}.cls-7{fill:#fff;}</style></defs><path class="cls-1" d="M153.24,29.18c16.8,63,22.73,94,19.39,117.47-6.14,43.18-29.71,46.63-32.89,93.13-2.15,31.4,6.68,57.76,15.15,83.06,7.85,23.43,10,20.59,32.24,73.63,8,19,12.41,30.39,15.19,46.32,2.09,12,8.47,48.57-4.66,55.66C183,506.4,159.81,468.64,138.39,477c-17.23,6.71-30.82,42.22-31.69,44.56-2.59,6.91-3.66,11.93-6.65,12.31-7.09.89-17-25.27-21.26-44.56-4.39-19.77-5.35-40.08-2.39-67.47C81,379.1,88.78,378.34,92.26,342.44c2.73-28.31,4.83-56-10.9-80.51-21.91-34.2-69.15-47.19-76.59-37.68-7.55,9.66,32.4,34.33,29.75,73.53C32.07,334.09-4.33,344.66.43,373.12c3.82,22.82,28.26,22.23,37.67,49.78,9.15,26.84-12.29,37.39-12.21,77C26,528.13,36.67,567.54,64,583c23.41,13.21,50.67,4.08,52.08,10.72,1.54,7.19-31.8,11.43-46,38.3-8.74,16.6-6.12,34.18-4.59,44.42.61,4.13,6.38,40.78,21.45,42.9,12.56,1.76,16.72-22.58,39.82-27.58,12.14-2.62,12.11,3.85,33.17,3,19.3-.78,27.54-6.55,37-.79,7.77,4.73,6.54,11.24,12.56,13.11,13.77,4.29,34.08-25.44,35.23-24.51s-19.22,24.59-33.7,55.15c-9.65,20.38-19.39,40.92-11.38,50.88,10,12.5,47.38,7.62,66.23-12.86,17.81-19.35,5.11-37.48,24.18-60.37,18.06-21.68,45-23.93,43.74-33.41-.74-5.52-9.92-4.88-22.45-14.67C296.93,656,291.1,641,287.89,632.77a94.91,94.91,0,0,1-5.59-46.42c4.05-31.38,22.62-51.05,28.57-56.87,14-13.71,28.06-18.93,45.39-25.38,23.24-8.66,46-17.12,74.81-11.41,8.71,1.73,38.46,8.8,60.59,36.05,6.8,8.37,26.1,32.13,21.9,59.23-3,19.55-15.89,25.24-12.15,36.63C506,638.58,527,635,546.63,652c10.19,8.82,10.87,15.26,24.12,44.69,20.39,45.26,31.62,67.06,47.94,78.63,21.51,15.25,53.57,13,57.64,4.05,2.06-4.52-3.1-10.64-26-35.43-40.79-44.1-46.08-48.13-44.61-53.6,4.45-16.49,63.94-22.51,117.33-8.19,43.44,11.64,68.06,32.69,74,26.06,5.14-5.76-9.86-31.27-30-49-36.26-31.92-82.55-33.35-99.69-33.23-31.93.22-55,6.79-55.33,6.87h0c-16,4.37-35.44-15.72-44.62-29.94-7-10.8-16.61-25.75-12.49-41.67,6.55-25.33,44.8-41.31,74.2-37.77,16.23,1.95,25.84,10,34,4.35,10.56-7.29-1-25.93,8.54-42.74,10.48-18.5,40-24.2,61.39-21.21,38.64,5.41,54.61,39.68,66.28,33.53,10.83-5.7,11.05-42.56-7.86-63.91-32.94-37.16-111-12.71-118.56-10.3-35.61,11.43-39.13,25.48-87.57,41.18-20.38,6.6-60.07,19.46-68.11,7.24-6.79-10.33,10-37.13,31-52.11,6.36-4.51,7.6-3.65,14-7.5,26.44-16,21.49-37.15,43.41-62.23,22.08-25.28,40.95-19.59,60-49.32,5.73-8.93,11.9-20.26,12.12-20.67.13-.24-.1.19,0,0,6.66-12,18.36-33.11,30.8-49.28,10.94-14.22,11.28-10.11,21.51-23.33,12.86-16.62,25.12-32.13,22.59-48.44-4.07-26.22-43.34-47.77-59-38.55-13.28,7.84,0,32.34-12.2,77-1.12,4.09-17,59.68-39,59.91-12.3.14-27.23-19.53-26.12-36.06,1.37-20.36,23.66-27.9,20.69-40.05-3.69-15.11-40.32-9.1-47.41-24.84-11.11-24.71,67.13-66,56.61-100.64-4.47-14.7-23.87-24.7-38.3-22.83-29.12,3.79-42.83,58.72-46.25,88.59-3.75,32.62,4.36,38.92,8.45,100.69,3.07,46.37,2.28,72-1.88,88.85-3.4,13.77-7.51,29.71-17,31.73C534.12,346.12,516,301,505,304.59c-11.88,3.93,9.67,57-17.37,92.1-1.25,1.62-19.5,24.66-44.58,24.49-30.11-.2-38.54-33.65-62.18-33-34.18.9-53.1,71.78-61.42,68.7-6.58-2.43-1.66-49.34,20.26-89.9,8.66-16,19.47-33.94,19.48-33.95,19.88-33.06,26.05-39.59,23.13-44.29-4.81-7.72-31-5.34-49.26,8.23-16.1,12-22.67,30.22-31.65,55.15-8.88,24.67-9.9,35.83-22.52,49.21-3.13,3.31-17.73,18.79-26.76,14.8-14.81-6.55-5-61.15-3-72.39,1.16-6.49,2.22-11.25,2.84-13.95,12.83-55.79,19.24-83.68,21-88.65,19.3-55.26,67.75-89.41,80.52-98.41,34.67-24.44,56.78-25.27,57.41-39.27C411.75,84,370.53,58,336.34,65.48c-21.38,4.69-34.73,21.32-44.13,33C281.4,112,283.38,115.34,262.61,157c-9.55,19.15-15.5,29.34-27.39,49.73-19.91,34.11-23.47,36.06-26.17,35.65-9.29-1.44-17.16-32.43-10.76-60.88,5.93-26.4,19.29-28.95,26-55.29,7.55-29.5-1.73-55.49-4.83-63.23C202.77,21.22,158.8-6,149.59,1.14,145.93,4,148.56,11.66,153.24,29.18Z"/><path class="cls-2" d="M181.45,45.06c15.76,58.49,21.36,87.28,18.35,109.08-5.52,40.06-27.31,43.17-30.08,86.33-1.88,29.12,6.38,53.63,14.31,77.13,7.34,21.78,9.3,19.15,30.08,68.45,7.46,17.71,11.59,28.25,14.21,43.05,2,11.11,8,45.1-4.11,51.64-13.57,7.33-35.11-27.8-54.9-20.14-15.91,6.16-28.35,39.07-29.15,41.24-2.37,6.41-3.34,11.07-6.11,11.4-6.55.8-15.79-23.51-19.82-41.42-4.13-18.37-5.09-37.23-2.45-62.64,4.12-39.62,11.3-40.3,14.38-73.61,2.43-26.26,4.27-51.92-10.36-74.76-20.39-31.81-64.13-44-71-35.24s30.09,32,27.78,68.35c-.91,14.36-10,25.61-15.59,33.41-18.2,25.34-36.36,26.36-37.45,39.12-1.37,16.11,27.32,17.72,38.3,41.87C72.8,441.18,33.14,467.82,45.6,511c7.34,25.38,27.74,39.8,33.45,43.52,22,14.35,47.3,14.55,64.6,14.69,26.83.21,39.39-5.78,41.36-1.53,3.39,7.31-28.45,36.66-67.29,54.15-18.06,8.14-28.42,9.57-35.35,20.91-9.14,15-7.84,39.91,4.6,49,11.09,8.13,23.78-3.94,75.06-10.72,13.67-1.81,24.79-2.56,34.21,3.91,8.48,5.83,9.52,13.36,16.34,14,8.37.75,17.36-9.64,21.11-19.06,4.66-11.74,1.2-22,4.06-22.75,1.38-.36,2.76,1.85,10.24,12.88,7.84,11.56,9,13.14,9.53,16.34,1,6.45-2.06,11.76-5.41,17.39-16.28,27.4-24.42,41.11-30.34,47-11.24,11.09-18.09,13.56-18,20.76s6.82,14.61,14.3,16c5.39,1,10.36-2.27,20.08-8.85,12.66-8.57,21.17-14.33,21.11-22.13,0-6-5.07-7.23-4.43-12.93.63-5.5,5.55-6.64,14.3-15.32,9.18-9.1,6.89-11.38,15.32-18.38,6.69-5.56,9.45-5.51,16.68-11.92,6.81-6,11.32-10,12.08-15.35,1.23-8.72-7.94-14.87-17.21-24.54-7-7.32-11.19-22.28-19.57-52.2-8.26-29.52-12.28-44.49-6.68-54.7,5.29-9.66,11.76-8.35,18.76-20.83,8.3-14.8,2.74-22.94,9.2-31.7,8.35-11.32,23.6-3.69,48.11-9.9,41.88-10.62,48.86-32.34,74.42-29.57,10.71,1.17,8.92,4.92,41.28,25,43.33,26.95,64.6,31.45,67.48,49.32,1.1,6.86-1.92,6.83-1.94,24,0,14.44,2.13,16.7,2.47,32.31.42,19.46-2.79,20.91.28,26.46,6.42,11.59,21.4,7,32.11,18.67,7.69,8.38,6.12,17.48,8.13,31.18,4.12,28.06,21.91,57.52,44.61,73.14,20.22,13.91,49.63,12.19,53.34,4,1.89-4.19-2.91-9.88-24.2-33-37.9-41.08-42.8-44.83-41.45-49.9,4.05-15.29,59.06-20.66,108.49-7.19,40.22,11,63.07,30.58,68.51,24.45,4.73-5.33-9.24-29.06-28-45.6-33.66-29.75-76.47-31.25-92.33-31.2-29.53.09-50.88,6.11-51.15,6.19h0c-14.76,4-32.84-14.72-41.38-28-6.49-10.05-15.46-24-11.7-38.72,6-23.47,41.29-38.17,68.49-34.78,15,1.87,24,9.38,31.51,4.15,9.73-6.72-1-24.06,7.74-39.63,9.63-17.13,36.9-22.32,56.71-19.46,35.76,5.15,50.66,37,61.43,31.35,10-5.25,10.07-39.46-7.51-59.34-30.6-34.61-102.75-12.2-109.69-10-32.9,10.49-36.1,23.52-80.86,37.91-18.82,6.06-55.48,17.85-63,6.48-6.32-9.61,9.07-34.42,28.52-48.25,5.86-4.16,7-3.36,12.9-6.91,24.39-14.71,19.74-34.41,39.92-57.61,20.34-23.38,37.81-18,55.36-45.55,5.27-8.27,10.94-18.77,11.14-19.14s-.1.18,0,0c6.11-11.13,16.86-30.67,28.31-45.63,10.07-13.16,10.4-9.34,19.81-21.57,11.84-15.39,23.12-29.73,20.72-44.88-3.85-24.35-40.25-44.49-54.66-36-12.26,7.23.08,30-11,71.42-1,3.79-15.49,55.33-35.81,55.47-11.38.08-25.26-18.23-24.29-33.57,1.19-18.89,21.79-25.81,19-37.1-3.47-14-37.33-8.58-43.94-23.22-10.37-23,61.85-61,52-93.2-4.19-13.65-22.17-23-35.5-21.32-26.93,3.41-39.41,54.35-42.48,82.05-3.34,30.26,4.18,36.14,8.18,93.49,3,43,2.37,66.81-1.42,82.45-3.09,12.77-6.84,27.54-15.65,29.38-15.87,3.31-32.84-38.66-43-35.34-11,3.61,9.15,52.91-15.74,85.42-1.14,1.5-17.94,22.82-41.14,22.57-27.85-.3-35.77-31.37-57.63-30.88-31.61.7-48.86,66.42-56.57,63.54-6.09-2.28-1.71-45.8,18.42-83.37,7.95-14.84,17.89-31.43,17.89-31.43,18.28-30.62,24-36.66,21.24-41-4.47-7.19-28.71-5.07-45.53,7.46-14.85,11.06-20.86,28-29.07,51.08-8.13,22.86-9,33.21-20.66,45.58-2.88,3.07-16.33,17.38-24.7,13.64-13.72-6.13-4.86-56.77-3-67.19,1.05-6,2-10.44,2.57-12.94,11.67-51.73,17.5-77.59,19.09-82.2,17.66-51.21,62.35-82.74,74.13-91,32-22.56,52.43-23.24,53-36.24.74-18-37.48-42.3-69.07-35.47-19.76,4.27-32.05,19.66-40.7,30.5-9.95,12.46-8.11,15.58-27.17,54.17-8.77,17.74-14.23,27.18-25.16,46.06-18.29,31.58-21.58,33.39-24.07,33-8.6-1.37-16-30.15-10.18-56.54,5.4-24.47,17.74-26.8,23.88-51.22,6.88-27.35-1.79-51.51-4.69-58.7C227.24,37.85,186.47,12.4,178,19,174.6,21.65,177.06,28.78,181.45,45.06Z"/><path class="cls-3" d="M199.07,83.1C206.16,110,214.35,141,208,176.23c-2.49,13.74-6.19,22.67-12.9,57.25-2.48,12.77-3.77,19.15-3.93,22.37-1.29,25.75,6.23,47.52,13.44,68.42,6.68,19.36,8.36,17.05,27.12,60.93,6.73,15.75,10.47,25.13,12.94,38.25,1.86,9.85,7.54,40-3,45.64-11.78,6.32-31-25-48.24-18.47-13.83,5.26-24.31,34.22-25,36.13-2,5.64-2.79,9.75-5.2,10-5.71.62-14.08-21-17.82-36.89-5-21.32.37-29.21-.44-42.63a73.21,73.21,0,0,0-2.46-12.82c-7.33-25.57-28-30.72-27.23-44.62.57-10.65,12.78-9.62,20.42-26.81,8.37-18.82,1.55-37.66,1-39.06-3.43-9.08-9.11-15.42-18.38-25.79a109.32,109.32,0,0,0-12-12c-16.64-13.77-40-20.37-42.89-15.83-3.33,5.29,25.54,18.93,27.57,46,.5,6.7-.77,12.93-3.46,25.35-3.27,15.05-4.9,22.58-9.31,29.28-11.76,17.91-30.66,15-32.17,25-1.6,10.7,19.88,14.15,29.62,37.27,6.77,16.07,3.57,31.49,3.06,33.87-4,18.8-15.17,19.28-22,40.69-2.16,6.8-6.25,20.33-1.39,35.22,4.59,14.09,14.78,22.06,21.76,27.36C101.77,559,130.1,559,135,559c38-.54,59.55-23.5,69.1-14.64,6.92,6.41.83,23.28.22,24.92-18.62,50-109.9,39.9-120.39,81.29-3.85,15.21,3.83,34.87,10.21,35.75,3.75.51,5.53-5.64,13.28-9.54,8.09-4.06,15-1.77,27.58,0,19.73,2.78,16.33-.93,44.17,1.6,24.45,2.22,27.6,5.12,32.76,1.47,12.9-9.15,7.12-37.15,15.12-38.63,2.29-.42,4.48.94,5.92,2.1,3.65,2.43,3.94,5.49,6.48,9.35,3.09,4.68,5,3.67,11.61,9.74a63.66,63.66,0,0,1,10.13,12c4.9,7.33,7.17,11.12,7.23,15.6.05,3.49-1.13,6.94-12.91,21.86-7.77,9.83-7.55,8.71-10.9,13.27-11,15.06-8.19,20.2-17,30.3-9.4,10.77-18.88,12.12-18,16s11.62,6,20.08,4.09c1-.23,12.67-3,18.39-13.62,4.57-8.49.29-12.64,3.76-23.2,2.59-7.9,7.24-12.47,16-21,14-13.73,26.53-19.44,25.19-22.81-.66-1.67-3.83-.51-7.88-2.24-8.25-3.53-6.68-16.21-13.06-25.1-6-8.31-9.51-16.54-16.57-33a200.69,200.69,0,0,1-12.19-39.59c-4.42-22.8-7.81-40.26-1.13-60.4,11.42-34.42,43.25-49.53,47.21-51.33,16.9-7.7,19.67-2.1,49.47-8.16,47.92-9.76,54.65-27.09,79.23-22,16.46,3.39,11,10.66,46.07,27.74,21.57,10.5,31.27,11.47,41.71,23.62,9.54,11.1,12.89,23.61,14.54,30.05,4,15.75.62,21,2.26,40.48.95,11.29,2.34,27.85,10.77,44.59,8.63,17.12,15.31,16,32.38,41.84,8.84,13.41,7.55,14.8,14.91,25.46,8.63,12.51,11,11.17,16.2,21,5.8,10.9,3.86,14.38,9.25,19.66s11.58,6.24,22.92,8c7.46,1.19,27.18,4.33,28.87-.43s-16.89-10.11-32.4-30.68c-10.05-13.34-4.68-14.29-14.27-27.13-16.05-21.47-36.62-27.94-37-43.4a4.37,4.37,0,0,1,.15-1.25c3.44-13.79,60.21-8.36,94.76-5.06,19.88,1.9,27.55,3.65,35.83,7.57,12.49,5.9,15.24,11.48,30.56,19.1,14,7,30.12,11.48,31.36,9,1.08-2.14-9.65-8.59-32.43-26.3-18.07-14.06-18.5-15.58-27.06-22-5.79-4.31-44.21-32.37-84.16-34.38,0,0-17.57-2.39-44.62,4.86h0c-12.85,3.36-28.88-13.42-36.51-25.23-5.79-9-13.8-21.38-10.69-34.4,4.93-20.7,35.64-33.28,59.46-30,13.15,1.83,21,8.58,27.59,4.05,8.43-5.83-1.17-21.3,6.29-35,8.25-15.12,33.1-16,49.34-16.54,54.29-1.66,87.1,22.28,93.32,13.63,4.56-6.35-8-26.3-24.25-39.07C710.48,397.22,658.31,397,624.86,414c-7.65,3.91-21.65,11.15-44.83,22.61a172.51,172.51,0,0,1-25.4,10c-16.38,5.13-48.29,15.13-55,5C494,443,507.19,421.24,524,409.24c5.08-3.62,6.09-2.89,11.19-6,21.15-12.72,16.85-30.21,34.21-50.49,17.5-20.44,32.83-15.5,47.85-39.64,4.51-7.25,9.33-16.47,9.51-16.8s-.09.15,0,0c5.22-9.77,14.37-26.93,24.2-40,6.08-8.1,8-8.83,11.49-12.27a53,53,0,0,0,5.57-6.58c9.28-12.46,33.34-30.4,35.78-48.72,2.77-20.8-21.56-48.17-36.51-45.19-13.74,2.74-11.75,29.53-38.68,85-20.42,42-29,42-31.28,41.63-6.91-1.05-12.45-13.36-12.51-24-.12-20.83,20.77-30.8,16.85-40.85-3.78-9.69-24.75-2.18-32.68-13.28-10.71-15,11.71-50.39,19.4-62.55,15.17-23.95,26.42-30.18,24-41.87-2.34-11.34-16.08-20.76-28.59-20.43-16.49.44-26.58,17.67-32.16,27.19-14,23.85-13.07,47.36-11,87.71,1.72,33.38,2.58,50.08,12.25,66.63,10.39,17.79,20.28,20.08,23.49,35.75,4.69,22.89-9.81,50.24-23.74,51.57-9.1.87-21.65-9-31.92-17.1-6-4.73-7.33-6.67-9.19-6.13-8.77,2.57,11,48.86-8.68,76.08C489.61,407.3,460.54,414,439,409.14c-27.85-6.24-32.27-28.18-50.75-28-27.62.25-41.91,58.18-48.68,55.54-3.81-1.48,14.93-34.28,15.1-73.54,0-5.87-.34-18,5-32.16a92.37,92.37,0,0,1,11.51-21.22c9.31-12.65,17.31-16.43,16.32-18.36-1.52-2.93-23.09,0-39.19,14.15-12.52,11.05-18.16,25.27-24.8,44.85-6.84,20.13-7.5,29.28-17.52,40.08-2.47,2.68-14.06,15.18-21.42,11.77-12.07-5.59-4.93-50.29-3.46-59.49.85-5.31,1.63-9.21,2.1-11.41,9-43.1,13.52-64.66,15.69-72.5,3.62-13,19.06-68.76,64.6-99.19,31.76-21.23,57.25-16.18,59-28.85,2.33-17-41-45.84-68.42-34.73-9.2,3.73-15.15,11.37-24,22.73-7.18,9.21-5.3,9.41-20.94,36.25-9.28,15.93-12.92,21-19.76,34.58-2.7,5.37-3.39,7.15-7,14.14-4.21,8.13-8.32,15.44-14.44,26.3-14.07,25-17.77,28.73-20,28.94a3.28,3.28,0,0,1-.68,0c-10.78-1-22-26.67-22.66-50.31-.14-5.49.25-12.53,13.79-52.6,13-38.6,14.55-37.58,14.76-44.27,1.28-42.17-58.56-82.57-67.61-75.47C181.49,39.48,190.31,49.92,199.07,83.1Z"/><path class="cls-4" d="M404.2,321.07,70.46,433.18Q85.12,545.29,99.78,657.4l301.83,68.13,299.25-66.4q17.68-116,35.36-232Z"/><path class="cls-5" d="M404.12,340.44,102.34,441.81q13.26,101.38,26.51,202.75l272.93,61.6,270.59-60q16-104.88,32-209.76Z"/><path class="cls-5" d="M404.12,340.44,102.34,441.81q13.26,101.38,26.51,202.75l272.93,61.6,270.59-60q16-104.88,32-209.76Z"/><path class="cls-6" d="M404.05,357.57,130.54,449.45l24,183.75L401.93,689l245.23-54.42,29-190.11Z"/><path class="cls-7" d="M218.42,491.69c-.41-6.13,1-8.46,5.7-9.48,5-1.11,9.06.82,10.58,5.71,1,3.36.38,26.8.33,30.32q-.85,24.19-1.28,48.31a22.31,22.31,0,0,1-6.13,15.55c-5.24,5.5-10.6,6.21-16.86,2.11a24.54,24.54,0,0,1-3.1-2.32c-16.8-15.55-36-33.84-49.45-52.51-.15-.2-.32-.4-.47-.61-5.1-7.26-5-10.9.85-16.09,7.28-6.48,16.62-8.7,23.11-4.58,4.71,3,10.33,10.17,13.79,14.29,6.33,7.5,12,15.4,17.92,23.18l0,0c5.51,7.81,5.41,1,5.65-1.67C219.18,540,218.67,498.87,218.42,491.69Z"/><path class="cls-7" d="M288.73,553.85c.35,6.07-2.49,8.93-9.6,10.45-8,1.73-12.09.57-15.08-5.21-6.84-13.43-19.6-53.78-20.13-68.6-.21-5.95,4.53-9.89,12.66-11.35,8.37-1.5,16,.79,17.49,6.12C276.37,493.07,288.39,547.78,288.73,553.85Z"/><path class="cls-7" d="M348.16,480.5c-5.93.71-9.09.18-9.22,2.68a33.67,33.67,0,0,0,.23,3.87c1.06,11.88,3.31,27.62,4.64,39.48.95,8.32,2.12,16.64,2.57,25,0,.21,0,.42,0,.63.1,11.9-12.84,16.15-22.15,13.51-4.24-1.45-6.54-2.93-7.22-6.91l-.33-1.91q-1.43-8.33-2.86-16.66Q310.45,520.58,307,501c-.79-4.46-1.76-8.89-2.72-13.65-2.56-.14-12.71,1.08-15,.95a6.59,6.59,0,0,1-6.44-5.25,6.91,6.91,0,0,1,2.88-7.93c5.29-1.09,11.12-2.28,17-3.39-.75-11.94,15-17.14,25.95-14.31,4.94,1.49,7.5,3.08,8,7.08l.24,1.92c15.11-1.51,20.84-1.28,21.58,4.23C359.56,478.68,353.67,480.13,348.16,480.5Z"/><path class="cls-7" d="M435.28,504.58c-1.07,15.22-6.44,30.15-20.13,39.29-11,7.32-26,8.84-37.24,1.12-13.05-9-18.51-27.15-18.44-41.89,0-14.48,6.61-29.52,22.65-36.63l1-.42c9.45-3.95,24.69-3.69,33.93,1C431.07,474.18,436.6,486.36,435.28,504.58ZM381,455.42c-2.4-3.44-2-7.54,1.84-9.72,5.55-3.29,23.34-12,28.22-13.5s7.73-.77,10.23,2.66c2.81,3.86,2.46,6.3-1.71,9-9.68,6.4-16.83,10.63-28.13,14.5C386.9,460,383.33,458.76,381,455.42Zm36.38,39.36a13.3,13.3,0,0,0-12.09-12.34c-12.44-.82-14,11.71-13.76,19.67,0,1.17.1,2.59.2,4.16.6,8.58,2.72,21.44,12.33,21.42C407.8,527.66,419,526,417.37,494.78Z"/><path class="cls-7" d="M504.69,559.17c-.91,3.42-4.7,5.43-8.48,4.69-3.47-.67-7.19-8.11-12.42-15.67a38.94,38.94,0,0,1-11.09,1.21c-.15.79-.27,1.44-.37,1.9-2.43,10.51-12.06,15.73-22.17,12.26-3.27-1.12-6.61-2.5-7-16.81.12-5.85,1.29-43.86,2-65.44.37-19.23,8.44-21.64,18.07-21.18,49.16,5.09,53.55,26.47,51.55,45.24.1.05-2.72,22.32-17.71,35.57,2.82,5.67,5.28,10.44,6.53,13.32C504.13,555.33,505.26,557,504.69,559.17Zm-25-78.39c-1.16,11.3-1.43,16.3-2.94,28.91q-.56,10.06-1.17,20.12c8.08-3.61,17.68-4.09,20.08-23.29,0-.33.08-.66.13-1,0-.16,0-.32,0-.49C496.31,497.17,490.91,482.85,479.7,480.78Z"/><path class="cls-7" d="M543,559.45c-2.27,5.64-6.08,7-13.16,5.36-7.94-1.85-11.16-4.65-11.39-11.15-.45-15.07,5.24-57,11.08-70.62,2.35-5.48,8.3-7,16.27-4.87,8.2,2.22,14.13,7.54,13.23,13C557.72,499.21,545.23,553.82,543,559.45Z"/><path class="cls-7" d="M626.39,585.19c-.8,1.69-1.67,4.08-3.09,5.33-2.62,2.31-8.9.58-12.43-1.58-3.16-1.94-3.32-9.21-2.59-12.9.7-3.44,9.34,4.32,5.5,2.85-5.33-2.14-21.42-7.93-26.92-9.45-4.19-1.24-6.69-2.28-7.3-1.25-4.12,6.9-8.7,8.15-17,4.84-9.36-3.73-13-8.27-10.41-15.65C557.8,541.32,566.45,517,580.48,505c9.79-8.34,22.33-11.28,37.75-5.8,9.89,3.5,18.92,10.35,20.28,18.85,1,6.4.39,15.64-.5,21.76C636.62,550.09,628,582,626.39,585.19Zm-37.61-33.28c-1.4,2.59.26,5.88,3.48,7,5.06,1.71,10.33,3.58,14.36,4.94,3.21,1.09,5.58-.14,6.06-2.85,1.26-6.76,6.46-30.82,6.49-37.8.51-4.84-9-14.86-19.06,4.4C598.18,531.23,591,547.79,588.78,551.91Z"/></svg>