<?xml version="1.0" encoding="utf-8"?>
<!-- Generator: Adobe Illustrator 26.0.0, SVG Export Plug-In . SVG Version: 6.00 Build 0)  -->
<svg version="1.1" id="tubabaleia" xmlns="http://www.w3.org/2000/svg" xmlns:xlink="http://www.w3.org/1999/xlink" x="0px" y="0px"
	 viewBox="0 0 557.5 360" style="enable-background:new 0 0 557.5 360;" xml:space="preserve">
<style type="text/css">
	.st0{fill:#7E869C;}
	.st1{fill:#A0AAC8;}
	.st2{fill:#C8C1DB;}
	.st3{fill:#1D1D1B;}
</style>
<path class="st0" d="M70.2,90.2c-10.1-7.4-7-16-16.9-34.7c-8.6-16.4-22.9-32.4-28.1-30.1c-1.4,0.6-2.9,2.9-0.2,26.3
	c3.7,32.2,7.5,36.1,6.4,50.5c-1.1,15.4-6.4,27-10.6,36.3c-10.7,23.5-23.2,33-21,35.5c2.8,3.1,28.3-6.8,43.4-28.8
	c11.4-16.7,8.9-28.6,20.7-34.5c9.9-5,21.4-1.4,31.7,1.8c9.2,2.9,20.7,6.4,26.1,16.4c6,10.8,1.2,22.6,4.8,23.7
	c3.8,1.2,8-12.8,21.7-16.8c2.3-0.7,4.3-0.8,8.2-1c12.3-0.7,21.7,2.1,29.9,4.6c6.9,2.1,10.8,3.3,15.6,6.4
	c7.2,4.6,11.2,10.1,12.5,11.8c5.6,7.5,18.5,19.1,41.3,44.8c20.2,22.8,37.5,42.4,54.5,52.8c2.1,1.3,7.9,4.7,10.2,11.2
	c2.8,8.1-1.4,16.6-3.9,21.1c-17.9,32.1-64.5,70.6-59.5,81c4.1,8.5,42.5-2.1,48.9-3.9c19.6-5.4,33.6-13,43.3-18.4
	c12-6.6,28.2-16.8,45.6-32.2c5.2,4.7,13.2,10.9,24.4,14.9c43.5,15.6,86.7-18.8,92.4-23.5c16.8-13.8,25.3-28.8,31-39.2
	c7.2-13.1,30-54.5,13.9-87c-4.6-9.3-12-17-16.4-21.6c-10.8-11.3-21.8-18.5-29.6-22.8c-1.6-37.4-8-48.7-14.7-50.3
	c0,0-5.7-1.4-38.2,29.6c-18.2-6.6-39.7-13-64.1-17.6c-36-6.8-68-7.9-93.5-6.9c-5-10.7-13.4-25.3-26.9-39.8
	c-23.6-25.2-56.2-42.4-61.1-37.2c-1.4,1.5,0.8,3.6,3.9,15.4c2.3,8.7,3.2,15.8,5,30.1c0.8,6.1,1.6,14,2.3,23.2
	c-5.6,2.4-14.2,5.7-25,8.4c-19,4.9-29.1,7.4-37.5,2.8C146.8,85,147.3,64,142,64.3c-5.4,0.3-2.8,21.6-15.9,30.3
	c-6.2,4.1-13.4,3.5-27.8,2.3C84.1,95.7,76.8,95.1,70.2,90.2L70.2,90.2z"/>
<g>
	<path class="st1" d="M65.6,78.5c-10.1-7.4-7-16-16.9-34.7c-8.6-16.4-22.9-32.4-28.1-30.1c-1.4,0.6-2.9,2.9-0.2,26.3
		c3.7,32.2,7.5,36.1,6.4,50.5c-0.7,10-4,18.8-10.6,36.3c-10.5,28-18.6,37.4-15.8,39.8c4.1,3.6,31.2-10.3,44.9-35
		c6.6-11.8,7-20.7,16.3-25.5c7.4-3.9,15.2-2.5,26.8-0.5c13.6,2.3,23.2,4,28.6,11.5c8,11.2,0.3,27,4.9,28.8
		c4.5,1.8,9.8-14.4,24.3-18.1c5.5-1.4,4.4,1,27.4,4.6c12.6,2,19.3,2.2,27.7,7.2c4.1,2.4,6.9,4.9,8.3,6.2
		c15,13.8,33.1,35.6,41.3,44.8c20.2,22.8,37.5,42.4,54.5,52.8c2.1,1.3,7.9,4.7,10.2,11.2c2.8,8.1-1.4,16.6-3.9,21.1
		c-17.9,32.1-64.5,70.6-59.5,81c4.1,8.5,42.5-2.1,48.9-3.9c19.6-5.4,33.6-13,43.3-18.4c12-6.6,28.2-16.8,45.6-32.2
		c5.2,4.7,13.2,10.9,24.4,14.9c43.5,15.6,86.7-18.8,92.4-23.5c16.8-13.8,25.3-28.8,31-39.2c7.2-13.1,30-54.5,13.9-87
		c-4.6-9.3-12-17-16.4-21.6c-10.8-11.3-21.8-18.5-29.6-22.8c-1.6-37.4-8-48.7-14.7-50.3c0,0-5.7-1.4-38.2,29.6
		c-18.2-6.6-39.7-13-64.1-17.6c-36-6.8-68-7.9-93.5-6.9c-5-10.7-13.4-25.3-26.9-39.8C244.8,13,212.2-4.2,207.4,0.9
		c-1.4,1.5,0.8,3.6,3.9,15.4c2.3,8.7,3.2,15.8,5,30.1c0.8,6.1,1.6,14,2.3,23.2c-5.6,2.4-14.2,5.7-25,8.4c-19,4.9-29.1,7.4-37.5,2.8
		c-13.8-7.5-13.3-28.5-18.6-28.2c-5.4,0.3-2.8,21.6-15.9,30.3c-6.2,4.1-13.4,3.5-27.8,2.3C79.6,84,72.3,83.4,65.6,78.5L65.6,78.5z"
		/>
	<path class="st0" d="M453,102.4c4.8-4.4,11.9-10.7,19.4-17.5c9.7-8.7,14.6-13,18.8-12.1c4.7,1,7.4,6.5,10.8,13.5
		c1,2.1,3.1,6.8,5.1,16.3c1.2,5.5,2.4,13.2,2.8,22.7C490.9,117.7,472,110.1,453,102.4L453,102.4z"/>
	<ellipse transform="matrix(0.4226 -0.9063 0.9063 0.4226 77.3504 436.3136)" class="st2" cx="381.1" cy="157.4" rx="7.3" ry="18"/>
	<ellipse transform="matrix(0.4226 -0.9063 0.9063 0.4226 43.7222 474.1288)" class="st2" cx="394" cy="202.7" rx="7.3" ry="18"/>
	<ellipse transform="matrix(0.4226 -0.9063 0.9063 0.4226 68.8752 375.3133)" class="st2" cx="329" cy="133.6" rx="7.3" ry="18"/>
	<ellipse transform="matrix(0.4226 -0.9063 0.9063 0.4226 47.2615 321.2624)" class="st2" cx="275.8" cy="123.5" rx="7.3" ry="18"/>
	<ellipse transform="matrix(0.4226 -0.9063 0.9063 0.4226 40.4501 398.5283)" class="st2" cx="333" cy="167.5" rx="7.3" ry="18"/>
	
		<ellipse transform="matrix(0.4226 -0.9063 0.9063 0.4226 108.8779 477.5261)" class="st2" cx="429.2" cy="153.3" rx="7.3" ry="18"/>
	<ellipse transform="matrix(0.9341 -0.3571 0.3571 0.9341 -3.2053 83.8986)" class="st2" cx="225.6" cy="50.6" rx="4.5" ry="14.2"/>
	
		<ellipse transform="matrix(0.9341 -0.3571 0.3571 0.9341 -98.9387 133.3294)" class="st2" cx="311.6" cy="334.6" rx="19.1" ry="6.6"/>
	<ellipse transform="matrix(0.9604 -0.2785 0.2785 0.9604 1.5843 62.8776)" class="st2" cx="222.1" cy="25.9" rx="4" ry="11.6"/>
	<ellipse transform="matrix(0.9604 -0.2785 0.2785 0.9604 -1.9282 66.6557)" class="st2" cx="233.6" cy="40.1" rx="3.8" ry="8.1"/>
	<ellipse transform="matrix(0.9852 -0.1716 0.1716 0.9852 -10.1007 7.4157)" class="st2" cx="37.8" cy="62.1" rx="3.2" ry="10.5"/>
	<ellipse transform="matrix(0.866 -0.5 0.5 0.866 -29.4559 34.0238)" class="st2" cx="48.8" cy="72" rx="2.5" ry="6.8"/>
	
		<ellipse transform="matrix(0.7809 -0.6247 0.6247 0.7809 -17.9419 106.4162)" class="st2" cx="142.7" cy="78.8" rx="4.5" ry="8.9"/>
	<ellipse transform="matrix(0.8933 -0.4495 0.4495 0.8933 -17.9905 25.5104)" class="st2" cx="44.7" cy="50.6" rx="3.8" ry="14.2"/>
	
		<ellipse transform="matrix(0.9341 -0.3571 0.3571 0.9341 -90.5216 139.3944)" class="st2" cx="332.3" cy="314.9" rx="14.4" ry="5.7"/>
	
		<ellipse transform="matrix(0.9341 -0.3571 0.3571 0.9341 -94.7825 128.3548)" class="st2" cx="300.2" cy="320.9" rx="12.1" ry="4.5"/>
	<ellipse transform="matrix(0.7071 -0.7071 0.7071 0.7071 18.8732 405.5887)" class="st3" cx="499" cy="180" rx="10.2" ry="15"/>
	
		<ellipse transform="matrix(0.7071 -0.7071 0.7071 0.7071 -56.9787 384.6745)" class="st3" cx="435.9" cy="261.1" rx="10.2" ry="15"/>
</g>
</svg>
