<?xml version="1.0" encoding="utf-8"?>
<!-- Generator: Adobe Illustrator 26.0.0, SVG Export Plug-In . SVG Version: 6.00 Build 0)  -->
<svg version="1.1" id="tubabaleia" xmlns="http://www.w3.org/2000/svg" xmlns:xlink="http://www.w3.org/1999/xlink" x="0px" y="0px"
	 viewBox="0 0 567.6 363.6" style="enable-background:new 0 0 567.6 363.6;" xml:space="preserve">
<style type="text/css">
	.st0{fill:#7E869C;}
	.st1{fill:#A0AAC8;}
	.st2{opacity:0.45;fill:#406680;enable-background:new    ;}
	.st3{fill:#C8C1DB;}
	.st4{fill:#1D1D1B;}
	.st5{opacity:0.88;}
	.st6{fill:#509997;}
	.st7{fill:#84C6C6;}
	.st8{fill:#A2D6D9;}
	.st9{fill:#0E2537;}
	.st10{fill:#325872;}
</style>
<g>
	<path class="st0" d="M75.8,82.1c-10.1-7.4-7-16-16.9-34.7C50.3,30.9,36,14.9,30.9,17.2c-1.4,0.6-2.9,2.9-0.2,26.3
		c3.7,32.2,7.5,36.1,6.4,50.5c-1.1,15.4-6.4,27-10.6,36.3c-10.7,23.5-23.2,33-21,35.5c2.8,3.1,28.3-6.8,43.4-28.8
		c11.4-16.7,8.9-28.6,20.7-34.5c9.9-5,21.4-1.4,31.7,1.8c9.2,2.9,20.7,6.4,26.1,16.4c6,10.8,1.2,22.6,4.8,23.7
		c3.8,1.2,8-12.8,21.7-16.8c2.3-0.7,4.3-0.8,8.2-1c12.3-0.7,21.7,2.1,29.9,4.6c6.9,2.1,10.8,3.3,15.6,6.4
		c7.2,4.6,11.2,10.1,12.5,11.8c5.6,7.5,18.5,19.1,41.3,44.8c20.2,22.8,37.5,42.4,54.5,52.8c2.1,1.3,7.9,4.7,10.2,11.2
		c2.8,8.1-1.4,16.6-3.9,21.1c-17.9,32.1-64.5,70.6-59.5,81c4.1,8.5,42.5-2.1,48.9-3.9c19.6-5.4,33.6-13,43.3-18.4
		c12-6.6,28.2-16.8,45.6-32.2c5.2,4.7,13.2,10.9,24.4,14.9c43.5,15.6,86.7-18.8,92.4-23.5c16.8-13.8,25.3-28.8,31-39.2
		c7.2-13.1,30-54.5,13.9-87c-4.6-9.3-12-17-16.4-21.6c-10.8-11.3-21.8-18.5-29.6-22.8c-1.6-37.4-8-48.7-14.7-50.3
		c0,0-5.7-1.4-38.2,29.6C445,99.4,423.5,93,399,88.3c-36-6.8-68-7.9-93.5-6.9c-5-10.7-13.4-25.3-26.9-39.8
		C255,16.5,222.4-0.7,217.5,4.5c-1.4,1.5,0.8,3.6,3.9,15.4c2.3,8.7,3.2,15.8,5,30.1c0.8,6.1,1.6,14,2.3,23.2
		c-5.6,2.4-14.2,5.7-25,8.4c-19,4.9-29.1,7.4-37.5,2.8c-13.8-7.5-13.3-28.5-18.6-28.2c-5.4,0.3-2.8,21.6-15.9,30.3
		c-6.2,4.1-13.4,3.5-27.8,2.3C89.7,87.6,82.5,87,75.8,82.1L75.8,82.1z"/>
	<path class="st1" d="M65.6,78.5c-10.1-7.4-7-16-16.9-34.7c-8.6-16.4-22.9-32.4-28.1-30.1c-1.4,0.6-2.9,2.9-0.2,26.3
		c3.7,32.2,7.5,36.1,6.4,50.5c-0.7,10-4,18.8-10.6,36.3c-10.5,28-18.6,37.4-15.8,39.8c4.1,3.6,31.2-10.3,44.9-35
		c6.6-11.8,7-20.7,16.3-25.5c7.4-3.9,15.2-2.5,26.8-0.5c13.6,2.3,23.2,4,28.6,11.5c8,11.2,0.3,27,4.9,28.8
		c4.5,1.8,9.8-14.4,24.3-18.1c5.5-1.4,4.4,1,27.4,4.6c12.6,2,19.3,2.2,27.7,7.2c4.1,2.4,6.9,4.9,8.3,6.2
		c15,13.8,33.1,35.6,41.3,44.8c20.2,22.8,37.5,42.4,54.5,52.8c2.1,1.3,7.9,4.7,10.2,11.2c2.8,8.1-1.4,16.6-3.9,21.1
		c-17.9,32.1-64.5,70.6-59.5,81c4.1,8.5,42.5-2.1,48.9-3.9c19.6-5.4,33.6-13,43.3-18.4c12-6.6,28.2-16.8,45.6-32.2
		c5.2,4.7,13.2,10.9,24.4,14.9c43.5,15.6,86.7-18.8,92.4-23.5c16.8-13.8,25.3-28.8,31-39.2c7.2-13.1,30-54.5,13.9-87
		c-4.6-9.3-12-17-16.4-21.6c-10.8-11.3-21.8-18.5-29.6-22.8c-1.6-37.4-8-48.7-14.7-50.3c0,0-5.7-1.4-38.2,29.6
		c-18.2-6.6-39.7-13-64.2-17.6c-36-6.8-68-7.9-93.5-6.9c-5-10.7-13.4-25.3-26.9-39.8C244.8,13,212.2-4.2,207.4,0.9
		c-1.4,1.5,0.8,3.6,3.9,15.4c2.3,8.7,3.2,15.8,5,30.1c0.8,6.1,1.6,14,2.3,23.2c-5.6,2.4-14.2,5.7-25,8.4c-19,4.9-29.1,7.4-37.5,2.8
		c-13.8-7.5-13.3-28.5-18.6-28.2c-5.4,0.3-2.8,21.6-15.9,30.3c-6.2,4.1-13.4,3.5-27.8,2.3C79.6,84,72.3,83.4,65.6,78.5L65.6,78.5z"
		/>
	<path class="st2" d="M65.6,78.5c-10.1-7.4-7-16-16.9-34.7c-8.6-16.4-22.9-32.4-28.1-30.1c-1.4,0.6-2.9,2.9-0.2,26.3
		c3.7,32.2,7.5,36.1,6.4,50.5c-0.7,10-4,18.8-10.6,36.3c-10.5,28-18.6,37.4-15.8,39.8c3.9,3.5,20.8-6.3,31.9-17.8
		c5.6-5.8,9.5-11.8,13-17.2c10.7-16.5,9.4-21.9,16.3-25.5c7.4-3.9,15.2-2.5,26.8-0.5c13.6,2.3,23.2,4,28.6,11.5
		c8,11.2,0.3,27,4.9,28.8c4.5,1.8,9.8-14.4,24.3-18.1c5.5-1.4,4.4,1,27.4,4.6c12.6,2,19.3,2.2,27.7,7.2c4.1,2.4,6.9,4.9,8.3,6.2
		c15,13.8,33.1,35.6,41.3,44.8c20.2,22.8,37.5,42.4,54.5,52.8c2.1,1.3,7.9,4.7,10.2,11.2c2.8,8.1-1.4,16.6-3.9,21.1
		c-17.9,32.1-64.5,70.6-59.5,81c4.1,8.5,42.5-2.1,48.9-3.9c19.6-5.4,33.6-13,43.3-18.4c12-6.6,28.2-16.8,45.6-32.2
		c5.2,4.7,13.2,10.9,24.4,14.9c43.5,15.6,86.7-18.8,92.4-23.5c16.8-13.8,25.3-28.8,31-39.2c7.2-13.1,30-54.5,13.9-87
		c-4.6-9.3-12-17-16.4-21.6c-10.8-11.3-21.8-18.5-29.6-22.8c-1.6-37.4-8-48.7-14.7-50.3c0,0-5.7-1.4-38.2,29.6
		c-18.2-6.6-39.7-13-64.2-17.6c-2.5-0.5-8.4-1.6-15.6-2.6c-18.2-2.7-44.5-5.3-77.9-4.2c-5-10.7-13.4-25.3-26.9-39.8
		C244.8,13,212.2-4.2,207.4,0.9c-1.4,1.5,0.8,3.6,3.9,15.4c2.3,8.7,3.2,15.8,5,30.1c0.8,6.1,1.6,14,2.3,23.2
		c-5.6,2.4-14.2,5.7-25,8.4c-19,4.9-29.1,7.4-37.5,2.8c-13.8-7.5-13.3-28.5-18.6-28.2c-5.4,0.3-2.8,21.6-15.9,30.3
		c-6.2,4.1-13.4,3.5-27.8,2.3C79.6,84,72.3,83.4,65.6,78.5L65.6,78.5z"/>
	<ellipse transform="matrix(0.4226 -0.9063 0.9063 0.4226 81.8368 427.0181)" class="st3" cx="376.1" cy="149.3" rx="7.3" ry="18"/>
	<ellipse transform="matrix(0.4226 -0.9063 0.9063 0.4226 48.201 464.8498)" class="st3" cx="388.9" cy="194.6" rx="7.3" ry="18"/>
	<ellipse transform="matrix(0.4226 -0.9063 0.9063 0.4226 73.3525 366.0236)" class="st3" cx="323.9" cy="125.4" rx="7.3" ry="18"/>
	<ellipse transform="matrix(0.4226 -0.9063 0.9063 0.4226 51.7388 311.9727)" class="st3" cx="270.7" cy="115.4" rx="7.3" ry="18"/>
	<ellipse transform="matrix(0.4226 -0.9063 0.9063 0.4226 44.9217 389.2295)" class="st3" cx="327.9" cy="159.4" rx="7.3" ry="18"/>
	
		<ellipse transform="matrix(0.4226 -0.9063 0.9063 0.4226 113.3445 468.2378)" class="st3" cx="424.2" cy="145.2" rx="7.3" ry="18"/>
	<ellipse transform="matrix(0.9341 -0.3571 0.3571 0.9341 -0.6275 81.5568)" class="st3" cx="220.6" cy="42.5" rx="4.5" ry="14.2"/>
	
		<ellipse transform="matrix(0.9341 -0.3571 0.3571 0.9341 -96.3574 130.9869)" class="st3" cx="306.6" cy="326.5" rx="19.1" ry="6.6"/>
	<ellipse transform="matrix(0.9604 -0.2785 0.2785 0.9604 3.6565 61.1467)" class="st3" cx="217.1" cy="17.7" rx="4" ry="11.6"/>
	<ellipse transform="matrix(0.9604 -0.2785 0.2785 0.9604 0.1467 64.9245)" class="st3" cx="228.6" cy="31.9" rx="3.8" ry="8.1"/>
	<ellipse transform="matrix(0.9852 -0.1716 0.1716 0.9852 -8.775 6.4282)" class="st3" cx="32.8" cy="54" rx="3.2" ry="10.5"/>
	<ellipse transform="matrix(0.866 -0.5 0.5 0.866 -26.0542 30.4002)" class="st3" cx="43.7" cy="63.8" rx="2.5" ry="6.8"/>
	
		<ellipse transform="matrix(0.7809 -0.6247 0.6247 0.7809 -18.8228 109.2697)" class="st3" cx="146.3" cy="81.5" rx="4.5" ry="8.9"/>
	<ellipse transform="matrix(0.8933 -0.4495 0.4495 0.8933 -14.8624 22.3662)" class="st3" cx="39.7" cy="42.5" rx="3.8" ry="14.2"/>
	<ellipse transform="matrix(0.7071 -0.7071 0.7071 0.7071 23.1603 399.6245)" class="st4" cx="494" cy="171.9" rx="10.2" ry="15"/>
	<ellipse transform="matrix(0.7071 -0.7071 0.7071 0.7071 -52.6916 378.7103)" class="st4" cx="430.8" cy="253" rx="10.2" ry="15"/>
	
		<ellipse transform="matrix(0.9341 -0.3571 0.3571 0.9341 -87.9402 137.0519)" class="st3" cx="327.2" cy="306.7" rx="14.4" ry="5.7"/>
	
		<ellipse transform="matrix(0.9341 -0.3571 0.3571 0.9341 -92.203 126.0092)" class="st3" cx="295.2" cy="312.7" rx="12.1" ry="4.5"/>
</g>
<g class="st5">
	<path class="st6" d="M297.4,68.9c1.2-0.9,5,7.9,13.3,9.9c0,0,3.7,0.9,13.3,0.3c2-0.1,3-0.2,3.4-0.3c0.4-0.1,0.6-0.1,0.6-0.1
		c0.4,0.5-3.2,3.3-6.4,7.8c-1.5,2.2-2.3,3.2-2.8,4.7c-0.7,2-1,4.8,2,14.8c2.2,7.2,2.9,7.6,2.4,9.2c-1.3,4.6-7.9,3.6-12.7,8.8
		c-5.7,6.1-0.9,12-5.5,17.9c-6.4,8.1-18.5,0.7-28.7,9.3c-4.6,3.9-6.3,8.9-9.4,18.1c-4.7,14.3-2.2,21.2-8,25.6
		c-4.2,3.1-6.6,0.3-13.4,3.8c-5.5,2.8-8.4,6.9-12.9,13.2c-6.7,9.3-4.8,10.7-11.1,18.6c-4.5,5.7-6.8,6.6-7.2,10.3
		c-0.6,5.9,4.5,9.3,2.6,13.4c-1,2.2-3.9,3.8-6.3,3.7c-5.1-0.3-5.2-8-11.6-13.7c-9.4-8.4-21.6-2.8-24.3-9c-1.9-4.4,2.5-10.3,5.9-14.8
		c8.2-10.9,13.5-8.9,19.6-16.5c10.4-13,0.8-26.2,12.3-37.1c3.7-3.5,5.8-3.2,12.2-9.2c5.4-5,8.2-9.3,11.3-13.7
		c6-8.3,11.8-16.3,18.8-22.5c10.9-9.5,14.2-5.3,30.2-17.4c10.4-7.8,16.3-13.5,15.8-19.1c-0.1-1-0.5-4.4-1.5-8.3
		C297.9,71.5,296.7,69.4,297.4,68.9L297.4,68.9z"/>
	<path class="st7" d="M293.9,60.8c1-0.4,2.9,7.9,10.1,12.3c6,3.7,15.2,4.6,15.8,4.6c3.2,0.3,5.6,0.1,5.9,1c0.4,1.5-6.6,2.6-10,8.3
		c-3,5-1.9,11.3-1.5,13.4c1,5.6,3.1,6.3,2.4,9.2c-1.1,4.6-7,4-11.4,9.1c-5.5,6.3-0.6,11.8-4.9,18c-5.8,8.3-17.2,1.9-27.8,11
		c-4.7,4-6.6,8.8-10.3,17.7c-5.5,13.5-3.9,20-10,23.9c-4.8,3.1-7.5,0.2-13.4,3.8c-2.4,1.5-3.8,3.1-10.1,13.9
		c-9.8,16.8-8.7,16.8-12.3,20.9c-4.5,5.3-7.1,6.3-7.4,10.1c-0.5,5.8,5.1,9.8,3.2,13.1c-1,1.8-3.7,2.4-5.5,2.3
		c-6.3-0.3-7-8.9-14.5-14.9c-10.2-8.2-21.6-2.8-24.3-9c-1.9-4.4,2.5-10.3,5.9-14.8c8.2-10.9,13.5-8.9,19.6-16.5
		c10.4-13,0.8-26.2,12.3-37.1c3.7-3.5,5.8-3.2,12.2-9.2c5.8-5.4,8-9.4,11.3-13.7c4.6-5.9,6.2-5.8,26.2-21.1
		c5-3.8,10.9-8.8,22.8-18.7c1.8-1.5,14.1-10.6,15.8-19.1c1.4-6.8,0.6-12.3,0.6-12.3C294.3,63.5,293.3,61,293.9,60.8L293.9,60.8z"/>
	<path class="st8" d="M296.7,87.9c0.4-0.7,1.9-3,8-5.5c6.1-2.5,14.5-4.2,15.2-2.5c0.8,1.9-9.8,4.6-11.4,12.4
		c-1.3,6.5,4.7,11.6,2.4,14.4c-2.2,2.8-9.4-0.6-10.8,1.9c-1,1.8,2.6,4.1,1.9,7.1c-0.9,3.5-5.4,3.1-8.7,7c-0.6,0.7-2.5,3.7-2.2,7.3
		c0.3,3.3,2.2,3.9,2,5.5c-0.7,4.4-15.6,1.1-24.9,9.5c-4.2,3.8-6.2,9.1-7.9,13.6c-2,5.1-1.6,6.9-4.2,13.9c-2.6,7.1-4.2,11-7.4,11.9
		c-3.7,0.9-6.1-3.2-9.3-1.8c-1.5,0.6-1.4,1.7-4.7,8c-3,5.6-2.8,4.9-4.6,8.2c-2.7,4.9-2.8,5.6-4.8,7.9c-2.1,2.5-3.6,4.8-5.7,7.8
		c-3.4,4.9-2.9,5.2-6.5,10.8c-4.3,6.6-5.2,6.3-6,9.2c-1.8,5.9,1,10.2-0.8,11.4c-1,0.7-3.1,0.3-8.3-4c-1.1-2-2.5-5.1-2-8.7
		c1-9,12.2-13.5,10.7-18.2c-0.8-2.7-4.7-2.4-5-4.7c-0.5-4.1,11-7.1,10.6-11c-0.3-3.1-7.9-3.2-8.9-7.3c-0.5-2,0.6-4.2,4.3-8
		c9.4-9.8,20.4-14.2,21.5-14.6c11.9-4.6,16.1-2.7,18.4-6.8c3.5-6.2-4.6-13.5-0.9-19c2.5-3.8,7.1-1.4,16.7-5.2
		c6.5-2.6,10.5-6.2,17.6-12.4c5.9-5.2,8.9-7.8,10.7-11.5c2.1-4.2,3.8-10.5,4-17C295.7,92.8,295.1,90.7,296.7,87.9L296.7,87.9z"/>
</g>
<g>
	<path class="st9" d="M343.6,89c10.2,10,15.9,18.9,15.9,18.9c2,3.2,3.7,6.3,5.4,6c3.8-0.7,2.1-18.2,5.5-18.9
		c4.5-0.9,11.3,28.2,18.7,27.6c4.4-0.3,6.3-11.1,8-10.7c3.7,0.7-5.8,53.1,2.3,55.7c4.2,1.3,11.1-11.7,15.1-9.8
		c1.7,0.8,1,3.6,2.3,12.5c1.4,10.3,2.8,10.7,2.2,15.3c-0.9,6.9-4.3,7.8-3.6,12.3c0.7,4.3,4.1,4.9,8.9,11.1
		c6.3,7.9,6.4,14.1,8.2,13.9c4.2-0.4,3.6-35.3,7.1-35.5c2.6-0.2,5.3,18.3,8.4,18c2-0.2,2-8.3,3.8-8.4c2.3-0.1,8.7,13.6,5.6,27.2
		c-1.2,5.3-3.4,8.6-2.5,14.6c0.6,4,2,4.7,2.9,9.9c1.1,6-0.2,7.6,0.4,13c0.9,8.6,5.4,15.9,6.8,15.6c2-0.5-2.5-15.9,2.9-19
		c3.8-2.2,9.1,3.6,11.8,1.6c4.4-3.3-6.7-22-3.3-24.6c4-3.1,22.4,20.3,27.2,17.2c4.5-2.9-3.6-29.3-15.1-31c-2.4-0.4-4.1,0.5-6.9-0.8
		c-5.4-2.4-7.3-9.3-8.3-13c-2.1-8-1.4-14.5-1.1-17.3c2.1-23.5-6.9-39.5-2.7-41.3c3.8-1.7,12.2,11.2,15.7,9.2
		c2.5-1.5-0.9-8.7,2.5-11.6c3.8-3.2,11.4,2.7,13.2,0.6c2.1-2.5-4.7-16.1-17.2-21.7c-11.1-4.9-16.8,0.9-24-5
		c-6.6-5.3-4-11.7-12.1-17.4c-3.1-2.2-6.4-3.1-12.9-5.1c-6.2-1.9-9.3-2.8-13-2.3c-6.9,1-7.8,5.5-12.6,5.9
		c-7.3,0.6-10.2-9.2-19.8-15.8c-5.5-3.9-9.6-4.1-34.9-5.9c-26.1-1.9-40.7-3-40.8-1.9C313.3,79.2,331.5,77.2,343.6,89L343.6,89z"/>
	<path class="st10" d="M444.4,104.5c2.5-0.5,3.6,18.3,15.8,23.2c8.8,3.5,17.5-2.6,18.6-0.3c1.2,2.4-6.6,11.9-16.2,11.8
		c-7.3-0.1-12.2-5.7-13.7-7.4C439.9,121.2,442.1,104.9,444.4,104.5L444.4,104.5z"/>
	<path class="st10" d="M419.8,167.8c-1,0.8,3.7,4.8,4.1,11.5c0.4,6.9-4.2,8.7-3.6,15.3c0.6,5.6,4.4,10.6,6.1,10.2
		c1-0.2,1.3-2.2,1.5-4.1c0.8-5.7-0.6-8.3-1-13.3c-0.7-7.8,2.2-9.2,0.3-13.5C425.3,169.6,420.7,167.1,419.8,167.8L419.8,167.8z"/>
	<path class="st10" d="M346.8,87.9c-0.5,0.9,3.7,3.4,10,10.7c2.5,3,3.4,4.4,4,4.1c1.2-0.5,1.2-6.6-1.9-10c-0.8-0.9-1.8-1.4-3.8-2.3
		C354.3,90,347.4,86.7,346.8,87.9L346.8,87.9z"/>
	<path class="st10" d="M399.9,130c-0.5,0-0.2,4.1-0.3,16.8c0,3.5,1,7.2,0,10.5c-0.1,0.3-0.4,1.3,0,1.8c0.8,0.9,3.7,0.4,5.1-1
		c1.9-2,0.4-5.7-1.5-13C400.7,135.2,400.5,129.9,399.9,130L399.9,130z"/>
	<path class="st10" d="M458.7,240.5c0.8-0.5,4.5,2.4,5.6,6.4c1.6,5.5-2.1,11.5-3.1,11.2c-0.7-0.2,0.3-3.5-0.8-9.7
		C459.5,243.4,458,240.9,458.7,240.5z"/>
</g>
</svg>
