<?xml version="1.0" encoding="utf-8"?>
<!-- Generator: Adobe Illustrator 26.0.0, SVG Export Plug-In . SVG Version: 6.00 Build 0)  -->
<svg version="1.1" id="tubabaleia" xmlns="http://www.w3.org/2000/svg" xmlns:xlink="http://www.w3.org/1999/xlink" x="0px" y="0px"
	 viewBox="0 0 760.1 478.1" style="enable-background:new 0 0 760.1 478.1;" xml:space="preserve">
<style type="text/css">
	.st0{fill:#7E869C;}
	.st1{fill:#A0AAC8;}
	.st2{opacity:0.45;fill:#0E2537;enable-background:new    ;}
	.st3{fill:#C8C1DB;}
	.st4{fill:#1D1D1B;}
	.st5{fill:#0E2537;}
	.st6{fill:#325872;}
	.st7{opacity:0.92;}
	.st8{fill:none;stroke:#0E2537;stroke-width:1.47;stroke-miterlimit:10;}
	.st9{opacity:0.88;}
	.st10{fill:#509997;}
	.st11{fill:#84C6C6;}
	.st12{fill:#A2D6D9;}
</style>
<g>
	<path class="st0" d="M128.7,116.7c-7-6-10.3-14.3-16.5-30c-3.1-7.9-3.2-9.6-5.1-14.6C98.5,50.1,78.2,30.3,71,33.5
		c-1.8,0.8-3.7,3.7-0.3,33.8c4.7,41.3,9.6,46.3,8.3,64.8c-1.4,19.8-8.2,34.7-13.5,46.6c-13.7,30.2-29.7,42.4-27,45.5
		c3.5,4,36.1-8.8,55.7-37c14.7-21.2,11.7-36.1,27-43.7c12.9-6.4,27.7-2,40.2,1.8c11.6,3.5,26.9,8,33.6,21
		c6.8,13.4,0.2,27.4,4.7,29.1c4.9,1.8,11-15.2,29.2-20.2c3.2-0.9,5.6-1,10.5-1.3c15.8-0.9,27.9,2.7,38.3,5.9
		c8.9,2.7,13.9,4.3,20,8.2c9.2,5.9,14.4,12.9,16.1,15.2c7.2,9.7,23.8,24.5,53,57.6c25.9,29.3,48.1,54.5,69.9,67.7
		c2.7,1.6,10.2,6,13.1,14.4c3.6,10.5-1.8,21.3-5,27.1c-22.9,41.2-82.8,90.7-76.3,104c5.3,10.9,54.6-2.7,62.8-5
		c25.2-7,43.1-16.7,55.6-23.6c15.3-8.5,36.2-21.6,58.5-41.3c6.6,6.1,17,14,31.3,19.2c55.8,20,111.3-24.2,118.6-30.2
		c21.6-17.8,32.4-37,39.7-50.3c9.2-16.8,38.5-70,17.8-111.8c-5.9-11.9-15.4-21.8-21-27.8c-13.9-14.6-28-23.7-38-29.3
		c-2.1-48-10.3-62.5-18.8-64.6c0,0-7.3-1.8-49,38c-23.3-8.5-50.9-16.7-82.4-22.6c-46.2-8.8-87.3-10.1-120.1-8.8
		c-6.5-13.8-17.2-32.5-34.6-51.1c-30.3-32.3-72.2-54.4-78.4-47.8c-1.8,1.9,1,4.7,5,19.7c3,11.2,4.1,20.3,6.5,38.6
		c1,7.9,2.1,18,3,29.8c-7.2,3.1-18.3,7.3-32.1,10.8c-24.5,6.3-37.3,9.5-48.2,3.6c-17.7-9.7-17-36.7-23.8-36.2
		c-6.9,0.4-3.5,27.7-20.4,38.8c-7.9,5.2-17.2,4.5-35.7,3C145.8,123.7,136.4,123.3,128.7,116.7L128.7,116.7z"/>
	<g>
		<path class="st1" d="M122.9,101.7c-12.9-9.5-9-20.6-21.6-44.6C90.1,36,71.8,15.5,65.2,18.5c-1.8,0.8-3.7,3.7-0.3,33.8
			c4.7,41.3,9.6,46.3,8.3,64.8c-0.9,12.9-5.1,24.1-13.5,46.6c-13.5,35.9-23.8,48.1-20.3,51.1c5,4.4,26.7-8.1,41-22.9
			c7.2-7.5,12.2-15.1,16.7-22.1c13.7-21.1,12-28.1,21-32.8c9.5-5,19.5-3.2,34.4-0.7c17.4,3,29.8,5.1,36.7,14.8
			c10.3,14.4,0.4,34.7,6.2,37c5.7,2.3,12.5-18.5,31.1-23.3c7.1-1.8,5.7,1.3,35.2,5.9c16.1,2.5,24.8,2.9,35.6,9.2
			c5.3,3.1,8.8,6.3,10.7,8c19.3,17.7,42.5,45.7,53,57.6c25.9,29.3,48.1,54.5,69.9,67.7c2.7,1.6,10.2,6,13.1,14.4
			c3.6,10.5-1.8,21.3-5,27.1c-22.9,41.2-82.8,90.7-76.3,104c5.3,10.9,54.6-2.7,62.8-5c25.2-7,43.1-16.7,55.6-23.6
			c15.3-8.5,36.2-21.6,58.5-41.3c6.6,6.1,17,14,31.3,19.2c55.8,20,111.3-24.2,118.6-30.2c21.6-17.8,32.4-37,39.7-50.3
			c9.2-16.8,38.5-70,17.8-111.8c-5.9-11.9-15.4-21.8-21-27.8c-13.9-14.6-28-23.7-38-29.3c-2.1-48-10.3-62.5-18.8-64.6
			c0,0-7.3-1.8-49,38c-23.3-8.5-50.9-16.7-82.4-22.6c-3.2-0.6-10.7-2-20-3.4c-23.3-3.5-57.2-6.9-100-5.4
			c-6.5-13.8-17.2-32.5-34.5-51.1C352.9,17.5,311.1-4.6,304.8,2c-1.8,1.9,1,4.7,5,19.7c3,11.2,4.1,20.3,6.5,38.6
			c1,7.9,2.1,18,3,29.8c-7.2,3.1-18.3,7.3-32.1,10.8c-24.5,6.3-37.3,9.5-48.2,3.6c-17.7-9.7-17-36.7-23.8-36.2
			c-6.9,0.4-3.5,27.7-20.4,38.8c-7.9,5.2-17.2,4.5-35.7,3C140.8,108.7,131.4,108,122.9,101.7L122.9,101.7z"/>
		<path class="st0" d="M620.2,132.4c6.2-5.6,15.2-13.7,24.9-22.4c12.4-11.2,18.8-16.7,24.1-15.6c6,1.3,9.4,8.4,13.8,17.4
			c1.3,2.7,4,8.7,6.6,21c1.5,7,3.1,17,3.5,29.2C668.9,152,644.5,142.2,620.2,132.4L620.2,132.4z"/>
		<path class="st2" d="M122.9,100.8c-12.9-9.5-9-20.6-21.6-44.6C90.1,35.2,71.8,14.6,65.2,17.6c-1.8,0.8-3.7,3.7-0.3,33.8
			c4.7,41.3,9.6,46.3,8.3,64.8c-0.9,12.9-5.1,24.1-13.5,46.6c-13.5,35.9-23.8,48.1-20.3,51.1c5,4.4,26.7-8.1,41-22.9
			c7.2-7.5,12.2-15.1,16.7-22.1c13.7-21.1,12-28.1,21-32.8c9.5-5,19.5-3.2,34.4-0.7c17.4,3,29.8,5.1,36.7,14.8
			c10.3,14.4,0.4,34.7,6.2,37c5.7,2.3,12.5-18.5,31.1-23.3c7.1-1.8,5.7,1.3,35.2,5.9c16.1,2.5,24.8,2.9,35.6,9.2
			c5.3,3.1,8.8,6.3,10.7,8c19.3,17.7,42.5,45.7,53,57.6c25.9,29.3,48.1,54.5,69.9,67.7c2.7,1.6,10.2,6,13.1,14.4
			c3.6,10.5-1.8,21.3-5,27.1c-22.9,41.2-82.8,90.7-76.3,104c5.3,10.9,54.6-2.7,62.8-5c25.2-7,43.1-16.7,55.6-23.6
			c15.3-8.5,36.2-21.6,58.5-41.3c6.6,6.1,17,14,31.3,19.2c55.8,20,111.3-24.2,118.6-30.2c21.6-17.8,32.4-37,39.7-50.3
			c9.2-16.8,38.5-70,17.8-111.8c-5.9-11.9-15.4-21.8-21-27.8c-13.9-14.6-28-23.7-38-29.3c-2.1-48-10.3-62.5-18.8-64.6
			c0,0-7.3-1.8-49,38c-23.3-8.5-50.9-16.7-82.4-22.6c-3.2-0.6-10.7-2-20-3.4c-23.3-3.5-57.2-6.9-100-5.4
			c-6.5-13.8-17.2-32.5-34.5-51.1c-30.3-32.3-72.2-54.4-78.4-47.8c-1.8,1.9,1,4.7,5,19.7c3,11.2,4.1,20.3,6.5,38.6
			c1,7.9,2.1,18,3,29.8c-7.2,3.1-18.3,7.3-32.1,10.8c-24.5,6.3-37.3,9.5-48.2,3.6c-17.7-9.7-17-36.7-23.8-36.2
			c-6.9,0.4-3.5,27.7-20.4,38.8c-7.9,5.2-17.2,4.5-35.7,3C140.8,107.9,131.4,107.1,122.9,100.8L122.9,100.8z"/>
		
			<ellipse transform="matrix(0.4226 -0.9063 0.9063 0.4226 120.7933 595.6399)" class="st3" cx="527.9" cy="203" rx="9.3" ry="23.1"/>
		
			<ellipse transform="matrix(0.4226 -0.9063 0.9063 0.4226 77.6286 644.199)" class="st3" cx="544.4" cy="261.2" rx="9.3" ry="23.1"/>
		
			<ellipse transform="matrix(0.4226 -0.9063 0.9063 0.4226 109.8994 517.3209)" class="st3" cx="461" cy="172.4" rx="9.3" ry="23.1"/>
		
			<ellipse transform="matrix(0.4226 -0.9063 0.9063 0.4226 82.1723 447.9478)" class="st3" cx="392.7" cy="159.5" rx="9.3" ry="23.1"/>
		
			<ellipse transform="matrix(0.4226 -0.9063 0.9063 0.4226 73.4205 547.1308)" class="st3" cx="466.1" cy="215.9" rx="9.3" ry="23.1"/>
		
			<ellipse transform="matrix(0.4226 -0.9063 0.9063 0.4226 161.2743 648.5469)" class="st3" cx="589.6" cy="197.7" rx="9.3" ry="23.1"/>
		
			<ellipse transform="matrix(0.9341 -0.3571 0.3571 0.9341 -1.8805 121.5525)" class="st3" cx="328.3" cy="65.9" rx="5.8" ry="18.2"/>
		
			<ellipse transform="matrix(0.9341 -0.3571 0.3571 0.9341 -124.7855 185.0128)" class="st3" cx="438.7" cy="430.5" rx="24.6" ry="8.5"/>
		<ellipse transform="matrix(0.9604 -0.2785 0.2785 0.9604 3.3224 91.513)" class="st3" cx="323.8" cy="34.1" rx="5.1" ry="14.9"/>
		
			<ellipse transform="matrix(0.9604 -0.2785 0.2785 0.9604 -1.1885 96.3601)" class="st3" cx="338.6" cy="52.4" rx="4.9" ry="10.4"/>
		
			<ellipse transform="matrix(0.9852 -0.1716 0.1716 0.9852 -12.5458 16.1599)" class="st3" cx="87.2" cy="80.7" rx="4.1" ry="13.5"/>
		<ellipse transform="matrix(0.866 -0.5 0.5 0.866 -33.0775 63.1025)" class="st3" cx="101.2" cy="93.3" rx="3.3" ry="8.7"/>
		
			<ellipse transform="matrix(0.7809 -0.6247 0.6247 0.7809 -15.1158 160.9281)" class="st3" cx="221.8" cy="102" rx="5.8" ry="11.4"/>
		<ellipse transform="matrix(0.8933 -0.4495 0.4495 0.8933 -19.3651 50.1911)" class="st3" cx="96" cy="65.9" rx="4.9" ry="18.2"/>
		
			<ellipse transform="matrix(0.7071 -0.7071 0.7071 0.7071 34.9117 548.2489)" class="st4" cx="679.3" cy="232" rx="13.1" ry="19.2"/>
		
			<ellipse transform="matrix(0.7071 -0.7071 0.7071 0.7071 -62.4624 521.412)" class="st4" cx="598.2" cy="336.1" rx="13.1" ry="19.2"/>
		
			<ellipse transform="matrix(0.9341 -0.3571 0.3571 0.9341 -113.9811 192.8055)" class="st3" cx="465.2" cy="405.1" rx="18.5" ry="7.3"/>
		
			<ellipse transform="matrix(0.9341 -0.3571 0.3571 0.9341 -119.4497 178.6264)" class="st3" cx="424.1" cy="412.8" rx="15.5" ry="5.8"/>
	</g>
</g>
<g>
	<path class="st5" d="M78.7,175.5c-0.1,0.5-0.4,1.2-1,2c-1.4,1.9-3.7,2.3-4.9,2.8c-2.2,0.7-3.8,2.5-6.9,6.1
		c-5.7,6.5-10.5,18.6-8.4,20c2.7,1.8,14.5-15.4,21-12.4c3,1.4,2.9,6.2,4.8,6.1c1.6,0,3.1-4.4,6.3-13.2c0.8-2.2,1.4-4.1,2.7-6.9
		c1.4-2.9,1.8-3,2.5-4.8c1.5-3.8,0.5-5.7,1.1-8.8c0.5-2.6,2.3-4.7,5.7-8.8c3.9-4.6,7.1-8.4,12.8-12.4c2.9-2,6.7-4.8,12.5-6.3
		c5.4-1.4,8.7-2.2,12.7-1.1c3.3,0.9,3.8,2.1,5.5,1.7c4.6-1,4.5-10.1,8.5-10.6c2.4-0.3,3.1,2.8,6.2,2.9c4.9,0.2,6.2-7.8,11.6-8.4
		c4.1-0.5,4.8,4,11.3,4.6c4.7,0.4,8.8-1.4,9.3-1.6c1.6-0.8,3.4-1.9,5.6-3.3c4-2.6,4.1-3.1,5.2-3.1c3.5-0.1,4.9,5.3,7.7,5
		c3.1-0.3,3.4-7.2,5.9-7.4c3.9-0.4,7.6,16.1,11.3,15.6c2.3-0.3,2.3-6.9,6.4-7.9c1.6-0.4,3,0.3,4.3,0.8c5.1,2.3,5.6,7.3,8,7.2
		c2.4-0.1,2.7-5,6.1-5.4c2.4-0.3,4.9,1.9,5.1,2.2c1,1,1.5,2.1,1.7,2.5c4.2,6.5,5,11.6,6.6,11.3c2.3-0.3,1.8-10.4,4.2-11.1
		c0.3-0.1,1.2,0.2,5,7.8c1.3,2.7,2.2,4.5,2.7,5.7c4.1,8.8,6.5,13.9,10.1,14.2c1.8,0.2,3.6-1,4.9-1.8c0.8-0.5,2.7-1.7,3.8-3.9
		c1.1-2.2,0.3-2.4,1.3-5.2c1-2.7,1.8-3.4,1.6-5.7c-0.5-4.4-4.2-4.9-11.5-14.1c-3.6-4.6-4-6-4-7.2c0-5.1,5.9-9,9.8-10.3
		c1.6-0.5,3.6-1.2,4.7,0.1c2,2.3-0.6,8.6,0.5,9.3c1.1,0.7,3.6-5.6,6.5-5.3c1.8,0.2,2.9,2.7,3.6,4.1c6,12.8,8.9,20,10.6,19.9
		c2-0.2,0.8-10,7.3-17c1.3-1.4,3.3-3.5,6.1-3.7c2.8-0.2,4,1.5,5.9,0.8c2.9-1.2,2.4-6.6,4.1-6.8c1.5-0.1,3.4,4.1,4.3,6.7
		c1,2.9,1,4.7,1.9,4.9c0.9,0.3,1.4-1.2,2.8-2c2.3-1.2,4.9,0.6,6.1,1.5c7.1,4.9,9.7,19.7,12.9,19.5c3.5-0.3,2.1-17.7,10.6-23.6
		c2.3-1.6,3.1-0.8,11.2-1.8c2.9-0.3,20.8-2.4,21.1-6.3c0.2-3-10-3.6-11.1-10c-1.1-5.9,6.2-11.8,4.7-14.7c-0.9-1.7-3.2,0.1-7.5-1.6
		c-1.2-0.4-6.5-2.4-7.5-7.1c-0.8-3.5,1-7.7,1.7-9.6c1.1-2.6,2-3.7,1.7-4.6c-0.7-1.6-4.7,1.4-6.9-0.6c-2.8-2.6,0.3-11.5-1.1-12.4
		c-1.8-1.1-5.7,14.1-16.7,20.8c-3.7,2.3-5.7,2-8.3,5.3c-4.2,5.4-4.1,12.9-6.6,13.1c-1.8,0.2-2.9-3.6-4.4-3.1
		c-1.5,0.6-0.6,4.6-2.6,6.4c-0.3,0.2-0.5,0.4-0.8,0.4c-2.5,0.8-4.5,0.3-6.8-0.1c-2.3-0.4-4.4,0.1-8.7,1c-3.9,0.8-5,1.6-6,0.8
		c-1.7-1.3-0.4-5-2-6c-1-0.6-1.8,0.7-3.1,0c-1.3-0.7-1-2.2-2-2.5c-1.5-0.4-2.7,3.8-6.6,5.1c-0.6,0.2-0.4,0.1-3,0.7
		c-1,0.2-2.2,0.5-4,1.1c-1.1,0.3-1.6,0.5-2.1,0.8c-2.1,1-2.3,1.7-3.9,2.1c-0.1,0-0.4,0.1-0.8,0.2c-0.9,0.2-1.6,0.2-1.7,0.3
		c-1.4,0.2-2.1,2.2-3.9,3.4c-2.1,1.4-3.1-0.1-4.8,1.3c-1.3,1.1-1.3,2.6-3.1,3.5c-0.5,0.2-0.9,0.3-1.1,0.4c-2,0.2-3.6-1.8-7.2-1.7
		c-2.7,0.1-4.9,1.3-6.9,2.4c-3,1.7-3.3,2.7-5.6,3.6c-1.5,0.5-2.5,0.5-6.4,0.2c-6.2-0.5-9.3-0.7-10.8-1.1c-5.9-1.6-5.6-3.6-8.4-3.4
		c-5.8,0.5-6.5,9-12.4,9.7c-4.4,0.5-9.5-3.6-10.3-4.3c-2.3-1.8-3.9-3.9-6-3.5c-1.9,0.4-2.3,2.2-4,2.2c-2.3,0-2.7-3.3-5.1-3.8
		c-1.9-0.4-2.5,1.6-7,4.2c-3.6,2.1-5,2.5-6,2.6c-0.7,0.1-0.8,0-4.3-0.4c-4.8-0.5-4.5-0.4-5.9-0.7c-3.6-0.8-3.6-1.8-5.6-1.5
		c-1.2,0.1-3.5,0.8-4.9,2.6c-0.7,0.9-0.8,1.6-1.5,1.7c-1.1,0.2-1.6-1.4-3.7-1.9c-0.8-0.2-0.7,0.1-2.1-0.1c-2.6-0.2-3.1-1-4.1-0.6
		c-1.3,0.5-1.1,1.8-2.2,2.1c-1.2,0.3-2.6-1.1-3.3-2.1c-0.9-1.3-0.9-1.8-1.6-2.4c-2.1-2.2-7.7-1.2-8.1,0.4c-0.4,1.7,5.4,3.3,5.1,6.1
		c-0.1,1.6-2.2,2.7-3,3.2c-1.8,1-3.4,1.1-4.5,1.1c-4.2,0.3-4.8,1.4-9,2.1c-6.5,1.2-6.9-0.9-12.6-0.1c-6.3,0.9-10.7,4.2-14.4,7
		c-3.9,3-5.9,4.5-6.9,7.4c-1.3,4.1,1.1,6.1-0.6,9.7c-1.7,3.6-4.6,2.6-6.7,6.7c-1.9,3.6-0.8,6.7-2.7,7.5c-1.7,0.8-3.2-1.6-4.7-0.8
		C79.4,162,80.5,169.4,78.7,175.5L78.7,175.5z"/>
	<path class="st6" d="M356.8,118.7c-0.3,0.7,7.4,2.3,9.8,8.5c1.4,3.4,0.4,6.3,1.3,6.6c1.2,0.3,4.8-4.3,3.9-8.2
		C370.4,118.9,357.1,117.8,356.8,118.7L356.8,118.7z"/>
	<path class="st6" d="M282,137.2c-2.2,0.7-2.7,8.4,0.6,14.1c2.1,3.6,5.4,5.6,5.9,5.2c0.5-0.5-3.9-4-3.6-8.9c0.2-3.2,2.3-4.5,1.5-7
		C285.7,138.5,283.4,136.7,282,137.2L282,137.2z"/>
	<path class="st6" d="M101.2,136.4c3-6.7,12-8,14.5-8.4c2.6-0.4,5.2-0.3,5.3,0.1c0.2,0.8-9.3,0.8-14.5,7c-4.5,5.3-3.4,12.3-4.5,12.2
		C101,147.3,99,141.4,101.2,136.4L101.2,136.4z"/>
	<path class="st6" d="M78.8,191.8c2.9,1.4,3.4,5.6,4.1,5.5c0.6-0.1,0.1-2.2,0.7-5.1c0.8-4.5,3.2-6.8,2.6-7.3
		c-0.5-0.5-2.5,1.5-6.2,3.7c-4.4,2.6-8.5,3.9-8.4,4.1C71.7,192.9,75.7,190.3,78.8,191.8L78.8,191.8z"/>
	<path class="st6" d="M131.3,134.4c0.2,0.4,6.4-0.8,7.1-1c2.3-0.5,3.5-0.8,4.5-0.1c1.4,1,0.8,3,1.6,3.3c1.7,0.5,6.5-7.7,5.2-8.7
		c-0.6-0.5-1.9,1.1-6,2.4c-2.7,0.8-3.1,0.4-6.1,1.3C134.1,132.5,131.2,134.1,131.3,134.4L131.3,134.4z"/>
	<path class="st6" d="M175.3,120.5c-0.3,0.5,2.1,2.7,5,3.7c4.7,1.7,9.1-0.3,10.9-1.1c2.3-1,4.3-2.4,4.1-2.7
		c-0.2-0.4-3.6,1.8-8.4,2.2C180.4,123.1,175.6,119.8,175.3,120.5L175.3,120.5z"/>
	<path class="st6" d="M319.3,92.3c0.9,0.5,0.9,1.6,1.9,1.9c1.1,0.3,1.9-1,2.5-0.8c1.2,0.5,0.5,6.5-1.2,6.8c-1.5,0.3-2-4.2-4.9-5
		c-4.4-1.3-9.7,6.9-11,5.9c-0.7-0.5-0.1-3.2,1.5-4.8c1.4-1.3,2.2-0.7,5.6-2C316.8,93.1,318.1,91.7,319.3,92.3L319.3,92.3z"/>
	<path class="st6" d="M311.4,121c-0.7,0.8,1.2,2.6,3.8,8.2c2.4,5.1,2.6,7.4,3.5,7.3c1.1-0.1,2.6-4,1.2-6.2c-0.8-1.3-2.1-1.1-2.8-2.6
		c-0.9-1.7,0.3-2.8-0.4-4.4C315.7,121.1,312.2,120.1,311.4,121L311.4,121z"/>
	<path class="st6" d="M384,61c-0.8-0.1,0,6.1-3.8,10.4c-4.1,4.6-9,2-13.9,6.7c-4.4,4.2-4.9,10.7-4.1,11c0.8,0.4,2.5-6.4,8.3-8.7
		c5-2,8,1.2,11.1-1.3c2.7-2.1,2.9-6.4,3.2-11.1C384.9,64.7,384.6,61.1,384,61L384,61z"/>
	<path class="st6" d="M401.7,91.8c1,1.2-3.9,4.6-3.4,9c0.7,5.6,10.1,8.3,9.6,9.3c-0.3,0.6-4-0.4-6.3-1.4c-2.2-0.9-3.8-1.6-4.9-3.4
		c-0.7-1.1-0.8-2-1-3.8c-0.4-3.4-0.7-5.8,0.8-7.6C398,91.8,401,91,401.7,91.8L401.7,91.8z"/>
	<path class="st6" d="M233.3,115.1c0.1-0.9,0.5-1.4,3.2-4.1c2.2-2.3,2.3-2.5,2.8-2.6c2.5-0.6,5.9,2.8,5.4,4c-0.4,1-3-0.4-5.7,1.2
		c-2.6,1.6-2.9,4.5-4.1,4.4C234,117.8,233.2,116.3,233.3,115.1L233.3,115.1z"/>
	<path class="st6" d="M241.3,125.8c0,0.3,1,0.3,2,1c2.1,1.5,1.7,4.3,2.7,4.5c0.8,0.1,2.1-1.5,2-3c-0.2-2.1-3.1-2.9-3.4-3
		C243,125,241.3,125.4,241.3,125.8L241.3,125.8z"/>
</g>
<g class="st7">
	<path class="st8" d="M105.8,69.9c-34.1,18.3-43.3,36.4-45.5,49.4c-3.8,21.8,11.1,35.1,5.8,55.1c-5.5,20.7-28.2,32.5-45.5,39.1"/>
	<path class="st8" d="M119.1,74.1C85,92.5,75.8,110.6,73.6,123.5c-3.8,21.8,11.1,35.1,5.8,55.1c-5.5,20.7-28.2,32.5-45.5,39.1"/>
	<path class="st8" d="M119.1,74.1C85,92.5,75.8,110.6,73.6,123.5c-3.8,21.8,11.1,35.1,5.8,55.1c-5.5,20.7-28.2,32.5-45.5,39.1"/>
	<path class="st8" d="M145.9,99.3c-34.1,18.3-43.3,36.4-45.5,49.4c-3.8,21.8,11.1,35.1,5.8,55.1c-5.5,20.7-28.2,32.5-45.5,39.1"/>
	<path class="st8" d="M133.9,87.5c-34.1,18.3-43.3,36.4-45.5,49.4c-3.8,21.8,11.1,35.1,5.8,55.1c-5.5,20.7-28.2,32.5-45.5,39.1"/>
	<path class="st8" d="M91.3,61.9C57.2,80.2,48,98.3,45.8,111.3c-3.8,21.8,11.1,35.1,5.8,55.1C46,187.1,23.3,198.9,6,205.5"/>
	<path class="st8" d="M55.5,64.2c12.3,13.3,24.3,20.4,33.3,24.4c15.5,6.8,24.8,5.8,33.3,14.1c9.5,9.2,11.1,23.1,10.9,34"/>
	<path class="st8" d="M33.8,153.3c12.3,13.3,24.3,20.4,33.3,24.4c15.5,6.8,24.8,5.8,33.3,14.1c9.5,9.2,11.1,23.1,10.9,34"/>
	<path class="st8" d="M28.2,169.3c12.3,13.3,24.3,20.4,33.3,24.4c15.5,6.8,24.8,5.8,33.3,14.1c9.5,9.2,11.1,23.1,10.9,34"/>
	<path class="st8" d="M13.7,181.5C26,194.8,38,201.9,47,205.9c15.5,6.8,24.8,5.8,33.3,14.1c9.5,9.2,11.1,23.1,10.9,34"/>
	<path class="st8" d="M44.1,74.5c12.3,13.3,24.3,20.4,33.3,24.4c15.5,6.8,24.8,5.8,33.3,14.1c9.5,9.2,11.1,23.1,10.9,34"/>
	<path class="st8" d="M33.8,88.9c12.3,13.3,24.3,20.4,33.3,24.4c15.5,6.8,24.8,5.8,33.3,14.1c9.5,9.2,11.1,23.1,10.9,34"/>
	<path class="st8" d="M37.7,134.9C50,148.2,61.9,155.2,71,159.2c15.5,6.8,24.8,5.8,33.3,14.1c9.5,9.2,11.1,23.1,10.9,34"/>
	<path class="st8" d="M33.8,110.7c12.3,13.3,24.3,20.4,33.3,24.4c15.5,6.8,24.8,5.8,33.3,14.1c9.5,9.2,11.1,23.1,10.9,34"/>
</g>
<g class="st9">
	<path class="st10" d="M416.7,90.3c1.6-1.1,6.4,10.2,17,12.7c0,0,4.7,1.1,17.1,0.4c2.6-0.1,3.8-0.2,4.3-0.3c0.5-0.1,0.7-0.2,0.8-0.1
		c0.5,0.6-4.1,4.2-8.2,10c-2,2.8-3,4.2-3.6,6.1c-0.9,2.6-1.3,6.2,2.6,19c2.8,9.3,3.7,9.7,3.1,11.8c-1.6,5.9-10.1,4.7-16.3,11.3
		c-7.4,7.8-1.1,15.4-7.1,22.9c-8.2,10.4-23.7,0.9-36.8,11.9c-6,5-8.1,11.4-12,23.3c-6.1,18.3-2.8,27.3-10.3,32.9
		c-5.4,4-8.4,0.4-17.2,4.9c-7,3.6-10.8,8.8-16.6,16.9c-8.6,12-6.2,13.8-14.3,23.9c-5.8,7.3-8.8,8.5-9.3,13.2
		c-0.8,7.5,5.8,11.9,3.4,17.2c-1.3,2.9-5,4.9-8.1,4.7c-6.5-0.4-6.7-10.3-14.9-17.6c-12-10.7-27.8-3.6-31.2-11.5
		c-2.4-5.6,3.2-13.2,7.6-19c10.5-14,17.4-11.5,25.2-21.2c13.3-16.7,1-33.6,15.7-47.6c4.8-4.6,7.4-4.1,15.6-11.7
		c6.9-6.5,10.5-11.9,14.5-17.5c7.7-10.7,15.1-20.9,24.1-28.8c14-12.2,18.2-6.9,38.8-22.3c13.3-10,20.9-17.3,20.3-24.5
		c-0.1-1.3-0.7-5.6-1.9-10.6C417.4,93.7,415.9,90.9,416.7,90.3L416.7,90.3z"/>
	<path class="st11" d="M412.3,79.9c1.2-0.6,3.8,10.1,13,15.8c7.7,4.7,19.5,5.9,20.3,5.9c4.1,0.4,7.2,0.2,7.5,1.3
		c0.5,2-8.5,3.3-12.9,10.6c-3.9,6.4-2.4,14.5-2,17.2c1.2,7.1,4,8.1,3.1,11.8c-1.4,5.9-8.9,5.2-14.6,11.6c-7,8-0.7,15.2-6.2,23.1
		c-7.4,10.7-22,2.4-35.7,14.1c-6,5.1-8.5,11.3-13.3,22.8c-7.1,17.3-5.1,25.6-12.8,30.7c-6.1,4-9.7,0.3-17.2,4.9
		c-3.1,1.9-4.9,4-13,17.9c-12.5,21.5-11.2,21.5-15.7,26.9c-5.8,6.9-9.1,8.2-9.5,12.9c-0.7,7.5,6.6,12.6,4.2,16.8
		c-1.3,2.3-4.7,3.1-7.1,3c-8.1-0.4-9-11.4-18.7-19.2c-13.1-10.5-27.8-3.7-31.2-11.5c-2.4-5.6,3.2-13.2,7.6-19
		c10.5-14,17.4-11.5,25.2-21.2c13.3-16.7,1-33.6,15.7-47.6c4.8-4.6,7.4-4.1,15.6-11.7c7.5-7,10.3-12.1,14.5-17.5
		c5.9-7.6,7.9-7.4,33.6-27.1c6.4-4.9,14-11.3,29.3-24c2.3-2,18.1-13.6,20.3-24.5c1.7-8.7,0.8-15.8,0.8-15.8
		C412.7,83.4,411.6,80.2,412.3,79.9L412.3,79.9z"/>
	<path class="st12" d="M415.9,114.8c0.6-1,2.5-3.9,10.3-7c7.9-3.2,18.6-5.5,19.5-3.3c1,2.5-12.6,5.9-14.6,15.9
		c-1.7,8.3,6.1,14.9,3.1,18.5c-2.9,3.5-12.1-0.8-13.8,2.4c-1.3,2.4,3.3,5.2,2.4,9.1c-1.1,4.5-6.9,4-11.2,8.9
		c-0.8,0.9-3.3,4.8-2.8,9.4c0.4,4.2,2.9,5,2.5,7c-0.9,5.6-20,1.4-31.9,12.2c-5.4,4.9-8,11.7-10.2,17.5c-2.5,6.6-2.1,8.9-5.4,17.9
		c-3.4,9.1-5.4,14.2-9.5,15.2c-4.8,1.2-7.8-4.1-12-2.3c-2,0.8-1.8,2.2-6.1,10.3c-3.8,7.2-3.6,6.3-6,10.6c-3.4,6.3-3.6,7.2-6.1,10.1
		c-2.7,3.2-4.6,6.1-7.3,9.9c-4.4,6.3-3.7,6.6-8.4,13.8c-5.6,8.5-6.7,8.1-7.8,11.7c-2.3,7.6,1.3,13-1,14.6c-1.2,0.8-4,0.4-10.7-5.1
		c-1.5-2.6-3.2-6.6-2.6-11.1c1.3-11.5,15.7-17.3,13.8-23.4c-1.1-3.4-6-3.1-6.4-6.1c-0.6-5.2,14.1-9.1,13.6-14.1
		c-0.4-4-10.2-4.1-11.5-9.3c-0.6-2.5,0.8-5.4,5.5-10.2c12.1-12.6,26.2-18.2,27.6-18.8c15.3-5.9,20.6-3.5,23.6-8.7
		c4.5-7.9-5.9-17.3-1.1-24.4c3.3-4.9,9.1-1.8,21.5-6.7c8.3-3.3,13.5-7.9,22.6-15.9c7.6-6.7,11.4-10,13.8-14.8
		c2.7-5.4,4.8-13.4,5.1-21.8C414.5,121.1,413.8,118.3,415.9,114.8L415.9,114.8z"/>
</g>
<g class="st9">
	<path class="st10" d="M530.1,387.7c0.3-0.1,5.8-1.2,8.8,1.9c1.9,1.9,0.8,3.4,3.1,6c2,2.3,3.6,2,4.4,3.8c0.4,0.8,1,2.8-1.6,7.2
		c-3.1,5.3-7.6,8.7-13.2,12.1c-5.1,3.1-15.1,9.1-16.8,7.1c-1.8-2.1,7.5-11,5-14.4c-0.9-1.2-2.8-1-4.9-1c-2,0-4.5,0.4-12.8,5.4
		c-6,3.6-6.1,4.2-7.7,4.3c-4.4,0.2-5.1-5.3-10.8-7.8c-6.4-2.8-10.7,2.9-17.3,0.3c-7.1-2.8-4.2-11.4-12.7-19.2
		c-4.7-4.3-13.1-8.7-21.6-7.7c-6.2,0.7-10.3,4-17.7,2.6c-3.3-0.6-5-1.8-6.1-2.8c-2.5-2.4-1.9-4.6-3.6-7c-2.8-3.9-9.5-5.7-14.1-3.9
		c-7,2.7-7.3,13.4-10.2,13.1c-3-0.3-1.3-11.8-9.2-19.7c-4.9-5-9.1-3.9-9.5-6.4c-1.5-8.9,53.7-21.6,61.1-15.8
		c0.3,0.2,2.6,2.1,6.1,4.3c0.7,0.4,2.7,1.7,4.9,2.9c4.1,2.2,7.9,3.5,11,4.4c13,3.7,14.6,1,21.6,4.4c5.9,2.8,10.3,7.4,12.7,9.9
		c2.9,3,3.9,4.5,7.4,8c2,2,4.8,4.4,9.1,7.3c9.3,6.2,15.8,9.4,20.7,7.5c2-0.8,4.8-2.1,7.1-3.3C527.4,389,527.9,388.2,530.1,387.7
		L530.1,387.7z"/>
	<path class="st11" d="M542.6,401.9c-0.4,1.5-1.1,1.6-4.4,6.1c-3.4,4.5-3.2,5.1-4.9,7c-3.4,3.9-9.8,8.1-12.6,6.4
		c-3.5-2.1,1.4-11.6-2.6-14.4c-3.2-2.3-10.1,1.2-12.4,2.3c-4.8,2.2-5,4.1-7.7,4.3c-4.3,0.3-5.2-4.5-10.7-6.6
		c-6.9-2.7-10.7,2.6-17.2,0.8c-8.8-2.4-5.6-13.1-16.2-19.2c-4.6-2.7-9.4-3-18.3-3.6c-13.4-0.9-18.8,2.1-23.7-1.7
		c-3.9-3-1.9-5.9-6.5-9.6c-0.3-0.3-0.6-0.5-1-0.7c-0.7-0.4-8.3-5-13.8-3.6c-7,1.8-8.6,13.2-10.7,12.7c-2-0.5,1.3-10.8-3.9-16.4
		c-4.4-4.7-11.6-2.7-12-4.9c-0.4-2.6,8.9-8.9,17.5-7.5c2.7,0.4,5.1,1.6,7,0.2c2.3-1.7,1-4.9,3.3-6.4c2.1-1.4,4,0.8,9,0.2
		c2.3-0.3,2.1-0.8,6.2-2c5.5-1.6,5.9-0.7,9.7-2c6-2,6.7-4.6,9.7-3.9c1.5,0.3,1.2,0.8,6.1,4.3c1.2,0.8,2.7,1.8,4.9,2.9
		c2.4,1.2,3.5,1.9,4.3,2c3.7,0.4,5.3-3.5,7.5-3c2.9,0.6,1.7,7.5,4.9,13.1c4.1,7,11,4.5,22.8,11.6c11.8,7.2,8.8,12.1,18.5,15.7
		c8.4,3.2,13,0.4,21.3,5.5c2.3,1.5,4.3,3.1,7.2,3c5-0.2,6.3-5.5,10.2-4.9C539.2,390.3,543.7,397.2,542.6,401.9L542.6,401.9z"/>
	<path class="st12" d="M512.9,392.1c0.1,0,0.3,0.1,0.3,0.1h0c1,0.3,3.2,1.1,6.5,4.9c3.7,4.2,7.1,10.4,5.8,11.3
		c-1.5,1.1-6.4-6.5-13.7-5.8c-6.1,0.7-9.3,6.8-12.4,5.7c-3-1.1-1.6-7.6-4.2-8c-1.9-0.3-3,3.1-5.9,3.3c-3.3,0.2-4-3.4-8.2-5.1
		c-0.7-0.3-3.9-1-7.1,0.2c-2.9,1.1-3,2.8-4.4,3c-4.1,0.6-4.5-12.1-14.2-17.2c-4.4-2.3-9.6-2.6-14-2.7c-5.1-0.2-6.6,0.5-13.4,0.3
		c-6.7-0.2-10.7-0.4-12.3-2.8c-2-2.8,1.2-6.2-0.9-8.2c-1-1-2.1-0.5-8-1.3c-2.7-0.4-2-0.4-4.3-0.7c-3.6-0.5-6-0.6-9.2-1.5
		c-0.3-0.1-0.6-0.2-0.9-0.3c-3.6-1.4-4.2-2.6-5.3-2.4c-1.8,0.3-1.4,3.9-3.2,4.5c-2.1,0.7-3.7-4.2-9.1-6.7c-4.4-2-7.4-0.7-7.9-2
		c-0.6-1.9,5.9-7.5,12-6.6c2.8,0.4,3.4,1.9,6.7,2.3c3,0.4,5.3-0.6,8.7-2c9.3-3.8,14-5.7,15.9-5.6c5.5,0.4,5.1,5.4,11.6,8
		c9.6,3.8,19.5-2.9,21.1,0c1.3,2.3-4.6,7.3-3.1,9.2c1.2,1.6,5.9-1.4,12.2,1.1c0.7,0.3,1,0.4,1.5,0.7c8.2,3.8,14.8,0.7,20.6,3.7
		c5,2.5,2.3,5.9,9.3,12.1c5,4.5,10.4,6.3,12.8,7c5.1,1.7,11.3,2.5,13.2,1.9C509.1,392.3,511.1,391.8,512.9,392.1L512.9,392.1z"/>
</g>
<g>
	<path class="st5" d="M490.3,116.9c13.1,12.8,20.4,24.3,20.4,24.3c2.6,4.1,4.8,8,6.9,7.7c4.9-0.8,2.7-23.4,7.1-24.3
		c5.7-1.1,14.5,36.2,24,35.4c5.7-0.4,8.1-14.2,10.2-13.8c4.7,0.9-7.4,68.2,3,71.5c5.4,1.7,14.3-15,19.3-12.6c2.2,1,1.3,4.6,2.9,16.1
		c1.8,13.2,3.6,13.7,2.8,19.6c-1.2,8.8-5.6,10-4.6,15.8c0.9,5.5,5.2,6.3,11.5,14.2c8.1,10.2,8.2,18.1,10.5,17.9
		c5.4-0.5,4.6-45.3,9.1-45.6c3.3-0.2,6.8,23.5,10.8,23.2c2.6-0.2,2.6-10.7,4.9-10.8c3-0.2,11.2,17.5,7.2,34.9
		c-1.6,6.9-4.4,11-3.2,18.7c0.8,5.2,2.5,6.1,3.8,12.8c1.5,7.7-0.2,9.8,0.5,16.7c1.1,11.1,6.9,20.5,8.8,20c2.6-0.7-3.2-20.4,3.7-24.4
		c4.9-2.8,11.7,4.6,15.1,2.1c5.6-4.2-8.7-28.2-4.2-31.6c5.2-3.9,28.8,26.1,34.9,22.1c5.8-3.7-4.7-37.6-19.3-39.8
		c-3.1-0.5-5.3,0.6-8.8-1c-7-3.1-9.4-11.9-10.7-16.7c-2.7-10.2-1.7-18.6-1.4-22.2c2.7-30.2-8.8-50.7-3.5-53
		c4.9-2.2,15.7,14.4,20.2,11.8c3.2-1.9-1.1-11.2,3.3-14.9c4.8-4.1,14.7,3.5,16.9,0.8c2.6-3.2-6-20.7-22.1-27.9
		c-14.2-6.3-21.5,1.1-30.9-6.4c-8.4-6.8-5.1-15-15.5-22.3c-4-2.8-8.2-4-16.5-6.6c-8-2.4-12-3.6-16.7-3c-8.9,1.2-10,7-16.2,7.5
		c-9.4,0.8-13.1-11.8-25.4-20.3c-7.1-5-12.3-5.2-44.8-7.6c-33.6-2.4-52.2-3.9-52.4-2.4C451.4,104.3,474.8,101.7,490.3,116.9
		L490.3,116.9z"/>
	<path class="st6" d="M619.6,136.7c3.2-0.7,4.6,23.5,20.3,29.8c11.3,4.5,22.4-3.3,23.9-0.3c1.6,3.1-8.5,15.2-20.8,15.1
		c-9.4-0.1-15.7-7.4-17.6-9.5C613.9,158.2,616.7,137.3,619.6,136.7L619.6,136.7z"/>
	<path class="st6" d="M588.2,218c-1.2,1,4.8,6.2,5.3,14.8c0.5,8.8-5.4,11.1-4.6,19.7c0.7,7.1,5.7,13.6,7.9,13.1
		c1.2-0.3,1.6-2.8,2-5.2c1-7.3-0.8-10.7-1.3-17c-0.8-10,2.8-11.8,0.3-17.4C595.2,220.3,589.3,217.1,588.2,218L588.2,218z"/>
	<path class="st6" d="M494.4,115.4c-0.6,1.2,4.8,4.3,12.8,13.8c3.3,3.8,4.3,5.6,5.2,5.3c1.6-0.7,1.6-8.5-2.4-12.8
		c-1-1.1-2.3-1.7-4.9-3C504,118.2,495.2,113.9,494.4,115.4z"/>
	<path class="st6" d="M562.6,169.5c-0.6,0.1-0.2,5.2-0.3,21.6c0,4.5,1.3,9.2,0,13.5c-0.1,0.4-0.5,1.6,0,2.3c1,1.2,4.8,0.6,6.6-1.3
		c2.5-2.6,0.5-7.3-2-16.7C563.6,176.2,563.3,169.4,562.6,169.5L562.6,169.5z"/>
	<path class="st6" d="M638,311.4c1-0.6,5.7,3,7.2,8.2c2,7.1-2.7,14.7-3.9,14.4c-0.9-0.2,0.4-4.5-1-12.5
		C639.2,315,637.2,311.9,638,311.4z"/>
</g>
</svg>
