<?xml version="1.0" encoding="UTF-8"?>
<svg id="tartaruga" xmlns="http://www.w3.org/2000/svg" viewBox="0 0 841.89 1190.55">
  <defs>
    <style>
      .cls-1 {
        opacity: .87;
      }

      .cls-2 {
        fill: #a58b65;
      }

      .cls-3 {
        fill: #e6d699;
      }

      .cls-4 {
        fill: #1d1d1b;
      }

      .cls-5 {
        opacity: .46;
      }

      .cls-6 {
        opacity: .69;
      }

      .cls-6, .cls-7 {
        fill: #b8dde2;
      }

      .cls-8 {
        fill: #847428;
      }

      .cls-9 {
        fill: #b9b54d;
      }

      .cls-10 {
        fill: #998c55;
      }

      .cls-11 {
        fill: #0e2537;
      }

      .cls-12 {
        fill: #9b8c4a;
      }

      .cls-13 {
        fill: #a59b72;
      }

      .cls-14 {
        fill: #b7a762;
      }

      .cls-15 {
        fill: #71641b;
      }

      .cls-16 {
        fill: #61acb2;
      }
    </style>
  </defs>
  <g>
    <g>
      <path class="cls-13" d="M246.69,618.1s-40.17,34.72-24.51,52.77c0,0,25.87,16,52.43-5.28l14.38-6.58-.33-18.21-41.97-22.7Z"/>
      <path class="cls-2" d="M233.21,628.7l10.39-6.21s35.74-1.62,43.91,22.72c0,0,11.91,17.19,11.57,27.06,0,0-30.23-17.8-49.74-30.75-9.41-6.25-16.32-11.37-16.14-12.82Z"/>
      <path class="cls-3" d="M136.97,586.82c-.06-.35-.11-.59-.12-.67-6.81-36.29,1.11-61.13,1.11-61.13,8.34-26.17,29.86-41.48,39.93-47.66,6.65-3.78,27.02-14.19,53.71-10.45,4.82.68,33.8,5.18,52.95,29.62,6.95,8.88,9.88,17.33,15.45,33.87,4.95,14.7,10.49,34.87,13.72,59.81,0,0,69.45,55.66,178.72,33.7,20.68-5.25,43.12-11.98,66.83-20.67,29.44-10.79,55.55-22.68,78.21-34.39,26.75.82,46.54,13.93,48.9,29.02,1.83,11.67-7.08,22.61-10.74,27.11-11.05,13.57-25.59,18.08-35.45,20.99-28.79,8.51-54.97,3.24-69.63-1.12,0,0-21.25,51.06-161.52,30.64,0,0-65.2,76.08-94.82,65.36-3.91-1.22-9.81-3.65-14.87-8.81-21.4-21.81,2.87-61.18-19.1-88.21-.33-.41-.86-1.06-1.59-1.87-6.48-7.26-13.37-10.28-15.05-10.98,0,0-2.09-.87-4.31-1.51-13.43-3.82-31.72,3.74-49.76,5.68-10.69,1.15-16.03,1.72-22.02,1.15-23.12-2.21-47.48-16.26-48.45-28.72-.16-2.12-.09-9.79-2.11-20.75Z"/>
      <ellipse class="cls-9" cx="607.69" cy="632.08" rx="7.23" ry="4.34"/>
      <ellipse class="cls-9" cx="624.38" cy="603.94" rx="14.61" ry="7.41" transform="translate(-235.67 481.85) rotate(-35.97)"/>
      <ellipse class="cls-9" cx="659.42" cy="605.38" rx="6.03" ry="11.21" transform="translate(-80.8 1108.77) rotate(-76.77)"/>
      <ellipse class="cls-9" cx="347.59" cy="696.08" rx="11.21" ry="6.03" transform="translate(-342.56 336.86) rotate(-35.97)"/>
      <ellipse class="cls-9" cx="313.03" cy="718.55" rx="11.21" ry="6.03" transform="translate(-362.34 320.85) rotate(-35.97)"/>
      <ellipse class="cls-9" cx="339.9" cy="721.55" rx="11.21" ry="6.03" transform="translate(-358.98 337.2) rotate(-35.97)"/>
      <ellipse class="cls-9" cx="271.39" cy="556.97" rx="16.6" ry="9.19" transform="translate(-348.18 555.62) rotate(-63.9)"/>
      <ellipse class="cls-9" cx="282.41" cy="528.5" rx="4.34" ry="7.23"/>
      <ellipse class="cls-9" cx="255.52" cy="528.5" rx="6.64" ry="14.04"/>
      <g class="cls-5">
        <g>
          <path class="cls-11" d="M246.89,615.8s-40.17,34.72-24.51,52.77c0,0,25.87,16,52.43-5.28l14.38-6.58-.33-18.21-41.97-22.7Z"/>
          <path class="cls-11" d="M233.4,626.4l10.39-6.21s35.74-1.62,43.91,22.72c0,0,11.91,17.19,11.57,27.06,0,0-30.23-17.8-49.74-30.75-9.41-6.25-16.32-11.37-16.14-12.82Z"/>
          <path class="cls-11" d="M137.16,584.52c-.06-.35-.11-.59-.12-.67-6.81-36.29,1.11-61.13,1.11-61.13,8.34-26.17,29.86-41.48,39.93-47.66,6.65-3.78,27.02-14.19,53.71-10.45,4.82.68,33.8,5.18,52.95,29.62,6.95,8.88,9.88,17.33,15.45,33.87,4.95,14.7,10.49,34.87,13.72,59.81,0,0,69.45,55.66,178.72,33.7,20.68-5.25,43.12-11.98,66.83-20.67,29.44-10.79,55.55-22.68,78.21-34.39,26.75.82,46.54,13.93,48.9,29.02,1.83,11.67-7.08,22.61-10.74,27.11-11.05,13.57-25.59,18.08-35.45,20.99-28.79,8.51-54.97,3.24-69.63-1.12,0,0-21.25,51.06-161.52,30.64,0,0-65.2,76.08-94.82,65.36-3.91-1.22-9.81-3.65-14.87-8.81-21.4-21.81,2.87-61.18-19.1-88.21-.33-.41-.86-1.06-1.59-1.87-6.48-7.26-13.37-10.28-15.05-10.98,0,0-2.09-.87-4.31-1.51-13.43-3.82-31.72,3.74-49.76,5.68-10.69,1.15-16.03,1.72-22.02,1.15-23.12-2.21-47.48-16.26-48.45-28.72-.16-2.12-.09-9.79-2.11-20.75Z"/>
          <ellipse class="cls-11" cx="607.88" cy="629.78" rx="7.23" ry="4.34"/>
          <ellipse class="cls-11" cx="624.57" cy="601.64" rx="14.61" ry="7.41" transform="translate(-234.28 481.53) rotate(-35.97)"/>
          <ellipse class="cls-11" cx="659.61" cy="603.08" rx="6.03" ry="11.21" transform="translate(-78.41 1107.18) rotate(-76.77)"/>
          <ellipse class="cls-11" cx="347.78" cy="693.78" rx="11.21" ry="6.03" transform="translate(-341.17 336.53) rotate(-35.97)"/>
          <ellipse class="cls-11" cx="313.23" cy="716.25" rx="11.21" ry="6.03" transform="translate(-360.96 320.52) rotate(-35.97)"/>
          <ellipse class="cls-11" cx="340.09" cy="719.25" rx="11.21" ry="6.03" transform="translate(-357.6 336.87) rotate(-35.97)"/>
          <ellipse class="cls-11" cx="218.75" cy="578.29" rx="12.77" ry="16.34"/>
          <ellipse class="cls-11" cx="271.58" cy="554.67" rx="16.6" ry="9.19" transform="translate(-346.01 554.51) rotate(-63.9)"/>
          <ellipse class="cls-11" cx="282.6" cy="526.2" rx="4.34" ry="7.23"/>
          <ellipse class="cls-11" cx="255.72" cy="526.2" rx="6.64" ry="14.04"/>
        </g>
        <g>
          <path class="cls-11" d="M299.26,528.26c5.84-2.7,61.22-28.36,93.09-42.58,2.9-1.29,8.72-3.87,16.63-6.66,19.81-6.96,35.79-9.23,39.11-9.68,26.83-3.64,48.31.12,67.15,3.57,5.04.92,17.66,3.24,29.62,7.06,15.81,5.06,48.02,18.41,80.94,56.85,2.05,1.38,12.94,8.98,13.95,21.72.26,3.28-.19,6.2-.85,8.58-5.32,3.39-13.46,8.33-23.78,13.55-16.97,8.58-28.78,12.34-52.51,20.9-37.1,13.38-32.34,12.9-44.35,16.55-15.65,4.76-38.61,10.1-68.31,11.3-9.69.48-120.71,5.06-136.41-39.83-1.15-3.29-1.83-6.96-1.84-11.04-1.48-8.85-3.43-18.34-6-28.34-2-7.79-4.19-15.12-6.45-21.95Z"/>
          <path class="cls-11" d="M401.97,589.85c.97,2.99,2.15,8.01,1.43,14.14-1.24,10.51-7.25,17.31-9.51,19.64,10.11-.16,20.71-.08,31.77.34,12.37.47,24.16,1.3,35.29,2.39-1.13-3.21-2.62-8.82-2.04-15.83.73-8.87,4.39-15.23,6.38-18.21-21.11-.82-42.21-1.65-63.32-2.47Z"/>
          <path class="cls-11" d="M470.52,592.53c-1.75,1.84-5.75,6.53-7.02,13.79-1.76,10,2.92,17.62,4.09,19.4,13.14-1.54,28.34-4.21,44.94-8.81,17.48-4.84,32.57-10.73,45.06-16.47.45-2.2,1.21-7.47-1.12-13.41-3.16-8.03-9.77-11.63-11.51-12.51-9.95,3.95-21.48,7.85-34.47,11.11-14.71,3.68-28.21,5.76-39.96,6.89Z"/>
          <path class="cls-11" d="M604.36,550.35c2.79-1.01,6.87-2.65,11.56-5.18,6.04-3.26,7.82-5.15,10.8-4.72,5.67.82,8.52,8.96,8.73,9.57,2.88,8.54-2.22,16.37-3.06,17.62-23.32,9.92-46.65,19.83-69.97,29.75.02-2.97-.3-7.51-2.16-12.64-2.28-6.31-5.81-10.58-8.04-12.89,11.09-4.75,22.36-9.47,33.83-14.14,6.13-2.5,12.24-4.95,18.31-7.36Z"/>
          <path class="cls-11" d="M316.86,590.28c4.29,4.56,9.5,9.33,15.79,13.87,20.85,15.02,42.48,19.38,55.68,20.79,0,0,13.2-18.11,10.72-36.22-25.99-5.52-51.99-11.04-77.98-16.56-.73.68-7.5,7.14-5.8,14.49.24,1.03.69,2.29,1.59,3.64Z"/>
          <path class="cls-11" d="M497.28,472.58l12.38,14.46,19.91-8.21s-26.3-7.67-32.3-6.25Z"/>
          <polygon class="cls-11" points="361.06 502.42 396.3 487.04 399.36 502.42 361.06 502.42"/>
          <path class="cls-11" d="M430.12,537.35h67.63l8.17-51.78-14.3-13.6s-58.76-8-88.85,12.55l2.04,19.37,25.31,33.45Z"/>
          <path class="cls-11" d="M502.51,537.52c10.97,11.06,21.93,22.12,32.9,33.18,11.01-3.39,22.41-7.22,34.15-11.53,18.73-6.89,36.06-14.22,51.98-21.65,0,0-22.1-33.97-85.88-59.16l-25.11,11.88-8.04,47.28Z"/>
          <path class="cls-11" d="M425.41,541.94l-36.26,41.62s99.06,16.41,139.4-9.41l-33.19-32.2h-69.96Z"/>
          <path class="cls-11" d="M299.26,528.27l56.7-24.38,46.47,5.11,20.43,27.57-35.74,43.4-74.55-11.23c.11-4.43-.22-10.66-2.25-17.75-2.6-9.07-6.85-15.65-9.88-19.62-.39-1.04-.78-2.08-1.17-3.11Z"/>
          <path class="cls-11" d="M432.25,534.41h61.69l7.45-47.23-13.04-12.4s-53.6-7.3-81.04,11.45l1.86,17.67,23.08,30.52Z"/>
          <path class="cls-11" d="M435.81,531.61h51.73l6.25-42.89-10.94-11.26s-44.95-6.63-67.97,10.4l1.56,16.04,19.36,27.71Z"/>
          <path class="cls-11" d="M309.03,530.62c.99-4.29,5.88-6.38,15.49-10.13,9.03-3.53,20.2-7.73,33.18-12.26,13.72,1.51,27.45,3.02,41.17,4.52l18.1,24.43-31.67,38.46-66.05-9.95c.21-3.99.02-9.57-2-15.72-3.47-10.6-9.44-14.04-8.22-19.35Z"/>
          <path class="cls-11" d="M320.28,530.93c1.1-3.74,5.56-4.79,14.11-8.14,6.15-2.41,14.55-6.06,24.36-11.5,10.51,1.37,21.02,2.74,31.53,4.11l13.86,22.21-24.25,34.97-50.59-9.05c.24-3.22.28-8.41-1.53-14.29-3.09-10.04-8.91-13.5-7.49-18.31Z"/>
          <path class="cls-11" d="M439.29,525.28h39.18l4.73-33.1-8.28-8.69s-34.05-5.12-51.48,8.02l1.18,12.38,14.66,21.38Z"/>
          <path class="cls-11" d="M327.92,534.45c.43-3.04,5.15-4.17,15.15-8.25,7.14-2.92,12.84-5.67,16.63-7.57,7.64,1.04,15.28,2.09,22.92,3.13l10.07,16.92-17.63,26.64-36.77-6.9c.38-2.62.58-6.67-1.11-10.89-3.08-7.7-9.79-9.33-9.26-13.08Z"/>
          <path class="cls-11" d="M432.32,546.77l-28.76,33.01s78.58,13.02,110.58-7.47l-26.33-25.55h-55.49Z"/>
          <path class="cls-11" d="M438.53,550.79l-23.63,25.57s64.58,10.08,90.88-5.78l-21.64-19.78h-45.61Z"/>
          <path class="cls-11" d="M444.35,554.1l-17.32,19.96s47.32,7.87,66.59-4.51l-15.85-15.45h-33.41Z"/>
          <path class="cls-11" d="M508.55,536.65c9.5,10.32,18.99,20.64,28.49,30.96,9.53-3.17,19.41-6.73,29.57-10.76,16.21-6.43,31.22-13.27,45.01-20.2,0,0-19.13-31.69-74.36-55.19l-21.74,11.08-6.96,44.1Z"/>
          <path class="cls-11" d="M514.15,534.27c8.14,8.83,16.28,17.66,24.43,26.49,8.18-2.71,16.64-5.76,25.35-9.21,13.9-5.5,26.77-11.35,38.59-17.28,0,0-16.41-27.12-63.76-47.23l-18.64,9.48-5.97,37.75Z"/>
          <path class="cls-11" d="M520.6,532.69c6.83,7.49,13.66,14.97,20.49,22.46,6.86-2.3,13.96-4.88,21.27-7.81,11.66-4.66,22.46-9.62,32.38-14.65,0,0-13.76-22.99-53.49-40.03l-15.64,8.04-5.01,31.99Z"/>
          <polygon class="cls-11" points="366.86 501.51 393.87 489.56 396.22 501.51 366.86 501.51"/>
          <polygon class="cls-11" points="371.33 500.85 392.65 491.17 394.5 500.85 371.33 500.85"/>
          <polygon class="cls-11" points="376.04 499.6 390.73 492.7 392.01 499.6 376.04 499.6"/>
          <path class="cls-11" d="M500.09,474.03l10.23,10.68,16.45-6.07s-21.72-5.66-26.68-4.62Z"/>
          <path class="cls-11" d="M502,474.69l8.17,9.34,13.15-5.31s-17.36-4.95-21.32-4.04Z"/>
          <path class="cls-11" d="M503.97,475.54l6.21,7.63,9.99-4.33s-13.19-4.04-16.21-3.29Z"/>
          <path class="cls-11" d="M334.31,602.62c5.19,3.37,12.19,7.21,20.94,10.21,11.7,4.01,22.08,5,29.41,5.11,0,0,11.65-14.12,9.47-28.24l-68.96-13.17c-1.07,1.02-6.32,6.21-4.99,11.55.38,1.54,1.19,2.58,2.1,3.65,2.29,2.7,6.08,6.64,12.04,10.89Z"/>
          <path class="cls-11" d="M327.91,591.27c3.11,2.99,6.78,6.07,11.07,9,14.8,10.1,29.81,13.49,39.77,14.73,0,0,9.99-11.11,8.64-22.65l-56.11-12.88c-.33.26-5.39,4.32-4.45,9.22.13.7.42,1.6,1.07,2.57Z"/>
          <path class="cls-11" d="M405.56,593.28c.85,2.39,1.87,6.41,1.24,11.3-1.08,8.4-6.31,13.84-8.28,15.7,8.79-.13,18.02-.06,27.64.27,10.77.37,21.02,1.04,30.71,1.91-.98-2.57-2.28-7.05-1.78-12.65.64-7.09,3.82-12.18,5.55-14.56-18.36-.66-36.73-1.32-55.09-1.98Z"/>
          <path class="cls-11" d="M409.92,597.53c.69,1.7,1.53,4.54,1.02,8.02-.88,5.96-5.16,9.82-6.78,11.14,7.2-.09,14.75-.04,22.63.19,8.81.26,17.2.74,25.13,1.36-.8-1.82-1.86-5-1.45-8.97.52-5.03,3.13-8.64,4.54-10.33-15.03-.47-30.06-.94-45.09-1.4Z"/>
          <path class="cls-11" d="M413.97,599.66c.55,1.35,1.21,3.61.81,6.36-.7,4.73-4.1,7.79-5.38,8.84,5.71-.07,11.71-.03,17.96.15,6.99.21,13.65.59,19.95,1.08-.64-1.45-1.48-3.97-1.15-7.12.41-3.99,2.48-6.86,3.61-8.2-11.93-.37-23.86-.74-35.79-1.11Z"/>
          <path class="cls-11" d="M474.27,594.62c-1.58,1.54-5.18,5.48-6.33,11.57-1.59,8.39,2.63,14.78,3.68,16.29,11.85-1.3,25.57-3.54,40.53-7.39,15.76-4.06,29.38-9,40.65-13.82.41-1.84,1.09-6.27-1.01-11.25-2.85-6.74-8.81-9.76-10.39-10.5-8.97,3.32-19.37,6.59-31.09,9.32-13.27,3.09-25.45,4.83-36.04,5.79Z"/>
          <path class="cls-11" d="M481.8,595.5c-1.34,1.33-4.39,4.72-5.36,9.96-1.34,7.22,2.23,12.73,3.12,14.02,10.03-1.12,21.65-3.04,34.33-6.36,13.35-3.5,24.88-7.75,34.43-11.9.34-1.59.93-5.4-.86-9.69-2.42-5.8-7.46-8.4-8.8-9.04-7.6,2.85-16.41,5.67-26.33,8.02-11.24,2.66-21.55,4.16-30.52,4.98Z"/>
          <path class="cls-11" d="M488.89,596.46c-1.1,1.1-3.62,3.9-4.43,8.22-1.11,5.96,1.84,10.5,2.58,11.57,8.28-.92,17.87-2.51,28.33-5.25,11.02-2.88,20.53-6.4,28.41-9.82.28-1.31.76-4.45-.71-7.99-1.99-4.79-6.16-6.93-7.26-7.46-6.27,2.36-13.54,4.68-21.73,6.62-9.27,2.2-17.79,3.43-25.19,4.11Z"/>
          <path class="cls-11" d="M602.52,554.03c2.43-.89,5.99-2.31,10.06-4.46,5.24-2.76,6.75-4.31,9.4-4.07,5.03.44,7.81,6.71,8.01,7.18,2.81,6.58-1.45,12.88-2.16,13.89-20.3,8.58-40.6,17.16-60.9,25.74-.07-2.33-.5-5.86-2.3-9.81-2.21-4.86-5.46-8.07-7.51-9.8,9.65-4.11,19.47-8.2,29.45-12.26,5.34-2.17,10.66-4.31,15.95-6.4Z"/>
          <path class="cls-11" d="M602.62,554.9c2.09-.76,5.14-1.98,8.63-3.82,4.49-2.37,5.79-3.68,8.07-3.49,4.32.38,6.7,5.74,6.87,6.14,2.41,5.63-1.25,11.02-1.85,11.88-17.42,7.34-34.84,14.68-52.26,22.02-.06-1.99-.43-5.02-1.97-8.39-1.9-4.15-4.69-6.9-6.44-8.38,8.28-3.52,16.7-7.01,25.27-10.49,4.58-1.86,9.15-3.68,13.69-5.48Z"/>
          <path class="cls-11" d="M603.56,556.87c1.69-.59,4.16-1.54,6.99-2.97,3.64-1.84,4.69-2.86,6.54-2.71,3.5.28,5.42,4.43,5.56,4.74,1.95,4.35-1.03,8.53-1.52,9.2-14.12,5.71-28.24,11.41-42.36,17.12-.05-1.54-.34-3.88-1.59-6.49-1.53-3.21-3.79-5.33-5.21-6.48,6.71-2.73,13.54-5.45,20.48-8.15,3.72-1.44,7.41-2.86,11.09-4.26Z"/>
          <path class="cls-11" d="M334.16,592.36c2.61,2.44,5.68,4.95,9.27,7.33,12.39,8.23,24.95,11,33.28,12.01,0,0,8.35-9.02,7.21-18.41l-46.94-10.52c-.28.21-4.5,3.51-3.72,7.5.11.57.35,1.3.9,2.09Z"/>
        </g>
      </g>
      <ellipse class="cls-4" cx="218.56" cy="580.59" rx="12.77" ry="16.34"/>
    </g>
    <g>
      <path class="cls-10" d="M299.07,530.56c5.84-2.7,61.22-28.36,93.09-42.58,2.9-1.29,8.72-3.87,16.63-6.66,19.81-6.96,35.79-9.23,39.11-9.68,26.83-3.64,48.31.12,67.15,3.57,5.04.92,17.66,3.24,29.62,7.06,15.81,5.06,48.02,18.41,80.94,56.85,2.05,1.38,12.94,8.98,13.95,21.72.26,3.28-.19,6.2-.85,8.58-5.32,3.39-13.46,8.33-23.78,13.55-16.97,8.58-28.78,12.34-52.51,20.9-37.1,13.38-32.34,12.9-44.35,16.55-15.65,4.76-38.61,10.1-68.31,11.3-9.69.48-120.71,5.06-136.41-39.83-1.15-3.29-1.83-6.96-1.84-11.04-1.48-8.85-3.43-18.34-6-28.34-2-7.79-4.19-15.12-6.45-21.95Z"/>
      <path class="cls-15" d="M401.78,592.15c.97,2.99,2.15,8.01,1.43,14.14-1.24,10.51-7.25,17.31-9.51,19.64,10.11-.16,20.71-.08,31.77.34,12.37.47,24.16,1.3,35.29,2.39-1.13-3.21-2.62-8.82-2.04-15.83.73-8.87,4.39-15.23,6.38-18.21-21.11-.82-42.21-1.65-63.32-2.47Z"/>
      <path class="cls-15" d="M470.33,594.83c-1.75,1.84-5.75,6.53-7.02,13.79-1.76,10,2.92,17.62,4.09,19.4,13.14-1.54,28.34-4.21,44.94-8.81,17.48-4.84,32.57-10.73,45.06-16.47.45-2.2,1.21-7.47-1.12-13.41-3.16-8.03-9.77-11.63-11.51-12.51-9.95,3.95-21.48,7.85-34.47,11.11-14.71,3.68-28.21,5.76-39.96,6.89Z"/>
      <path class="cls-15" d="M604.17,552.65c2.79-1.01,6.87-2.65,11.56-5.18,6.04-3.26,7.82-5.15,10.8-4.72,5.67.82,8.52,8.96,8.73,9.57,2.88,8.54-2.22,16.37-3.06,17.62-23.32,9.92-46.65,19.83-69.97,29.75.02-2.97-.3-7.51-2.16-12.64-2.28-6.31-5.81-10.58-8.04-12.89,11.09-4.75,22.36-9.47,33.83-14.14,6.13-2.5,12.24-4.95,18.31-7.36Z"/>
      <path class="cls-15" d="M316.67,592.58c4.29,4.56,9.5,9.33,15.79,13.87,20.85,15.02,42.48,19.38,55.68,20.79,0,0,13.2-18.11,10.72-36.22-25.99-5.52-51.99-11.04-77.98-16.56-.73.68-7.5,7.14-5.8,14.49.24,1.03.69,2.29,1.59,3.64Z"/>
      <path class="cls-15" d="M497.09,474.88l12.38,14.46,19.91-8.21s-26.3-7.67-32.3-6.25Z"/>
      <polygon class="cls-15" points="360.86 504.72 396.11 489.34 399.17 504.72 360.86 504.72"/>
      <path class="cls-15" d="M429.93,539.65h67.63l8.17-51.78-14.3-13.6s-58.76-8-88.85,12.55l2.04,19.37,25.31,33.45Z"/>
      <path class="cls-15" d="M502.32,539.82c10.97,11.06,21.93,22.12,32.9,33.18,11.01-3.39,22.41-7.22,34.15-11.53,18.73-6.89,36.06-14.22,51.98-21.65,0,0-22.1-33.97-85.88-59.16l-25.11,11.88-8.04,47.28Z"/>
      <path class="cls-15" d="M425.22,544.24l-36.26,41.62s99.06,16.41,139.4-9.41l-33.19-32.2h-69.96Z"/>
      <path class="cls-15" d="M299.07,530.57l56.7-24.38,46.47,5.11,20.43,27.57-35.74,43.4-74.55-11.23c.11-4.43-.22-10.66-2.25-17.75-2.6-9.07-6.85-15.65-9.88-19.62-.39-1.04-.78-2.08-1.17-3.11Z"/>
      <path class="cls-8" d="M432.06,536.71h61.69l7.45-47.23-13.04-12.4s-53.6-7.3-81.04,11.45l1.86,17.67,23.08,30.52Z"/>
      <path class="cls-12" d="M435.62,533.91h51.73l6.25-42.89-10.94-11.26s-44.95-6.63-67.97,10.4l1.56,16.04,19.36,27.71Z"/>
      <path class="cls-8" d="M308.84,532.92c.99-4.29,5.88-6.38,15.49-10.13,9.03-3.53,20.2-7.73,33.18-12.26,13.72,1.51,27.45,3.02,41.17,4.52l18.1,24.43-31.67,38.46-66.05-9.95c.21-3.99.02-9.57-2-15.72-3.47-10.6-9.44-14.04-8.22-19.35Z"/>
      <path class="cls-12" d="M320.09,533.23c1.1-3.74,5.56-4.79,14.11-8.14,6.15-2.41,14.55-6.06,24.36-11.5,10.51,1.37,21.02,2.74,31.53,4.11l13.86,22.21-24.25,34.97-50.59-9.05c.24-3.22.28-8.41-1.53-14.29-3.09-10.04-8.91-13.5-7.49-18.31Z"/>
      <path class="cls-14" d="M439.1,527.58h39.18l4.73-33.1-8.28-8.69s-34.05-5.12-51.48,8.02l1.18,12.38,14.66,21.38Z"/>
      <path class="cls-14" d="M327.73,536.75c.43-3.04,5.15-4.17,15.15-8.25,7.14-2.92,12.84-5.67,16.63-7.57,7.64,1.04,15.28,2.09,22.92,3.13l10.07,16.92-17.63,26.64-36.77-6.9c.38-2.62.58-6.67-1.11-10.89-3.08-7.7-9.79-9.33-9.26-13.08Z"/>
      <path class="cls-8" d="M432.13,549.07l-28.76,33.01s78.58,13.02,110.58-7.47l-26.33-25.55h-55.49Z"/>
      <path class="cls-12" d="M438.33,553.09l-23.63,25.57s64.58,10.08,90.88-5.78l-21.64-19.78h-45.61Z"/>
      <path class="cls-14" d="M444.16,556.4l-17.32,19.96s47.32,7.87,66.59-4.51l-15.85-15.45h-33.41Z"/>
      <path class="cls-8" d="M508.36,538.95c9.5,10.32,18.99,20.64,28.49,30.96,9.53-3.17,19.41-6.73,29.57-10.76,16.21-6.43,31.22-13.27,45.01-20.2,0,0-19.13-31.69-74.36-55.19l-21.74,11.08-6.96,44.1Z"/>
      <path class="cls-12" d="M513.95,536.57c8.14,8.83,16.28,17.66,24.43,26.49,8.18-2.71,16.64-5.76,25.35-9.21,13.9-5.5,26.77-11.35,38.59-17.28,0,0-16.41-27.12-63.76-47.23l-18.64,9.48-5.97,37.75Z"/>
      <path class="cls-14" d="M520.41,534.99c6.83,7.49,13.66,14.97,20.49,22.46,6.86-2.3,13.96-4.88,21.27-7.81,11.66-4.66,22.46-9.62,32.38-14.65,0,0-13.76-22.99-53.49-40.03l-15.64,8.04-5.01,31.99Z"/>
      <polygon class="cls-8" points="366.67 503.81 393.68 491.86 396.03 503.81 366.67 503.81"/>
      <polygon class="cls-12" points="371.14 503.15 392.45 493.47 394.31 503.15 371.14 503.15"/>
      <polygon class="cls-14" points="375.84 501.9 390.54 495 391.82 501.9 375.84 501.9"/>
      <path class="cls-8" d="M499.9,476.33l10.23,10.68,16.45-6.07s-21.72-5.66-26.68-4.62Z"/>
      <path class="cls-12" d="M501.81,476.99l8.17,9.34,13.15-5.31s-17.36-4.95-21.32-4.04Z"/>
      <path class="cls-14" d="M503.78,477.84l6.21,7.63,9.99-4.33s-13.19-4.04-16.21-3.29Z"/>
      <path class="cls-8" d="M334.12,604.92c5.19,3.37,12.19,7.21,20.94,10.21,11.7,4.01,22.08,5,29.41,5.11,0,0,11.65-14.12,9.47-28.24l-68.96-13.17c-1.07,1.02-6.32,6.21-4.99,11.55.38,1.54,1.19,2.58,2.1,3.65,2.29,2.7,6.08,6.64,12.04,10.89Z"/>
      <path class="cls-12" d="M327.72,593.57c3.11,2.99,6.78,6.07,11.07,9,14.8,10.1,29.81,13.49,39.77,14.73,0,0,9.99-11.11,8.64-22.65l-56.11-12.88c-.33.26-5.39,4.32-4.45,9.22.13.7.42,1.6,1.07,2.57Z"/>
      <path class="cls-8" d="M405.36,595.58c.85,2.39,1.87,6.41,1.24,11.3-1.08,8.4-6.31,13.84-8.28,15.7,8.79-.13,18.02-.06,27.64.27,10.77.37,21.02,1.04,30.71,1.91-.98-2.57-2.28-7.05-1.78-12.65.64-7.09,3.82-12.18,5.55-14.56-18.36-.66-36.73-1.32-55.09-1.98Z"/>
      <path class="cls-12" d="M409.73,599.83c.69,1.7,1.53,4.54,1.02,8.02-.88,5.96-5.16,9.82-6.78,11.14,7.2-.09,14.75-.04,22.63.19,8.81.26,17.2.74,25.13,1.36-.8-1.82-1.86-5-1.45-8.97.52-5.03,3.13-8.64,4.54-10.33-15.03-.47-30.06-.94-45.09-1.4Z"/>
      <path class="cls-14" d="M413.78,601.96c.55,1.35,1.21,3.61.81,6.36-.7,4.73-4.1,7.79-5.38,8.84,5.71-.07,11.71-.03,17.96.15,6.99.21,13.65.59,19.95,1.08-.64-1.45-1.48-3.97-1.15-7.12.41-3.99,2.48-6.86,3.61-8.2-11.93-.37-23.86-.74-35.79-1.11Z"/>
      <path class="cls-8" d="M474.08,596.92c-1.58,1.54-5.18,5.48-6.33,11.57-1.59,8.39,2.63,14.78,3.68,16.29,11.85-1.3,25.57-3.54,40.53-7.39,15.76-4.06,29.38-9,40.65-13.82.41-1.84,1.09-6.27-1.01-11.25-2.85-6.74-8.81-9.76-10.39-10.5-8.97,3.32-19.37,6.59-31.09,9.32-13.27,3.09-25.45,4.83-36.04,5.79Z"/>
      <path class="cls-12" d="M481.61,597.8c-1.34,1.33-4.39,4.72-5.36,9.96-1.34,7.22,2.23,12.73,3.12,14.02,10.03-1.12,21.65-3.04,34.33-6.36,13.35-3.5,24.88-7.75,34.43-11.9.34-1.59.93-5.4-.86-9.69-2.42-5.8-7.46-8.4-8.8-9.04-7.6,2.85-16.41,5.67-26.33,8.02-11.24,2.66-21.55,4.16-30.52,4.98Z"/>
      <path class="cls-14" d="M488.7,598.76c-1.1,1.1-3.62,3.9-4.43,8.22-1.11,5.96,1.84,10.5,2.58,11.57,8.28-.92,17.87-2.51,28.33-5.25,11.02-2.88,20.53-6.4,28.41-9.82.28-1.31.76-4.45-.71-7.99-1.99-4.79-6.16-6.93-7.26-7.46-6.27,2.36-13.54,4.68-21.73,6.62-9.27,2.2-17.79,3.43-25.19,4.11Z"/>
      <path class="cls-8" d="M602.32,556.33c2.43-.89,5.99-2.31,10.06-4.46,5.24-2.76,6.75-4.31,9.4-4.07,5.03.44,7.81,6.71,8.01,7.18,2.81,6.58-1.45,12.88-2.16,13.89-20.3,8.58-40.6,17.16-60.9,25.74-.07-2.33-.5-5.86-2.3-9.81-2.21-4.86-5.46-8.07-7.51-9.8,9.65-4.11,19.47-8.2,29.45-12.26,5.34-2.17,10.66-4.31,15.95-6.4Z"/>
      <path class="cls-12" d="M602.43,557.2c2.09-.76,5.14-1.98,8.63-3.82,4.49-2.37,5.79-3.68,8.07-3.49,4.32.38,6.7,5.74,6.87,6.14,2.41,5.63-1.25,11.02-1.85,11.88-17.42,7.34-34.84,14.68-52.26,22.02-.06-1.99-.43-5.02-1.97-8.39-1.9-4.15-4.69-6.9-6.44-8.38,8.28-3.52,16.7-7.01,25.27-10.49,4.58-1.86,9.15-3.68,13.69-5.48Z"/>
      <path class="cls-14" d="M603.37,559.17c1.69-.59,4.16-1.54,6.99-2.97,3.64-1.84,4.69-2.86,6.54-2.71,3.5.28,5.42,4.43,5.56,4.74,1.95,4.35-1.03,8.53-1.52,9.2-14.12,5.71-28.24,11.41-42.36,17.12-.05-1.54-.34-3.88-1.59-6.49-1.53-3.21-3.79-5.33-5.21-6.48,6.71-2.73,13.54-5.45,20.48-8.15,3.72-1.44,7.41-2.86,11.09-4.26Z"/>
      <path class="cls-14" d="M333.97,594.66c2.61,2.44,5.68,4.95,9.27,7.33,12.39,8.23,24.95,11,33.28,12.01,0,0,8.35-9.02,7.21-18.41l-46.94-10.52c-.28.21-4.5,3.51-3.72,7.5.11.57.35,1.3.9,2.09Z"/>
    </g>
  </g>
  <g class="cls-1">
    <path class="cls-16" d="M297.17,672.43c-2.17,2.27-29.28-14.07-26.57-23.91,1.08-3.94,5.88-2.97,14.55-9.06,11.67-8.2,9.44-14.48,19.27-21.1,9.96-6.7,15.03-2.14,26.43-8.78,8.5-4.95,8.23-8.97,16.6-17.23,13.7-13.53,38.67-26.7,62.94-24.77,7.45.59,11.22,2.32,13.79-.26,6.67-6.71-3.26-34.14-18.64-37.92-6.08-1.49-7.22,2.13-20.81,4.6-8.31,1.51-17.29,1.22-35.23.64-15.51-.5-17.06-1.28-21.65.46-9.48,3.6-14.94,11.52-18.44,9.49-1.59-.92-1.86-3.37-2.13-5.7,0,0-.6-5.3,2.04-10.55,11.13-22.12,92.26-46.3,92.26-46.3,44.37-13.22,62.18-17.8,83.74-21.96,13.2-2.54,36.27-6.56,64.85-2.55,23.84,3.34,29.39,9.17,31.15,11.23,9.66,11.35,2.24,23.4,10.79,49.42,2.64,8.03,5.92,18.03,13.72,27.17,19.39,22.74,47.9,18.15,49.53,27.57,2.25,12.96-49.92,32.01-69.96,39.32-42.12,15.38-69.66,25.43-107.23,24-24.04-.92-25.4-5.52-56.16-6.1-22.74-.43-38.65,2.26-70.47,7.63,0,0-26.43,4.46-50.71,21.3-3.75,2.6-4.5,5.17-4.69,6.02-.9,3.9,1.8,6.52,1.04,7.31Z"/>
    <path class="cls-7" d="M288.15,659.4c-2.17,2.27-29.28-14.07-26.57-23.91,1.08-3.94,5.88-2.97,14.55-9.06,11.67-8.2,9.44-14.48,19.27-21.1,9.96-6.7,15.03-2.14,26.43-8.78,8.5-4.95,8.23-8.97,16.6-17.23,13.7-13.53,38.67-26.7,62.94-24.77,7.45.59,11.22,2.32,13.79-.26,6.67-6.71-3.26-34.14-18.64-37.92-6.08-1.49-7.22,2.13-20.81,4.6-8.31,1.51-17.29,1.22-35.23.64-15.51-.5-17.06-1.28-21.65.46-9.48,3.6-14.94,11.52-18.44,9.49-1.59-.92-1.86-3.37-2.13-5.7.04-2.41.36-6.28,2.04-10.55,8.06-20.43,37.06-23.78,98.89-36.6,49.04-10.17,73.57-15.25,81.19-18.38,19.25-7.9,36.02-17.75,60.77-15.83,10.01.78,23.09,1.77,31.15,11.23,9.66,11.35,2.24,23.4,10.79,49.42,2.64,8.03,5.92,18.03,13.72,27.17,19.39,22.74,47.9,18.15,49.53,27.57,2.25,12.96-49.92,32.01-69.96,39.32-42.12,15.38-69.66,25.43-107.23,24-24.04-.92-25.4-5.52-56.16-6.1-22.74-.43-38.65,2.26-70.47,7.63,0,0-26.43,4.46-50.71,21.3-3.75,2.6-4.5,5.17-4.69,6.02-.9,3.9,1.8,6.52,1.04,7.31Z"/>
  </g>
  <path class="cls-6" d="M152.21,494.04c-3.25-.04-4.27,8.26-10.21,20.08-5.1,10.14-8.99,13.29-7.49,15.66,1.94,3.05,10.88,1.76,17.53-1.53,9.56-4.73,8.32-10.6,16.68-14.98,8.95-4.69,19.14-2.55,27.23-.85,11.21,2.35,11.06,5.36,17.12,6.01,20.49,2.21,29.93-31.33,49.78-30.52,15.27.62,25.35,21.14,28.94,18.55,2.67-1.92-2.83-13.3-3.4-14.47-2.06-4.21-7.52-15.36-17.02-16.68-4.14-.57-7.53.93-9.53,1.87-22.84,10.74-27.48,24.34-42.58,27.71-7.24,1.62-15.82-.11-32.97-3.57-7.97-1.61-11.54-3.1-17.63-2.03-3.53.62-6.55,1.86-9.97.36-4.12-1.81-4.28-5.59-6.47-5.62Z"/>
</svg>