<?xml version="1.0" encoding="UTF-8"?>
<svg id="tartaruga" xmlns="http://www.w3.org/2000/svg" viewBox="0 0 841.89 1190.55">
  <defs>
    <style>
      .cls-1 {
        fill: #a4bfe0;
      }

      .cls-2 {
        fill: #a58b65;
      }

      .cls-3 {
        fill: #e6d699;
      }

      .cls-4 {
        fill: #1d1d1b;
      }

      .cls-5 {
        fill: #8b9db7;
      }

      .cls-6 {
        opacity: .21;
      }

      .cls-7 {
        fill: #3c4f5c;
      }

      .cls-8 {
        fill: #847428;
      }

      .cls-9 {
        fill: #b9b54d;
      }

      .cls-10 {
        fill: #998c55;
      }

      .cls-11 {
        fill: #9b8c4a;
      }

      .cls-12 {
        fill: #a59b72;
      }

      .cls-13 {
        fill: #b7a762;
      }

      .cls-14 {
        fill: #71641b;
      }

      .cls-15 {
        opacity: .82;
      }
    </style>
  </defs>
  <g>
    <g>
      <path class="cls-12" d="M269.44,628.8s-40.17,34.72-24.51,52.77c0,0,25.87,16,52.43-5.28l14.38-6.58-.33-18.21-41.97-22.7Z"/>
      <path class="cls-2" d="M255.96,639.39l10.39-6.21s35.74-1.62,43.91,22.72c0,0,11.91,17.19,11.57,27.06,0,0-30.23-17.8-49.74-30.75-9.41-6.25-16.32-11.37-16.14-12.82Z"/>
      <path class="cls-3" d="M159.72,597.51c-.06-.35-.11-.59-.12-.67-6.81-36.29,1.11-61.13,1.11-61.13,8.34-26.17,29.86-41.48,39.93-47.66,6.65-3.78,27.02-14.19,53.71-10.45,4.82.68,33.8,5.18,52.95,29.62,6.95,8.88,9.88,17.33,15.45,33.87,4.95,14.7,10.49,34.87,13.72,59.81,0,0,69.45,55.66,178.72,33.7,20.68-5.25,43.12-11.98,66.83-20.67,29.44-10.79,55.55-22.68,78.21-34.39,26.75.82,46.54,13.93,48.9,29.02,1.83,11.67-7.08,22.61-10.74,27.11-11.05,13.57-25.59,18.08-35.45,20.99-28.79,8.51-54.97,3.24-69.63-1.12,0,0-21.25,51.06-161.52,30.64,0,0-65.2,76.08-94.82,65.36-3.91-1.22-9.81-3.65-14.87-8.81-21.4-21.81,2.87-61.18-19.1-88.21-1.72-2.12-8.95-11.01-20.95-14.36-13.5-3.77-21.63,2.66-49.76,5.68-10.69,1.15-16.03,1.72-22.02,1.15-23.12-2.21-47.48-16.26-48.45-28.72-.16-2.12-.09-9.79-2.11-20.75Z"/>
      <ellipse class="cls-9" cx="630.44" cy="642.78" rx="7.23" ry="4.34"/>
      <ellipse class="cls-9" cx="647.13" cy="614.63" rx="14.61" ry="7.41" transform="translate(-237.62 497.26) rotate(-35.97)"/>
      <ellipse class="cls-9" cx="682.17" cy="616.08" rx="6.03" ry="11.21" transform="translate(-73.67 1139.16) rotate(-76.77)"/>
      <ellipse class="cls-9" cx="370.34" cy="706.78" rx="11.21" ry="6.03" transform="translate(-344.5 352.26) rotate(-35.97)"/>
      <ellipse class="cls-9" cx="335.78" cy="729.24" rx="11.21" ry="6.03" transform="translate(-364.29 336.25) rotate(-35.97)"/>
      <ellipse class="cls-9" cx="362.65" cy="732.25" rx="11.21" ry="6.03" transform="translate(-360.93 352.6) rotate(-35.97)"/>
      <ellipse class="cls-9" cx="294.14" cy="567.67" rx="16.6" ry="9.19" transform="translate(-345.05 582.04) rotate(-63.9)"/>
      <ellipse class="cls-9" cx="305.15" cy="539.2" rx="4.34" ry="7.23"/>
      <ellipse class="cls-9" cx="278.27" cy="539.2" rx="6.64" ry="14.04"/>
      <g class="cls-6">
        <g>
          <path class="cls-7" d="M268.3,626.19s-40.17,34.72-24.51,52.77c0,0,25.87,16,52.43-5.28l14.38-6.58-.33-18.21-41.97-22.7Z"/>
          <path class="cls-7" d="M254.81,636.79l10.39-6.21s35.74-1.62,43.91,22.72c0,0,11.91,17.19,11.57,27.06,0,0-30.23-17.8-49.74-30.75-9.41-6.25-16.32-11.37-16.14-12.82Z"/>
          <path class="cls-7" d="M158.57,594.91c-.06-.35-.11-.59-.12-.67-6.81-36.29,1.11-61.13,1.11-61.13,8.34-26.17,29.86-41.48,39.93-47.66,6.65-3.78,27.02-14.19,53.71-10.45,4.82.68,33.8,5.18,52.95,29.62,6.95,8.88,9.88,17.33,15.45,33.87,4.95,14.7,10.49,34.87,13.72,59.81,0,0,69.45,55.66,178.72,33.7,20.68-5.25,43.12-11.98,66.83-20.67,29.44-10.79,55.55-22.68,78.21-34.39,26.75.82,46.54,13.93,48.9,29.02,1.83,11.67-7.08,22.61-10.74,27.11-11.05,13.57-25.59,18.08-35.45,20.99-28.79,8.51-54.97,3.24-69.63-1.12,0,0-21.25,51.06-161.52,30.64,0,0-65.2,76.08-94.82,65.36-3.91-1.22-9.81-3.65-14.87-8.81-21.4-21.81,2.87-61.18-19.1-88.21-1.72-2.12-8.95-11.01-20.95-14.36-13.5-3.77-21.63,2.66-49.76,5.68-10.69,1.15-16.03,1.72-22.02,1.15-23.12-2.21-47.48-16.26-48.45-28.72-.16-2.12-.09-9.79-2.11-20.75Z"/>
          <ellipse class="cls-7" cx="629.29" cy="640.17" rx="7.23" ry="4.34"/>
          <ellipse class="cls-7" cx="645.98" cy="612.03" rx="14.61" ry="7.41" transform="translate(-236.3 496.09) rotate(-35.97)"/>
          <ellipse class="cls-7" cx="681.02" cy="613.47" rx="6.03" ry="11.21" transform="translate(-72.02 1136.04) rotate(-76.77)"/>
          <ellipse class="cls-7" cx="369.19" cy="704.17" rx="11.21" ry="6.03" transform="translate(-343.19 351.09) rotate(-35.97)"/>
          <ellipse class="cls-7" cx="334.64" cy="726.64" rx="11.21" ry="6.03" transform="translate(-362.98 335.08) rotate(-35.97)"/>
          <ellipse class="cls-7" cx="361.51" cy="729.64" rx="11.21" ry="6.03" transform="translate(-359.62 351.43) rotate(-35.97)"/>
          <ellipse class="cls-7" cx="292.99" cy="565.07" rx="16.6" ry="9.19" transform="translate(-343.35 579.55) rotate(-63.9)"/>
          <ellipse class="cls-7" cx="304.01" cy="536.6" rx="4.34" ry="7.23"/>
          <ellipse class="cls-7" cx="277.13" cy="536.6" rx="6.64" ry="14.04"/>
          <ellipse class="cls-7" cx="240.17" cy="588.68" rx="12.77" ry="16.34"/>
        </g>
        <g>
          <path class="cls-7" d="M320.67,538.66c5.84-2.7,61.22-28.36,93.09-42.58,2.9-1.29,8.72-3.87,16.63-6.66,19.81-6.96,35.79-9.23,39.11-9.68,26.83-3.64,48.31.12,67.15,3.57,5.04.92,17.66,3.24,29.62,7.06,15.81,5.06,48.02,18.41,80.94,56.85,2.05,1.38,12.94,8.98,13.95,21.72.26,3.28-.19,6.2-.85,8.58-5.32,3.39-13.46,8.33-23.78,13.55-16.97,8.58-28.78,12.34-52.51,20.9-37.1,13.38-32.34,12.9-44.35,16.55-15.65,4.76-38.61,10.1-68.31,11.3-9.69.48-120.71,5.06-136.41-39.83-1.15-3.29-1.83-6.96-1.84-11.04-1.48-8.85-3.43-18.34-6-28.34-2-7.79-4.19-15.12-6.45-21.95Z"/>
          <path class="cls-7" d="M423.38,600.25c.97,2.99,2.15,8.01,1.43,14.14-1.24,10.51-7.25,17.31-9.51,19.64,10.11-.16,20.71-.08,31.77.34,12.37.47,24.16,1.3,35.29,2.39-1.13-3.21-2.62-8.82-2.04-15.83.73-8.87,4.39-15.23,6.38-18.21-21.11-.82-42.21-1.65-63.32-2.47Z"/>
          <path class="cls-7" d="M491.93,602.93c-1.75,1.84-5.75,6.53-7.02,13.79-1.76,10,2.92,17.62,4.09,19.4,13.14-1.54,28.34-4.21,44.94-8.81,17.48-4.84,32.57-10.73,45.06-16.47.45-2.2,1.21-7.47-1.12-13.41-3.16-8.03-9.77-11.63-11.51-12.51-9.95,3.95-21.48,7.85-34.47,11.11-14.71,3.68-28.21,5.76-39.96,6.89Z"/>
          <path class="cls-7" d="M625.78,560.75c2.79-1.01,6.87-2.65,11.56-5.18,6.04-3.26,7.82-5.15,10.8-4.72,5.67.82,8.52,8.96,8.73,9.57,2.88,8.54-2.22,16.37-3.06,17.62-23.32,9.92-46.65,19.83-69.97,29.75.02-2.97-.3-7.51-2.16-12.64-2.28-6.31-5.81-10.58-8.04-12.89,11.09-4.75,22.36-9.47,33.83-14.14,6.13-2.5,12.24-4.95,18.31-7.36Z"/>
          <path class="cls-7" d="M338.27,600.67c4.29,4.56,9.5,9.33,15.79,13.87,20.85,15.02,42.48,19.38,55.68,20.79,0,0,13.2-18.11,10.72-36.22-25.99-5.52-51.99-11.04-77.98-16.56-.73.68-7.5,7.14-5.8,14.49.24,1.03.69,2.29,1.59,3.64Z"/>
          <path class="cls-7" d="M518.69,482.97l12.38,14.46,19.91-8.21s-26.3-7.67-32.3-6.25Z"/>
          <polygon class="cls-7" points="382.47 512.81 417.71 497.44 420.78 512.81 382.47 512.81"/>
          <path class="cls-7" d="M451.53,547.74h67.63l8.17-51.78-14.3-13.6s-58.76-8-88.85,12.55l2.04,19.37,25.31,33.45Z"/>
          <path class="cls-7" d="M523.93,547.91c10.97,11.06,21.93,22.12,32.9,33.18,11.01-3.39,22.41-7.22,34.15-11.53,18.73-6.89,36.06-14.22,51.98-21.65,0,0-22.1-33.97-85.88-59.16l-25.11,11.88-8.04,47.28Z"/>
          <path class="cls-7" d="M446.82,552.33l-36.26,41.62s99.06,16.41,139.4-9.41l-33.19-32.2h-69.96Z"/>
          <path class="cls-7" d="M320.67,538.66l56.7-24.38,46.47,5.11,20.43,27.57-35.74,43.4-74.55-11.23c.11-4.43-.22-10.66-2.25-17.75-2.6-9.07-6.85-15.65-9.88-19.62-.39-1.04-.78-2.08-1.17-3.11Z"/>
          <path class="cls-7" d="M453.66,544.8h61.69l7.45-47.23-13.04-12.4s-53.6-7.3-81.04,11.45l1.86,17.67,23.08,30.52Z"/>
          <path class="cls-7" d="M457.23,542h51.73l6.25-42.89-10.94-11.26s-44.95-6.63-67.97,10.4l1.56,16.04,19.36,27.71Z"/>
          <path class="cls-7" d="M330.44,541.01c.99-4.29,5.88-6.38,15.49-10.13,9.03-3.53,20.2-7.73,33.18-12.26,13.72,1.51,27.45,3.02,41.17,4.52l18.1,24.43-31.67,38.46-66.05-9.95c.21-3.99.02-9.57-2-15.72-3.47-10.6-9.44-14.04-8.22-19.35Z"/>
          <path class="cls-7" d="M341.7,541.32c1.1-3.74,5.56-4.79,14.11-8.14,6.15-2.41,14.55-6.06,24.36-11.5,10.51,1.37,21.02,2.74,31.53,4.11l13.86,22.21-24.25,34.97-50.59-9.05c.24-3.22.28-8.41-1.53-14.29-3.09-10.04-8.91-13.5-7.49-18.31Z"/>
          <path class="cls-7" d="M460.71,535.67h39.18l4.73-33.1-8.28-8.69s-34.05-5.12-51.48,8.02l1.18,12.38,14.66,21.38Z"/>
          <path class="cls-7" d="M349.34,544.84c.43-3.04,5.15-4.17,15.15-8.25,7.14-2.92,12.84-5.67,16.63-7.57,7.64,1.04,15.28,2.09,22.92,3.13l10.07,16.92-17.63,26.64-36.77-6.9c.38-2.62.58-6.67-1.11-10.89-3.08-7.7-9.79-9.33-9.26-13.08Z"/>
          <path class="cls-7" d="M453.74,557.16l-28.76,33.01s78.58,13.02,110.58-7.47l-26.33-25.55h-55.49Z"/>
          <path class="cls-7" d="M459.94,561.18l-23.63,25.57s64.58,10.08,90.88-5.78l-21.64-19.78h-45.61Z"/>
          <path class="cls-7" d="M465.77,564.5l-17.32,19.96s47.32,7.87,66.59-4.51l-15.85-15.45h-33.41Z"/>
          <path class="cls-7" d="M529.96,547.04c9.5,10.32,18.99,20.64,28.49,30.96,9.53-3.16,19.41-6.73,29.57-10.76,16.21-6.43,31.22-13.27,45.01-20.2,0,0-19.13-31.69-74.36-55.19l-21.74,11.08-6.96,44.1Z"/>
          <path class="cls-7" d="M535.56,544.67c8.14,8.83,16.28,17.66,24.43,26.49,8.18-2.71,16.64-5.76,25.35-9.21,13.9-5.5,26.77-11.35,38.59-17.28,0,0-16.41-27.12-63.76-47.23l-18.64,9.48-5.97,37.75Z"/>
          <path class="cls-7" d="M542.01,543.09c6.83,7.49,13.66,14.97,20.49,22.46,6.86-2.3,13.96-4.88,21.27-7.81,11.66-4.66,22.46-9.62,32.38-14.65,0,0-13.76-22.99-53.49-40.03l-15.64,8.04-5.01,31.99Z"/>
          <polygon class="cls-7" points="388.27 511.91 415.29 499.95 417.64 511.91 388.27 511.91"/>
          <polygon class="cls-7" points="392.74 511.25 414.06 501.56 415.91 511.25 392.74 511.25"/>
          <polygon class="cls-7" points="397.45 509.99 412.15 503.1 413.42 509.99 397.45 509.99"/>
          <path class="cls-7" d="M521.5,484.42l10.23,10.68,16.45-6.07s-21.72-5.66-26.68-4.62Z"/>
          <path class="cls-7" d="M523.42,485.09l8.17,9.34,13.15-5.31s-17.36-4.95-21.32-4.04Z"/>
          <path class="cls-7" d="M525.39,485.94l6.21,7.63,9.99-4.33s-13.19-4.04-16.21-3.29Z"/>
          <path class="cls-7" d="M355.72,613.01c5.19,3.37,12.19,7.21,20.94,10.21,11.7,4.01,22.08,5,29.41,5.11,0,0,11.65-14.12,9.47-28.24l-68.96-13.17c-1.07,1.02-6.32,6.21-4.99,11.55.38,1.54,1.19,2.58,2.1,3.65,2.29,2.7,6.08,6.64,12.04,10.89Z"/>
          <path class="cls-7" d="M349.33,601.66c3.11,2.99,6.78,6.07,11.07,9,14.8,10.1,29.81,13.49,39.77,14.73,0,0,9.99-11.11,8.64-22.65l-56.11-12.88c-.33.26-5.39,4.32-4.45,9.22.13.7.42,1.6,1.07,2.57Z"/>
          <path class="cls-7" d="M426.97,603.68c.85,2.39,1.87,6.41,1.24,11.3-1.08,8.4-6.31,13.84-8.28,15.7,8.79-.13,18.02-.06,27.64.27,10.77.37,21.02,1.04,30.71,1.91-.98-2.57-2.28-7.05-1.78-12.65.64-7.09,3.82-12.18,5.55-14.56-18.36-.66-36.73-1.32-55.09-1.98Z"/>
          <path class="cls-7" d="M431.33,607.92c.69,1.7,1.53,4.54,1.02,8.02-.88,5.96-5.16,9.82-6.78,11.14,7.2-.09,14.75-.04,22.63.19,8.81.26,17.2.74,25.13,1.36-.8-1.82-1.86-5-1.45-8.97.52-5.03,3.13-8.64,4.54-10.33-15.03-.47-30.06-.94-45.09-1.4Z"/>
          <path class="cls-7" d="M435.39,610.05c.55,1.35,1.21,3.61.81,6.36-.7,4.73-4.1,7.79-5.38,8.84,5.71-.07,11.71-.03,17.96.15,6.99.21,13.65.59,19.95,1.08-.64-1.45-1.48-3.97-1.15-7.12.41-3.99,2.48-6.86,3.61-8.2-11.93-.37-23.86-.74-35.79-1.11Z"/>
          <path class="cls-7" d="M495.68,605.01c-1.58,1.54-5.18,5.48-6.33,11.57-1.59,8.39,2.63,14.78,3.68,16.29,11.85-1.3,25.57-3.54,40.53-7.39,15.76-4.06,29.38-9,40.65-13.82.41-1.84,1.09-6.27-1.01-11.25-2.85-6.74-8.81-9.76-10.39-10.5-8.97,3.32-19.37,6.59-31.09,9.32-13.27,3.09-25.45,4.83-36.04,5.79Z"/>
          <path class="cls-7" d="M503.21,605.9c-1.34,1.33-4.39,4.72-5.36,9.96-1.34,7.22,2.23,12.73,3.12,14.02,10.03-1.12,21.65-3.04,34.33-6.36,13.35-3.5,24.88-7.75,34.43-11.9.34-1.59.93-5.4-.86-9.69-2.42-5.8-7.46-8.4-8.8-9.04-7.6,2.85-16.41,5.67-26.33,8.02-11.24,2.66-21.55,4.16-30.52,4.98Z"/>
          <path class="cls-7" d="M510.3,606.86c-1.1,1.1-3.62,3.9-4.43,8.22-1.11,5.96,1.84,10.5,2.58,11.57,8.28-.92,17.87-2.51,28.33-5.25,11.02-2.88,20.53-6.4,28.41-9.82.28-1.31.76-4.45-.71-7.99-1.99-4.79-6.16-6.93-7.26-7.46-6.27,2.36-13.54,4.68-21.73,6.62-9.27,2.2-17.79,3.43-25.19,4.11Z"/>
          <path class="cls-7" d="M623.93,564.43c2.43-.89,5.99-2.31,10.06-4.46,5.24-2.76,6.75-4.31,9.4-4.07,5.03.44,7.81,6.71,8.01,7.18,2.81,6.58-1.45,12.88-2.16,13.89-20.3,8.58-40.6,17.16-60.9,25.74-.07-2.33-.5-5.86-2.3-9.81-2.21-4.86-5.46-8.07-7.51-9.8,9.65-4.11,19.47-8.2,29.45-12.26,5.34-2.17,10.66-4.31,15.95-6.4Z"/>
          <path class="cls-7" d="M624.03,565.29c2.09-.76,5.14-1.98,8.63-3.82,4.49-2.37,5.79-3.68,8.07-3.49,4.32.38,6.7,5.74,6.87,6.14,2.41,5.63-1.25,11.02-1.85,11.88-17.42,7.34-34.84,14.68-52.26,22.02-.06-1.99-.43-5.02-1.97-8.39-1.9-4.15-4.69-6.9-6.44-8.38,8.28-3.52,16.7-7.01,25.27-10.49,4.58-1.86,9.15-3.68,13.69-5.48Z"/>
          <path class="cls-7" d="M624.98,567.26c1.69-.59,4.16-1.54,6.99-2.97,3.64-1.84,4.69-2.86,6.54-2.71,3.5.28,5.42,4.43,5.56,4.74,1.95,4.35-1.03,8.53-1.52,9.2-14.12,5.71-28.24,11.41-42.36,17.12-.05-1.54-.34-3.88-1.59-6.49-1.53-3.21-3.79-5.33-5.21-6.48,6.71-2.73,13.54-5.45,20.48-8.15,3.72-1.44,7.41-2.86,11.09-4.26Z"/>
          <path class="cls-7" d="M355.58,602.75c2.61,2.44,5.68,4.95,9.27,7.33,12.39,8.23,24.95,11,33.28,12.01,0,0,8.35-9.02,7.21-18.41l-46.94-10.52c-.28.21-4.5,3.51-3.72,7.5.11.57.35,1.3.9,2.09Z"/>
        </g>
      </g>
      <ellipse class="cls-4" cx="241.31" cy="591.29" rx="12.77" ry="16.34"/>
    </g>
    <g>
      <path class="cls-10" d="M321.82,541.26c5.84-2.7,61.22-28.36,93.09-42.58,2.9-1.29,8.72-3.87,16.63-6.66,19.81-6.96,35.79-9.23,39.11-9.68,26.83-3.64,48.31.12,67.15,3.57,5.04.92,17.66,3.24,29.62,7.06,15.81,5.06,48.02,18.41,80.94,56.85,2.05,1.38,12.94,8.98,13.95,21.72.26,3.28-.19,6.2-.85,8.58-5.32,3.39-13.46,8.33-23.78,13.55-16.97,8.58-28.78,12.34-52.51,20.9-37.1,13.38-32.34,12.9-44.35,16.55-15.65,4.76-38.61,10.1-68.31,11.3-9.69.48-120.71,5.06-136.41-39.83-1.15-3.29-1.83-6.96-1.84-11.04-1.48-8.85-3.43-18.34-6-28.34-2-7.79-4.19-15.12-6.45-21.95Z"/>
      <path class="cls-14" d="M424.52,602.85c.97,2.99,2.15,8.01,1.43,14.14-1.24,10.51-7.25,17.31-9.51,19.64,10.11-.16,20.71-.08,31.77.34,12.37.47,24.16,1.3,35.29,2.39-1.13-3.21-2.62-8.82-2.04-15.83.73-8.87,4.39-15.23,6.38-18.21-21.11-.82-42.21-1.65-63.32-2.47Z"/>
      <path class="cls-14" d="M493.08,605.53c-1.75,1.84-5.75,6.53-7.02,13.79-1.76,10,2.92,17.62,4.09,19.4,13.14-1.54,28.34-4.21,44.94-8.81,17.48-4.84,32.57-10.73,45.06-16.47.45-2.2,1.21-7.47-1.12-13.41-3.16-8.03-9.77-11.63-11.51-12.51-9.95,3.95-21.48,7.85-34.47,11.11-14.71,3.68-28.21,5.76-39.96,6.89Z"/>
      <path class="cls-14" d="M626.92,563.35c2.79-1.01,6.87-2.65,11.56-5.18,6.04-3.26,7.82-5.15,10.8-4.72,5.67.82,8.52,8.96,8.73,9.57,2.88,8.54-2.22,16.37-3.06,17.62-23.32,9.92-46.65,19.83-69.97,29.75.02-2.97-.3-7.51-2.16-12.64-2.28-6.31-5.81-10.58-8.04-12.89,11.09-4.75,22.36-9.47,33.83-14.14,6.13-2.5,12.24-4.95,18.31-7.36Z"/>
      <path class="cls-14" d="M339.42,603.28c4.29,4.56,9.5,9.33,15.79,13.87,20.85,15.02,42.48,19.38,55.68,20.79,0,0,13.2-18.11,10.72-36.22-25.99-5.52-51.99-11.04-77.98-16.56-.73.68-7.5,7.14-5.8,14.49.24,1.03.69,2.29,1.59,3.64Z"/>
      <path class="cls-14" d="M519.84,485.58l12.38,14.46,19.91-8.21s-26.3-7.67-32.3-6.25Z"/>
      <polygon class="cls-14" points="383.61 515.41 418.86 500.04 421.92 515.41 383.61 515.41"/>
      <path class="cls-14" d="M452.68,550.35h67.63l8.17-51.78-14.3-13.6s-58.76-8-88.85,12.55l2.04,19.37,25.31,33.45Z"/>
      <path class="cls-14" d="M525.07,550.52c10.97,11.06,21.93,22.12,32.9,33.18,11.01-3.39,22.41-7.22,34.15-11.53,18.73-6.89,36.06-14.22,51.98-21.65,0,0-22.1-33.97-85.88-59.16l-25.11,11.88-8.04,47.28Z"/>
      <path class="cls-14" d="M447.96,554.94l-36.26,41.62s99.06,16.41,139.4-9.41l-33.19-32.2h-69.96Z"/>
      <path class="cls-14" d="M321.82,541.27l56.7-24.38,46.47,5.11,20.43,27.57-35.74,43.4-74.55-11.23c.11-4.43-.22-10.66-2.25-17.75-2.6-9.07-6.85-15.65-9.88-19.62-.39-1.04-.78-2.08-1.17-3.11Z"/>
      <path class="cls-8" d="M454.8,547.41h61.69l7.45-47.23-13.04-12.4s-53.6-7.3-81.04,11.45l1.86,17.67,23.08,30.52Z"/>
      <path class="cls-11" d="M458.37,544.6h51.73l6.25-42.89-10.94-11.26s-44.95-6.63-67.97,10.4l1.56,16.04,19.36,27.71Z"/>
      <path class="cls-8" d="M331.59,543.62c.99-4.29,5.88-6.38,15.49-10.13,9.03-3.53,20.2-7.73,33.18-12.26,13.72,1.51,27.45,3.02,41.17,4.52l18.1,24.43-31.67,38.46-66.05-9.95c.21-3.99.02-9.57-2-15.72-3.47-10.6-9.44-14.04-8.22-19.35Z"/>
      <path class="cls-11" d="M342.84,543.93c1.1-3.74,5.56-4.79,14.11-8.14,6.15-2.41,14.55-6.06,24.36-11.5,10.51,1.37,21.02,2.74,31.53,4.11l13.86,22.21-24.25,34.97-50.59-9.05c.24-3.22.28-8.41-1.53-14.29-3.09-10.04-8.91-13.5-7.49-18.31Z"/>
      <path class="cls-13" d="M461.85,538.28h39.18l4.73-33.1-8.28-8.69s-34.05-5.12-51.48,8.02l1.18,12.38,14.66,21.38Z"/>
      <path class="cls-13" d="M350.48,547.45c.43-3.04,5.15-4.17,15.15-8.25,7.14-2.92,12.84-5.67,16.63-7.57,7.64,1.04,15.28,2.09,22.92,3.13l10.07,16.92-17.63,26.64-36.77-6.9c.38-2.62.58-6.67-1.11-10.89-3.08-7.7-9.79-9.33-9.26-13.08Z"/>
      <path class="cls-8" d="M454.88,559.77l-28.76,33.01s78.58,13.02,110.58-7.47l-26.33-25.55h-55.49Z"/>
      <path class="cls-11" d="M461.08,563.79l-23.63,25.57s64.58,10.08,90.88-5.78l-21.64-19.78h-45.61Z"/>
      <path class="cls-13" d="M466.91,567.1l-17.32,19.96s47.32,7.87,66.59-4.51l-15.85-15.45h-33.41Z"/>
      <path class="cls-8" d="M531.1,549.65c9.5,10.32,18.99,20.64,28.49,30.96,9.53-3.16,19.41-6.73,29.57-10.76,16.21-6.43,31.22-13.27,45.01-20.2,0,0-19.13-31.69-74.36-55.19l-21.74,11.08-6.96,44.1Z"/>
      <path class="cls-11" d="M536.7,547.27c8.14,8.83,16.28,17.66,24.43,26.49,8.18-2.71,16.64-5.76,25.35-9.21,13.9-5.5,26.77-11.35,38.59-17.28,0,0-16.41-27.12-63.76-47.23l-18.64,9.48-5.97,37.75Z"/>
      <path class="cls-13" d="M543.16,545.69c6.83,7.49,13.66,14.97,20.49,22.46,6.86-2.3,13.96-4.88,21.27-7.81,11.66-4.66,22.46-9.62,32.38-14.65,0,0-13.76-22.99-53.49-40.03l-15.64,8.04-5.01,31.99Z"/>
      <polygon class="cls-8" points="389.42 514.51 416.43 502.56 418.78 514.51 389.42 514.51"/>
      <polygon class="cls-11" points="393.89 513.85 415.2 504.17 417.06 513.85 393.89 513.85"/>
      <polygon class="cls-13" points="398.59 512.59 413.29 505.7 414.57 512.59 398.59 512.59"/>
      <path class="cls-8" d="M522.65,487.03l10.23,10.68,16.45-6.07s-21.72-5.66-26.68-4.62Z"/>
      <path class="cls-11" d="M524.56,487.69l8.17,9.34,13.15-5.31s-17.36-4.95-21.32-4.04Z"/>
      <path class="cls-13" d="M526.53,488.54l6.21,7.63,9.99-4.33s-13.19-4.04-16.21-3.29Z"/>
      <path class="cls-8" d="M356.87,615.62c5.19,3.37,12.19,7.21,20.94,10.21,11.7,4.01,22.08,5,29.41,5.11,0,0,11.65-14.12,9.47-28.24l-68.96-13.17c-1.07,1.02-6.32,6.21-4.99,11.55.38,1.54,1.19,2.58,2.1,3.65,2.29,2.7,6.08,6.64,12.04,10.89Z"/>
      <path class="cls-11" d="M350.47,604.27c3.11,2.99,6.78,6.07,11.07,9,14.8,10.1,29.81,13.49,39.77,14.73,0,0,9.99-11.11,8.64-22.65l-56.11-12.88c-.33.26-5.39,4.32-4.45,9.22.13.7.42,1.6,1.07,2.57Z"/>
      <path class="cls-8" d="M428.11,606.28c.85,2.39,1.87,6.41,1.24,11.3-1.08,8.4-6.31,13.84-8.28,15.7,8.79-.13,18.02-.06,27.64.27,10.77.37,21.02,1.04,30.71,1.91-.98-2.57-2.28-7.05-1.78-12.65.64-7.09,3.82-12.18,5.55-14.56-18.36-.66-36.73-1.32-55.09-1.98Z"/>
      <path class="cls-11" d="M432.47,610.52c.69,1.7,1.53,4.54,1.02,8.02-.88,5.96-5.16,9.82-6.78,11.14,7.2-.09,14.75-.04,22.63.19,8.81.26,17.2.74,25.13,1.36-.8-1.82-1.86-5-1.45-8.97.52-5.03,3.13-8.64,4.54-10.33-15.03-.47-30.06-.94-45.09-1.4Z"/>
      <path class="cls-13" d="M436.53,612.66c.55,1.35,1.21,3.61.81,6.36-.7,4.73-4.1,7.79-5.38,8.84,5.71-.07,11.71-.03,17.96.15,6.99.21,13.65.59,19.95,1.08-.64-1.45-1.48-3.97-1.15-7.12.41-3.99,2.48-6.86,3.61-8.2-11.93-.37-23.86-.74-35.79-1.11Z"/>
      <path class="cls-8" d="M496.83,607.62c-1.58,1.54-5.18,5.48-6.33,11.57-1.59,8.39,2.63,14.78,3.68,16.29,11.85-1.3,25.57-3.54,40.53-7.39,15.76-4.06,29.38-9,40.65-13.82.41-1.84,1.09-6.27-1.01-11.25-2.85-6.74-8.81-9.76-10.39-10.5-8.97,3.32-19.37,6.59-31.09,9.32-13.27,3.09-25.45,4.83-36.04,5.79Z"/>
      <path class="cls-11" d="M504.36,608.5c-1.34,1.33-4.39,4.72-5.36,9.96-1.34,7.22,2.23,12.73,3.12,14.02,10.03-1.12,21.65-3.04,34.33-6.36,13.35-3.5,24.88-7.75,34.43-11.9.34-1.59.93-5.4-.86-9.69-2.42-5.8-7.46-8.4-8.8-9.04-7.6,2.85-16.41,5.67-26.33,8.02-11.24,2.66-21.55,4.16-30.52,4.98Z"/>
      <path class="cls-13" d="M511.44,609.46c-1.1,1.1-3.62,3.9-4.43,8.22-1.11,5.96,1.84,10.5,2.58,11.57,8.28-.92,17.87-2.51,28.33-5.25,11.02-2.88,20.53-6.4,28.41-9.82.28-1.31.76-4.45-.71-7.99-1.99-4.79-6.16-6.93-7.26-7.46-6.27,2.36-13.54,4.68-21.73,6.62-9.27,2.2-17.79,3.43-25.19,4.11Z"/>
      <path class="cls-8" d="M625.07,567.03c2.43-.89,5.99-2.31,10.06-4.46,5.24-2.76,6.75-4.31,9.4-4.07,5.03.44,7.81,6.71,8.01,7.18,2.81,6.58-1.45,12.88-2.16,13.89-20.3,8.58-40.6,17.16-60.9,25.74-.07-2.33-.5-5.86-2.3-9.81-2.21-4.86-5.46-8.07-7.51-9.8,9.65-4.11,19.47-8.2,29.45-12.26,5.34-2.17,10.66-4.31,15.95-6.4Z"/>
      <path class="cls-11" d="M625.18,567.89c2.09-.76,5.14-1.98,8.63-3.82,4.49-2.37,5.79-3.68,8.07-3.49,4.32.38,6.7,5.74,6.87,6.14,2.41,5.63-1.25,11.02-1.85,11.88-17.42,7.34-34.84,14.68-52.26,22.02-.06-1.99-.43-5.02-1.97-8.39-1.9-4.15-4.69-6.9-6.44-8.38,8.28-3.52,16.7-7.01,25.27-10.49,4.58-1.86,9.15-3.68,13.69-5.48Z"/>
      <path class="cls-13" d="M626.12,569.86c1.69-.59,4.16-1.54,6.99-2.97,3.64-1.84,4.69-2.86,6.54-2.71,3.5.28,5.42,4.43,5.56,4.74,1.95,4.35-1.03,8.53-1.52,9.2-14.12,5.71-28.24,11.41-42.36,17.12-.05-1.54-.34-3.88-1.59-6.49-1.53-3.21-3.79-5.33-5.21-6.48,6.71-2.73,13.54-5.45,20.48-8.15,3.72-1.44,7.41-2.86,11.09-4.26Z"/>
      <path class="cls-13" d="M356.72,605.36c2.61,2.44,5.68,4.95,9.27,7.33,12.39,8.23,24.95,11,33.28,12.01,0,0,8.35-9.02,7.21-18.41l-46.94-10.52c-.28.21-4.5,3.51-3.72,7.5.11.57.35,1.3.9,2.09Z"/>
    </g>
  </g>
  <g class="cls-15">
    <path class="cls-5" d="M483.38,694.17c5.63,3.49,10.15-1.27,27.22-3.73,23-3.33,35.47,2.32,37.44-2.1,2.59-5.8-20.64-11.86-27.32-32.43-6.03-18.58,7.96-28.98,1.79-57.45-2.07-9.57-3.97-9.87-4.6-17.87-1.25-16.08,5.28-29.49,10.72-40.34,8.29-16.53,11.76-14.91,15.06-26.55,3.1-10.92,1.39-17.04,6.89-24.51,4.27-5.8,10.1-8.63,15.57-10.72,31.87-12.18,62.16-3.2,64.6-10.21,1.73-4.98-11.07-16.59-25.28-21.19-15.55-5.04-24.4,1.04-32.94-6.13-9.06-7.61-5.77-20.08-10.72-21.19-7.55-1.69-10.95,28.24-33.96,42.89-20.01,12.75-40.65,4.9-45.7,16.85-2.88,6.8,3.59,9.84,3.32,23.74-.09,4.47-.83,8.31-11.23,33.19-8.89,21.26-9.72,21.78-10.72,27.36-1.14,6.35-3.71,20.75,3.84,32.88,5.38,8.64,9.95,6.58,14.03,13.81,6.25,11.06-1.95,20.31-4.34,44.94-1.21,12.51-3.19,32.87,6.32,38.76Z"/>
    <path class="cls-1" d="M488.28,659.73c1.94,15.38-5.52,25.1-2.11,27.16,2.76,1.67,6.69-5.27,15.66-8.17,16.12-5.22,32.32,7.82,34.04,5.11,1.46-2.3-12.16-8.55-18.21-23.83-5.15-13.01-2.62-26.97-2.04-30.13,1.73-9.54,4.15-9.6,4.6-17.19.59-10.11-3.53-12.88-6.3-26.21-1.63-7.86-3.48-16.81-.85-27.23,1.1-4.37,4.88-11.59,12.42-26.04,2.9-5.56,3.92-7.04,4.68-8.19,3.64-5.47,5.71-6.63,7.7-13.64,3.89-13.7,3.82-16.07,5.67-20.15,2.78-6.13,7.25-9.38,15.32-15.22,2.2-1.59,8.32-5.97,16.34-9.02,21.02-7.99,38.67-.61,39.66-3.92.83-2.77-10.48-11.57-24.51-13.11-15.09-1.65-23.59,6.16-28.75,1.59-6.26-5.55,1.34-21.42-1.54-22.69-3.78-1.67-11.16,28.1-35.19,40.54-16.75,8.67-34.52,6.63-37.57,13.85-2.36,5.59,2.95,8.09,2.73,19.52-.07,3.68-.69,6.83-9.24,27.29-2.59,6.19-4.72,10.7-8.28,20.03-3.65,9.57-5.48,14.45-6.07,18.85-.77,5.74-2.24,16.65,3.91,24.34,4.58,5.72,8.22,3.2,13.74,9.46,5.37,6.08,8.36,15.73,5.55,23.43-1.58,4.33-3.42,3.75-5.17,7.96-3.43,8.28,2.33,13.88,3.81,25.61Z"/>
  </g>
</svg>