<?xml version="1.0" encoding="UTF-8"?>
<svg id="alfurreca" xmlns="http://www.w3.org/2000/svg" viewBox="0 0 841.89 1190.55">
  <defs>
    <style>
      .cls-1, .cls-2, .cls-3 {
        fill: #cbbfdb;
      }

      .cls-4 {
        fill: #ab93c5;
      }

      .cls-5 {
        fill: #9e91af;
      }

      .cls-6 {
        fill: #1d1d1b;
      }

      .cls-7 {
        fill: #85cbcb;
      }

      .cls-8 {
        opacity: .79;
      }

      .cls-9 {
        fill: #e2c7dd;
      }

      .cls-10 {
        fill: #3c4f5c;
      }

      .cls-11 {
        fill: #6ab7b6;
      }

      .cls-12 {
        fill: #0e2537;
      }

      .cls-13 {
        fill: #806f96;
      }

      .cls-2 {
        opacity: .48;
      }

      .cls-3 {
        opacity: .61;
      }

      .cls-14 {
        opacity: .83;
      }
    </style>
  </defs>
  <g>
    <g class="cls-14">
      <path class="cls-1" d="M278.7,492.07c2.01,4.06,4.71,10.17,6.8,17.89,6.59,24.31,1.2,42.25-.67,57.82-4.9,40.75,13.13,75.14,17.45,83.38,16.24,30.98,40.46,48.22,51.14,55.64,17.29,12.02,17.18,7.21,57.43,28.24,46.23,24.16,57.92,36.54,65.47,48.35,7.87,12.32,10.78,23.3,13.02,32.07,10.32,40.35.39,77.01-7.66,98.14,7.96-35.95,5.59-64.93,2.72-82.64-3.74-23.09-6.85-42.23-21.49-59.07-6.58-7.56-12.57-11.31-62.43-32.94-46.85-20.32-54.29-22.54-65.87-32.94-14.06-12.62-20.65-25.12-30.83-44.45-14.1-26.76-29.68-56.33-25.09-90.74,1.78-13.31,5.48-19.17,5.83-36.89.35-17.75-2.96-32.32-5.83-41.89Z"/>
      <path class="cls-2" d="M343.53,444.12c-.49,1.63,1.78,3.49,8.64,8.55,11.6,8.54,15.85,11.05,21.57,16.6,1.77,1.72,3.18,3.24,4.35,4.51,0,0,5.67,6.13,10.54,12.74,32.83,44.54,21.55,123.86,21.55,123.86-4.68,30.69-9.85,24.62-21.45,71.49-11.11,44.89-17.4,70.3-12.75,102.98,1.67,11.78,8.93,62.5,47.79,93.91,22.44,18.14,45.96,24.11,58.95,26.34.23.04-19.52-2.97-39.27-16.85-17.79-12.5-27.52-27.81-38.03-44.34-7.94-12.5-14.97-23.55-19.74-38.81-7.83-24.99-5.12-46.87-2.69-62.38,14.12-90.39,41.03-108.62,36.73-166.38-1.97-26.5-9.62-49.36-13.96-62.3-11.79-35.22-23.17-48.01-26.65-51.74-10.05-10.77-20.66-17.25-27.96-21-5.73.41-7.29,1.7-7.62,2.82Z"/>
      <path class="cls-3" d="M372.62,417.23c38.11,8.17,61.16,22.65,75.27,34.62,13.68,11.59,25.62,26.45,51.83,39.63,12.64,6.36,15.38,5.67,20.09,10.64,15.8,16.66-.21,39.95,2.99,79.53,3.28,40.62,24.48,69.73,31.73,79.45,18.15,24.3,38.66,37.12,44.38,40.54,50.41,30.17,104.33,20.06,119.87,16.56-12.25,1.53-29.88,2.65-50.85.19-7.9-.93-17.11-2.07-28.81-5.55-31.54-9.39-51.31-26.96-57.7-33.02-7.79-7.39-12.38-13.48-18.89-22.13-15.86-21.05-26.62-35.34-31.4-54.38-6.39-25.42-2.35-60.23-.02-80.37.51-4.37,1.91-15.47-4.58-24.06-4.1-5.43-9.57-7.48-13.19-9.01-13.72-5.79-24.72-16.6-37.11-24.85-39.52-26.33-35.85-25.56-46.98-31.74-9.81-5.45-25.06-12.95-45.66-19.15-3.66,1.04-7.32,2.07-10.98,3.11Z"/>
      <path class="cls-1" d="M392.46,389.98c16.68-8.91,31.47-12.72,41.4-14.53,15.63-2.84,45.49-8.27,71.64,8.54,4.7,3.02,11.53,7.5,17.02,15.66,19.33,28.71-1.15,68.5-3.22,72.38,0,0-39.83,69.7-26.81,123.32,3.14,8.52,8.34,19.38,17.33,29.87,27.35,31.94,69.97,37.28,70.23,36.55.19-.54-21.87-6.36-49.26-25.06-17.38-11.87-25.04-20.82-28.76-31.67-1.9-5.54-2.17-10.06-2.64-18.89-.36-6.9-.67-20.56,3.06-43.37,4.47-27.32,11.34-47.09,12.92-51.56,8.93-25.22,11.81-21.95,15.42-36.04,6.12-23.93,4.93-61.26-18.25-78.97-12.2-9.32-27.02-10.56-28.14-10.64-10.28-.74-11.73,2.47-27.25,4.13-17.47,1.87-19.59-1.77-37.43.47-10.84,1.36-24.09,3.18-27.27,11.46-1.18,3.06-.66,6.16,0,8.35Z"/>
    </g>
    <g>
      <path class="cls-4" d="M298.79,489.77l12.23-10.44c.68,1.77,1.73,4.64,2.83,8.23,4.86,15.87,3.09,21.12,8.43,27.49,2.35,2.81,2.44,1.48,9.19,7.76,8.61,8,9.31,10.94,9.19,12.93-.16,2.66-1.73,2.81-3.66,6.98-.44.94-4.05,8.96-1.7,15.32,2.26,6.12,8.13,5.54,12.73,11.12,3.03,3.67,5.63,10.16,3.35,22.5,6.83,1.45,14.18,4.15,15.91,9.62,2.39,7.54-7.9,13.9-6.81,23.49.56,4.95,4.19,11.06,16.34,17.36,14.78,5.76,20.07,12.88,22.03,18.62,2.86,8.39-.27,17.11,4.59,20.12,3.14,1.94,6.1-.67,10.68-.26,5.04.46,11.88,4.55,19.2,21.34,0,0,16.85-9.96,26.04,18.38,1.17,2.76,2.69,7.28,2.89,13.02.22,6.36-1.27,11.38-2.38,14.3,14.39,4.99,23.41,14.79,22.8,23.95-.5,7.52-7.45,13.97-9.19,13.15-2.36-1.11,5.5-15.37-.34-21.53-3.09-3.26-6.66-.7-12.83-4.5-.45-.28-12.89-5.67-9.38-13.12,1.22-2.59,3.26-7.91,2.32-14.43-1.28-8.87-7.89-18.57-15.17-18.93-7.2-.36-10.32,8.65-14.93,7.34-6.56-1.86-1.7-20.52-10.95-26.74-8.59-5.78-20.87,4.88-27.24-.52-3.01-2.55-4.72-8.69.09-24.08-.32-3.55-1.38-7.1-3.92-9.84-6.04-6.53-14.71-2.28-25.78-8.8-4.1-2.41-8.75-5.15-10.22-10.18-2.86-9.77,9.48-17.11,6.22-27.1-.45-1.37-2.71-4.03-7.23-9.36-8.03-9.46-9.41-9.02-10.55-12.26-3.13-8.87,5.38-17.47,2.47-20.13-2.54-2.32-9.38,3.92-12.5,1.83-2.37-1.59-2.7-8.02,5.61-28.68-2.31-.3-5.82-1.12-8.41-3.83-5.37-5.61-.75-12.97-5.89-20.34-4.27-6.13-9.69-4.21-11.57-9.53-2.25-6.37,4.36-12.3,1.36-17.02-1.39-2.18-4.09-2.93-5.87-3.23Z"/>
      <path class="cls-4" d="M324.91,473.52l11.24-11.38c3.1.67,7.22,2.11,10.37,5.54,6.49,7.07,3.42,16.6,9.8,20.48,3.53,2.15,5.02-.44,8.76,1.53,7.08,3.74,3.43,13.95,11.1,24.51,4.58,6.3,6.77,3.9,10.82,9.84,7.07,10.38.8,18.33,7.15,26.03,5.62,6.81,12.22,2.66,17.66,9.39,6.52,8.08-1.11,16.37,4.85,25.38,5.66,8.54,14.6,4.22,23.15,14.3,5.77,6.81,2.68,9.95,8.85,17.02,6.68,7.65,11.11,4.9,19.74,12.94,8.37,7.79,6.39,12.4,13.53,16.08,6.95,3.58,9.09-.65,18.13,3.32,6.09,2.68,7.51,5.66,15.32,8.17,4.29,1.38,5.02.85,7.91,2.01,4.22,1.69,8.87,5.29,12.85,12.97,14.5,3.9,21.63,6.53,21.4,7.89-.25,1.46-9.09,1.44-26.5-.06-2.65-3.65-7.13-8.55-13.87-10.55-8.59-2.55-13.06,1.93-22.21-.34-8.06-2-6.89-6.03-17.36-11.57-13.15-6.96-20.01-3.25-27-10.03-2.85-2.76-6.17-7.7-6.96-17.12.02,0,.05-.02.06-.05.19-.64-12.41-2.07-19.21-8.37-8.45-7.83-1.7-17.39-9.87-25.7-6.7-6.81-13.04-2.24-20.09-9.87-3.46-3.75-2.23-5.18-8.51-18.38-3.33-7-5-10.5-7.83-14.64-7.84-11.46-13.09-11.38-15.06-19.09-1.84-7.19,2.26-9.12-.25-14.27-3.86-7.91-14.66-5.72-18.04-13.62-2.26-5.27,1.69-8.26-1.02-12.26-3.75-5.53-12.81-2.02-17.36-7.49-2.51-3.02-2.65-7.56-1.53-12.6Z"/>
      <path class="cls-4" d="M360.49,439.44c.6,2.05,1.91,5.46,4.96,8.09,9.3,8.03,22.2-2.07,35.29,5.17,2.31,1.28.3.7,14.76,13.85,5.76,5.23,9.04,8.02,14.13,9.02,4.69.92,6.18-.61,8.48.95,5.15,3.48-.33,12.47,4.54,18.97,5.32,7.09,16.78,2.96,20.3,9.96,2,3.98-1.37,5.96.03,10.73,2.61,8.91,15.66,6.36,26.41,17.23,8.44,8.53,4.71,14.45,12.69,19.34,8.76,5.37,15.48-.41,23.3,5.55,6.89,5.25,4.28,11.72,10.66,14.74,6.75,3.2,11.51-3.16,20.4.07,6.09,2.21,5.26,5.7,10.89,7.49,8.33,2.65,11.69-4.47,22.13-3.74,9.73.68,11.21,7.17,20.43,6.81,8.11-.32,15.48-5.68,14.98-8.17-.31-1.55-3.56-1.44-14.98-3.74-8.69-1.76-13.11-2.67-16.34-4.43-7.94-4.3-6.71-8.54-12.6-10.55-8.81-3.02-14.54,5.45-21.45,2.04-5.97-2.95-3.67-10.25-9.94-13.7-7.19-3.96-13.61,3.81-20.36.17-7.23-3.89-2.9-14.45-10.6-20.11-7.71-5.67-16.89,1.36-23.1-4.82-4.06-4.04-.67-7.55-4.81-13.74-5.71-8.54-14.72-5.67-19.7-14.17-3.11-5.3-.13-7.3-3.26-12.33-4.51-7.24-11.84-4.92-20.91-11.5-9.35-6.78-5.95-12.42-14.64-19.06-9.93-7.59-14.35-.2-27.91-7.49-10.79-5.8-15.57-14.55-28.06-15.33-1.39-.09-2.54-.05-3.26-.01-4.15,4.25-8.3,8.5-12.45,12.74Z"/>
    </g>
    <path class="cls-5" d="M230.45,362.2c-10.93,14.4-15.63,25.54-17.36,29.96-1.48,3.77-4.97,12.79-6.43,23.5-.56,4.11-6.38,51.13,22.09,68.08,3.94,2.35,14.87,7.88,33.02,4.77.96,9.89,3.27,12.85,5.44,13.46,4.13,1.16,7.22-6.34,15.32-7.33,6.67-.81,7.89,3.86,13.79,3.53,10.05-.57,10.42-14.42,24.34-21.23,9.83-4.81,15.2-.63,20.28-6.35,5.54-6.24.76-13.02,6.28-18.84,5.99-6.32,13.95-.77,20.64-6.92,6.87-6.32,1.48-14.94,8.63-21.68,6.39-6.01,13.7-1.98,17.49-7.68,3.94-5.93-2.96-11.77.55-19.89,3.58-8.26,13.35-8.27,13.96-13.96.29-2.73-1.53-6.78-11.06-12.43,2.2-4.26,4.15-9.8,3.91-16.17-.91-24.47-33.47-45.05-61.62-49.02-27.36-3.86-49.04,8.2-63.66,16.34-24.16,13.44-37.82,31.6-45.62,41.87Z"/>
    <path class="cls-13" d="M270.96,361.52c-5.9,4.91-18.54,16.7-26.21,36.08-3.05,7.71-12.66,31.99-2.04,55.06,2.58,5.61,7.38,16.04,18.61,19.92,9.79,3.38,18.87-.15,21.99-1.54,1.51,5.89,3.62,7.67,5.35,8.14,3.5.96,5.39-3.47,12.95-6.69,7.65-3.26,10.52-.78,14.64-4.43,4.04-3.57,2.26-6.82,6.13-9.53,4.91-3.44,9.46.61,13.62-2.72,3.59-2.88,1.1-6.62,5.11-11.57,3.74-4.62,7.1-2.84,10.21-7.15,3.74-5.18.08-9.43,3.74-13.62,3.3-3.78,7.05-1.2,11.91-5.45,2.36-2.06,1.5-2.69,6.13-10.21,3.94-6.41,5.79-7.95,5.11-9.87-.29-.81-1.49-3-8.58-3.49,2.66-2.37,7.47-7.41,8.44-14.7,1.79-13.46-11-23.78-15.52-27.43-11.85-9.56-24.97-10.92-31.27-11.49-31.33-2.83-54.85,16.14-60.31,20.68Z"/>
    <ellipse class="cls-6" cx="321.7" cy="397.23" rx="5.85" ry="9.37" transform="translate(-189.26 382.77) rotate(-49.38)"/>
    <ellipse class="cls-6" cx="295.11" cy="425.38" rx="5.85" ry="9.37" transform="translate(-219.89 372.41) rotate(-49.38)"/>
    <ellipse class="cls-9" cx="227.24" cy="442.86" rx="7.55" ry="3.4" transform="translate(-245.56 598.5) rotate(-81.06)"/>
    <ellipse class="cls-9" cx="214.98" cy="444.25" rx="3.4" ry="9.51" transform="translate(-24.78 12.87) rotate(-3.24)"/>
    <path class="cls-9" d="M228.88,421.62c-.65,4.12-2.68,7.22-4.54,6.93-1.86-.29-2.84-3.87-2.19-7.99.65-4.12,2.68-7.22,4.54-6.93,1.86.29,2.84,3.87,2.19,7.99Z"/>
    <ellipse class="cls-9" cx="316.8" cy="311.88" rx="9.51" ry="3.4" transform="translate(-35.72 41.03) rotate(-7.02)"/>
    <ellipse class="cls-9" cx="329.77" cy="323.17" rx="11.87" ry="3.83" transform="translate(-37.01 42.7) rotate(-7.02)"/>
    <ellipse class="cls-9" cx="352.58" cy="315.45" rx="3.4" ry="9.51" transform="translate(-13.85 614.71) rotate(-81.06)"/>
  </g>
  <g class="cls-8">
    <g>
      <path class="cls-11" d="M395.62,434.04c1.57-.73,4.04.72,5.11,1.53,1.83,1.39,1.63,2.53,3.06,3.32,2.52,1.39,4.89-1.12,6.38-.26,3.13,1.81,1.83,18.05-7.4,21.7-3.74,1.48-9.13,1.03-10.98-1.79-1.66-2.53,1-4.75,2.04-13.02.85-6.72-.23-10.55,1.79-11.49Z"/>
      <path class="cls-11" d="M430.17,447.32c.63-.29,1.91,2.47,5.96,5.79,2.41,1.97,2.74,1.63,3.4,2.64,1.95,2.95-.9,5.85-1.53,12.77-.56,6.12,1.4,6.79,0,11.23-1.17,3.71-3.23,5.44-2.38,7.06.75,1.44,3.08,1.41,5.96,1.62,11.56.81,11.86,3.94,17.62,2.81,6.32-1.24,8.3-5.47,11.15-4.08,2.49,1.21,1.44,4.68,4.94,8.17,3.15,3.15,6.49,2.82,6.47,3.91-.03,1.94-10.65,6.29-19.15,2.47-5.67-2.55-7.58-7.48-12.19-6.98-3.06.33-3.24,2.61-6.11,2.98-5.79.73-12.05-7.66-14.64-14.38-.76-1.98-2.36-6.28-1.87-11.74.64-7.11,4.19-9.08,3.83-15.83-.25-4.66-2.16-8.09-1.45-8.43Z"/>
      <path class="cls-11" d="M473.49,494.04c.27-.1.5.88,1.79,2.02,2.11,1.88,3.65,1.17,6.89,3.09.47.28.07.08,2.72,1.96,3.32,2.36,3.46,2.33,4.17,2.98,2.08,1.9,3.65,4.66,3.09,5.27-.51.55-2.19-1.33-3.85-1.01-3.47.66-4.42,10.6-5.11,19.66-.77,10.1,3.57,13.86.51,22.72-.52,1.51-1.98,5.72-3.57,5.62-3.35-.21-4.67-19.14-4.85-28.34-.17-8.51,1.86-9.56,1.28-16.6-.75-8.99-3.88-17.07-3.06-17.36Z"/>
    </g>
    <g>
      <path class="cls-7" d="M394.4,435.17c1.5-.68,3.87.67,4.88,1.43,1.75,1.3,1.55,2.35,2.93,3.09,2.41,1.3,4.67-1.05,6.11-.24,3,1.69,1.75,16.82-7.08,20.22-3.58,1.38-8.74.96-10.5-1.67-1.58-2.36.95-4.43,1.95-12.13.81-6.26-.22-9.83,1.71-10.71Z"/>
      <path class="cls-7" d="M427.45,447.55c.6-.27,1.82,2.3,5.7,5.39,2.31,1.84,2.62,1.52,3.26,2.46,1.87,2.75-.86,5.45-1.47,11.9-.54,5.71,1.34,6.33,0,10.47-1.12,3.46-3.09,5.07-2.28,6.58.72,1.35,2.94,1.32,5.7,1.51,11.06.76,11.34,3.67,16.85,2.62,6.04-1.16,7.94-5.1,10.66-3.81,2.38,1.13,1.38,4.36,4.72,7.62,3.01,2.93,6.21,2.63,6.19,3.64-.03,1.8-10.19,5.86-18.32,2.3-5.43-2.38-7.25-6.97-11.66-6.5-2.93.31-3.1,2.44-5.84,2.77-5.54.68-11.53-7.14-14-13.4-.73-1.85-2.26-5.85-1.79-10.94.61-6.63,4-8.46,3.66-14.75-.24-4.34-2.07-7.54-1.38-7.85Z"/>
      <path class="cls-7" d="M468.89,491.09c.26-.09.48.82,1.71,1.88,2.02,1.75,3.49,1.09,6.59,2.88.45.26.07.07,2.61,1.82,3.18,2.2,3.31,2.17,3.99,2.78,1.99,1.77,3.49,4.34,2.95,4.91-.49.52-2.1-1.24-3.69-.94-3.32.61-4.22,9.88-4.88,18.32-.74,9.41,3.42,12.92.49,21.18-.5,1.41-1.89,5.33-3.42,5.23-3.2-.19-4.46-17.83-4.64-26.41-.16-7.93,1.78-8.91,1.22-15.47-.72-8.38-3.71-15.91-2.93-16.18Z"/>
    </g>
  </g>
  <path class="cls-12" d="M213.32,382.47c4.91-7.55,9.7-14.93,17.11-15.83,19.89-2.41,39.23,44.39,35.74,46.98-1.85,1.37-9.49-10.12-19.4-8.43-3.02.52-5.53,2.13-10.47,1.79-4.59-.32-6.23-1.98-7.4-1.02-3,2.45,6.71,14.07,2.55,20.94-2.37,3.91-6.83,2.3-9.45,6.38-3.48,5.43.77,14.02,3.06,18.64,4.27,8.61,7.84,9.59,16.09,22.21,6.7,10.25,6.46,12.85,5.62,13.79-1.29,1.44-4.14-.85-6.89.26-7.1,2.86-2.69,23.89-5.87,24.77-3.14.87-11.65-18.48-19.4-40.34-7.62-21.49-11.45-32.47-12-44.17-.4-8.42-1.06-27.83,10.72-45.96Z"/>
  <path class="cls-10" d="M226.09,458.04c.61-.32,3.34,5.27,9.7,13.79,5.85,7.83,9.08,10.55,8.17,12-.93,1.49-5.85,1.05-8.94-1.53-2.64-2.21-2.53-4.8-4.6-11.74-2.44-8.23-4.87-12.24-4.34-12.51Z"/>
  <path class="cls-10" d="M220.21,380.68c-.79-.66,2.54-9.5,8.68-10.72,5.9-1.18,11.66,5.24,16.6,10.72,3.83,4.26,6.25,8.31,7.66,10.98-3.83-2.16-7.96-4.97-12-8.68-5.22-4.79-6.84-7.89-10.47-8.17-5.65-.43-9.72,6.5-10.47,5.87Z"/>
  <path class="cls-10" d="M219.7,429.45c.59.67,6.3-1.51,8.17-6.38,1.71-4.45-.41-9.48-1.19-9.43-.52.03-.26,2.31-1.37,5.86-2.02,6.46-6.17,9.33-5.62,9.96Z"/>
</svg>