<?xml version="1.0" encoding="UTF-8"?>
<svg id="alfurreca" xmlns="http://www.w3.org/2000/svg" viewBox="0 0 841.89 1190.55">
  <defs>
    <style>
      .cls-1, .cls-2, .cls-3 {
        fill: #cbbfdb;
      }

      .cls-4 {
        fill: #ab93c5;
      }

      .cls-5 {
        fill: #1d1d1b;
      }

      .cls-6 {
        fill: #85cbcb;
      }

      .cls-7 {
        opacity: .79;
      }

      .cls-8, .cls-9 {
        opacity: .36;
      }

      .cls-10 {
        fill: #3c4f5c;
      }

      .cls-11 {
        fill: #6ab7b6;
      }

      .cls-9, .cls-12 {
        fill: #0e2537;
      }

      .cls-2 {
        opacity: .48;
      }

      .cls-3 {
        opacity: .61;
      }

      .cls-13 {
        fill: #81798c;
      }

      .cls-14 {
        opacity: .83;
      }
    </style>
  </defs>
  <g class="cls-14">
    <path class="cls-1" d="M286.23,481.77c2.01,4.06,4.71,10.17,6.8,17.89,6.59,24.31,1.2,42.25-.67,57.82-4.9,40.75,13.13,75.14,17.45,83.38,16.24,30.98,40.46,48.22,51.14,55.64,17.29,12.02,17.18,7.21,57.43,28.24,46.23,24.16,57.92,36.54,65.47,48.35,7.87,12.32,10.78,23.3,13.02,32.07,10.32,40.35.39,77.01-7.66,98.14,7.96-35.95,5.59-64.93,2.72-82.64-3.74-23.09-6.85-42.23-21.49-59.07-6.58-7.56-12.57-11.31-62.43-32.94-46.85-20.32-54.29-22.54-65.87-32.94-14.06-12.62-20.65-25.12-30.83-44.45-14.1-26.76-29.68-56.33-25.09-90.74,1.78-13.31,5.48-19.17,5.83-36.89.35-17.75-2.96-32.32-5.83-41.89Z"/>
    <path class="cls-2" d="M351.06,433.82c-.49,1.63,1.78,3.49,8.64,8.55,11.6,8.54,15.85,11.05,21.57,16.6,1.77,1.72,3.18,3.24,4.35,4.51,0,0,5.67,6.13,10.54,12.74,32.83,44.54,21.55,123.86,21.55,123.86-4.68,30.69-9.85,24.62-21.45,71.49-11.11,44.89-17.4,70.3-12.75,102.98,1.67,11.78,8.93,62.5,47.79,93.91,22.44,18.14,45.96,24.11,58.95,26.34.23.04-19.52-2.97-39.27-16.85-17.79-12.5-27.52-27.81-38.03-44.34-7.94-12.5-14.97-23.55-19.74-38.81-7.83-24.99-5.12-46.87-2.69-62.38,14.12-90.39,41.03-108.62,36.73-166.38-1.97-26.5-9.62-49.36-13.96-62.3-11.79-35.22-23.17-48.01-26.65-51.74-10.05-10.77-20.66-17.25-27.96-21-5.73.41-7.29,1.7-7.62,2.82Z"/>
    <path class="cls-3" d="M380.14,406.94c38.11,8.17,61.16,22.65,75.27,34.62,13.68,11.59,25.62,26.45,51.83,39.63,12.64,6.36,15.38,5.67,20.09,10.64,15.8,16.66-.21,39.95,2.99,79.53,3.28,40.62,24.48,69.73,31.73,79.45,18.15,24.3,38.66,37.12,44.38,40.54,50.41,30.17,104.33,20.06,119.87,16.56-12.25,1.53-29.88,2.65-50.85.19-7.9-.93-17.11-2.07-28.81-5.55-31.54-9.39-51.31-26.96-57.7-33.02-7.79-7.39-12.38-13.48-18.89-22.13-15.86-21.05-26.62-35.34-31.4-54.38-6.39-25.42-2.35-60.23-.02-80.37.51-4.37,1.91-15.47-4.58-24.06-4.1-5.43-9.57-7.48-13.19-9.01-13.72-5.79-24.72-16.6-37.11-24.85-39.52-26.33-35.85-25.56-46.98-31.74-9.81-5.45-25.06-12.95-45.66-19.15-3.66,1.04-7.32,2.07-10.98,3.11Z"/>
    <path class="cls-1" d="M399.99,379.68c16.68-8.91,31.47-12.72,41.4-14.53,15.63-2.84,45.49-8.27,71.64,8.54,4.7,3.02,11.53,7.5,17.02,15.66,19.33,28.71-1.15,68.5-3.22,72.38,0,0-39.83,69.7-26.81,123.32,3.14,8.52,8.34,19.38,17.33,29.87,27.35,31.94,69.97,37.28,70.23,36.55.19-.54-21.87-6.36-49.26-25.06-17.38-11.87-25.04-20.82-28.76-31.67-1.9-5.54-2.17-10.06-2.64-18.89-.36-6.9-.67-20.56,3.06-43.37,4.47-27.32,11.34-47.09,12.92-51.56,8.93-25.22,11.81-21.95,15.42-36.04,6.12-23.93,4.93-61.26-18.25-78.97-12.2-9.32-27.02-10.56-28.14-10.64-10.28-.74-11.73,2.47-27.25,4.13-17.47,1.87-19.59-1.77-37.43.47-10.84,1.36-24.09,3.18-27.27,11.46-1.18,3.06-.66,6.16,0,8.35Z"/>
  </g>
  <g>
    <path class="cls-4" d="M306.32,479.48l12.23-10.44c.68,1.77,1.73,4.64,2.83,8.23,4.86,15.87,3.09,21.12,8.43,27.49,2.35,2.81,2.44,1.48,9.19,7.76,8.61,8,9.31,10.94,9.19,12.93-.16,2.66-1.73,2.81-3.66,6.98-.44.94-4.05,8.96-1.7,15.32,2.26,6.12,8.13,5.54,12.73,11.12,3.03,3.67,5.63,10.16,3.35,22.5,6.83,1.45,14.18,4.15,15.91,9.62,2.39,7.54-7.9,13.9-6.81,23.49.56,4.95,4.19,11.06,16.34,17.36,14.78,5.76,20.07,12.88,22.03,18.62,2.86,8.39-.27,17.11,4.59,20.12,3.14,1.94,6.1-.67,10.68-.26,5.04.46,11.88,4.55,19.2,21.34,0,0,16.85-9.96,26.04,18.38,1.17,2.76,2.69,7.28,2.89,13.02.22,6.36-1.27,11.38-2.38,14.3,14.39,4.99,23.41,14.79,22.8,23.95-.5,7.52-7.45,13.97-9.19,13.15-2.36-1.11,5.5-15.37-.34-21.53-3.09-3.26-6.66-.7-12.83-4.5-.45-.28-12.89-5.67-9.38-13.12,1.22-2.59,3.26-7.91,2.32-14.43-1.28-8.87-7.89-18.57-15.17-18.93-7.2-.36-10.32,8.65-14.93,7.34-6.56-1.86-1.7-20.52-10.95-26.74-8.59-5.78-20.87,4.88-27.24-.52-3.01-2.55-4.72-8.69.09-24.08-.32-3.55-1.38-7.1-3.92-9.84-6.04-6.53-14.71-2.28-25.78-8.8-4.1-2.41-8.75-5.15-10.22-10.18-2.86-9.77,9.48-17.11,6.22-27.1-.45-1.37-2.71-4.03-7.23-9.36-8.03-9.46-9.41-9.02-10.55-12.26-3.13-8.87,5.38-17.47,2.47-20.13-2.54-2.32-9.38,3.92-12.5,1.83-2.37-1.59-2.7-8.02,5.61-28.68-2.31-.3-5.82-1.12-8.41-3.83-5.37-5.61-.75-12.97-5.89-20.34-4.27-6.13-9.69-4.21-11.57-9.53-2.25-6.37,4.36-12.3,1.36-17.02-1.39-2.18-4.09-2.93-5.87-3.23Z"/>
    <path class="cls-4" d="M332.44,463.23l11.24-11.38c3.1.67,7.22,2.11,10.37,5.54,6.49,7.07,3.42,16.6,9.8,20.48,3.53,2.15,5.02-.44,8.76,1.53,7.08,3.74,3.43,13.95,11.1,24.51,4.58,6.3,6.77,3.9,10.82,9.84,7.07,10.38.8,18.33,7.15,26.03,5.62,6.81,12.22,2.66,17.66,9.39,6.52,8.08-1.11,16.37,4.85,25.38,5.66,8.54,14.6,4.22,23.15,14.3,5.77,6.81,2.68,9.95,8.85,17.02,6.68,7.65,11.11,4.9,19.74,12.94,8.37,7.79,6.39,12.4,13.53,16.08,6.95,3.58,9.09-.65,18.13,3.32,6.09,2.68,7.51,5.66,15.32,8.17,4.29,1.38,5.02.85,7.91,2.01,4.22,1.69,8.87,5.29,12.85,12.97,14.5,3.9,21.63,6.53,21.4,7.89-.25,1.46-9.09,1.44-26.5-.06-2.65-3.65-7.13-8.55-13.87-10.55-8.59-2.55-13.06,1.93-22.21-.34-8.06-2-6.89-6.03-17.36-11.57-13.15-6.96-20.01-3.25-27-10.03-2.85-2.76-6.17-7.7-6.96-17.12.02,0,.05-.02.06-.05.19-.64-12.41-2.07-19.21-8.37-8.45-7.83-1.7-17.39-9.87-25.7-6.7-6.81-13.04-2.24-20.09-9.87-3.46-3.75-2.23-5.18-8.51-18.38-3.33-7-5-10.5-7.83-14.64-7.84-11.46-13.09-11.38-15.06-19.09-1.84-7.19,2.26-9.12-.25-14.27-3.86-7.91-14.66-5.72-18.04-13.62-2.26-5.27,1.69-8.26-1.02-12.26-3.75-5.53-12.81-2.02-17.36-7.49-2.51-3.02-2.65-7.56-1.53-12.6Z"/>
    <path class="cls-4" d="M368.02,429.15c.6,2.05,1.91,5.46,4.96,8.09,9.3,8.03,22.2-2.07,35.29,5.17,2.31,1.28.3.7,14.76,13.85,5.76,5.23,9.04,8.02,14.13,9.02,4.69.92,6.18-.61,8.48.95,5.15,3.48-.33,12.47,4.54,18.97,5.32,7.09,16.78,2.96,20.3,9.96,2,3.98-1.37,5.96.03,10.73,2.61,8.91,15.66,6.36,26.41,17.23,8.44,8.53,4.71,14.45,12.69,19.34,8.76,5.37,15.48-.41,23.3,5.55,6.89,5.25,4.28,11.72,10.66,14.74,6.75,3.2,11.51-3.16,20.4.07,6.09,2.21,5.26,5.7,10.89,7.49,8.33,2.65,11.69-4.47,22.13-3.74,9.73.68,11.21,7.17,20.43,6.81,8.11-.32,15.48-5.68,14.98-8.17-.31-1.55-3.56-1.44-14.98-3.74-8.69-1.76-13.11-2.67-16.34-4.43-7.94-4.3-6.71-8.54-12.6-10.55-8.81-3.02-14.54,5.45-21.45,2.04-5.97-2.95-3.67-10.25-9.94-13.7-7.19-3.96-13.61,3.81-20.36.17-7.23-3.89-2.9-14.45-10.6-20.11-7.71-5.67-16.89,1.36-23.1-4.82-4.06-4.04-.67-7.55-4.81-13.74-5.71-8.54-14.72-5.67-19.7-14.17-3.11-5.3-.13-7.3-3.26-12.33-4.51-7.24-11.84-4.92-20.91-11.5-9.35-6.78-5.95-12.42-14.64-19.06-9.93-7.59-14.35-.2-27.91-7.49-10.79-5.8-15.57-14.55-28.06-15.33-1.39-.09-2.54-.05-3.26-.01-4.15,4.25-8.3,8.5-12.45,12.74Z"/>
  </g>
  <path class="cls-13" d="M237.97,351.91c-10.93,14.4-15.63,25.54-17.36,29.96-1.48,3.77-4.97,12.79-6.43,23.5-.56,4.11-6.38,51.13,22.09,68.08,3.94,2.35,14.87,7.88,33.02,4.77.96,9.89,3.27,12.85,5.44,13.46,4.13,1.16,7.22-6.34,15.32-7.33,6.67-.81,7.89,3.86,13.79,3.53,10.05-.57,10.42-14.42,24.34-21.23,9.83-4.81,15.2-.63,20.28-6.35,5.54-6.24.76-13.02,6.28-18.84,5.99-6.32,13.95-.77,20.64-6.92,6.87-6.32,1.48-14.94,8.63-21.68,6.39-6.01,13.7-1.98,17.49-7.68,3.94-5.93-2.96-11.77.55-19.89,3.58-8.26,13.35-8.27,13.96-13.96.29-2.73-1.53-6.78-11.06-12.43,2.2-4.26,4.15-9.8,3.91-16.17-.91-24.47-33.47-45.05-61.62-49.02-27.36-3.86-49.04,8.2-63.66,16.34-24.16,13.44-37.82,31.6-45.62,41.87Z"/>
  <path class="cls-4" d="M278.48,351.23c-5.9,4.91-18.54,16.7-26.21,36.08-3.05,7.71-12.66,31.99-2.04,55.06,2.58,5.61,7.38,16.04,18.61,19.92,9.79,3.38,18.87-.15,21.99-1.54,1.51,5.89,3.62,7.67,5.35,8.14,3.5.96,5.39-3.47,12.95-6.69,7.65-3.26,10.52-.78,14.64-4.43,4.04-3.57,2.26-6.82,6.13-9.53,4.91-3.44,9.46.61,13.62-2.72,3.59-2.88,1.1-6.62,5.11-11.57,3.74-4.62,7.1-2.84,10.21-7.15,3.74-5.18.08-9.43,3.74-13.62,3.3-3.78,7.05-1.2,11.91-5.45,2.36-2.06,1.5-2.69,6.13-10.21,3.94-6.41,5.79-7.95,5.11-9.87-.29-.81-1.49-3-8.58-3.49,2.66-2.37,7.47-7.41,8.44-14.7,1.79-13.46-11-23.78-15.52-27.43-11.85-9.56-24.97-10.92-31.27-11.49-31.33-2.83-54.85,16.14-60.31,20.68Z"/>
  <path class="cls-9" d="M278.75,351.23c-5.9,4.91-18.54,16.7-26.21,36.08-3.05,7.71-12.66,31.99-2.04,55.06,2.58,5.61,7.38,16.04,18.61,19.92,9.79,3.38,18.87-.15,21.99-1.54,1.51,5.89,3.62,7.67,5.35,8.14,3.5.96,5.39-3.47,12.95-6.69,7.65-3.26,10.52-.78,14.64-4.43,4.04-3.57,2.26-6.82,6.13-9.53,4.91-3.44,9.46.61,13.62-2.72,3.59-2.88,1.1-6.62,5.11-11.57,3.74-4.62,7.1-2.84,10.21-7.15,3.74-5.18.08-9.43,3.74-13.62,3.3-3.78,7.05-1.2,11.91-5.45,2.36-2.06,1.5-2.69,6.13-10.21,3.94-6.41,5.79-7.95,5.11-9.87-.29-.81-1.49-3-8.58-3.49,2.66-2.37,7.47-7.41,8.44-14.7,1.79-13.46-11-23.78-15.52-27.43-11.85-9.56-24.97-10.92-31.27-11.49-31.33-2.83-54.85,16.14-60.31,20.68Z"/>
  <ellipse class="cls-5" cx="326.78" cy="386.94" rx="5.85" ry="9.37" transform="translate(-179.67 383.04) rotate(-49.38)"/>
  <ellipse class="cls-5" cx="302.64" cy="415.08" rx="5.85" ry="9.37" transform="translate(-209.46 374.53) rotate(-49.38)"/>
  <ellipse class="cls-12" cx="234.77" cy="432.57" rx="7.55" ry="3.4" transform="translate(-229.04 597.24) rotate(-81.06)"/>
  <ellipse class="cls-12" cx="222.5" cy="433.96" rx="3.4" ry="9.51" transform="translate(-24.19 13.28) rotate(-3.24)"/>
  <ellipse class="cls-12" cx="233.04" cy="410.8" rx="7.55" ry="3.4" transform="translate(-208.99 577.14) rotate(-81.06)"/>
  <ellipse class="cls-12" cx="324.32" cy="301.59" rx="9.51" ry="3.4" transform="translate(-34.41 41.88) rotate(-7.02)"/>
  <ellipse class="cls-12" cx="337.29" cy="312.88" rx="11.87" ry="3.83" transform="translate(-35.69 43.55) rotate(-7.02)"/>
  <ellipse class="cls-12" cx="360.1" cy="305.16" rx="3.4" ry="9.51" transform="translate(2.68 613.45) rotate(-81.06)"/>
  <g class="cls-8">
    <path class="cls-12" d="M298.32,477.37l12.23-10.44c.68,1.77,1.73,4.64,2.83,8.23,4.86,15.87,3.09,21.12,8.43,27.49,2.35,2.81,2.44,1.48,9.19,7.76,8.61,8,9.31,10.94,9.19,12.93-.16,2.66-1.73,2.81-3.66,6.98-.44.94-4.05,8.96-1.7,15.32,2.26,6.12,8.13,5.54,12.73,11.12,3.03,3.67,5.63,10.16,3.35,22.5,6.83,1.45,14.18,4.15,15.91,9.62,2.39,7.54-7.9,13.9-6.81,23.49.56,4.95,4.19,11.06,16.34,17.36,14.78,5.76,20.07,12.88,22.03,18.62,2.86,8.39-.27,17.11,4.59,20.12,3.14,1.94,6.1-.67,10.68-.26,5.04.46,11.88,4.55,19.2,21.34,0,0,16.85-9.96,26.04,18.38,1.17,2.76,2.69,7.28,2.89,13.02.22,6.36-1.27,11.38-2.38,14.3,14.39,4.99,23.41,14.79,22.8,23.95-.5,7.52-7.45,13.97-9.19,13.15-2.36-1.11,5.5-15.37-.34-21.53-3.09-3.26-6.66-.7-12.83-4.5-.45-.28-12.89-5.67-9.38-13.12,1.22-2.59,3.26-7.91,2.32-14.43-1.28-8.87-7.89-18.57-15.17-18.93-7.2-.36-10.32,8.65-14.93,7.34-6.56-1.86-1.7-20.52-10.95-26.74-8.59-5.78-20.87,4.88-27.24-.52-3.01-2.55-4.72-8.69.09-24.08-.32-3.55-1.38-7.1-3.92-9.84-6.04-6.53-14.71-2.28-25.78-8.8-4.1-2.41-8.75-5.15-10.22-10.18-2.86-9.77,9.48-17.11,6.22-27.1-.45-1.37-2.71-4.03-7.23-9.36-8.03-9.46-9.41-9.02-10.55-12.26-3.13-8.87,5.38-17.47,2.47-20.13-2.54-2.32-9.38,3.92-12.5,1.83-2.37-1.59-2.7-8.02,5.61-28.68-2.31-.3-5.82-1.12-8.41-3.83-5.37-5.61-.75-12.97-5.89-20.34-4.27-6.13-9.69-4.21-11.57-9.53-2.25-6.37,4.36-12.3,1.36-17.02-1.39-2.18-4.09-2.93-5.87-3.23Z"/>
    <path class="cls-12" d="M324.44,461.12l11.24-11.38c3.1.67,7.22,2.11,10.37,5.54,6.49,7.07,3.42,16.6,9.8,20.48,3.53,2.15,5.02-.44,8.76,1.53,7.08,3.74,3.43,13.95,11.1,24.51,4.58,6.3,6.77,3.9,10.82,9.84,7.07,10.38.8,18.33,7.15,26.03,5.62,6.81,12.22,2.66,17.66,9.39,6.52,8.08-1.11,16.37,4.85,25.38,5.66,8.54,14.6,4.22,23.15,14.3,5.77,6.81,2.68,9.95,8.85,17.02,6.68,7.65,11.11,4.9,19.74,12.94,8.37,7.79,6.39,12.4,13.53,16.08,6.95,3.58,9.09-.65,18.13,3.32,6.09,2.68,7.51,5.66,15.32,8.17,4.29,1.38,5.02.85,7.91,2.01,4.22,1.69,8.87,5.29,12.85,12.97,14.5,3.9,21.63,6.53,21.4,7.89-.25,1.46-9.09,1.44-26.5-.06-2.65-3.65-7.13-8.55-13.87-10.55-8.59-2.55-13.06,1.93-22.21-.34-8.06-2-6.89-6.03-17.36-11.57-13.15-6.96-20.01-3.25-27-10.03-2.85-2.76-6.17-7.7-6.96-17.12.02,0,.05-.02.06-.05.19-.64-12.41-2.07-19.21-8.37-8.45-7.83-1.7-17.39-9.87-25.7-6.7-6.81-13.04-2.24-20.09-9.87-3.46-3.75-2.23-5.18-8.51-18.38-3.33-7-5-10.5-7.83-14.64-7.84-11.46-13.09-11.38-15.06-19.09-1.84-7.19,2.26-9.12-.25-14.27-3.86-7.91-14.66-5.72-18.04-13.62-2.26-5.27,1.69-8.26-1.02-12.26-3.75-5.53-12.81-2.02-17.36-7.49-2.51-3.02-2.65-7.56-1.53-12.6Z"/>
    <path class="cls-12" d="M360.02,427.04c.6,2.05,1.91,5.46,4.96,8.09,9.3,8.03,22.2-2.07,35.29,5.17,2.31,1.28.3.7,14.76,13.85,5.76,5.23,9.04,8.02,14.13,9.02,4.69.92,6.18-.61,8.48.95,5.15,3.48-.33,12.47,4.54,18.97,5.32,7.09,16.78,2.96,20.3,9.96,2,3.98-1.37,5.96.03,10.73,2.61,8.91,15.66,6.36,26.41,17.23,8.44,8.53,4.71,14.45,12.69,19.34,8.76,5.37,15.48-.41,23.3,5.55,6.89,5.25,4.28,11.72,10.66,14.74,6.75,3.2,11.51-3.16,20.4.07,6.09,2.21,5.26,5.7,10.89,7.49,8.33,2.65,11.69-4.47,22.13-3.74,9.73.68,11.21,7.17,20.43,6.81,8.11-.32,15.48-5.68,14.98-8.17-.31-1.55-3.56-1.44-14.98-3.74-8.69-1.76-13.11-2.67-16.34-4.43-7.94-4.3-6.71-8.54-12.6-10.55-8.81-3.02-14.54,5.45-21.45,2.04-5.97-2.95-3.67-10.25-9.94-13.7-7.19-3.96-13.61,3.81-20.36.17-7.23-3.89-2.9-14.45-10.6-20.11-7.71-5.67-16.89,1.36-23.1-4.82-4.06-4.04-.67-7.55-4.81-13.74-5.71-8.54-14.72-5.67-19.7-14.17-3.11-5.3-.13-7.3-3.26-12.33-4.51-7.24-11.84-4.92-20.91-11.5-9.35-6.78-5.95-12.42-14.64-19.06-9.93-7.59-14.35-.2-27.91-7.49-10.79-5.8-15.57-14.55-28.06-15.33-1.39-.09-2.54-.05-3.26-.01-4.15,4.25-8.3,8.5-12.45,12.74Z"/>
  </g>
  <g class="cls-7">
    <g>
      <path class="cls-11" d="M403.92,538.97c2.57-.63,5.89,2.24,7.26,3.75,2.36,2.59,1.73,4.21,3.67,5.8,3.4,2.79,7.68-.25,9.69,1.47,4.2,3.59-2.38,27.25-17.34,29.98-6.05,1.1-14.06-1.12-16.04-5.83-1.78-4.22,2.85-6.74,6.78-18.68,3.19-9.7,2.65-15.68,5.96-16.49Z"/>
      <path class="cls-11" d="M450.64,593.23c.86-.37,2.49,1.58,5,4.87,4.52,5.91,8.72,11.43,7.76,12.36-.65.63-2.77-1.68-4.6-.77-1.03.52-1.13,1.65-2.47,5.31,0,0-.09,1.23-1.54,3.89-2.82,5.16-6.41,7.12-5.6,9.76.72,2.35,4.23,2.98,8.52,4.12,17.19,4.56,16.75,9.27,25.75,9.26,9.88,0,14.07-5.69,17.97-2.82,3.41,2.52.85,7.35,5.11,13.53,3.85,5.57,8.97,6.06,8.63,7.66-.6,2.86-17.85,6.22-29.56-1.9-7.83-5.42-9.29-13.27-16.39-13.86-4.71-.39-5.62,2.93-10.05,2.64-8.94-.59-15.98-14.83-17.97-25.53-.89-4.79-3.79-14.24.52-17.93,2.48-2.12,6.19-1.41,7.89-4.49,1.49-2.69.02-5.69,1.02-6.13Z"/>
      <path class="cls-11" d="M504.21,650.35c.44-.06.51,1.44,2.12,3.51,2.65,3.39,5.17,2.79,9.51,6.57.63.55.09.14,3.55,3.69,4.34,4.45,4.55,4.45,5.44,5.62,2.59,3.42,4.17,7.96,3.15,8.69-.92.67-2.92-2.6-5.52-2.62-5.41-.03-9.67,14.41-13.29,27.62-4.03,14.73,1.44,21.56-5.7,33.78-1.22,2.08-4.61,7.89-6.99,7.28-4.99-1.28-1.59-29.68.75-43.35,2.17-12.65,5.53-13.61,6.65-24.19,1.43-13.52-.98-26.39.32-26.59Z"/>
    </g>
    <g>
      <path class="cls-6" d="M401.77,540.29c2.45-.57,5.64,2.12,6.96,3.53,2.26,2.42,1.67,3.93,3.54,5.43,3.26,2.62,7.34-.19,9.27,1.42,4.03,3.37-2.15,25.41-16.43,27.88-5.78,1-13.44-1.11-15.35-5.51-1.72-3.95,2.7-6.28,6.4-17.4,3.01-9.03,2.46-14.61,5.62-15.35Z"/>
      <path class="cls-6" d="M498.12,644.64c.42-.06.49,1.35,2.04,3.28,2.55,3.18,4.96,2.63,9.12,6.17.6.51.09.13,3.41,3.46,4.16,4.17,4.37,4.17,5.22,5.26,2.49,3.2,4.02,7.44,3.05,8.12-.88.62-2.81-2.44-5.29-2.46-5.17-.05-9.18,13.39-12.58,25.7-3.79,13.72,1.48,20.11-5.29,31.49-1.15,1.94-4.36,7.34-6.64,6.76-4.77-1.21-1.65-27.69.52-40.44,2.01-11.79,5.22-12.67,6.24-22.54,1.3-12.6-1.06-24.63.19-24.8Z"/>
      <path class="cls-6" d="M448.3,589.65c.86-.37,2.49,1.58,5,4.87,4.52,5.91,8.72,11.43,7.76,12.36-.65.63-2.77-1.68-4.6-.77-1.03.52-1.13,1.65-2.47,5.31,0,0-.09,1.23-1.54,3.89-2.82,5.16-6.41,7.12-5.6,9.76.72,2.35,4.23,2.98,8.52,4.12,17.19,4.56,16.75,9.27,25.75,9.26,9.88,0,14.07-5.69,17.97-2.82,3.41,2.52.85,7.35,5.11,13.53,3.85,5.57,8.97,6.06,8.63,7.66-.6,2.86-17.85,6.22-29.56-1.9-7.83-5.42-9.29-13.27-16.39-13.86-4.71-.39-5.62,2.93-10.05,2.64-8.94-.59-15.98-14.83-17.97-25.53-.89-4.79-3.79-14.24.52-17.93,2.48-2.12,6.19-1.41,7.89-4.49,1.49-2.69.02-5.69,1.02-6.13Z"/>
    </g>
  </g>
  <path class="cls-12" d="M222.3,374.3c5.23-11.69,33.5-74.97,68.93-71.28,25.55,2.66,45.83,39.23,39.32,48.26-7.31,10.14-48.54-14.41-58.47-1.53-8.48,11,14.89,37.66,5.62,46.98-5.06,5.09-20.94,6.09-32.42,2.09-2.67-.93-5.83-2.31-7.4-1.02-3,2.45,6.71,14.07,2.55,20.94-2.37,3.91-6.83,2.3-9.45,6.38-3.48,5.43.77,14.02,3.06,18.64,4.27,8.61,7.84,9.59,16.08,22.21,6.7,10.25,6.46,12.85,5.62,13.79-1.29,1.44-4.14-.85-6.89.26-7.1,2.86-2.69,23.89-5.87,24.77-3.14.87-11.65-18.48-19.4-40.34-7.62-21.49-11.45-32.47-12-44.17-.2-4.19-.47-20.9,10.72-45.96Z"/>
  <path class="cls-12" d="M392.17,811.19c.34-.17,2.39,3.23,2.96,2.93.52-.27-.78-3.31-.37-3.53.72-.37,5.4,8.2,6.1,7.88.9-.42-5.81-15.46-4.91-15.91.82-.41,7.23,11.87,17.02,27.48,8.28,13.19,12.89,20.54,20.43,29.28,6.62,7.68,14.73,17.08,27.83,24.68,15,8.7,28.96,10.63,28.85,11.02-.09.32-9.49-1.48-20.51-5.32-7.49-2.61-19.06-6.72-31.91-15.57-6.82-4.7-21.51-15.9-33.19-34.89-8.44-13.73-12.96-27.71-12.3-28.04Z"/>
  <path class="cls-12" d="M605.43,690.81c.08-.18,1.84.54,5.22.93,1.34.15,3.05.34,3.19-.08.21-.65-3.52-2.28-3.39-2.57.14-.32,4.66,1.62,4.93,1.12.31-.58-5.32-4.05-5.19-4.27.17-.29,10.06,6.11,21.87,11.24,3.63,1.58,10.35,4.3,18.89,6.55,10.85,2.85,19.12,3.49,34.64,4.68,7.25.56,10.87.83,16.09.85,16.98.05,28.88-2.63,28.94-2.3.05.29-9.23,2.6-21.53,4.09-7.32.88-19.66,2.3-35.83.94-2.35-.2-13.74-1.22-28.26-4.94-10.93-2.8-18.71-5.88-22.16-7.3-10.36-4.29-17.56-8.58-17.39-8.95Z"/>
  <path class="cls-10" d="M270.26,313.79c2.07-1.94,7.81-7.34,15.32-6.89,3.67.22,7.04,2.53,13.79,7.15,3.72,2.55,7.85,5.71,12.77,10.21,5.96,5.46,13.5,12.36,12.51,13.79-1.09,1.56-13.31-2.09-21.19-11.23-3.55-4.12-3.75-6.49-7.66-8.94-6.36-3.98-13.8-2.72-15.83-2.3-9.89,2.05-14.99,9.68-16.09,8.68-.89-.81,1.98-6.33,6.38-10.47Z"/>
  <path class="cls-10" d="M236.3,394.98c.16.48,4.67-1.56,11.25-.89,3.7.38,4.75,1.27,7.65,1.91,9.84,2.16,19.58-3.4,19.4-4.08-.11-.45-4.34,1.43-11.49,1.02-7.55-.43-8.86-2.87-14.81-2.55-6.94.37-12.18,4.06-12,4.6Z"/>
  <path class="cls-10" d="M219.7,413.11c-.95-.04-2.1,4.51-2.55,8.43-.87,7.5.73,13.38,3.32,21.7,4.6,14.79,6.9,22.18,7.92,21.96,1.26-.28.23-11.08-1.53-19.66-1.42-6.9-2.21-7.02-3.83-14.55-2.38-11.08-2.17-17.82-3.32-17.87Z"/>
  <g class="cls-7">
    <path class="cls-11" d="M341.36,477.43c-.36,1.27,1.33,1.95,2.18,5.45,1.07,4.41-.8,6.9.22,7.69,1.88,1.46,7.33-7.75,17.22-9.73,5.99-1.2,7.48,1.53,15.6.2,7.02-1.15,6.86-3.23,11.72-3.86,12.54-1.61,20.67,11.36,26.81,7.83,2.97-1.71,1.59-5.06,5.36-7.92,3.96-3,8.17-1.35,14.64-1.28,14.48.17,16.55-7.84,26.64-5.96,9.96,1.85,14.4,10.85,16.77,9.19,2-1.4-.1-8.57-3.41-13.28-.93-1.33-4.73-6.56-11.4-8-3.25-.7-5.79-.21-10.89,1.11-13.53,3.48-20.29,5.22-27.06,8.43-7.45,3.53-9.24,5.51-13.79,5.28-4.48-.23-5.57-2.3-11.57-4.26-.5-.16-8.97-2.84-18.13-1.45-9.27,1.41-8.8,5.39-18.41,7.91-11.49,3.02-21.69-.17-22.49,2.64Z"/>
    <path class="cls-11" d="M469.79,508.6c1.4-.32,2.03,2.51,6.38,4.24,2.46.98,3.86.71,4.79,1.98,1.13,1.54.38,3.73-.11,5.62-1.44,5.49-1.66,12.07-.17,16.59.41,1.24,2.07,6.31,6.44,8.18,3.56,1.53,7.76.44,13.06-.94,3.57-.93,4.44-1.61,6.93-1.53,4.41.14,8.28,2.52,8.07,3.45-.16.73-2.67-.16-5.72,1.32-3.03,1.47-3.16,3.6-5.49,5.06-3,1.88-5.92.3-10.21-.13-10.84-1.08-17.27,6.49-19.71,4.02-1.88-1.91,2.54-5.8,1.93-12.91-.57-6.61-4.75-7.41-7.45-15.4-3.11-9.23-1.2-19,1.28-19.56Z"/>
    <path class="cls-11" d="M531.25,521.67c-.1.52.26,1.78.99,4.3,1.78,6.16,2.63,6.66,3.19,6.78,1.09.24,2.17-.74,2.62-1.15,1.47-1.33,1.19-2.69,2.52-4.98.61-1.05,1.48-2.17,2.23-2.77,2.44-1.96,5.96-.42,10.85.51,1.73.33,9.13,1.63,16.85-.21,2.33-.56,5.44-1.33,8.56-3.75,4.13-3.2,6.01-7.54,5.74-7.74-.3-.22-2.5,5.1-7.69,7.33-2.74,1.17-5.11.96-16.99-1.67-11.08-2.45-12.94-3.14-16.9-2.71-4.64.5-11.24,2.43-11.97,6.06Z"/>
  </g>
  <g class="cls-7">
    <path class="cls-6" d="M341.36,480.51c-.38,1.34,1.88,2.26,2.18,5.45.33,3.49-2.09,5.48-1.45,6.21,1.18,1.35,8.26-6.79,18.89-8.26,6.35-.88,7.82,1.48,15.6.2,7.02-1.15,6.86-3.23,11.72-3.86,12.54-1.61,20.67,11.36,26.81,7.83,2.97-1.71,1.59-5.06,5.36-7.92,3.96-3,8.17-1.35,14.64-1.28,14.48.17,16.55-7.84,26.64-5.96,9.96,1.85,14.4,10.85,16.77,9.19,2-1.4-.1-8.57-3.41-13.28-.93-1.33-4.73-6.56-11.4-8-3.25-.7-5.79-.21-10.89,1.11-13.53,3.48-20.29,5.22-27.06,8.43-7.45,3.53-9.24,5.51-13.79,5.28-4.48-.23-5.57-2.3-11.57-4.26-.5-.16-8.97-2.84-18.13-1.45-9.27,1.41-8.8,5.39-18.41,7.91-11.49,3.02-21.69-.17-22.49,2.64Z"/>
    <path class="cls-6" d="M472.47,509.36c.9-.07,1.16,1.18,3.92,2.72,2.91,1.63,4.23,1.15,5.28,2.3,1.59,1.74-.03,4.46-.81,9.14-1.21,7.24.56,13.1,1.28,15.5,1.64,5.44,2.52,8.34,4.98,9.28,5.04,1.93,13.69-5.52,19.53-5.73,1.9-.07,3.54.29,3.54.29,1.81.4,2.33.92,3.95,1.44,3.21,1.03,5.28.31,5.4.81.19.77-5.11,1.48-10.08,5.49-3.2,2.57-3,3.87-5.49,5.06-3.42,1.63-6.05.25-10.21-.13-10.59-.97-16.44,5.88-18.98,3.36-1.94-1.92,1.86-5.54,1.19-12.26-.72-7.25-5.64-7.96-8-15.66-3.12-10.17,1.62-21.4,4.51-21.62Z"/>
    <path class="cls-6" d="M531.26,523.85c-.24,1.14.17,2.5.99,5.2.73,2.42,1.32,4.29,2.67,4.61.75.18,1.84-.09,2.62-.47.03-.02.43-.21.81-.5,1.68-1.28,3.39-4.66,4.47-5.76,1.71-1.73,4.46-.42,10.85.51,5.67.82,11.08,1.61,16.85-.21,4.03-1.27,6.79-3.37,8-4.3,4.03-3.11,6.6-6.89,6.3-7.19-.32-.32-3.22,4.02-8.64,6.09-4.8,1.83-9.21.98-16.04-.43-10.14-2.09-11.06-4.44-16.89-3.96-4.91.41-11.2,2.65-11.98,6.4Z"/>
  </g>
</svg>