<?xml version="1.0" encoding="utf-8"?>
<!-- Generator: Adobe Illustrator 26.0.0, SVG Export Plug-In . SVG Version: 6.00 Build 0)  -->
<svg version="1.1" id="estrela" xmlns="http://www.w3.org/2000/svg" xmlns:xlink="http://www.w3.org/1999/xlink" x="0px" y="0px"
	 viewBox="0 0 434.1 364.7" style="enable-background:new 0 0 434.1 364.7;" xml:space="preserve">
<style type="text/css">
	.st0{fill:#C6601B;}
	.st1{fill:#CD8B5E;}
	.st2{fill:#1D1D1B;}
	.st3{fill:#EAA25C;}
	.st4{opacity:0.99;}
	.st5{fill:none;stroke:#7FA8AF;stroke-width:3.8;stroke-miterlimit:10;}
	.st6{fill:none;stroke:#7FA8AF;stroke-width:3.17;stroke-miterlimit:10;}
	.st7{fill:none;stroke:#7FA8AF;stroke-width:2.53;stroke-miterlimit:10;}
	.st8{fill:#0E2537;}
	.st9{fill:#325872;}
</style>
<g>
	<path class="st0" d="M212.6,0c-11.1,0.1-20.4,22.6-37.6,65.1c-10.7,26.4-14.5,40-29,49c-6.5,4-10.9,4.5-27.7,7.4
		c-51.7,9-75.2,16.2-94.7,26.3C12,153.7-0.4,160.3,0,168.3c0.1,2.1,1.3,7.6,32.1,20.7c16.9,7.2,33,12.4,53.7,18.6
		c12.6,3.7,23.2,6.5,30.6,8.4c-10.7,13-25.6,32-42.1,55.9c-29.5,42.8-50.6,73.8-41.1,86.8c6.8,9.3,26.8,5.5,36.8,3.6
		c34.1-6.6,50.5-28,85.8-54.9c13.5-10.3,34.5-25,62.8-39.8c140.9,85.3,184,96,193,85c4.5-5.5,0.8-17-3.6-30.6
		c-7.4-23-20.2-37-43.2-61.5c-24.7-26.3-42.7-45.4-51.2-54.4c101.7-25.5,121.2-41,120.4-50.6c-1.3-15.8-59.4-27.7-65.2-28.9
		c-13.8-2.8-19.3-2.5-55.8-8.4c-22.5-3.6-33.7-5.4-35.7-6.6c-21.6-12.7-17-38-43.9-86.8C220.5,1.4,215.5,0,212.6,0L212.6,0z"/>
	<path class="st1" d="M213.1,18.5c-10,0.1-18.4,20.4-33.9,58.6c-9.6,23.8-13,36.1-26.1,44.1c-5.8,3.6-10.2,4.3-24.9,6.7
		c-55.8,9-65,10.7-76.8,15.6c-3.8,1.6-35.6,14.9-34,27.1c0.3,2.3,2,5.7,33.3,18c24.5,9.6,43,15.1,48.3,16.7
		c11.4,3.4,20.9,5.9,27.6,7.6c-9.7,12-23,29.1-37.9,50.3C59,305.5,39,334.4,47.7,346.5c5.2,7.3,18.9,5.6,27.3,4.6
		c33.6-4.1,50.3-27.8,86.9-55.9c12.6-9.6,31.4-22.8,56.5-35.9c132.6,80.2,174,91.3,182.2,81.2c5.9-7.3-4-27.7-9.1-38.2
		c-9.7-20-21.8-30.1-41.4-49.4c-11.5-11.3-27.5-27.8-46.1-49c96-26.3,114.7-40.5,113.7-48.6c-1.4-11.8-45.2-19.6-64-23
		c-12.5-2.2-19.9-2.6-50.2-7.5c-20.2-3.3-30.3-4.9-32.2-6c-19.4-11.4-15.3-34.2-39.5-78.2C220.2,19.7,215.7,18.4,213.1,18.5
		L213.1,18.5z"/>
</g>
<ellipse class="st2" cx="191.6" cy="173.5" rx="7.5" ry="12.4"/>
<ellipse class="st2" cx="240.5" cy="173.5" rx="7.5" ry="12.4"/>
<ellipse transform="matrix(0.6004 -0.7997 0.7997 0.6004 -121.651 229.5828)" class="st3" cx="168.9" cy="236.5" rx="10.4" ry="21.8"/>
<ellipse transform="matrix(0.7071 -0.7071 0.7071 0.7071 -86.6037 263.9179)" class="st3" cx="275.3" cy="236.5" rx="21.9" ry="10.4"/>
<ellipse transform="matrix(0.9639 -0.2664 0.2664 0.9639 -32.9609 85.0386)" class="st3" cx="297" cy="164" rx="10.4" ry="21.9"/>
<ellipse class="st3" cx="213.4" cy="123.5" rx="21.9" ry="10.4"/>
<ellipse transform="matrix(0.2827 -0.9592 0.9592 0.2827 -65.4075 261.2395)" class="st3" cx="142" cy="174.4" rx="21.9" ry="10.4"/>
<ellipse transform="matrix(0.6004 -0.7997 0.7997 0.6004 -153.7768 215.0225)" class="st3" cx="138.3" cy="261.4" rx="9.6" ry="19.6"/>
<ellipse transform="matrix(0.6443 -0.7648 0.7648 0.6443 -172.8122 191.1652)" class="st3" cx="119.1" cy="281.3" rx="8.7" ry="18.3"/>
<ellipse transform="matrix(0.6004 -0.7997 0.7997 0.6004 -202.2414 198.4419)" class="st3" cx="97.5" cy="301.6" rx="6.3" ry="13.1"/>
<ellipse transform="matrix(0.6004 -0.7997 0.7997 0.6004 -228.7457 192.8143)" class="st3" cx="78.6" cy="325.3" rx="4.2" ry="8.9"/>
<ellipse transform="matrix(0.7071 -0.7071 0.7071 0.7071 -96.8948 288.7931)" class="st3" cx="300.2" cy="261.4" rx="18.3" ry="8.7"/>
<ellipse transform="matrix(0.7071 -0.7071 0.7071 0.7071 -103.4278 313.0298)" class="st3" cx="326.1" cy="281.4" rx="14.9" ry="8.2"/>
<ellipse transform="matrix(0.7071 -0.7071 0.7071 0.7071 -110.7146 335.8397)" class="st3" cx="350" cy="301.6" rx="12.4" ry="5.8"/>
<ellipse transform="matrix(0.7071 -0.7071 0.7071 0.7071 -115.2018 355.4501)" class="st3" cx="371.5" cy="316.8" rx="10.8" ry="4.8"/>
<ellipse transform="matrix(0.9766 -0.2149 0.2149 0.9766 -24.8068 85.756)" class="st3" cx="382" cy="157" rx="5.8" ry="12.4"/>
<ellipse transform="matrix(0.9766 -0.2149 0.2149 0.9766 -25.7358 80.7009)" class="st3" cx="358.3" cy="158.7" rx="8.2" ry="14.9"/>
<ellipse transform="matrix(0.9766 -0.2149 0.2149 0.9766 -27.2692 74.5671)" class="st3" cx="329.3" cy="162.7" rx="8.7" ry="18.3"/>
<ellipse transform="matrix(0.2827 -0.9592 0.9592 0.2827 -87.2376 224.5691)" class="st3" cx="106.5" cy="170.6" rx="18.3" ry="8.7"/>
<ellipse transform="matrix(0.3541 -0.9352 0.9352 0.3541 -108.6318 176.3702)" class="st3" cx="73.4" cy="166.8" rx="14.9" ry="8.1"/>
<ellipse transform="matrix(0.3541 -0.9352 0.9352 0.3541 -123.5701 149.0583)" class="st3" cx="46.1" cy="164" rx="12.4" ry="5.8"/>
<path class="st3" d="M231.7,96.4c0,4.8-8.2,8.7-18.3,8.7s-18.3-3.9-18.3-8.7s8.2-8.7,18.3-8.7S231.7,91.5,231.7,96.4z"/>
<ellipse class="st3" cx="213.4" cy="66.9" rx="14.9" ry="8.1"/>
<path class="st3" d="M225.8,40c0,3.2-5.5,5.8-12.4,5.8c-6.8,0-12.4-2.6-12.4-5.8c0-3.2,5.5-5.8,12.4-5.8S225.8,36.8,225.8,40z"/>
<g class="st4">
	<path class="st5" d="M199.1,3c-5.9,8.9-11.7,18.5-17.4,29c-12.6,23.1-12.2,38.8-26.8,61c-4,6-7.7,10.6-10,13.4"/>
	<path class="st5" d="M205.1-15.9c0,5.7-0.2,13.9-1.5,23.7c-0.6,4.5-3,19.9-15.3,52.1c-8.7,22.7-11.8,26.2-14.5,39.8
		c-2.4,12-2.6,22.2-2.3,29.1"/>
	<path class="st5" d="M216.6-14.5c-1.1,19.5-2.1,39.5-3.1,59.5c-9,35-9,70-10.2,106"/>
	<path class="st5" d="M226.1-7.5c1.7,17.7,1.4,31.8,0.8,41.4c-0.6,10.4-1.5,14.8-0.8,23.7c1,10.9,3.5,17.3,7.7,30.6
		c6.8,21.9,9.3,26,10,36c0.6,9.4-0.8,17.2-2,22.2"/>
	<path class="st5" d="M232.9,11c1.5,3.8,3.8,9.9,7.2,17.2c5.8,12.9,9.8,19,17.4,34.3c5.1,10.1,5.1,11.3,9.6,20.1
		c4.2,8.3,8,14.9,10.5,19.3"/>
	<path class="st5" d="M178.7,13.6c10.4,8.6,24.5,8,36.3,13.1c6.6,2.9,11.7,7.7,17,12.5c5.4,5,11.2,9.4,17.8,12.7
		c7.8,4,16.2,6.6,24.9,8.2"/>
	<path class="st5" d="M149.4,67.5c5.1,6.6,12.1,12.6,20.1,13.6c18,3,32,12,45,24c13,11,30,17,46.6,17.4"/>
	<path class="st5" d="M162,57.6c2.4,2.4,3.4,4.4,5.4,5.4c12,7,25,5,37,12c6,4,12,9,17,14c14,12,31,17,48.8,19.5"/>
	<path class="st5" d="M164.4,37.7c4.5,4.9,10.1,8.8,16.5,10.8c8.2,2.5,16.3,2.5,24.2,6.3c7.9,3.8,13.6,9.9,20.1,15.5
		c5.4,4.6,11.4,8.5,17.9,11.4c9.6,4.3,19.9,6.7,30.4,7.8"/>
	<path class="st5" d="M177,27.9c11.5,7.1,25.5,9.1,38.5,13.1c3,1,6,4,9,6c13,14,30,24,48,27"/>
	<path class="st5" d="M148.6,81.9c10.7,11.5,27,12.4,40.8,18c7.6,3.1,14.1,8.4,20,14c6.4,6.1,13,10.9,21.2,14.3
		c8.9,3.6,18.5,5.4,28.1,6.2"/>
	<path class="st6" d="M186.1,4.2c2.4,1.9,4.4,4.9,7.4,5.9c9,3,19,2,28,7c6,4,12,8,17,14c10,9,23,11,34.9,12.8"/>
	<path class="st7" d="M193.1-2.6c2.3,3.5,7.3,5.8,11,7.4c5.2,2.2,11,2.4,16.4,3.8C230.4,11,237,20.9,246,25.2
		c5.3,2.6,11.1,4,16.9,4.9"/>
</g>
<g>
	<path class="st8" d="M42.9,315.2c6.7-1.7,11.3,5.5,18.6,2.8c8.3-3.1,7.3-14.6,13.8-16.1c7.4-1.7,11.9,11.7,23.7,16.1
		c10.8,4,15.9-8.2,36.8-10c4.7-0.4,14.4-1.2,16,2.5c0.8,1.9,0,6.1-20.1,21.3c-24.8,18.8-41,30.7-66,35.1c-13.6,2.4-25.8,4.5-33-2.7
		C20.1,351.6,30.2,318.5,42.9,315.2L42.9,315.2z"/>
	<path class="st9" d="M33.4,353.8c-0.3,3.1,5.8,7.2,12,8.2c7.2,1.1,11.1-2.8,21.5-6.4c9.9-3.5,11.2-1.7,21.2-4.3
		c19.2-5.1,32.7-16.7,32.2-17.6c-0.4-0.7-8.7,5.4-23.5,8.7c-7.3,1.6-14.6,1.9-29.1,2.5c-5.8,0.2-13.7,0.5-23.7,3.3
		C34.1,350.9,33.5,353,33.4,353.8L33.4,353.8z"/>
</g>
</svg>
