<?xml version="1.0" encoding="utf-8"?>
<!-- Generator: Adobe Illustrator 26.0.0, SVG Export Plug-In . SVG Version: 6.00 Build 0)  -->
<svg version="1.1" id="estrela" xmlns="http://www.w3.org/2000/svg" xmlns:xlink="http://www.w3.org/1999/xlink" x="0px" y="0px"
	 viewBox="0 0 434.1 408.4" style="enable-background:new 0 0 434.1 408.4;" xml:space="preserve">
<style type="text/css">
	.st0{fill:#EAA25C;}
	.st1{fill:#C6601B;}
	.st2{fill:#A57758;}
	.st3{fill:#1D1D1B;}
	.st4{opacity:0.99;}
	.st5{fill:none;stroke:#7FA8AF;stroke-width:3.8;stroke-miterlimit:10;}
	.st6{fill:none;stroke:#7FA8AF;stroke-width:3.17;stroke-miterlimit:10;}
	.st7{fill:none;stroke:#7FA8AF;stroke-width:2.53;stroke-miterlimit:10;}
	.st8{fill:none;stroke:#7FA8AF;stroke-width:3.08;stroke-miterlimit:10;}
	.st9{fill:none;stroke:#7FA8AF;stroke-width:2.57;stroke-miterlimit:10;}
	.st10{fill:none;stroke:#7FA8AF;stroke-width:2.06;stroke-miterlimit:10;}
	.st11{fill:#0E2537;}
	.st12{fill:#325872;}
</style>
<ellipse transform="matrix(0.9766 -0.2149 0.2149 0.9766 -29.5669 86.2731)" class="st0" cx="382" cy="179.1" rx="5.8" ry="12.4"/>
<g>
	<g>
		<path class="st1" d="M212.6,22.2c-11.1,0.1-20.4,22.6-37.6,65.1c-10.7,26.4-14.5,40-29,49c-6.5,4-10.9,4.5-27.7,7.4
			c-51.7,9-75.2,16.2-94.7,26.3C12,175.9-0.4,182.4,0,190.4c0.1,2.1,1.3,7.6,32.1,20.7c16.9,7.2,33,12.4,53.7,18.6
			c12.6,3.7,23.2,6.5,30.6,8.4c-10.7,13-25.6,32-42.1,55.9c-29.5,42.8-50.6,73.8-41.1,86.8c6.8,9.3,26.8,5.5,36.8,3.6
			c34.1-6.6,50.5-28,85.8-54.9c13.5-10.3,34.5-25,62.8-39.8c140.9,85.3,184,96,193,85c4.5-5.5,0.8-17-3.6-30.6
			c-7.4-23-20.2-37-43.2-61.5c-24.7-26.3-42.7-45.4-51.2-54.4c101.7-25.5,121.2-41,120.4-50.6c-1.3-15.8-59.4-27.7-65.2-28.9
			c-13.8-2.8-19.3-2.5-55.8-8.4c-22.5-3.6-33.7-5.4-35.7-6.6c-21.6-12.7-17-38-43.9-86.8C220.5,23.6,215.5,22.1,212.6,22.2
			L212.6,22.2z"/>
		<path class="st2" d="M213.1,40.6c-10,0.1-18.4,20.4-33.9,58.6c-9.6,23.8-13,36.1-26.1,44.1c-5.8,3.6-10.2,4.3-24.9,6.7
			c-55.8,9-65,10.7-76.8,15.6c-3.8,1.6-35.6,14.9-34,27.1c0.3,2.3,2,5.7,33.3,18c24.5,9.6,43,15.1,48.3,16.7
			c11.4,3.4,20.9,5.9,27.6,7.6c-9.7,12-23,29.1-37.9,50.3C59,327.6,39,356.6,47.7,368.6c5.2,7.3,18.9,5.6,27.4,4.6
			c33.6-4.1,50.3-27.8,86.9-55.9c12.6-9.6,31.4-22.8,56.5-35.9c132.6,80.2,174,91.3,182.1,81.2c5.9-7.3-4-27.7-9.1-38.2
			c-9.7-20-21.8-30.1-41.4-49.4c-11.5-11.3-27.5-27.8-46.1-49c96-26.3,114.7-40.5,113.7-48.6c-1.4-11.8-45.2-19.6-64-23
			c-12.5-2.2-19.9-2.6-50.2-7.5c-20.2-3.3-30.3-4.9-32.2-6c-19.4-11.4-15.3-34.2-39.5-78.2C220.2,41.9,215.7,40.6,213.1,40.6
			L213.1,40.6z"/>
	</g>
	<ellipse class="st3" cx="191.6" cy="195.7" rx="7.5" ry="12.4"/>
	<ellipse class="st3" cx="240.5" cy="195.7" rx="7.5" ry="12.4"/>
	
		<ellipse transform="matrix(0.6004 -0.7997 0.7997 0.6004 -139.3606 238.431)" class="st0" cx="168.9" cy="258.7" rx="10.4" ry="21.8"/>
	
		<ellipse transform="matrix(0.7071 -0.7071 0.7071 0.7071 -102.2531 270.4144)" class="st0" cx="275.3" cy="258.6" rx="21.8" ry="10.4"/>
	<path class="st0" d="M291.2,165.1c5.5-1.5,12.7,6.6,15.9,18.3s1.3,22.3-4.2,23.8c-5.5,1.5-12.7-6.6-15.9-18.3
		S285.6,166.6,291.2,165.1z"/>
	<ellipse class="st0" cx="213.4" cy="145.7" rx="21.9" ry="10.4"/>
	
		<ellipse transform="matrix(0.2827 -0.9592 0.9592 0.2827 -86.6314 277.1227)" class="st0" cx="142" cy="196.5" rx="21.9" ry="10.4"/>
	
		<ellipse transform="matrix(0.6004 -0.7997 0.7997 0.6004 -171.4824 223.8788)" class="st0" cx="138.3" cy="283.5" rx="9.6" ry="19.6"/>
	
		<ellipse transform="matrix(0.6443 -0.7648 0.7648 0.6443 -189.7465 199.0516)" class="st0" cx="119.1" cy="303.5" rx="8.7" ry="18.3"/>
	
		<ellipse transform="matrix(0.6004 -0.7997 0.7997 0.6004 -219.9589 207.2941)" class="st0" cx="97.5" cy="323.8" rx="6.3" ry="13.1"/>
	
		<ellipse transform="matrix(0.6004 -0.7997 0.7997 0.6004 -246.4505 201.6761)" class="st0" cx="78.6" cy="347.5" rx="4.2" ry="8.9"/>
	
		<ellipse transform="matrix(0.7071 -0.7071 0.7071 0.7071 -112.5542 295.2795)" class="st0" cx="300.2" cy="283.5" rx="18.3" ry="8.7"/>
	
		<ellipse transform="matrix(0.7071 -0.7071 0.7071 0.7071 -119.0802 319.5192)" class="st0" cx="326.2" cy="303.5" rx="14.9" ry="8.2"/>
	
		<ellipse transform="matrix(0.7071 -0.7071 0.7071 0.7071 -126.3811 342.329)" class="st0" cx="350" cy="323.7" rx="12.4" ry="5.8"/>
	
		<ellipse transform="matrix(0.7071 -0.7071 0.7071 0.7071 -130.8541 361.9395)" class="st0" cx="371.5" cy="338.9" rx="10.8" ry="4.8"/>
	
		<ellipse transform="matrix(0.9766 -0.2149 0.2149 0.9766 -30.4937 81.2177)" class="st0" cx="358.3" cy="180.8" rx="8.2" ry="14.9"/>
	
		<ellipse transform="matrix(0.9766 -0.2149 0.2149 0.9766 -32.0293 75.0841)" class="st0" cx="329.3" cy="184.8" rx="8.7" ry="18.3"/>
	
		<ellipse transform="matrix(0.2827 -0.9592 0.9592 0.2827 -108.4824 240.4637)" class="st0" cx="106.5" cy="192.8" rx="18.3" ry="8.7"/>
	
		<ellipse transform="matrix(0.3541 -0.9352 0.9352 0.3541 -129.3486 190.6734)" class="st0" cx="73.4" cy="189" rx="14.9" ry="8.1"/>
	
		<ellipse transform="matrix(0.3541 -0.9352 0.9352 0.3541 -144.2804 163.3708)" class="st0" cx="46.1" cy="186.1" rx="12.4" ry="5.8"/>
	<path class="st0" d="M231.7,118.5c0,4.8-8.2,8.7-18.3,8.7s-18.3-3.9-18.3-8.7s8.2-8.7,18.3-8.7S231.7,113.7,231.7,118.5z"/>
	<ellipse class="st0" cx="213.4" cy="89" rx="14.9" ry="8.1"/>
	<path class="st0" d="M225.8,62.1c0,3.2-5.5,5.7-12.4,5.7c-6.8,0-12.4-2.6-12.4-5.7c0-3.2,5.5-5.8,12.4-5.8S225.8,58.9,225.8,62.1z"
		/>
	<g class="st4">
		<path class="st5" d="M197.2,18.9c-5.9,8.9-11.7,18.5-17.4,29c-12.6,23.1-12.2,38.8-26.8,61c-4,6-7.7,10.6-10,13.4"/>
		<path class="st5" d="M203.2,0c0,5.7-0.2,13.9-1.5,23.7c-0.6,4.5-3,19.9-15.3,52.1c-8.7,22.7-11.8,26.2-14.5,39.8
			c-2.4,12-2.6,22.3-2.3,29.1"/>
		<path class="st5" d="M214.7,1.5C213.6,21,212.6,41,211.6,61c-9,35-9,70-10.2,106"/>
		<path class="st5" d="M224.2,8.4c1.7,17.7,1.4,31.8,0.8,41.4c-0.6,10.4-1.5,14.8-0.8,23.7c1,10.9,3.5,17.3,7.7,30.6
			c6.8,21.9,9.3,26,10,36c0.6,9.4-0.8,17.2-2,22.2"/>
		<path class="st5" d="M231,26.9c1.5,3.8,3.8,9.9,7.2,17.2c5.8,12.9,9.8,19,17.4,34.3c5.1,10.1,5.1,11.3,9.6,20.1
			c4.2,8.3,8,14.9,10.5,19.3"/>
		<path class="st5" d="M176.8,29.5c10.4,8.6,24.5,8,36.3,13.1c6.6,2.9,11.7,7.7,17,12.5c5.4,5,11.2,9.4,17.8,12.7
			c7.8,4,16.2,6.6,24.9,8.2"/>
		<path class="st5" d="M147.4,83.4C152.6,90,159.6,96,167.6,97c18,3,32,12,45,24c13,11,30,17,46.6,17.4"/>
		<path class="st5" d="M160.1,73.6c2.4,2.4,3.4,4.4,5.4,5.4c12,7,25,5,37,12c6,4,12,9,17,14c14,12,31,17,48.8,19.5"/>
		<path class="st5" d="M162.5,53.6c4.5,4.9,10.1,8.8,16.5,10.8c8.2,2.5,16.3,2.5,24.2,6.3c7.9,3.8,13.6,9.9,20.1,15.5
			c5.4,4.6,11.4,8.5,17.9,11.4c9.6,4.3,19.9,6.7,30.4,7.8"/>
		<path class="st5" d="M175.1,43.9C186.6,51,200.6,53,213.6,57c3,1,6,4,9,6c13,14,30,24,48,27"/>
		<path class="st5" d="M146.7,97.9c10.7,11.5,27,12.4,40.8,18c7.6,3.1,14.1,8.4,20,14c6.4,6.1,13,10.9,21.2,14.3
			c8.9,3.6,18.5,5.4,28.1,6.2"/>
		<path class="st6" d="M184.2,20.1c2.4,1.9,4.4,4.9,7.4,5.9c9,3,19,2,28,7c6,4,12,8,17,14c10,9,23,11,34.9,12.8"/>
		<path class="st7" d="M191.2,13.4c2.3,3.5,7.3,5.8,11,7.4c5.2,2.2,11,2.4,16.4,3.8c9.8,2.5,16.4,12.3,25.4,16.6
			c5.3,2.6,11.1,4,16.9,4.9"/>
	</g>
	<g class="st4">
		<path class="st8" d="M419.6,364.5c-1.7-8.4-3.9-17.4-6.6-26.7c-6-20.5-15.2-29.3-19.6-50.4c-1.2-5.7-1.7-10.5-1.9-13.4"/>
		<path class="st8" d="M427,378.8c-3.3-3.2-7.9-8.1-12.7-14.5c-2.2-2.9-9.7-13.1-21-38.7c-8-18-8.2-21.8-14.5-31.2
			c-5.5-8.3-11.3-14.2-15.3-18"/>
		<path class="st8" d="M419.6,384.6c-10.5-11.8-21.4-23.9-32.3-36c-14.9-25.3-34.9-45.3-54.8-66.7"/>
		<path class="st8" d="M410.2,386c-11.1-9.2-19-17.5-24.1-23.3c-5.6-6.3-7.6-9.4-13.2-14.1c-6.8-5.7-11.9-7.9-21.9-13.2
			c-16.5-8.7-20.2-9.6-26.3-15c-5.8-5-9.4-10.3-11.6-13.9"/>
		<path class="st8" d="M395.7,379.3c-3-1.4-7.9-3.5-14-5.8c-10.7-4-16.5-5.3-29.6-9.7c-8.7-2.9-9.4-3.5-17.1-6
			c-7.2-2.3-13.1-4-17.1-5"/>
		<path class="st8" d="M425.3,346.7c-10.8,1-18.6,9.5-28.3,13.3c-5.4,2.1-11.2,2.3-16.9,2.5s-11.8,1.1-17.5,2.9
			c-6.8,2.2-13.1,5.5-18.9,9.6"/>
		<path class="st8" d="M411.2,298.9c-6.7-0.8-14.1-0.3-19.3,3.8c-12,8.6-25.2,11.5-39.5,12.1c-13.7,1.2-26.9,7.5-36.7,16.8"/>
		<path class="st8" d="M409.6,311.9c-2.8,0-4.5-0.6-6.2,0c-10.9,2.9-17.2,11.5-28.1,14.3c-5.7,1.2-12,1.7-17.8,1.7
			c-14.9,1.2-27.5,8-39.1,16.8"/>
		<path class="st8" d="M419.6,324.7c-5.3-0.2-10.8,0.7-15.6,3.2c-6.1,3.2-10.8,7.9-17.5,10.3c-6.7,2.4-13.5,2.1-20.4,2.6
			c-5.8,0.4-11.4,1.7-16.8,3.7c-8,3-15.3,7.6-21.8,13"/>
		<path class="st8" d="M418,337.5c-10.7,2.5-19.8,9.4-29.6,14.6c-2.3,1.2-5.7,1.2-8.6,1.7c-15.5-0.6-30.9,3.4-42.9,12"/>
		<path class="st8" d="M403.3,290.2c-12.7-0.4-22.6,8.4-33.7,13c-6.2,2.6-12.9,3.3-19.5,3.4c-7.1,0.2-13.7,1.2-20.3,4
			c-7.2,3-13.7,7.5-19.6,12.5"/>
		<path class="st9" d="M426.4,356.4c-2.4,0.3-5.3-0.3-7.6,0.8c-6.9,3.4-12,9.8-20,12.1c-5.7,1.2-11.5,2.3-17.8,1.7
			c-10.9,0.6-19.5,6.9-27.3,12.7"/>
		<path class="st10" d="M426.2,364.3c-3.3-0.7-7.5,0.8-10.5,2.1c-4.2,1.8-7.7,4.9-11.6,7.3c-7,4.2-16.4,2.3-24.1,5
			c-4.5,1.6-8.7,4-12.5,6.9"/>
	</g>
	<g>
		<path class="st11" d="M277.6,131.6c3.5-3.9,13.4,3.6,31.3,7.2c19.8,4,30.9-0.5,33.5,5c2.5,5.3-5.6,14.1-9.7,18.6
			c-14.8,16.1-26.8,13.5-32.9,25.5c-3.8,7.5,0.5,9.2-2,27.1c-0.3,2-4.5,31-13,31.7c-6.4,0.5-9.3-15.3-16.9-15.3
			c-5.4,0-10,8.2-14.8,20.4c-13.4,33.8-13.5,59.9-18.4,60.3c-4.8,0.3-6.2-24.8-17.4-26.9c-8.6-1.6-17.9,11.6-18.9,13.1
			c-11.4,16.5-6.8,35.2-11.7,36.3c-5.4,1.2-11-21-19.9-20.8c-6.2,0.1-7.4,10.8-15.7,23.4c-17.5,26.3-39.3,20.6-52.7,45.4
			c-7.1,13.1-7,25.9-11.4,25.9c-4.3,0-3.4-12.3-12.6-19.8c-13.6-11.1-32.5,2-41.1-7.8c-6.6-7.5-3.3-24.2,3.1-26.5
			c5.6-2.1,9.7,8.5,22,13.9c19.7,8.6,45.9-2.5,60.9-15.8c14.9-13.1,8.5-19.2,24-37.8c22.4-26.8,40.4-19.7,54.6-43.4
			c11.2-18.7,3.5-28.9,16.3-40.3c13.7-12.2,26.8-4.4,36.8-17.4c8.9-11.6,9.6-32.3,9.7-35.7c0.2-7.7-0.9-12.8,2.8-17.9
			c4.7-6.4,11.3-5.1,14.3-11.2C281.3,141.6,274.6,135.1,277.6,131.6L277.6,131.6z"/>
		<path class="st12" d="M286,143.3c5.7-3.9,15.2-2.1,16.1,1c0.9,3.4-9.2,6.4-18.1,14.3c-21.4,19.1-19.3,52.1-20.9,51.8
			c-1.2-0.2-2-16.9,4.3-34.2c4.8-13.1,8.2-11.4,13.8-26C281.8,148.5,282.9,145.4,286,143.3L286,143.3z"/>
		<path class="st12" d="M209.4,284.5c0.5,0.9,7.8-5.2,13.8-2.8c7.9,3.1,7.7,18.2,10.2,18.1c1.8-0.1,2.3-7.5,4.1-16.4
			c3.9-18.5,10.1-27.5,8.1-28.8c-1.8-1.2-6.7,6.1-20.4,17.1C217,278.3,208.8,283.6,209.4,284.5L209.4,284.5z"/>
		<path class="st12" d="M37,362.1c-1.5,0-4.6,7.9-1.5,13c4.7,8,21.4,4.7,21.5,3.8c0-0.6-9.5,0.6-15.1-5.6
			C37.5,368.5,38.4,362.1,37,362.1L37,362.1z"/>
		<path class="st12" d="M141.5,322.6c6.1-8.6,14.5-16.1,15.8-15.1c1.1,0.9-3.4,8.5-6.9,13.3c-5.8,8-13.8,15-15.1,14
			C134.2,333.9,138.6,326.7,141.5,322.6L141.5,322.6z"/>
	</g>
</g>
</svg>
