<?xml version="1.0" encoding="UTF-8"?>
<svg id="estrela" xmlns="http://www.w3.org/2000/svg" viewBox="0 0 841.89 1190.55">
  <defs>
    <style>
      .cls-1 {
        fill: #1d1d1b;
      }

      .cls-2 {
        fill: #325872;
      }

      .cls-3 {
        stroke-width: 3.17px;
      }

      .cls-3, .cls-4, .cls-5 {
        fill: none;
        stroke: #7fa8af;
        stroke-miterlimit: 10;
      }

      .cls-6 {
        fill: #cd8b5e;
      }

      .cls-4 {
        stroke-width: 3.8px;
      }

      .cls-7 {
        fill: #0e2537;
      }

      .cls-5 {
        stroke-width: 2.53px;
      }

      .cls-8 {
        opacity: .99;
      }

      .cls-9 {
        fill: #eaa25c;
      }

      .cls-10 {
        fill: #c6601b;
      }
    </style>
  </defs>
  <g>
    <path class="cls-10" d="M395.31,316.96c-11.06.15-20.4,22.62-37.64,65.1-10.72,26.43-14.49,40.05-29,49.03-6.53,4.04-10.93,4.49-27.68,7.41-51.73,9.03-75.17,16.22-94.73,26.28-11.47,5.9-23.92,12.47-23.49,20.43.11,2.11,1.31,7.6,32.12,20.74,16.9,7.21,32.98,12.44,53.67,18.58,12.61,3.74,23.19,6.54,30.64,8.43-10.71,13.03-25.63,32-42.13,55.91-29.5,42.77-50.57,73.85-41.11,86.81,6.83,9.35,26.81,5.5,36.77,3.57,34.1-6.58,50.54-27.97,85.79-54.89,13.52-10.33,34.45-25.01,62.81-39.83,140.86,85.34,184.05,96.05,193.02,85.02,4.49-5.52.81-16.97-3.57-30.64-7.39-23.02-20.16-36.97-43.15-61.53-24.65-26.33-42.72-45.42-51.22-54.38,101.66-25.47,121.17-41.05,120.41-50.56-1.27-15.77-59.38-27.73-65.22-28.93-13.78-2.84-19.31-2.46-55.81-8.35-22.46-3.62-33.7-5.43-35.74-6.64-21.56-12.67-17.01-38.02-43.91-86.81-12.88-23.35-17.93-24.8-20.83-24.76Z"/>
    <path class="cls-6" d="M395.81,335.42c-9.96.14-18.37,20.37-33.88,58.61-9.65,23.8-13.05,36.06-26.11,44.14-5.82,3.6-10.21,4.3-24.92,6.67-55.83,9.02-64.97,10.68-76.78,15.62-3.79,1.59-35.61,14.9-34.02,27.13.3,2.32,1.96,5.72,33.29,17.98,24.52,9.6,42.98,15.14,48.32,16.73,11.35,3.37,20.87,5.89,27.58,7.59-9.67,11.97-22.99,29.07-37.93,50.34-29.64,42.19-49.63,71.15-40.92,83.21,5.25,7.28,18.94,5.62,27.35,4.6,33.58-4.07,50.31-27.78,86.89-55.86,12.56-9.64,31.36-22.79,56.55-35.86,132.63,80.19,173.97,91.35,182.15,81.15,5.9-7.35-3.96-27.66-9.06-38.16-9.69-19.96-21.78-30.1-41.38-49.42-11.51-11.35-27.55-27.78-46.11-48.96,96.03-26.26,114.66-40.45,113.69-48.57-1.42-11.78-45.16-19.62-64-22.99-12.52-2.24-19.87-2.62-50.24-7.51-20.23-3.26-30.34-4.89-32.18-5.98-19.41-11.41-15.31-34.23-39.54-78.16-11.6-21.03-16.14-22.33-18.76-22.29Z"/>
  </g>
  <ellipse class="cls-1" cx="374.34" cy="490.47" rx="7.53" ry="12.38"/>
  <ellipse class="cls-1" cx="423.22" cy="490.47" rx="7.53" ry="12.38"/>
  <ellipse class="cls-9" cx="351.67" cy="553.44" rx="10.43" ry="21.85" transform="translate(-302.06 502.4) rotate(-53.1)"/>
  <ellipse class="cls-9" cx="458.04" cy="553.44" rx="21.85" ry="10.43" transform="translate(-257.19 485.99) rotate(-45)"/>
  <ellipse class="cls-9" cx="479.73" cy="480.95" rx="10.43" ry="21.85" transform="translate(-110.79 145.19) rotate(-15.45)"/>
  <ellipse class="cls-9" cx="396.14" cy="440.48" rx="21.85" ry="10.43"/>
  <ellipse class="cls-9" cx="324.71" cy="491.26" rx="21.85" ry="10.43" transform="translate(-238.29 663.9) rotate(-73.58)"/>
  <ellipse class="cls-9" cx="321.04" cy="578.31" rx="9.64" ry="19.6" transform="translate(-334.19 487.84) rotate(-53.1)"/>
  <ellipse class="cls-9" cx="301.84" cy="598.31" rx="8.72" ry="18.26" transform="translate(-350.21 443.68) rotate(-49.89)"/>
  <ellipse class="cls-9" cx="280.22" cy="618.52" rx="6.27" ry="13.13" transform="translate(-382.66 471.26) rotate(-53.1)"/>
  <ellipse class="cls-9" cx="261.34" cy="642.22" rx="4.25" ry="8.89" transform="translate(-409.16 465.64) rotate(-53.1)"/>
  <ellipse class="cls-9" cx="482.91" cy="578.31" rx="18.31" ry="8.74" transform="translate(-267.48 510.85) rotate(-45)"/>
  <ellipse class="cls-9" cx="508.9" cy="598.31" rx="14.9" ry="8.15" transform="translate(-274.01 535.09) rotate(-45)"/>
  <ellipse class="cls-9" cx="532.8" cy="618.52" rx="12.39" ry="5.75" transform="translate(-281.31 557.9) rotate(-45)"/>
  <ellipse class="cls-9" cx="554.23" cy="633.73" rx="10.79" ry="4.8" transform="translate(-285.79 577.52) rotate(-45)"/>
  <ellipse class="cls-9" cx="564.75" cy="473.88" rx="5.75" ry="12.39" transform="translate(-88.66 132.47) rotate(-12.41)"/>
  <ellipse class="cls-9" cx="541.04" cy="475.62" rx="8.15" ry="14.9" transform="translate(-89.59 127.42) rotate(-12.41)"/>
  <ellipse class="cls-9" cx="512.06" cy="479.61" rx="8.74" ry="18.31" transform="translate(-91.12 121.28) rotate(-12.41)"/>
  <ellipse class="cls-9" cx="289.28" cy="487.53" rx="18.31" ry="8.74" transform="translate(-260.13 627.23) rotate(-73.58)"/>
  <ellipse class="cls-9" cx="256.13" cy="483.79" rx="14.9" ry="8.15" transform="translate(-287.01 551.99) rotate(-69.26)"/>
  <ellipse class="cls-9" cx="228.89" cy="480.95" rx="12.39" ry="5.75" transform="translate(-301.95 524.68) rotate(-69.26)"/>
  <path class="cls-9" d="M414.44,413.3c0,4.83-8.2,8.74-18.31,8.74-10.11,0-18.31-3.91-18.31-8.74s8.2-8.74,18.31-8.74c10.11,0,18.31,3.91,18.31,8.74Z"/>
  <ellipse class="cls-9" cx="396.14" cy="383.8" rx="14.9" ry="8.15"/>
  <path class="cls-9" d="M408.52,356.9c0,3.18-5.55,5.75-12.39,5.75-6.84,0-12.39-2.58-12.39-5.75,0-3.18,5.55-5.75,12.39-5.75s12.39,2.58,12.39,5.75Z"/>
  <g class="cls-8">
    <path class="cls-4" d="M381.87,319.92c-5.85,8.86-11.72,18.52-17.43,29.02-12.56,23.09-12.24,38.82-26.82,60.97-3.97,6.03-7.66,10.61-9.99,13.37"/>
    <path class="cls-4" d="M387.83,301.02c.05,5.66-.17,13.91-1.53,23.74-.62,4.48-2.95,19.88-15.32,52.09-8.71,22.7-11.83,26.18-14.55,39.83-2.4,12.02-2.56,22.25-2.3,29.11"/>
    <path class="cls-4" d="M399.35,302.47c-1.11,19.53-2.11,39.53-3.11,59.53-9,35-9,70-10.22,106"/>
    <path class="cls-4" d="M408.83,309.45c1.66,17.67,1.35,31.76.77,41.36-.63,10.36-1.55,14.82-.77,23.74.96,10.93,3.49,17.29,7.66,30.64,6.84,21.94,9.28,25.95,9.96,36,.64,9.41-.75,17.2-1.98,22.21"/>
    <path class="cls-4" d="M415.69,327.95c1.45,3.82,3.84,9.89,7.17,17.22,5.83,12.86,9.75,19.03,17.39,34.26,5.06,10.09,5.1,11.26,9.64,20.14,4.24,8.28,8,14.92,10.55,19.29"/>
    <path class="cls-4" d="M361.43,330.53c10.35,8.6,24.48,7.97,36.34,13.14,6.59,2.87,11.74,7.73,16.97,12.53,5.43,4.99,11.21,9.36,17.79,12.74,7.8,4,16.25,6.63,24.86,8.19"/>
    <path class="cls-4" d="M332.12,384.42c5.11,6.58,12.11,12.58,20.11,13.58,18,3,32,12,45,24,13,11,30,17,46.64,17.41"/>
    <path class="cls-4" d="M344.8,374.57c2.43,2.43,3.43,4.43,5.43,5.43,12,7,25,5,37,12,6,4,12,9,17,14,14,12,31,17,48.81,19.52"/>
    <path class="cls-4" d="M347.19,354.62c4.48,4.86,10.1,8.83,16.45,10.79,8.16,2.52,16.34,2.52,24.24,6.3,7.88,3.77,13.57,9.93,20.09,15.53,5.41,4.65,11.43,8.48,17.93,11.42,9.57,4.33,19.93,6.71,30.36,7.78"/>
    <path class="cls-4" d="M359.73,344.88c11.51,7.12,25.51,9.12,38.51,13.12,3,1,6,4,9,6,13,14,30,24,47.99,27"/>
    <path class="cls-4" d="M331.33,398.89c10.7,11.47,27.04,12.38,40.75,18.04,7.6,3.14,14.06,8.39,19.99,14,6.41,6.07,12.99,10.93,21.23,14.28,8.93,3.62,18.5,5.38,28.06,6.23"/>
    <path class="cls-3" d="M368.86,321.1c2.37,1.9,4.37,4.9,7.37,5.9,9,3,19,2,28,7,6,4,12,8,17,14,10,9,23,11,34.94,12.77"/>
    <path class="cls-5" d="M375.86,314.38c2.3,3.47,7.28,5.81,11.03,7.37,5.23,2.16,10.99,2.39,16.43,3.75,9.82,2.47,16.39,12.3,25.43,16.64,5.32,2.56,11.07,4.04,16.89,4.94"/>
  </g>
  <g>
    <path class="cls-7" d="M225.64,632.19c6.67-1.7,11.31,5.5,18.57,2.79,8.34-3.11,7.28-14.61,13.79-16.09,7.39-1.67,11.94,11.73,23.74,16.09,10.77,3.97,15.88-8.23,36.77-9.96,4.69-.39,14.42-1.19,15.98,2.46.79,1.87-.02,6.12-20.06,21.28-24.78,18.75-40.95,30.7-66.04,35.06-13.55,2.36-25.79,4.49-33.02-2.72-12.56-12.53-2.45-45.68,10.28-48.92Z"/>
    <path class="cls-2" d="M216.13,670.72c-.33,3.11,5.84,7.25,12,8.17,7.21,1.08,11.05-2.75,21.45-6.38,9.9-3.46,11.24-1.68,21.19-4.34,19.22-5.13,32.67-16.7,32.17-17.62-.39-.71-8.7,5.4-23.49,8.68-7.29,1.61-14.56,1.93-29.11,2.55-5.78.25-13.68.46-23.74,3.32-9.77,2.77-10.39,4.86-10.47,5.62Z"/>
  </g>
</svg>