<?xml version="1.0" encoding="UTF-8"?>
<svg id="estrela" xmlns="http://www.w3.org/2000/svg" viewBox="0 0 841.89 1190.55">
  <defs>
    <style>
      .cls-1 {
        fill: #1d1d1b;
      }

      .cls-2 {
        fill: #325872;
      }

      .cls-3 {
        stroke-width: 3.17px;
      }

      .cls-3, .cls-4, .cls-5, .cls-6, .cls-7, .cls-8 {
        fill: none;
        stroke: #7fa8af;
        stroke-miterlimit: 10;
      }

      .cls-9 {
        fill: #a57758;
      }

      .cls-4 {
        stroke-width: 3.08px;
      }

      .cls-5 {
        stroke-width: 3.8px;
      }

      .cls-10 {
        fill: #0e2537;
      }

      .cls-6 {
        stroke-width: 2.53px;
      }

      .cls-7 {
        stroke-width: 2.57px;
      }

      .cls-11 {
        opacity: .99;
      }

      .cls-12 {
        fill: #eaa25c;
      }

      .cls-8 {
        stroke-width: 2.06px;
      }

      .cls-13 {
        fill: #c6601b;
      }
    </style>
  </defs>
  <g>
    <path class="cls-13" d="M450.62,316.96c-11.06.15-20.4,22.62-37.64,65.1-10.72,26.43-14.49,40.05-29,49.03-6.53,4.04-10.93,4.49-27.68,7.41-51.73,9.03-75.17,16.22-94.73,26.28-11.47,5.9-23.92,12.47-23.49,20.43.11,2.11,1.31,7.6,32.12,20.74,16.9,7.21,32.98,12.44,53.67,18.58,12.61,3.74,23.19,6.54,30.64,8.43-10.71,13.03-25.63,32-42.13,55.91-29.5,42.77-50.57,73.85-41.11,86.81,6.83,9.35,26.81,5.5,36.77,3.57,34.1-6.58,50.54-27.97,85.79-54.89,13.52-10.33,34.45-25.01,62.81-39.83,140.86,85.34,184.05,96.05,193.02,85.02,4.49-5.52.81-16.97-3.57-30.64-7.39-23.02-20.16-36.97-43.15-61.53-24.65-26.33-42.72-45.42-51.22-54.38,101.66-25.47,121.17-41.05,120.41-50.56-1.27-15.77-59.38-27.73-65.22-28.93-13.78-2.84-19.31-2.46-55.81-8.35-22.46-3.62-33.7-5.43-35.74-6.64-21.56-12.67-17.01-38.02-43.91-86.81-12.88-23.35-17.93-24.8-20.83-24.76Z"/>
    <path class="cls-9" d="M451.12,335.42c-9.96.14-18.37,20.37-33.88,58.61-9.65,23.8-13.05,36.06-26.11,44.14-5.82,3.6-10.21,4.3-24.92,6.67-55.83,9.02-64.97,10.68-76.78,15.62-3.79,1.59-35.61,14.9-34.02,27.13.3,2.32,1.96,5.72,33.29,17.98,24.52,9.6,42.98,15.14,48.32,16.73,11.35,3.37,20.87,5.89,27.58,7.59-9.67,11.97-22.99,29.07-37.93,50.34-29.64,42.19-49.63,71.15-40.92,83.21,5.25,7.28,18.94,5.62,27.35,4.6,33.58-4.07,50.31-27.78,86.89-55.86,12.56-9.64,31.36-22.79,56.55-35.86,132.63,80.19,173.97,91.35,182.15,81.15,5.9-7.35-3.96-27.66-9.06-38.16-9.69-19.96-21.78-30.1-41.38-49.42-11.51-11.35-27.55-27.78-46.11-48.96,96.03-26.26,114.66-40.45,113.69-48.57-1.42-11.78-45.16-19.62-64-22.99-12.52-2.24-19.87-2.62-50.24-7.51-20.23-3.26-30.34-4.89-32.18-5.98-19.41-11.41-15.31-34.23-39.54-78.16-11.6-21.03-16.14-22.33-18.76-22.29Z"/>
  </g>
  <ellipse class="cls-1" cx="429.65" cy="490.47" rx="7.53" ry="12.38"/>
  <ellipse class="cls-1" cx="478.53" cy="490.47" rx="7.53" ry="12.38"/>
  <ellipse class="cls-12" cx="406.98" cy="553.44" rx="10.43" ry="21.85" transform="translate(-279.96 546.63) rotate(-53.1)"/>
  <ellipse class="cls-12" cx="513.36" cy="553.44" rx="21.85" ry="10.43" transform="translate(-240.98 525.1) rotate(-45)"/>
  <path class="cls-12" d="M529.22,459.89c5.55-1.53,12.66,6.65,15.87,18.28,3.21,11.63,1.32,22.3-4.23,23.84-5.55,1.53-12.66-6.65-15.87-18.28-3.21-11.63-1.32-22.3,4.23-23.84Z"/>
  <ellipse class="cls-12" cx="451.45" cy="440.48" rx="21.85" ry="10.43"/>
  <ellipse class="cls-12" cx="380.03" cy="491.26" rx="21.85" ry="10.43" transform="translate(-198.61 716.95) rotate(-73.58)"/>
  <ellipse class="cls-12" cx="376.35" cy="578.31" rx="9.64" ry="19.6" transform="translate(-312.08 532.07) rotate(-53.1)"/>
  <ellipse class="cls-12" cx="357.16" cy="598.31" rx="8.72" ry="18.26" transform="translate(-330.53 485.99) rotate(-49.89)"/>
  <ellipse class="cls-12" cx="335.53" cy="618.52" rx="6.27" ry="13.13" transform="translate(-360.56 515.5) rotate(-53.1)"/>
  <ellipse class="cls-12" cx="316.66" cy="642.22" rx="4.25" ry="8.89" transform="translate(-387.05 509.88) rotate(-53.1)"/>
  <ellipse class="cls-12" cx="538.22" cy="578.31" rx="18.31" ry="8.74" transform="translate(-251.28 549.96) rotate(-45)"/>
  <ellipse class="cls-12" cx="564.22" cy="598.31" rx="14.9" ry="8.15" transform="translate(-257.81 574.2) rotate(-45)"/>
  <ellipse class="cls-12" cx="588.11" cy="618.52" rx="12.39" ry="5.75" transform="translate(-265.11 597.02) rotate(-45)"/>
  <ellipse class="cls-12" cx="609.55" cy="633.73" rx="10.79" ry="4.8" transform="translate(-269.59 616.63) rotate(-45)"/>
  <ellipse class="cls-12" cx="620.06" cy="473.88" rx="5.75" ry="12.39" transform="translate(-87.37 144.36) rotate(-12.41)"/>
  <ellipse class="cls-12" cx="596.35" cy="475.62" rx="8.15" ry="14.9" transform="translate(-88.3 139.3) rotate(-12.41)"/>
  <ellipse class="cls-12" cx="567.37" cy="479.61" rx="8.74" ry="18.31" transform="translate(-89.83 133.17) rotate(-12.41)"/>
  <ellipse class="cls-12" cx="344.59" cy="487.53" rx="18.31" ry="8.74" transform="translate(-220.45 680.29) rotate(-73.58)"/>
  <ellipse class="cls-12" cx="311.44" cy="483.79" rx="14.9" ry="8.15" transform="translate(-251.29 603.72) rotate(-69.26)"/>
  <ellipse class="cls-12" cx="284.2" cy="480.95" rx="12.39" ry="5.75" transform="translate(-266.22 576.41) rotate(-69.26)"/>
  <path class="cls-12" d="M469.75,413.3c0,4.83-8.2,8.74-18.31,8.74-10.11,0-18.31-3.91-18.31-8.74s8.2-8.74,18.31-8.74c10.11,0,18.31,3.91,18.31,8.74Z"/>
  <ellipse class="cls-12" cx="451.45" cy="383.8" rx="14.9" ry="8.15"/>
  <path class="cls-12" d="M463.84,356.9c0,3.18-5.55,5.75-12.39,5.75-6.84,0-12.39-2.58-12.39-5.75,0-3.18,5.55-5.75,12.39-5.75s12.39,2.58,12.39,5.75Z"/>
  <g class="cls-11">
    <path class="cls-5" d="M435.26,313.71c-5.85,8.86-11.72,18.52-17.43,29.02-12.56,23.09-12.24,38.82-26.82,60.97-3.97,6.03-7.66,10.61-9.99,13.37"/>
    <path class="cls-5" d="M441.23,294.82c.05,5.66-.17,13.91-1.53,23.74-.62,4.48-2.95,19.88-15.32,52.09-8.71,22.7-11.83,26.18-14.55,39.83-2.4,12.02-2.56,22.25-2.3,29.11"/>
    <path class="cls-5" d="M452.74,296.27c-1.11,19.53-2.11,39.53-3.11,59.53-9,35-9,70-10.22,106"/>
    <path class="cls-5" d="M462.22,303.24c1.66,17.67,1.35,31.76.77,41.36-.63,10.36-1.55,14.82-.77,23.74.96,10.93,3.49,17.29,7.66,30.64,6.84,21.94,9.28,25.95,9.96,36,.64,9.41-.75,17.2-1.98,22.21"/>
    <path class="cls-5" d="M469.08,321.74c1.45,3.82,3.84,9.89,7.17,17.22,5.83,12.86,9.75,19.03,17.39,34.26,5.06,10.09,5.1,11.26,9.64,20.14,4.24,8.28,8,14.92,10.55,19.29"/>
    <path class="cls-5" d="M414.82,324.33c10.35,8.6,24.48,7.97,36.34,13.14,6.59,2.87,11.74,7.73,16.97,12.53,5.43,4.99,11.21,9.36,17.79,12.74,7.8,4,16.25,6.63,24.86,8.19"/>
    <path class="cls-5" d="M385.51,378.21c5.11,6.58,12.11,12.58,20.11,13.58,18,3,32,12,45,24,13,11,30,17,46.64,17.41"/>
    <path class="cls-5" d="M398.2,368.36c2.43,2.43,3.43,4.43,5.43,5.43,12,7,25,5,37,12,6,4,12,9,17,14,14,12,31,17,48.81,19.52"/>
    <path class="cls-5" d="M400.58,348.42c4.48,4.86,10.1,8.83,16.45,10.79,8.16,2.52,16.34,2.52,24.24,6.3,7.88,3.77,13.57,9.93,20.09,15.53,5.41,4.65,11.43,8.48,17.93,11.42,9.57,4.33,19.93,6.71,30.36,7.78"/>
    <path class="cls-5" d="M413.12,338.67c11.51,7.12,25.51,9.12,38.51,13.12,3,1,6,4,9,6,13,14,30,24,47.99,27"/>
    <path class="cls-5" d="M384.73,392.69c10.7,11.47,27.04,12.38,40.75,18.04,7.6,3.14,14.06,8.39,19.99,14,6.41,6.07,12.99,10.93,21.23,14.28,8.93,3.62,18.5,5.38,28.06,6.23"/>
    <path class="cls-3" d="M422.25,314.9c2.37,1.9,4.37,4.9,7.37,5.9,9,3,19,2,28,7,6,4,12,8,17,14,10,9,23,11,34.94,12.77"/>
    <path class="cls-6" d="M429.25,308.18c2.3,3.47,7.28,5.81,11.03,7.37,5.23,2.16,10.99,2.39,16.43,3.75,9.82,2.47,16.39,12.3,25.43,16.64,5.32,2.56,11.07,4.04,16.89,4.94"/>
  </g>
  <g class="cls-11">
    <path class="cls-4" d="M657.7,659.33c-1.72-8.44-3.9-17.36-6.64-26.67-6.03-20.47-15.22-29.32-19.56-50.4-1.18-5.74-1.69-10.49-1.94-13.41"/>
    <path class="cls-4" d="M665.1,673.61c-3.27-3.22-7.87-8.08-12.72-14.51-2.21-2.93-9.69-13.11-21.05-38.7-8.01-18.03-8.22-21.82-14.47-31.22-5.51-8.28-11.28-14.24-15.35-18.03"/>
    <path class="cls-4" d="M657.68,679.38c-10.55-11.85-21.43-23.91-32.31-35.96-14.89-25.26-34.93-45.35-54.85-66.72"/>
    <path class="cls-4" d="M648.26,680.82c-11.07-9.19-18.96-17.46-24.12-23.31-5.57-6.31-7.6-9.4-13.16-14.07-6.81-5.72-11.9-7.92-21.93-13.19-16.48-8.67-20.17-9.57-26.32-14.95-5.75-5.04-9.42-10.31-11.59-13.89"/>
    <path class="cls-4" d="M633.73,674.14c-3.01-1.36-7.87-3.47-13.97-5.77-10.7-4.03-16.48-5.33-29.58-9.68-8.67-2.88-9.36-3.54-17.06-6.03-7.17-2.32-13.13-3.97-17.09-5.02"/>
    <path class="cls-4" d="M663.32,641.51c-10.85,1.01-18.58,9.47-28.33,13.32-5.41,2.14-11.15,2.3-16.89,2.55s-11.78,1.06-17.48,2.9c-6.76,2.18-13.1,5.53-18.92,9.57"/>
    <path class="cls-4" d="M649.25,593.74c-6.7-.84-14.14-.27-19.29,3.75-12.03,8.61-25.2,11.48-39.51,12.06-13.74,1.15-26.91,7.46-36.68,16.78"/>
    <path class="cls-4" d="M647.63,606.68c-2.78,0-4.5-.57-6.22,0-10.88,2.87-17.18,11.48-28.06,14.35-5.73,1.15-12.03,1.72-17.75,1.72-14.89,1.15-27.49,8.04-39.13,16.81"/>
    <path class="cls-4" d="M657.68,619.5c-5.34-.22-10.84.73-15.6,3.25-6.11,3.24-10.8,7.94-17.49,10.3-6.67,2.36-13.46,2.09-20.4,2.62-5.76.44-11.41,1.69-16.81,3.74-7.96,3.01-15.26,7.59-21.84,12.96"/>
    <path class="cls-4" d="M656.08,632.29c-10.67,2.52-19.83,9.41-29.56,14.57-2.29,1.15-5.73,1.15-8.59,1.72-15.46-.57-30.92,3.44-42.94,12.05"/>
    <path class="cls-4" d="M641.41,584.98c-12.7-.44-22.57,8.42-33.67,13.04-6.15,2.56-12.86,3.26-19.46,3.44-7.14.2-13.7,1.18-20.34,3.99-7.18,3.05-13.67,7.53-19.63,12.53"/>
    <path class="cls-7" d="M664.47,651.19c-2.44.27-5.31-.3-7.6.85-6.87,3.44-12.03,9.76-20.04,12.06-5.73,1.15-11.45,2.3-17.75,1.72-10.88.57-19.47,6.89-27.32,12.73"/>
    <path class="cls-8" d="M664.31,659.06c-3.31-.67-7.5.84-10.54,2.11-4.23,1.76-7.66,4.94-11.56,7.28-7.04,4.22-16.43,2.35-24.09,5.04-4.51,1.58-8.65,4.04-12.5,6.86"/>
  </g>
  <g>
    <path class="cls-10" d="M515.62,426.45c3.45-3.91,13.4,3.56,31.31,7.16,19.83,3.99,30.92-.48,33.53,5.02,2.52,5.31-5.57,14.13-9.7,18.64-14.78,16.12-26.77,13.47-32.94,25.53-3.84,7.52.47,9.24-2.04,27.06-.28,1.97-4.54,30.97-13.02,31.66-6.36.52-9.32-15.34-16.85-15.32-5.42.01-10,8.25-14.81,20.43-13.35,33.8-13.5,59.91-18.38,60.26-4.8.34-6.22-24.79-17.36-26.89-8.65-1.63-17.85,11.61-18.89,13.11-11.44,16.46-6.77,35.16-11.74,36.26-5.42,1.19-11-20.99-19.94-20.79-6.16.14-7.36,10.77-15.72,23.38-17.47,26.35-39.27,20.62-52.68,45.41-7.11,13.13-7.01,25.86-11.4,25.87-4.32.02-3.43-12.31-12.6-19.8-13.56-11.07-32.48,2.02-41.09-7.76-6.62-7.52-3.26-24.15,3.09-26.5,5.63-2.09,9.74,8.52,22.01,13.88,19.66,8.59,45.9-2.55,60.94-15.83,14.86-13.12,8.51-19.25,24-37.79,22.4-26.82,40.43-19.67,54.64-43.4,11.19-18.69,3.46-28.89,16.34-40.34,13.74-12.22,26.82-4.42,36.77-17.36,8.88-11.56,9.62-32.3,9.7-35.74.19-7.71-.91-12.77,2.81-17.87,4.67-6.41,11.32-5.15,14.3-11.23,3.47-7.11-3.24-13.64-.25-17.04Z"/>
    <path class="cls-2" d="M524.04,438.13c5.73-3.89,15.25-2.08,16.09,1.02.92,3.41-9.2,6.35-18.13,14.3-21.41,19.06-19.27,52.07-20.94,51.83-1.19-.17-2.02-16.85,4.34-34.21,4.82-13.15,8.17-11.4,13.79-26.04.65-1.69,1.8-4.82,4.85-6.89Z"/>
    <path class="cls-2" d="M447.45,579.32c.53.9,7.78-5.17,13.79-2.81,7.85,3.09,7.66,18.25,10.21,18.13,1.78-.09,2.29-7.46,4.15-16.39,3.86-18.49,10.15-27.48,8.1-28.8-1.83-1.18-6.69,6.13-20.43,17.11-8.22,6.56-16.37,11.85-15.83,12.77Z"/>
    <path class="cls-2" d="M275.11,656.94c-1.48,0-4.57,7.88-1.53,13.02,4.72,7.98,21.38,4.67,21.45,3.83.05-.64-9.48.59-15.06-5.62-4.4-4.89-3.52-11.24-4.85-11.23Z"/>
    <path class="cls-2" d="M379.53,617.36c6.07-8.64,14.54-16.11,15.83-15.06,1.14.93-3.43,8.54-6.89,13.28-5.83,7.98-13.82,15.05-15.06,14.04-1.11-.89,3.21-8.1,6.13-12.26Z"/>
  </g>
</svg>