<svg xmlns="http://www.w3.org/2000/svg" viewBox="0 0 379.91 496.23"><defs><style>.cls-1{fill:#1e8ab6;}</style></defs><g id="nivel"><path class="cls-1" d="M256.78,99.7c2.1-11.08,0-16.47,2.44-17.69,2-1,6,1.28,6.84,4.07,1,3.19-2.34,6.58-1.58,7.22s5.31-3.94,6.59-3c1,.69-1.36,3.6-.56,7.56.74,3.69,3.47,4.59,2.93,6.31-.71,2.24-5.47,1-10.56,4.39-2.06,1.38-5.36,4.32-4.72,6.12,1.09,3.06,12.23-.77,15.71,4.22,1.48,2.13,1.62,5.94-.19,7.7-4.14,4-14.47-6.67-27-3.23-5.65,1.54-10.09,5.5-9.58,7.2.9,3,17.32-2.33,21.25,4a7.54,7.54,0,0,1-1,8.64c-5.32,5.1-18.05-5.91-26.07-.2a9.45,9.45,0,0,0-3.66,7.55c0,.62.19,3.77,2.41,5.64,4.84,4.07,14.19-2.44,16.72.72,1.14,1.42.57,4.39-.9,6.18-3.29,4-9.56.31-20.07,2.91-4.13,1-10.36,2.57-12.35,7.49s.79,11.79,4.27,12.6c2.93.69,4.4-3.44,11.87-7.06,3.39-1.64,8.5-4.12,11.1-2.07s2.36,8.43-.72,11.85c-3.47,3.85-7.88,1-13.54,4.67-6,3.86-9.15,12.24-6.86,15.14.31.41,1.46,1.63,5.41,1.24C239.79,208.44,247.4,189,252.65,191c2.44.89,3.65,6.16,2.58,10.22-2.21,8.38-13.08,7.55-21.78,19.73-2.75,3.85-3.86,7-3.82,10.29,0,2.88.85,8.17,4,9.39s7-2,12-5.91c5.86-4.63,6.84-7.2,9.81-7.18,3.47,0,7.23,3.53,7.15,6.6,0,1.36-.82,3-10.37,9-8.4,5.29-10,5.46-11.47,8-3.14,5.54-.95,14.5,2.72,15.71,4.68,1.56,10.19-12.82,18.09-11.71,4,.56,7.84,5,7.28,8.21-.93,5.31-13.12,3.21-19,11.67-4.51,6.46-3.4,16.33-.17,17.83,1.85.85,3.69-1.34,14.6-6.9,5.57-2.84,7.29-3.39,8.86-2.67,2.92,1.35,4.69,6.86,3,10.71-2.91,6.65-13.78,2.84-20.77,10.64-5.22,5.82-6.18,15.51-2.92,18.12,2,1.6,6.21.08,14.59-3,11.07-4.08,13.7-6.56,15.64-5.23,3.57,2.45,2.2,16.12-5.13,20.51-7.75,4.64-16.1-4.74-25.39.07-6,3.08-10.19,10.9-8.2,14.6,3.83,7.13,29.36-5.7,37.69,4.56,3.57,4.39,3.53,12.46,0,15.55-7.49,6.53-27.23-12-37.24-4.53-3.18,2.37-5,7.12-3.82,10.29,3,7.65,23.29,4.15,24.17,8.78.48,2.48-4.73,6.84-10.52,7.6-10.24,1.34-15.16-9.54-23.35-7.36-5.11,1.36-9,7.15-7.92,10.05.71,2,3.47,1.9,12.06,4.84,9.7,3.32,10.43,4.9,10.64,5.67.79,3-2.45,7.52-6.48,8.76-4.71,1.45-6.95-2.72-15.76-4.15-4.16-.68-9.72-1.58-13.81,1.45-1.71,1.27-3.54,4.51-7.07,11-3.64,6.7-3.56,7.29-4.92,8.22-3.19,2.15-5.36.13-15.67-.34-7.5-.33-11,.53-12.71-1.88-1.23-1.71-.24-3.17-.6-5.29-1.58-9.33-25.51-8.74-27.32-17.21-.84-3.9,2.9-9,6.53-9.67s6.18,3.4,20.14,14.94c3.12,2.58,5.45,4.41,8.87,4.65,4.94.35,10.45-2.73,10.38-5.32-.09-3.86-12.5-3.59-16.63-12.44-.28-.59-1.8-3.85-.61-5.07,2.55-2.59,13.75,8,18.47,4.78,3.33-2.3,1.34-10.08,1.12-10.92-2.05-7.68-8.85-11.34-10.26-12.05-2.43-1.24-6.4-2.64-17.29-1.5-16.77,1.75-25.92,7-27.28,4.76-.93-1.54,2.3-5.75,6-8.33,8.34-5.85,17.73-2.5,18.62-5.28.75-2.33-4.92-7.46-11.78-9.41-6.59-1.87-9.9.43-22.08,1.87-11.85,1.41-20.9.68-21-.35s7.87-.89,13.69-6.95c.61-.64,5.72-6,4.22-9.35-2.6-5.91-22.08,1.08-25.73-5.67-1.92-3.54,1-9.94,4.3-10.72,3.79-.9,7.43,5.74,9.33,4.68,1.46-.82,1.44-6-1.3-8.77-3.54-3.63-8.66-.36-16.33-2.36-9.1-2.37-15.38-10.49-14.35-12.3,1.4-2.49,16.18,7.35,23.7,1.43,3-2.35,4.74-7.12,3.37-10.32-2.11-4.92-10-2.45-16.4-8.77-4.63-4.56-6.23-11.48-4.73-12.64,1.24-.95,5.25,1.92,13.26,7.67,6.67,4.77,9,7,10.61,6.13,2.08-1.09,1.62-6.25,1-9.09-1.82-8.5-7.75-9.77-7.75-15.57,0-3.6,2.28-3.68,6.18-11.52a61.88,61.88,0,0,0,5-14.34c2.49-10.91.85-17.11,2.9-17.66s5.22,4.57,6.8,8.64a27.62,27.62,0,0,1,.29,17.86c-2.68,7.88-7,8.31-9.22,16.37-1.7,6.13-1,12.16.17,12.36,2.2.39,5.7-21.81,10.92-21.76,3.21,0,4.82,11.13,6.2,10.9,1.71-.28-3-16.46,4.11-22.63,4.22-3.65,12.26-3.52,15.1,0,4.19,5.2-1.88,19.16-10.79,27.26-6.85,6.21-11.44,5.38-17.24,12.68-4.84,6.09-7.7,14.28-5.55,16.14,2.94,2.52,12.2-9.26,24.68-7.21,3.83.63,8.76,2.69,8.85,5.11.11,3.1-12.11,1.64-23,10-1.82,1.4-10.25,7.89-8.6,13.66.73,2.54,3.43,5,6.11,4.94,5.81-.16,8-12.19,11.23-11.67,2.4.39,4.57,7.58,2.82,13.89s-6.24,7.58-5.7,11.1c.72,4.73,9.92,9.42,14.22,6.8,6.74-4.09-2.81-23.48,5.44-29.41,3.23-2.32,8.64-2.19,10.51.18,4,5.05-10.74,16.93-6.69,27.5,2.25,5.88,9.71,9.83,13.23,8.12,4.91-2.38,1-15.17,5.61-17.05,2.77-1.12,8,1.94,9.24,6.05,2.28,7.69-11,14.26-8.61,21.44,1.24,3.84,6.47,6.64,10.18,5.65,3.36-.91,5-4.82,5.74-6.67,2.55-6.2.57-11.57,1.77-11.94,1-.31,3.75,3.22,5,7.78,2,7.21-1.38,10.48-2.15,20.6-.47,6.14-1.1,14.49,3.91,18.54,3.49,2.82,9.39,3.3,12.31.74,4.73-4.15.69-15.44-.67-19.25-2.65-7.41-6.51-11.93-5.64-12.69,1.36-1.18,10,10.36,15.51,8.25,3.64-1.38,5.58-8.65,3.59-14-1.41-3.79-4.06-4.58-17-13.38-1.94-1.32-11.38-7.76-10.7-9,.39-.71,3.5.92,4.87-.48,1.53-1.56-.8-5.27.12-5.93s5.47,2.91,10.25,8.39c7,8,7.66,11.8,12.88,14,1.12.49,6.19,2.51,8.67.3s1.54-8.5-1.07-12.65c-2.49-4-4.82-3.54-17.13-11.78a36.93,36.93,0,0,1-7.19-5.92c-2.88-3.14-6.08-7.84-5.19-8.78s5.84,3.28,15.53,8c8.56,4.19,14.67,7.18,18,4.74,3.17-2.31,4.08-9.66.84-13.9-5.93-7.75-20.64,1.62-33.41-7.28-6.1-4.24-9.7-11.22-8.38-12.85s6.41,1.59,20,6.69c18,6.77,21.19,6,23,4.59,3.53-2.6,4.12-8.63,2.84-12.86-1.7-5.61-6.71-8.31-8.6-9.21-11.92-5.69-20.11,3.37-30.54-1.85-7.7-3.85-11.62-13-10.09-14.79,1-1.22,4.43,1,15.77,4.16,9,2.47,11.69,2.39,14.07,1.76,4.65-1.22,9.63-4.93,9.16-7.68-.7-4-12.92-5.22-16.59-5.58-12.2-1.19-18.53,1.73-23.17-2.77-.35-.34-3.24-3.2-2.43-5.18,2.08-5.05,25.15,3.39,28.53-2.85,1.67-3.07-1-8.93-4.83-10.81-2.41-1.19-3.94-.14-9.4.35-4.09.36-14.42,1.29-16.53-2.83-1-2,0-5.09,1.77-6.53,1.58-1.25,3.78-1.24,11.39.69,10,2.53,12.26,4.05,13.55,2.87,2.05-1.85.69-9.61-4.21-13.52-8.91-7.08-22.89,3.76-29.12-2.67-4.08-4.21-2.77-13.54.45-15.07,2.32-1.09,4.42,2.4,11.62,4.59,1.78.54,10.82,3.29,13.74-.31,2.21-2.72,0-7.89-.39-8.72-5.29-12.14-23.86-11.93-23.7-16.52.1-3,8.38-6.78,14.46-4.62,5.2,1.84,6.66,7.28,8.51,6.69,2-.65,3.23-8,.16-13.95-4.64-9-17.24-11.15-16.55-13.8.28-1.12,2.52-.69,4.05-2.73,2.08-2.78.14-6.5,1.11-7,2-1.1,9.65,15.14,16.52,14.27,3.32-.43,6.08-5.05,6.48-8.76.26-2.37-.49-4-1.44-6.49-2.49-6.63-5-13.27-3.89-19s5.79-10.22,7.45-9.61c2.12.78-1.42,9.62,3.27,13.92,1.41,1.29,3.84,2.42,5.85,1.73,3.63-1.27,4.32-8,5.12-16.62.74-8-1.08-10,.85-14.13s6.18-8.12,9.13-7.23,4.64,7,3.87,11.67c-.58,3.47-2.34,5.26-1.33,6.78s3.87,1.75,5.9.82C254.22,108.93,255.49,106.49,256.78,99.7Z"/></g></svg>