<svg xmlns="http://www.w3.org/2000/svg" viewBox="0 0 379.91 496.23"><defs><style>.cls-1{fill:#1e8ab6;}</style></defs><g id="nivel"><path class="cls-1" d="M203.73,156.81c-11.06-11.25-15.1-9.32-19.87-16-8.53-12-6.78-33.7,2.7-38.21,7.3-3.48,17.9,3.87,22.8,9,6.06,6.34,9.33,15.47,8.32,23.83-.83,6.84-3.78,7-4.5,14.24-.85,8.5,2.18,19.55,8.47,21.27,2.91.79,6.67-.8,8.59-3.38,3.7-5-1.69-10.72.94-16.34,3.15-6.77,16.43-10.33,22-5.58,6.84,5.79,2.22,24-5.81,27.27-5,2-10.53-2-16.67,2a15.28,15.28,0,0,0-3.89,3.9c-5.46,7.14-8.42,19.36-3.83,23,2.69,2.1,7.67,1,10.92-1,7-4.3,4.75-12.32,10.91-16.54,5.75-3.94,15.85-2.58,18.2,1.79,3.42,6.38-8,22.45-18.27,22.43-4.91,0-7-3.7-13.49-3.22a19.82,19.82,0,0,0-11.13,4.84c-6.41,5.63-4.3,11.72-8.7,22-5.9,13.76-16.08,17.53-14.37,20.49,1.9,3.28,14.79,1.56,23.55-5.63,5.41-4.44,4.7-7.23,9.63-12.79,9.23-10.39,26.62-17.4,34.14-11.38,4.22,3.38,4.93,10.52,3.48,15.53-3.53,12.22-21.5,17.11-33.47,17.08-6.69,0-6.36-1.56-13.25-1.46-2.16,0-21.88.57-30.38,12.67-3.69,5.24-1.95,7.94-3.74,22.08-3.23,25.7-11.69,38.43-7.17,41.62,2.6,1.84,8-.65,11.2-3.53,7.38-6.67,2.59-15.37,8.19-31.11,1.9-5.35,5-13.93,13.25-20.18,9.08-6.83,19.09-6.87,23.91-6.89,2,0,18.27-.07,20.48,6.59.8,2.41-.91,3.76-2.89,10.5s-1.49,9.57-2.36,13.58c-2.1,9.67-9.87,15.91-15.44,20.37-5.91,4.74-17.42,14-29.18,11.5-3.79-.8-6.65-2.62-10.26-1.13s-5.33,5.09-7.54,9.55c-2.28,4.63-4.2,8.6-2.84,10.07,2.14,2.31,10.23-3.86,25.37-10.43,17.84-7.75,19.52-4.77,28.45-10.68,12.4-8.22,10-14.53,21.47-22.09,12.47-8.21,31.31-11.29,36.38-4.21,3.66,5.11.69,15.6-5.4,21.47-10.66,10.29-29.92,9.08-36.84,8.49-4.91-.41-6.34-1.08-10.53-.72-6,.52-8.66,2.4-22.22,9.23-5.7,2.88-11.21,5.55-20.86,10.69-8.07,4.29-9.49,5.23-9.3,5.89.55,2,14,.56,25.79-2.35,15.57-3.85,16.23-7.39,25.54-8,12.5-.83,28.54,4.41,30.13,13.27,1,5.65-3.63,12.25-9,15-2.86,1.46-7.71,1-17.32,0-15.57-1.58-19.06-3.39-21.49-5.18-3.6-2.66-2.74-3.7-6.28-5.89-7.35-4.54-15.73-3-18.33-2.45-4.24.81-8.58,1.64-11.4,5.24-1.59,2-2,4-2.69,12.68-.33,4-.7,9-1,14.94l-5.56-.05c1.06-4.95,2.5-15.45-2.55-26.28-4.38-9.37-11.47-14.36-17.83-18.84-6.53-4.59-11.79-6.63-22.2-10.66-9.2-3.57-16.37-6.29-26.27-7-6.78-.49-6.85.53-10.78-.32-11.67-2.53-23.5-14.29-21.06-22.87,1.77-6.26,10.68-9.32,16.44-9.87,14.37-1.4,25.61,11.18,27.71,13.65,5.64,6.63,4.55,9.85,11.2,16.16,3.87,3.67,5.5,3.56,15,9.44,16.39,10.17,20.68,14.82,23.67,13s2-9,1.41-12.83c-1.06-6.93-4.21-11.81-6.9-15.9-2.81-4.26-5.07-7.7-8.8-10.49-8.88-6.66-16.07,0-24.47-5.72-5.8-4-3.27-7.48-11.24-14.54-6.13-5.43-9.23-4.79-11.67-9.19-3-5.34-2.5-13.71,2-18,6.45-6.12,19.22-1.8,25.7,2.4,5.28,3.43,5,5.86,13.6,11.91,3.9,2.72,6,3.66,8,6.48,3,4.36,3.07,9.56,2.65,13.27-1,4.1-2.32,5.53-1.75,8,.89,3.87,5.74,7.87,9.17,7.07,7.93-1.86,7.62-29.19,4.61-45.8-.91-5-1.85-7.86-4-10.39-6.52-7.52-15.89-3-26-7.63-16.21-7.42-19.26-31.51-19.75-36.79-.54-5.76-2.32-24.8,8.61-31.07,7.58-4.34,17.16-.21,19.38.84,7.31,3.45,11.58,12.12,20.12,29.47,7.25,14.73,10,24,8.39,29.92a42.12,42.12,0,0,0-1.27,7.65c-.32,4.17-.61,8.1.77,8.74,2.46,1.13,9.15-8.71,16.41-19.4,4.41-6.48,7.21-11.2,9.29-17.58,2.67-8.16,1.73-11.59,1-13.3-2-4.83-6.43-7.11-7.8-7.78-6.56-3.23-9.7.23-16.29-1.37-8.1-2-12.61-9.42-19.74-21.21-4.18-6.92-6.26-10.48-5.71-14.91.87-6.94,7.17-13.89,13.66-14.07,4.5-.12,8.66,4.87,17,14.85,7.5,9,11.34,13.76,11.18,20.27-.08,2.85-.88,4.58,0,7.79,1.35,4.9,5.69,9.91,8.94,9.21,3-.66,4.17-6.12,5-10.27a32.63,32.63,0,0,0-.06-15.15C215.29,172.84,213.35,166.59,203.73,156.81Z"/></g></svg>