<svg id="Layer_1" data-name="Layer 1" xmlns="http://www.w3.org/2000/svg" viewBox="0 0 719.94 345.79"><defs><style>.cls-1{fill:#e75a25;}.cls-2{fill:#ed7f22;}.cls-3{fill:#f89c1c;}.cls-4{fill:#fff;}</style></defs><path class="cls-1" d="M14.71,234c28.2,1,41.78,2.5,51.1,6.86,17.1,8,15.54,18.21,34.4,25.42,12.73,4.87,24.76,4.55,36.31,4.25,10.7-.28,9.79-1.52,34.58-4,8.9-.9,14.16-1.29,21.1-.42,5.22.65,21.18,2.65,22.46,9,1.43,7.1-17.14,11.89-16.4,21.82.59,8,13.58,18.11,14.43,18.77,2.53,1.95,4.48,3,4.25,4.31-.53,3.05-12.61,3.82-21.14,3.15-8.74-.69-17.28-2.86-28.24-7.56C150.46,308.26,151.13,305,136.7,299c-11.38-4.72-22.56-9.09-34.72-5.69-16.93,4.74-28.3,22.65-25.31,26.94s18.32-9.06,34.22-3c14.72,5.62,14.49,22,26.88,23.66,9.94,1.31,12.79-8.89,25.39-9.29s15,10.74,30.34,14.81c12.13,3.22,29.69,1.46,38.24-8.42,13.29-15.36-.71-43.9,6-46.57,4.17-1.65,12.27,8.16,21.6,19.29,12.69,15.14,15.78,23.3,21.73,23.19,6.2-.11,11-11.89,11.93-14.24,1.09-2.68,2.36-6.8,2.56-15.46.13-5.81-.61-6.58-.51-10.78.13-5.65,3.73-20.9,8.53-21,4-.09,4.3,10.45,14.37,24.26,3.68,5,11.68,16,17.07,14.37,5.79-1.74,9.4-18.24,3.07-29-5.75-9.83-14.87-6.87-21.93-17.66-6.69-10.23-4.2-21.68-8.29-22.35-2.38-.39-3.28,3.49-8.92,7.44-6.51,4.55-13.44,5.07-17.25,5.35a41.05,41.05,0,0,1-19.93-3.57,42.6,42.6,0,0,1-19.93-19c-3.9-7.55-4.28-14-4.76-22-.64-10.72-1.26-21.2,4.76-32.42a45.75,45.75,0,0,1,22.61-20.52c4.33-1.75,16.61-6.74,27.3-1.56,7.71,3.73,8.44,9.78,13.63,9.67,6.37-.13,7.56-9.27,17.07-15.25,4.94-3.1,7.7-2.57,21.56-4.33,21.32-2.71,31.77-4.59,38.63-9.88,9-7,12.17-20.54,9-23.36-1.61-1.43-4.8-.06-18,6.29-23.43,11.3-25.77,13-27.85,11.68-6.26-3.93-1.22-29.33,11.48-49.62,10.33-16.51,22.16-24,20.17-27.32-1.74-2.86-14.2.12-24.11,6.22-17.81,11-24.27,30-26.39,37.07a98.32,98.32,0,0,0-4.16,23.78h0c-.22,7.17-11,12.68-18.05,14.68-5.36,1.52-12.77,3.62-18.84-.11-9.66-5.92-11.43-23.79-6.24-35.51,2.87-6.47,7.42-9.43,6.12-13.55-1.68-5.29-10.86-2.88-16.62-9-6.33-6.68-4.95-19.63-1-28.11,7.14-15.31,23.35-17.58,22.28-23.2-1-5.21-16.23-10-27.46-4.84-19.56,8.93-19.34,44.37-19.29,47.78.22,16.19,5.59,19.43,6,41.48.15,9.27.45,27.34-5.63,29.12-5.14,1.5-14.11-8.83-17.64-19.46-1.06-3.2-.55-3.61-1.34-6.74-3.26-13-12.66-13.61-20.27-25.86S201.88,67.87,192,56.2c-3-3.5-6.88-7.5-7-7.64h0c-4.13-4.28-11.39-11.8-16.5-19-4.5-6.33-2.75-5.95-6.93-11.86-5.25-7.43-10.12-14.47-17.2-15.49C133,.57,119.07,14.1,120.9,21.73c1.56,6.49,13.39,4.11,30.34,14.81,1.55,1,22.56,14.59,19.87,23.72-1.5,5.11-11.54,8.8-18.25,6.25-8.25-3.15-8.55-13.33-14-13.65-6.72-.39-8.88,15.55-16.29,16.48C111,70.81,103.78,33.18,88.11,33.15c-6.65,0-13.25,6.75-14.3,13C71.69,58.65,92.7,71.29,104.63,76.49c13,5.69,16.67,3.13,42.77,9.26,19.59,4.61,30.1,8.18,36.55,12,5.27,3.15,11.35,6.88,11,11.08-.67,7.57-21.67,9.38-21.56,14.37.12,5.42,24.81,3.21,35.93,18.87.51.72,7.74,11.2,4.49,21.56-3.9,12.44-18.82,11.69-21.56,21.56-4,14.27,23,31.08,20.66,34.14-1.84,2.42-20.64-5.57-34.66-19.78-5.54-5.62-11.59-12.37-11.59-12.37-11.17-12.42-13.09-15.81-15.41-15.19-3.81,1-6.14,12.17-2.84,21.44,2.92,8.18,9.64,13.22,18.83,20.1s13.58,8.64,17.52,15.56c1,1.71,5.53,9.72,2.74,13-4.59,5.3-26-5.67-30.36-7.93-2.54-1.3-4.38-2.35-5.42-2.94-21.47-12.38-32.21-18.57-34-19.92-20.43-15-28.44-39.39-30.54-45.82-5.73-17.45-3.27-26.71-9-28.75-7.93-2.82-23.92,11-25.15,26.05-.77,9.45,4.43,17.08,8.09,22.46,4.21,6.18,5.85,5.79,20.47,19.67,6.72,6.38,10.19,10.13,17.12,17.64,11.6,12.56,12,14.29,11.45,15.35-1.77,3.66-15.6,3-26.57-3.26C73.36,228.84,74,223,63.94,216.85c-11.26-6.86-23.2-6.32-26.79-6C17.74,212.46.89,227.22,2.69,231.94,3.35,233.87,6.86,233.75,14.71,234Z" transform="translate(-2.56 -2.07)"/><path class="cls-2" d="M24.85,224.36c26.22.89,38.85,2.22,47.5,6.23C88.24,238,86.77,247.37,104.28,254c11.82,4.47,23,4.15,33.75,3.85,9.95-.28,9.11-1.43,32.16-3.78,8.28-.85,13.17-1.22,19.62-.43,4.85.59,19.69,2.4,20.86,8.25,1.31,6.55-16,11-15.3,20.18.53,7.37,12.59,16.69,13.38,17.3,2.35,1.79,4.16,2.79,3.95,4-.5,2.81-11.74,3.56-19.66,3-8.13-.62-16.06-2.61-26.25-6.92-15.89-6.73-15.26-9.79-28.66-15.28-10.57-4.34-21-8.35-32.27-5.18-15.76,4.41-26.36,21-23.59,24.92s17-8.4,31.82-2.84c13.68,5.15,13.42,20.31,24.94,21.79,9.24,1.19,11.91-8.23,23.62-8.63s13.94,9.89,28.18,13.61c11.27,2.95,27.6,1.29,35.57-7.86,12.39-14.2-.57-40.53,5.71-43,3.88-1.53,11.39,7.5,20,17.77,11.76,13.95,14.62,21.47,20.15,21.36,5.77-.12,10.23-11,11.12-13.17,1-2.48,2.21-6.28,2.41-14.28,0-1.58,0-2.75,0-3.72-.23-3.64-.38-5.15-.4-6.23-.09-4.29,3.37-9.78,7-10.65,3.26-.78,6.93,3,14.11,10.61,16,17,21.72,23.28,24.93,21.73,1.08-.53,1.48-1.59,2.19-3.54,3.32-9.06-3.54-18.53-4-19.2-4.16-5.57-6.23-3.49-12.68-10.6-4.51-5-3-8.41-7.53-13.32-1.4-1.51-2.31-2.49-3.89-3-4.27-1.47-8.3,2-12.34,4s-10.64,1.81-24.09,1.49c-13.27-.32-20-.55-23.5-4.16-3.33-3.41-2-5.93-6.25-10.41-5.07-5.31-9.15-4-12-7.83-3.63-4.89,1.46-10.24,2-21.17.91-18.69-7.2-24.33-2.81-34.56,1.84-4.29,3.17-3.07,15.6-13.92,16.65-14.53,21.21-22.76,29-21.69,3,.41,2.59,1.66,9.69,3.84,6,1.84,7.19,1.24,13.69,3.07,8.11,2.29,8.31,3.81,11,3.24,5.61-1.19,5.61-8,11.8-10.93,4.44-2.12,8-.32,13.94.58,12.14,1.85,26.59-1.78,35.94-9.2,8.32-6.61,11.34-19,8.4-21.58-1.5-1.31-4.46,0-16.72,5.84-21.81,10.48-24,12-25.92,10.84-5.82-3.62-1.07-27.07,10.77-45.84C353.32,67,364.34,60,362.49,57c-1.61-2.64-13.2.14-22.43,5.8C323.48,73,317.43,90.49,315.44,97.06a90.41,90.41,0,0,0-3.92,22h0c-.22,6.62-10.26,11.73-16.82,13.59-5,1.41-11.88,3.36-17.52-.06-9-5.45-10.57-21.94-5.72-32.77,2.68-6,6.92-8.73,5.71-12.52-1.55-4.88-10.09-2.64-15.43-8.23-5.87-6.16-4.56-18.11-.87-25.95,6.67-14.15,21.75-16.28,20.77-21.46-.91-4.8-15.07-9.17-25.52-4.41-18.21,8.28-18.07,41-18,44.16.17,15,5.16,17.93,5.45,38.29.12,8.56.36,25.24-5.3,26.89-4.78,1.4-13.1-8.12-16.36-17.93-1-3-.51-3.33-1.23-6.22-3-12-11.74-12.54-18.79-23.83S199.17,70.64,190,59.88c-2.75-3.23-6.38-6.91-6.51-7h0C179.66,48.9,172.93,42,168.18,35.33c-4.17-5.84-2.55-5.49-6.42-10.94-4.87-6.85-9.38-13.34-16-14.27-10.54-1.51-23.49,11-21.8,18.06,1.44,6,12.44,3.77,28.18,13.61,1.44.9,20.95,13.42,18.43,21.86-1.41,4.72-10.75,8.15-17,5.8-7.67-2.89-7.92-12.29-12.95-12.57-6.25-.34-8.29,14.37-15.19,15.25-10.82,1.38-17.43-33.34-32-33.34-6.18,0-12.34,6.26-13.33,12-2,11.58,17.51,23.21,28.59,28,12.11,5.22,15.49,2.85,39.75,8.46,18.21,4.21,28,7.49,34,11,4.9,2.9,10.54,6.33,10.18,10.2-.64,7-20.17,8.7-20.08,13.32.1,5,23.07,2.92,33.37,17.34.47.66,7.17,10.32,4.13,19.9-3.65,11.49-17.52,10.84-20.09,20-3.71,13.18,21.31,28.65,19.14,31.47-1.72,2.23-19.18-5.1-32.19-18.19-5.14-5.17-10.75-11.39-10.75-11.39-10.36-11.45-12.14-14.57-14.3-14-3.54.94-5.74,11.25-2.68,19.8,2.7,7.55,8.94,12.18,17.47,18.51s12.61,8,16.26,14.33c.9,1.58,5.13,9,2.52,12-4.28,4.9-24.12-5.18-28.21-7.26-2.36-1.2-4.07-2.16-5-2.71-19.94-11.39-29.91-17.08-31.62-18.32-19-13.8-26.36-36.31-28.31-42.24-5.27-16.11-3-24.66-8.27-26.53-7.36-2.59-22.27,10.16-23.44,24.11-.74,8.72,4.08,15.76,7.47,20.72,3.9,5.7,5.42,5.33,19,18.12,6.23,5.88,9.45,9.34,15.88,16.25,10.76,11.58,11.09,13.17,10.61,14.15-1.66,3.39-14.51,2.8-24.7-2.95-9.45-5.34-8.85-10.74-18.18-16.38-10.45-6.31-21.55-5.78-24.9-5.5-18,1.55-33.75,15.21-32.09,19.56C14.29,224.23,17.56,224.12,24.85,224.36Z" transform="translate(-2.56 -2.07)"/><path class="cls-3" d="M42.84,221.89c23.34.59,34.58,1.65,42.26,5.07,14.1,6.28,12.72,14.47,28.27,20.09,10.5,3.8,20.47,3.44,30,3.11,8.86-.31,8.12-1.3,28.67-3.51,7.38-.79,11.73-1.15,17.48-.51,4.32.48,17.52,2,18.52,7,1.12,5.68-14.29,9.68-13.76,17.63.42,6.4,11.09,14.41,11.8,14.93,2.08,1.54,3.68,2.39,3.49,3.42-.46,2.45-10.48,3.17-17.53,2.7-7.23-.48-14.28-2.15-23.33-5.83-14.1-5.73-13.52-8.39-25.42-13.07-9.38-3.69-18.61-7.1-28.71-4.27-14.06,3.94-23.62,18.4-21.18,21.81s15.25-7.42,28.36-2.69c12.15,4.38,11.81,17.54,22.06,18.75,8.22,1,10.66-7.23,21.1-7.66s12.35,8.49,25,11.62c10,2.48,24.57.92,31.74-7.07,11.13-12.42-.23-35.19,5.39-37.39,3.72-1.46,10.48,6.53,17.73,15.29,17.78,21.47,21.43,34.57,27.28,33.73,5.2-.75,10.65-12.33,8.59-20.89-1-4-4.85-9.49-3.2-13.14a6.49,6.49,0,0,1,1.62-2.18c1.47-1.2,2.77-.93,4.7-1.5,2.33-.69,2.15-1.59,5.5-3.57a27.39,27.39,0,0,1,6.25-2.68c3.95-1.19,5.93-1.79,7.37-1,2.95,1.58,1,6.44,3.87,12.47,1.31,2.75,2.23,2.8,7.24,8.09,8.88,9.36,10.51,13.94,12.89,13.34s3.62-5.6,2.83-9.67c-.72-3.69-2.69-4.19-8.77-11.15-7-8-10.53-12.05-12.33-16.1a6.82,6.82,0,0,0-2.54-3.53c-3-1.82-6.83.46-12.05,2.23-4.2,1.42-8.06,1.84-15.76,2.68a87,87,0,0,1-17.94,0c-10-1.06-17.66-1.87-25.15-7.19-12.81-9.09-15-24.19-15.27-26-1.05-8,1.63-8.41,2.89-21.52,2-21.08-4.29-26.06.92-35.6,3.49-6.38,5.81-3.2,17.32-15.56,7.08-7.6,8.72-11.49,15.07-14.28a31.28,31.28,0,0,1,14.28-2.21c7,.32,8.79,2.41,17.05,4.19,4.8,1,11.83,2.56,19.83,1.19,8.18-1.4,8.55-4.31,21.43-8.1,3.26-1,6.32-1.62,12.43-3,14.9-3.23,17.17-2.76,20-5.39,5.56-5.09,6.67-15.62,3.2-18.19-4-3-14.73,4.08-23.34,9.71-7.72,5-16.18,11.63-22.66,9.82a1.86,1.86,0,0,1-.5-.22c-5.15-3.1-.76-23.5,9.92-39.88,8.69-13.32,18.55-19.46,16.93-22.07-1.41-2.28-11.76.21-20,5.19-14.84,8.94-20.35,24.22-22.17,29.94a77.6,77.6,0,0,0-3.65,19.1h0c-.24,5.75-9.22,10.26-15.07,11.92-4.45,1.26-10.6,3-15.6.07-7.95-4.67-9.26-19-4.87-28.42,2.43-5.21,6.22-7.63,5.18-10.91-1.35-4.23-9-2.22-13.69-7-5.19-5.3-3.94-15.69-.59-22.53,6-12.34,19.48-14.29,18.65-18.78-.78-4.17-13.35-7.86-22.7-3.65C234,56.38,233.85,84.79,233.86,87.53c0,13,4.47,15.53,4.59,33.21.05,7.43.14,21.91-4.91,23.39-4.27,1.25-11.61-7-14.45-15.45-.85-2.56-.43-2.89-1.05-5.39-2.59-10.37-10.37-10.8-16.57-20.56s-2.26-15.56-10.35-24.84c-2.43-2.78-5.64-6-5.75-6.07h0c-3.38-3.4-9.33-9.36-13.51-15.09-3.67-5-2.23-4.75-5.64-9.45C161.93,41.36,158,35.76,152.11,35c-9.41-1.22-21,9.74-19.57,15.85,1.24,5.19,11.05,3.18,25,11.62,1.28.77,18.56,11.51,16.26,18.85-1.29,4.11-9.63,7.15-15.16,5.16-6.81-2.45-7-10.62-11.45-10.82-5.56-.25-7.48,12.54-13.63,13.35-9.65,1.28-15.29-28.83-28.27-28.73-5.51,0-11,5.52-12,10.51-1.86,10.07,15.43,20,25.27,24.1,10.75,4.45,13.78,2.37,35.34,7.07,16.18,3.53,24.86,6.31,30.17,9.35,4.34,2.48,9.34,5.42,9,8.79-.62,6.08-18,7.7-18,11.7,0,4.34,20.52,2.37,29.6,14.83.42.57,6.32,8.91,3.54,17.25-3.33,10-15.68,9.53-18,17.46-3.4,11.47,18.78,24.73,16.83,27.2-1.54,2-17.05-4.29-28.54-15.57-4.54-4.46-9.49-9.82-9.49-9.82-9.15-9.87-10.71-12.56-12.63-12.05-3.16.84-5.19,9.81-2.53,17.21,2.35,6.54,7.88,10.52,15.43,15.95s11.17,6.82,14.38,12.33c.79,1.37,4.5,7.75,2.16,10.36-3.84,4.29-21.45-4.33-25.07-6.11-2.09-1-3.61-1.84-4.46-2.31-17.68-9.75-26.52-14.62-28-15.69-16.8-11.85-23.22-31.34-24.91-36.48-4.6-13.94-2.48-21.39-7.2-23-6.54-2.2-19.9,9-21,21.1-.72,7.58,3.52,13.66,6.51,17.94,3.43,4.92,4.79,4.59,16.78,15.6,5.51,5.06,8.35,8,14,14,9.5,10,9.79,11.36,9.35,12.21-1.5,2.95-12.94,2.53-22-2.39-8.38-4.57-7.81-9.27-16.08-14.1-9.26-5.41-19.16-4.87-22.14-4.6-16.09,1.47-30.17,13.44-28.71,17.21C33.43,221.85,36.34,221.73,42.84,221.89Z" transform="translate(-2.56 -2.07)"/><path class="cls-4" d="M306.39,244.27a21,21,0,0,1-6.49,3.31c-25.75,8.24-42.88-4-47.91-26.79-3.29-14.85-2.58-45.33,13.5-55.37,9.28-5.85,17.41-7.73,28.2-6.46,8.59,1,14.06,7.61,12.93,15.48a14,14,0,0,1-3,6.67c-3.2,3.81-9.76,4.16-12.06-2s-5.58-6.18-9.5-1-9.59,41.09,5.22,52.71c3.38,3.39,7,4.82,11.43,2a4.42,4.42,0,0,1,.68-.36c5.18-2.17,9.19-1.72,10.85,1.2C311.77,236.46,310.39,241.15,306.39,244.27Z" transform="translate(-2.56 -2.07)"/><path class="cls-4" d="M376.11,198.72c-.25,15-4.28,30.1-17,39.42-10.18,7.48-24.74,8.81-35,.68-11.92-9.44-15.49-27.82-14.52-42.27,1-14.27,7.43-28.47,20.85-34.93l.83-.38c7.92-3.56,20.36-3.24,28.11,1.17C371.13,169.1,376.41,180.68,376.11,198.72Zm-15.92-9c-.48-6.92-5.64-11.63-10.5-12-10.52-.81-12.1,11.41-12,19.28,0,1.15,0,2.56.11,4.11.37,8.44,2.07,21.22,10.89,21.22C352.15,222.32,362.31,220.42,360.19,189.71Z" transform="translate(-2.56 -2.07)"/><path class="cls-4" d="M443.69,238.42a7,7,0,0,1-7.19,6.34c-5.77-.17-18.75-15.16-22.77-21.3-.41,4.8-.65,14.39-.91,17.22-1,11.2-9.79,17.82-19.88,15.08a8,8,0,0,1-6.1-6.46,67.09,67.09,0,0,1-1.79-11.21q-1.24-33.76-2.07-67.54c-.7-20.05,5.76-23.07,13.6-23.5,49.71,0,49.67,33.31,45.2,46.45-2.23,6.55-11.56,12.69-19.83,17.1,4,4.1,17,20.51,20,23A5.88,5.88,0,0,1,443.69,238.42ZM428,181.67c-.65-8.23-6.6-14.21-16.08-15,.15,11.85.43,17.07.43,30.32C421.5,195,428.71,191,428,181.67Z" transform="translate(-2.56 -2.07)"/><path class="cls-4" d="M526.07,235.61a13.33,13.33,0,0,1-1.16,5.13c-1.42,2.91-7.07,4.14-10.88,3.45-3.42-.62-4.21-2.85-4.37-5.42s-2.89-24.9-3.43-28.34c-.51-3.18-1.63-5-5.38-5-5.26,0-8.89,0-14.15.17-4,.14-6.51,2-7,5.67-.16,1.1-1.77,23.09-2,24.17-1.69,7.24-5.48,9.66-13.82,8.85-9.45-.92-13.78-4.21-13.23-11.41,1.21-15.72,4.46-44.5,13-58.68,6-9.94,15-15.8,28.3-15.63,8.52.1,17.3,3.07,20.9,10,2.7,5.17,5.06,13.35,6.3,18.91,2.08,9.3,3.15,18.78,4.64,28.09C524.49,220,526.25,232.3,526.07,235.61Zm-25.6-56.43c-2.46-5-10.52-9.3-15.35,9.6-.95,3.71-.76,5.92,2.32,5.93,4.82,0,8.9,0,12.73-.05C503.23,194.58,506.82,192.35,500.47,179.18Z" transform="translate(-2.56 -2.07)"/><path class="cls-4" d="M576.09,253.47a53,53,0,0,1-7.64,1.08A134.31,134.31,0,0,1,549.8,256c-9-.1-13.74-3.91-15.36-12.7a178.68,178.68,0,0,1-2.54-29.8c0-17.33.29-32.32,1.1-49.65a28.91,28.91,0,0,1,1.42-7.41c2.27-7,9.05-10.67,16.94-9.32s11.17,5.19,10.95,13.48c-.33,12-2.27,58.47-2.26,69.67,0,9.18.54,9.68,9.5,9.23a40.48,40.48,0,0,1,4.26-.12c4.15-.41,5.43,1.71,6.3,4.75C581.11,247.65,580.6,252.81,576.09,253.47Z" transform="translate(-2.56 -2.07)"/><path class="cls-4" d="M650.35,180c0,33.19,1.34,64.51-22.28,69.37-22.84,4.71-45.86-2.54-44.44-20.75.41-5.28,8.28-8,12.46-8h.44c3.37,0,8.93,2.65,9.15,6,.23,3.7,2,15.76,9.07,13.82,10.25-2.82,10.48-15.88,9.64-32.38a33.1,33.1,0,0,1-29.33-.87c-4.44-2.26-8.88-5.76-11.48-9.78-5.71-8.82-8.11-22.21-5.87-33.88,1.57-8.16,7.36-11.23,16.08-10.8s12.85,4.46,12.72,12.59c0,3.1-3.83,29.06,8.32,31.07,4.86.8,9.87-1.82,9.87-13,0-4.9.12-13.11.12-28.46,0-9.47,17.27-8.45,20.29-7.69a6,6,0,0,1,4.81,6.32c0,6.34.78,15,.43,23.43C650.35,178,650.36,179,650.35,180Z" transform="translate(-2.56 -2.07)"/><path class="cls-4" d="M722.5,236c0,2-.15,4-.29,6-.27,3.88-2.13,6.65-5.86,8-3.51,1.22-6.51-.07-8.94-2.46a26.33,26.33,0,0,1-4.55-5.95c-5.86-15.35-15.51-38-17.42-41.18a47.61,47.61,0,0,0,.29,6.65c.53,8.52-.08,25.94-.56,37.39-.48,7.73-2,10.43-9.67,11.4-8.16,1-17.77.49-17.55-11.46,0-25.13-1.24-52.43-.46-72.6.19-4.81.77-9.85,6.57-11.48,6.37-1.79,12.58-1.62,17.46,3.55a39.66,39.66,0,0,1,5.05,7.47c4.65,8,16.81,28.38,18.33,30.45.89,1.38,1.83,2.65,1.73-.64,0-2.39.06-4.78,0-7.16-.2-7.28-.71-24.73-.8-32-.07-5.93,1.58-8.38,5.71-9.19s10.72.85,10.72,11.56C722.44,179.38,722.44,220.92,722.5,236Z" transform="translate(-2.56 -2.07)"/></svg>