<?xml version="1.0" encoding="utf-8"?>
<!-- Generator: Adobe Illustrator 26.0.0, SVG Export Plug-In . SVG Version: 6.00 Build 0)  -->
<svg version="1.1" id="Layer_1" xmlns="http://www.w3.org/2000/svg" xmlns:xlink="http://www.w3.org/1999/xlink" x="0px" y="0px"
	 viewBox="0 0 438.1 212.1" style="enable-background:new 0 0 438.1 212.1;" xml:space="preserve">
<style type="text/css">
	.st0{fill:#E75A25;}
	.st1{fill:#ED7E23;}
	.st2{fill:#F99C1C;}
</style>
<g id="font3">
	<path class="st0" d="M113.9,115.6c6.8,0.2,10,0.6,12.2,1.6c4.1,1.9,3.7,4.4,8.2,6.1c2.8,0.9,5.8,1.3,8.7,1c2.6-0.1,2.3-0.4,8.3-1
		c1.7-0.2,3.4-0.3,5.1-0.1c1.2,0.2,5.1,0.6,5.4,2.2c0.3,1.7-4.1,2.9-3.9,5.2c0.1,1.9,3.2,4.3,3.4,4.5c0.6,0.5,1.1,0.7,1,1
		c-0.1,0.7-3,0.9-5.1,0.8c-2.3-0.2-4.6-0.8-6.8-1.8c-4.1-1.8-3.9-2.6-7.4-4c-2.7-1.1-5.4-2.2-8.3-1.4c-4.1,1.1-6.8,5.4-6.1,6.4
		s4.4-2.2,8.2-0.7c3.5,1.3,3.5,5.3,6.4,5.7c2.4,0.3,3.1-2.1,6.1-2.2s3.6,2.6,7.3,3.6c2.9,0.8,7.1,0.4,9.1-2
		c3.2-3.7-0.2-10.5,1.4-11.1c1-0.4,2.9,2,5.2,4.6c3,3.6,3.8,5.6,5.2,5.6s2.6-2.9,2.9-3.4c0.4-1.2,0.6-2.4,0.6-3.7
		c0-1.4-0.1-1.6-0.1-2.6c0-1.4,0.9-5,2-5c1,0,1,2.5,3.4,5.8c0.9,1.2,2.8,3.8,4.1,3.4s2.2-4.4,0.7-7c-1.4-2.3-3.6-1.7-5.2-4.2
		s-1-5.2-2-5.3c-0.6-0.1-0.8,0.8-2.1,1.8c-1.2,0.8-2.7,1.2-4.1,1.3c-1.6,0.1-3.3-0.2-4.8-0.8c-2.1-0.9-3.7-2.6-4.8-4.6
		c-0.8-1.6-1.2-3.4-1.1-5.3c-0.2-2.6-0.3-5.1,1.1-7.8c1.2-2.2,3.1-4,5.4-4.9c1-0.4,4-1.6,6.5-0.4c1.8,0.9,2,2.3,3.3,2.3
		c1.5,0,1.8-2.2,4.1-3.7c1.2-0.7,1.8-0.6,5.2-1c5.1-0.7,7.6-1.1,9.2-2.4c2.2-1.7,2.9-4.9,2.1-5.6c-0.4-0.3-1.1,0-4.3,1.5
		c-5.6,2.7-6.2,3.1-6.7,2.8c-1.5-0.9-0.3-7,2.8-11.9c2.5-4,5.3-5.8,4.8-6.6s-3.4,0-5.8,1.5c-4.3,2.6-5.8,7.2-6.3,8.9
		c-0.6,1.9-0.9,3.8-1,5.7l0,0c-0.1,1.7-2.6,3-4.3,3.5c-1.3,0.4-3.1,0.9-4.5,0c-2.3-1.4-2.7-5.7-1.5-8.5c0.7-1.6,1.8-2.3,1.5-3.2
		c-0.4-1.3-2.6-0.7-4-2.2s-1.2-4.7-0.2-6.7c1.7-3.7,5.6-4.2,5.3-5.6s-3.9-2.4-6.6-1.2c-4.7,2.1-4.6,10.6-4.6,11.4
		c0,3.9,1.3,4.7,1.4,9.9c0,2.2,0.1,6.5-1.4,7c-1.2,0.4-3.4-2.1-4.2-4.7c-0.2-0.8-0.1-0.9-0.3-1.6c-0.8-3.1-3-3.3-4.9-6.2
		s-0.7-4.7-3.1-7.4c-0.7-0.8-1.6-1.8-1.7-1.8s0,0,0,0c-1.4-1.4-2.7-2.9-3.9-4.5c-1.1-1.5-0.7-1.4-1.7-2.8c-1.3-1.8-2.4-3.5-4.1-3.7
		c-2.7-0.4-6.1,2.8-5.6,4.7c0.4,1.6,3.2,1,7.3,3.6c0.4,0.2,5.4,3.5,4.8,5.7c-0.4,1.2-2.8,2.1-4.4,1.5c-2-0.8-2-3.2-3.3-3.3
		c-1.6-0.1-2.1,3.7-3.9,3.9c-2.8,0.3-4.5-8.7-8.3-8.7c-1.7,0.2-3.1,1.4-3.4,3.1c-0.5,3,4.5,6,7.4,7.3c3.1,1.4,4,0.8,10.2,2.2
		c4.7,1.1,7.2,2,8.8,2.9c1.3,0.8,2.7,1.7,2.6,2.7c-0.2,1.8-5.2,2.2-5.2,3.4s5.9,0.8,8.6,4.5c0.1,0.2,1.9,2.7,1.1,5.2
		c-0.9,3-4.5,2.8-5.2,5.2c-0.9,3.4,5.5,7.4,4.9,8.2s-4.9-1.3-8.3-4.7c-1.3-1.3-2.8-3-2.8-3c-2.7-3-3.1-3.8-3.7-3.6
		c-0.9,0.2-1.5,2.9-0.7,5.1c0.7,2,2.3,3.2,4.5,4.8s3.2,2.1,4.2,3.7c0.2,0.4,1.3,2.3,0.6,3.1c-1.1,1.3-6.2-1.4-7.3-1.9
		c-0.6-0.3-1-0.6-1.3-0.7c-5.1-3-7.7-4.4-8.2-4.8c-4.9-3.6-6.8-9.4-7.3-11c-1.4-4.2-0.8-6.4-2.1-6.9c-1.9-0.7-5.7,2.6-6,6.2
		c-0.2,2.3,1.1,4.1,1.9,5.4c1,1.5,1.4,1.4,4.9,4.7c1.6,1.5,2.4,2.4,4.1,4.2c2.8,3,2.9,3.4,2.7,3.7c-0.4,0.9-3.7,0.7-6.4-0.8
		c-2.4-1.4-2.3-2.8-4.7-4.3c-1.9-1.1-4.1-1.6-6.3-1.4c-4.6,0.4-8.7,3.9-8.2,5.1C111.2,115.5,112.1,115.5,113.9,115.6z"/>
	<path class="st1" d="M116.4,113.3c6.3,0.2,9.3,0.5,11.4,1.5c3.8,1.8,3.4,4,7.6,5.6c2.6,0.9,5.4,1.2,8.1,0.9
		c2.4-0.1,2.2-0.3,7.7-0.9c1.6-0.2,3.1-0.3,4.7-0.1c1.2,0.1,4.7,0.6,5,2c0.3,1.6-3.8,2.6-3.7,4.8c0.1,1.8,3,4,3.2,4.2
		c0.6,0.4,1,0.7,0.9,0.9c-0.1,0.7-2.8,0.9-4.7,0.7c-2.2-0.2-4.3-0.7-6.3-1.6c-3.8-1.6-3.6-2.4-6.9-3.7c-2.5-1-5-2-7.7-1.2
		c-3.8,1.1-6.3,5-5.6,6s4.1-2,7.6-0.7c3.3,1.2,3.2,4.9,6,5.2c2.2,0.3,2.9-2,5.7-2.1s3.3,2.4,6.8,3.2c2.7,0.7,6.6,0.3,8.5-1.9
		c3-3.4-0.1-9.7,1.4-10.3c0.9-0.4,2.7,1.8,4.8,4.2c2.8,3.3,3.5,5.1,4.8,5.1s2.4-2.6,2.7-3.2c0.4-1.1,0.6-2.3,0.6-3.4
		c0-0.3,0-0.6,0-0.9c0-0.9-0.1-1.2-0.1-1.5c0-1.1,0.7-2.1,1.7-2.6c0.8-0.2,1.7,0.7,3.4,2.5c3.8,4.1,5.2,5.6,6,5.2
		c0.3-0.1,0.4-0.4,0.5-0.8c0.8-2.2-0.9-4.4-1-4.6c-1-1.3-1.5-0.8-3-2.5c-1.1-1.2-0.7-2-1.8-3.2c-0.2-0.3-0.6-0.6-0.9-0.7
		c-1-0.3-2,0.5-3,1s-2.6,0.4-5.8,0.3s-4.8-0.1-5.6-1s-0.5-1.4-1.5-2.5c-1.2-1.3-2.2-1-2.9-1.9c-0.9-1.2,0.4-2.4,0.5-5.1
		c0.2-4.5-1.7-5.8-0.7-8.3c0.4-1,0.8-0.7,3.7-3.3c4-3.5,5.1-5.4,6.9-5.2c0.7,0.1,0.6,0.4,2.3,0.9c1.4,0.4,1.7,0.3,3.3,0.7
		c1.9,0.6,2,0.9,2.6,0.8c1.3-0.3,1.3-1.9,2.8-2.6c1.1-0.5,1.9-0.1,3.3,0.1c3,0.4,6.1-0.4,8.6-2.2c2-1.6,2.7-4.6,2-5.2
		c-0.4-0.3-1.1,0-4,1.4c-5.2,2.5-5.7,2.9-6.2,2.6c-1.4-0.9-0.3-6.5,2.6-11c2.3-3.7,4.9-5.3,4.5-6s-3.2,0-5.4,1.4
		c-2.9,1.9-5,4.8-5.9,8.2c-0.5,1.7-0.9,3.4-1,5.1l0,0c-0.1,1.6-2.5,2.8-4,3.3c-1.2,0.3-2.8,0.8-4.2,0c-2.1-1.3-2.5-5.2-1.4-7.8
		c0.6-1.4,1.6-2.1,1.4-3c-0.4-1.2-2.4-0.6-3.7-2s-1.1-4.3-0.2-6.2c1.6-3.4,5.2-3.9,5-5.1s-3.6-2.2-6.1-1.1c-4.4,2-4.3,9.8-4.3,10.6
		c0,3.6,1.2,4.3,1.3,9.2c0,2,0.1,6-1.3,6.4c-1.1,0.3-3.1-2-3.9-4.3c-0.1-0.5-0.2-1-0.3-1.5c-0.7-2.9-2.8-3-4.5-5.7s-0.6-4.3-2.8-6.9
		c-0.7-0.8-1.5-1.7-1.6-1.7s0,0,0,0c-1.3-1.3-2.6-2.7-3.7-4.1c-1-1.4-0.6-1.3-1.5-2.6c-1.2-1.6-2.2-3.2-3.8-3.4
		c-2.5-0.4-5.6,2.6-5.2,4.3c0.4,1.4,3,0.9,6.8,3.3c0.3,0.2,5,3.2,4.4,5.2c-0.3,1.1-2.6,2-4.1,1.4c-1.8-0.7-1.9-3-3.1-3
		c-1.5-0.1-2,3.4-3.6,3.7c-2.6,0.3-4.2-8-7.7-8c-1.6,0.2-2.9,1.3-3.2,2.9c-0.5,2.8,4.2,5.6,6.9,6.7c2.9,1.2,3.7,0.7,9.5,2
		c4.4,1,6.7,1.8,8.1,2.6c1.2,0.7,2.5,1.5,2.4,2.4c-0.2,1.7-4.8,2.1-4.8,3.2s5.5,0.7,8,4.2c0.1,0.2,1.7,2.5,1,4.8
		c-0.9,2.8-4.2,2.6-4.8,4.8c-0.9,3.2,5.1,6.9,4.6,7.5c-0.4,0.5-4.6-1.2-7.7-4.4c-1.2-1.2-2.6-2.7-2.6-2.7c-2.5-2.7-2.9-3.5-3.4-3.3
		c-0.9,0.2-1.4,2.7-0.6,4.7c0.6,1.8,2.1,2.9,4.2,4.4s3,1.9,3.9,3.4c0.2,0.4,1.2,2.2,0.6,2.9c-1,1.2-5.8-1.2-6.8-1.7
		c-0.6-0.3-1-0.5-1.2-0.6c-4.8-2.7-7.2-4.1-7.6-4.4c-4.6-3.3-6.3-8.7-6.8-10.1c-1.3-3.9-0.7-5.9-2-6.3c-1.8-0.6-5.3,2.4-5.6,5.8
		c-0.2,2.1,1,3.8,1.8,5c0.9,1.4,1.3,1.3,4.5,4.3c1.5,1.4,2.3,2.2,3.8,3.9c2.6,2.8,2.6,3.2,2.5,3.4c-0.4,0.8-3.5,0.7-5.9-0.7
		c-2.3-1.3-2.1-2.6-4.3-3.9c-1.8-1-3.9-1.5-6-1.3c-4.3,0.4-8.1,3.6-7.7,4.7C113.8,113.2,114.6,113.2,116.4,113.3z"/>
	<path class="st2" d="M120.7,112.7c5.6,0.1,8.3,0.4,10.1,1.2c3.4,1.5,3.1,3.5,6.8,4.8c2.3,0.7,4.8,1,7.2,0.8
		c2.1-0.1,1.9-0.3,6.9-0.8c1.4-0.2,2.8-0.3,4.2-0.1c1,0.1,4.2,0.5,4.4,1.7s-3.4,2.3-3.3,4.2c0.1,1.5,2.7,3.4,2.8,3.6
		c0.5,0.4,0.9,0.6,0.8,0.8c-0.1,0.6-2.5,0.8-4.2,0.6c-1.9-0.2-3.8-0.6-5.6-1.4c-3.4-1.4-3.2-2-6.1-3.1c-2.2-0.9-4.5-1.7-6.9-1
		c-3.4,0.9-5.6,4.4-5.1,5.2s3.6-1.8,6.8-0.6c2.9,1.1,2.8,4.2,5.3,4.5c2,0.2,2.6-1.7,5.1-1.8s3,2,6,2.8c2.4,0.6,5.9,0.2,7.6-1.7
		c2.7-3-0.1-8.4,1.3-9c0.9-0.3,2.5,1.6,4.2,3.7c4.2,5.1,5.1,8.3,6.5,8.1c1.2-0.2,2.6-2.9,2.1-5c-0.2-0.9-1.2-2.3-0.8-3.2
		c0.1-0.2,0.2-0.4,0.4-0.5c0.4-0.3,0.7-0.2,1.1-0.4s0.5-0.4,1.3-0.9c0.5-0.3,1-0.5,1.5-0.6c0.9-0.3,1.4-0.4,1.8-0.2
		c0.7,0.4,0.2,1.5,0.9,3c0.3,0.7,0.5,0.7,1.7,1.9c2.1,2.2,2.5,3.3,3.1,3.2s0.9-1.3,0.7-2.3s-0.6-1-2.1-2.7c-1.2-1.1-2.2-2.4-3-3.9
		c-0.1-0.3-0.3-0.6-0.6-0.8c-0.7-0.4-1.6,0.1-2.9,0.5c-1.2,0.4-2.5,0.6-3.8,0.6c-1.4,0.2-2.9,0.2-4.3,0c-2.4-0.2-4.2-0.4-6-1.7
		c-2-1.5-3.3-3.8-3.6-6.2c-0.2-1.9,0.4-2,0.7-5.2c0.5-5-1-6.2,0.2-8.5c0.8-1.5,1.4-0.8,4.1-3.7c1.7-1.8,2.1-2.8,3.6-3.4
		c1.1-0.4,2.3-0.6,3.4-0.5c1.7,0.1,2.1,0.6,4.1,1c1.5,0.4,3.2,0.5,4.8,0.3c1.9-0.3,2-1,5.1-1.9c0.8-0.2,1.5-0.4,3-0.7
		c3.6-0.8,4.1-0.7,4.8-1.3c1.3-1.2,1.6-3.7,0.8-4.3s-3.5,1-5.6,2.3c-1.9,1.2-3.9,2.8-5.4,2.3l-0.1-0.1c-1.2-0.7-0.2-5.6,2.4-9.6
		c2.1-3.2,4.4-4.7,4.1-5.3s-2.8,0-4.8,1.2c-2.6,1.7-4.5,4.2-5.3,7.2c-0.5,1.5-0.8,3-0.9,4.6l0,0c-0.1,1.4-2.2,2.5-3.6,2.8
		c-1.1,0.3-2.5,0.7-3.7,0c-1.9-1.1-2.2-4.5-1.2-6.8c0.6-1.2,1.5-1.8,1.2-2.6c-0.3-1-2.1-0.5-3.3-1.7s-0.9-3.8-0.1-5.4
		c1.4-3,4.7-3.4,4.5-4.5s-3.2-1.9-5.4-0.9c-3.9,1.8-3.9,8.6-3.9,9.2c0,3.1,1.1,3.7,1.1,8c0,1.8,0,5.2-1.2,5.6
		c-1,0.3-2.8-1.7-3.5-3.7c-0.2-0.6-0.1-0.7-0.2-1.3c-0.6-2.5-2.5-2.6-4-4.9s-0.5-3.7-2.5-5.9c-0.6-0.7-1.4-1.4-1.4-1.5s0,0,0,0
		c-1.2-1.1-2.2-2.3-3.2-3.6c-0.9-1.2-0.5-1.1-1.4-2.3c-1-1.4-2-2.8-3.4-2.9c-2.2-0.3-5,2.3-4.7,3.8c0.3,1.2,2.6,0.8,6,2.8
		c0.3,0.2,4.4,2.8,3.9,4.5c-0.3,1-2.3,1.7-3.6,1.2c-1.6-0.6-1.7-2.5-2.7-2.6c-1.3-0.1-1.8,3-3.3,3.2c-2.3,0.3-3.7-6.9-6.8-6.9
		c-1.4,0.2-2.5,1.2-2.9,2.5c-0.4,2.4,3.7,4.8,6.1,5.8c2.6,1.1,3.3,0.6,8.5,1.7c3.9,0.8,6,1.5,7.2,2.2c1,0.6,2.2,1.3,2.1,2.1
		c-0.1,1.5-4.3,1.8-4.3,2.8s4.9,0.6,7.1,3.6c0.9,1.2,1.2,2.7,0.8,4.1c-0.8,2.4-3.8,2.3-4.3,4.2c-0.8,2.8,4.5,5.9,4,6.5
		s-4.1-1-6.8-3.7c-1.1-1.1-2.3-2.3-2.3-2.3c-2.2-2.4-2.6-3-3-2.9c-0.8,0.2-1.2,2.3-0.6,4.1c0.6,1.6,1.9,2.5,3.7,3.8s2.7,1.6,3.4,3
		c0.2,0.3,1.1,1.8,0.5,2.5c-0.9,1-5.1-1-6-1.5c-0.5-0.2-0.9-0.4-1.1-0.6c-4.2-2.3-6.4-3.5-6.7-3.8c-4-2.8-5.6-7.5-6-8.7
		c-1.1-3.3-0.6-5.1-1.7-5.5c-1.6-0.5-4.8,2.2-5,5c0,1.6,0.5,3.1,1.6,4.3c0.8,1.2,1.1,1.1,4,3.7c1.3,1.2,2,1.9,3.4,3.3
		c2.3,2.4,2.3,2.7,2.2,2.9c-0.4,0.7-3.1,0.6-5.3-0.6c-2-1.1-1.9-2.2-3.9-3.4c-1.6-0.9-3.5-1.3-5.3-1.1c-3.8,0.3-7.2,3.2-6.9,4.1
		C118.4,112.7,119.1,112.6,120.7,112.7z"/>
</g>
</svg>
