<svg xmlns="http://www.w3.org/2000/svg" viewBox="0 0 438.13 212.11"><defs><style>.cls-1{fill:#e75a25;}.cls-2{fill:#ed7e23;}.cls-3{fill:#f99c1c;}.cls-4{font-size:40.17px;fill:#fff;font-family:ThanksgivingJoyRegular, Thanksgiving Joy;}.cls-5{letter-spacing:-0.05em;}.cls-6{letter-spacing:-0.01em;}.cls-7{letter-spacing:-0.06em;}</style></defs><g id="font3"><path class="cls-1" d="M113.94,115.58c6.75.24,10,.59,12.24,1.64,4.09,1.92,3.72,4.36,8.23,6.08a21.53,21.53,0,0,0,8.7,1c2.56-.06,2.34-.36,8.27-1a20.77,20.77,0,0,1,5.06-.1c1.25.16,5.07.63,5.38,2.15.34,1.7-4.11,2.85-3.93,5.23.14,1.91,3.25,4.33,3.45,4.49.61.47,1.08.73,1,1-.12.73-3,.92-5.06.76a20.92,20.92,0,0,1-6.76-1.81c-4.1-1.76-3.94-2.55-7.39-4-2.72-1.13-5.4-2.18-8.31-1.37-4.06,1.14-6.78,5.43-6.06,6.45s4.38-2.17,8.19-.71c3.52,1.34,3.47,5.27,6.43,5.66,2.38.32,3.07-2.13,6.08-2.22s3.6,2.57,7.27,3.55c2.9.77,7.1.35,9.15-2,3.18-3.68-.17-10.51,1.45-11.15,1-.4,2.94,2,5.17,4.62,3,3.62,3.78,5.58,5.2,5.55s2.63-2.85,2.86-3.41a10,10,0,0,0,.61-3.7c0-1.39-.14-1.58-.12-2.58,0-1.36.89-5,2-5,1,0,1,2.5,3.44,5.8.88,1.21,2.8,3.83,4.09,3.45s2.25-4.37.73-7c-1.37-2.35-3.56-1.65-5.25-4.23s-1-5.19-2-5.35c-.57-.1-.79.83-2.14,1.78a7.92,7.92,0,0,1-4.13,1.28,9.93,9.93,0,0,1-4.77-.85,10.17,10.17,0,0,1-4.77-4.56,11.8,11.8,0,0,1-1.14-5.27c-.16-2.57-.3-5.08,1.14-7.76a10.91,10.91,0,0,1,5.41-4.92c1-.42,4-1.61,6.54-.37,1.84.89,2,2.34,3.26,2.31,1.53,0,1.81-2.22,4.09-3.65,1.18-.74,1.84-.61,5.16-1,5.11-.65,7.61-1.1,9.25-2.37,2.17-1.67,2.91-4.92,2.15-5.59-.38-.34-1.15,0-4.3,1.5-5.61,2.71-6.17,3.11-6.67,2.8-1.5-.94-.29-7,2.75-11.88,2.47-4,5.31-5.76,4.83-6.55s-3.4,0-5.77,1.49c-4.27,2.63-5.82,7.18-6.32,8.88a23.37,23.37,0,0,0-1,5.7h0c-.05,1.71-2.64,3-4.32,3.51-1.29.36-3.06.87-4.51,0-2.32-1.41-2.74-5.69-1.5-8.5.69-1.55,1.78-2.26,1.47-3.24-.41-1.27-2.6-.69-4-2.15s-1.19-4.69-.24-6.73c1.71-3.66,5.59-4.21,5.33-5.55s-3.88-2.39-6.57-1.16c-4.68,2.14-4.63,10.62-4.62,11.44,0,3.88,1.34,4.66,1.43,9.94,0,2.22.1,6.54-1.35,7-1.23.36-3.38-2.12-4.23-4.66-.25-.77-.13-.87-.32-1.61-.78-3.11-3-3.26-4.85-6.2s-.7-4.65-3.07-7.45c-.71-.83-1.65-1.79-1.68-1.82s0,0,0,0a42,42,0,0,1-3.95-4.54c-1.08-1.52-.66-1.43-1.66-2.85-1.26-1.78-2.42-3.46-4.12-3.7-2.72-.4-6.05,2.84-5.61,4.67.37,1.56,3.21,1,7.26,3.55.37.23,5.41,3.49,4.76,5.68-.36,1.22-2.76,2.1-4.37,1.49-2-.75-2-3.19-3.34-3.26-1.61-.1-2.13,3.72-3.9,3.94-2.79.35-4.51-8.66-8.26-8.66a3.93,3.93,0,0,0-3.43,3.1c-.5,3,4.53,6,7.38,7.27,3.12,1.37,4,.75,10.24,2.22,4.69,1.1,7.21,2,8.75,2.88,1.27.76,2.72,1.65,2.63,2.66-.16,1.81-5.19,2.24-5.16,3.44s5.94.77,8.6,4.52c.13.17,1.86,2.68,1.08,5.16-.93,3-4.51,2.8-5.16,5.16-.95,3.42,5.5,7.44,4.95,8.17s-4.95-1.33-8.3-4.73c-1.33-1.35-2.78-3-2.78-3-2.67-3-3.13-3.79-3.69-3.64-.91.24-1.47,2.91-.68,5.13.7,2,2.31,3.17,4.51,4.81s3.25,2.07,4.2,3.73c.23.41,1.32,2.33.65,3.1-1.1,1.27-6.21-1.36-7.27-1.9-.6-.31-1-.56-1.29-.7-5.14-3-7.72-4.45-8.16-4.77-4.89-3.59-6.8-9.43-7.31-11-1.37-4.18-.78-6.4-2.15-6.89-1.9-.67-5.73,2.63-6,6.24-.19,2.26,1.06,4.09,1.93,5.38,1,1.48,1.4,1.39,4.9,4.71,1.61,1.53,2.44,2.43,4.1,4.23,2.78,3,2.87,3.42,2.74,3.67-.42.88-3.73.72-6.36-.78-2.44-1.39-2.29-2.79-4.69-4.26A11,11,0,0,0,119.3,110c-4.64.39-8.68,3.93-8.25,5.06C111.22,115.54,112.06,115.51,113.94,115.58Z"/><path class="cls-2" d="M116.37,113.26c6.28.21,9.3.53,11.37,1.49,3.81,1.76,3.45,4,7.65,5.6a20,20,0,0,0,8.08.92c2.38-.06,2.18-.34,7.7-.9a19.32,19.32,0,0,1,4.7-.1c1.16.14,4.71.57,5,2,.31,1.57-3.83,2.64-3.67,4.83.13,1.77,3,4,3.21,4.15.56.42,1,.66.94.95-.12.67-2.81.85-4.71.7a19.16,19.16,0,0,1-6.28-1.65c-3.81-1.61-3.65-2.35-6.86-3.66-2.53-1-5-2-7.73-1.24-3.77,1.05-6.31,5-5.65,6s4.09-2,7.62-.68c3.28,1.24,3.22,4.87,6,5.22,2.21.29,2.85-2,5.66-2.06s3.34,2.36,6.75,3.25c2.7.71,6.61.31,8.51-1.88,3-3.4-.13-9.7,1.37-10.29.93-.37,2.73,1.79,4.8,4.25,2.82,3.34,3.5,5.14,4.83,5.12s2.45-2.64,2.66-3.16a9.13,9.13,0,0,0,.58-3.42,7.8,7.8,0,0,0,0-.89c0-.87-.09-1.23-.09-1.49a2.81,2.81,0,0,1,1.67-2.55c.79-.19,1.66.72,3.38,2.54,3.84,4.06,5.21,5.57,6,5.2.26-.12.36-.38.53-.84.79-2.17-.85-4.44-1-4.6-1-1.34-1.49-.84-3-2.54-1.08-1.19-.71-2-1.8-3.19a2.23,2.23,0,0,0-.93-.73c-1-.35-2,.48-3,1s-2.55.43-5.77.35-4.78-.13-5.62-1-.47-1.42-1.5-2.49c-1.21-1.27-2.19-1-2.86-1.87-.87-1.17.35-2.45.48-5.07.21-4.48-1.73-5.83-.68-8.28.44-1,.76-.73,3.74-3.33,4-3.48,5.08-5.45,6.94-5.19.71.09.61.39,2.32.92,1.43.44,1.72.29,3.28.73,1.94.55,2,.91,2.63.78,1.34-.29,1.34-1.91,2.82-2.62,1.07-.51,1.92-.08,3.34.14a11.84,11.84,0,0,0,8.61-2.2c2-1.59,2.71-4.55,2-5.17-.36-.32-1.07,0-4,1.4-5.22,2.51-5.74,2.88-6.2,2.59-1.39-.86-.26-6.48,2.58-11,2.31-3.66,4.94-5.33,4.5-6s-3.16,0-5.37,1.39a14.39,14.39,0,0,0-5.89,8.2A21.46,21.46,0,0,0,185,88h0c-.05,1.59-2.46,2.81-4,3.26-1.19.33-2.84.8-4.19,0-2.15-1.3-2.53-5.25-1.37-7.84.64-1.44,1.65-2.09,1.36-3-.37-1.17-2.41-.63-3.69-2s-1.09-4.34-.21-6.22c1.6-3.38,5.21-3.89,5-5.13s-3.6-2.2-6.11-1.06c-4.36,2-4.32,9.82-4.32,10.57,0,3.58,1.24,4.29,1.31,9.17,0,2,.08,6-1.27,6.44-1.14.33-3.14-2-3.92-4.29a14,14,0,0,1-.29-1.49c-.72-2.87-2.81-3-4.5-5.71s-.64-4.29-2.84-6.87c-.66-.77-1.53-1.65-1.56-1.69s0,0,0,0A38.07,38.07,0,0,1,150.7,68c-1-1.4-.61-1.31-1.54-2.62-1.17-1.64-2.25-3.19-3.82-3.41-2.53-.36-5.63,2.64-5.23,4.32.35,1.44,3,.91,6.75,3.26.34.22,5,3.22,4.41,5.24-.34,1.13-2.57,2-4.06,1.39-1.84-.69-1.9-3-3.11-3-1.49-.08-2,3.44-3.63,3.65-2.59.33-4.18-8-7.66-8a3.67,3.67,0,0,0-3.2,2.87c-.47,2.77,4.2,5.56,6.85,6.7,2.9,1.25,3.71.68,9.52,2,4.36,1,6.69,1.79,8.13,2.64,1.17.69,2.52,1.51,2.44,2.44-.16,1.68-4.83,2.09-4.81,3.19s5.52.7,8,4.15c.11.16,1.72,2.47,1,4.77-.87,2.75-4.2,2.59-4.81,4.77-.89,3.16,5.1,6.86,4.58,7.54-.41.53-4.59-1.22-7.7-4.36-1.23-1.24-2.58-2.72-2.58-2.72-2.48-2.74-2.9-3.49-3.42-3.35-.85.22-1.37,2.69-.64,4.74.64,1.8,2.14,2.91,4.18,4.43s3,1.9,3.89,3.43c.22.38,1.23,2.15.6,2.86-1,1.18-5.77-1.24-6.75-1.74-.56-.28-1-.51-1.2-.64-4.78-2.73-7.17-4.09-7.57-4.39-4.55-3.31-6.32-8.69-6.78-10.11-1.27-3.86-.72-5.91-2-6.35-1.76-.62-5.33,2.43-5.61,5.77-.18,2.09,1,3.77,1.79,5,.93,1.36,1.3,1.28,4.54,4.34,1.5,1.4,2.27,2.23,3.81,3.89,2.57,2.77,2.65,3.15,2.54,3.39-.4.81-3.48.67-5.92-.71-2.26-1.28-2.11-2.57-4.35-3.92a10.18,10.18,0,0,0-6-1.32c-4.32.37-8.08,3.64-7.69,4.68C113.84,113.23,114.62,113.2,116.37,113.26Z"/><path class="cls-3" d="M120.68,112.67c5.59.14,8.28.39,10.11,1.21,3.38,1.51,3.05,3.47,6.77,4.81a18.34,18.34,0,0,0,7.2.75c2.12-.08,1.94-.31,6.86-.84a17.27,17.27,0,0,1,4.19-.12c1,.11,4.19.46,4.43,1.68s-3.42,2.31-3.3,4.22c.11,1.53,2.66,3.45,2.83,3.57.5.37.88.57.83.82-.11.59-2.5.76-4.19.65a17.51,17.51,0,0,1-5.59-1.4c-3.38-1.37-3.24-2-6.08-3.13-2.25-.88-4.46-1.7-6.88-1-3.37.94-5.65,4.4-5.07,5.22s3.65-1.78,6.79-.64c2.91,1.05,2.83,4.2,5.28,4.49,2,.23,2.56-1.74,5.06-1.84s3,2,6,2.79c2.4.59,5.88.22,7.6-1.7,2.67-3-.05-8.42,1.29-9,.89-.35,2.51,1.56,4.25,3.66,4.25,5.14,5.13,8.28,6.53,8.08,1.24-.18,2.55-2.95,2.05-5-.23-.95-1.16-2.27-.76-3.15a1.56,1.56,0,0,1,.38-.52c.36-.29.67-.23,1.13-.36s.51-.38,1.32-.86a6.58,6.58,0,0,1,1.49-.64c.95-.28,1.42-.43,1.77-.24.7.38.24,1.54.93,3,.31.66.53.68,1.73,1.94,2.13,2.24,2.52,3.34,3.09,3.19s.86-1.34.67-2.31-.64-1-2.1-2.67a18.21,18.21,0,0,1-3-3.86,1.65,1.65,0,0,0-.61-.84c-.72-.44-1.63.11-2.88.53a17.23,17.23,0,0,1-3.78.64,20.19,20.19,0,0,1-4.29,0c-2.4-.25-4.23-.45-6-1.72a9.55,9.55,0,0,1-3.65-6.24c-.25-1.91.39-2,.69-5.15.49-5-1-6.24.22-8.53.83-1.52,1.39-.76,4.15-3.72,1.69-1.82,2.08-2.75,3.61-3.42a7.48,7.48,0,0,1,3.42-.53c1.68.08,2.1.58,4.08,1a12,12,0,0,0,4.75.29c1.95-.34,2-1,5.13-1.94.78-.23,1.51-.39,3-.71,3.57-.77,4.11-.66,4.8-1.29,1.33-1.21,1.6-3.74.77-4.35s-3.53,1-5.59,2.32c-1.85,1.21-3.87,2.79-5.43,2.35l-.11-.05c-1.24-.74-.19-5.63,2.37-9.55,2.08-3.19,4.44-4.66,4.05-5.28s-2.81,0-4.79,1.24a12.86,12.86,0,0,0-5.31,7.17,18.33,18.33,0,0,0-.87,4.57h0c-.06,1.38-2.21,2.46-3.61,2.85-1.06.31-2.54.72-3.73,0-1.91-1.12-2.22-4.54-1.17-6.8.58-1.25,1.49-1.83,1.24-2.62-.32-1-2.15-.53-3.28-1.68s-.94-3.76-.14-5.39c1.45-3,4.67-3.43,4.47-4.5s-3.2-1.88-5.44-.88c-3.9,1.76-3.92,8.56-3.92,9.21,0,3.11,1.07,3.72,1.1,8,0,1.78,0,5.24-1.18,5.6-1,.29-2.78-1.67-3.46-3.7-.2-.62-.1-.7-.25-1.29-.62-2.49-2.48-2.59-4-4.93s-.54-3.72-2.47-5.94c-.59-.67-1.35-1.43-1.38-1.46s0,0,0,0a33.52,33.52,0,0,1-3.24-3.61c-.88-1.21-.53-1.14-1.35-2.27-1-1.41-2-2.75-3.38-2.94-2.25-.29-5,2.34-4.68,3.8.3,1.24,2.64.76,6,2.78.31.19,4.45,2.76,3.9,4.52-.31,1-2.31,1.71-3.63,1.23-1.63-.59-1.67-2.54-2.74-2.59-1.34-.06-1.79,3-3.27,3.2-2.31.3-3.66-6.91-6.77-6.88a3.31,3.31,0,0,0-2.86,2.51c-.44,2.42,3.7,4.8,6.05,5.78,2.58,1.06,3.3.56,8.46,1.69,3.88.84,6,1.51,7.23,2.24,1,.59,2.23,1.29,2.15,2.1-.15,1.46-4.31,1.84-4.3,2.8s4.91.57,7.09,3.55a5.06,5.06,0,0,1,.84,4.13c-.79,2.4-3.75,2.28-4.31,4.18-.82,2.75,4.49,5.93,4,6.52s-4.09-1-6.84-3.73c-1.08-1.07-2.27-2.35-2.27-2.35-2.19-2.37-2.57-3-3-2.89-.75.2-1.24,2.35-.6,4.12.56,1.57,1.88,2.52,3.69,3.82s2.68,1.63,3.45,3c.19.32,1.07,1.85.51,2.48-.92,1-5.13-1-6-1.47-.5-.24-.86-.44-1.07-.55-4.23-2.33-6.35-3.5-6.71-3.76-4-2.83-5.56-7.5-6-8.73-1.1-3.34-.59-5.12-1.72-5.5-1.57-.53-4.77,2.15-5,5a6.48,6.48,0,0,0,1.56,4.3c.82,1.17,1.15,1.09,4,3.73,1.32,1.21,2,1.93,3.36,3.35,2.27,2.39,2.34,2.72,2.24,2.93-.36.7-3.1.6-5.27-.57-2-1.1-1.87-2.22-3.85-3.38a9.08,9.08,0,0,0-5.3-1.1c-3.85.35-7.22,3.22-6.87,4.12C118.43,112.66,119.12,112.63,120.68,112.67Z"/><text class="cls-4" transform="translate(167.91 118.06)"><tspan class="cls-5">c</tspan><tspan x="14.14" y="0">or</tspan><tspan class="cls-6" x="47.92" y="0">a</tspan><tspan class="cls-7" x="67.4" y="0">l</tspan><tspan x="78.17" y="0">yn</tspan></text></g></svg>