<?xml version="1.0" encoding="utf-8"?>
<!-- Generator: Adobe Illustrator 26.0.0, SVG Export Plug-In . SVG Version: 6.00 Build 0)  -->
<svg version="1.1" id="Layer_1" xmlns="http://www.w3.org/2000/svg" xmlns:xlink="http://www.w3.org/1999/xlink" x="0px" y="0px"
	 viewBox="0 0 725 350" style="enable-background:new 0 0 725 350;" xml:space="preserve">
<style type="text/css">
	.st0{fill:#E75A25;}
	.st1{fill:#ED7F22;}
	.st2{fill:#F89C1C;}
	.st3{fill:#10587E;}
</style>
<g>
	<g>
		<g>
			<path class="st0" d="M14.71,234.03c28.2,1.02,41.78,2.5,51.1,6.86c17.1,8.02,15.54,18.21,34.4,25.42
				c12.73,4.87,24.76,4.55,36.31,4.25c10.7-0.28,9.79-1.52,34.58-4.02c8.9-0.9,14.16-1.29,21.1-0.42
				c5.22,0.65,21.18,2.65,22.46,8.98c1.43,7.1-17.14,11.89-16.4,21.82c0.59,7.98,13.58,18.11,14.43,18.77
				c2.53,1.95,4.48,3.03,4.25,4.31c-0.53,3.05-12.61,3.82-21.14,3.15c-8.74-0.69-17.28-2.86-28.24-7.56
				c-17.1-7.33-16.43-10.64-30.86-16.63c-11.38-4.72-22.56-9.09-34.72-5.69c-16.93,4.74-28.3,22.65-25.31,26.94
				c3.04,4.35,18.32-9.06,34.22-3c14.72,5.62,14.49,22.03,26.88,23.66c9.94,1.31,12.79-8.89,25.39-9.29
				c12.71-0.4,15.02,10.74,30.34,14.81c12.13,3.22,29.69,1.46,38.24-8.42c13.29-15.36-0.71-43.9,6.04-46.57
				c4.17-1.65,12.27,8.16,21.6,19.29c12.69,15.14,15.78,23.3,21.73,23.19c6.2-0.11,10.98-11.89,11.93-14.24
				c1.09-2.68,2.36-6.8,2.56-15.46c0.13-5.81-0.61-6.58-0.51-10.78c0.13-5.65,3.73-20.9,8.53-21.01c4.01-0.09,4.3,10.45,14.37,24.26
				c3.68,5.04,11.68,16,17.07,14.37c5.79-1.74,9.4-18.24,3.07-29.05c-5.75-9.83-14.87-6.87-21.93-17.66
				c-6.69-10.23-4.2-21.68-8.29-22.35c-2.38-0.39-3.28,3.49-8.92,7.44c-6.51,4.55-13.44,5.07-17.25,5.35
				c-8.99,0.67-16.1-1.83-19.93-3.57c-12.48-5.65-18.27-15.83-19.93-19.04c-3.9-7.55-4.28-14.02-4.76-22.01
				c-0.64-10.72-1.26-21.2,4.76-32.42c1.82-3.39,8.52-14.81,22.61-20.52c4.33-1.75,16.61-6.74,27.3-1.56
				c7.71,3.73,8.44,9.78,13.63,9.67c6.37-0.13,7.56-9.27,17.07-15.25c4.94-3.1,7.7-2.57,21.56-4.33
				c21.32-2.71,31.77-4.59,38.63-9.88c9.04-6.98,12.17-20.54,8.98-23.36c-1.61-1.43-4.8-0.06-17.97,6.29
				c-23.43,11.3-25.77,12.98-27.85,11.68c-6.26-3.93-1.22-29.33,11.48-49.62c10.33-16.51,22.16-24.04,20.17-27.32
				c-1.74-2.86-14.2,0.12-24.11,6.22c-17.81,10.97-24.27,29.96-26.39,37.07c-3.95,13.25-4.16,23.65-4.16,23.78c0,0,0,0,0,0
				c-0.22,7.17-11,12.68-18.05,14.68c-5.36,1.52-12.77,3.62-18.84-0.11c-9.66-5.92-11.43-23.79-6.24-35.51
				c2.87-6.47,7.42-9.43,6.12-13.55c-1.68-5.29-10.86-2.88-16.62-8.95c-6.33-6.68-4.95-19.63-1-28.11
				c7.14-15.31,23.35-17.58,22.28-23.2c-0.99-5.21-16.23-9.97-27.46-4.84c-19.56,8.93-19.34,44.37-19.29,47.78
				c0.22,16.19,5.59,19.43,5.95,41.48c0.15,9.27,0.45,27.34-5.63,29.12c-5.14,1.5-14.11-8.83-17.64-19.46
				c-1.06-3.2-0.55-3.61-1.34-6.74c-3.26-12.97-12.66-13.61-20.27-25.86c-7.67-12.35-2.92-19.44-12.81-31.11
				c-2.97-3.5-6.88-7.5-7.02-7.64c-0.08-0.09,0.07,0.07,0,0c-4.13-4.28-11.39-11.8-16.5-19c-4.5-6.33-2.75-5.95-6.93-11.86
				c-5.25-7.43-10.12-14.47-17.2-15.49c-11.38-1.64-25.27,11.89-23.44,19.52c1.56,6.49,13.39,4.11,30.34,14.81
				c1.55,0.98,22.56,14.59,19.87,23.72c-1.5,5.11-11.54,8.8-18.25,6.25c-8.25-3.15-8.55-13.33-13.96-13.65
				c-6.72-0.39-8.88,15.55-16.29,16.48c-11.64,1.47-18.83-36.16-34.5-36.19c-6.65-0.01-13.25,6.75-14.3,12.96
				c-2.12,12.54,18.89,25.18,30.82,30.38c13.03,5.69,16.67,3.13,42.77,9.26c19.59,4.61,30.1,8.18,36.55,12.04
				c5.27,3.15,11.35,6.88,10.98,11.08c-0.67,7.57-21.67,9.38-21.56,14.37c0.12,5.42,24.81,3.21,35.93,18.87
				c0.51,0.72,7.74,11.2,4.49,21.56c-3.9,12.44-18.82,11.69-21.56,21.56c-3.96,14.27,22.99,31.08,20.66,34.14
				c-1.84,2.42-20.64-5.57-34.66-19.78c-5.54-5.62-11.59-12.37-11.59-12.37c-11.17-12.42-13.09-15.81-15.41-15.19
				c-3.81,1.01-6.14,12.17-2.84,21.44c2.92,8.18,9.64,13.22,18.83,20.1c9.09,6.81,13.58,8.64,17.52,15.56
				c0.98,1.71,5.53,9.72,2.74,12.96c-4.59,5.3-25.96-5.67-30.36-7.93c-2.54-1.3-4.38-2.35-5.42-2.94
				c-21.47-12.38-32.21-18.57-34.05-19.92c-20.43-15-28.44-39.39-30.54-45.82c-5.73-17.45-3.27-26.71-8.98-28.75
				c-7.93-2.82-23.92,10.95-25.15,26.05c-0.77,9.45,4.43,17.08,8.09,22.46c4.21,6.18,5.85,5.79,20.47,19.67
				c6.72,6.38,10.19,10.13,17.12,17.64c11.6,12.56,11.96,14.29,11.45,15.35c-1.77,3.66-15.6,3-26.57-3.26
				c-10.18-5.8-9.54-11.66-19.6-17.79c-11.26-6.86-23.2-6.32-26.79-6.02c-19.41,1.63-36.26,16.39-34.46,21.11
				C3.35,233.87,6.86,233.75,14.71,234.03z"/>
			<path class="st1" d="M24.85,224.36c26.22,0.89,38.85,2.22,47.5,6.23c15.89,7.37,14.42,16.78,31.93,23.4
				c11.82,4.47,23.02,4.15,33.75,3.85c9.95-0.28,9.11-1.43,32.16-3.78c8.28-0.85,13.17-1.22,19.62-0.43
				c4.85,0.59,19.69,2.4,20.86,8.25c1.31,6.55-15.96,11.02-15.3,20.18c0.53,7.37,12.59,16.69,13.38,17.3
				c2.35,1.79,4.16,2.79,3.95,3.97c-0.5,2.81-11.74,3.56-19.66,2.96c-8.13-0.62-16.06-2.61-26.25-6.92
				c-15.89-6.73-15.26-9.79-28.66-15.28c-10.57-4.34-20.96-8.35-32.27-5.18c-15.76,4.41-26.36,20.97-23.59,24.92
				c2.82,4.01,17.05-8.4,31.82-2.84c13.68,5.15,13.42,20.31,24.94,21.79c9.24,1.19,11.91-8.23,23.62-8.63
				c11.82-0.4,13.94,9.89,28.18,13.61c11.27,2.95,27.6,1.29,35.57-7.86c12.39-14.2-0.57-40.53,5.71-43.01
				c3.88-1.53,11.39,7.5,20.05,17.77c11.76,13.95,14.62,21.47,20.15,21.36c5.77-0.12,10.23-11,11.12-13.17
				c1.02-2.48,2.21-6.28,2.41-14.28c0.04-1.58,0.01-2.75-0.05-3.72c-0.23-3.64-0.38-5.15-0.4-6.23c-0.09-4.29,3.37-9.78,7-10.65
				c3.26-0.78,6.93,3.01,14.11,10.61c16.03,16.96,21.72,23.28,24.93,21.73c1.08-0.53,1.48-1.59,2.19-3.54
				c3.32-9.06-3.54-18.53-4.04-19.2c-4.16-5.57-6.23-3.49-12.68-10.6c-4.51-4.96-2.98-8.41-7.53-13.32
				c-1.4-1.51-2.31-2.49-3.89-3.03c-4.27-1.47-8.3,1.97-12.34,4.02c-3.92,1.97-10.64,1.81-24.09,1.49
				c-13.27-0.32-19.98-0.55-23.5-4.16c-3.33-3.41-1.97-5.93-6.25-10.41c-5.07-5.31-9.15-4.04-11.96-7.83
				c-3.63-4.89,1.46-10.24,2-21.17c0.91-18.69-7.2-24.33-2.81-34.56c1.84-4.29,3.17-3.07,15.6-13.92
				c16.65-14.53,21.21-22.76,28.97-21.69c2.98,0.41,2.59,1.66,9.69,3.84c5.98,1.84,7.19,1.24,13.69,3.07
				c8.11,2.29,8.31,3.81,10.99,3.24c5.61-1.19,5.61-7.97,11.8-10.93c4.44-2.12,8.01-0.32,13.94,0.58
				c12.14,1.85,26.59-1.78,35.94-9.2c8.32-6.61,11.34-19,8.4-21.58c-1.5-1.31-4.46-0.05-16.72,5.84
				c-21.81,10.48-23.99,12.04-25.92,10.84c-5.82-3.62-1.07-27.07,10.77-45.84c9.64-15.27,20.66-22.24,18.81-25.27
				c-1.61-2.64-13.2,0.14-22.43,5.8c-16.58,10.17-22.63,27.71-24.62,34.28c-3.7,12.24-3.92,21.84-3.92,21.97v0
				c-0.22,6.62-10.26,11.73-16.82,13.59c-4.98,1.41-11.88,3.36-17.52-0.06c-8.97-5.45-10.57-21.94-5.72-32.77
				c2.68-5.98,6.92-8.73,5.71-12.52c-1.55-4.88-10.09-2.64-15.43-8.23c-5.87-6.16-4.56-18.11-0.87-25.95
				c6.67-14.15,21.75-16.28,20.77-21.46c-0.91-4.8-15.07-9.17-25.52-4.41c-18.21,8.28-18.07,41-18.04,44.16
				c0.17,14.95,5.16,17.93,5.45,38.29c0.12,8.56,0.36,25.24-5.3,26.89c-4.78,1.4-13.1-8.12-16.36-17.93
				c-0.98-2.96-0.51-3.33-1.23-6.22c-3-11.96-11.74-12.54-18.79-23.83c-7.1-11.38-2.68-17.94-11.85-28.7
				c-2.75-3.23-6.38-6.91-6.51-7.04c-0.08-0.08,0.06,0.06,0,0c-3.83-3.94-10.56-10.87-15.31-17.51c-4.17-5.84-2.55-5.49-6.42-10.94
				c-4.87-6.85-9.38-13.34-15.96-14.27C135.26,8.61,122.31,21.13,124,28.18c1.44,5.99,12.44,3.77,28.18,13.61
				c1.44,0.9,20.95,13.42,18.43,21.86c-1.41,4.72-10.75,8.15-16.98,5.8c-7.67-2.89-7.92-12.29-12.95-12.57
				c-6.25-0.34-8.29,14.37-15.19,15.25c-10.82,1.38-17.43-33.34-32-33.34c-6.18,0-12.34,6.26-13.33,12
				c-2,11.58,17.51,23.21,28.59,27.99c12.11,5.22,15.49,2.85,39.75,8.46c18.21,4.21,27.97,7.49,33.96,11.04
				c4.9,2.9,10.54,6.33,10.18,10.2c-0.64,6.99-20.17,8.7-20.08,13.32c0.1,5,23.07,2.92,33.37,17.34c0.47,0.66,7.17,10.32,4.13,19.9
				c-3.65,11.49-17.52,10.84-20.09,19.95c-3.71,13.18,21.31,28.65,19.14,31.47c-1.72,2.23-19.18-5.1-32.19-18.19
				c-5.14-5.17-10.75-11.39-10.75-11.39c-10.36-11.45-12.14-14.57-14.3-13.99c-3.54,0.94-5.74,11.25-2.68,19.8
				c2.7,7.55,8.94,12.18,17.47,18.51c8.44,6.26,12.61,7.95,16.26,14.33c0.9,1.58,5.13,8.96,2.52,11.96
				c-4.28,4.9-24.12-5.18-28.21-7.26c-2.36-1.2-4.07-2.16-5.03-2.71c-19.94-11.39-29.91-17.08-31.62-18.32
				c-18.97-13.8-26.36-36.31-28.31-42.24C87,144.85,89.31,136.3,84,134.43c-7.36-2.59-22.27,10.16-23.44,24.11
				c-0.74,8.72,4.08,15.76,7.47,20.72c3.9,5.7,5.42,5.33,18.99,18.12c6.23,5.88,9.45,9.34,15.88,16.25
				c10.76,11.58,11.09,13.17,10.61,14.15c-1.66,3.39-14.51,2.8-24.7-2.95c-9.45-5.34-8.85-10.74-18.18-16.38
				c-10.45-6.31-21.55-5.78-24.9-5.5c-18.05,1.55-33.75,15.21-32.09,19.56C14.29,224.23,17.56,224.12,24.85,224.36z"/>
			<path class="st2" d="M42.84,221.89c23.34,0.59,34.58,1.65,42.26,5.07c14.1,6.28,12.72,14.47,28.27,20.09
				c10.5,3.8,20.47,3.44,30.03,3.11c8.86-0.31,8.12-1.3,28.67-3.51c7.38-0.79,11.73-1.15,17.48-0.51
				c4.32,0.48,17.52,1.95,18.52,7.02c1.12,5.68-14.29,9.68-13.76,17.63c0.42,6.4,11.09,14.41,11.8,14.93
				c2.08,1.54,3.68,2.39,3.49,3.42c-0.46,2.45-10.48,3.17-17.53,2.7c-7.23-0.48-14.28-2.15-23.33-5.83
				c-14.1-5.73-13.52-8.39-25.42-13.07c-9.38-3.69-18.61-7.1-28.71-4.27c-14.06,3.94-23.62,18.4-21.18,21.81
				c2.48,3.46,15.25-7.42,28.36-2.69c12.15,4.38,11.81,17.54,22.06,18.75c8.22,0.97,10.66-7.23,21.1-7.66
				c10.53-0.43,12.35,8.49,25,11.62c10.02,2.48,24.57,0.92,31.74-7.07c11.13-12.42-0.23-35.19,5.39-37.39
				c3.72-1.46,10.48,6.53,17.73,15.29c17.78,21.47,21.43,34.57,27.28,33.73c5.2-0.75,10.65-12.33,8.59-20.89
				c-0.96-3.97-4.85-9.49-3.2-13.14c0.61-1.36,1.62-2.18,1.62-2.18c1.47-1.2,2.77-0.93,4.7-1.5c2.33-0.69,2.15-1.59,5.5-3.57
				c2.7-1.59,5.02-2.31,6.25-2.68c3.95-1.19,5.93-1.79,7.37-1.02c2.95,1.58,1,6.44,3.87,12.47c1.31,2.75,2.23,2.8,7.24,8.09
				c8.88,9.36,10.51,13.94,12.89,13.34c2.3-0.59,3.62-5.6,2.83-9.67c-0.72-3.69-2.69-4.19-8.77-11.15
				c-7.02-8.04-10.53-12.05-12.33-16.1c-0.57-1.27-1.09-2.66-2.54-3.53c-3.01-1.82-6.83,0.46-12.05,2.23
				c-4.2,1.42-8.06,1.84-15.76,2.68c-2.21,0.24-9.42,0.93-17.94,0.03c-10-1.06-17.66-1.87-25.15-7.19
				c-12.81-9.09-15.03-24.19-15.27-26.05c-1.05-7.97,1.63-8.41,2.89-21.52c2.03-21.08-4.29-26.06,0.92-35.6
				c3.49-6.38,5.81-3.2,17.32-15.56c7.08-7.6,8.72-11.49,15.07-14.28c5.8-2.54,11.41-2.34,14.28-2.21
				c7.04,0.32,8.79,2.41,17.05,4.19c4.8,1.04,11.83,2.56,19.83,1.19c8.18-1.4,8.55-4.31,21.43-8.1c3.26-0.96,6.32-1.62,12.43-2.95
				c14.9-3.23,17.17-2.76,20.04-5.39c5.56-5.09,6.67-15.62,3.2-18.19c-3.99-2.95-14.73,4.08-23.34,9.71
				c-7.72,5.05-16.18,11.63-22.66,9.82c-0.18-0.05-0.34-0.12-0.5-0.22c-5.15-3.1-0.76-23.5,9.92-39.88
				c8.69-13.32,18.55-19.46,16.93-22.07c-1.41-2.28-11.76,0.21-20.01,5.19c-14.84,8.94-20.35,24.22-22.17,29.94
				c-3.39,10.66-3.64,19-3.65,19.1c0,0,0,0,0,0c-0.24,5.75-9.22,10.26-15.07,11.92c-4.45,1.26-10.6,3.01-15.6,0.07
				c-7.95-4.67-9.26-18.98-4.87-28.42c2.43-5.21,6.22-7.63,5.18-10.91c-1.35-4.23-8.97-2.22-13.69-7.04
				c-5.19-5.3-3.94-15.69-0.59-22.53c6.04-12.34,19.48-14.29,18.65-18.78c-0.78-4.17-13.35-7.86-22.7-3.65
				c-16.28,7.32-16.38,35.73-16.37,38.47c0.05,12.98,4.47,15.53,4.59,33.21c0.05,7.43,0.14,21.91-4.91,23.39
				c-4.27,1.25-11.61-6.96-14.45-15.45c-0.85-2.56-0.43-2.89-1.05-5.39c-2.59-10.37-10.37-10.8-16.57-20.56
				c-6.25-9.84-2.26-15.56-10.35-24.84c-2.43-2.78-5.64-5.95-5.75-6.07c-0.07-0.07,0.05,0.05,0,0c-3.38-3.4-9.33-9.36-13.51-15.09
				c-3.67-5.04-2.23-4.75-5.64-9.45c-4.29-5.92-8.26-11.52-14.11-12.28c-9.41-1.22-21.03,9.74-19.57,15.85
				c1.24,5.19,11.05,3.18,25,11.62c1.28,0.77,18.56,11.51,16.26,18.85c-1.29,4.11-9.63,7.15-15.16,5.16
				c-6.81-2.45-6.97-10.62-11.45-10.82c-5.56-0.25-7.48,12.54-13.63,13.35c-9.65,1.28-15.29-28.83-28.27-28.73
				c-5.51,0.04-11.03,5.52-11.95,10.51c-1.86,10.07,15.43,20.03,25.27,24.1c10.75,4.45,13.78,2.37,35.34,7.07
				c16.18,3.53,24.86,6.31,30.17,9.35c4.34,2.48,9.34,5.42,9,8.79c-0.62,6.08-18.02,7.7-17.97,11.7c0.05,4.34,20.52,2.37,29.6,14.83
				c0.42,0.57,6.32,8.91,3.54,17.25c-3.33,10.01-15.68,9.53-18.03,17.46c-3.4,11.47,18.78,24.73,16.83,27.2
				c-1.54,1.95-17.05-4.29-28.54-15.57c-4.54-4.46-9.49-9.82-9.49-9.82c-9.15-9.87-10.71-12.56-12.63-12.05
				c-3.16,0.84-5.19,9.81-2.53,17.21c2.35,6.54,7.88,10.52,15.43,15.95c7.47,5.38,11.17,6.82,14.38,12.33
				c0.79,1.37,4.5,7.75,2.16,10.36c-3.84,4.29-21.45-4.33-25.07-6.11c-2.09-1.02-3.61-1.84-4.46-2.31
				c-17.68-9.75-26.52-14.62-28.03-15.69c-16.8-11.85-23.22-31.34-24.91-36.48c-4.6-13.94-2.48-21.39-7.2-22.97
				c-6.54-2.2-19.9,8.98-21.05,21.1c-0.72,7.58,3.52,13.66,6.51,17.94c3.43,4.92,4.79,4.59,16.78,15.6c5.51,5.06,8.35,8.04,14.03,14
				c9.5,9.98,9.79,11.36,9.35,12.21c-1.5,2.95-12.94,2.53-21.98-2.39c-8.38-4.57-7.81-9.27-16.08-14.1
				c-9.26-5.41-19.16-4.87-22.14-4.6c-16.09,1.47-30.17,13.44-28.71,17.21C33.43,221.85,36.34,221.73,42.84,221.89z"/>
		</g>
		<g>
			<path class="st3" d="M306.39,244.27c-1.7,1.33-3.91,2.48-6.49,3.31c-25.75,8.24-42.88-4.02-47.91-26.79
				c-3.29-14.85-2.58-45.33,13.5-55.37c9.28-5.85,17.41-7.73,28.2-6.46c8.59,1.01,14.06,7.61,12.93,15.48
				c-0.33,2.34-1.49,4.86-3.01,6.67c-3.2,3.81-9.76,4.16-12.06-1.97c-2.26-6.03-5.58-6.18-9.5-1c-3.82,5.05-9.59,41.09,5.22,52.71
				c3.38,3.39,7,4.82,11.43,2.03c0.22-0.14,0.44-0.26,0.68-0.36c5.18-2.17,9.19-1.72,10.85,1.2
				C311.77,236.46,310.39,241.15,306.39,244.27z"/>
			<path class="st3" d="M376.11,198.72c-0.25,15.01-4.28,30.1-16.98,39.42c-10.18,7.48-24.74,8.81-35,0.68
				c-11.92-9.44-15.49-27.82-14.52-42.27c0.96-14.27,7.43-28.47,20.85-34.93c0.27-0.13,0.55-0.26,0.83-0.38
				c7.92-3.56,20.36-3.24,28.11,1.17C371.13,169.1,376.41,180.68,376.11,198.72z M360.19,189.71c-0.48-6.92-5.64-11.63-10.5-12.01
				c-10.52-0.81-12.1,11.41-12,19.28c0.01,1.15,0.04,2.56,0.11,4.11c0.37,8.44,2.07,21.22,10.89,21.22
				C352.15,222.32,362.31,220.42,360.19,189.71z"/>
			<path class="st3" d="M443.69,238.42c-0.27,3.69-3.5,6.45-7.19,6.34c-5.77-0.17-18.75-15.16-22.77-21.3
				c-0.41,4.8-0.65,14.39-0.91,17.22c-1.02,11.2-9.79,17.82-19.88,15.08c-3.24-0.88-5.37-3-6.1-6.46c-0.78-3.7-1.65-7.45-1.79-11.21
				c-0.83-22.51-1.54-45.02-2.07-67.54c-0.7-20.05,5.76-23.07,13.6-23.5c49.71,0,49.67,33.31,45.2,46.45
				c-2.23,6.55-11.56,12.69-19.83,17.1c3.96,4.1,17.01,20.51,19.98,22.97C442.83,234.31,443.86,236.09,443.69,238.42z
				 M427.97,181.67c-0.65-8.23-6.6-14.21-16.08-14.97c0.15,11.85,0.43,17.07,0.43,30.32C421.5,194.96,428.71,190.96,427.97,181.67z"
				/>
			<path class="st3" d="M526.07,235.61c-0.09,1.73-0.39,3.56-1.16,5.13c-1.42,2.91-7.07,4.14-10.88,3.45
				c-3.42-0.62-4.21-2.85-4.37-5.42c-0.16-2.65-2.89-24.9-3.43-28.34c-0.51-3.18-1.63-5.03-5.38-5.03c-5.26,0-8.89-0.01-14.15,0.17
				c-4.02,0.14-6.51,2.01-7.04,5.67c-0.16,1.1-1.77,23.09-2.03,24.17c-1.69,7.24-5.48,9.66-13.82,8.85
				c-9.45-0.92-13.78-4.21-13.23-11.41c1.21-15.72,4.46-44.5,13.01-58.68c5.99-9.94,15.02-15.8,28.3-15.63
				c8.52,0.1,17.3,3.07,20.9,9.95c2.7,5.17,5.06,13.35,6.3,18.91c2.08,9.3,3.15,18.78,4.64,28.09
				C524.49,219.98,526.25,232.3,526.07,235.61z M500.47,179.18c-2.46-4.99-10.52-9.3-15.35,9.6c-0.95,3.71-0.76,5.92,2.32,5.93
				c4.82,0.02,8.9,0.04,12.73-0.05C503.23,194.58,506.82,192.35,500.47,179.18z"/>
			<path class="st3" d="M576.09,253.47c-2.91,0.75-4.88,0.73-7.64,1.08c-6.18,0.8-12.44,1.54-18.65,1.47
				c-9.03-0.1-13.74-3.91-15.36-12.7c-1.67-9.07-2.54-20.64-2.54-29.8c0-17.33,0.29-32.32,1.1-49.65c0.12-2.49,0.65-5.03,1.42-7.41
				c2.27-7.03,9.05-10.67,16.94-9.32c7.76,1.33,11.17,5.19,10.95,13.48c-0.33,12.03-2.27,58.47-2.26,69.67
				c0.01,9.18,0.54,9.68,9.5,9.23c1.42-0.07,2.85-0.2,4.26-0.12c4.15-0.41,5.43,1.71,6.3,4.75
				C581.11,247.65,580.6,252.81,576.09,253.47z"/>
			<path class="st3" d="M650.35,180.01c0,33.19,1.34,64.51-22.28,69.37c-22.84,4.71-45.86-2.54-44.44-20.75
				c0.41-5.28,8.28-8.02,12.46-8.02h0.44c3.37,0,8.93,2.65,9.15,6.02c0.23,3.7,2,15.76,9.07,13.82
				c10.25-2.82,10.48-15.88,9.64-32.38c-9.54,4.43-20.07,3.84-29.33-0.87c-4.44-2.26-8.88-5.76-11.48-9.78
				c-5.71-8.82-8.11-22.21-5.87-33.88c1.57-8.16,7.36-11.23,16.08-10.8c8.71,0.43,12.85,4.46,12.72,12.59
				c-0.05,3.1-3.83,29.06,8.32,31.07c4.86,0.8,9.87-1.82,9.87-12.96c0-4.9,0.12-13.11,0.12-28.46c0-9.47,17.27-8.45,20.29-7.69
				c3.36,0.85,4.81,3.32,4.81,6.32c0,6.34,0.78,15.03,0.43,23.43C650.35,177.98,650.36,178.97,650.35,180.01z"/>
			<path class="st3" d="M722.5,235.99c0.01,2.01-0.15,4.02-0.29,6.02c-0.27,3.88-2.13,6.65-5.86,7.96
				c-3.51,1.22-6.51-0.07-8.94-2.46c-1.77-1.74-3.35-3.78-4.55-5.95c-5.86-15.35-15.51-38-17.42-41.18c-0.22,1.57,0.2,5.1,0.29,6.65
				c0.53,8.52-0.08,25.94-0.56,37.39c-0.48,7.73-2.01,10.43-9.67,11.4c-8.16,1.03-17.77,0.49-17.55-11.46
				c0-25.13-1.24-52.43-0.46-72.6c0.19-4.81,0.77-9.85,6.57-11.48c6.37-1.79,12.58-1.62,17.46,3.55c2.04,2.16,3.54,4.87,5.05,7.47
				c4.65,8.05,16.81,28.38,18.33,30.45c0.89,1.38,1.83,2.65,1.73-0.64c0-2.39,0.06-4.78-0.01-7.16c-0.2-7.28-0.71-24.73-0.8-32.02
				c-0.07-5.93,1.58-8.38,5.71-9.19c4.19-0.82,10.72,0.85,10.72,11.56C722.44,179.38,722.44,220.92,722.5,235.99z"/>
		</g>
	</g>
</g>
</svg>
