<?xml version="1.0" encoding="UTF-8"?>
<svg id="polvo" xmlns="http://www.w3.org/2000/svg" viewBox="0 0 841.89 1190.55">
  <defs>
    <style>
      .cls-1 {
        fill: #1d1d1b;
      }

      .cls-2 {
        fill: #a2d6d9;
      }

      .cls-3 {
        fill: #4d7b9b;
        opacity: .45;
      }

      .cls-4 {
        fill: #a48bbc;
      }

      .cls-5 {
        fill: #8b99ba;
      }

      .cls-6 {
        fill: #acbae0;
      }
    </style>
  </defs>
  <g>
    <path class="cls-5" d="M339.43,543.41c4.01-6.83-37.79-23.93-49.34-59.46-12.15-37.4,15.39-76.2,21.03-84.13,30.39-42.71,77.64-49.77,84.13-50.63,12.85-1.71,53.76-7.14,84.13,20.25,28.77,25.96,32.42,67.26,28.82,88.8-5.1,30.54-10.13,43.62-10.13,43.62-1.57,2.88-3.61,7.16-5.14,12.62-1.92,6.81-3.35,16.53-1.35,17.24,1.05.38,2.09-2.09,5.13-5.05,4.63-4.5,10.09-6.14,20.83-9.23,3.38-.97,8.33-2.4,14.28-3.38,9.75-1.6,33.72-5.55,58.16,4.93,14.39,6.17,25.08,15.69,31.68,21.55,10.54,9.37,11.21,12.74,18.44,16.36,13.8,6.92,20.81-.6,39.21,1.82,26.4,3.47,44.33,23.19,50.11,30.38,6.43,7.99,9.61,15.11,13.76,24.41,5.47,12.24,11.65,26.08,11.94,42.58.09,5.22.75,41.9-24.15,54.53-16.24,8.24-39.6,4.33-48.56-8.31-5.52-7.79-5.42-18.67-4.06-19.1,1.32-.42,2.75,9.46,9.78,14.17,11.5,7.71,37.48,1.24,45.18-15.58,9.48-20.71-14.84-43.81-17.92-46.74-18.28-17.36-42.44-18-48.82-17.92-17.64.22-29.34,4.15-29.34,4.15-9.57,3.21-15.31,7.23-23.11,5.19-7.83-2.04-11.66-8.6-12.72-7.79-1.7,1.31,12.48,15.02,15.06,33.5,2.09,14.97-5.6,17.51-9.35,40.51-1.72,10.59-5.52,33.9,7.01,52.97,3.15,4.8,9.63,14.66,21.29,16.62,12.12,2.04,24.69-5.31,29.86-14.8,6.14-11.26.9-23.75,2.86-24.15,1.73-.36,7.19,9.21,5.71,19.47-1.04,7.2-5.1,12-7.53,14.8-9.27,10.68-21.68,13.67-27.78,15.06-5.67,1.29-22.48,4.85-40.77-3.64-17.79-8.26-31.33-25.31-34.02-43.1-.66-4.41.02-4.36,3.12-31.42,2.5-21.79,3.72-32.78,2.6-36.87-5.46-19.91-26.1-30.8-36.61-36.35-9.88-5.22-15.63-8.25-23.89-8.05-15.56.38-18.42,11.73-37.65,15.58-14.79,2.96-17.95-2.78-29.34,1.56-16.15,6.15-23.35,22.85-23.89,24.15-6.34,15.31,1.74,21.73,5.71,58.94,3.78,35.37-1.52,48.25-4.41,54.01-4.21,8.38-10.3,15.54-12.98,18.7-7.58,8.92-13.9,16.35-24.41,21.55-14.74,7.3-33.64,8.18-49.08,1.04-7.18-3.32-12.07-7.66-14.8-10.13-6.72-6.06-12.48-11.25-13.76-19.73-1.22-8.09,2.33-14.53,3.38-16.36,6.13-10.74,18.55-15.06,19.73-13.5,1.6,2.1-18.6,13.01-17.4,27.52.94,11.38,14.45,18.17,15.37,18.61,10.35,5.03,20.47,2.22,27.22.34,6.53-1.82,27.1-7.54,34.02-25.71,6.89-18.1-4.28-36.73-7.01-41.29-6.11-10.19-11.1-11.05-17.4-23.63-3.93-7.85-5.27-14.1-7.27-23.37-3.86-17.92-6.31-29.29-2.34-42.33,2.24-7.35,5.67-12.43,3.59-14.47-2.19-2.15-8.24,1.23-14.5,3.83,0,0-9.83,4.08-35.07,6.99-20.19,2.33-28.14-5.36-51.66-9.84-12.82-2.44-32.15-4.29-57.39.26-12.08,3.2-28.85,9.76-43.88,23.89-8.29,7.8-16.44,15.45-19.21,28.3-3.75,17.38,4.15,35.72,16.1,44.92,2.7,2.08,7.94,6.11,15.05,6.26,9.13.19,15.71-6.13,16.37-5.23.63.88-5.17,7.44-13.76,12.46-2,1.17-13.39,7.83-24.15,7.57-18.89-.46-34.39-22.22-40.25-38.21-12.13-33.1,6.76-69.72,24.93-89.58,23.14-25.3,59.81-39.34,92.7-36.61,30.47,2.52,44.98,18.41,63.73,8.17,10.87-5.94,17.09-17.34,37.53-24.53,5.74-2.02,13.93-4.17,13.94-4.15,0,0-5.4,1.22-11.61,3.64-12.33,4.81-21.22,11.78-23.04,13.24-6.01,4.8-7.08,7-13.11,10.45-5.8,3.32-10.02,4.26-11.04,4.48-3.9.83-8.04.95-14.22-.07-9.34-1.53-13.49-4.06-20.51-6.36-17.97-5.89-28.59-1.76-29.86-5.84-.43-1.37.23-3.57,16.64-16.38,11.75-9.17,17.54-13.92,24.42-17.38,8.51-4.29,17.78-8.96,29.97-9.15,10.54-.16,12.57,3.21,32.2,6.49,14.24,2.38,21.36,3.57,22.85,1.04Z"/>
    <path class="cls-5" d="M189.77,628.39c-8.19,11.58,18.02,44.41,24.59,52.65,12.44,15.59,25.83,28.11,35.61,49.36,1.52,3.3,2.77,6.86,3.86,11.05,5.43,20.98.2,34.67-1.38,38.43-1.92,4.55-6.43,15.23-16.79,20.25-16.61,8.05-36.63-4.11-37.05-2.94-.34.96,12.86,10.36,30.64,10.39,20.2.03,34.1-12.03,36.87-14.54,8.34-7.55,12.2-15.75,14.02-19.73,3.53-7.7,5.66-16.34,6.06-27.52.58-16.09,2.54-54.9-20.25-81.88-4.54-5.38-12.91-13.33-11.17-22.07,1.39-6.98,8.33-10.14,7-13.79-.87-2.39-4.61-3.13-17.8-3.98-15.18-.98-22.77-1.47-31.4-.67-13.76,1.28-20.65,1.93-22.82,5Z"/>
    <path class="cls-5" d="M212.98,514.33c3.3,3.4,3.54,7.88,3.89,7.79.6-.15,1.4-12.92-6.49-21.12-8.28-8.6-22.11-8.01-30.64-4.85-8.08,3-12.97,8.89-16.79,13.5-4.45,5.37-6.72,10.21-9,15.06-1.91,4.07-5.3,11.41-7.1,21.64-.98,5.59-2.35,13.86-.35,24.23.24,1.26,2.18,10.8,8.56,20.02,1.32,1.91,1.8,2.31,2.28,2.6,5.27,3.21,12-5.23,27.06-9.41,7.25-2.02,14.61-2.66,14.61-2.66,7.48-.66,10.07.19,14.52-1.92,4.39-2.09,7.07-5.4,8.71-7.42,2.41-2.97,5.45-6.72,4.41-8.37-1.68-2.7-11.43,4.49-23.03,2.51-11.44-1.96-18.09-11.72-18.7-12.64-8.65-13.02-6.3-34.6,5.54-41.2,6.81-3.8,17.41-3,22.5,2.25Z"/>
    <path class="cls-5" d="M727.63,542.11c-.06.39.78.13,1.17.22,13.29,3.15,19.94,4.73,25.06,8.35,2.7,1.91,7.48,5.3,9.69,11.53,2.81,7.93.66,18.39-5.58,23.4-10.48,8.4-28.75-1.59-30.82,2.88-1.47,3.17,8.28,7.07,13.59,19.54,4.19,9.83,3.36,19.69,5.28,19.75,1.05.03.94-2.95,3.39-5.61,4.12-4.47,10.48-.71,16.14-4.5,7.78-5.21,11.13-12.53,12.26-15.33,4.04-10.05,2.03-19.06.72-24.92-.95-4.27-3.25-14.55-10.91-22.59-13.69-14.37-39.98-12.74-39.99-12.72Z"/>
    <path class="cls-5" d="M510.34,613.26c1.24.65,3.85,2.44,9.04,22.59.94,3.65.97,4.96,2.04,7.35,2.18,4.86,5.1,6.69,6.27,12.91,2.82,14.95-10.35,30.7-17.92,40.51-10.07,13.05-15.82,13.89-20.25,25.71-4.73,12.59-3.89,24.93-3.89,24.93-1.26,15.61-2.34,18.95-3.12,18.96-1.11,0-1.17-6.92-4.93-16.1-2.56-6.23-5.32-9.85-7.01-12.46-10.92-16.93-8.23-40.78-7.79-44.66,1.27-11.29,4.18-13.56,6.45-20.02,1.53-4.36,1.98-7.82,2.38-11.4,2.11-19.08-4.49-28.05.96-34.27,3.54-4.04,6.54-.5,15.64-6.36,5.45-3.5,7.06-6.5,12.53-7.85,2.57-.64,6.3-1.56,9.61.19Z"/>
  </g>
  <path class="cls-6" d="M333.71,542.74c3.94-6.71-37.16-23.53-48.51-58.47-11.94-36.77,15.13-74.93,20.68-82.72,29.88-41.99,76.34-48.94,82.72-49.79,12.63-1.68,52.86-7.02,82.72,19.92,28.29,25.52,31.88,66.14,28.34,87.32-5.02,30.03-9.96,42.89-9.96,42.89-1.54,2.83-3.55,7.04-5.06,12.41-1.88,6.7-3.29,16.25-1.33,16.96,1.04.37,2.05-2.06,5.05-4.97,4.55-4.43,9.92-6.04,20.48-9.07,3.33-.96,8.19-2.36,14.04-3.32,9.58-1.58,33.16-5.46,57.19,4.85,14.15,6.07,24.66,15.42,31.15,21.19,10.36,9.21,11.02,12.52,18.13,16.08,13.57,6.8,20.46-.59,38.55,1.79,25.96,3.41,43.59,22.81,49.28,29.87,6.32,7.85,9.45,14.86,13.53,24,5.38,12.04,11.46,25.64,11.74,41.87.09,5.13.73,41.2-23.74,53.62-15.97,8.1-38.93,4.26-47.74-8.17-5.43-7.66-5.33-18.35-3.99-18.78,1.3-.42,2.7,9.3,9.61,13.93,11.3,7.58,36.85,1.22,44.43-15.32,9.32-20.37-14.59-43.08-17.62-45.96-17.97-17.07-41.73-17.7-48-17.62-17.34.22-28.85,4.09-28.85,4.09-9.41,3.16-15.05,7.11-22.72,5.11-7.7-2.01-11.47-8.46-12.51-7.66-1.67,1.29,12.27,14.77,14.81,32.94,2.06,14.72-5.51,17.22-9.19,39.83-1.7,10.41-5.43,33.33,6.89,52.09,3.1,4.72,9.47,14.41,20.94,16.34,11.91,2,24.27-5.22,29.36-14.55,6.04-11.07.89-23.35,2.81-23.74,1.7-.35,7.07,9.06,5.62,19.15-1.02,7.08-5.01,11.8-7.4,14.55-9.11,10.5-21.31,13.44-27.32,14.81-5.57,1.27-22.1,4.77-40.09-3.57-17.5-8.12-30.81-24.88-33.45-42.38-.65-4.34.02-4.28,3.06-30.89,2.45-21.43,3.66-32.23,2.55-36.26-5.37-19.58-25.66-30.29-36-35.74-9.72-5.13-15.37-8.11-23.49-7.92-15.3.37-18.11,11.53-37.02,15.32-14.54,2.91-17.65-2.73-28.85,1.53-15.88,6.05-22.96,22.47-23.49,23.74-6.24,15.05,1.71,21.37,5.62,57.96,3.72,34.78-1.5,47.45-4.34,53.11-4.14,8.24-10.13,15.28-12.77,18.38-7.45,8.77-13.67,16.08-24,21.19-14.49,7.17-33.07,8.04-48.26,1.02-7.06-3.27-11.87-7.54-14.55-9.96-6.61-5.96-12.27-11.06-13.53-19.4-1.2-7.96,2.29-14.28,3.32-16.08,6.03-10.56,18.24-14.81,19.4-13.28,1.57,2.06-18.29,12.79-17.11,27.06.92,11.19,14.21,17.87,15.11,18.3,10.18,4.95,20.13,2.18,26.76.34,6.42-1.79,26.65-7.41,33.45-25.28,6.77-17.8-4.21-36.11-6.89-40.6-6-10.02-10.92-10.86-17.11-23.23-3.86-7.72-5.18-13.86-7.15-22.98-3.8-17.62-6.21-28.8-2.3-41.62,2.2-7.23,5.58-12.22,3.53-14.23-2.15-2.12-8.1,1.21-14.26,3.76,0,0-9.67,4.01-34.48,6.87-19.86,2.29-27.66-5.27-50.8-9.68-12.61-2.4-31.61-4.22-56.43.26-11.87,3.14-28.37,9.6-43.15,23.49-8.16,7.67-16.16,15.19-18.89,27.83-3.69,17.08,4.08,35.12,15.83,44.17,2.65,2.04,7.81,6.01,14.8,6.16,8.98.19,15.45-6.03,16.09-5.14.62.87-5.09,7.31-13.53,12.26-1.97,1.15-13.16,7.7-23.74,7.44-18.57-.46-33.82-21.85-39.58-37.57-11.92-32.55,6.65-68.56,24.51-88.08,22.76-24.88,58.8-38.68,91.15-36,29.96,2.48,44.23,18.1,62.67,8.03,10.69-5.84,16.8-17.05,36.91-24.12,5.65-1.98,13.7-4.1,13.7-4.08,0,0-5.31,1.2-11.42,3.58-12.13,4.73-20.86,11.59-22.66,13.02-5.91,4.72-6.96,6.88-12.89,10.28-5.71,3.27-9.85,4.19-10.85,4.4-3.83.81-7.91.93-13.98-.06-9.18-1.51-13.26-3.99-20.17-6.26-17.67-5.79-28.11-1.73-29.36-5.74-.42-1.34.22-3.51,16.36-16.11,11.55-9.02,17.25-13.68,24.01-17.09,8.37-4.22,17.49-8.81,29.47-8.99,10.36-.15,12.36,3.15,31.66,6.38,14,2.34,21,3.51,22.47,1.02Z"/>
  <path class="cls-6" d="M186.55,626.3c-8.05,11.39,17.72,43.67,24.18,51.77,12.24,15.33,25.4,27.64,35.02,48.54,1.49,3.25,2.73,6.75,3.79,10.87,5.34,20.63.2,34.09-1.36,37.79-1.89,4.47-6.32,14.98-16.51,19.92-16.34,7.91-36.02-4.04-36.43-2.89-.34.94,12.64,10.18,30.13,10.21,19.86.03,33.53-11.83,36.26-14.3,8.2-7.42,11.99-15.49,13.79-19.4,3.47-7.57,5.56-16.07,5.96-27.06.57-15.82,2.5-53.98-19.92-80.51-4.47-5.29-12.69-13.1-10.98-21.7,1.37-6.86,8.19-9.97,6.89-13.56-.86-2.35-4.53-3.08-17.5-3.91-14.92-.96-22.39-1.45-30.87-.66-13.53,1.26-20.3,1.89-22.44,4.92Z"/>
  <path class="cls-6" d="M209.37,514.15c3.24,3.34,3.48,7.75,3.83,7.66.59-.15,1.37-12.7-6.38-20.77-8.14-8.46-21.74-7.88-30.13-4.77-7.95,2.95-12.75,8.74-16.51,13.28-4.38,5.28-6.61,10.04-8.85,14.81-1.88,4-5.21,11.22-6.98,21.28-.97,5.5-2.31,13.63-.34,23.83.24,1.24,2.14,10.62,8.41,19.68,1.3,1.88,1.77,2.27,2.24,2.56,5.19,3.16,11.8-5.14,26.61-9.26,7.13-1.98,14.36-2.62,14.36-2.62,7.35-.65,9.91.19,14.28-1.89,4.32-2.06,6.96-5.31,8.57-7.3,2.37-2.92,5.35-6.6,4.34-8.23-1.65-2.66-11.24,4.42-22.65,2.47-11.25-1.93-17.79-11.53-18.38-12.43-8.51-12.81-6.2-34.02,5.45-40.51,6.7-3.73,17.12-2.95,22.13,2.21Z"/>
  <path class="cls-6" d="M715.41,541.47c-.06.38.77.12,1.15.21,13.07,3.1,19.6,4.65,24.64,8.21,2.66,1.88,7.36,5.21,9.53,11.33,2.76,7.79.64,18.08-5.49,23-10.3,8.26-28.27-1.56-30.31,2.83-1.44,3.12,8.14,6.95,13.37,19.22,4.12,9.67,3.31,19.36,5.19,19.42,1.03.03.92-2.9,3.33-5.51,4.05-4.4,10.3-.7,15.87-4.43,7.65-5.12,10.95-12.32,12.05-15.07,3.98-9.88,2-18.74.71-24.5-.94-4.2-3.19-14.3-10.72-22.21-13.46-14.13-39.32-12.53-39.32-12.51Z"/>
  <path class="cls-6" d="M501.76,611.42c1.22.64,3.79,2.4,8.89,22.22.92,3.59.95,4.88,2.01,7.22,2.14,4.78,5.01,6.58,6.16,12.69,2.77,14.7-10.18,30.18-17.62,39.83-9.9,12.83-15.55,13.66-19.91,25.28-4.65,12.38-3.83,24.51-3.83,24.51-1.24,15.35-2.31,18.64-3.06,18.64-1.09,0-1.15-6.8-4.85-15.83-2.51-6.12-5.24-9.69-6.89-12.26-10.74-16.64-8.09-40.1-7.66-43.92,1.25-11.1,4.11-13.33,6.34-19.69,1.51-4.28,1.95-7.69,2.34-11.21,2.08-18.76-4.41-27.58.94-33.7,3.48-3.98,6.43-.49,15.38-6.26,5.36-3.45,6.95-6.39,12.32-7.72,2.53-.62,6.19-1.53,9.44.19Z"/>
  <g>
    <path class="cls-3" d="M337.13,542.74c4-6.71-37.7-23.53-49.22-58.47-12.12-36.77,15.35-74.93,20.98-82.72,30.32-41.99,77.45-48.94,83.93-49.79,12.82-1.68,53.63-7.02,83.93,19.92,28.7,25.52,32.34,66.14,28.75,87.32-5.09,30.03-10.1,42.89-10.1,42.89-1.57,2.83-3.6,7.04-5.13,12.41-1.91,6.7-3.34,16.25-1.34,16.96,1.05.37,2.08-2.06,5.12-4.97,4.62-4.43,10.07-6.04,20.78-9.07,3.38-.96,8.31-2.36,14.25-3.32,9.72-1.58,33.64-5.46,58.02,4.85,14.35,6.07,25.02,15.42,31.6,21.19,10.51,9.21,11.18,12.52,18.39,16.08,13.76,6.8,20.76-.59,39.11,1.79,26.33,3.41,44.22,22.81,49.99,29.87,6.41,7.85,9.58,14.86,13.73,24,5.46,12.04,11.62,25.64,11.92,41.87.09,5.13.74,41.2-24.09,53.62-16.2,8.1-39.5,4.26-48.44-8.17-5.51-7.66-5.4-18.35-4.05-18.78,1.32-.42,2.74,9.3,9.75,13.93,11.47,7.58,37.39,1.22,45.07-15.32,9.46-20.37-14.8-43.08-17.87-45.96-18.24-17.07-42.33-17.7-48.7-17.62-17.59.22-29.27,4.09-29.27,4.09-9.54,3.16-15.27,7.11-23.05,5.11-7.81-2.01-11.64-8.46-12.69-7.66-1.7,1.29,12.45,14.77,15.02,32.94,2.09,14.72-5.59,17.22-9.32,39.83-1.72,10.41-5.51,33.33,6.99,52.09,3.15,4.72,9.61,14.41,21.24,16.34,12.09,2,24.63-5.22,29.79-14.55,6.12-11.07.9-23.35,2.85-23.74,1.73-.35,7.18,9.06,5.7,19.15-1.04,7.08-5.09,11.8-7.51,14.55-9.25,10.5-21.62,13.44-27.72,14.81-5.65,1.27-22.42,4.77-40.67-3.57-17.75-8.12-31.26-24.88-33.93-42.38-.66-4.34.02-4.28,3.11-30.89,2.49-21.43,3.71-32.23,2.59-36.26-5.45-19.58-26.04-30.29-36.52-35.74-9.86-5.13-15.59-8.11-23.83-7.92-15.52.37-18.38,11.53-37.56,15.32-14.76,2.91-17.91-2.73-29.27,1.53-16.11,6.05-23.29,22.47-23.83,23.74-6.33,15.05,1.73,21.37,5.7,57.96,3.77,34.78-1.52,47.45-4.4,53.11-4.2,8.24-10.28,15.28-12.95,18.38-7.56,8.77-13.86,16.08-24.35,21.19-14.71,7.17-33.55,8.04-48.96,1.02-7.16-3.27-12.04-7.54-14.76-9.96-6.7-5.96-12.45-11.06-13.73-19.4-1.22-7.96,2.32-14.28,3.37-16.08,6.11-10.56,18.5-14.81,19.69-13.28,1.6,2.06-18.55,12.79-17.35,27.06.94,11.19,14.42,17.87,15.33,18.3,10.33,4.95,20.42,2.18,27.15.34,6.52-1.79,27.04-7.41,33.93-25.28,6.87-17.8-4.27-36.11-6.99-40.6-6.09-10.02-11.08-10.86-17.35-23.23-3.92-7.72-5.26-13.86-7.25-22.98-3.85-17.62-6.3-28.8-2.33-41.62,2.24-7.23,5.66-12.22,3.59-14.23-2.18-2.12-8.22,1.21-14.46,3.76,0,0-9.81,4.01-34.98,6.87-20.14,2.29-28.07-5.27-51.53-9.68-12.79-2.4-32.07-4.22-57.25.26-12.05,3.14-28.78,9.6-43.78,23.49-8.27,7.67-16.4,15.19-19.17,27.83-3.74,17.08,4.14,35.12,16.06,44.17,2.69,2.04,7.92,6.01,15.02,6.16,9.11.19,15.68-6.03,16.33-5.14.63.87-5.16,7.31-13.73,12.26-2,1.15-13.35,7.7-24.09,7.44-18.84-.46-34.31-21.85-40.15-37.57-12.1-32.55,6.75-68.56,24.87-88.08,23.09-24.88,59.66-38.68,92.47-36,30.4,2.48,44.87,18.1,63.58,8.03,10.84-5.84,17.05-17.05,37.44-24.12,5.73-1.98,13.9-4.1,13.9-4.08,0,0-5.39,1.2-11.59,3.58-12.3,4.73-21.17,11.59-22.99,13.02-6,4.72-7.06,6.88-13.08,10.28-5.79,3.27-10,4.19-11.01,4.4-3.89.81-8.02.93-14.18-.06-9.32-1.51-13.46-3.99-20.46-6.26-17.92-5.79-28.52-1.73-29.79-5.74-.42-1.34.22-3.51,16.6-16.11,11.72-9.02,17.5-13.68,24.36-17.09,8.49-4.22,17.74-8.81,29.89-8.99,10.52-.15,12.54,3.15,32.12,6.38,14.21,2.34,21.31,3.51,22.79,1.02Z"/>
    <path class="cls-3" d="M187.83,626.3c-8.17,11.39,17.98,43.67,24.53,51.77,12.41,15.33,25.77,27.64,35.52,48.54,1.52,3.25,2.77,6.75,3.85,10.87,5.41,20.63.2,34.09-1.38,37.79-1.91,4.47-6.41,14.98-16.75,19.92-16.57,7.91-36.54-4.04-36.95-2.89-.34.94,12.83,10.18,30.57,10.21,20.15.03,34.02-11.83,36.78-14.3,8.32-7.42,12.17-15.49,13.99-19.4,3.52-7.57,5.64-16.07,6.04-27.06.58-15.82,2.53-53.98-20.2-80.51-4.53-5.29-12.88-13.1-11.14-21.7,1.39-6.86,8.31-9.97,6.99-13.56-.87-2.35-4.6-3.08-17.76-3.91-15.14-.96-22.71-1.45-31.32-.66-13.73,1.26-20.6,1.89-22.76,4.92Z"/>
    <path class="cls-3" d="M210.98,514.15c3.29,3.34,3.53,7.75,3.89,7.66.59-.15,1.39-12.7-6.48-20.77-8.26-8.46-22.06-7.88-30.57-4.77-8.06,2.95-12.94,8.74-16.75,13.28-4.44,5.28-6.71,10.04-8.98,14.81-1.91,4-5.29,11.22-7.08,21.28-.98,5.5-2.34,13.63-.35,23.83.24,1.24,2.17,10.62,8.53,19.68,1.32,1.88,1.79,2.27,2.27,2.56,5.26,3.16,11.98-5.14,27-9.26,7.23-1.98,14.57-2.62,14.57-2.62,7.46-.65,10.05.19,14.49-1.89,4.38-2.06,7.06-5.31,8.69-7.3,2.4-2.92,5.43-6.6,4.4-8.23-1.68-2.66-11.41,4.42-22.98,2.47-11.41-1.93-18.04-11.53-18.65-12.43-8.63-12.81-6.29-34.02,5.53-40.51,6.79-3.73,17.37-2.95,22.45,2.21Z"/>
    <path class="cls-3" d="M724.37,541.47c-.06.38.78.12,1.17.21,13.26,3.1,19.89,4.65,25,8.21,2.7,1.88,7.46,5.21,9.66,11.33,2.8,7.79.65,18.08-5.57,23-10.45,8.26-28.68-1.56-30.75,2.83-1.46,3.12,8.26,6.95,13.56,19.22,4.18,9.67,3.35,19.36,5.26,19.42,1.05.03.94-2.9,3.38-5.51,4.11-4.4,10.45-.7,16.1-4.43,7.76-5.12,11.11-12.32,12.23-15.07,4.03-9.88,2.03-18.74.72-24.5-.95-4.2-3.24-14.3-10.88-22.21-13.66-14.13-39.89-12.53-39.89-12.51Z"/>
    <path class="cls-3" d="M507.62,611.42c1.24.64,3.84,2.4,9.02,22.22.94,3.59.97,4.88,2.04,7.22,2.17,4.78,5.09,6.58,6.25,12.69,2.81,14.7-10.33,30.18-17.87,39.83-10.04,12.83-15.78,13.66-20.2,25.28-4.71,12.38-3.89,24.51-3.89,24.51-1.26,15.35-2.34,18.64-3.11,18.64-1.11,0-1.16-6.8-4.92-15.83-2.55-6.12-5.31-9.69-6.99-12.26-10.89-16.64-8.21-40.1-7.77-43.92,1.27-11.1,4.17-13.33,6.44-19.69,1.53-4.28,1.98-7.69,2.37-11.21,2.11-18.76-4.48-27.58.96-33.7,3.53-3.98,6.52-.49,15.61-6.26,5.43-3.45,7.05-6.39,12.5-7.72,2.56-.62,6.28-1.53,9.58.19Z"/>
  </g>
  <ellipse class="cls-1" cx="432.22" cy="474.53" rx="12.77" ry="16.34"/>
  <ellipse class="cls-1" cx="359.87" cy="474.53" rx="12.77" ry="16.34"/>
  <path class="cls-2" d="M500.67,491.45c2.21,2.34-7.25,11.69-4.09,15.83,1.48,1.94,5.27,2.16,29.62-3.06,12.4-2.66,14.1-3.29,15.32-2.04,4.42,4.51-10.22,20.54-26.04,53.62-10.41,21.77-9.49,26.15-16.34,30.13-16.29,9.45-32.6-8.89-50.55.51-11.77,6.16-17.79,20.87-19.4,30.64-2.66,16.14,5.88,23.94-.51,35.23-4.65,8.22-13.6,11.93-16.85,13.28-8.37,3.47-12.95,1.96-21.45,3.06-10.8,1.41-27.68,7.02-35.23,18.38-11.1,16.7,2.93,38.26-4.6,42.38-5.43,2.97-16.85-5.98-22.47-14.81-1.41-2.22-8.97-14.1-4.6-24.51,4.04-9.62,13.73-7.13,27.06-18.38,13.53-11.42,9.24-18.77,21.45-28.08,14.74-11.24,24.79-3.43,34.72-12.77,14.02-13.18-1.85-32.66,10.21-51.57,14.98-23.5,54.38-16.81,57.7-33.7,1.84-9.34-9.83-13.33-8.68-25.53,1.76-18.71,31.36-32.16,34.72-28.6Z"/>
  <path class="cls-2" d="M177.68,531.26c2.35,1.19-.52,7.35,3.51,14.08,2.82,4.72,6.72,5.84,6.26,7.74-.5,2.06-5.12.86-11.57,3.44-6.39,2.56-5.93,5.38-13.22,8.97-6.95,3.42-9.25.81-12.52,4.3-3.15,3.35-2.68,7.16-6.54,9.05-1.59.78-3.06.81-4.58,2.5-.92,1.02-.62,1.27-2.25,3.79-1.45,2.24-2.02,2.57-2.55,4.11-.27.78-.66,1.92-.45,3.3.28,1.86,1.31,1.9,1.8,3.71.66,2.45-.87,3.69,0,5.13.89,1.47,3.18,1.31,3.17,1.99,0,.31-.51.49-1,.75-.13.07-1.55,1.11-4.38,3.2-1.59,1.17-2.38,1.75-2.95,2.23-2.39,1.99-2.65,2.74-3.33,2.71-1.59-.05-2.73-4.16-3.48-7.39-2.55-11.01-3.82-16.51-1.4-20.47,2.36-3.86,5.71-3.39,7.69-8.41.85-2.16.67-3.34,2.02-5.34,1.25-1.85,2.66-2.69,5.61-4.51,2.35-1.45,4.61-3.06,7.01-4.41,3.33-1.86,6.23-4.35,14.32-12.79,13.33-13.88,16.64-18.78,18.83-17.68Z"/>
  <g>
    <ellipse class="cls-4" cx="197.95" cy="647.91" rx="3.42" ry="7.26" transform="translate(-246.19 136.33) rotate(-23.97)"/>
    <ellipse class="cls-4" cx="208.98" cy="655.4" rx="3.42" ry="7.26" transform="translate(-248.28 141.46) rotate(-23.97)"/>
    <ellipse class="cls-4" cx="321.42" cy="406.35" rx="12.66" ry="6.49" transform="translate(-176.11 550.88) rotate(-67.85)"/>
    <ellipse class="cls-4" cx="338.68" cy="395.49" rx="7.26" ry="3.42" transform="translate(-100.73 674.84) rotate(-81.87)"/>
    <ellipse class="cls-4" cx="508.18" cy="657.88" rx="6.48" ry="3.06" transform="translate(-268.33 954.68) rotate(-73.23)"/>
    <ellipse class="cls-4" cx="500.69" cy="668.6" rx="4.4" ry="2.04" transform="translate(-232 1069.71) rotate(-81.87)"/>
    <ellipse class="cls-4" cx="508.55" cy="673.14" rx="4.26" ry="1.92" transform="translate(-208.61 1117.47) rotate(-84.71)"/>
    <ellipse class="cls-4" cx="600.42" cy="542.05" rx="4.16" ry="7.86" transform="translate(-207.43 583.33) rotate(-45)"/>
    <ellipse class="cls-4" cx="614.6" cy="552.86" rx="3.61" ry="6.58" transform="translate(-210.92 596.52) rotate(-45)"/>
    <ellipse class="cls-4" cx="603.11" cy="554.55" rx="1.81" ry="6.58" transform="translate(-215.48 588.89) rotate(-45)"/>
    <ellipse class="cls-4" cx="409.65" cy="756.42" rx="6.58" ry="2.38" transform="translate(-445.39 850.7) rotate(-67.85)"/>
    <ellipse class="cls-4" cx="402.28" cy="761.81" rx="4.72" ry="1.86" transform="translate(-454.97 847.23) rotate(-67.85)"/>
    <ellipse class="cls-4" cx="404.46" cy="768.19" rx="4.71" ry="1.35" transform="translate(-459.53 853.23) rotate(-67.85)"/>
    <ellipse class="cls-4" cx="301.53" cy="628.94" rx="3.8" ry="2.16" transform="translate(-176.03 120.58) rotate(-17.6)"/>
    <ellipse class="cls-4" cx="311.04" cy="628.15" rx="3.8" ry="2.16" transform="translate(-175.34 123.42) rotate(-17.6)"/>
    <ellipse class="cls-4" cx="306.18" cy="623.44" rx="2.29" ry="1.21" transform="translate(-174.15 121.73) rotate(-17.6)"/>
  </g>
</svg>