<?xml version="1.0" encoding="utf-8"?>
<!-- Generator: Adobe Illustrator 26.0.0, SVG Export Plug-In . SVG Version: 6.00 Build 0)  -->
<svg version="1.1" id="Layer_1" xmlns="http://www.w3.org/2000/svg" xmlns:xlink="http://www.w3.org/1999/xlink" x="0px" y="0px"
	 viewBox="0 0 41.82 16.98" style="enable-background:new 0 0 41.82 16.98;" xml:space="preserve">
<style type="text/css">
	.st0{fill:#26A6C8;}
	.st1{fill:#238BB2;}
	.st2{fill:#10587D;}
</style>
<path class="st2" d="M18.42,4.62c-0.14-0.48,0.26-1.02,0.46-1.3c0.73-1.01,1.89-1.14,1.86-1.25c-0.04-0.13-1.95-0.1-3.78,1.04
	c-0.89,0.56-0.87,0.82-1.74,1.27c-0.98,0.5-1.72,0.53-2.96,0.72c0,0-0.31,0.05-3.59,0.8C7.23,6.24,1.9,7.66,1.9,9.18
	c0.01,2.17,10.47,4.73,13.84,3.88c0.24-0.06,1.05-0.36,1.79,0c0.43,0.21,0.44,0.45,1.22,1.17c0.47,0.44,0.86,0.8,1.44,1.06
	c0.5,0.22,1.36,0.46,1.53,0.21c0.25-0.39-1.56-1.42-1.35-2.21c0.26-0.99,3.29-0.19,7.74-1.52c2.9-0.87,4.04-1.31,4.04-1.31
	c1.61-0.62,1.94-0.87,2.63-0.81c2.07,0.21,3.1,2.87,3.6,2.63c0.37-0.18-0.31-1.57-0.3-3.39c0.02-3.19,2.16-5.42,1.86-5.63
	c-0.29-0.21-1.61,2.26-4.46,3.5c-1.86,0.81-3.54,0.74-4.76,0.68c-0.37-0.02-4.29-0.18-4.54-1.44C26.01,5.26,27.15,4.55,27,4.34
	c-0.17-0.24-1.5,0.8-3.18,1.25C21.49,6.22,18.72,5.67,18.42,4.62z"/>
</svg>
