<?xml version="1.0" encoding="utf-8"?>
<!-- Generator: Adobe Illustrator 26.0.0, SVG Export Plug-In . SVG Version: 6.00 Build 0)  -->
<svg version="1.1" id="Layer_1" xmlns="http://www.w3.org/2000/svg" xmlns:xlink="http://www.w3.org/1999/xlink" x="0px" y="0px"
	 viewBox="0 0 60.89 27.57" style="enable-background:new 0 0 60.89 27.57;" xml:space="preserve">
<style type="text/css">
	.st0{fill:#26A6C8;}
	.st1{fill:#238BB2;}
	.st2{fill:#10587D;}
</style>
<path class="st2" d="M26.73,7.82c-0.33-0.61,0.01-1.4,0.34-2.16c0.82-1.9,2.14-2.58,1.99-2.84c-0.21-0.35-3.16,0.29-5.38,2.5
	c-1.44,1.43-1.27,2.23-2.59,3.05c-1.43,0.9-2.66,0.59-4.75,0.68c-2.48,0.1-4.15,0.66-7.38,1.75c-3.81,1.28-7.25,2.44-7.35,4.13
	c-0.12,2.02,4.55,4.13,7.79,4.94c2.54,0.63,8.78,1.6,12.67,0.79c0.56-0.12,1.86-0.43,3.03,0.21c0.69,0.37,0.67,0.72,1.79,1.66
	c0.63,0.53,1.39,1.16,2.5,1.53c0.75,0.25,2.07,0.5,2.25,0.13c0.3-0.61-2.97-2.03-2.75-3.19c0.25-1.32,4.7-0.31,11.44-2.25
	c2.43-0.7,4.89-1.32,7.32-2c1.81-0.51,2.24-0.63,2.97-0.58c3.66,0.28,5.74,4.51,6.32,4.15c0.46-0.29-1.43-2.67-1.44-5.97
	c-0.02-3.84,2.51-6.52,1.99-6.91c-0.53-0.39-2.45,3-6.27,3.89c-0.43,0.1-0.77,0.14-5.56-0.29c-5.34-0.48-6.59-0.69-6.91-1.53
	c-0.43-1.14,1.23-2.6,0.89-2.92c-0.39-0.37-2.22,2-5.3,2.46c-0.3,0.04-1.56-0.07-4.07-0.3C27.8,8.52,27.04,8.39,26.73,7.82z"/>
</svg>
