<?xml version="1.0" encoding="utf-8"?>
<!-- Generator: Adobe Illustrator 26.0.0, SVG Export Plug-In . SVG Version: 6.00 Build 0)  -->
<svg version="1.1" id="Layer_1" xmlns="http://www.w3.org/2000/svg" xmlns:xlink="http://www.w3.org/1999/xlink" x="0px" y="0px"
	 viewBox="0 0 66.08 28.79" style="enable-background:new 0 0 66.08 28.79;" xml:space="preserve">
<style type="text/css">
	.st0{fill:#26A6C8;}
	.st1{fill:#238BB2;}
	.st2{fill:#10587D;}
</style>
<path class="st1" d="M29.63,9.1C29.27,8.44,29.64,7.58,30,6.76c0.89-2.06,2.32-2.8,2.16-3.08C31.93,3.3,28.73,4,26.33,6.39
	c-1.56,1.55-1.38,2.42-2.8,3.31c-1.55,0.97-2.88,0.64-5.14,0.73c-2.68,0.11-4.5,0.72-7.99,1.89c-4.13,1.39-7.85,2.64-7.96,4.48
	c-0.13,2.19,4.93,4.48,8.44,5.35c2.75,0.68,9.51,1.74,13.73,0.86c0.61-0.13,2.01-0.47,3.28,0.22c0.75,0.41,0.72,0.78,1.94,1.8
	c0.68,0.58,1.51,1.26,2.71,1.65c0.82,0.27,2.24,0.54,2.43,0.14c0.32-0.66-3.22-2.2-2.98-3.45c0.28-1.43,5.1-0.34,12.39-2.43
	c2.64-0.76,5.29-1.43,7.93-2.17c1.96-0.55,2.43-0.69,3.22-0.63c3.96,0.31,6.22,4.89,6.84,4.5c0.5-0.31-1.55-2.89-1.56-6.47
	c-0.02-4.16,2.72-7.07,2.16-7.48c-0.58-0.43-2.65,3.25-6.79,4.22c-0.46,0.11-0.84,0.15-6.02-0.31c-5.78-0.52-7.14-0.75-7.48-1.65
	C42.2,9.7,44,8.12,43.64,7.77c-0.42-0.4-2.4,2.17-5.74,2.66c-0.32,0.05-1.69-0.08-4.41-0.32C30.79,9.87,29.97,9.73,29.63,9.1z"/>
</svg>
