<?xml version="1.0" encoding="utf-8"?>
<!-- Generator: Adobe Illustrator 26.0.0, SVG Export Plug-In . SVG Version: 6.00 Build 0)  -->
<svg version="1.1" id="Layer_1" xmlns="http://www.w3.org/2000/svg" xmlns:xlink="http://www.w3.org/1999/xlink" x="0px" y="0px"
	 viewBox="0 0 41.36 34.6" style="enable-background:new 0 0 41.36 34.6;" xml:space="preserve">
<style type="text/css">
	.st0{fill:#26A6C8;}
	.st1{fill:#238BB2;}
	.st2{fill:#10587D;}
</style>
<path class="st2" d="M2.25,23.56C1.89,22.29,2.95,21.27,5,18.3c3.41-4.93,3.44-6.4,5-8.48c5.19-6.91,18.78-9.15,22.38-4.83
	c2.84,3.41-1.04,10.97,1.27,12.08c1.57,0.75,4.4-1.92,4.96-1.27c0.47,0.55-1.77,2.25-1.48,4.45c0.3,2.31,3.17,3.51,2.88,4.07
	c-0.35,0.68-4.23-1.71-5.98-0.38c-1.99,1.52,1.08,6.13-0.89,8.39c-2.25,2.58-9.33,0.11-14.16-1.57c-4.06-1.41-3.42-1.78-8.05-3.39
	C5.46,25.46,2.75,25.33,2.25,23.56z"/>
</svg>
