<?xml version="1.0" encoding="utf-8"?>
<!-- Generator: Adobe Illustrator 26.0.0, SVG Export Plug-In . SVG Version: 6.00 Build 0)  -->
<svg version="1.1" id="Layer_1" xmlns="http://www.w3.org/2000/svg" xmlns:xlink="http://www.w3.org/1999/xlink" x="0px" y="0px"
	 viewBox="0 0 93.83 38.17" style="enable-background:new 0 0 93.83 38.17;" xml:space="preserve">
<style type="text/css">
	.st0{fill:#26A6C8;}
	.st1{fill:#238BB2;}
	.st2{fill:#10587D;}
</style>
<path class="st2" d="M52.51,10.96c0.63-2.34-4.37-5.02-3.73-6.1c0.5-0.84,4.05-0.06,6.95,1.78c2.18,1.39,2.91,2.68,4.07,3.81
	c3.66,3.59,8.5,1.68,14.92,3.39c5.15,1.37,15.44,4.11,15.43,7.29c-0.02,4.83-23.85,10.55-31.53,8.65c-0.6-0.15-2.31-0.71-4.07,0
	c-1.9,0.77-1.99,2.27-4.15,3.9c-2.15,1.62-4.93,2.3-5.34,1.7c-0.55-0.8,3.55-3.16,3.05-5.09c-0.68-2.58-8.38,0.54-17.63-3.39
	c-2.44-1.04-6.03-3.01-11.28-3.02c-0.58,0-1.39,0-2.45,0.14c-7.15,0.92-10.65,6.12-11.87,5.26c-1.03-0.73,1.83-4.17,1.76-9.5
	c-0.08-5.9-3.68-9.71-2.8-10.37c0.88-0.66,3.74,3.84,9.86,6.3c4.03,1.62,7.53,1.57,10.85,1.53c0.97-0.01,10.85-0.15,11.36-2.88
	c0.32-1.71-3.21-3.59-2.92-4.03c0.31-0.47,3.96,2.35,8.89,3.14C46.41,14.2,51.9,13.19,52.51,10.96z"/>
</svg>
