<?xml version="1.0" encoding="utf-8"?>
<!-- Generator: Adobe Illustrator 26.0.0, SVG Export Plug-In . SVG Version: 6.00 Build 0)  -->
<svg version="1.1" id="estrela" xmlns="http://www.w3.org/2000/svg" xmlns:xlink="http://www.w3.org/1999/xlink" x="0px" y="0px"
	 viewBox="0 0 434.1 364.7" style="enable-background:new 0 0 434.1 364.7;" xml:space="preserve">
<style type="text/css">
	.st0{fill:#C6601B;}
	.st1{fill:#E5803C;}
	.st2{fill:#1D1D1B;}
	.st3{fill:#EAA25C;}
</style>
<g>
	<path class="st0" d="M212.6,0c-11.1,0.1-20.4,22.6-37.6,65.1c-10.7,26.4-14.5,40-29,49c-6.5,4-10.9,4.5-27.7,7.4
		c-51.7,9-75.2,16.2-94.7,26.3C12,153.7-0.4,160.3,0,168.3c0.1,2.1,1.3,7.6,32.1,20.7c16.9,7.2,33,12.4,53.7,18.6
		c12.6,3.7,23.2,6.5,30.6,8.4c-10.7,13-25.6,32-42.1,55.9c-29.5,42.8-50.6,73.8-41.1,86.8c6.8,9.3,26.8,5.5,36.8,3.6
		c34.1-6.6,50.5-28,85.8-54.9c13.5-10.3,34.5-25,62.8-39.8c140.9,85.3,184,96,193,85c4.5-5.5,0.8-17-3.6-30.6
		c-7.4-23-20.2-37-43.1-61.5c-24.6-26.3-42.7-45.4-51.2-54.4c101.7-25.5,121.2-41,120.4-50.6c-1.3-15.8-59.4-27.7-65.2-28.9
		c-13.8-2.8-19.3-2.5-55.8-8.4c-22.5-3.6-33.7-5.4-35.7-6.6c-21.6-12.7-17-38-43.9-86.8C220.5,1.4,215.5,0,212.6,0L212.6,0z"/>
	<path class="st1" d="M213.1,18.5c-10,0.1-18.4,20.4-33.9,58.6c-9.6,23.8-13,36.1-26.1,44.1c-5.8,3.6-10.2,4.3-24.9,6.7
		c-55.8,9-65,10.7-76.8,15.6c-3.8,1.6-35.6,14.9-34,27.1c0.3,2.3,2,5.7,33.3,18c24.5,9.6,43,15.1,48.3,16.7
		c11.4,3.4,20.9,5.9,27.6,7.6c-9.7,12-23,29.1-37.9,50.3C59,305.5,39,334.4,47.7,346.5c5.2,7.3,18.9,5.6,27.4,4.6
		c33.6-4.1,50.3-27.8,86.9-55.9c12.6-9.6,31.4-22.8,56.5-35.9c132.6,80.2,174,91.3,182.1,81.2c5.9-7.3-4-27.7-9.1-38.2
		c-9.7-20-21.8-30.1-41.4-49.4c-11.5-11.3-27.5-27.8-46.1-49c96-26.3,114.7-40.5,113.7-48.6c-1.4-11.8-45.2-19.6-64-23
		c-12.5-2.2-19.9-2.6-50.2-7.5c-20.2-3.3-30.3-4.9-32.2-6c-19.4-11.4-15.3-34.2-39.5-78.2C220.2,19.7,215.7,18.4,213.1,18.5
		L213.1,18.5z"/>
</g>
<ellipse class="st2" cx="191.6" cy="173.5" rx="7.5" ry="12.4"/>
<ellipse class="st2" cx="240.5" cy="173.5" rx="7.5" ry="12.4"/>
<ellipse transform="matrix(0.6004 -0.7997 0.7997 0.6004 -121.6534 229.5751)" class="st3" cx="168.9" cy="236.5" rx="10.4" ry="21.8"/>
<ellipse transform="matrix(0.7071 -0.7071 0.7071 0.7071 -86.597 263.9188)" class="st3" cx="275.3" cy="236.5" rx="21.9" ry="10.4"/>
<ellipse transform="matrix(0.9639 -0.2664 0.2664 0.9639 -32.9588 85.0376)" class="st3" cx="297" cy="164" rx="10.4" ry="21.8"/>
<ellipse class="st3" cx="213.4" cy="123.5" rx="21.9" ry="10.4"/>
<ellipse transform="matrix(0.2827 -0.9592 0.9592 0.2827 -65.4088 261.2358)" class="st3" cx="142" cy="174.4" rx="21.9" ry="10.4"/>
<ellipse transform="matrix(0.6004 -0.7997 0.7997 0.6004 -153.7736 215.0141)" class="st3" cx="138.3" cy="261.4" rx="9.6" ry="19.6"/>
<ellipse transform="matrix(0.6443 -0.7648 0.7648 0.6443 -172.8098 191.157)" class="st3" cx="119.1" cy="281.3" rx="8.7" ry="18.3"/>
<ellipse transform="matrix(0.6004 -0.7997 0.7997 0.6004 -202.2398 198.4422)" class="st3" cx="97.5" cy="301.6" rx="6.3" ry="13.1"/>
<ellipse transform="matrix(0.6004 -0.7997 0.7997 0.6004 -228.7441 192.8147)" class="st3" cx="78.6" cy="325.3" rx="4.2" ry="8.9"/>
<ellipse transform="matrix(0.7071 -0.7071 0.7071 0.7071 -96.8952 288.7828)" class="st3" cx="300.1" cy="261.4" rx="18.3" ry="8.7"/>
<ellipse transform="matrix(0.7071 -0.7071 0.7071 0.7071 -103.4253 313.0266)" class="st3" cx="326.1" cy="281.4" rx="14.9" ry="8.2"/>
<ellipse transform="matrix(0.7071 -0.7071 0.7071 0.7071 -110.7149 335.8434)" class="st3" cx="350" cy="301.6" rx="12.4" ry="5.8"/>
<ellipse transform="matrix(0.7071 -0.7071 0.7071 0.7071 -115.2021 355.4542)" class="st3" cx="371.5" cy="316.8" rx="10.8" ry="4.8"/>
<ellipse transform="matrix(0.9766 -0.2149 0.2149 0.9766 -24.8072 85.7548)" class="st3" cx="382" cy="157" rx="5.8" ry="12.4"/>
<ellipse transform="matrix(0.9766 -0.2149 0.2149 0.9766 -25.7338 80.7016)" class="st3" cx="358.3" cy="158.7" rx="8.1" ry="14.9"/>
<ellipse transform="matrix(0.9766 -0.2149 0.2149 0.9766 -27.2695 74.5658)" class="st3" cx="329.3" cy="162.7" rx="8.7" ry="18.3"/>
<ellipse transform="matrix(0.2827 -0.9592 0.9592 0.2827 -87.2389 224.5655)" class="st3" cx="106.5" cy="170.6" rx="18.3" ry="8.7"/>
<ellipse transform="matrix(0.3541 -0.9352 0.9352 0.3541 -108.6326 176.3697)" class="st3" cx="73.4" cy="166.8" rx="14.9" ry="8.1"/>
<ellipse transform="matrix(0.3541 -0.9352 0.9352 0.3541 -123.5645 149.0671)" class="st3" cx="46.1" cy="164" rx="12.4" ry="5.8"/>
<path class="st3" d="M231.7,96.4c0,4.8-8.2,8.7-18.3,8.7s-18.3-3.9-18.3-8.7s8.2-8.7,18.3-8.7S231.7,91.5,231.7,96.4z"/>
<ellipse class="st3" cx="213.4" cy="66.8" rx="14.9" ry="8.1"/>
<path class="st3" d="M225.8,40c0,3.2-5.5,5.8-12.4,5.8c-6.8,0-12.4-2.6-12.4-5.8c0-3.2,5.5-5.8,12.4-5.8S225.8,36.8,225.8,40z"/>
</svg>
