<svg xmlns="http://www.w3.org/2000/svg" viewBox="0 0 200 180"><defs><style>.cls-1{fill:#324241;}.cls-2{fill:#565656;}</style></defs><g id="Layer_4" data-name="Layer 4"><path class="cls-1" d="M189.51,36.33c2.59-2.38,5-4.5,6.13-8.17,2.3-7.19-1.22-16.23-7.15-20.94-8.66-6.86-20.88-3.26-25-2-16.87,5-23.13,17.64-40.32,36.85-12.42,13.88-22.91,22.64-34.24,32.09-37.35,31.17-73.42,44.23-83.23,68.93a24.17,24.17,0,0,0-1.53,14.3c2.07,9.17,10.82,18.22,20.42,19.4,5.17.64,10.55-1,39.77-25.74,10.85-9.18,17.43-15.11,17.43-15.11,19.28-17.37,25.66-23.83,41.87-38.81,27.28-25.21,40.92-37.82,44.93-40.85C176.26,50.44,182.41,42.84,189.51,36.33Z"/><path class="cls-2" d="M7.05,140c1.35,2.59,7.6-1.63,15.55,1.73,8.16,3.45,14,13.17,14.3,22.13.15,5.82-2.16,8.3-1,9.26,3.13,2.64,22-14.87,52-42.72C102.3,116.94,117,103.7,131.25,90.06c0,0,27.4-26.17,38.35-34.61.59-.45,2.72-2.07,5.4-4.52,2.49-2.27,3-3.06,5.9-5.87,3.81-3.77,4.18-3.69,7.66-7.15,1.21-1.2,6.66-6.68,6.06-7.39-.32-.39-1.94,1.21-5,1.45a13.24,13.24,0,0,1-5-.76,31.58,31.58,0,0,1-6.25-2.49c-3.94-2.1-6.57-3.49-8.75-6.58-.63-.88-3.76-5.31-3.06-10.66.52-4,3-7.06,2.16-7.75-.29-.23-.72,0-2.23.52-2.87,1-2.92.8-4.78,1.48a52.05,52.05,0,0,0-13,7.22,42.72,42.72,0,0,0-7,7.14c-6.18,7.86-31.22,36-52.84,54C70,89.84,41.81,107.67,38.26,109.91c0,0-4.95,3.13-11.92,8.68C21,122.84,4.83,135.74,7.05,140Z"/></g></svg>