<svg xmlns="http://www.w3.org/2000/svg" viewBox="0 0 180 210"><defs><style>.cls-1{opacity:0.54;}.cls-2{fill:#303030;}.cls-3{fill:#3c3f3f;}.cls-4{fill:#212121;}</style></defs><g id="Layer_3" data-name="Layer 3"><g class="cls-1"><path class="cls-2" d="M74.15,167.65c-28-43.49-61.1-33-64.15-58.14C8.19,94.6,17.94,75.25,27.42,73.46c14.63-2.76,21.15,37.71,42,39.54,10.82,1,23.54-8.72,25.34-20.93C98,69.83,63.22,52.17,66.23,29.27,68,15.83,82.16,5.26,94,6c5.13.33,9.68,2.79,49.1,59.31,1,1.43,8.83,12.71,18.22,29.07,8.76,15.26,13.14,22.9,13.46,27.91,1.36,21.11-21.85,39.5-48.31,60.47-16.15,12.8-22.81,14.78-29.3,12.79C86.56,192.34,82.39,180.46,74.15,167.65Z"/><path class="cls-3" d="M69.58,175.45c-28-43.49-61.1-33-64.15-58.14-1.81-14.91,8-34.26,17.43-36C37.48,78.5,44,119,64.83,120.8c10.83,1,23.54-8.72,25.34-20.93C93.46,77.63,58.66,60,61.66,37.07c1.76-13.44,15.94-24,27.72-23.26,5.13.33,9.68,2.79,49.11,59.31,1,1.43,8.82,12.71,18.21,29.07,8.76,15.26,13.14,22.9,13.46,27.91,1.37,21.11-21.84,39.5-48.31,60.47-16.15,12.8-22.81,14.78-29.3,12.79C82,200.14,77.82,188.27,69.58,175.45Z"/><path class="cls-4" d="M10.09,117.28c1.07,5.5,4.64,8,11.36,12.84,7.93,5.66,9.42,3.88,20.11,10.63,1.12.71,4.62,2.95,9.55,5.91s7.43,4.44,7.55,4.13c.38-1-11-16.77-27.45-25.1-6.65-3.35-11.68-4.27-14-10.82-2.78-8,1-17.19-.22-18C15.55,96,8.19,107.54,10.09,117.28Z"/><path class="cls-4" d="M91.91,106.42c-1-.71,2.22-8,.55-15.72-.72-3.34-2.12-5.5-4.93-9.82-3.9-6-6.92-8.31-6.63-9.08s3.71.92,6.33,3a23.26,23.26,0,0,1,4.53,4.87,21.33,21.33,0,0,1,4,9.38,28.74,28.74,0,0,1,.15,5.61c-.1,3.11-.2,5.6-1.26,8.12C93.92,104.48,92.52,106.85,91.91,106.42Z"/><path class="cls-4" d="M81.3,17c5.07-2.62,8-1.66,9.83-.22,1.52,1.22,1.65,2.34,4.46,4.94,2.59,2.4,3.48,2.37,5.52,4.43s1.81,2.78,4.28,6c4,5.36,6.2,5.45,9,10.72,1.06,2,2.07,4.42,1.8,4.79s-2.13-2.58-5.88-6.13c-3.24-3.06-3.36-2.57-6-5.24s-3.12-3.81-5.73-6.06a18,18,0,0,0-4.07-2.88c-1.94-.93-4-1.95-6.29-1-1.37.61-2.42,1.91-4.52,4.51s-2.65,3.85-3.07,3.54c-.91-.66,1.93-7.58,0-11.44-1.27-2.56-3.87-2.27-3.88-3.4C76.76,19.06,77.56,18.16,81.3,17Z"/></g></g></svg>