<svg id="Layer_1" data-name="Layer 1" xmlns="http://www.w3.org/2000/svg" viewBox="0 0 167.21 126.61"><defs><style>.cls-1{fill:#1d89b5;}.cls-2{fill:#27a4ca;}.cls-3{fill:#72c6e0;}</style></defs><path class="cls-1" d="M34,26.39c-8.2,17.17-9.15,21.81-13.79,31.15C9.94,78.32,1.76,81.41,3.91,86.65c3.38,8.23,23.24-.13,51.58,8.17,20.21,5.92,20.3,13.16,45.95,22.47,17.78,6.45,38.56,14,47,5.61,9.69-9.63-8.51-28.82,0-56.68,6.2-20.28,21.45-28.46,18.38-33.19-4.94-7.65-39.58,21.75-73,10.72C67.1,35,55.71,5.21,43.74,10.05,42.57,10.53,41.19,11.41,34,26.39Z"/><path class="cls-2" d="M30.47,16.87C22.28,34,21.32,38.68,16.69,48,6.38,68.8-1.8,71.88.35,77.13,3.72,85.36,23.59,77,51.92,85.3c20.22,5.91,20.31,13.16,46,22.46,17.78,6.46,38.55,14,47,5.62,9.68-9.63-8.51-28.83,0-56.68,6.19-20.28,21.44-28.46,18.38-33.19-5-7.65-39.58,21.75-73,10.72-26.69-8.8-38.08-38.55-50-33.7C39,1,37.63,1.89,30.47,16.87Z"/><path class="cls-3" d="M28.51,28.93C27.17,26.85,36.67,22,39.24,11.06c.74-3.16.48-5,1.79-5.62,2.38-1.1,6.17,3.74,14,11.49C66,27.7,71.22,30.72,70.39,32.25s-7.63.79-12.77-2.81C49.93,24.06,49.67,15,46.39,15.14S43.32,24,36.17,27.91C33.18,29.55,29.3,30.14,28.51,28.93Z"/><path class="cls-3" d="M78.05,41.7c-.35.14,2.68,5.17,3.57,13C83,66.33,78,69.85,78.56,79.23c.8,13.41,12,23.19,12.76,22.72.64-.37-5.1-7-6.38-18.38-1-9.28,2.08-11.15,1.28-20.43C85.15,50.79,78.52,41.51,78.05,41.7Z"/><path class="cls-3" d="M142.9,48.6c-.58-.23-4.22,7.86-5.11,18.45,0,.24-.09,1.13-.14,2.24-.76,16.84,6.34,30.95,3.21,33.78-1,.87-2.73.5-3.83-.31C128.19,96.31,144.28,49.12,142.9,48.6Z"/><path class="cls-3" d="M87.74,53.94c-.27.11,2.13,4.12,2.85,10.37,1,9.25-2.89,12.06-2.44,19.54.64,10.69,9.53,18.48,10.17,18.11s-4.07-5.62-5.09-14.65c-.83-7.4,1.66-8.89,1-16.28C93.4,61.18,88.12,53.78,87.74,53.94Z"/><path class="cls-3" d="M72.35,57.61a41.36,41.36,0,0,1,1.8,7.93c.67,7.06-1.83,9.21-1.54,14.91.4,8.17,6,14.12,6.43,13.83S76.47,90,75.82,83.09c-.52-5.64,1.05-6.78.65-12.43C75.93,63.15,72.59,57.5,72.35,57.61Z"/></svg>