<svg xmlns="http://www.w3.org/2000/svg" viewBox="0 0 250 291.67"><defs><style>.cls-1{opacity:0.54;}.cls-2{fill:#303030;}.cls-3{fill:#3c3f3f;}.cls-4{fill:#212121;}</style></defs><g id="Layer_3" data-name="Layer 3"><g class="cls-1"><path class="cls-2" d="M149.21,57.63c38.35,62.34,85.52,48.46,89.12,84.1,2.14,21.14-12.21,48.25-25.67,50.51-20.78,3.49-28.85-54-58.28-57.14-15.29-1.65-33.56,11.67-36.45,28.9-5.28,31.37,43.46,57.35,38.56,89.67-2.88,19-23.23,33.52-39.89,32.12-7.24-.6-13.61-4.22-67.79-85.31-1.37-2-12.13-18.24-25-41.66C11.89,137,5.91,126.05,5.6,119,4.27,89,37.64,63.67,75.68,34.75,98.89,17.1,108.37,14.49,117.5,17.48,132.34,22.35,137.92,39.27,149.21,57.63Z"/><path class="cls-3" d="M155.89,46.72c38.35,62.34,85.52,48.46,89.13,84.1,2.14,21.14-12.22,48.25-25.68,50.51-20.78,3.49-28.85-54-58.28-57.14-15.29-1.65-33.55,11.67-36.45,28.9-5.28,31.37,43.46,57.35,38.56,89.67-2.88,19-23.23,33.52-39.89,32.12-7.24-.6-13.61-4.21-67.79-85.31-1.37-2-12.13-18.24-25-41.66-12-21.84-17.95-32.77-18.26-39.87-1.33-29.91,32-55.28,70.08-84.2C105.58,6.19,115.05,3.58,124.19,6.57,139,11.44,144.6,28.36,155.89,46.72Z"/><path class="cls-4" d="M238.42,130.73c-1.36-7.81-6.34-11.52-15.71-18.5-11.05-8.23-13.22-5.76-28.15-15.61-1.56-1-6.46-4.3-13.35-8.63s-10.38-6.5-10.56-6.06c-.57,1.43,15,24,38.13,36.29,9.31,4.94,16.4,6.38,19.44,15.71,3.72,11.4-1.94,24.3-.19,25.44C230.09,160.71,240.84,144.56,238.42,130.73Z"/><path class="cls-4" d="M122.34,143.76c1.44,1.05-3.37,11.28-1.23,22.24.93,4.75,2.85,7.84,6.69,14,5.36,8.62,9.57,11.95,9.14,13s-5.22-1.41-8.88-4.46a32.88,32.88,0,0,1-6.27-7,30.31,30.31,0,0,1-5.35-13.38,39.94,39.94,0,0,1,0-7.94c.23-4.4.44-7.92,2-11.45C119.43,146.46,121.49,143.15,122.34,143.76Z"/><path class="cls-4" d="M134.81,270.57c-7.25,3.55-11.42,2.11-13.91,0-2.12-1.76-2.28-3.36-6.17-7.11-3.6-3.48-4.86-3.46-7.69-6.43s-2.48-4-5.88-8.69c-5.58-7.7-8.62-7.89-12.46-15.42-1.43-2.82-2.79-6.31-2.4-6.82s2.94,3.7,8.15,8.84c4.49,4.42,4.67,3.72,8.32,7.58s4.31,5.48,7.94,8.73a25.14,25.14,0,0,0,5.68,4.19c2.71,1.38,5.67,2.88,8.86,1.54,2-.82,3.48-2.63,6.53-6.25,2.9-3.43,3.86-5.37,4.44-4.92,1.27.95-2.93,10.67-.32,16.19,1.73,3.65,5.42,3.33,5.4,4.91C141.29,267.82,140.14,269.06,134.81,270.57Z"/></g></g></svg>