<svg xmlns="http://www.w3.org/2000/svg" viewBox="0 0 112.09 125.05"><defs><style>.cls-1{fill:#fff;}.cls-2{fill:#9b9b9b;}</style></defs><g id="Layer_5" data-name="Layer 5"><path class="cls-1" d="M74.48,4.29c5.17.71,4.2,10.09,14,17.61,10.79,8.25,21.53,4.3,23.36,9.07,2.4,6.25-16,13.22-31.79,32.55C61.2,86.69,63.78,106,49.2,110.5c-9.13,2.83-18.73-2-24.94-6.13L16.9,116.63l4,3.44-3.06,5-16-9.62,2.91-5.25,5.91,3,7.23-12.47c-4.4-3.44-10.45-9.28-10.55-16.64-.18-13.54,20-16.55,39.06-39.19C63.71,24.26,66.71,3.21,74.48,4.29Z"/><path class="cls-2" d="M72.65,0c5.17.72,4.2,10.09,14,17.62,10.79,8.25,21.53,4.29,23.36,9.06,2.4,6.25-16,13.22-31.78,32.55-18.9,23.18-16.31,42.45-30.9,47-9.12,2.84-18.72-2-24.93-6.13q-3.69,6.13-7.37,12.26l4,3.45-3.06,5L0,111.19l2.91-5.25,5.91,3,7.23-12.46C11.65,93,5.6,87.18,5.5,79.83,5.32,66.28,25.55,63.27,44.56,40.64,61.88,20,64.88-1,72.65,0Z"/></g></svg>