<svg xmlns="http://www.w3.org/2000/svg" viewBox="0 0 460 350"><defs><style>.cls-1{fill:none;stroke:#1b434c;stroke-miterlimit:10;stroke-width:3.8px;}</style></defs><g id="Layer_2" data-name="Layer 2"><path class="cls-1" d="M191.64,21.56a747.82,747.82,0,0,1,62.6,65.37c34.07,40.16,54.7,64.48,68.3,102,7.22,20,16.29,54.23,12.33,101"/><path class="cls-1" d="M7.94,77.25a749.31,749.31,0,0,1,62.6,65.37c34.06,40.16,54.7,64.48,68.29,102,7.23,20,16.3,54.23,12.33,101"/><path class="cls-1" d="M35.17,67.19a746.41,746.41,0,0,1,62.6,65.37c34.06,40.15,54.69,64.47,68.29,102,7.23,20,16.3,54.23,12.33,101"/><path class="cls-1" d="M59.45,61.4a749.31,749.31,0,0,1,62.6,65.37c34.06,40.15,54.69,64.48,68.29,102,7.23,20,16.29,54.23,12.33,101"/><path class="cls-1" d="M82.41,55.3A747.86,747.86,0,0,1,145,120.67c34.06,40.15,54.69,64.48,68.29,102,7.23,20,16.29,54.23,12.33,101"/><path class="cls-1" d="M276.61,4.32a747.86,747.86,0,0,1,62.6,65.37c34.06,40.15,54.69,64.48,68.29,102,7.23,20,16.3,54.23,12.33,101"/><path class="cls-1" d="M111.94,39.72a746.74,746.74,0,0,1,62.6,65.38c34.07,40.15,54.7,64.47,68.3,102,7.22,20,16.29,54.23,12.33,101"/><path class="cls-1" d="M143.19,39.72a748.23,748.23,0,0,1,62.6,65.38c34.06,40.15,54.7,64.47,68.29,102,7.23,20,16.3,54.23,12.33,101"/><path class="cls-1" d="M167.22,26.65A748.23,748.23,0,0,1,229.82,92c34.06,40.15,54.69,64.47,68.29,102,7.23,20,16.29,54.22,12.33,101"/><path class="cls-1" d="M243.13,9.81a746.37,746.37,0,0,1,62.6,65.37c34.07,40.15,54.7,64.48,68.3,102,7.22,20,16.29,54.23,12.33,101"/><path class="cls-1" d="M216.22,17.26a748.23,748.23,0,0,1,62.6,65.38c34.06,40.15,54.69,64.47,68.29,102,7.23,20,16.3,54.23,12.33,101"/><path class="cls-1" d="M2.85,107.74A1192.21,1192.21,0,0,0,120.47,73.07c51.07-18,69.61-28.5,105.28-35.66a310.59,310.59,0,0,1,114.77-1"/><path class="cls-1" d="M119.48,300.38a1192.71,1192.71,0,0,0,117.61-34.67c51.07-18,69.61-28.5,105.29-35.66a310.6,310.6,0,0,1,114.77-1"/><path class="cls-1" d="M107.77,270.09a1189.46,1189.46,0,0,0,117.62-34.67c51.06-18,69.61-28.5,105.28-35.66a311,311,0,0,1,114.77-1"/><path class="cls-1" d="M94.9,241a1189.46,1189.46,0,0,0,117.62-34.67c51.06-18,69.61-28.5,105.28-35.66a311,311,0,0,1,114.77-1"/><path class="cls-1" d="M87.3,214.72a1190,1190,0,0,0,117.61-34.67c51.07-18,69.61-28.5,105.29-35.65a310.85,310.85,0,0,1,114.77-1"/><path class="cls-1" d="M70.48,185.13a1195.48,1195.48,0,0,0,117.61-34.67c51.07-18,69.61-28.51,105.28-35.66a310.59,310.59,0,0,1,114.77-1"/><path class="cls-1" d="M49.65,164.85a1189.46,1189.46,0,0,0,117.62-34.67c51.07-18,69.61-28.5,105.28-35.66a311,311,0,0,1,114.77-1"/><path class="cls-1" d="M29.66,145.83a1192.32,1192.32,0,0,0,117.61-34.66c51.07-18,69.61-28.51,105.29-35.66a310.6,310.6,0,0,1,114.77-1"/><path class="cls-1" d="M22.81,126.76A1192.71,1192.71,0,0,0,140.42,92.09c51.07-18,69.61-28.5,105.29-35.66a310.6,310.6,0,0,1,114.77-1"/></g></svg>