<svg id="Layer_1" data-name="Layer 1" xmlns="http://www.w3.org/2000/svg" viewBox="0 0 1920 1080"><defs><style>.cls-1{fill:#13537b;}.cls-2{fill:#1d89b5;}.cls-3{fill:#27a4ca;}.cls-4{fill:#9ad3e7;}.cls-5{fill:#bbe1ed;}</style></defs><rect class="cls-1" x="2.95" y="882.31" width="1916.91" height="197.75"/><rect class="cls-2" x="2.95" y="651.7" width="1916.91" height="230.61"/><rect class="cls-3" x="2.95" y="404.49" width="1916.91" height="250.76"/><rect class="cls-4" x="1.41" y="204.94" width="1918.45" height="204.7"/><rect class="cls-5" x="2.95" y="0.05" width="1916.91" height="204.7"/><path class="cls-1" d="M923.81,870.49c-3.27,1-3.4,3.57-6.19,4.93-5,2.47-11.88-2.35-11.79-3.42.07-.82,4.15.36,5-1.88a4.48,4.48,0,0,0-1-4c-2.48-2.62-7.68,2.21-13.93,4.76-7,2.84-12.86,1.86-23.7,0-2.95-.49-15.1-2.6-25.48-8.95-3.29-2-5.08-3.64-10.5-6.65-4.87-2.7-7.26-3.52-7.28-4.71,0-1.65,4.5-3.72,9-2.6,4.15,1,4.9,3.89,14.15,10.76a36.29,36.29,0,0,0,5.94,3.84,28.72,28.72,0,0,0,9.72,2.57c10.41,1.42,15.66,2.13,17.5,2,2.74-.24,5.7-1,11.62-2.64,7.95-2.16,8.21-2.92,8.22-3.31.11-3.12-14.27-7.9-19.59-9.69-20.3-6.81-21.94-3.28-33.68-9.46-7.53-4-10.2-7.2-15.91-7s-7.61,3.55-14.38,3c-5.79-.44-11.07-3.38-11-4.23,0-.51,2-.27,6.89-.22,8.23.07,12.35.07,12.8-1.42.82-2.7-4.81-10.08-10.77-14.06-2.09-1.41-4-2.27-5.18-4.79-1.34-3-1.08-7.3.44-8,2-1,5.61,6.25,13.48,14,2,5.45,4.33,7.81,6.44,8.75,1.86.83,2.73.18,5.64.7,3.31.61,5,2,8.71,4a105.5,105.5,0,0,0,11.16,4.87c5.46,2.2,5.56,1.79,13.71,4.62s12.28,4.71,19.53,6c3.42.63,6.27,1.13,6.5.19.37-1.61-6.91-6.61-13.16-9.79s-7-2.19-14.39-5.82c-5.28-2.61-8.14-4.06-11.07-7.42-3.11-3.57-2.45-4.89-6.21-10.79-1.6-2.51-5.64-8.85-11.41-12.68-3.64-2.41-4.73-1.68-12.64-3.81-10.4-2.82-20.27-5.64-24.7-14.19-1.29-2.5-2-5.34-1.42-5.89,1.5-1.33,9.16,12.16,19.65,13.17.59.06,4.85.42,5.33-1.51.75-3-7.72-10.93-11-14-2.06-1.93-4-3.55-3.72-4.59s2.78-1.14,4.62-.67c5.47,1.38,6.6,8,12.85,14.44,6,6.21,7.32,3.37,13.93,9.9,2.59,2.56,3.18,3.78,11.82,16.24,5.46,7.88,8.19,11.84,8.55,12.18,5.23,5,7.22,3.17,22.75,10.41,4.24,2,7.12,3.52,7.71,2.48.8-1.43-3.28-6.59-5.13-8.93a71.64,71.64,0,0,0-12.34-12.44c-.89-.73-4.33-4.12-11.2-10.9-11.74-11.58-10.76-12-16.53-17.18C840.34,776,837.37,778.6,828.78,769c-6.32-7.1-11.66-16.34-10.67-17.59.52-.67,2.77.93,3.92,1.75,3.87,2.75,5.26,5.61,8.21,9.37,1.94,2.47,4.75,5,10.37,10,6.69,6,7.52,5.92,7.89,5.63s.84-1.6-2.42-13.43c-2.37-8.6-3.44-11.5-3-11.76.68-.39,4.34,5.32,7.17,11.61,3.56,7.92,2.19,8.69,4.81,14,4.65,9.5,9.08,7.26,14.66,17.65,2.09,3.9,3.43,7.88,6.44,8.75,1.41.41,3.33.3,4.2-1.06.66-1.05.66-2.71-2-10.94-2-6-3-8.31-2.77-8.46.42-.26,4.61,6.31,8.28,14.54,3.8,8.52,2.92,9.92,6,16.8,4,8.84,8.39,14.41,13.83,21.22,6.1,7.67,11.89,14.92,14.34,13.46,2.12-1.26,1-8.58-.33-13-.64-2.17-1.77-5.22-8.13-14.43-6.52-9.43-9.43-12.15-12.08-19.22-1.16-3.09-2.15-6.68-1.75-6.89s2.3,4.22,6.11,10.36c1.58,2.57,4.7,6.7,11,14.92,1.39,1.82,3.42,4.45,4.12,4,.86-.56-1.57-5-.15-7.44,1.52-2.63,6.77-1.69,7.09-.43.19.77-1.6,1.08-3,3-2.71,3.91-1.11,10.61-.23,14.26a32.35,32.35,0,0,0,6.4,13.49c4.43,5.33,12.11,10.42,14.43,7.94.73-.79,1.36-2.72-5.58-23.93-3.19-9.76-4.79-14.63-5.55-16-6.11-10.91-12.06-8.77-25.57-22.52-4.48-4.55-5.1-6.08-13.77-15.13-7.47-7.79-10-9.75-13.22-11-6.35-2.44-8.11.68-12.9-1.92-3.44-1.87-2.87-3.92-11.19-16.7-6.69-10.28-9.21-12.4-11.78-13.66s-5.46-1.69-5.53-2.72,2.67-2,5-2.16c6-.32,10.94,4.76,11.69,5.55,5.14,5.38,3.5,9.26,8.12,15.34,5.93,7.81,15.44,12.08,17.74,9.24,2.06-2.55-1.79-10.76-2.22-11.65-4.7-9.83-11.29-10.44-18.23-21.94-.53-.88-4.19-6.94-3.27-8s5.54,4,15.6,11.61c9.3,7,11,6.87,13.15,10.71,3.41,6,.76,8.65,3.73,18.6,2.87,9.61,8.22,15.74,11.37,19.4,4.42,5.12,9.28,10.75,11.82,9.37,4.26-2.33-.87-23-4.23-33.28-1.91-5.83-2.91-8.8-5.23-11.8-5.94-7.69-12.11-5.75-15.51-12.71-2.1-4.28-.28-6.08-3.17-13.08-2.32-5.63-4.94-8-4.46-8.65.7-1,7.28,2.3,9.85,8.5,1.1,2.64.45,3.34,1.94,7.14,1.14,2.89,2.64,6.7,5.57,7.75a4.65,4.65,0,0,0,4.73-.9c2.42-2.3,1.84-7.24,1.28-11.62-1.24-9.59-4.59-15.61-3.85-16.13s3.44,2.76,5.77,7.09c4.6,8.53,3.31,14.44,5.05,27.73,1.88,14.3,4.08,12.82,6.2,28.81.83,6.31,2.29,12.57,3.18,18.88.52,3.75.86,6.63,2.61,9.83,2.12,3.86,4.78,5.43,8.1,7.92,2.65,2,9.2,6.88,13.15,12.23,5.61,7.58,2.76,11.71,8.79,24.34,2,4.18,7.3,15.27,11.92,14.68,3.35-.43,5.78-6.93,5.23-12.63-.36-3.78-2-7-10.49-16.88-11.63-13.6-12.91-12.72-16.11-18.5-5.34-9.63-6.16-19.92-6.44-23.41-.85-10.61,1.7-13.24-.2-21.32-1.72-7.35-5.16-10.89-8.94-16.66C913,727.53,909.21,702.43,911.83,701c1.39-.76,5.65,4.54,8.21,9.82,6.23,12.87,1.49,23.76,6.59,27.95a6.48,6.48,0,0,0,8.76-.7c2.82-3.53-.87-9.62-.95-22.35-.05-6.92,1-15.31,2.33-15.25,1.67.07,4.57,12.92,4.56,24.8a128.56,128.56,0,0,1-.78,14.55c-.53,4.13-1.1,6.42-1,10.64s.71,6,1.23,9.76c1,7.62-.44,8.28-.23,19.6.22,12.66,2.14,15.25,3.14,16.3,1.63,1.74,4.32,3.09,6.54,2.31,5-1.76,6.07-13.85,4.28-22.76-1.21-6-3.66-10.3-3.08-10.67s3.32,4,5.68,7.72c2,3.23,2.35,4.11,2.53,5,.6,2.85-.57,4.11-1.38,7.85-1.13,5.27.46,6.23-.37,13.68-.57,5.1-1.32,4.69-1.29,7.65.06,4.86,2.14,12.14,6.28,14,4.82,2.15,10.53-3.91,12.32-10.15.83-2.88.92-6.22-1.67-16.37-4.9-19.17-8.35-19.44-9-28.56-.85-12.26,5-17.86,1.39-23.86-2.38-4-6.31-1.7-10.27-6.25-1.43-1.63-3.44-4.76-4.59-15.63-1.44-13.64-.09-26,.88-25.87s4,15.95,5,28c.17,2.06.47,6.43,2.85,8.29,2,1.52,3.56,0,6.59,1.53,3.38,1.71,4.38,5.13,5.19,4.79,1.23-.51-.77-8.47-2.75-19.15-1.69-9.13-3.82-20.56-2.25-21.11.88-.31,2.79,2.94,3.86,5.43,2.14,5,1.29,9.3,2,12.63,2.7,13.39,5,14.49,5.7,21.46.83,8.86-2.8,8.6-4.15,21.82-1,9.78-.42,23.83,4.22,26.41a3.35,3.35,0,0,0,3.25.09c2-1.22,1.35-4.85,2.82-11.4.9-4,1.35-6,2.18-6,2.2-.05,8.16,13.73,5,23.76-2.05,6.6-6,5-9.35,13.06-2.92,7-2.37,14.17-1.94,19.73s.86,11.11,3.44,12.56c3,1.71,7.27-3.25,9.07-5.36,5.37-6.3,7.11-13.88,9.53-25,2-9,1.71-12.07,1.54-13.52-.73-6.23-2.83-6.81-5-14.62-2.48-9.1-.3-10.8-3-20.62a126.84,126.84,0,0,0-4.53-12c-5.54-13.66-6.55-13.93-7.23-17.71-2.11-11.83,5.34-22.75,6.55-22.12,1,.51-2.56,8.5-1,21.34,1.1,9.25,4.9,21.54,9.63,22.28a3.84,3.84,0,0,0,3.75-1.86c3.12-5-6.24-14-4.56-24.8.71-4.54,2.5-3.77,5.08-12.28,2.17-7.17,2.14-11.79,2.74-11.69.88.15,3.34,10.34.46,19.43-1.26,4-3,6.14-2.56,10.42.18,1.7.51,1.81,2.66,7.57,3.22,8.62,3.39,10.84,3.2,12.62-.23,2.21-.85,2.24-1.7,5-1.89,6.13-1.71,15.24,1.42,17.35,2,1.38,5-.46,6.46-1.94,2.6-2.6,2.77-6.07,3.82-11.35,2.2-11.07,4.18-9.56,4.67-15.85.71-9.16-3.6-11.3-3.59-22,0-8.85,3-15.47,3.57-15.25s-.45,6,.45,15.45c.25,2.64.93,9.83,2.31,10.1s1.55-5.66,5.69-11.82c2.59-3.84,5.63-6,6-5.51s-3.09,4-3.65,10.55c-.29,3.31.51,3.79.35,6.78-.33,6.12-3.83,6.87-6.13,13-2.79,7.45,1,10.11-2.1,17.17a24,24,0,0,1-7.19,9.31,69.76,69.76,0,0,0-6.51,5.16,13.7,13.7,0,0,0-2.36,2.43c-2,2.91-3.14,8-1.41,10.13s5.31.84,5.88.65c5.75-2,5.27-8.09,10.42-12.73,6-5.42,9.82.17,15.5-5.45,1.26-1.25,3.63-5.82,8.37-15,2-3.78,2.57-4.26,3-5.95,1.27-5.46-.52-11.8-1.64-15.76-1.2-4.23-2.11-5.64-1.69-8.12.1-.61.41-2,3.26-5.72s5.06-6.5,6-5.83c1.13.83-1.41,6.1-2.18,16.78a79,79,0,0,0,.47,13.62c.58,4.9.89,7.37,2,8,3.58,2.06,10.89-13.32,12.59-12,1,.78.34,8.13-3.62,13.13-4.34,5.47-8.69,3.2-12.61,9-2.87,4.24-1.12,6.3-4,9.86-2.24,2.83-6.18,3.82-13.95,5.68-7.07,1.69-10,1.72-11.22,4.68-.74,1.78-.92,4.88.43,6.61,3.35,4.24,12.23-4.69,18.19.26,3,2.53,4.11,7.65,3.28,8.49-1.07,1.07-5-5.14-11.26-5.7-2.14-.19-2.5.47-6.33,1.46-9.67,2.49-12.3-.83-16.22,2.59a15.47,15.47,0,0,0-5.21,10.79c-.12,4,1.52,4.65,1.81,8.09.68,8.26-8.29,10.68-14.11,24.65-1.85,4.44-3.39,8.22-2,10.87,3.42,6.3,21.85,3,22.79-4.1.25-1.87-1-2-3.48-9.8-1.7-5.29-2.25-8.7-1.86-12.21a24.35,24.35,0,0,1,.44-2.49c1-4.58,2.21-6.38,5.41-13.41,1.86-4.09,2.13-5,2.54-4.85,1,.31,1.74,5.69,0,9.77-1,2.28-1.75,1.86-3.21,4.48a17.28,17.28,0,0,0-2,10.27c.07.55.69,5.3,2.2,5.71,1.92.51,4-6.4,4.17-7,4.1-3.69,5.33-4.4,5.53-4.15.47.62-5.76,6-6.48,15.08-.24,3.13.22,6,.83,6.2,1.52.43,3.14-16,9.18-16.68,1.15-.13,1.79.39,2.45-.24,2-1.92-2.19-8.34-.37-14,1.24-3.84,4.73-5.82,5.39-5.18.49.48-.71,2.33-1.47,6.94a44.08,44.08,0,0,0-.5,7.3c-.06,4.73-.09,7.43.92,8s2.92-1.59,3.72-2.93a12.31,12.31,0,0,0,1.5-6.79,54.79,54.79,0,0,1,2.59-11.34,28.93,28.93,0,0,1,5.17-9c4.89-6.08,7-4.22,9.58-8.23,4.43-7-.59-14.8,4-20.55,3-3.8,8.22-4.21,9-2.89s-3.3,3.58-5.35,10.22c-1.85,6,.27,8-1.61,13.23-.81,2.26-3.22,4.94-8.06,10.29-3.33,3.68-5.34,5.55-7.51,9.54-1.4,2.58-3.06,5.63-2.2,7,1.19,1.87,7.18.36,11.51-3.53s3.15-6.84,9.26-17.31c1.14-2,4.06-6.79,7.79-12.36,3.2-4.78,4.26-6,4.71-8.83,1.07-6.62-2.85-12-1.57-13s5.4,2.17,7.64,6.61a19.24,19.24,0,0,1,1.55,11.52c-1.47,7.68-7,7.48-13.56,17.48-3.09,4.76-6.19,11.51-4.85,13.15s7.28-2.21,7.9-2.62c3.62-2.41,5-4.89,5.87-4.24s.64,4-.79,6.16-3,1.89-8.43,3.51a65,65,0,0,0-7.82,2.9c-3.86,1.75-5.79,2.62-7.35,4.31-3.62,3.93-2.33,7.49-5.26,9.12s-4.73-1.64-9.32-.54c-2.8.68-2.49,2-7.15,4.57-5.23,2.89-6.46,1.65-8,3.85-2.64,3.87.28,8.21-2.06,12.43-1.36,2.45-2.85,1.88-9.75,4.61-9.45,3.74-8.37,5.48-14.83,7.13-3.88,1-6,.8-7.17,3-1.36,2.6-.75,7.11,1.32,9.13,2.92,2.84,8.09.06,10.59-3.3,2.18-2.94,1.1-4.54,2.9-7.15,3.69-5.36,9.75-.49,15.8-5.23.83-.65.38-.48,7.39-12,4.29-7,5.75-9.21,8.28-9.43,3.09-.28,4.07,2.7,7.32,2.42,4-.36,3.91-4.94,8.4-7,3.87-1.8,5,1,12,.31,3.45-.34,3-1,11-3.1,5.82-1.51,5-.87,9.75-2.17,6.95-1.88,8.47-3.16,11.41-2,1.3.52,2.76,1.8,5.7,4.36,4,3.52,6,5.27,5.82,6.16-.46,1.73-9.7,1.34-16.43-3.47a8,8,0,0,0-4.46-1.92c-2.59,0-3.91,1.91-5.86,3.32-2.4,1.74-5.43,1.72-11.49,1.69-8,0-10.09-1.85-14.16-.06a14.16,14.16,0,0,0-5.46,4.43,15.21,15.21,0,0,0,7.2,2.45c4.61.25,6.08-2.28,9.74-1.25,4.34,1.22,7.35,6.21,7,6.76s-2.47-2-5.39-1.68c-2,.2-3,1.6-4.3,2.61-4.1,3.31-10,1.58-14.79.4-6.66-1.63-8.39-5.24-11.63-3.77-2.14,1-1.78,2.71-6,7.64-2.67,3.1-4.89,4.82-4.58,5.43.46.91,5.32-3,8.83-.41,1.27.95,1.27,1.89,2.28,3.09,3.42,4.08,9.41.15,16.67.65,9.13.64,16.07,8,15.93,8.48s-4.85-3.17-11-2.39c-2.65.33-3.36,1.18-5.76,1.77-2.85.69-7.14.81-13.21-2.15-3.75-3.1-6.48-3.41-8-3.3a35.56,35.56,0,0,0-5,1.36c-2.13.66-3,1-5.15,1.68-1.41.47-3.25,1.05-5.78,1.76-7.42,2.07-9,2.62-10,4.67-.21.42-1.26,2.57-.56,3.65,1.81,2.83,11.8-7.14,19.24-2.44,3.3,2.09,5.23,6.53,4.64,7.53-.8,1.34-5.63-4.19-11.76-3.25-4.12.63-4.43,3.52-7.94,2.9-3.15-.55-5.55-3.34-7.58-2a7.27,7.27,0,0,0-1.51,1.41,10,10,0,0,0-1.86,3.84,144.65,144.65,0,0,1-22.53.82A150.08,150.08,0,0,1,967,885.63a34.39,34.39,0,0,0-7.9-7c-3-1.91-7.63-3-16.71-5.22-10.48-2.52-5.72-.77-12.28-2.38C927.44,870.35,925.85,869.86,923.81,870.49Z"/><path class="cls-2" d="M741.05,506.62c-7.1-7.23-9.69-6-12.76-10.3-5.47-7.71-4.35-21.64,1.73-24.53,4.7-2.24,11.5,2.48,14.65,5.78A19.44,19.44,0,0,1,750,492.86c-.53,4.4-2.43,4.53-2.89,9.15-.55,5.45,1.4,12.55,5.44,13.65a5.62,5.62,0,0,0,5.52-2.17c2.37-3.18-1.09-6.87.6-10.49,2-4.34,10.55-6.63,14.14-3.58,4.4,3.72,1.43,15.39-3.73,17.51-3.2,1.31-6.76-1.28-10.7,1.32a9.55,9.55,0,0,0-2.5,2.5c-3.51,4.59-5.41,12.43-2.46,14.74,1.72,1.35,4.93.66,7-.62,4.52-2.76,3-7.91,7-10.62,3.69-2.53,10.18-1.66,11.68,1.15,2.2,4.1-5.14,14.42-11.73,14.4-3.15,0-4.48-2.37-8.66-2.06a12.67,12.67,0,0,0-7.15,3.1c-4.11,3.62-2.76,7.53-5.58,14.11-3.79,8.83-10.33,11.26-9.23,13.16,1.22,2.11,9.5,1,15.12-3.62,3.47-2.85,3-4.64,6.19-8.21C764,549.61,775.18,545.11,780,549c2.71,2.17,3.16,6.76,2.23,10-2.27,7.85-13.81,11-21.49,11-4.3,0-4.08-1-8.51-.93-1.39,0-14,.36-19.51,8.13-2.37,3.36-1.25,5.1-2.39,14.18-2.08,16.5-7.51,24.68-4.61,26.72,1.67,1.18,5.15-.42,7.19-2.26,4.74-4.29,1.67-9.87,5.26-20,1.22-3.44,3.18-8.94,8.51-13,5.83-4.38,12.26-4.41,15.35-4.42,1.25,0,11.73,0,13.15,4.23.51,1.55-.58,2.41-1.85,6.74s-1,6.15-1.52,8.72c-1.35,6.21-6.34,10.22-9.91,13.08-3.8,3-11.19,9-18.74,7.38-2.43-.51-4.27-1.67-6.59-.72s-3.42,3.27-4.84,6.13-2.7,5.52-1.82,6.47c1.37,1.48,6.57-2.48,16.28-6.7,11.46-5,12.54-3.06,18.27-6.86,8-5.28,6.42-9.33,13.79-14.18,8-5.27,20.1-7.25,23.36-2.71,2.35,3.29.44,10-3.46,13.79-6.85,6.61-19.22,5.83-23.67,5.45-3.14-.26-4.06-.69-6.75-.46-3.89.33-5.57,1.54-14.27,5.93-3.66,1.84-7.2,3.56-13.4,6.86-5.18,2.76-6.09,3.36-6,3.79.35,1.27,9,.35,16.56-1.51,10-2.48,10.42-4.75,16.4-5.14,8-.53,18.33,2.83,19.35,8.52.65,3.63-2.33,7.86-5.79,9.64-1.83.94-5,.65-11.12,0-10-1-12.24-2.18-13.8-3.33-2.31-1.71-1.75-2.37-4-3.78-4.72-2.92-10.1-1.89-11.77-1.57-2.72.51-5.51,1-7.32,3.36-1,1.31-1.27,2.59-1.73,8.14-.21,2.56-.45,5.81-.65,9.6l-3.57,0A26.81,26.81,0,0,0,725,642.38c-2.81-6-7.36-9.22-11.45-12.1S706,626,699.29,623.44c-5.91-2.29-10.51-4-16.87-4.5-4.35-.32-4.4.34-6.92-.21C668,617.1,660.41,609.56,662,604c1.14-4,6.87-6,10.56-6.33,9.23-.9,16.44,7.18,17.79,8.76,3.63,4.26,2.93,6.33,7.2,10.38,2.48,2.36,3.53,2.28,9.61,6.06,10.52,6.53,13.28,9.52,15.19,8.34s1.29-5.78.91-8.23a24.6,24.6,0,0,0-4.43-10.22c-1.8-2.73-3.26-4.94-5.65-6.73-5.7-4.28-10.32,0-15.71-3.68-3.73-2.54-2.1-4.79-7.22-9.33-3.93-3.49-5.93-3.08-7.49-5.9-1.9-3.43-1.61-8.8,1.27-11.53,4.14-3.93,12.34-1.16,16.5,1.54,3.39,2.2,3.17,3.76,8.73,7.64,2.5,1.75,3.86,2.35,5.11,4.16a12.48,12.48,0,0,1,1.7,8.53c-.65,2.63-1.49,3.55-1.12,5.15.57,2.49,3.68,5.06,5.89,4.54,5.09-1.19,4.89-18.74,3-29.4-.59-3.24-1.19-5-2.6-6.68-4.19-4.83-10.2-1.92-16.69-4.89-10.4-4.77-12.36-20.24-12.68-23.63-.34-3.7-1.49-15.92,5.53-20,4.87-2.79,11-.14,12.45.54,4.69,2.21,7.43,7.78,12.92,18.93,4.65,9.45,6.4,15.42,5.38,19.2a27.18,27.18,0,0,0-.82,4.91c-.2,2.68-.39,5.21.5,5.62,1.58.73,5.87-5.59,10.54-12.46,2.83-4.16,4.63-7.19,6-11.29,1.71-5.24,1.11-7.44.67-8.54a10.07,10.07,0,0,0-5-5c-4.21-2.08-6.23.15-10.46-.88-5.2-1.26-8.1-6-12.67-13.62-2.69-4.45-4-6.73-3.67-9.57.56-4.46,4.6-8.92,8.77-9,2.89-.08,5.56,3.13,10.9,9.54,4.82,5.78,7.29,8.83,7.18,13-.05,1.83-.56,2.94,0,5,.87,3.15,3.66,6.37,5.74,5.92s2.68-3.93,3.23-6.59a20.93,20.93,0,0,0,0-9.73C748.47,516.91,747.23,512.9,741.05,506.62Z"/><path class="cls-2" d="M1892.15,456c1.41-7.49,0-11.12,1.64-12,1.37-.68,4.06.87,4.62,2.75.65,2.16-1.58,4.44-1.06,4.88s3.59-2.67,4.45-2.05c.65.47-.92,2.43-.38,5.1.5,2.5,2.34,3.1,2,4.26-.47,1.52-3.68.66-7.13,3-1.38.93-3.61,2.91-3.18,4.13.73,2.07,8.26-.52,10.6,2.85,1,1.44,1.1,4-.12,5.2-2.8,2.72-9.77-4.51-18.24-2.19-3.82,1.05-6.82,3.72-6.47,4.86.61,2,11.69-1.57,14.35,2.72a5.09,5.09,0,0,1-.66,5.83c-3.59,3.45-12.18-4-17.6-.13a6.38,6.38,0,0,0-2.47,5.1,5.41,5.41,0,0,0,1.62,3.8c3.28,2.75,9.58-1.64,11.3.49.77,1,.38,3-.61,4.17-2.22,2.72-6.46.21-13.56,2-2.79.69-7,1.74-8.33,5.06s.53,8,2.88,8.51c2,.46,3-2.32,8-4.76,2.29-1.12,5.74-2.79,7.5-1.4s1.59,5.69-.48,8c-2.35,2.6-5.33.68-9.15,3.15-4,2.6-6.17,8.26-4.63,10.22.21.28,1,1.1,3.65.84,10-1,15.15-14.07,18.69-12.77,1.65.6,2.46,4.16,1.74,6.9-1.49,5.66-8.83,5.1-14.7,13.32-1.86,2.6-2.61,4.74-2.58,7,0,2,.57,5.52,2.71,6.34s4.74-1.32,8.11-4c4-3.13,4.62-4.86,6.63-4.85,2.34,0,4.88,2.38,4.82,4.46,0,.91-.55,2-7,6.06-5.67,3.58-6.77,3.69-7.74,5.4-2.12,3.74-.64,9.8,1.83,10.62,3.16,1,6.88-8.66,12.21-7.92,2.71.38,5.3,3.38,4.92,5.55-.62,3.59-8.86,2.17-12.83,7.88-3,4.36-2.29,11-.11,12,1.25.58,2.49-.9,9.86-4.65,3.76-1.92,4.92-2.29,6-1.8,2,.91,3.17,4.63,2,7.22-2,4.5-9.31,1.92-14,7.19-3.53,3.93-4.18,10.47-2,12.23,1.34,1.08,4.2.06,9.85-2,7.48-2.76,9.26-4.43,10.56-3.53,2.42,1.66,1.49,10.88-3.46,13.84-5.23,3.14-10.87-3.19-17.14.05-4,2.08-6.88,7.36-5.54,9.86,2.59,4.82,19.83-3.85,25.45,3.08,2.41,3,2.38,8.41,0,10.5-5.06,4.41-18.39-8.09-25.15-3.06-2.14,1.6-3.41,4.81-2.58,6.95,2,5.16,15.73,2.8,16.32,5.92.32,1.68-3.19,4.62-7.1,5.13-6.91.91-10.23-6.43-15.76-5-3.46.92-6,4.82-5.35,6.78.48,1.34,2.34,1.28,8.14,3.27,6.55,2.24,7,3.31,7.18,3.83.54,2-1.65,5.08-4.37,5.91-3.18,1-4.69-1.83-10.64-2.8-2.81-.46-6.56-1.07-9.33,1-1.15.85-2.38,3-4.77,7.43s-2.4,4.92-3.32,5.55c-2.15,1.45-3.61.08-10.58-.23-5.06-.23-7.41.36-8.58-1.27-.83-1.15-.16-2.14-.4-3.57-1.07-6.3-17.23-5.9-18.45-11.62-.56-2.63,2-6.11,4.41-6.53s4.17,2.3,13.6,10.09c2.1,1.74,3.67,3,6,3.14,3.33.24,7-1.84,7-3.59-.07-2.61-8.44-2.43-11.23-8.4-.19-.4-1.22-2.6-.41-3.42,1.72-1.75,9.28,5.42,12.46,3.22,2.25-1.55.91-6.81.76-7.37-1.39-5.18-6-7.66-6.92-8.14-1.65-.83-4.33-1.78-11.68-1-11.32,1.18-17.5,4.73-18.42,3.21-.62-1,1.56-3.87,4-5.62,5.63-4,12-1.69,12.57-3.57.5-1.57-3.32-5-8-6.34-4.44-1.27-6.68.29-14.9,1.26-8,.95-14.11.45-14.19-.24s5.31-.6,9.24-4.69c.41-.44,3.86-4,2.85-6.32-1.76-4-14.91.74-17.37-3.82-1.3-2.39.68-6.71,2.9-7.24,2.56-.61,5,3.88,6.3,3.16,1-.56,1-4-.88-5.92-2.39-2.45-5.84-.25-11-1.59-6.15-1.61-10.38-7.09-9.69-8.31.94-1.68,10.92,5,16,1,2-1.59,3.2-4.81,2.27-7-1.42-3.32-6.74-1.65-11.07-5.92-3.12-3.08-4.2-7.75-3.19-8.53.84-.64,3.54,1.29,9,5.17,4.5,3.22,6,4.72,7.17,4.14,1.4-.73,1.08-4.22.68-6.14-1.23-5.73-5.24-6.59-5.24-10.5,0-2.44,1.54-2.49,4.18-7.78a42.22,42.22,0,0,0,3.36-9.68c1.68-7.37.57-11.56,2-11.93s3.52,3.09,4.58,5.84a18.57,18.57,0,0,1,.2,12.05c-1.81,5.32-4.71,5.61-6.22,11-1.15,4.14-.64,8.22.11,8.35,1.49.26,3.85-14.72,7.37-14.69,2.18,0,3.26,7.51,4.19,7.36,1.16-.19-2-11.11,2.78-15.28,2.84-2.46,8.28-2.37,10.19,0,2.83,3.51-1.27,12.94-7.29,18.4-4.62,4.2-7.72,3.64-11.63,8.56-3.27,4.12-5.2,9.65-3.75,10.9,2,1.7,8.24-6.25,16.66-4.87,2.58.43,5.91,1.82,6,3.45.08,2.1-8.17,1.11-15.54,6.79-1.23.94-6.92,5.32-5.81,9.22a4.68,4.68,0,0,0,4.13,3.34c3.92-.11,5.39-8.24,7.58-7.88,1.62.26,3.08,5.12,1.9,9.38s-4.21,5.11-3.85,7.49c.49,3.19,6.7,6.36,9.61,4.59,4.55-2.76-1.9-15.85,3.67-19.85,2.18-1.57,5.83-1.48,7.09.12,2.69,3.4-7.25,11.42-4.52,18.56,1.52,4,6.56,6.64,8.94,5.48,3.31-1.6.66-10.24,3.78-11.51,1.88-.75,5.42,1.31,6.24,4.09,1.54,5.19-7.39,9.62-5.81,14.47a6.3,6.3,0,0,0,6.87,3.81c2.27-.61,3.36-3.25,3.88-4.5,1.72-4.18.38-7.81,1.2-8.06s2.53,2.18,3.39,5.25c1.37,4.87-.93,7.08-1.45,13.91-.32,4.15-.75,9.78,2.64,12.52,2.35,1.9,6.33,2.23,8.31.5,3.19-2.8.47-10.42-.45-13-1.79-5-4.4-8.06-3.81-8.57.91-.8,6.73,7,10.47,5.57,2.46-.93,3.77-5.84,2.42-9.42-1-2.56-2.74-3.09-11.5-9-1.31-.89-7.68-5.23-7.21-6.09.25-.48,2.36.62,3.28-.32s-.54-3.57.08-4,3.69,2,6.92,5.67c4.73,5.41,5.17,8,8.69,9.48.76.32,4.19,1.69,5.86.2s1-5.74-.72-8.54-3.25-2.39-11.56-8a24.06,24.06,0,0,1-4.86-4c-1.94-2.11-4.1-5.29-3.5-5.92s3.94,2.22,10.48,5.42c5.78,2.83,9.91,4.85,12.16,3.2s2.75-6.52.57-9.38c-4-5.23-13.94,1.09-22.56-4.91-4.12-2.87-6.55-7.58-5.66-8.68s4.33,1.07,13.48,4.51c12.15,4.57,14.31,4,15.56,3.1,2.38-1.75,2.78-5.82,1.91-8.68-1.14-3.78-4.52-5.61-5.8-6.22-8.05-3.84-13.57,2.28-20.62-1.24-5.19-2.6-7.84-8.76-6.81-10,.7-.83,3,.69,10.64,2.8,6.07,1.68,7.9,1.62,9.51,1.2,3.13-.83,6.5-3.33,6.18-5.19-.47-2.72-8.72-3.52-11.2-3.77-8.24-.8-12.51,1.17-15.64-1.87-.24-.23-2.19-2.16-1.64-3.49,1.4-3.41,17,2.29,19.26-1.93,1.13-2.07-.69-6-3.26-7.3-1.63-.8-2.66-.09-6.35.24-2.76.24-9.74.87-11.16-1.91a3.94,3.94,0,0,1,1.19-4.41c1.07-.85,2.56-.84,7.7.47,6.72,1.7,8.27,2.73,9.15,1.94,1.38-1.26.46-6.5-2.85-9.13-6-4.79-15.45,2.53-19.66-1.81-2.76-2.84-1.87-9.14.31-10.17,1.56-.74,3,1.62,7.84,3.1,1.2.36,7.31,2.22,9.28-.21,1.49-1.84,0-5.33-.26-5.89-3.58-8.19-16.12-8.05-16-11.15.07-2,5.66-4.58,9.76-3.12,3.51,1.24,4.5,4.91,5.75,4.51s2.18-5.41.11-9.41c-3.13-6-11.64-7.53-11.18-9.32.2-.76,1.71-.46,2.74-1.84,1.4-1.88.1-4.39.75-4.75,1.35-.74,6.52,10.23,11.15,9.63,2.24-.28,4.11-3.4,4.38-5.91.17-1.6-.34-2.68-1-4.38-1.69-4.47-3.37-9-2.63-12.82s3.9-6.91,5-6.5c1.43.53-1,6.5,2.21,9.4a4.29,4.29,0,0,0,3.94,1.17c2.46-.86,2.92-5.41,3.46-11.22.5-5.41-.72-6.77.58-9.54s4.17-5.48,6.16-4.88,3.13,4.74,2.61,7.88c-.39,2.34-1.57,3.55-.89,4.58s2.61,1.18,4,.55S1891.28,460.56,1892.15,456Z"/></svg>