<?xml version="1.0" encoding="utf-8"?>
<!-- Generator: Adobe Illustrator 26.0.0, SVG Export Plug-In . SVG Version: 6.00 Build 0)  -->
<svg version="1.1" id="Layer_1" xmlns="http://www.w3.org/2000/svg" xmlns:xlink="http://www.w3.org/1999/xlink" x="0px" y="0px"
	 viewBox="0 0 431.49 226.72" style="enable-background:new 0 0 431.49 226.72;" xml:space="preserve">
<style type="text/css">
	.st0{fill:#26A6C8;}
	.st1{fill:#238BB2;}
	.st2{fill:#10587D;}
</style>
<g>
	<path class="st2" d="M6.16,121.33c8.97,1.67,15.88,0.77,20.31-0.25c9.99-2.31,18.43-7.8,24.41-11.7c4.17-2.71,6.36-4.57,11.57-7.25
		c6.29-3.24,10.92-4.57,10.74-5.21c-0.18-0.66-5.17,0.14-10.68,1.02c-4.89,0.78-8.38,1.34-13.41,2.54
		c-8.18,1.96-8.41,2.76-14.94,4.26c-7.29,1.68-15.4,2.62-15.58,1.84c-0.17-0.74,7.11-2.36,18.56-6.93
		c13.86-5.53,13.44-7.24,22.12-9.85c3.55-1.07,13.37-3.93,25.68-2.92c12.31,1.01,19.82,5.29,20.47,3.94
		c0.63-1.3-5.69-6.77-13.73-10.24c-4.75-2.05-10.17-3.43-33.19-4.26c-12.34-0.44-18.73-0.33-18.82-1.27
		c-0.09-0.95,6.28-2.29,11.38-3.37c4.74-1,7.2-1.27,18.88-2.99c8.54-1.25,8.43-1.29,9.15-1.27c10.88,0.24,18.38,7.54,18.75,6.99
		c0.23-0.34-2.69-3.3-7.44-6.23c-5.7-3.51-7.3-2.83-17.16-7.12c-6.27-2.72-7.4-3.77-12.65-5.47c-4.14-1.34-6.73-1.74-6.68-2.16
		c0.09-0.72,7.82-0.54,14.81,0.32c4.4,0.54,7.55,0.93,11.7,2.23c2.86,0.89,9.54,3.05,15.96,8.39c7.08,5.89,9.66,12.19,10.43,11.76
		c0.71-0.4-1.32-6-4.32-11.13c-2.01-3.42-3.22-4.52-5.47-7.57c-2.76-3.74-7.98-10.93-10.3-20.53c-0.83-3.43-1.03-6.11-1.43-11.48
		c-0.39-5.18-0.8-10.63,0.1-10.83c1.11-0.25,3.11,7.73,8.46,21.04c5.63,14.03,8.44,21.04,11.7,24.92c2.59,3.08,6.28,6.62,7.88,12.71
		c0.48,1.84,0.87,4.25,1.4,7.57c1.03,6.44,1.16,9.6,1.53,9.6c0.44,0,0.88-4.57,0.89-8.77c0.01-6.76-1.09-11.78-1.52-13.58
		c-0.45-1.9-0.86-3.18-2.55-8.04c-4.5-12.9-6.77-18.66-6.42-18.82c0.1-0.04,0.36,0.41,3,5.15c3.59,6.47,4.25,7.7,5.08,9.79
		c0.53,1.33,1.16,2.93,1.72,5.15c0.98,3.88,1.07,7,1.33,6.99c0.26-0.01-0.05-3.21,1.4-7.06c0.41-1.08,1.16-2.76,1.53-2.67
		c0.35,0.09,0.08,1.68,0.13,3.31c0.12,3.91,2.08,8.04,3.24,7.95c1.11-0.09,1.59-4.25,2.48-12.08c0.73-6.42,0.52-7.35,1.21-10.87
		c1.1-5.61,3.32-11.77,4.3-11.59c0.47,0.09,0.49,1.63,0.15,14.26c-0.31,11.69-0.39,12.77-0.83,14.81
		c-0.84,3.93-1.74,5.53-2.54,10.68c-0.3,1.96-1.29,8.34-0.25,8.65c0.84,0.24,2.33-3.64,7.37-12.97c2.01-3.72,3.85-7.36,7.37-11.19
		c1.66-1.8,3.64-3.62,6.48-4.13c2.3-0.42,4.91,0.06,4.99,0.68c0.05,0.43-1.12,0.73-2.82,1.6c0,0-3.51,1.79-6.1,4.64
		c-2.11,2.32-1.33,3.02-3.69,6.74c-2.48,3.91-3.6,3.55-5.21,6.42c-2.63,4.69-2.34,10.45-1.33,10.74c0.9,0.26,2.86-3.71,3.62-5.47
		c1.21-2.79,1.13-3.99,1.97-6.17c0.29-0.76,1.2-2.94,5.15-7.18c4.44-4.77,7.48-8.03,12.52-10.3c3.11-1.4,6.42-1.91,13.03-2.92
		c5.83-0.9,7.2-0.59,11.32-1.78c5.37-1.55,7.87-3.46,8.39-2.8c0.7,0.9-2.7,5.98-7.95,9.41c-4.97,3.24-7.05,2.03-17.74,6.61
		c-3.66,1.57-5.38,2.55-6.87,3.56c-2.87,1.94-3.01,2.71-7.12,5.91c-3.99,3.11-4.61,2.97-5.79,4.64c-1.75,2.47-1.19,3.9-2.35,7.5
		c-2.1,6.49-6.46,9.7-5.98,10.17c0.43,0.41,3.8-2.03,6.74-5.09c3.13-3.26,3.45-4.82,5.59-7.18c3.13-3.46,6.68-4.82,10.87-6.42
		c5.84-2.24,11.86-4.54,17.62-2.03c4.82,2.1,7.25,6.59,7.11,6.74c-0.12,0.12-2.24-2.89-5.78-3.43c-2.41-0.37-4.12,0.61-6.17,1.4
		c-5.49,2.12-8.19,0.82-12.48,1.61c-10.28,1.92-17.02,13.57-16.26,14.41c0.53,0.59,4.39-4.57,12.21-6.36
		c6.17-1.41,15.04-0.77,19.33,4.58c2.52,3.15,0.68,5.63,3.31,8.14c1.21,1.16,3.05,2.08,12.84,1.97c8.52-0.1,12.78-0.14,15.13-1.46
		c5.04-2.82,3.85-6.17,10.17-9.66c1.74-0.96,3.86-1.83,7.12-4.07c3.11-2.14,3.98-3.28,4.45-4.01c2.02-3.12,1.66-6.38,1.99-6.36
		c0.33,0.02,0.54,3.04,0.36,6.29c-0.16,2.79-0.24,4.18-0.7,5.34c-1.91,4.77-7.99,5.72-7.63,6.87c0.3,0.93,3.55,1.29,6.1,0
		c0.7-0.35,3.76-1.95,5.59-9.15c2.18-8.58,0.09-15.12,0.76-15.26c0.62-0.12,3.38,5.28,3.5,12.08c0.08,4.76-1.18,7.14,0.19,8.26
		c1.65,1.35,4.72-1.09,10.04-2.54c2.94-0.81,4.86-0.84,13.8-0.64c12.95,0.3,19.43,0.44,20.79,0.64c7.29,1.03,12.24,2.89,22.12,6.61
		c8.73,3.29,10.69,4.77,21.49,8.71c3.14,1.15,6.95,2.54,12.02,4.07c3.15,0.95,14.44,4.28,29.56,6.55c7.01,1.05,9.56,1.08,15.96,2.48
		c6.86,1.49,10.28,2.24,10.43,2.29c3.9,1.28,6.53,2.64,7.74,1.52c1.4-1.31-0.23-4.91,0.72-5.33c0.84-0.37,2.23,2.43,3.31,2.1
		c1.2-0.37,1.54-4.49,0.48-8.02c-0.5-1.68-1.37-3.38-1.18-3.48c0.22-0.12,1.13,2.13,2.29,2.1c1.52-0.04,2.42-3.97,2.73-3.88
		c0.28,0.08-0.55,3.14-0.95,6.8c-0.34,3.06-0.39,6.65,0.13,6.74c0.64,0.11,1.67-5.14,2.42-5.02c0.46,0.07,0.79,2.22,0.31,4.13
		c-0.32,1.26-1.13,2.92-1.13,2.93c-0.82,2.49-0.35,4.49,0.64,4.9c0.65,0.27,1.65-0.1,2.16-0.76c0.58-0.75,0.36-1.66,0.25-2.92
		c-0.23-2.79,0.29-5.32,0.57-5.34c0.46-0.03,1.1,6.52,1.65,6.48c0.39-0.02,0.33-3.32,0.83-3.37c0.58-0.05,1.38,4.35,1.53,4.32
		c0.16-0.03-1.14-5.19-1.27-11.7c-0.04-2.2,0.11-1.3,0.21-6.87c0.06-3.51,0.02-4.87,0.55-5.02c0.67-0.19,1.97,1.67,2.61,3.5
		c0.74,2.12,0.26,3.22,0.38,5.79c0.14,3.04,0.9,3.48,1.65,7.31c0.25,1.25,0.41,2.37,0.51,3.44c0.21,2.26,0.16,3.95,0.15,4.32
		c-0.08,2.92-0.06,40.83,0,94.09c-139.75,0-279.5,0-419.25,0C6.16,188.12,6.16,154.73,6.16,121.33z"/>
	<path class="st2" d="M9.82,118.28c-0.33-2.6-1.9-4.76-2.35-5.4c-0.77-1.1-1.08-1.2-1.31-1.97c-0.3-1,0.02-1.46,0-3.56
		c-0.02-1.44-0.17-1.83,0-1.91c0.47-0.2,2.46,2.34,3.34,5.53c0.7,2.56,0.22,3.87,0.7,4.01c1,0.27,4.46-5.13,3.18-9.28
		c-0.19-0.62-0.53-1.34-0.91-2.15c-0.92-1.97-1.63-2.92-2.4-4.21c-1.59-2.66-2.9-4.89-2.54-7.37c0.26-1.81,1.35-3.41,1.91-3.31
		c0.53,0.09,0.18,1.61,1.27,3.62c0.76,1.4,1.33,1.4,1.87,2.7c0.43,1.05,0.29,1.59,0.42,3.21c0.02,0.2,0.43,4.94,1.27,5.02
		c0.63,0.06,1.71-2.46,1.91-5.09c0.1-1.32-0.01-2.85-2.03-8.33c-1.46-3.96-2.22-5.35-3.12-8.71c-0.59-2.19-1.2-4.49-0.64-4.77
		c0.64-0.32,2.7,2,3.94,4.51c0.49,0.99,0.73,1.76,1.84,6.29c1.08,4.4,1.28,5.43,1.78,5.47c0.81,0.07,1.94-2.29,2.29-4.58
		c0.43-2.82-0.48-4.43-3.18-12.33c0,0-0.99-3.64-0.89-8.39c0.04-1.79,0.2-2.12,0.38-2.16c0.73-0.18,2.79,3.83,3.56,8.14
		c0.29,1.59,0.36,3.26,0.51,6.61c0.18,3.95,0.06,5.84,0.76,6.04c0.43,0.12,1.05-0.64,2.29-2.16c1.37-1.68,2.25-2.8,2.67-4.51
		c0.06-0.25,0.26-1.13,0.21-2.34c-0.17-4.05-3.03-8.52-4.41-11.9c-2.4-5.89-2.06-12.72-0.57-13.22c0.85-0.29,2.44,1.36,2.99,3.05
		c0.49,1.51-0.08,2.34-0.19,4.64c-0.03,0.64,0,0.84,0.7,5.47c0.64,4.27,0.81,5.36,1.27,7.06c0.74,2.68,1.17,4.21,2.03,4.32
		c1.2,0.15,2.56-2.36,3.18-4.2c0.39-1.16,1.1-3.89-0.38-9.28c-1.77-6.46-3.66-7.38-4.2-12.59c-0.31-3.01-0.03-6.28,0.57-6.36
		c0.33-0.04,0.62,0.91,1.65,3.31c1.81,4.2,2.19,4.23,2.86,6.23c0.77,2.3,0.87,4.07,1.02,6.61c0.35,6.1-0.8,9.05,0,9.35
		c0.84,0.31,3.17-2.53,3.81-5.79c0.29-1.46,0.13-2.72-0.19-5.18c-0.44-3.4-1.12-5.94-1.27-6.51c-0.69-2.54-1.52-4.86-2.67-9.28
		c-0.29-1.12-0.64-2.55-0.06-4.07c0.5-1.31,1.66-2.62,2.42-2.42c0.55,0.15,0.67,1.07,1.02,2.73c0.76,3.67,0.95,2.95,1.4,5.53
		c0.38,2.15,0.37,3.09,0.64,10.55c0.1,2.88,0.12,4.54,0.76,4.7c0.67,0.18,1.7-1.37,3.31-3.81c0.97-1.47,1.49-2.19,1.65-2.8
		c0.76-2.81-0.94-5.47-1.14-5.78c-0.74-1.12-1.03-0.9-1.4-1.78c-0.69-1.62,0.29-2.39,0-4.9c-0.19-1.63-0.71-2.23-0.25-2.92
		c0.42-0.64,1.44-1.01,2.1-0.7c0.71,0.34,0.73,1.36,1.02,4.26c0.34,3.42,0.29,1.71,0.57,4.96c0.38,4.33,0.3,5.41,0.64,5.47
		c0.58,0.11,1.79-2.88,2.42-5.72c0.4-1.84,1.15-5.27,0.7-9.15c0,0-0.22-1.85,0.23-4.25c0.33-1.78,0.7-2.08,0.98-2.17
		c0.69-0.22,1.68,0.61,2.1,1.53c0.44,0.97,0.11,1.74-0.19,3.31c-0.6,3.13,0.11,3.27-0.51,6.17c-0.53,2.47-1.31,3.63-1.02,3.81
		c0.42,0.27,2.08-2.08,5.47-5.09c1.59-1.41,4-3.54,4.59-3.09c0.47,0.36-0.28,2.32-1.22,3.78c-1.85,2.89-3.93,3.12-6.93,5.66
		c-3.09,2.62-5.02,5.88-4.58,6.36c0.51,0.54,3.75-2.92,9.47-3.75c1.61-0.23,4.24-0.38,4.45,0.32c0.21,0.7-2.03,2.18-4.07,2.92
		c-1.72,0.63-2.12,0.3-4.07,1.02c-1.65,0.61-1.8,1.01-3.5,1.78c-2.99,1.36-3.38,0.5-5.11,1.54c-1.29,0.77-2.27,2.39-4.24,5.64
		c-0.99,1.63-1.48,2.46-1.27,2.67c0.49,0.5,3.48-2.36,9.09-5.15c3.73-1.86,5.48-2.12,6.74-2.16c2.8-0.1,5.57,0.78,5.53,1.14
		c-0.02,0.23-1.12,0.19-2.35,0.38c-3.09,0.49-4.11,1.98-6.93,3.5c-4.31,2.32-7.28,1.74-12.02,4.13c-0.55,0.28-1.32,0.69-2.16,1.4
		c-1.38,1.15-2.12,2.37-2.92,3.69c-0.69,1.14-1.07,1.69-0.89,1.91c0.32,0.4,2-0.46,3.56-1.27c3.11-1.61,3.21-2.18,5.09-2.86
		c1.53-0.55,1.48-0.18,4.32-0.89c2.79-0.7,2.88-1.07,4.58-1.34c2.67-0.42,5.48,0.03,5.53,0.57c0.03,0.32-0.92,0.63-3.5,1.46
		c-4.64,1.51-6.96,2.26-7.57,2.48c-5.59,2.03-5.42,3.14-8.46,3.37c-1.47,0.11-2.67-0.06-4.45,0.64c-1.72,0.67-2.81,1.7-3.37,2.23
		c-0.91,0.86-1.32,1.53-4.07,6.68c-1.29,2.41-1.48,2.79-1.34,2.92c0.54,0.49,4.49-3.82,11.33-7.89c0.66-0.39,3.33-1.95,7.11-2.66
		c1.43-0.27,3.11-0.58,3.31-0.13c0.4,0.91-5.15,4.79-11.06,7.5c-6.54,3-9.14,2.59-11.7,5.85c-1.32,1.69-2.29,3.92-3.18,5.98
		c-0.59,1.36-1.95,4.49-1.4,4.83c0.37,0.23,1.38-0.99,3.97-3.59c3.07-3.09,4.61-4.63,6.14-5.62c1.52-0.99,3.35-1.66,6.99-2.99
		c3.07-1.12,5.62-2.05,5.91-1.53c0.29,0.51-1.66,2.21-2.92,3.12c-1.05,0.75-1.75,1.05-3.12,1.78c-1.72,0.92-1.95,1.16-4.39,2.61
		c-5.33,3.17-6.12,3.13-8.9,5.21c-1.27,0.95-2.37,1.91-3.43,3.24c-0.88,1.12-1.44,2.13-1.84,2.86c-0.33,0.6-1.04,1.97-1.72,3.94
		c-0.8,2.34-1.44,4.21-0.95,4.51c0.83,0.52,4.66-3.79,6.42-5.79c2.02-2.28,2.53-3.15,4.13-4.01c1.69-0.89,2.2-0.49,4.64-1.46
		c3.16-1.26,4.56-2.83,5.02-2.42c0.43,0.39-0.46,2.11-1.07,3.06c-1.37,2.13-3.17,3.35-4.62,4.2c-4.24,2.49-4.58,1.37-7.47,3.3
		c-3.54,2.37-3.28,4.21-6.45,6c-0.67,0.38-1.85,0.96-2.2,2.14c-0.32,1.1,0.28,2-0.25,2.5c-0.39,0.36-1.21,0.35-1.69-0.02
		C9.35,121.66,10.09,120.44,9.82,118.28z"/>
	<path class="st2" d="M213.25,12.62c0.4-3.12-0.29-4.58,0.38-4.96c0.55-0.31,1.69,0.26,1.97,1.02c0.32,0.87-0.54,1.87-0.32,2.03
		c0.26,0.19,1.41-1.19,1.78-0.95c0.28,0.18-0.32,1.02-0.03,2.11c0.27,1.02,1.04,1.22,0.92,1.7c-0.16,0.64-1.5,0.36-2.86,1.4
		c-0.55,0.42-1.42,1.29-1.21,1.78c0.35,0.83,3.38-0.42,4.44,0.91c0.45,0.57,0.55,1.62,0.08,2.14c-1.08,1.19-4.14-1.61-7.57-0.45
		c-1.54,0.52-2.71,1.7-2.54,2.16c0.3,0.82,4.78-0.94,5.98,0.76c0.46,0.65,0.44,1.81-0.13,2.42c-1.39,1.51-5.11-1.34-7.25,0.38
		c-0.51,0.41-0.97,1.27-0.89,2.16c0.02,0.17,0.11,1.04,0.76,1.53c1.41,1.05,3.9-0.92,4.66-0.08c0.34,0.38,0.23,1.21-0.15,1.73
		c-0.85,1.18-2.65,0.25-5.53,1.14c-1.13,0.35-2.83,0.89-3.31,2.29c-0.46,1.38,0.42,3.27,1.4,3.43c0.82,0.14,1.16-1.03,3.18-2.16
		c0.92-0.51,2.29-1.29,3.05-0.76c0.76,0.53,0.8,2.3,0,3.31c-0.9,1.13-2.17,0.41-3.69,1.53c-1.6,1.17-2.34,3.55-1.65,4.32
		c0.1,0.11,0.43,0.43,1.53,0.25c4.09-0.65,5.88-6.17,7.37-5.72c0.69,0.21,1.12,1.65,0.89,2.8c-0.47,2.37-3.51,2.32-5.72,5.85
		c-0.7,1.12-0.96,2.02-0.89,2.92c0.06,0.8,0.37,2.26,1.27,2.54c0.87,0.28,1.92-0.66,3.24-1.84c1.55-1.39,1.78-2.12,2.61-2.16
		c0.96-0.05,2.07,0.86,2.1,1.72c0.01,0.38-0.18,0.83-2.73,2.67c-2.24,1.61-2.69,1.69-3.05,2.42c-0.78,1.59-0.02,4.05,1.02,4.32
		c1.33,0.35,2.62-3.74,4.83-3.56c1.12,0.09,2.26,1.26,2.16,2.16c-0.17,1.49-3.59,1.11-5.09,3.56c-1.14,1.87-0.67,4.6,0.25,4.96
		c0.53,0.21,1-0.43,3.94-2.16c1.5-0.88,1.97-1.06,2.42-0.89c0.84,0.32,1.42,1.83,1.02,2.92c-0.7,1.9-3.78,1.02-5.59,3.31
		c-1.35,1.71-1.46,4.42-0.51,5.09c0.58,0.41,1.73-0.08,4.01-1.08c3.01-1.32,3.7-2.05,4.26-1.72c1.03,0.62,0.88,4.44-1.08,5.79
		c-2.08,1.42-4.56-1.05-7.06,0.44c-1.6,0.96-2.65,3.2-2.03,4.2c1.18,1.92,8.06-2.08,10.55,0.64c1.07,1.16,1.19,3.4,0.25,4.32
		c-1.97,1.94-7.77-2.87-10.43-0.64c-0.85,0.71-1.29,2.06-0.89,2.92c0.95,2.08,6.54,0.76,6.87,2.03c0.17,0.68-1.2,1.98-2.8,2.29
		c-2.82,0.54-4.37-2.4-6.61-1.65c-1.4,0.46-2.37,2.14-2.03,2.92c0.23,0.54,1,0.47,3.43,1.14c2.75,0.76,2.98,1.19,3.05,1.4
		c0.27,0.81-0.55,2.13-1.65,2.54c-1.29,0.48-1.98-0.64-4.45-0.89c-1.17-0.12-2.73-0.28-3.81,0.64c-0.45,0.38-0.91,1.31-1.78,3.18
		c-0.9,1.92-0.87,2.09-1.23,2.36c-0.85,0.65-1.49,0.13-4.36,0.17c-2.09,0.03-3.04,0.33-3.56-0.31c-0.37-0.46-0.12-0.88-0.25-1.46
		c-0.6-2.57-7.24-2-7.88-4.32c-0.3-1.07,0.65-2.56,1.65-2.8c0.99-0.23,1.78,0.84,5.85,3.81c0.91,0.66,1.59,1.13,2.54,1.14
		c1.38,0.01,2.86-0.93,2.8-1.65c-0.09-1.07-3.53-0.79-4.83-3.18c-0.09-0.16-0.57-1.04-0.25-1.4c0.67-0.76,3.96,2,5.21,1.02
		c0.89-0.69,0.2-2.82,0.13-3.05c-0.7-2.1-2.65-3-3.05-3.18c-0.7-0.3-1.82-0.63-4.83-0.13c-4.63,0.77-7.09,2.38-7.5,1.78
		c-0.28-0.41,0.54-1.64,1.53-2.42c2.22-1.76,4.88-0.99,5.09-1.78c0.17-0.66-1.49-1.99-3.43-2.42c-1.86-0.41-2.74,0.28-6.1,0.89
		c-3.27,0.59-5.8,0.54-5.85,0.25c-0.05-0.27,2.17-0.38,3.69-2.16c0.16-0.19,1.49-1.75,1.02-2.67c-0.82-1.6-6.12,0.67-7.25-1.14
		c-0.59-0.95,0.12-2.78,1.02-3.05c1.04-0.31,2.16,1.47,2.67,1.14c0.39-0.25,0.3-1.68-0.51-2.42c-1.04-0.95-2.41,0.04-4.58-0.38
		c-2.57-0.51-4.45-2.66-4.2-3.18c0.35-0.71,4.62,1.77,6.61,0c0.79-0.7,1.2-2.06,0.76-2.92c-0.67-1.33-2.82-0.51-4.7-2.16
		c-1.36-1.19-1.92-3.09-1.53-3.43c0.33-0.28,1.49,0.45,3.81,1.91c1.93,1.21,2.61,1.79,3.05,1.53c0.56-0.34,0.34-1.76,0.13-2.54
		c-0.65-2.33-2.32-2.58-2.42-4.2c-0.06-1,0.57-1.06,1.53-3.31c0.76-1.78,1.02-3.3,1.14-4.07c0.51-3.07-0.05-4.77,0.51-4.96
		c0.53-0.18,1.53,1.18,2.03,2.29c1.07,2.33,0.47,4.65,0.38,4.96c-0.61,2.24-1.8,2.43-2.29,4.7c-0.37,1.73-0.06,3.4,0.25,3.43
		c0.62,0.07,1.22-6.16,2.67-6.23c0.89-0.04,1.53,3.01,1.91,2.92c0.47-0.11-1.11-4.52,0.76-6.36c1.11-1.09,3.35-1.18,4.2-0.25
		c1.25,1.37-0.2,5.36-2.54,7.76c-1.8,1.84-3.09,1.69-4.58,3.81c-1.24,1.77-1.9,4.1-1.27,4.58c0.86,0.65,3.24-2.78,6.74-2.42
		c1.07,0.11,2.48,0.6,2.54,1.27c0.08,0.86-3.34,0.66-6.23,3.18c-0.48,0.42-2.72,2.36-2.16,3.94c0.24,0.69,1.04,1.34,1.78,1.27
		c1.61-0.14,2.02-3.52,2.92-3.43c0.68,0.07,1.4,2.03,1.02,3.81c-0.38,1.78-1.61,2.21-1.4,3.18c0.28,1.3,2.92,2.45,4.07,1.65
		c1.8-1.25-1.18-6.48,1.02-8.26c0.86-0.7,2.36-0.75,2.92-0.13c1.19,1.34-2.7,4.88-1.4,7.76c0.72,1.6,2.86,2.57,3.81,2.03
		c1.32-0.74,0.02-4.23,1.27-4.83c0.75-0.36,2.26,0.4,2.67,1.53c0.76,2.1-2.8,4.15-2.03,6.1c0.41,1.05,1.91,1.74,2.92,1.4
		c0.92-0.31,1.3-1.42,1.48-1.95c0.61-1.77-0.03-3.23,0.29-3.35c0.28-0.1,1.1,0.83,1.53,2.08c0.68,1.97-0.21,2.94-0.25,5.76
		c-0.03,1.71-0.06,4.04,1.4,5.09c1.02,0.73,2.66,0.76,3.43,0c1.25-1.23-0.07-4.3-0.51-5.34c-0.86-2.01-2.01-3.21-1.78-3.43
		c0.36-0.35,2.94,2.71,4.45,2.03c0.99-0.44,1.4-2.5,0.76-3.94c-0.46-1.03-1.21-1.2-4.96-3.43c-0.56-0.33-3.29-1.97-3.12-2.33
		c0.09-0.2,0.99,0.2,1.34-0.21c0.4-0.46-0.31-1.45-0.06-1.65c0.28-0.22,1.57,0.72,2.99,2.16c2.08,2.11,2.33,3.15,3.81,3.69
		c0.32,0.12,1.76,0.59,2.42-0.06c0.68-0.68,0.28-2.39-0.51-3.5c-0.76-1.06-1.4-0.9-4.96-2.99c-0.7-0.41-1.37-0.82-2.1-1.53
		c-0.85-0.82-1.82-2.08-1.59-2.35c0.25-0.3,1.68,0.81,4.45,1.97c2.45,1.02,4.2,1.75,5.09,1.02c0.84-0.7,0.97-2.76,0-3.88
		c-1.78-2.05-5.71,0.8-9.41-1.46c-1.77-1.08-2.88-2.96-2.54-3.43c0.31-0.44,1.81,0.34,5.66,1.53c5.12,1.58,5.99,1.3,6.48,0.89
		c0.94-0.78,1-2.47,0.57-3.62c-0.57-1.53-2-2.2-2.54-2.42c-3.41-1.38-5.53,1.27-8.52,0c-2.2-0.94-3.45-3.41-3.05-3.94
		c0.27-0.36,1.25,0.21,4.45,0.89c2.54,0.54,3.29,0.47,3.94,0.25c1.27-0.42,2.59-1.53,2.42-2.29c-0.26-1.11-3.68-1.23-4.7-1.27
		c-3.41-0.13-5.12,0.79-6.48-0.38c-0.1-0.09-0.96-0.84-0.76-1.4c0.49-1.44,7.05,0.52,7.88-1.27c0.41-0.88-0.44-2.46-1.53-2.92
		c-0.69-0.29-1.1,0.03-2.61,0.25c-1.13,0.17-3.99,0.6-4.64-0.51c-0.32-0.54-0.1-1.41,0.38-1.84c0.42-0.38,1.03-0.41,3.18,0
		c2.81,0.54,3.47,0.92,3.81,0.57c0.54-0.55,0.03-2.68-1.4-3.69c-2.59-1.82-6.3,1.43-8.14-0.25c-1.21-1.1-1-3.72-0.13-4.2
		c0.62-0.34,1.27,0.59,3.31,1.08c0.5,0.12,3.06,0.73,3.81-0.32c0.57-0.79-0.14-2.19-0.25-2.42c-1.68-3.29-6.83-2.92-6.87-4.2
		c-0.02-0.84,2.22-2.02,3.94-1.53c1.48,0.43,1.97,1.91,2.48,1.72c0.55-0.21,0.76-2.28-0.19-3.88c-1.44-2.41-4.98-2.81-4.83-3.56
		c0.06-0.32,0.69-0.23,1.08-0.83c0.53-0.81-0.07-1.81,0.19-1.97c0.54-0.34,2.94,4.05,4.83,3.69c0.91-0.17,1.6-1.5,1.65-2.54
		c0.03-0.66-0.2-1.1-0.51-1.78c-0.8-1.8-1.61-3.6-1.4-5.21c0.21-1.62,1.44-2.94,1.91-2.8c0.6,0.18-0.23,2.7,1.14,3.81
		c0.41,0.33,1.11,0.61,1.65,0.38c0.99-0.41,1.07-2.3,1.14-4.7c0.07-2.24-0.47-2.77,0-3.94c0.46-1.16,1.58-2.36,2.42-2.16
		c0.86,0.2,1.41,1.87,1.27,3.18c-0.1,0.97-0.56,1.5-0.25,1.91c0.29,0.39,1.1,0.42,1.65,0.13C212.7,15.23,213.01,14.53,213.25,12.62z
		"/>
	<path class="st2" d="M251.27,21.01c-3.61-2.95-4.74-2.25-6.36-4.07c-2.9-3.25-3.08-9.68-0.44-11.32c2.03-1.26,5.39,0.56,6.99,1.91
		c1.99,1.67,3.24,4.24,3.22,6.73c-0.02,2.04-0.88,2.19-0.86,4.33c0.03,2.52,1.28,5.67,3.18,5.98c0.88,0.14,1.93-0.45,2.42-1.27
		c0.93-1.58-0.84-3.09-0.25-4.83c0.71-2.09,4.49-3.57,6.29-2.35c2.2,1.48,1.43,6.97-0.83,8.2c-1.4,0.76-3.16-0.24-4.83,1.14
		c-0.5,0.41-0.75,0.83-1.02,1.27c-1.37,2.27-1.85,5.96-0.38,6.87c0.86,0.53,2.29,0.05,3.18-0.64c1.93-1.49,1-3.77,2.67-5.21
		c1.56-1.34,4.57-1.27,5.4-0.06c1.21,1.77-1.62,6.86-4.64,7.18c-1.44,0.16-2.17-0.86-4.07-0.51c-1.72,0.32-2.84,1.48-3.12,1.78
		c-1.7,1.86-0.88,3.59-1.84,6.74c-1.29,4.23-4.16,5.67-3.56,6.48c0.67,0.9,4.4-0.02,6.74-2.42c1.44-1.48,1.15-2.28,2.42-4.07
		c2.38-3.35,7.26-5.98,9.66-4.45c1.35,0.86,1.79,2.93,1.53,4.45c-0.64,3.71-5.77,5.72-9.28,6.1c-1.97,0.21-1.92-0.25-3.94,0
		c-0.64,0.08-6.41,0.87-8.52,4.7c-0.91,1.66-0.32,2.4-0.38,6.61c-0.12,7.65-2.19,11.67-0.76,12.46c0.82,0.46,2.34-0.45,3.18-1.4
		c1.95-2.2,0.26-4.6,1.4-9.41c0.39-1.63,1-4.25,3.24-6.36c2.44-2.3,5.39-2.64,6.8-2.8c0.57-0.07,5.37-0.61,6.23,1.27
		c0.31,0.68-0.14,1.13-0.51,3.18c-0.36,2.05-0.13,2.86-0.25,4.07c-0.3,2.91-2.39,4.99-3.88,6.48c-1.58,1.58-4.67,4.67-8.2,4.32
		c-1.14-0.11-2.04-0.55-3.05,0c-0.99,0.54-1.4,1.67-1.91,3.05c-0.52,1.43-0.96,2.66-0.51,3.05c0.7,0.61,2.88-1.47,7.12-3.89
		c4.99-2.85,5.58-2.03,8.02-4.06c3.38-2.82,2.47-4.59,5.59-7.18c3.4-2.82,8.83-4.33,10.55-2.42c1.24,1.38,0.71,4.56-0.89,6.48
		c-2.8,3.37-8.5,3.64-10.55,3.69c-1.45,0.04-1.9-0.11-3.12,0.13c-1.76,0.35-2.47,0.99-6.23,3.43c-1.58,1.03-3.12,1.99-5.79,3.81
		c-2.23,1.52-2.62,1.84-2.54,2.03c0.23,0.56,4.15-0.29,7.5-1.53c4.45-1.64,4.53-2.7,7.25-3.18c3.65-0.65,8.53,0.37,9.28,2.92
		c0.48,1.63-0.67,3.72-2.16,4.7c-0.79,0.52-2.23,0.55-5.09,0.57c-4.63,0.04-5.71-0.38-6.48-0.83c-1.14-0.66-0.92-1-2.03-1.53
		c-2.31-1.1-4.72-0.36-5.47-0.13c-1.22,0.37-2.47,0.76-3.18,1.91c-0.4,0.65-0.45,1.25-0.38,3.81c0.03,1.18,0.09,2.68,0.19,4.42
		c-0.55,0.05-1.09,0.11-1.64,0.16c0.15-1.49,0.24-4.62-1.6-7.64c-1.59-2.61-3.83-3.85-5.85-4.96c-2.07-1.14-3.68-1.57-6.87-2.42
		c-2.82-0.75-5.02-1.32-7.95-1.21c-2.01,0.07-2,0.38-3.18,0.25c-3.51-0.37-7.37-3.44-6.93-6.04c0.32-1.89,2.84-3.08,4.51-3.43
		c4.18-0.87,7.88,2.46,8.58,3.12c1.87,1.77,1.66,2.75,3.81,4.39c1.26,0.95,1.73,0.87,4.7,2.29c5.14,2.46,6.56,3.69,7.37,3.05
		c0.85-0.66,0.3-2.71,0-3.81c-0.54-2-1.62-3.34-2.54-4.45c-0.96-1.16-1.74-2.1-2.92-2.8c-2.83-1.67-4.72,0.52-7.37-0.89
		c-1.83-0.98-1.2-2.09-3.77-3.91c-1.98-1.4-2.87-1.11-3.73-2.32c-1.04-1.47-1.18-3.95,0-5.34c1.7-2.01,5.59-1.15,7.63-0.13
		c1.66,0.84,1.64,1.56,4.38,3.06c1.23,0.67,1.88,0.88,2.55,1.65c1.03,1.19,1.21,2.71,1.21,3.81c-0.16,1.24-0.5,1.7-0.25,2.42
		c0.39,1.11,1.94,2.13,2.92,1.78c2.27-0.8,1.29-8.82-0.13-13.6c-0.43-1.45-0.8-2.25-1.53-2.92c-2.16-2-4.76-0.36-7.88-1.4
		c-5-1.66-6.68-8.64-6.99-10.17c-0.35-1.68-1.48-7.21,1.53-9.41c2.09-1.52,5.03-0.62,5.72-0.38c2.26,0.78,3.79,3.19,6.87,8.01
		c2.61,4.09,3.71,6.73,3.43,8.52c-0.02,0.13-0.17,1.05-0.13,2.29c0.04,1.24,0.08,2.4,0.51,2.54c0.76,0.26,2.41-2.85,4.2-6.23
		c1.08-2.05,1.76-3.52,2.16-5.47c0.52-2.48,0.13-3.46-0.13-3.94c-0.73-1.36-2.12-1.88-2.54-2.03c-2.03-0.74-2.84,0.38-4.83,0.13
		c-2.44-0.31-4.01-2.36-6.48-5.59c-1.45-1.9-2.18-2.88-2.16-4.2c0.03-2.07,1.66-4.31,3.56-4.58c1.32-0.18,2.7,1.15,5.47,3.81
		c2.5,2.4,3.78,3.68,3.94,5.59c0.07,0.84-0.11,1.37,0.25,2.29c0.55,1.39,1.99,2.73,2.92,2.42c0.87-0.29,1.03-1.93,1.14-3.18
		c0.08-0.84,0.22-2.5-0.51-4.45C255.19,25.35,254.41,23.57,251.27,21.01z"/>
	<path class="st2" d="M323.36,101.62c-1.81,0.07-2.21,1.13-3.81,1.4c-2.9,0.49-5.78-2.23-5.59-2.67c0.14-0.33,2.08,0.59,2.8-0.25
		c0.38-0.45,0.33-1.31,0-1.78c-0.93-1.35-4.22,0.11-7.76,0.51c-3.95,0.44-6.83-0.58-12.14-2.48c-1.45-0.52-7.4-2.68-11.89-6.42
		c-1.42-1.19-2.13-2.05-4.51-3.88c-2.14-1.64-3.26-2.24-3.12-2.73c0.2-0.69,2.79-1.07,4.96-0.13c1.99,0.87,2,2.14,5.85,5.98
		c1.42,1.41,2.09,1.91,2.54,2.23c1.57,1.08,2.92,1.53,4.64,2.1c5.15,1.69,7.74,2.54,8.71,2.67c1.43,0.19,3.05,0.17,6.29,0.13
		c4.35-0.06,4.58-0.35,4.64-0.51c0.46-1.29-6.28-4.8-8.77-6.1c-9.51-4.98-10.81-3.68-16.02-7.5c-3.34-2.45-4.29-4.07-7.25-4.58
		c-2.92-0.5-4.36,0.67-7.76-0.25c-2.91-0.79-5.24-2.58-5.09-2.92c0.09-0.21,1.03,0.1,3.56,0.64c4.2,0.9,6.31,1.34,6.74,0.76
		c0.77-1.04-1.15-4.71-3.69-6.99c-0.89-0.81-1.78-1.37-2.03-2.54c-0.3-1.38,0.4-3.15,1.27-3.31c1.14-0.2,2.06,3.19,5.09,7.25
		c0.32,2.48,1.2,3.71,2.16,4.32c0.85,0.54,1.38,0.36,2.8,0.89c1.62,0.6,2.31,1.35,3.95,2.58c1.2,0.9,2.49,1.67,5.08,3.21
		c2.51,1.49,2.61,1.33,6.42,3.37c3.83,2.05,5.68,3.26,9.22,4.58c1.67,0.62,3.07,1.13,3.31,0.76c0.4-0.63-2.68-3.48-5.47-5.47
		c-2.72-1.94-3.32-1.65-6.61-3.94c-2.37-1.65-3.64-2.55-4.7-4.26c-1.13-1.82-0.62-2.29-1.78-5.15c-0.49-1.21-1.74-4.28-4.2-6.48
		c-1.55-1.39-2.21-1.2-5.98-2.92c-4.96-2.27-9.65-4.49-10.81-8.52c-0.34-1.17-0.35-2.44,0.04-2.6c0.94-0.39,3.11,6.03,8.35,7.56
		c0.29,0.09,2.43,0.69,2.92-0.06c0.77-1.17-2.54-5.37-3.81-6.99c-0.8-1.02-1.57-1.9-1.31-2.31c0.28-0.43,1.58-0.18,2.46,0.21
		c2.62,1.15,2.34,4.02,4.7,7.37c2.26,3.22,3.31,2.17,5.85,5.59c0.99,1.34,1.14,1.91,3.94,8.01c1.77,3.86,2.66,5.79,2.8,5.98
		c2.03,2.62,3.28,2.08,10.3,6.74c1.91,1.27,3.19,2.22,3.62,1.84c0.6-0.51-0.82-3.09-1.46-4.26c-1.49-2.71-2.81-4.42-4.7-6.48
		c-0.36-0.4-1.68-2.17-4.32-5.72c-4.51-6.06-3.95-6.11-6.23-8.9c-4.66-5.71-6.52-4.93-9.66-9.85c-2.31-3.63-3.85-8.04-3.18-8.46
		c0.35-0.22,1.3,0.68,1.78,1.14c1.62,1.55,1.96,2.89,2.99,4.77c0.67,1.23,1.78,2.58,4.01,5.28c2.65,3.21,3.08,3.26,3.31,3.18
		c0.3-0.11,0.64-0.58,0.51-5.85c-0.1-3.83-0.27-5.15,0-5.21c0.4-0.09,1.53,2.68,2.16,5.59c0.79,3.67-0.01,3.85,0.64,6.36
		c1.15,4.45,3.71,3.98,5.21,8.9c0.56,1.84,0.74,3.64,2.16,4.32c0.67,0.32,1.67,0.47,2.29,0c0.48-0.36,0.69-1.06,0.38-4.77
		c-0.23-2.71-0.46-3.78-0.32-3.81c0.25-0.07,1.54,3.12,2.35,6.93c0.84,3.95,0.21,4.44,0.89,7.63c0.88,4.1,2.43,6.89,4.32,10.3
		c2.13,3.84,4.15,7.47,5.59,7.12c1.25-0.3,1.62-3.47,1.53-5.47c-0.04-0.97-0.23-2.36-2.29-6.87c-2.11-4.62-3.25-6.06-3.69-9.28
		c-0.19-1.41-0.23-3.01,0-3.05c0.26-0.05,0.63,2,1.78,4.96c0.48,1.24,1.54,3.29,3.69,7.37c0.47,0.9,1.17,2.21,1.59,2.1
		c0.52-0.14-0.15-2.25,0.89-3.12c1.12-0.93,3.69,0.02,3.69,0.57c0,0.34-0.96,0.28-1.91,0.95c-1.89,1.34-1.94,4.3-1.97,5.91
		c-0.02,1.11-0.03,3.65,1.53,6.29c1.58,2.69,4.85,5.62,6.36,4.83c0.48-0.25,1.05-0.99,0.25-10.55c-0.37-4.4-0.55-6.6-0.76-7.25
		c-1.71-5.19-5.04-4.93-10.17-12.08c-1.7-2.37-1.82-3.07-5.09-7.76c-2.81-4.03-3.84-5.11-5.34-5.98c-2.93-1.69-4.24-0.57-6.36-2.16
		c-1.52-1.14-0.96-1.93-3.56-8.14c-2.09-4.99-3.1-6.13-4.26-6.93c-1.21-0.83-2.58-1.28-2.48-1.72c0.1-0.44,1.63-0.57,2.87-0.37
		c3.09,0.5,4.99,3.14,5.27,3.55c1.93,2.78,0.59,4.22,2.16,7.25c2.02,3.88,6.34,6.66,7.88,5.72c1.39-0.84,0.48-4.67,0.38-5.09
		c-1.13-4.59-4.42-5.54-6.48-11.06c-0.16-0.43-1.24-3.33-0.64-3.69c0.61-0.36,2.32,2.26,6.48,6.48c3.85,3.9,4.71,4.02,5.34,5.85
		c0.97,2.85-0.74,3.68-0.51,8.14c0.22,4.31,2.16,7.42,3.31,9.28c1.6,2.6,3.35,5.46,4.83,5.15c2.49-0.52,2.55-9.67,2.16-14.3
		c-0.22-2.63-0.35-3.97-1.14-5.47c-2.04-3.83-5.45-3.67-6.29-6.93c-0.52-2.01,0.65-2.56,0.08-5.78c-0.46-2.59-1.49-3.83-1.16-4.07
		c0.49-0.34,3.43,1.73,3.94,4.58c0.22,1.22-0.21,1.44,0.06,3.18c0.21,1.32,0.48,3.07,1.84,3.81c0.71,0.39,1.71,0.51,2.54,0.13
		c1.54-0.7,1.88-2.82,2.16-4.7c0.61-4.12-0.32-6.98,0.13-7.12c0.35-0.11,1.4,1.51,2.03,3.56c1.24,4.04-0.18,6.36-1.02,12.08
		c-0.9,6.16,0.42,5.77-0.57,12.65c-0.39,2.72-0.46,5.48-0.83,8.2c-0.22,1.61-0.42,2.85,0.06,4.37c0.58,1.83,1.74,2.77,3.12,4.15
		c1.1,1.11,3.82,3.84,5.15,6.48c1.88,3.75-0.11,5.17,1.34,11.06c0.48,1.95,1.75,7.13,4.2,7.37c1.77,0.18,3.86-2.27,4.32-4.7
		c0.31-1.61-0.13-3.13-3.18-8.14c-4.19-6.9-4.96-6.66-5.85-9.41c-1.48-4.57-0.57-8.94-0.25-10.43c0.95-4.51,2.59-5.33,2.67-8.9
		c0.07-3.24-1.23-5.08-2.42-7.88c-3.99-9.43-2.67-20.28-1.14-20.6c0.81-0.17,2.3,2.49,2.92,4.96c1.52,6.01-2.32,10.05-0.25,12.33
		c1.07,1.18,3.3,1.42,4.58,0.64c1.9-1.17,0.8-4.1,2.42-9.41c0.88-2.88,2.49-6.27,3.18-6.1c0.84,0.21,0.66,5.86-0.89,10.81
		c-1.11,3.54-2.29,5.98-2.29,5.98c-0.81,1.66-1.4,2.56-1.91,4.32c-0.51,1.75-0.41,2.56-0.64,4.2c-0.45,3.28-1.3,3.4-2.67,8.14
		c-1.53,5.29-0.88,6.57-0.51,7.12c0.61,0.89,1.81,1.74,3.05,1.65c2.79-0.2,4.91-5.13,5.15-9.03c0.16-2.64-0.54-4.68-0.19-4.77
		c0.35-0.09,1.18,2,1.91,3.81c0.62,1.56,0.67,1.96,0.65,2.34c-0.07,1.25-0.83,1.65-1.73,3.12c-1.27,2.08-0.58,2.64-1.97,5.66
		c-0.95,2.06-1.28,1.82-1.65,3.05c-0.6,2.03-0.48,5.28,1.4,6.48c2.19,1.4,5.9-0.52,7.63-2.92c0.8-1.11,1.28-2.5,1.27-6.99
		c-0.02-8.5-1.75-8.98-0.89-12.84c1.16-5.2,4.87-6.91,3.81-9.79c-0.7-1.91-3.01-1.37-4.45-3.69c-0.52-0.83-1.14-2.35-0.32-6.99
		c1.04-5.83,3.34-10.84,3.81-10.68c0.53,0.17-0.01,7.07-1.08,12.21c-0.18,0.88-0.59,2.73,0.38,3.75c0.8,0.84,1.83,0.38,3.18,1.33
		c1.51,1.07,1.57,2.6,2.03,2.54c0.7-0.08,0.71-3.61,1.08-8.26c0.32-3.98,0.72-8.97,1.59-9.03c0.49-0.04,1.05,1.52,1.27,2.67
		c0.45,2.32-0.55,4.01-0.64,5.47c-0.36,5.86,0.69,6.56,0.13,9.54c-0.72,3.78-2.55,3.28-4.96,8.65c-1.78,3.97-3.31,9.88-1.27,11.44
		c0.41,0.31,1.07,0.53,1.65,0.38c1.17-0.3,1.32-1.88,2.92-4.45c0.98-1.58,1.48-2.37,1.91-2.29c1.13,0.21,2.39,6.58-0.51,10.43
		c-1.91,2.53-3.72,1.45-6.48,4.45c-2.41,2.62-3.06,5.65-3.56,8.01c-0.51,2.37-1,4.72,0.13,5.59c1.33,1.03,4.15-0.59,5.34-1.27
		c3.57-2.06,5.45-5.03,8.14-9.41c2.17-3.53,2.44-4.84,2.54-5.47c0.44-2.67-0.56-3.14-0.64-6.61c-0.08-4.05,1.25-4.53,1.14-8.9
		c-0.03-1.12-0.27-2.57-0.76-5.47c-1.06-6.27-1.54-6.49-1.4-8.14c0.45-5.15,5.69-8.91,6.23-8.52c0.44,0.32-2.42,3.27-3.31,8.77
		c-0.64,3.97-0.29,9.49,2.03,10.3c0.66,0.23,1.54,0.1,2.16-0.38c2.26-1.77-1.37-6.5,0.89-10.81c0.95-1.82,1.77-1.31,4.2-4.58
		c2.04-2.76,2.63-4.68,2.92-4.58c0.43,0.16,0.36,4.66-2.29,8.14c-1.16,1.53-2.36,2.24-2.67,4.07c-0.13,0.73,0.03,0.81,0.38,3.43
		c0.53,3.93,0.33,4.87,0,5.59c-0.41,0.9-0.73,0.84-1.53,1.91c-1.76,2.35-2.86,6.16-1.53,7.37c0.87,0.79,2.6,0.33,3.56-0.13
		c1.67-0.8,2.21-2.23,3.43-4.32c2.56-4.37,3.38-3.54,4.45-6.1c1.56-3.74-0.37-5.09,1.02-9.54c1.15-3.69,3.53-6.13,3.81-5.98
		c0.26,0.14-1.01,2.44-1.78,6.48c-0.21,1.12-0.8,4.19-0.13,4.45c0.62,0.24,1.53-2.2,4.45-4.32c1.82-1.33,3.66-1.89,3.81-1.65
		c0.18,0.28-2.1,1.35-3.24,4.01c-0.58,1.35-0.23,1.63-0.7,2.86c-0.96,2.51-2.86,2.45-4.83,4.77c-2.4,2.81-0.81,4.31-3.31,6.93
		c-0.93,0.98-2.69,2.38-4.9,3.12c-0.58,0.19-2.04,0.62-4.01,1.46c-1.08,0.46-1.35,0.64-1.53,0.76c-1.4,1-2.64,2.98-2.03,4.07
		c0.58,1.05,2.61,0.91,2.92,0.89c3.2-0.21,3.75-2.81,6.99-4.2c3.8-1.62,5.01,1.11,8.65-0.64c0.81-0.39,2.61-2.04,6.23-5.34
		c1.49-1.36,1.87-1.5,2.29-2.16c1.36-2.14,1.27-4.97,1.21-6.74c-0.06-1.89-0.34-2.57,0.19-3.56c0.13-0.24,0.47-0.81,2.42-2.03
		c1.91-1.21,3.43-2.17,3.81-1.8c0.47,0.47-1.52,2.39-3.3,6.76c-0.08,0.2-1,2.51-1.53,5.72c-0.34,2.1-0.51,3.16,0,3.56
		c1.56,1.24,7.31-4.4,8.01-3.69c0.43,0.44-0.88,3.42-3.56,5.09c-2.93,1.82-4.87,0.42-7.63,2.42c-2.02,1.46-1.39,2.5-3.31,3.69
		c-1.52,0.94-3.66,0.94-7.88,0.89c-3.84-0.04-5.35-0.34-6.36,0.76c-0.61,0.66-1.11,1.94-0.64,2.8c1.16,2.12,6.87-0.66,9.28,2.03
		c1.23,1.37,1.11,3.62,0.57,3.88c-0.69,0.33-1.91-2.67-5.02-3.56c-1.07-0.31-1.35-0.07-3.43-0.06c-5.28,0.01-6.19-1.65-8.65-0.64
		c-0.42,0.17-3.15,1.34-4.07,3.94c-0.57,1.63,0.17,2.1-0.13,3.56c-0.72,3.51-5.63,3.57-10.43,8.77c-1.53,1.65-2.81,3.06-2.42,4.32
		c0.93,2.98,10.8,3.54,12.21,0.7c0.37-0.75-0.24-0.95-0.51-4.45c-0.18-2.38-0.02-3.86,0.64-5.28c0.17-0.36,0.31-0.59,0.55-0.99
		c1.1-1.81,1.96-2.42,4.51-5.01c1.49-1.51,1.74-1.85,1.93-1.75c0.44,0.23,0.15,2.55-1.27,4.07c-0.79,0.84-1.14,0.59-2.22,1.53
		c-0.43,0.37-2,1.82-2.35,4.07c-0.04,0.23-0.34,2.28,0.38,2.61c0.92,0.42,2.88-2.24,3.05-2.48c2.58-1.1,3.3-1.27,3.37-1.14
		c0.16,0.31-3.73,1.89-5.28,5.59c-0.53,1.28-0.68,2.53-0.38,2.67c0.72,0.34,3.69-6.32,6.87-5.98c0.61,0.07,0.87,0.35,1.29,0.16
		c1.28-0.59-0.04-3.7,1.64-5.88c1.13-1.47,3.18-1.92,3.43-1.59c0.19,0.25-0.66,0.89-1.65,2.73c-0.59,1.09-0.86,1.94-1.21,2.99
		c-0.64,1.96-1.01,3.08-0.57,3.43c0.48,0.39,1.7-0.36,2.29-0.83c1.12-0.9,1.51-2.11,1.65-2.67c0,0,1.03-2.29,2.8-4.45
		c1.37-1.66,2.83-2.58,3.81-3.18c3.29-2.01,4.15-1.01,5.98-2.42c3.17-2.43,1.62-6.22,4.7-8.14c2.03-1.26,4.75-0.88,4.96-0.25
		c0.2,0.62-2.16,1.14-4.07,3.69c-1.73,2.31-0.9,3.35-2.54,5.34c-0.71,0.86-2.3,1.72-5.47,3.43c-2.18,1.18-3.46,1.75-5.09,3.18
		c-1.06,0.93-2.3,2.02-2.03,2.67c0.37,0.9,3.63,0.91,6.36-0.25c2.78-1.18,2.5-2.51,6.99-6.23c0.84-0.69,2.96-2.39,5.59-4.32
		c2.26-1.65,2.96-2.06,3.56-3.18c1.41-2.64,0.09-5.28,0.89-5.59c0.73-0.28,2.48,1.47,3.05,3.56c0.68,2.5-0.55,4.7-0.7,4.96
		c-1.75,3.04-4.58,2.37-9.22,5.85c-2.2,1.65-4.67,4.14-4.2,4.96c0.49,0.85,4.02-0.15,4.39-0.25c2.17-0.62,3.23-1.5,3.56-1.14
		c0.33,0.35-0.19,1.72-1.21,2.48c-0.96,0.72-1.81,0.47-4.77,0.57c-0.88,0.03-2.56,0.12-4.38,0.38c-2.2,0.32-3.3,0.48-4.32,1.02
		c-2.37,1.25-2.17,2.87-3.88,3.24c-1.71,0.37-2.21-1.18-4.7-1.21c-1.52-0.02-1.53,0.56-4.26,1.14c-3.05,0.65-3.52,0.01-4.58,0.76
		c-1.85,1.33-0.92,3.45-2.67,4.96c-1.02,0.88-1.7,0.48-5.59,0.89c-5.32,0.56-5,1.4-8.52,1.4c-2.12,0-3.18-0.3-4.07,0.51
		c-1.03,0.94-1.31,2.88-0.51,3.94c1.13,1.49,4.13,0.88,5.85-0.25c1.5-0.99,1.16-1.78,2.42-2.67c2.59-1.84,5.06,0.83,8.77-0.51
		c0.51-0.18,0.26-0.16,5.34-4.2c3.11-2.47,4.14-3.23,5.47-3.05c1.62,0.21,1.73,1.56,3.43,1.78c2.08,0.27,2.64-1.64,5.21-2.03
		c2.22-0.34,2.45,0.95,6.1,1.4c1.81,0.22,1.67-0.11,6.04-0.13c3.18-0.01,2.66,0.16,5.28,0.13c3.81-0.05,4.75-0.42,6.1,0.38
		c0.59,0.35,1.18,1.04,2.35,2.42c1.61,1.89,2.41,2.83,2.18,3.18c-0.46,0.67-5.14-0.47-7.96-3.18c-0.4-0.39-1.02-1.05-2.03-1.27
		c-1.32-0.29-2.25,0.38-3.43,0.76c-1.45,0.47-3,0.14-6.1-0.51c-4.08-0.86-4.93-1.84-7.25-1.53c-1.48,0.2-2.63,0.8-3.37,1.27
		c0.68,0.58,1.82,1.39,3.37,1.78c2.33,0.59,3.41-0.31,5.15,0.51c2.07,0.97,2.96,3.36,2.73,3.56c-0.18,0.16-1.01-1.08-2.54-1.27
		c-1.08-0.13-1.77,0.35-2.54,0.64c-2.53,0.94-5.32-0.4-7.63-1.4c-3.2-1.38-3.61-3.07-5.47-2.8c-1.22,0.18-1.26,0.94-4.07,2.54
		c-1.77,1.01-3.13,1.49-3.05,1.78c0.12,0.43,3.12-0.7,4.58,0.76c0.53,0.53,0.4,0.92,0.76,1.53c1.22,2.06,4.8,1.06,8.46,2.03
		c4.59,1.23,7.19,5.03,7.06,5.21c-0.1,0.14-2.07-1.83-5.34-2.16c-1.4-0.14-1.87,0.14-3.18,0.13c-1.55-0.01-3.76-0.42-6.48-2.29
		c-1.52-1.69-2.87-2.11-3.69-2.22c-0.36-0.05-1.15-0.02-2.73,0.04c-1.18,0.05-1.68,0.08-2.86,0.15c-0.78,0.05-1.8,0.1-3.19,0.12
		c-4.07,0.08-4.94,0.14-5.72,0.89c-0.16,0.15-0.98,0.94-0.76,1.46c0.56,1.37,6.97-1.73,10.17,1.02c1.42,1.22,1.83,3.27,1.4,3.62
		c-0.58,0.47-2.34-2.34-5.6-2.59c-2.19-0.17-2.73,1-4.45,0.37c-1.54-0.56-2.41-1.98-3.62-1.64c-0.39,0.11-0.77,0.32-0.96,0.43
		c-0.75,0.45-1.2,1.03-1.45,1.4c-3.51-0.38-7.43-1.02-11.64-2.04c-3.06-0.74-5.88-1.59-8.44-2.48c-0.55-0.94-1.54-2.39-3.13-3.75
		c-1.3-1.12-3.51-2.07-7.88-3.94c-5.04-2.15-2.83-0.93-5.98-2.29C325.24,101.95,324.49,101.58,323.36,101.62z"/>
	<path class="st2" d="M413.44,35.76c-0.49,0.16-1.62-1.88-1.78-2.16c-1.45-2.61-1.02-3.96-2.1-4.58c-1.15-0.65-3.15,0.02-3.82,1.2
		c-0.49,0.86-0.02,1.52,0.19,3.37c0.38,3.22-0.7,3.87-0.23,5.76c0.52,2.08,2.13,2.58,4.24,4.6c2.74,2.63,3.4,5.02,4.9,7.95
		c1.64,3.19,4.58,7.59,10.3,12.52c0.09-2.92,0.18-5.85,0.27-8.77c-1.88-1.46-2.61-2.9-2.94-3.94c-0.63-2.01,0.15-2.9-0.7-4.7
		c-0.89-1.89-2.16-1.77-2.67-3.41c-0.42-1.36,0.22-2.17,0.76-4.34c0.69-2.76,0.54-4.98,0.4-7.08c-0.26-3.84-1.33-3.8-1.74-7.23
		c-0.69-5.82,2.1-8.54,0.4-10.51c-1.25-1.45-4.34-1.79-5.93-0.51c-2.37,1.9-1.46,7.39,0.06,16.55
		C413.44,32.74,413.99,35.58,413.44,35.76z"/>
</g>
</svg>
