<svg xmlns="http://www.w3.org/2000/svg" xmlns:xlink="http://www.w3.org/1999/xlink" viewBox="0 0 1920 1080"><defs><style>.cls-1{fill:none;}.cls-2{clip-path:url(#clip-path);}.cls-3{fill:#9ad3e7;}.cls-4{fill:#27a4ca;}.cls-5{fill:#1d89b5;}.cls-6{fill:#13537b;}.cls-7{clip-path:url(#clip-path-2);}.cls-8{clip-path:url(#clip-path-3);}.cls-9{fill:#46acb1;}.cls-10{fill:#1998a2;}</style><clipPath id="clip-path"><rect class="cls-1" x="1.01" width="1917.97" height="1080"/></clipPath><clipPath id="clip-path-2"><rect class="cls-1" x="-2757.2" y="-271.83" width="1936.4" height="1083.66"/></clipPath><clipPath id="clip-path-3"><rect class="cls-1" x="-2757.62" y="-271.83" width="1927.49" height="1085.36"/></clipPath></defs><g id="Layer_1" data-name="Layer 1"><g class="cls-2"><path class="cls-3" d="M1,1080l1918-1.27V0H1Z"/><path class="cls-4" d="M1362.5,688.32c35.38-22,89-47.93,155.45-50.31,84.21-3,100.28,34.92,216.35,50.31,58.5,7.76,179.12,23.76,235.22-40.25,16.26-18.55,18.57-34.07,41.51-47.8,31.44-18.8,68.29-14.28,125.79,0,136,33.79,130,58.24,183.65,56.61,23.51-.72,72.7-18.51,171.07-54.09,40.3-14.58,59.29-22.62,87-18.25,34.86,5.51,48.49,25.13,94.12,39.63a244.21,244.21,0,0,0,72.38,11.32V1482H1362.5Z"/><path class="cls-4" d="M2.21,737.64c35.39-22,89-47.93,155.46-50.32,84.2-3,100.27,34.92,216.35,50.32,58.5,7.75,179.11,23.75,235.22-40.26,16.26-18.55,18.56-34.07,41.51-47.8,31.44-18.8,68.28-14.28,125.78,0,136,33.79,130,58.24,183.65,56.61,23.52-.72,72.7-18.51,171.07-54.09,40.3-14.58,59.3-22.62,87-18.24,34.87,5.5,48.49,25.12,94.12,39.62a244,244,0,0,0,72.39,11.32v846.54H2.21Z"/><path class="cls-5" d="M220.52,769.27A349.46,349.46,0,0,0,331.65,878.7c15.7,9.68,152.05,93.71,240.85,46.54,54.07-28.71,45.94-82.36,123.8-132.07,14.65-9.36,64.07-11.3,78-34,1.13-1.83,5.17-8.39,2.84-10.91-2.56-2.77-10.37,2.08-31.69,9.51-19.57,6.82-26.89,7.58-30.5,14.53-2.46,4.72-1.21,8.46-5.24,11.46-4.74,3.55-13.08,3.26-15.1.14-2.12-3.27,3-9.31,2-9.92s-5.33,7.18-11.81,7.55c-3.48.2-8.11-1.72-9-4.61-2.29-7.64,23.31-16.12,21.53-25.16-.93-4.77-9.41-9.31-15.1-7.55-9.48,2.93-5.16,21.48-20.78,33.54-3.56,2.75-7.5,4.66-8.82,3.64-2.68-2.08,8-14.11,3.74-20.13-1.73-2.42-5.17-2.76-12-3.35-15.89-1.39-22.8,2.86-27.21-1-3.2-2.79-4.17-9-1.5-11.74,6.4-6.5,29.81,11.06,39.17,3.35,3.07-2.52,4.26-7.44,2.54-10.06-3-4.56-13.16.44-21.22-5-5.76-3.91-8.49-11.82-6.28-14,2.93-2.86,13.05,6,34.08,10.21,10,2,18.62,3.61,23.18-1,4.05-4.09,4-12.16,0-16.49s-10.85-3.87-20.49-3.15c-20.17,1.51-28.16,8.35-37.45,3.77-4.43-2.18-7.52-6.16-6.72-7.75s6.34-.72,17.71-2.52c.94-.15,2.88-.06,3.81-1.26,1.33-1.7-.21-4.67-.61-5.45-1.52-2.92-3.76-4.37-10.63-8.84-4.76-3.11-7.15-4.68-7.09-5.62.15-2.58,7.22-6,13.4-4.82,9.19,1.8,8,12.28,19.51,18.24,10,5.18,20.43,2.15,22,1.67,3-.91,8.4-2.59,10.37-7.34,1.37-3.29,1-7.84-1.85-10.27-2-1.69-4.53-1.74-9.42-1.68-15.34.21-20,3.8-25.56.84-3.61-1.9-6.36-5.84-5.39-8,1.91-4.15,17.88-1,18.17-2.52.22-1.2-9.74-2.41-19.29-9.43-3.27-2.41-9-6.65-8.07-10.48.91-3.6,7.48-5.69,12.78-5.67,8.37,0,10.82,5.33,24.45,13.21,16.32,9.44,25.07,9,28.25,8.6,2.46-.29,8.18-1,10.09-4.61,2-3.88-1.16-9.23-4-12.16-5.17-5.28-11.08-4.53-25.34-6.92-23-3.86-33.07-10.07-37.23-13-2.19-1.54-10.83-7.62-9.42-10.9s12.64-2.62,20.18-1.05c10.3,2.15,11.84,5.53,23.1,8.18,3.74.88,16.86,3.95,19.51-.21,1.68-2.63-1.35-7.31-3.81-11.11a28.4,28.4,0,0,0-7.18-8c-9.58-6.73-18.78.53-29.82-4.61-9.1-4.24-14.34-14.52-12.11-17.4s12.54.1,23.32,3.14c10.23,2.89,14.59,5.29,17.49,3.15,2.72-2,3.19-7.28.9-10.28-2.57-3.36-6.93-1.68-17-4.82-5.78-1.79-9.27-2.87-11.44-5.87-4.76-6.57-.14-18.12,3.59-18.45,3.45-.3,5.35,9.11,11.21,9.23a7.8,7.8,0,0,0,4.71-1.89c5.46-3.83,5.11-9.2,8.07-14.88,4.26-8.15,13.57-13.6,15.93-12.16,1.91,1.16-1.12,6.62-4.71,21.59-2.61,10.84-3.88,16.37-2.69,21.38,2.79,11.83,13.27,17.8,15.25,18.87,3,1.65,6.58,3.57,10.31,2.52,5.12-1.45,8.72-8,8.07-13.42-.59-5.08-4.51-6.16-9.19-16.35-2.24-4.88-2-6.12-1.57-6.92,2.17-3.86,13.71-4.69,18.61,0,5.34,5.1,1.87,15.79-3.14,31.24-4.48,13.83-6.73,20.74-8.52,24.53-2.6,5.48-5.06,9.59-3.14,13.41,1.81,3.59,7,5.88,11.22,5.24,8-1.2,11.7-12.6,12.78-15.93,5.87-18.13-4.62-29.3,3.81-41.3,2.54-3.61,6.29-6.59,7.85-5.87,3.73,1.73-9.78,22.88-.45,36.27.49.7,4.71,6.59,9.92,6.29,6.14-.36,10.55-9.11,11.22-10.48,2.46-5.08,1.56-7.81,3.58-8.6,4.17-1.63,13.09,7.92,11.67,10.06-.9,1.36-5.34-1.11-9,1.26a8.3,8.3,0,0,0-3.13,4.82c-2.82,8.16-12.21,9.83-19.34,18-1.62,1.86-8.68,9.92-7.41,19.08,1.71,12.3,17.41,23.46,31,21,10-1.84,15.23-10.43,18.84-16.35,7.37-12.06,11.23-30.84,2.24-44.23-4.9-7.32-14.16-13.81-18.39-16.77-6.8-4.78-10.08-5.76-13.68-10.7-1.34-1.84-6.39-9.26-4.48-18,1-4.4,3.71-9.28,5.61-9,2.91.42.11,12.51,6,15.72,4.69,2.54,13.54-1.13,17.72-7.12,2.69-3.86,4.25-9.86,1.57-14.68-2.54-4.55-7.89-6.31-12.28-7.76-7-2.3-10-.91-13.91-4-2.72-2.14-5.24-6-4-8.18,1.49-2.74,8.54-2.59,13.62-1.25,13.62,3.58,16.09,16.59,23.32,15.72,5-.6,8.9-7,9-12.16.11-8.66-10.46-15.64-19.29-16.77-9.39-1.2-12.83,4.72-21.08,2.51-6.9-1.84-13.34-8.34-12.34-13.41,1.19-6,12.75-9.95,21.53-8.18s12.46,8.72,15.25,7.34c3.73-1.85-3.75-13.9,2.25-22.22,3.91-5.45,12.85-8.26,17.49-5.66,6.15,3.44,4.82,16.41,4.48,19.7-.44,4.36-1.54,7.38-.67,12.79.54,3.34,1.15,6.8,4,8.39a9.4,9.4,0,0,0,10.09-1.26c1.75-1.61,1.9-3.49,2.52-11.11.66-8.21,1-12.33,2-12.79,3.39-1.58,13.4,6.17,12.33,12.16-.55,3.09-3.61,3.25-7.62,8s-3.1,7-6.56,14.25c-5.25,11-10.25,11.37-9.64,16.14.88,7,10.77,14,19.73,12.79s13.06-10.21,15.7-15.93A32.24,32.24,0,0,0,873,515c-1.18-7-4-8.09-7.07-16-4.87-12.77-3.35-25.77-1.23-26.15,1.57-.28,3,6.49,10.54,16.77,3.27,4.48,7.59,10.39,9.87,9.65,4.4-1.44-5.62-25.7,2.46-30.61,5.16-3.13,17.14,1.95,18.62,8.18,1.38,5.82-7.21,9.29-7.63,19.7-.06,1.6-.33,8.23,3.14,9.86,5.69,2.66,15.35-11,21.08-8.39,2.91,1.31,4.39,6.62,2.92,10.69-3.68,10.14-23.38,6.3-29.83,17.61-3.5,6.14-2.27,15.28,2.91,18.87,4.53,3.13,11.69,1.78,16.38-.42,9.46-4.44,11.43-14,25.11-30.4,1.63-2,4.09-4.8,6.36-4.33,2.43.51,4.31,4.78,3.34,8.11s-4.2,3.22-7.45,7.33c-3.08,3.89-4.84,9.91-2.47,12.58.37.41,2.16,2.22,8.52,1.05,18.46-3.39,25.61-22.67,32.07-21,5.86,1.54,9.64,20,1.57,27-7.41,6.49-18.47-2.18-37.45,4-9,2.92-19.68,9.15-18.84,13.84.6,3.36,7.16,6.16,13,5.87,12.33-.62,17.35-14.79,23.77-13,3.9,1.09,6.18,7.47,4.93,12.16-2.21,8.34-15.44,10.81-19.28,11.53-12.29,2.3-16.4-2.17-36.11-4.4-14.49-1.64-24.79-2.68-32.74,3.14-6.22,4.56-10.95,13.27-8.07,18.66,3.73,7,19.5,6.92,30,4.19,14.41-3.72,15.24-11.37,30.27-15.93,15.46-4.68,29.92-1.23,30.05.42s-12.82.74-20.85,9.23c-6,6.32-7.72,16.21-4.49,18.44,4.84,3.35,17.67-12.62,28.26-8.59a12.63,12.63,0,0,1,7.62,12.16c-.68,7.82-11.56,12.14-17.94,14.67a55.12,55.12,0,0,1-18.61,3.78c-12.7.28-17.71-4-20.86-1.26-5.09,4.49,5.07,18.29,0,22.22-3.26,2.54-10.39-.95-11.88-1.68-4.15-2-9.27-6.28-8.3-9.22.6-1.83,3-1.53,4.93-3.36,4.28-4.09,2.52-15.59-3.81-20.33-8.93-6.69-25.06,1.52-30.72,4.4-4.24,2.16-20.93,11-26.92,30-1.32,4.2-7.66,24.32,3.82,33.54,8.58,6.9,23.31,4.65,32.51.42,17.9-8.21,19.52-26,30.73-25.78,8.94.15,12.58,10.73,19.51,8.8,7.13-2,11.09-15.55,11.94-18.45,1.45-5,1.58-8.71,3.36-9,2.71-.46,3.91,8,10.27,10.06,5.33,1.74,12-1.73,15.69-5.24,4.5-4.28,3.29-7.45,8.36-17.82,3.28-6.73,7.72-13.47,9-13,2.1.76-7,19.78-1.66,23.28,4.32,2.83,16.25-5.59,22-9.64,9.76-6.89,16-14,17.77-12.79,1.54,1-2.68,6.28,0,11.11,2.19,4,7.12,3.94,7.17,5.87.1,3.64-16.25,3.39-28.7,13.21-7.42,5.85-13.47,15.22-11,18.45,4.7,6.11,36.73-14.12,43.54-6.71,4.69,5.11-4.14,21.59-10.3,21.38-4.27-.14-5.47-8.26-10.31-8.38-5.25-.13-6.21,9.32-12.62,10.69-7.56,1.62-11.23-11-24.44-12.79-7-1-17.48.37-21.75,7.13-1.77,2.79-3.65,8.38-.9,11.53,4.81,5.52,18.21-2.8,39,1.68,8.46,1.82,10.11,4,10.32,5.45.31,2.12-2.67,2.79-4.71,6.71-3.1,5.92,0,11.37-2.42,12.58-2.26,1.12-5.88-3.22-7.45-2.31-1.1.64-1.1,3.82,3.76,15l-13.35,5.42c-4-19.5-9.21-24.2-13.29-24.81-5.92-.89-8.14,7-18.61,9.64-12.7,3.22-19.29-6.13-29.83-2.31-7.79,2.83-14.29,11.6-12.33,17,3.28,9,30.38,8.69,46,6.92,26.49-3,42.59-12.69,56.52-18.86,39.64-17.59,78.84-14.33,109.89-11.74,7.67.63,9.15,1.1,117.51,32.28,38.83,11.17,46.82,13.47,58.76,21,36.37,22.85,31.09,44.86,58.15,64.44,51.43,37.18,145.61,12,145.92,3.35.06-1.63-3.2-2-11.43-5.94-24.18-11.56-50.73-34.47-46.43-46.12,2.94-7.94,20.89-12.51,32.75-7.55,8.21,3.44,13.84,13.33,25.11,33.13,5.36,9.41,10.16,19.15,20.19,21.59,1.73.42,4.07,1,4.93,0,3.37-3.89-23.52-23.06-39-56.82-2.63-5.72-10.66-23.62-4-29.14,3.22-2.68,7,0,9.65-2.09,8.15-6.44-20.17-38.54-25.2-82-1.62-14-3.73-32.27,7.78-39.7,11.2-7.23,32-2.11,39.47,8.95,3.21,4.77,1.89,7.6-.3,33-3,34.54-1.53,40.92,1.19,46.68,2.56,5.4,5.23,8.15,6.28,14.82,1.43,9.05-2.11,12.85,0,21.24,1.73,6.85,4.72,6.84,7.48,13.42,4.35,10.37-1.56,14-1.2,30.75.1,4.43.84,19,10.47,31.86.81,1.08,5.16,6.88,6.88,6.15,1.32-.56.54-4.78-2.4-16.49-5.78-23.07-6.47-21.46-6.87-26.83-.84-11.2,2.41-14.64-.6-24.32a40.9,40.9,0,0,0-5.38-10.9c-9.4-14.61-5.15-36.33-3-65.41,3.13-42.25-1.72-51.76,7.17-57,9.74-5.75,27-1.14,36.18,8.39,7.92,8.23,8.21,18.49,8.38,24.6.27,9.87-2.8,8-9.27,34.1-3.82,15.38-7,33.3-7.17,34.06v0c-3.55,19.91-5.08,41.85-6.28,55.35-2.94,33.16-6.57,46.46-1.19,48.64a6,6,0,0,0,5.68-1.12c3.24-3-.46-9.4-1.8-17.89a45.93,45.93,0,0,1,1.5-20.13,457.1,457.1,0,0,1,7.47-71c6.77-36.4,12.85-43.92,20.34-47.24,12.28-5.44,31.65-1,37.67,9.51,4.41,7.7.29,16.25-26.61,64.57-15.92,28.6-29.11,51.9-21.53,63.45.58.88,1.9,2.84,3.59,2.8,5.51-.16,8.26-21.57,12.56-42.49a525.19,525.19,0,0,1,16.14-57.86c12.6-36.72,20.4-59.44,39.18-64.3,13.65-3.53,31.27,2.87,37.67,14,6.51,11.3-.12,24.84-8.67,41.65-6.95,13.68-16.13,27.34-34.09,47.24-28.91,32-50.87,47.34-46,58.7.23.53,1.57,3.69,4.19,4.19,5.7,1.1,12.29-11.39,20-24,14.84-24.23,26.22-42.37,45.75-52.27,5.34-2.7,17.1-8.66,24.82-4.19,8.56,5,8.75,20.8,4.19,31.59-3,7.15-10.14,13.16-24.22,24.87-13.31,11.07-21,15.83-20,17.61s9.35.21,16.45-3.07c13.43-6.21,16.27-16.12,28.11-17.89a24.08,24.08,0,0,1,7,0v697.41h-1479Z"/><path class="cls-5" d="M-1245.78,769.27A349.4,349.4,0,0,0-1134.66,878.7c15.71,9.68,152.05,93.71,240.86,46.54,54.06-28.71,45.94-82.36,123.79-132.07,14.66-9.36,64.08-11.3,78-34,1.13-1.83,5.17-8.39,2.85-10.91-2.57-2.77-10.38,2.08-31.7,9.51-19.56,6.82-26.88,7.58-30.5,14.53-2.45,4.72-1.21,8.46-5.23,11.46-4.75,3.55-13.08,3.26-15.1.14-2.12-3.27,2.95-9.31,1.94-9.92s-5.33,7.18-11.81,7.55c-3.47.2-8.1-1.72-9-4.61-2.29-7.64,23.31-16.12,21.53-25.16-.94-4.77-9.41-9.31-15.1-7.55-9.49,2.93-5.16,21.48-20.78,33.54-3.56,2.75-7.5,4.66-8.82,3.64-2.68-2.08,8-14.11,3.73-20.13-1.73-2.42-5.16-2.76-12-3.35-15.89-1.39-22.8,2.86-27.21-1-3.2-2.79-4.17-9-1.49-11.74,6.39-6.5,29.8,11.06,39.17,3.35,3.06-2.52,4.26-7.44,2.54-10.06-3-4.56-13.17.44-21.23-5-5.75-3.91-8.49-11.82-6.28-14,2.94-2.86,13,6,34.09,10.21,10,2,18.61,3.61,23.17-1,4.06-4.09,4-12.16,0-16.49s-10.85-3.87-20.48-3.15c-20.18,1.51-28.16,8.35-37.45,3.77-4.44-2.18-7.53-6.16-6.73-7.75s6.35-.72,17.72-2.52c.93-.15,2.88-.06,3.81-1.26,1.32-1.7-.22-4.67-.62-5.45-1.52-2.92-3.76-4.37-10.62-8.84-4.77-3.11-7.15-4.68-7.1-5.62.16-2.58,7.22-6,13.41-4.82,9.18,1.8,8,12.28,19.51,18.24,10,5.18,20.43,2.15,22,1.67,3-.91,8.4-2.59,10.37-7.34,1.37-3.29,1-7.84-1.84-10.27-2-1.69-4.53-1.74-9.42-1.68-15.34.21-20,3.8-25.57.84-3.6-1.9-6.36-5.84-5.38-8,1.9-4.15,17.88-1,18.16-2.52.23-1.2-9.73-2.41-19.28-9.43-3.28-2.41-9.05-6.65-8.08-10.48.92-3.6,7.48-5.69,12.79-5.67,8.36,0,10.81,5.33,24.44,13.21,16.32,9.44,25.08,9,28.26,8.6,2.46-.29,8.17-1,10.09-4.61,2-3.88-1.17-9.23-4-12.16-5.16-5.28-11.08-4.53-25.34-6.92-23-3.86-33.07-10.07-37.23-13-2.19-1.54-10.82-7.62-9.41-10.9s12.64-2.62,20.18-1.05c10.29,2.15,11.83,5.53,23.1,8.18,3.74.88,16.85,3.95,19.51-.21,1.67-2.63-1.35-7.31-3.81-11.11a28.56,28.56,0,0,0-7.18-8c-9.59-6.73-18.79.53-29.83-4.61-9.1-4.24-14.34-14.52-12.11-17.4s12.55.1,23.33,3.14c10.23,2.89,14.58,5.29,17.49,3.15,2.72-2,3.19-7.28.9-10.28-2.57-3.36-6.93-1.68-17-4.82-5.78-1.79-9.26-2.87-11.44-5.87-4.75-6.57-.13-18.12,3.59-18.45,3.45-.3,5.36,9.11,11.22,9.23a7.85,7.85,0,0,0,4.71-1.89c5.45-3.83,5.1-9.2,8.07-14.88,4.25-8.15,13.56-13.6,15.92-12.16,1.91,1.16-1.12,6.62-4.71,21.59-2.6,10.84-3.88,16.37-2.69,21.38,2.8,11.83,13.28,17.8,15.25,18.87,3,1.65,6.58,3.57,10.32,2.52,5.12-1.45,8.71-8,8.07-13.42-.6-5.08-4.52-6.16-9.19-16.35-2.24-4.88-2-6.12-1.57-6.92,2.17-3.86,13.7-4.69,18.61,0,5.34,5.1,1.87,15.79-3.14,31.24-4.49,13.83-6.73,20.74-8.52,24.53-2.6,5.48-5.07,9.59-3.14,13.41,1.81,3.59,6.95,5.88,11.21,5.24,8-1.2,11.71-12.6,12.78-15.93,5.88-18.13-4.62-29.3,3.82-41.3,2.53-3.61,6.29-6.59,7.85-5.87,3.72,1.73-9.79,22.88-.45,36.27.49.7,4.7,6.59,9.92,6.29,6.13-.36,10.54-9.11,11.21-10.48,2.46-5.08,1.56-7.81,3.59-8.6,4.17-1.63,13.09,7.92,11.66,10.06-.9,1.36-5.33-1.11-9,1.26a8.38,8.38,0,0,0-3.14,4.82c-2.82,8.16-12.21,9.83-19.34,18-1.62,1.86-8.67,9.92-7.4,19.08,1.71,12.3,17.41,23.46,30.95,21,10-1.84,15.22-10.43,18.84-16.35,7.36-12.06,11.22-30.84,2.24-44.23-4.91-7.32-14.16-13.81-18.39-16.77-6.81-4.78-10.08-5.76-13.68-10.7-1.35-1.84-6.4-9.26-4.49-18,1-4.4,3.72-9.28,5.61-9,2.91.42.11,12.51,6.06,15.72,4.68,2.54,13.53-1.13,17.71-7.12,2.69-3.86,4.26-9.86,1.57-14.68-2.53-4.55-7.89-6.31-12.28-7.76-7-2.3-10-.91-13.9-4-2.72-2.14-5.24-6-4-8.18,1.5-2.74,8.55-2.59,13.63-1.25,13.62,3.58,16.08,16.59,23.32,15.72,5-.6,8.9-7,9-12.16.12-8.66-10.45-15.64-19.29-16.77-9.38-1.2-12.83,4.72-21.08,2.51-6.89-1.84-13.33-8.34-12.33-13.41,1.18-6,12.74-9.95,21.53-8.18s12.46,8.72,15.25,7.34c3.73-1.85-3.75-13.9,2.24-22.22,3.92-5.45,12.85-8.26,17.49-5.66,6.16,3.44,4.83,16.41,4.49,19.7-.45,4.36-1.55,7.38-.68,12.79.54,3.34,1.16,6.8,4,8.39a9.4,9.4,0,0,0,10.09-1.26c1.76-1.61,1.91-3.49,2.52-11.11.67-8.21,1-12.33,2-12.79,3.39-1.58,13.4,6.17,12.34,12.16-.55,3.09-3.62,3.25-7.63,8s-3.1,7-6.56,14.25c-5.25,11-10.25,11.37-9.64,16.14.89,7,10.77,14,19.74,12.79s13.06-10.21,15.69-15.93A32.24,32.24,0,0,0-593.29,515c-1.17-7-4.05-8.09-7.06-16-4.87-12.77-3.36-25.77-1.24-26.15,1.58-.28,3,6.49,10.54,16.77,3.27,4.48,7.6,10.39,9.87,9.65,4.4-1.44-5.62-25.7,2.47-30.61,5.16-3.13,17.13,1.95,18.61,8.18,1.39,5.82-7.2,9.29-7.62,19.7-.07,1.6-.33,8.23,3.14,9.86,5.68,2.66,15.35-11,21.08-8.39,2.91,1.31,4.39,6.62,2.91,10.69-3.67,10.14-23.37,6.3-29.82,17.61-3.51,6.14-2.28,15.28,2.91,18.87,4.52,3.13,11.68,1.78,16.37-.42,9.47-4.44,11.44-14,25.12-30.4,1.63-2,4.09-4.8,6.35-4.33,2.44.51,4.32,4.78,3.35,8.11s-4.2,3.22-7.46,7.33c-3.07,3.89-4.84,9.91-2.47,12.58.37.41,2.16,2.22,8.53,1.05,18.46-3.39,25.61-22.67,32.07-21,5.85,1.54,9.64,20,1.57,27-7.42,6.49-18.48-2.18-37.46,4-9,2.92-19.68,9.15-18.83,13.84.6,3.36,7.15,6.16,13,5.87,12.33-.62,17.36-14.79,23.78-13,3.89,1.09,6.18,7.47,4.93,12.16-2.22,8.34-15.45,10.81-19.29,11.53-12.29,2.3-16.4-2.17-36.1-4.4-14.49-1.64-24.8-2.68-32.75,3.14-6.21,4.56-11,13.27-8.07,18.66,3.74,7,19.51,6.92,30.05,4.19,14.41-3.72,15.25-11.37,30.28-15.93,15.45-4.68,29.91-1.23,30,.42s-12.82.74-20.86,9.23c-6,6.32-7.71,16.21-4.48,18.44,4.83,3.35,17.67-12.62,28.25-8.59a12.65,12.65,0,0,1,7.63,12.16c-.69,7.82-11.57,12.14-17.94,14.67a55.12,55.12,0,0,1-18.62,3.78c-12.7.28-17.7-4-20.85-1.26-5.09,4.49,5.06,18.29,0,22.22-3.27,2.54-10.4-.95-11.89-1.68-4.14-2-9.27-6.28-8.3-9.22.61-1.83,3-1.53,4.94-3.36,4.27-4.09,2.51-15.59-3.81-20.33-8.94-6.69-25.07,1.52-30.73,4.4-4.24,2.16-20.92,11-26.91,30-1.32,4.2-7.66,24.32,3.81,33.54,8.58,6.9,23.32,4.65,32.52.42,17.89-8.21,19.52-26,30.72-25.78,9,.15,12.59,10.73,19.51,8.8,7.14-2,11.1-15.55,11.94-18.45,1.46-5,1.59-8.71,3.37-9,2.71-.46,3.9,8,10.26,10.06,5.33,1.74,12-1.73,15.7-5.24,4.49-4.28,3.29-7.45,8.35-17.82,3.28-6.73,7.73-13.47,9-13,2.09.76-7,19.78-1.66,23.28,4.31,2.83,16.24-5.59,22-9.64,9.76-6.89,16-14,17.77-12.79,1.54,1-2.67,6.28-.05,11.11,2.2,4,7.12,3.94,7.18,5.87.1,3.64-16.26,3.39-28.71,13.21-7.41,5.85-13.47,15.22-11,18.45,4.7,6.11,36.73-14.12,43.54-6.71,4.69,5.11-4.13,21.59-10.29,21.38-4.27-.14-5.47-8.26-10.32-8.38-5.24-.13-6.2,9.32-12.61,10.69-7.57,1.62-11.24-11-24.44-12.79-7-1-17.49.37-21.76,7.13-1.76,2.79-3.65,8.38-.9,11.53,4.81,5.52,18.21-2.8,39,1.68,8.45,1.82,10.1,4,10.31,5.45.32,2.12-2.66,2.79-4.71,6.71-3.09,5.92,0,11.37-2.41,12.58-2.27,1.12-5.89-3.22-7.45-2.31-1.11.64-1.11,3.82,3.75,15l-13.34,5.42c-4-19.5-9.21-24.2-13.29-24.81-5.92-.89-8.15,7-18.61,9.64-12.71,3.22-19.29-6.13-29.83-2.31-7.79,2.83-14.29,11.6-12.33,17,3.28,9,30.37,8.69,46,6.92,26.49-3,42.58-12.69,56.51-18.86,39.65-17.59,78.85-14.33,109.89-11.74,7.67.63,9.16,1.1,117.51,32.28,38.83,11.17,46.83,13.47,58.76,21,36.38,22.85,31.09,44.86,58.16,64.44,51.43,37.18,145.6,12,145.92,3.35.06-1.63-3.2-2-11.44-5.94-24.17-11.56-50.73-34.47-46.42-46.12,2.93-7.94,20.88-12.51,32.74-7.55C12.8,777.11,18.44,787,29.71,806.8c5.36,9.41,10.16,19.15,20.18,21.59,1.74.42,4.08,1,4.94,0,3.36-3.89-23.52-23.06-39-56.82-2.62-5.72-10.66-23.62-4-29.14,3.22-2.68,7,0,9.64-2.09,8.15-6.44-20.16-38.54-25.19-82C-5.41,644.25-7.51,626,4,618.6c11.2-7.23,32-2.11,39.47,8.95,3.21,4.77,1.89,7.6-.3,33-3,34.54-1.53,40.92,1.2,46.68,2.55,5.4,5.23,8.15,6.28,14.82,1.43,9.05-2.11,12.85,0,21.24,1.72,6.85,4.72,6.84,7.48,13.42,4.35,10.37-1.57,14-1.2,30.75.1,4.43.84,19,10.46,31.86.81,1.08,5.17,6.88,6.88,6.15,1.32-.56.55-4.78-2.39-16.49C66.08,785.89,65.4,787.5,65,782.13c-.84-11.2,2.41-14.64-.6-24.32A40.59,40.59,0,0,0,59,746.91c-9.4-14.61-5.15-36.33-3-65.41,3.14-42.25-1.72-51.76,7.18-57,9.73-5.75,27-1.14,36.18,8.39,7.91,8.23,8.2,18.49,8.37,24.6.28,9.87-2.8,8-9.27,34.1-3.81,15.38-7,33.3-7.17,34.06v0C87.76,745.57,86.22,767.51,85,781c-2.94,33.16-6.57,46.46-1.2,48.64a6,6,0,0,0,5.68-1.12c3.24-3-.46-9.4-1.79-17.89a46,46,0,0,1,1.49-20.13,458.14,458.14,0,0,1,7.48-71c6.77-36.4,12.85-43.92,20.33-47.24,12.29-5.44,31.65-1,37.68,9.51,4.41,7.7.28,16.25-26.62,64.57C112.16,775,99,798.25,106.56,809.8c.57.88,1.89,2.84,3.58,2.8,5.52-.16,8.27-21.57,12.56-42.49a524,524,0,0,1,16.15-57.86c12.6-36.72,20.4-59.44,39.17-64.3,13.66-3.53,31.28,2.87,37.68,14,6.5,11.3-.13,24.84-8.68,41.65-7,13.68-16.13,27.34-34.08,47.24-28.91,32-50.87,47.34-46,58.7.22.53,1.56,3.69,4.18,4.19,5.71,1.1,12.29-11.39,20-24,14.83-24.23,26.21-42.37,45.75-52.27,5.34-2.7,17.1-8.66,24.82-4.19,8.56,5,8.75,20.8,4.18,31.59-3,7.15-10.13,13.16-24.22,24.87-13.3,11.07-21,15.83-20,17.61s9.35.21,16.44-3.07c13.43-6.21,16.27-16.12,28.11-17.89a24.06,24.06,0,0,1,7,0v697.41H-1245.78Z"/><path class="cls-5" d="M1695.58,754.82A349.5,349.5,0,0,0,1806.7,864.25c15.71,9.68,152,93.7,240.86,46.54,54.06-28.71,45.94-82.37,123.79-132.08,14.66-9.35,64.08-11.3,78-34,1.13-1.83,5.17-8.38,2.85-10.9-2.57-2.77-10.38,2.07-31.7,9.5-19.56,6.82-26.88,7.59-30.5,14.54-2.45,4.72-1.21,8.46-5.23,11.46-4.75,3.55-13.08,3.26-15.1.14s2.95-9.31,1.94-9.92-5.33,7.17-11.81,7.54c-3.47.2-8.1-1.71-9-4.61-2.29-7.63,23.31-16.11,21.53-25.16-.94-4.77-9.41-9.3-15.1-7.54-9.49,2.93-5.16,21.47-20.78,33.54-3.56,2.75-7.5,4.66-8.82,3.63-2.68-2.07,8-14.1,3.73-20.12-1.73-2.42-5.16-2.76-12-3.36-15.89-1.38-22.8,2.86-27.21-1-3.2-2.79-4.17-9-1.49-11.74,6.39-6.5,29.8,11.06,39.17,3.35,3.06-2.52,4.26-7.45,2.54-10.06-3-4.56-13.17.44-21.23-5-5.75-3.91-8.49-11.83-6.28-14,2.94-2.86,13.05,6,34.09,10.2,10,2,18.61,3.62,23.17-1,4.06-4.08,4-12.15,0-16.49s-10.85-3.86-20.48-3.14c-20.18,1.5-28.16,8.35-37.45,3.77-4.44-2.18-7.53-6.16-6.73-7.76s6.35-.72,17.72-2.51c.93-.15,2.88-.07,3.81-1.26,1.32-1.7-.22-4.68-.62-5.45-1.52-2.93-3.76-4.37-10.62-8.85-4.77-3.1-7.15-4.67-7.1-5.62.16-2.58,7.22-6,13.41-4.82,9.18,1.81,8,12.28,19.51,18.24,10,5.19,20.43,2.16,22,1.68,3-.91,8.4-2.59,10.37-7.34,1.37-3.3,1-7.84-1.84-10.27-2-1.69-4.53-1.74-9.42-1.68-15.34.21-20,3.8-25.57.84-3.61-1.9-6.36-5.85-5.38-8,1.9-4.14,17.88-1,18.16-2.51.23-1.2-9.73-2.42-19.28-9.44-3.28-2.4-9.05-6.65-8.08-10.48.92-3.59,7.48-5.68,12.79-5.66,8.36,0,10.81,5.33,24.44,13.21,16.32,9.44,25.08,9,28.26,8.59,2.46-.28,8.17-.94,10.09-4.61,2-3.87-1.17-9.23-4-12.16-5.16-5.27-11.08-4.53-25.34-6.92-23-3.86-33.07-10.07-37.23-13-2.19-1.54-10.82-7.62-9.41-10.9s12.64-2.63,20.18-1c10.29,2.15,11.83,5.53,23.1,8.17,3.74.88,16.85,4,19.51-.21,1.67-2.63-1.35-7.3-3.81-11.11a28.55,28.55,0,0,0-7.18-8c-9.59-6.74-18.79.52-29.83-4.62-9.1-4.23-14.34-14.52-12.11-17.4s12.55.11,23.33,3.15c10.23,2.88,14.58,5.29,17.49,3.14,2.72-2,3.19-7.27.9-10.27-2.57-3.36-6.93-1.69-17.05-4.82-5.78-1.79-9.26-2.87-11.44-5.87-4.75-6.57-.13-18.13,3.59-18.45,3.45-.3,5.36,9.11,11.22,9.22a7.84,7.84,0,0,0,4.71-1.88c5.45-3.83,5.1-9.2,8.07-14.89,4.25-8.15,13.56-13.59,15.92-12.16,1.91,1.17-1.12,6.62-4.71,21.6-2.6,10.84-3.88,16.36-2.69,21.38,2.8,11.83,13.28,17.8,15.25,18.87,3,1.65,6.58,3.57,10.32,2.51,5.12-1.44,8.71-8,8.07-13.41-.6-5.08-4.52-6.16-9.19-16.35-2.24-4.89-2-6.12-1.57-6.92,2.17-3.86,13.7-4.69,18.61,0,5.34,5.09,1.87,15.79-3.14,31.23-4.49,13.83-6.73,20.75-8.52,24.53-2.6,5.49-5.07,9.59-3.14,13.42,1.81,3.59,7,5.88,11.21,5.24,8-1.2,11.71-12.61,12.78-15.93,5.88-18.13-4.62-29.3,3.82-41.3,2.53-3.61,6.29-6.6,7.84-5.87,3.73,1.73-9.78,22.88-.44,36.27.49.7,4.7,6.59,9.92,6.29,6.13-.36,10.54-9.11,11.21-10.49,2.46-5.07,1.56-7.8,3.59-8.59,4.17-1.63,13.09,7.91,11.66,10.06-.9,1.36-5.33-1.11-9,1.26a8.35,8.35,0,0,0-3.14,4.82c-2.82,8.16-12.21,9.82-19.34,18-1.62,1.86-8.67,9.92-7.4,19.08,1.71,12.29,17.41,23.46,30.95,21,10-1.84,15.22-10.44,18.84-16.35,7.36-12.06,11.22-30.84,2.24-44.24-4.91-7.31-14.17-13.8-18.39-16.77-6.81-4.77-10.08-5.75-13.68-10.69-1.35-1.84-6.4-9.26-4.49-18,1-4.4,3.72-9.29,5.61-9,2.91.42.11,12.5,6,15.72,4.69,2.54,13.54-1.13,17.72-7.13,2.69-3.86,4.26-9.85,1.57-14.67-2.53-4.55-7.89-6.31-12.28-7.76-7-2.3-10-.91-13.9-4-2.72-2.15-5.24-6-4-8.18,1.5-2.74,8.55-2.59,13.63-1.26,13.62,3.59,16.08,16.6,23.32,15.73,5-.6,8.9-7,9-12.16.12-8.66-10.45-15.65-19.29-16.77-9.38-1.2-12.83,4.72-21.08,2.51-6.89-1.84-13.33-8.34-12.33-13.42,1.18-6,12.74-9.94,21.53-8.17s12.46,8.72,15.25,7.34c3.73-1.85-3.75-13.9,2.24-22.23,3.92-5.44,12.85-8.25,17.49-5.66,6.16,3.45,4.83,16.42,4.49,19.71-.45,4.35-1.55,7.38-.68,12.79.54,3.34,1.16,6.8,4,8.38a9.38,9.38,0,0,0,10.09-1.25c1.76-1.61,1.91-3.49,2.52-11.12.67-8.2,1-12.32,2-12.78,3.39-1.58,13.4,6.16,12.34,12.16-.55,3.09-3.62,3.25-7.63,8s-3.1,7-6.56,14.26c-5.25,11-10.25,11.37-9.64,16.14.89,7,10.77,14,19.74,12.79s13.06-10.22,15.69-15.93a32.26,32.26,0,0,0,2.92-18.87c-1.17-7-4.05-8.09-7.06-16-4.87-12.77-3.36-25.77-1.24-26.15,1.58-.28,3,6.49,10.54,16.77,3.27,4.47,7.6,10.38,9.87,9.64,4.4-1.43-5.62-25.69,2.47-30.6,5.16-3.14,17.13,1.95,18.61,8.17,1.39,5.82-7.2,9.29-7.62,19.71-.07,1.6-.34,8.23,3.14,9.85,5.68,2.66,15.35-11,21.08-8.38,2.91,1.31,4.39,6.62,2.91,10.69-3.67,10.13-23.37,6.3-29.82,17.61-3.51,6.14-2.28,15.28,2.91,18.87,4.52,3.13,11.68,1.78,16.37-.42,9.47-4.44,11.44-14,25.12-30.4,1.63-1.95,4.08-4.8,6.35-4.33,2.44.51,4.32,4.77,3.35,8.1s-4.2,3.23-7.46,7.34c-3.07,3.88-4.84,9.91-2.47,12.58.37.41,2.16,2.22,8.53,1,18.46-3.4,25.61-22.67,32.07-21,5.85,1.55,9.64,20,1.57,27.05-7.42,6.48-18.48-2.18-37.46,4-9,2.92-19.68,9.14-18.83,13.84.6,3.36,7.15,6.16,13,5.87,12.33-.62,17.36-14.79,23.77-13,3.9,1.09,6.19,7.46,4.94,12.16-2.22,8.34-15.45,10.81-19.29,11.53-12.29,2.29-16.4-2.17-36.1-4.4-14.49-1.65-24.8-2.68-32.75,3.14-6.21,4.55-11,13.26-8.07,18.66,3.74,7,19.51,6.91,30.05,4.19,14.41-3.72,15.25-11.38,30.28-15.93,15.45-4.69,29.91-1.24,30.05.42s-12.82.74-20.86,9.22c-6,6.33-7.71,16.21-4.48,18.45,4.83,3.35,17.67-12.63,28.25-8.59a12.63,12.63,0,0,1,7.63,12.15c-.69,7.82-11.57,12.15-17.94,14.68a55,55,0,0,1-18.62,3.77c-12.7.29-17.7-4-20.85-1.25-5.09,4.48,5.06,18.28,0,22.22-3.27,2.53-10.4-1-11.89-1.68-4.14-2-9.27-6.28-8.3-9.22.61-1.83,3-1.53,4.94-3.36,4.27-4.1,2.51-15.6-3.81-20.33-8.94-6.69-25.07,1.52-30.73,4.4-4.24,2.16-20.92,11-26.91,30-1.32,4.2-7.66,24.32,3.81,33.54,8.58,6.9,23.32,4.64,32.52.42,17.89-8.21,19.52-26,30.72-25.79,8.94.16,12.59,10.73,19.51,8.81,7.14-2,11.1-15.56,11.94-18.45,1.45-5,1.59-8.72,3.37-9,2.71-.46,3.9,8,10.26,10.06,5.33,1.74,12-1.73,15.7-5.24,4.49-4.29,3.29-7.45,8.35-17.82,3.28-6.73,7.73-13.47,9-13,2.09.75-7,19.77-1.66,23.28,4.31,2.83,16.24-5.6,22-9.64,9.76-6.89,16-14,17.77-12.79,1.54,1-2.67,6.28,0,11.11,2.2,4,7.12,3.94,7.18,5.87.1,3.64-16.26,3.39-28.71,13.21-7.41,5.84-13.47,15.22-11,18.45,4.7,6.11,36.73-14.13,43.54-6.71,4.69,5.11-4.13,21.59-10.29,21.38-4.27-.14-5.47-8.26-10.32-8.39-5.24-.13-6.2,9.33-12.61,10.7-7.57,1.61-11.24-11-24.45-12.79-7-.95-17.48.36-21.75,7.13-1.76,2.79-3.65,8.37-.9,11.53,4.81,5.51,18.21-2.8,39,1.67,8.45,1.82,10.1,4,10.31,5.45.31,2.13-2.66,2.8-4.71,6.71-3.09,5.93,0,11.38-2.41,12.58-2.27,1.13-5.89-3.21-7.46-2.3-1.1.63-1.1,3.81,3.76,15L2452.41,722c-4-19.49-9.21-24.19-13.29-24.81-5.92-.89-8.15,7-18.61,9.65-12.71,3.21-19.29-6.13-29.83-2.31-7.79,2.83-14.29,11.6-12.33,17,3.28,9,30.37,8.69,46,6.92,26.49-3,42.58-12.69,56.51-18.87,39.65-17.58,78.85-14.32,109.89-11.74,7.67.64,9.16,1.1,117.51,32.29,38.83,11.17,46.83,13.47,58.76,21,36.38,22.85,31.09,44.86,58.16,64.43,51.43,37.19,145.6,12,145.92,3.36.06-1.63-3.2-2-11.44-5.94-24.17-11.57-50.73-34.48-46.42-46.12,2.93-7.94,20.88-12.51,32.74-7.55,8.21,3.43,13.85,13.33,25.12,33.12,5.36,9.41,10.16,19.15,20.18,21.6,1.74.42,4.08,1,4.94,0,3.36-3.89-23.52-23.06-39-56.82-2.62-5.72-10.66-23.63-4-29.14,3.22-2.68,7,0,9.64-2.1,8.15-6.43-20.16-38.53-25.19-82-1.63-14.05-3.73-32.26,7.77-39.69,11.2-7.23,32-2.11,39.47,9,3.21,4.76,1.89,7.6-.3,33-3,34.54-1.53,40.91,1.2,46.68,2.55,5.39,5.23,8.15,6.28,14.82,1.43,9-2.11,12.85,0,21.24,1.72,6.85,4.72,6.84,7.47,13.42,4.36,10.37-1.56,14-1.19,30.74.1,4.44.84,19,10.46,31.87.81,1.08,5.17,6.88,6.88,6.15,1.32-.56.55-4.78-2.39-16.49-5.79-23.07-6.47-21.46-6.88-26.84-.84-11.2,2.41-14.63-.6-24.32a40.92,40.92,0,0,0-5.38-10.9c-9.4-14.6-5.15-36.33-3-65.41,3.14-42.24-1.72-51.76,7.18-57,9.73-5.76,27-1.14,36.18,8.39,7.91,8.23,8.2,18.49,8.37,24.6.28,9.87-2.8,8-9.27,34.1-3.81,15.38-7,33.3-7.17,34.06v0c-3.55,19.91-5.09,41.85-6.28,55.35-2.94,33.16-6.57,46.46-1.2,48.63a5.9,5.9,0,0,0,5.68-1.12c3.24-3-.46-9.4-1.79-17.88a46,46,0,0,1,1.49-20.13,458.14,458.14,0,0,1,7.48-71c6.77-36.41,12.85-43.93,20.33-47.24,12.29-5.44,31.65-1,37.68,9.5,4.41,7.71.28,16.26-26.62,64.57-15.92,28.61-29.11,51.9-21.53,63.46.58.88,1.9,2.84,3.59,2.79,5.52-.15,8.27-21.56,12.56-42.49a524,524,0,0,1,16.15-57.86c12.6-36.71,20.4-59.43,39.17-64.29,13.65-3.53,31.28,2.86,37.68,14,6.5,11.3-.13,24.84-8.68,41.65-7,13.68-16.13,27.34-34.08,47.24-28.91,32-50.87,47.33-46.05,58.7.22.53,1.56,3.69,4.18,4.19,5.71,1.09,12.29-11.39,20-24,14.83-24.24,26.21-42.37,45.75-52.27,5.34-2.71,17.1-8.66,24.82-4.19,8.56,5,8.75,20.79,4.18,31.58-3,7.16-10.13,13.16-24.22,24.88-13.3,11.07-21.05,15.82-20,17.61s9.35.2,16.44-3.07c13.43-6.21,16.27-16.12,28.11-17.89a24.06,24.06,0,0,1,7,0v697.41h-1479Z"/><path class="cls-6" d="M1,990.9c41.57,7.74,73.62,3.57,94.16-1.18,46.29-10.7,85.43-36.17,113.16-54.22,19.33-12.58,29.5-21.16,53.64-33.59,29.13-15,50.6-21.18,49.8-24.17s-24,.64-49.51,4.72c-22.65,3.61-38.85,6.19-62.18,11.78-37.92,9.09-39,12.78-69.25,19.75-33.8,7.78-71.37,12.12-72.2,8.54-.8-3.43,33-11,86.05-32.12,64.26-25.62,62.3-33.55,102.55-45.67,16.44-5,62-18.23,119-13.56s91.87,24.52,94.89,18.27c2.93-6-26.36-31.36-63.65-47.44-22-9.49-47.15-15.92-153.82-19.75-57.2-2-86.82-1.53-87.23-5.89s29.11-10.63,52.75-15.62c22-4.64,33.36-5.89,87.52-13.85,39.56-5.81,39.1-6,42.43-5.89,50.42,1.13,85.21,34.94,86.94,32.41,1.08-1.59-12.48-15.31-34.48-28.88-26.41-16.27-33.83-13.11-79.57-33-29-12.63-34.3-17.49-58.64-25.34-19.21-6.2-31.18-8.09-30.94-10,.4-3.32,36.24-2.52,68.66,1.47,20.37,2.51,35,4.31,54.22,10.31,13.24,4.14,44.24,14.15,74,38.9,32.8,27.31,44.77,56.51,48.33,54.52,3.31-1.86-6.1-27.83-20-51.57-9.31-15.85-14.91-21-25.35-35.07-12.8-17.31-37-50.65-47.73-95.18-3.83-15.89-4.77-28.34-6.66-53.24-1.81-24-3.72-49.27.47-50.2,5.16-1.14,14.43,35.83,39.19,97.54,26.09,65,39.13,97.54,54.22,115.52,12,14.29,29.1,30.68,36.54,58.94,2.25,8.52,4,19.71,6.49,35.07,4.76,29.86,5.36,44.51,7.07,44.49,2,0,4.09-21.16,4.13-40.66a272.11,272.11,0,0,0-7-62.95c-2.1-8.81-4-14.75-11.84-37.25-20.84-59.79-31.39-86.51-29.76-87.22.47-.21,1.69,1.88,13.89,23.88,16.63,30,19.7,35.71,23.54,45.37a177.67,177.67,0,0,1,7.95,23.87c4.54,18,5,32.46,6.19,32.41s-.23-14.85,6.48-32.71c1.88-5,5.37-12.8,7.08-12.37s.35,7.78.59,15.32c.55,18.11,9.66,37.27,15,36.83,5.15-.41,7.35-19.71,11.49-56,3.4-29.74,2.4-34.07,5.6-50.39,5.1-26,15.41-54.56,19.92-53.73,2.18.4,2.26,7.53.71,66.11-1.44,54.18-1.81,59.19-3.84,68.66-3.88,18.2-8.08,25.62-11.78,49.51-1.41,9.09-6,38.67-1.18,40.08,3.87,1.13,10.81-16.85,34.18-60.12,9.31-17.22,17.86-34.11,34.19-51.86,7.68-8.36,16.86-16.77,30.05-19.16,10.67-1.93,22.76.28,23.11,3.17.24,2-5.19,3.41-13.09,7.44,0,0-16.27,8.31-28.29,21.51-9.77,10.74-6.16,14-17.09,31.24-11.48,18.1-16.69,16.44-24.16,29.76-12.2,21.73-10.86,48.44-6.19,49.8,4.17,1.22,13.27-17.22,16.8-25.34,5.61-12.94,5.25-18.51,9.13-28.58,1.36-3.53,5.56-13.64,23.87-33.3,20.6-22.11,34.66-37.22,58.05-47.74,14.4-6.48,29.74-8.84,60.41-13.56,27-4.16,33.37-2.74,52.46-8.25,24.89-7.18,36.5-16,38.9-13,3.26,4.17-12.51,27.74-36.84,43.62-23,15-32.68,9.41-82.22,30.65-17,7.28-24.94,11.84-31.82,16.5-13.29,9-14,12.57-33,27.4-18.51,14.44-21.36,13.79-26.81,21.52-8.09,11.46-5.51,18.09-10.91,34.77-9.74,30.08-30,45-27.7,47.15,2,1.92,17.63-9.4,31.24-23.58,14.5-15.1,16-22.32,25.93-33.3,14.51-16,31-22.32,50.39-29.76,27.08-10.37,55-21.05,81.7-9.42,22.34,9.72,33.59,30.56,32.94,31.23s-10.4-13.38-26.82-15.91c-11.19-1.73-19.12,2.83-28.59,6.48-25.46,9.81-38,3.78-57.83,7.48-47.67,8.89-78.88,62.9-75.36,66.78,2.47,2.72,20.35-21.18,56.58-29.47,28.59-6.54,69.74-3.55,89.58,21.22,11.68,14.58,3.13,26.07,15.32,37.72,5.62,5.36,14.15,9.65,59.53,9.13,39.48-.44,59.22-.67,70.14-6.78,23.34-13.06,17.83-28.61,47.15-44.79,8.08-4.46,17.91-8.47,33-18.86,14.4-9.91,18.45-15.2,20.63-18.56,9.38-14.48,7.68-29.56,9.25-29.47s2.5,14.1,1.65,29.17c-.73,12.93-1.09,19.4-3.24,24.76-8.86,22.13-37.06,26.52-35.36,31.82,1.37,4.3,16.44,6,28.29,0,3.26-1.64,17.44-9,25.93-42.43,10.11-39.77.44-70.1,3.54-70.73,2.86-.57,15.65,24.46,16.2,56,.39,22.09-5.47,33.11.89,38.31,7.66,6.27,21.9-5,46.56-11.78,13.65-3.74,22.52-3.9,64-3,60,1.37,90,2.05,96.36,3,33.8,4.76,56.72,13.39,102.55,30.64,40.48,15.24,49.56,22.12,99.6,40.37,14.56,5.32,32.22,11.76,55.7,18.86a991.26,991.26,0,0,0,137,30.36c32.47,4.87,44.29,5,74,11.49,31.78,6.93,47.67,10.39,48.33,10.61,18.1,5.91,30.27,12.25,35.88,7,6.49-6.05-1.08-22.78,3.31-24.71,3.91-1.72,10.33,11.25,15.33,9.72,5.58-1.71,7.13-20.83,2.22-37.18-2.34-7.81-6.35-15.68-5.46-16.16s5.23,9.88,10.61,9.73c7-.21,11.22-18.41,12.67-18,1.28.38-2.55,14.57-4.42,31.53-1.57,14.2-1.81,30.84.59,31.24,2.94.5,7.74-23.8,11.19-23.28,2.16.33,3.68,10.3,1.42,19.14a88.77,88.77,0,0,1-5.25,13.57c-3.79,11.56-1.61,20.79,3,22.69,3,1.26,7.65-.47,10-3.54,2.69-3.48,1.66-7.67,1.18-13.55-1-12.93,1.34-24.67,2.65-24.75,2.13-.14,5.12,30.2,7.66,30.05,1.8-.1,1.52-15.4,3.83-15.61,2.69-.25,6.41,20.16,7.08,20s-5.28-24-5.9-54.22c-.21-10.18.51-6,1-31.83.3-16.25.1-22.57,2.55-23.27,3.12-.91,9.12,7.74,12.08,16.2,3.44,9.82,1.23,14.93,1.77,26.82.64,14.1,4.17,16.11,7.66,33.89a157.66,157.66,0,0,1,2.35,16,162.77,162.77,0,0,1,.68,20c-.37,13.51-.28,189.28,0,436.13H1Z"/><path class="cls-6" d="M29.73,986.49c-1.08-8.58-6.28-15.71-7.76-17.82-2.54-3.63-3.55-4-4.3-6.5-1-3.28.08-4.81,0-11.74-.05-4.75-.57-6,0-6.29,1.55-.65,8.13,7.71,11,18.24,2.32,8.45.74,12.78,2.31,13.21,3.29.9,14.71-16.93,10.48-30.61a60,60,0,0,0-3-7.08c-3-6.48-5.36-9.62-7.9-13.88-5.23-8.78-9.55-16.11-8.39-24.32.85-6,4.45-11.23,6.29-10.9s.6,5.32,4.2,12c2.51,4.63,4.38,4.61,6.15,8.91,1.42,3.45,1,5.26,1.39,10.58.06.68,1.41,16.3,4.2,16.57,2.08.2,5.64-8.12,6.28-16.78.33-4.34,0-9.41-6.7-27.46-4.83-13.06-7.32-17.65-10.28-28.72-1.93-7.22-3.95-14.8-2.09-15.72,2.1-1,8.89,6.58,13,14.88,1.6,3.25,2.4,5.8,6.07,20.76,3.57,14.52,4.23,17.89,5.88,18,2.67.22,6.38-7.55,7.54-15.1,1.43-9.31-1.59-14.6-10.48-40.67a107.78,107.78,0,0,1-2.94-27.67c.13-5.9.65-7,1.26-7.13,2.42-.6,9.19,12.64,11.74,26.83,1,5.25,1.19,10.77,1.68,21.81.58,13,.2,19.25,2.52,19.91,1.42.41,3.46-2.1,7.54-7.12,4.51-5.56,7.43-9.24,8.81-14.89a28.33,28.33,0,0,0,.7-7.71C84.39,836.69,75,822,70.4,810.81c-7.93-19.41-6.78-41.95-1.89-43.61,2.79-.94,8,4.5,9.86,10.07,1.62,5-.27,7.7-.63,15.3-.1,2.11,0,2.76,2.31,18,2.12,14.08,2.65,17.68,4.19,23.27,2.43,8.85,3.86,13.89,6.71,14.26,3.94.51,8.45-7.8,10.48-13.84,1.29-3.84,3.61-12.83-1.26-30.61-5.84-21.29-12.06-24.33-13.84-41.51-1-9.93-.08-20.7,1.89-21,1.09-.15,2,3,5.45,10.9,6,13.84,7.23,14,9.44,20.55,2.53,7.57,2.87,13.43,3.35,21.8,1.15,20.13-2.63,29.84,0,30.82s10.45-8.36,12.58-19.08c.95-4.8.44-9-.62-17.1a168.9,168.9,0,0,0-4.2-21.48c-2.26-8.37-5-16-8.81-30.6-1-3.71-2.12-8.41-.21-13.42,1.65-4.32,5.49-8.65,8-8,1.82.5,2.22,3.52,3.35,9,2.51,12.09,3.13,9.73,4.62,18.24,1.23,7.09,1.23,10.19,2.09,34.8.34,9.49.4,15,2.52,15.51s5.59-4.53,10.9-12.58c3.19-4.83,4.91-7.21,5.45-9.22,2.5-9.28-3.1-18.06-3.77-19.08-2.44-3.71-3.39-3-4.62-5.87-2.26-5.35.95-7.89,0-16.14-.61-5.39-2.34-7.35-.83-9.65,1.38-2.12,4.75-3.34,6.91-2.3,2.35,1.12,2.41,4.49,3.36,14,1.12,11.3.95,5.64,1.88,16.36,1.24,14.27,1,17.82,2.1,18,1.92.35,5.91-9.49,8-18.86,1.32-6.06,3.81-17.37,2.3-30.19a51.93,51.93,0,0,1,.76-14c1.1-5.89,2.32-6.88,3.23-7.17,2.26-.71,5.53,2,6.92,5,1.46,3.19.36,5.73-.63,10.9-2,10.32.35,10.8-1.68,20.33-1.73,8.15-4.33,12-3.36,12.58,1.39.88,6.85-6.86,18-16.77,5.24-4.64,13.19-11.69,15.14-10.17,1.55,1.2-.94,7.65-4,12.48-6.1,9.53-13,10.28-22.86,18.65-10.19,8.64-16.55,19.4-15.09,21,1.67,1.79,12.38-9.64,31.24-12.37,5.3-.77,14-1.24,14.67,1s-6.69,7.19-13.42,9.64c-5.67,2.07-7,1-13.41,3.36-5.45,2-5.94,3.32-11.53,5.87-9.88,4.49-11.14,1.66-16.85,5.08-4.24,2.55-7.48,7.9-14,18.61-3.27,5.38-4.88,8.09-4.19,8.8,1.6,1.65,11.46-7.78,30-17,12.31-6.12,18.06-7,22.22-7.13,9.23-.33,18.35,2.57,18.24,3.77-.07.75-3.69.62-7.76,1.26-10.19,1.61-13.56,6.52-22.85,11.53-14.2,7.67-24,5.73-39.62,13.63a36.14,36.14,0,0,0-7.13,4.61c-4.55,3.8-7,7.82-9.65,12.16-2.28,3.75-3.51,5.58-2.93,6.29,1.06,1.3,6.58-1.52,11.74-4.19,10.26-5.32,10.59-7.2,16.77-9.44,5.05-1.82,4.89-.59,14.26-2.93,9.2-2.3,9.49-3.53,15.09-4.4,8.82-1.38,18.07.09,18.24,1.88.1,1.07-3,2.07-11.53,4.82-15.31,5-23,7.46-24.95,8.18-18.44,6.71-17.87,10.36-27.88,11.11-4.85.37-8.8-.2-14.68,2.1a33.27,33.27,0,0,0-11.11,7.34c-3,2.85-4.35,5-13.41,22-4.24,7.94-4.89,9.21-4.41,9.64,1.79,1.61,14.8-12.61,37.36-26a73,73,0,0,1,23.44-8.77c4.73-.89,10.25-1.92,10.9-.42,1.32,3-17,15.79-36.48,24.74-21.57,9.9-30.13,8.55-38.57,19.29-4.37,5.56-7.55,12.93-10.48,19.7-1.93,4.47-6.42,14.82-4.61,15.94,1.22.76,4.55-3.27,13.1-11.85,10.13-10.18,15.19-15.27,20.23-18.55s11-5.47,23.06-9.85c10.11-3.69,18.52-6.76,19.5-5s-5.49,7.28-9.65,10.28c-3.46,2.48-5.77,3.47-10.27,5.87-5.66,3-6.43,3.82-14.47,8.59C80.49,920.21,77.89,920.1,68.72,927a58.42,58.42,0,0,0-11.32,10.7,64.1,64.1,0,0,0-6.08,9.43,83.67,83.67,0,0,0-5.66,13C43,967.78,40.93,974,42.52,975c2.74,1.72,15.35-12.51,21.17-19.08,6.67-7.52,8.33-10.4,13.63-13.2,5.57-2.95,7.24-1.62,15.3-4.83,10.44-4.15,15-9.33,16.57-8s-1.53,6.94-3.54,10.08c-4.51,7-10.45,11-15.24,13.84-14,8.22-15.09,4.51-24.62,10.88-11.67,7.8-10.81,13.89-21.27,19.77-2.22,1.25-6.1,3.17-7.24,7.06-1.06,3.62.93,6.6-.84,8.25-1.29,1.2-4,1.15-5.57-.07C28.2,997.63,30.63,993.61,29.73,986.49Z"/><path class="cls-6" d="M964,616.91c1.32-10.27-.95-15.09,1.26-16.35,1.81-1,5.58.85,6.5,3.36,1.06,2.87-1.78,6.16-1,6.7s4.65-3.9,5.87-3.14c.93.58-1.05,3.37-.1,7,.89,3.35,3.44,4,3,5.62-.52,2.1-4.95,1.2-9.44,4.61-1.81,1.38-4.66,4.25-4,5.87,1.16,2.75,11.16-1.38,14.63,3,1.48,1.87,1.81,5.35.26,7.06-3.58,3.93-13.64-5.31-25-1.46-5.09,1.73-8.95,5.6-8.39,7.12,1,2.71,15.75-3.09,19.71,2.52a6.91,6.91,0,0,1-.42,8c-4.59,5-16.86-4.42-23.9,1.25a8.67,8.67,0,0,0-2.93,7.13,7.29,7.29,0,0,0,2.51,5c4.67,3.47,12.87-3,15.37-.26,1.12,1.24.76,4-.48,5.71-2.8,3.88-8.76.82-18.24,3.78-3.73,1.16-9.35,2.93-10.9,7.54s1.38,10.78,4.61,11.33c2.72.46,3.84-3.4,10.48-7.13,3-1.7,7.56-4.25,10.06-2.52s2.63,7.6,0,10.9c-3,3.73-7.17,1.37-12.16,5-5.26,3.86-7.7,11.71-5.45,14.25.32.35,1.43,1.41,5,.84,13.5-2.13,19.41-20.34,24.32-18.87,2.29.69,3.69,5.45,2.94,9.23-1.56,7.8-11.58,7.64-18.87,19.28-2.31,3.69-3.15,6.65-2.94,9.65.2,2.64,1.23,7.44,4.2,8.38s6.33-2.18,10.69-6.08c5.11-4.57,5.87-7,8.59-7.13,3.18-.17,6.83,2.84,6.92,5.67.05,1.23-.58,2.75-9,8.8-7.4,5.32-8.89,5.56-10.07,8-2.57,5.25-.07,13.34,3.36,14.25,4.38,1.17,8.64-12.32,15.93-11.74,3.7.3,7.46,4.15,7.13,7.13-.55,4.92-11.84,3.67-16.77,11.74-3.77,6.17-2.21,15.16.84,16.35,1.74.68,3.3-1.43,13-7.13,4.95-2.9,6.5-3.5,8-2.93,2.76,1.07,4.68,6,3.36,9.64-2.31,6.27-12.48,3.37-18.45,10.9-4.46,5.63-4.81,14.56-1.68,16.78,1.91,1.35,5.7-.27,13.21-3.57,9.92-4.35,12.19-6.77,14-5.66,3.42,2.05,2.91,14.65-3.56,19.08-6.85,4.68-15-3.45-23.27,1.47-5.29,3.15-8.73,10.55-6.71,13.83,3.91,6.33,26.6-6.84,34.8,2.1,3.51,3.83,3.92,11.22.84,14.26-6.5,6.39-25.62-9.48-34.38-2.1-2.79,2.35-4.24,6.81-2.94,9.64,3.15,6.85,21.58,2.52,22.65,6.71.57,2.25-4,6.53-9.23,7.55-9.31,1.79-14.42-7.9-21.8-5.45-4.62,1.53-7.81,7-6.71,9.64.76,1.79,3.29,1.55,11.32,3.77,9.08,2.52,9.83,3.92,10.06,4.62.9,2.68-1.82,7-5.45,8.38-4.24,1.59-6.52-2.11-14.67-2.93-3.85-.39-9-.91-12.58,2.09-1.49,1.26-3,4.33-5.87,10.49-3,6.34-2.86,6.87-4.06,7.79-2.8,2.15-4.9.42-14.38.56-6.89.11-10,1.1-11.75-1-1.22-1.5-.39-2.89-.84-4.82-2-8.46-23.87-6.59-26-14.25-1-3.53,2.15-8.46,5.45-9.23s5.85,2.77,19.28,12.58c3,2.19,5.24,3.74,8.39,3.77,4.55,0,9.42-3.08,9.22-5.45-.3-3.53-11.65-2.6-15.93-10.48-.29-.52-1.86-3.43-.84-4.61,2.2-2.52,13,6.6,17.19,3.35,2.93-2.29.67-9.31.42-10.06-2.3-6.93-8.74-9.91-10.06-10.48-2.3-1-6-2.06-15.93-.42-15.28,2.53-23.37,7.85-24.74,5.87-.94-1.36,1.79-5.39,5-8,7.32-5.82,16.11-3.27,16.77-5.87.56-2.17-4.92-6.56-11.32-8-6.14-1.35-9.05.94-20.13,2.93-10.78,1.94-19.12,1.77-19.28.84s7.16-1.25,12.16-7.13c.53-.62,4.91-5.78,3.35-8.8-2.71-5.27-20.18,2.21-23.9-3.78-1.95-3.13.38-9.16,3.36-10.06,3.41-1,7.12,4.85,8.8,3.77,1.3-.83,1-5.54-1.68-8-3.44-3.13-8,.15-15.09-1.26-8.48-1.67-14.67-8.76-13.84-10.48,1.15-2.36,15.24,5.84,21.81,0,2.6-2.32,4-6.79,2.51-9.65-2.2-4.39-9.29-1.69-15.51-7.12-4.5-3.93-6.34-10.19-5-11.32,1.08-.94,4.91,1.46,12.58,6.28,6.37,4,8.59,5.92,10.06,5,1.85-1.11,1.13-5.82.42-8.39-2.14-7.69-7.64-8.52-8-13.84-.2-3.3,1.89-3.49,5-10.9a57,57,0,0,0,3.78-13.41c1.68-10.14-.17-15.74,1.67-16.36s5,3.91,6.71,7.55a25.35,25.35,0,0,1,1.26,16.35c-2,7.38-5.95,8-7.55,15.52-1.21,5.71-.2,11.2.84,11.32,2,.23,4-20.31,8.81-20.55,3-.15,5,9.93,6.29,9.65,1.55-.36-3.67-14.92,2.51-21,3.66-3.58,11-3.9,13.84-.84,4.12,4.53-.67,17.67-8.39,25.58-5.93,6.07-10.18,5.57-15.09,12.58-4.11,5.85-6.27,13.51-4.2,15.09,2.83,2.15,10.67-9.16,22.23-8,3.53.36,8.17,2,8.38,4.19.28,2.84-11,2.17-20.54,10.48-1.6,1.39-9,7.8-7.13,13,.81,2.29,3.42,4.41,5.87,4.19,5.31-.47,6.65-11.62,9.64-11.32,2.23.22,4.62,6.7,3.36,12.58s-5.3,7.28-4.61,10.48c.92,4.3,9.61,8.09,13.41,5.45,6-4.12-3.88-21.36,3.36-27.25,2.83-2.31,7.79-2.49,9.64-.42,3.93,4.4-8.91,16.11-4.61,25.58,2.39,5.26,9.45,8.46,12.58,6.7,4.36-2.45.05-14,4.19-15.93,2.48-1.18,7.46,1.33,8.8,5,2.52,6.92-9.24,13.67-6.7,20.13,1.35,3.44,6.3,5.73,9.64,4.61,3-1,4.29-4.69,4.89-6.43,2-5.82-.11-10.64,1-11,.93-.35,3.62,2.75,5,6.85,2.26,6.5-.68,9.69-.84,19-.09,5.65-.2,13.33,4.62,16.77,3.35,2.39,8.78,2.51,11.32,0,4.1-4.07-.22-14.19-1.68-17.61-2.84-6.65-6.63-10.58-5.87-11.32,1.18-1.16,9.7,8.94,14.67,6.71,3.26-1.47,4.63-8.24,2.52-13-1.51-3.39-4-4-16.35-11.32-1.85-1.1-10.86-6.48-10.3-7.69.31-.66,3.25.65,4.43-.7,1.32-1.52-1-4.79-.21-5.45s5.16,2.37,9.85,7.13c6.86,7,7.67,10.39,12.58,12.16,1,.38,5.81,2,8-.21s.93-7.87-1.68-11.53c-2.51-3.51-4.62-3-16.35-9.86a33.11,33.11,0,0,1-6.92-5c-2.81-2.71-6-6.85-5.24-7.75s5.53,2.68,14.67,6.49c8.08,3.37,13.85,5.78,16.77,3.36s3.21-9.09,0-12.79c-5.86-6.77-18.83,2.63-31-4.82-5.83-3.55-9.51-9.75-8.39-11.32s6,1.11,18.66,5c16.87,5.21,19.75,4.29,21.38,2.93,3.09-2.58,3.3-8.14,1.89-11.95-1.87-5-6.6-7.24-8.39-8-11.24-4.56-18.24,4.2-28.09,0-7.27-3.1-11.36-11.25-10.06-13,.88-1.18,4.11.7,14.67,2.94,8.38,1.77,10.85,1.54,13,.83,4.19-1.38,8.56-5,8-7.54-.86-3.65-12.13-4.07-15.52-4.2-11.24-.41-16.88,2.61-21.38-1.25-.35-.3-3.15-2.76-2.52-4.62,1.63-4.74,23.24,1.72,26-4.19,1.36-2.91-1.44-8.13-5-9.64-2.27-1-3.62.09-8.6.84-3.72.56-13.14,2-15.3-1.68-1.05-1.78-.32-4.66,1.26-6.08,1.38-1.24,3.4-1.35,10.48,0,9.26,1.77,11.46,3,12.58,1.89,1.77-1.82.09-8.86-4.61-12.16-8.56-6-20.77,4.71-26.84-.84-4-3.64-3.29-12.26-.42-13.84,2.06-1.13,4.18,2,10.9,3.57,1.67.39,10.1,2.41,12.58-1,1.88-2.62-.46-7.23-.84-8-5.52-10.83-22.53-9.61-22.64-13.83-.07-2.78,7.32-6.68,13-5,4.87,1.41,6.51,6.31,8.18,5.66s2.51-7.52-.63-12.78c-4.75-8-16.41-9.28-15.94-11.74.21-1,2.28-.77,3.57-2.73,1.75-2.66-.23-6,.63-6.5,1.77-1.12,9.68,13.34,15.93,12.16,3-.57,5.29-5,5.45-8.39.1-2.18-.67-3.61-1.68-5.87-2.64-5.93-5.3-11.88-4.61-17.19s4.73-9.69,6.29-9.22c2,.6-.77,8.9,3.77,12.58,1.37,1.1,3.66,2,5.46,1.26,3.26-1.36,3.52-7.58,3.77-15.52.23-7.38-1.54-9.13,0-13s5.21-7.78,8-7.12,4.64,6.17,4.19,10.48c-.34,3.21-1.85,4.94-.84,6.29s3.64,1.39,5.45.42S963.22,623.21,964,616.91Z"/><path class="cls-6" d="M1165.66,630.72c-11.92-9.72-15.63-7.41-21-13.41-9.55-10.74-10.17-31.94-1.47-37.32,6.72-4.15,17.77,1.84,23.07,6.29,6.54,5.49,10.69,14,10.6,22.2-.07,6.72-2.92,7.23-2.85,14.28.09,8.32,4.21,18.71,10.48,19.7,2.91.46,6.38-1.48,8-4.19,3-5.19-2.78-10.2-.84-15.93,2.34-6.89,14.82-11.76,20.76-7.76,7.24,4.89,4.7,23-2.73,27-4.61,2.52-10.41-.8-15.93,3.78a14.85,14.85,0,0,0-3.36,4.19c-4.53,7.5-6.08,19.65-1.25,22.64,2.82,1.75,7.54.18,10.48-2.09,6.35-4.91,3.29-12.44,8.8-17.2,5.15-4.43,15.09-4.19,17.82-.2,4,5.82-5.35,22.61-15.3,23.69-4.76.51-7.16-2.85-13.42-1.68a19.32,19.32,0,0,0-10.27,5.87c-5.61,6.14-2.91,11.82-6.08,22.22-4.26,14-13.72,18.7-11.74,21.38,2.2,3,14.5-.06,22.22-8,4.77-4.88,3.78-7.51,8-13.42,7.83-11.06,23.93-19.71,31.86-14.67,4.45,2.82,5.91,9.67,5,14.67-2.12,12.22-19,18.88-30.61,20.13-6.49.7-6.34-.84-13,0-2.1.26-21.14,2.88-28.09,15.51-3,5.48-1,7.9-1.26,21.8-.39,25.24-7.23,38.49-2.52,41.09,2.72,1.5,7.71-1.49,10.49-4.61,6.44-7.25.87-15.17,4.61-31,1.27-5.38,3.31-14,10.69-21,8.06-7.58,17.76-8.69,22.43-9.23,1.89-.21,17.7-2,20.55,4.2,1,2.25-.48,3.74-1.68,10.48s-.42,9.44-.84,13.42c-1,9.59-7.87,16.46-12.79,21.38-5.22,5.23-15.39,15.39-27,14.26-3.76-.37-6.73-1.83-10.06,0s-4.63,5.5-6.29,10.06c-1.72,4.72-3.16,8.78-1.68,10.06,2.32,2,9.5-4.84,23.46-12.82,16.47-9.41,18.42-6.7,26.44-13.38,11.14-9.29,8.13-15.15,18.44-23.69,11.21-9.29,29.13-14.29,34.8-8,4.1,4.57,2.34,15-2.93,21.38-9.23,11.11-28,12-34.8,12.16-4.8.12-6.26-.37-10.27.42-5.82,1.15-8.14,3.26-20.55,11.32-5.22,3.4-10.27,6.57-19.08,12.58-7.36,5-8.63,6.08-8.38,6.71.74,1.86,13.67-1,24.74-5,14.67-5.4,14.94-8.89,23.9-10.48,12-2.14,28.12,1.22,30.6,9.64,1.59,5.37-2.21,12.26-7.12,15.51-2.61,1.73-7.37,1.81-16.78,1.89-15.25.14-18.83-1.24-21.38-2.72-3.77-2.19-3-3.29-6.71-5-7.61-3.61-15.55-1.17-18-.41-4,1.23-8.14,2.49-10.48,6.28-1.32,2.15-1.49,4.13-1.26,12.58.11,3.9.29,8.84.61,14.59l-5.4.54c.51-4.91.79-15.24-5.27-25.19-5.24-8.62-12.65-12.69-19.29-16.35-6.82-3.76-12.12-5.17-22.64-8-9.29-2.47-16.54-4.34-26.2-4-6.63.24-6.59,1.25-10.49.84-11.57-1.21-24.29-11.34-22.85-19.92,1-6.25,9.36-10.16,14.89-11.32,13.77-2.88,26,8.1,28.3,10.27,6.17,5.82,5.46,9.06,12.58,14.47,4.14,3.15,5.71,2.86,15.51,7.54,17,8.11,21.62,12.16,24.32,10.07s1-8.94,0-12.58c-1.77-6.6-5.34-11-8.39-14.68s-5.73-6.91-9.64-9.22c-9.32-5.5-15.57,1.73-24.32-2.93-6-3.23-4-6.9-12.45-12.89C1096.8,765,1093.86,766,1091,762c-3.43-4.86-3.88-13,0-17.61,5.6-6.62,18.44-3.8,25.16-.42,5.48,2.76,5.42,5.15,14.45,10.08,4.07,2.22,6.22,2.91,8.4,5.43,3.38,3.91,4,8.94,4,12.58-.53,4.09-1.65,5.61-.83,8,1.27,3.66,6.4,7,9.64,5.87,7.48-2.65,4.26-29.1-.42-44.86-1.42-4.79-2.63-7.43-5-9.65-7.12-6.58-15.71-1.2-26-4.61-16.49-5.47-22-28.48-23.06-33.54-1.14-5.53-4.89-23.79,5-31,6.88-5,16.6-2,18.87-1.26,7.45,2.56,12.52,10.52,22.64,26.42,8.6,13.5,12.22,22.21,11.32,28.09a42.35,42.35,0,0,0-.42,7.55c.14,4.07.28,7.91,1.68,8.38,2.51.84,7.94-9.41,13.84-20.54,3.58-6.76,5.79-11.63,7.13-18,1.71-8.2.43-11.42-.42-13-2.41-4.47-7-6.2-8.39-6.71-6.7-2.42-9.37,1.26-15.93.42-8.06-1-13.22-7.79-21.39-18.45-4.79-6.26-7.19-9.48-7.12-13.84.1-6.82,5.46-14.22,11.74-15.09,4.34-.6,8.9,3.79,18,12.58,8.23,7.93,12.46,12.12,13,18.45.24,2.76-.36,4.53.84,7.54,1.83,4.6,6.57,9,9.65,8,2.87-1,3.38-6.37,3.77-10.48a31.82,31.82,0,0,0-1.68-14.68C1178.57,645,1176,639.18,1165.66,630.72Z"/><path class="cls-6" d="M1544.9,953.11c-6,.24-7.28,3.71-12.58,4.61-9.58,1.63-19.06-7.36-18.45-8.8.47-1.1,6.87,1.94,9.23-.84,1.27-1.49,1.07-4.31,0-5.87-3.07-4.47-13.93.37-25.58,1.68-13,1.46-22.51-1.93-40-8.18-4.78-1.7-24.39-8.84-39.2-21.17-4.7-3.91-7-6.77-14.89-12.79-7.06-5.41-10.76-7.37-10.27-9,.67-2.26,9.19-3.53,16.35-.42,6.56,2.86,6.61,7.05,19.29,19.71a57.92,57.92,0,0,0,8.38,7.34c5.19,3.55,9.64,5,15.31,6.92,17,5.58,25.53,8.38,28.72,8.8,4.72.63,10.06.56,20.75.42,14.36-.19,15.12-1.14,15.31-1.68,1.51-4.24-20.72-15.82-28.93-20.12-31.37-16.43-35.67-12.15-52.83-24.74-11-8.08-14.15-13.43-23.9-15.09s-14.37,2.21-25.58-.84c-9.6-2.62-17.26-8.5-16.77-9.65.29-.68,3.41.32,11.74,2.1,13.86,3,20.82,4.41,22.22,2.51,2.54-3.41-3.8-15.51-12.16-23.06-2.94-2.65-5.88-4.52-6.71-8.38-1-4.56,1.31-10.4,4.2-10.9,3.74-.65,6.79,10.53,16.77,23.9,1.07,8.19,4,12.23,7.13,14.25,2.79,1.79,4.54,1.2,9.22,2.94,5.34,2,7.63,4.44,13,8.49,3.94,3,8.22,5.51,16.76,10.58,8.29,4.92,8.62,4.39,21.17,11.12s18.74,10.74,30.4,15.09c5.52,2.06,10.12,3.74,10.9,2.52,1.33-2.08-8.83-11.48-18-18-9-6.4-10.94-5.46-21.8-13-7.81-5.43-12-8.41-15.51-14-3.72-6-2-7.56-5.87-17-1.63-4-5.73-14.12-13.84-21.38-5.11-4.58-7.27-4-19.71-9.65-16.36-7.48-31.83-14.8-35.63-28.09-1.11-3.87-1.17-8,.12-8.57,3.1-1.31,10.25,19.88,27.55,24.92,1,.29,8,2.28,9.64-.21,2.55-3.84-8.36-17.7-12.58-23.06-2.64-3.36-5.19-6.25-4.32-7.6s5.2-.59,8.1.69c8.64,3.8,7.73,13.24,15.51,24.31,7.47,10.62,10.91,7.17,19.29,18.45,3.28,4.42,3.75,6.3,13,26.42,5.84,12.72,8.76,19.11,9.22,19.7,6.7,8.65,10.83,6.87,34,22.23,6.31,4.18,10.51,7.31,12,6.08,2-1.68-2.7-10.19-4.82-14.05a100.29,100.29,0,0,0-15.51-21.38c-1.19-1.31-5.55-7.16-14.26-18.87-14.86-20-13-20.15-20.54-29.35-15.37-18.83-21.51-16.26-31.87-32.5-7.63-12-12.69-26.5-10.48-27.88,1.16-.73,4.28,2.25,5.87,3.77,5.36,5.13,6.48,9.54,9.85,15.73,2.22,4.07,5.88,8.51,13.21,17.4,8.73,10.59,10.15,10.75,10.9,10.48,1-.35,2.11-1.9,1.68-19.29-.32-12.63-.88-17,0-17.19,1.31-.29,5,8.83,7.12,18.45,2.63,12.11,0,12.7,2.1,21,3.78,14.66,12.22,13.13,17.19,29.35,1.86,6.08,2.43,12,7.13,14.25,2.22,1.06,5.5,1.57,7.55,0,1.57-1.2,2.27-3.49,1.25-15.72-.74-8.93-1.51-12.46-1-12.58.82-.22,5.08,10.27,7.75,22.85,2.77,13,.69,14.64,2.94,25.16,2.89,13.51,8,22.71,14.25,34,7,12.65,13.69,24.63,18.45,23.48,4.12-1,5.33-11.45,5-18-.14-3.2-.74-7.78-7.54-22.64-7-15.22-10.71-20-12.16-30.61-.63-4.64-.76-9.92,0-10.06s2.08,6.59,5.87,16.35c1.58,4.08,5.08,10.84,12.16,24.32,1.56,3,3.86,7.3,5.24,6.92,1.7-.47-.5-7.42,2.93-10.28,3.7-3.06,12.16.06,12.16,1.89,0,1.12-3.15.93-6.29,3.15-6.24,4.42-6.41,14.18-6.5,19.49a38.47,38.47,0,0,0,5,20.76c5.2,8.86,16,18.54,21,15.93,1.59-.83,3.46-3.26.84-34.8-1.21-14.51-1.81-21.76-2.52-23.9-5.64-17.12-16.6-16.25-33.54-39.83-5.61-7.81-6-10.13-16.77-25.58-9.27-13.3-12.66-16.86-17.61-19.7-9.68-5.56-14-1.88-21-7.13-5-3.77-3.16-6.38-11.74-26.84-6.89-16.44-10.23-20.22-14-22.85-4-2.75-8.5-4.23-8.18-5.66s5.38-1.87,9.46-1.21c10.2,1.63,16.44,10.35,17.38,11.69,6.37,9.18,1.93,13.94,7.12,23.9,6.67,12.79,20.91,22,26,18.87,4.59-2.78,1.59-15.4,1.26-16.77-3.73-15.14-14.59-18.27-21.39-36.48-.52-1.4-4.1-11-2.09-12.16s7.63,7.45,21.38,21.39c12.69,12.86,15.55,13.25,17.61,19.28,3.21,9.39-2.43,12.14-1.68,26.84.73,14.2,7.14,24.48,10.91,30.61,5.26,8.57,11.06,18,15.93,17,8.2-1.72,8.4-31.89,7.13-47.17-.73-8.67-1.14-13.1-3.78-18-6.74-12.63-18-12.11-20.75-22.85-1.7-6.62,2.13-8.45.26-19.07-1.51-8.54-4.93-12.64-3.83-13.43,1.61-1.14,11.3,5.7,13,15.1.73,4-.68,4.75.21,10.48.68,4.36,1.58,10.12,6.08,12.58a9.74,9.74,0,0,0,8.39.42c5.07-2.31,6.2-9.3,7.13-15.52,2-13.6-1.06-23,.41-23.48,1.17-.35,4.63,5,6.71,11.74,4.11,13.32-.6,21-3.35,39.83-3,20.3,1.39,19-1.89,41.72-1.29,9-1.51,18.07-2.72,27.05-.72,5.32-1.39,9.39.2,14.4,1.92,6,5.74,9.13,10.28,13.69,3.63,3.65,12.6,12.66,17,21.38,6.21,12.37-.37,17,4.4,36.48,1.59,6.44,5.78,23.52,13.84,24.32,5.84.58,12.74-7.49,14.26-15.51,1-5.33-.45-10.32-10.49-26.84-13.82-22.74-16.35-22-19.28-31-4.89-15.09-1.87-29.5-.84-34.39,3.12-14.87,8.54-17.59,8.8-29.35.24-10.68-4-16.74-8-26-13.17-31.1-8.82-66.88-3.78-67.93,2.67-.55,7.59,8.21,9.65,16.36,5,19.83-7.67,33.14-.84,40.67,3.53,3.89,10.89,4.68,15.09,2.09,6.28-3.87,2.65-13.51,8-31,2.89-9.52,8.21-20.68,10.48-20.13,2.79.68,2.17,19.33-2.94,35.64a157.87,157.87,0,0,1-7.54,19.71c-2.66,5.48-4.61,8.44-6.29,14.25s-1.35,8.44-2.1,13.84c-1.49,10.82-4.29,11.21-8.8,26.83-5,17.46-2.91,21.68-1.68,23.48,2,3,6,5.75,10.06,5.45,9.21-.67,16.19-16.91,17-29.77.54-8.69-1.77-15.42-.63-15.72s3.91,6.58,6.29,12.58c2,5.14,2.21,6.46,2.14,7.73-.23,4.13-2.74,5.45-5.7,10.3-4.18,6.85-1.9,8.71-6.5,18.66-3.15,6.8-4.24,6-5.45,10.06-2,6.69-1.59,17.41,4.61,21.38,7.22,4.63,19.47-1.7,25.16-9.64,2.63-3.67,4.22-8.23,4.19-23.06,0-28-5.77-29.61-2.93-42.35,3.81-17.14,16.06-22.8,12.58-32.28-2.31-6.3-9.93-4.54-14.68-12.16-1.7-2.74-3.77-7.74-1-23.06,3.42-19.23,11-35.74,12.58-35.22,1.75.56,0,23.3-3.56,40.25-.6,2.89-2,9,1.26,12.37,2.64,2.77,6,1.24,10.48,4.4,5,3.52,5.19,8.57,6.71,8.38,2.29-.27,2.33-11.89,3.56-27.25,1-13.12,2.37-29.57,5.24-29.77,1.63-.11,3.46,5,4.19,8.81,1.48,7.64-1.8,13.21-2.09,18-1.18,19.31,2.29,21.64.42,31.44-2.39,12.46-8.42,10.83-16.35,28.51-5.88,13.08-10.93,32.59-4.2,37.74a6.77,6.77,0,0,0,5.45,1.26c3.86-1,4.36-6.19,9.65-14.68,3.24-5.2,4.87-7.81,6.29-7.55,3.73.7,7.89,21.7-1.68,34.39-6.3,8.35-12.28,4.78-21.39,14.67-8,8.65-10.08,18.64-11.74,26.42s-3.31,15.55.42,18.44c4.41,3.42,13.69-1.93,17.61-4.19,11.79-6.78,18-16.58,26.84-31,7.14-11.62,8-16,8.38-18,1.45-8.81-1.85-10.34-2.09-21.81-.28-13.35,4.12-14.93,3.77-29.35-.09-3.69-.9-8.47-2.51-18-3.5-20.69-5.09-21.4-4.62-26.83,1.5-17,18.76-29.38,20.55-28.09,1.46,1-8,10.77-10.9,28.93-2.12,13.09-1,31.28,6.71,34a7.86,7.86,0,0,0,7.12-1.26c7.44-5.84-4.52-21.42,2.94-35.64,3.14-6,5.83-4.3,13.84-15.09,6.74-9.09,8.66-15.45,9.64-15.1,1.42.52,1.2,15.37-7.55,26.84-3.84,5-7.77,7.38-8.8,13.42-.42,2.4.1,2.66,1.25,11.32,1.74,13,1.08,16.06,0,18.45-1.33,3-2.39,2.77-5,6.28-5.81,7.75-9.41,20.33-5,24.32,2.86,2.6,8.59,1.1,11.74-.42,5.51-2.65,7.29-7.36,11.32-14.25,8.46-14.43,11.16-11.67,14.68-20.13,5.13-12.34-1.23-16.77,3.35-31.44,3.8-12.17,11.64-20.22,12.58-19.71s-3.33,8-5.87,21.38c-.71,3.71-2.63,13.82-.42,14.68,2,.79,5-7.25,14.68-14.26,6-4.37,12.07-6.25,12.57-5.45s-6.94,4.44-10.69,13.21c-1.9,4.45-.75,5.39-2.3,9.43-3.18,8.29-9.43,8.1-15.94,15.73-7.9,9.26-2.67,14.22-10.9,22.85a41.62,41.62,0,0,1-16.14,10.27,138.94,138.94,0,0,0-13.21,4.82,25.43,25.43,0,0,0-5,2.52c-4.6,3.3-8.71,9.84-6.71,13.41s8.6,3,9.65,2.94c10.56-.7,12.36-9.27,23.06-13.84,12.52-5.35,16.5,3.65,28.51-2.09,2.66-1.28,8.62-6.72,20.54-17.61,4.93-4.5,6.16-4.95,7.55-7.13,4.49-7.06,4.18-16.39,4-22.22-.2-6.22-1.13-8.47.63-11.74.43-.81,1.56-2.66,8-6.71s11.32-7.17,12.56-5.94c1.55,1.54-5,7.88-10.88,22.29a95.29,95.29,0,0,0-5,18.87c-1.13,6.93-1.66,10.42,0,11.74,5.15,4.08,24.1-14.5,26.42-12.16,1.43,1.43-2.9,11.29-11.74,16.77-9.67,6-16.05,1.37-25.16,8-6.66,4.82-4.58,8.25-10.9,12.16-5,3.09-12.07,3.08-26,2.93-12.68-.14-17.64-1.12-21,2.52-2,2.19-3.65,6.38-2.1,9.22,3.83,7,22.66-2.17,30.61,6.71,4,4.53,3.65,11.93,1.89,12.79-2.26,1.1-6.29-8.8-16.56-11.74-3.55-1-4.44-.23-11.32-.21-17.4,0-20.42-5.43-28.52-2.1-1.39.58-10.39,4.42-13.41,13-1.9,5.38.57,6.92-.42,11.74-2.39,11.59-18.57,11.78-34.38,28.93-5,5.46-9.27,10.1-8,14.26,3.07,9.83,35.63,11.68,40.25,2.3,1.22-2.48-.79-3.13-1.67-14.67-.6-7.85-.07-12.72,2.09-17.4a28.52,28.52,0,0,1,1.82-3.28c3.61-6,6.45-8,14.87-16.52,4.9-5,5.73-6.11,6.37-5.78,1.47.75.5,8.42-4.19,13.42-2.61,2.78-3.75,1.93-7.34,5-1.41,1.22-6.6,6-7.76,13.42-.11.76-1.11,7.51,1.26,8.59,3,1.38,9.49-7.39,10.07-8.18,8.5-3.63,10.89-4.19,11.11-3.77.53,1-12.3,6.22-17.4,18.45-1.76,4.21-2.23,8.35-1.26,8.8,2.39,1.12,12.15-20.84,22.64-19.7,2,.22,2.86,1.15,4.25.52,4.24-1.93-.13-12.21,5.39-19.39,3.74-4.85,10.49-6.35,11.32-5.24.63.83-2.19,2.95-5.45,9a55.49,55.49,0,0,0-4,9.86c-2.12,6.47-3.33,10.17-1.89,11.32,1.6,1.27,5.63-1.18,7.55-2.73A16.41,16.41,0,0,0,1768,925a73,73,0,0,1,9.23-14.68,47,47,0,0,1,12.57-10.48c10.86-6.64,13.68-3.34,19.71-8,10.46-8,5.35-20.52,15.51-26.83,6.71-4.17,15.68-2.91,16.36-.84s-7.12,3.76-13.42,12.16c-5.71,7.61-3,11-8.39,17.61-2.33,2.83-7.56,5.66-18,11.32-7.19,3.9-11.39,5.76-16.77,10.48-3.48,3.06-7.58,6.66-6.71,8.81,1.22,3,12,3,21-.84,9.18-3.91,8.24-8.29,23.06-20.55,2.76-2.28,9.76-7.89,18.45-14.25,7.45-5.45,9.77-6.8,11.74-10.48,4.65-8.71.31-17.42,2.93-18.45,2.4-.94,8.19,4.85,10.07,11.74,2.23,8.23-1.82,15.5-2.31,16.35-5.78,10-15.11,7.82-30.4,19.29-7.27,5.45-15.39,13.64-13.83,16.35s13.24-.49,14.46-.84c7.16-2,10.64-4.95,11.74-3.77s-.62,5.67-4,8.17c-3.18,2.38-6,1.54-15.75,1.9a136.69,136.69,0,0,0-14.44,1.25c-7.27,1-10.9,1.57-14.26,3.35-7.8,4.14-7.15,9.48-12.79,10.69s-7.29-3.89-15.51-4c-5,0-5.06,1.86-14,3.78-10.08,2.15-11.62,0-15.1,2.51-6.11,4.39-3,11.37-8.8,16.35-3.36,2.9-5.62,1.59-18.45,2.94-17.56,1.83-16.49,4.6-28.1,4.61-7,0-10.47-1-13.41,1.68-3.41,3.09-4.31,9.51-1.68,13,3.71,4.92,13.63,2.9,19.29-.84,4.95-3.28,3.82-5.86,8-8.81,8.54-6.07,16.68,2.73,28.94-1.68,1.68-.6.85-.52,17.61-13.83,10.24-8.14,13.64-10.64,18-10.07,5.34.71,5.71,5.14,11.33,5.88,6.86.9,8.72-5.42,17.19-6.71,7.31-1.12,8.09,3.13,20.12,4.61,6,.73,5.49-.36,19.92-.42,10.48,0,8.76.53,17.4.42,12.55-.17,15.65-1.39,20.12,1.26,2,1.16,3.9,3.43,7.76,8,5.31,6.24,8,9.35,7.19,10.49-1.52,2.21-17-1.54-26.27-10.49a13.74,13.74,0,0,0-6.71-4.19c-4.35-1-7.42,1.26-11.32,2.52-4.79,1.54-9.9.47-20.12-1.68-13.45-2.83-16.25-6.06-23.9-5A27.35,27.35,0,0,0,1782,959a27.8,27.8,0,0,0,11.11,5.87c7.68,1.94,11.25-1,17,1.68,6.81,3.19,9.75,11.09,9,11.74-.57.51-3.33-3.58-8.38-4.2-3.55-.43-5.83,1.15-8.39,2.1-8.33,3.12-17.54-1.32-25.15-4.61-10.55-4.56-11.92-10.12-18-9.23-4,.59-4.16,3.1-13.42,8.39-5.83,3.33-10.33,4.93-10.06,5.87.39,1.4,10.28-2.3,15.09,2.52,1.74,1.74,1.33,3,2.52,5,4,6.79,15.84,3.48,27.88,6.71,15.14,4,23.7,16.59,23.27,17.19s-6.84-6-17.61-7.13c-4.61-.47-6.17.45-10.48.42-5.1,0-12.41-1.38-21.39-7.55-5-5.56-9.48-6.94-12.16-7.34a75.58,75.58,0,0,0-9,.14c-3.89.16-5.53.26-9.42.51-2.58.16-5.94.31-10.51.4-13.43.26-16.28.47-18.86,2.94-.54.5-3.23,3.08-2.52,4.82,1.85,4.51,23-5.7,33.54,3.35,4.68,4,6,10.78,4.61,11.95-1.91,1.56-7.71-7.71-18.45-8.55-7.23-.57-9,3.29-14.67,1.21-5.07-1.85-7.93-6.52-11.94-5.39a14.27,14.27,0,0,0-3.15,1.41,15,15,0,0,0-4.79,4.63,304.91,304.91,0,0,1-38.4-6.72c-10.1-2.45-19.39-5.25-27.83-8.18a49.51,49.51,0,0,0-10.32-12.37c-4.3-3.68-11.59-6.84-26-13-16.62-7.1-9.33-3.05-19.71-7.54C1551.09,954.19,1548.61,953,1544.9,953.11Z"/><path class="cls-6" d="M1315.69,813.26c-1.6.54-5.35-6.21-5.87-7.13-4.78-8.6-3.35-13.07-6.91-15.09-3.79-2.15-10.38.06-12.59,4-1.6,2.82-.08,5,.64,11.13,1.24,10.61-2.33,12.75-.77,19,1.7,6.84,7,8.5,14,15.16,9,8.67,11.2,16.57,16.15,26.21,5.4,10.53,15.1,25,34,41.3q.45-14.46.89-28.93c-6.19-4.82-8.62-9.56-9.7-13-2.08-6.63.51-9.56-2.3-15.51-3-6.25-7.12-5.83-8.81-11.25-1.39-4.49.72-7.17,2.52-14.33,2.28-9.11,1.79-16.43,1.33-23.34-.85-12.68-4.39-12.55-5.73-23.83-2.29-19.19,6.93-28.17,1.32-34.66-4.13-4.78-14.3-5.89-19.56-1.68-7.83,6.27-4.82,24.37.21,54.58C1315.67,803.28,1317.48,812.66,1315.69,813.26Z"/></g></g><g id="Layer_2" data-name="Layer 2"><g class="cls-7"><g class="cls-8"><path class="cls-9" d="M-1389.38,346.54c35.56-22.12,89.44-48.16,156.22-50.56,84.62-3,100.77,35.09,217.43,50.56,58.79,7.8,180,23.88,236.39-40.45,16.33-18.64,18.65-34.24,41.71-48,31.59-18.9,68.62-14.36,126.41,0,136.66,33.95,130.65,58.52,184.56,56.88,23.63-.72,73.06-18.6,171.92-54.36,40.49-14.65,59.59-22.73,87.44-18.33,35,5.53,48.73,25.25,94.59,39.82A245.64,245.64,0,0,0,0,293.45v850.73H-1389.38Z"/><path class="cls-10" d="M-1054.65,413.36A351.1,351.1,0,0,0-943,523.34c15.78,9.73,152.8,94.17,242.05,46.77,54.33-28.85,46.16-82.77,124.4-132.73,14.73-9.4,64.4-11.35,78.43-34.13,1.13-1.84,5.2-8.43,2.86-10.95-2.58-2.79-10.42,2.08-31.85,9.55-19.66,6.85-27,7.62-30.66,14.6-2.46,4.74-1.21,8.5-5.25,11.52-4.78,3.56-13.15,3.28-15.18.14-2.13-3.29,3-9.35,1.95-10s-5.35,7.21-11.87,7.58c-3.49.2-8.14-1.72-9-4.63-2.3-7.67,23.42-16.19,21.64-25.28-.95-4.8-9.46-9.36-15.18-7.59-9.53,2.95-5.19,21.58-20.88,33.71-3.58,2.76-7.54,4.68-8.87,3.65-2.69-2.08,8.08-14.17,3.76-20.22-1.74-2.43-5.19-2.78-12-3.37-16-1.39-22.92,2.87-27.35-1-3.21-2.79-4.19-9.06-1.5-11.79,6.43-6.53,30,11.11,39.36,3.37,3.08-2.54,4.29-7.49,2.56-10.12-3-4.58-13.23.45-21.34-5-5.78-3.93-8.53-11.89-6.31-14.05,3-2.87,13.12,6,34.26,10.26,10.08,2,18.7,3.63,23.29-1,4.07-4.1,4-12.21,0-16.57s-10.91-3.88-20.59-3.16c-20.28,1.51-28.3,8.39-37.63,3.79-4.46-2.2-7.57-6.19-6.76-7.79s6.37-.73,17.8-2.53c.94-.15,2.9-.07,3.83-1.27,1.33-1.71-.22-4.7-.62-5.47-1.52-2.94-3.77-4.4-10.68-8.89-4.79-3.13-7.18-4.71-7.13-5.65.16-2.6,7.26-6.07,13.47-4.85,9.24,1.82,8,12.34,19.61,18.33,10.09,5.22,20.53,2.17,22.09,1.69,3-.92,8.43-2.6,10.42-7.38,1.38-3.31,1-7.88-1.86-10.32-2-1.7-4.55-1.75-9.46-1.69-15.42.21-20.06,3.82-25.7.85-3.62-1.91-6.39-5.88-5.41-8,1.92-4.16,18-1,18.26-2.53.23-1.2-9.79-2.42-19.38-9.48-3.29-2.42-9.1-6.68-8.12-10.53.92-3.62,7.52-5.71,12.85-5.69,8.41,0,10.87,5.35,24.57,13.27,16.4,9.49,25.2,9,28.39,8.64,2.47-.28,8.22-.95,10.14-4.63,2-3.9-1.17-9.28-4-12.22-5.19-5.3-11.14-4.56-25.47-7-23.16-3.88-33.23-10.12-37.41-13.06-2.2-1.55-10.88-7.66-9.47-10.95s12.71-2.64,20.29-1.06c10.34,2.16,11.89,5.56,23.21,8.22,3.76.88,16.94,4,19.61-.21,1.68-2.64-1.36-7.34-3.83-11.17a28.55,28.55,0,0,0-7.22-8c-9.63-6.77-18.88.53-30-4.64-9.15-4.26-14.41-14.59-12.17-17.49s12.61.11,23.44,3.16c10.28,2.9,14.66,5.32,17.58,3.17,2.73-2,3.2-7.31.9-10.33-2.58-3.38-7-1.7-17.13-4.84-5.8-1.8-9.31-2.89-11.49-5.9-4.78-6.61-.14-18.22,3.6-18.54,3.47-.3,5.38,9.15,11.27,9.27a7.84,7.84,0,0,0,4.73-1.9c5.49-3.85,5.14-9.24,8.12-15,4.27-8.19,13.63-13.66,16-12.22,1.92,1.17-1.12,6.66-4.73,21.7-2.62,10.9-3.9,16.45-2.71,21.49,2.81,11.89,13.34,17.89,15.33,19,3,1.66,6.61,3.59,10.36,2.53,5.15-1.45,8.76-8,8.12-13.48-.6-5.11-4.54-6.19-9.24-16.43-2.25-4.91-2-6.15-1.58-7,2.18-3.88,13.77-4.71,18.71,0,5.36,5.12,1.87,15.87-3.16,31.39-4.51,13.9-6.76,20.85-8.56,24.65-2.62,5.52-5.1,9.64-3.16,13.49,1.82,3.6,7,5.91,11.27,5.27,8-1.21,11.76-12.67,12.85-16,5.9-18.22-4.65-29.44,3.83-41.5,2.55-3.63,6.32-6.63,7.89-5.9,3.74,1.74-9.84,23-.46,36.45.5.7,4.74,6.62,10,6.32,6.17-.36,10.6-9.15,11.27-10.54,2.48-5.09,1.57-7.84,3.61-8.63,4.19-1.64,13.15,8,11.72,10.11-.9,1.36-5.36-1.12-9,1.26a8.41,8.41,0,0,0-3.15,4.85c-2.83,8.2-12.27,9.87-19.44,18.12-1.62,1.87-8.71,10-7.43,19.17,1.71,12.36,17.49,23.58,31.1,21.07,10-1.85,15.3-10.49,18.93-16.44,7.4-12.11,11.28-31,2.25-44.45-4.93-7.35-14.23-13.88-18.48-16.85C-487.8,227-491.09,226-494.71,221c-1.35-1.85-6.43-9.31-4.5-18.12,1-4.43,3.73-9.33,5.63-9.06,2.93.43.12,12.57,6.09,15.8,4.71,2.55,13.6-1.14,17.8-7.16,2.7-3.88,4.28-9.9,1.58-14.75-2.55-4.57-7.93-6.34-12.34-7.79-7-2.32-10.06-.92-14-4-2.73-2.15-5.26-6-4.05-8.21,1.5-2.76,8.59-2.61,13.69-1.27,13.69,3.61,16.17,16.68,23.44,15.8,5-.6,8.94-7,9-12.21.12-8.7-10.5-15.72-19.38-16.86-9.43-1.2-12.89,4.74-21.18,2.53-6.93-1.85-13.4-8.38-12.4-13.49,1.19-6,12.81-10,21.64-8.21s12.52,8.76,15.32,7.37c3.75-1.85-3.77-14,2.26-22.33,3.94-5.47,12.91-8.3,17.58-5.69,6.18,3.46,4.84,16.5,4.5,19.81-.44,4.37-1.55,7.41-.67,12.85.54,3.35,1.15,6.83,4.05,8.42a9.42,9.42,0,0,0,10.15-1.26c1.76-1.61,1.91-3.5,2.53-11.17.67-8.24,1-12.38,2-12.85,3.4-1.58,13.46,6.2,12.39,12.22-.55,3.11-3.63,3.27-7.66,8s-3.12,7.06-6.59,14.32c-5.28,11-10.3,11.43-9.69,16.23.89,7,10.82,14.11,19.83,12.85s13.13-10.27,15.78-16a32.45,32.45,0,0,0,2.93-19c-1.18-7.08-4.07-8.13-7.1-16.07-4.9-12.84-3.37-25.9-1.24-26.28,1.58-.28,3,6.52,10.59,16.85,3.29,4.5,7.64,10.44,9.92,9.69,4.42-1.44-5.65-25.82,2.48-30.75,5.18-3.15,17.22,2,18.7,8.21,1.39,5.85-7.24,9.34-7.66,19.81-.06,1.6-.33,8.27,3.16,9.9,5.71,2.67,15.42-11,21.18-8.43,2.93,1.32,4.41,6.65,2.93,10.75-3.69,10.18-23.49,6.33-30,17.69-3.52,6.17-2.29,15.36,2.93,19,4.54,3.15,11.74,1.79,16.45-.42,9.51-4.46,11.49-14.06,25.24-30.55,1.64-2,4.11-4.82,6.38-4.35,2.45.51,4.34,4.8,3.36,8.15s-4.21,3.23-7.49,7.37c-3.08,3.9-4.86,10-2.48,12.64.37.42,2.17,2.23,8.57,1.05,18.55-3.4,25.74-22.78,32.23-21.06,5.88,1.55,9.69,20.08,1.57,27.17-7.44,6.52-18.56-2.19-37.63,4-9.05,2.93-19.78,9.19-18.93,13.9.6,3.38,7.19,6.2,13.07,5.9,12.39-.62,17.44-14.86,23.89-13.06,3.91,1.09,6.21,7.5,5,12.22C-306,219.49-319.34,222-323.2,222.7c-12.35,2.3-16.48-2.18-36.28-4.43-14.56-1.65-24.92-2.69-32.91,3.16-6.24,4.58-11,13.33-8.11,18.75,3.76,7,19.6,6.95,30.2,4.22,14.48-3.74,15.32-11.44,30.43-16,15.53-4.7,30.06-1.24,30.2.43s-12.89.74-21,9.27c-6,6.35-7.76,16.29-4.51,18.54,4.86,3.36,17.76-12.69,28.4-8.64a12.71,12.71,0,0,1,7.66,12.22c-.69,7.86-11.62,12.2-18,14.75a55.5,55.5,0,0,1-18.71,3.79c-12.76.28-17.79-4.06-21-1.27-5.11,4.51,5.09,18.38,0,22.34-3.28,2.55-10.44-1-11.94-1.69-4.17-2-9.32-6.31-8.34-9.27.6-1.84,3-1.53,5-3.37,4.3-4.12,2.52-15.67-3.83-20.44-9-6.72-25.19,1.53-30.88,4.43-4.26,2.17-21,11-27,30.13-1.34,4.22-7.7,24.44,3.83,33.71,8.62,6.93,23.43,4.66,32.68.42,18-8.25,19.61-26.11,30.87-25.92,9,.16,12.65,10.79,19.61,8.85,7.17-2,11.15-15.63,12-18.54,1.46-5,1.59-8.76,3.38-9.06,2.72-.46,3.92,8,10.31,10.11,5.36,1.76,12.08-1.74,15.78-5.26,4.52-4.31,3.3-7.49,8.39-17.91,3.3-6.76,7.77-13.54,9.05-13.07,2.11.75-7.05,19.87-1.67,23.39,4.34,2.84,16.33-5.62,22.09-9.69,9.81-6.92,16-14,17.86-12.85,1.55,1-2.69,6.31-.05,11.17,2.2,4.06,7.15,4,7.21,5.89.1,3.66-16.34,3.41-28.85,13.28-7.45,5.87-13.54,15.29-11,18.54,4.72,6.14,36.91-14.19,43.75-6.74,4.71,5.13-4.16,21.7-10.34,21.49-4.3-.15-5.5-8.31-10.37-8.43-5.27-.13-6.23,9.37-12.68,10.74-7.6,1.63-11.29-11-24.56-12.85-7-1-17.57.37-21.86,7.16-1.77,2.81-3.67,8.42-.91,11.59,4.84,5.55,18.3-2.81,39.22,1.69,8.5,1.83,10.15,4,10.37,5.48.31,2.13-2.68,2.8-4.74,6.74-3.11,6,0,11.43-2.42,12.64s-5.92-3.23-7.49-2.32c-1.11.64-1.11,3.84,3.77,15.07l-13.41,5.44c-4-19.59-9.25-24.32-13.35-24.93-5.95-.9-8.19,7-18.71,9.69-12.76,3.23-19.38-6.16-30-2.32-7.83,2.84-14.36,11.66-12.4,17.07,3.3,9.06,30.53,8.72,46.2,6.95,26.62-3,42.8-12.75,56.8-19,39.84-17.68,79.23-14.4,110.43-11.8,7.71.64,9.21,1.11,118.1,32.44,39,11.23,47.06,13.54,59.05,21.07,36.56,23,31.24,45.08,58.44,64.75,51.68,37.38,146.33,12.09,146.65,3.37.05-1.63-3.22-2-11.5-6-24.29-11.62-51-34.64-46.65-46.35,2.95-8,21-12.57,32.9-7.58,8.26,3.45,13.92,13.4,25.25,33.29,5.38,9.46,10.21,19.24,20.28,21.7,1.74.42,4.09,1,5,0,3.38-3.91-23.64-23.17-39.22-57.1-2.64-5.75-10.71-23.74-4.05-29.28,3.23-2.7,7.05,0,9.69-2.11,8.19-6.47-20.27-38.73-25.32-82.45-1.63-14.12-3.75-32.42,7.81-39.89,11.26-7.26,32.19-2.12,39.67,9,3.22,4.79,1.9,7.64-.3,33.15-3,34.71-1.54,41.12,1.2,46.91,2.56,5.42,5.25,8.19,6.31,14.89,1.43,9.1-2.12,12.92,0,21.35,1.73,6.88,4.74,6.88,7.51,13.48,4.38,10.43-1.57,14.11-1.2,30.9.1,4.46.84,19.15,10.52,32,.81,1.08,5.19,6.91,6.91,6.18,1.33-.57.55-4.81-2.4-16.58-5.82-23.18-6.51-21.56-6.92-27-.84-11.26,2.43-14.71-.6-24.44a41,41,0,0,0-5.41-11c-9.44-14.68-5.17-36.51-3-65.73,3.15-42.46-1.73-52,7.21-57.31,9.79-5.78,27.15-1.15,36.36,8.43,7.95,8.27,8.24,18.59,8.42,24.72.27,9.92-2.82,8.05-9.32,34.27-3.83,15.46-7.07,33.47-7.21,34.23v0c-3.57,20-5.11,42.06-6.31,55.62-2.95,33.33-6.6,46.7-1.2,48.88a5.94,5.94,0,0,0,5.7-1.12c3.26-3-.45-9.45-1.8-18a46.38,46.38,0,0,1,1.5-20.23,460.55,460.55,0,0,1,7.52-71.35c6.8-36.58,12.91-44.14,20.43-47.47,12.35-5.47,31.81-1,37.86,9.55,4.44,7.74.29,16.33-26.74,64.89-16,28.74-29.26,52.16-21.64,63.77.58.88,1.91,2.85,3.61,2.81,5.54-.16,8.31-21.67,12.62-42.7a527,527,0,0,1,16.23-58.15c12.66-36.89,20.5-59.73,39.36-64.61,13.73-3.55,31.44,2.88,37.87,14,6.53,11.36-.13,25-8.72,41.86-7,13.75-16.21,27.47-34.26,47.47-29.05,32.2-51.12,47.57-46.27,59,.22.53,1.57,3.7,4.2,4.21,5.73,1.1,12.36-11.45,20.14-24.16,14.91-24.36,26.34-42.58,46-52.53,5.37-2.72,17.19-8.71,24.95-4.21,8.6,5,8.79,20.9,4.2,31.74-3,7.19-10.18,13.23-24.34,25-13.37,11.12-21.15,15.9-20.13,17.7s9.4.2,16.53-3.09c13.49-6.24,16.34-16.2,28.24-18a24.35,24.35,0,0,1,7.05,0v700.87H-1054.65Z"/></g></g></g></svg>