<svg xmlns="http://www.w3.org/2000/svg" xmlns:xlink="http://www.w3.org/1999/xlink" viewBox="0 0 1920 1080"><defs><style>.cls-1{fill:none;}.cls-2{fill:#6ea9b9;}.cls-3{clip-path:url(#clip-path);}.cls-4{fill:#27a4ca;}.cls-5{fill:#1d89b5;}.cls-6{fill:#13537b;}</style><clipPath id="clip-path"><rect class="cls-1" x="2.63" y="2.05" width="1914.74" height="1075.91"/></clipPath></defs><g id="Layer_3" data-name="Layer 3"><path class="cls-2" d="M-227,1078.79l2213-1.26V1.21H-227Z"/><g class="cls-3"><path class="cls-4" d="M1361.07,616c35.31-22,88.8-47.82,155.11-50.2,84-3,100,34.84,215.87,50.2,58.37,7.75,178.71,23.71,234.7-40.16,16.22-18.5,18.52-34,41.41-47.69,31.37-18.76,68.13-14.25,125.51,0,135.68,33.71,129.72,58.11,183.23,56.48,23.47-.72,72.54-18.47,170.69-54,40.21-14.54,59.16-22.57,86.82-18.2,34.78,5.49,48.38,25.07,93.91,39.54a244,244,0,0,0,72.22,11.29v844.65H1361.07Z"/><path class="cls-4" d="M3.82,665.2c35.31-22,88.81-47.83,155.11-50.21C243,612,259,649.83,374.8,665.2c58.37,7.74,178.71,23.7,234.7-40.17,16.22-18.5,18.52-34,41.41-47.69,31.37-18.76,68.13-14.25,125.51,0,135.68,33.71,129.72,58.11,183.24,56.48,23.46-.71,72.54-18.47,170.68-54,40.21-14.54,59.17-22.57,86.82-18.2,34.79,5.49,48.38,25.07,93.91,39.54a243.65,243.65,0,0,0,72.22,11.29v844.65H3.82Z"/><path class="cls-5" d="M221.65,696.76A348.64,348.64,0,0,0,332.53,806c15.66,9.65,151.7,93.49,240.32,46.44,53.94-28.65,45.83-82.19,123.51-131.79,14.62-9.33,63.93-11.27,77.87-33.88,1.12-1.83,5.16-8.37,2.83-10.88-2.56-2.76-10.34,2.07-31.62,9.48-19.52,6.81-26.83,7.57-30.43,14.51-2.45,4.7-1.21,8.44-5.22,11.43-4.74,3.54-13,3.25-15.07.14-2.12-3.27,2.95-9.29,1.94-9.9s-5.32,7.16-11.78,7.53c-3.47.2-8.09-1.71-9-4.6-2.28-7.62,23.26-16.08,21.49-25.1-.94-4.76-9.39-9.29-15.07-7.53-9.46,2.92-5.15,21.43-20.74,33.47-3.55,2.74-7.48,4.64-8.8,3.62-2.67-2.07,8-14.07,3.73-20.08-1.72-2.41-5.15-2.76-11.93-3.35-15.86-1.38-22.75,2.86-27.15-1-3.19-2.78-4.16-9-1.49-11.72,6.38-6.48,29.74,11,39.08,3.35,3.06-2.51,4.25-7.43,2.54-10-3-4.55-13.14.44-21.19-5-5.74-3.9-8.47-11.8-6.26-13.95,2.93-2.85,13,6,34,10.18,10,2,18.57,3.61,23.12-1,4-4.08,4-12.13,0-16.46s-10.82-3.85-20.43-3.13c-20.14,1.5-28.1,8.33-37.37,3.76-4.43-2.18-7.51-6.15-6.72-7.74s6.34-.72,17.68-2.51c.93-.15,2.88-.06,3.81-1.25,1.32-1.7-.22-4.67-.62-5.44-1.52-2.92-3.75-4.37-10.6-8.83-4.76-3.1-7.14-4.67-7.08-5.61.16-2.57,7.2-6,13.37-4.81,9.17,1.81,8,12.26,19.47,18.2,10,5.18,20.39,2.15,21.93,1.68,2.95-.91,8.38-2.59,10.34-7.33,1.37-3.29,1-7.82-1.84-10.25-2-1.68-4.52-1.74-9.4-1.67-15.3.21-19.91,3.79-25.51.84-3.59-1.9-6.34-5.83-5.37-7.95,1.9-4.14,17.84-1,18.13-2.51.22-1.2-9.72-2.41-19.24-9.41-3.27-2.41-9-6.64-8.06-10.46.91-3.59,7.46-5.67,12.75-5.65,8.35,0,10.8,5.31,24.39,13.18,16.29,9.42,25,8.94,28.2,8.57,2.45-.28,8.15-.94,10.07-4.6,2-3.87-1.17-9.21-4-12.13-5.15-5.26-11-4.52-25.29-6.9-23-3.86-33-10-37.14-13-2.19-1.54-10.8-7.6-9.4-10.88s12.62-2.62,20.14-1c10.27,2.14,11.81,5.52,23,8.15,3.73.88,16.82,4,19.47-.21,1.67-2.62-1.35-7.28-3.81-11.08a28.4,28.4,0,0,0-7.16-8c-9.57-6.72-18.74.53-29.76-4.6-9.08-4.23-14.31-14.49-12.08-17.36s12.51.1,23.27,3.13c10.21,2.88,14.55,5.28,17.45,3.14,2.72-2,3.18-7.26.9-10.25-2.56-3.35-6.92-1.68-17-4.81-5.76-1.78-9.24-2.86-11.41-5.86-4.75-6.55-.13-18.08,3.58-18.4,3.44-.3,5.34,9.08,11.19,9.2a7.85,7.85,0,0,0,4.7-1.88c5.44-3.82,5.09-9.18,8-14.85,4.24-8.14,13.54-13.57,15.89-12.14,1.91,1.16-1.11,6.61-4.7,21.55-2.6,10.82-3.87,16.33-2.68,21.34,2.79,11.8,13.24,17.75,15.21,18.82,3,1.65,6.57,3.56,10.29,2.51,5.12-1.44,8.7-8,8.06-13.39-.6-5.07-4.51-6.14-9.17-16.31-2.24-4.87-2-6.11-1.57-6.91,2.17-3.85,13.67-4.67,18.57,0,5.33,5.09,1.87,15.76-3.13,31.17-4.48,13.8-6.72,20.7-8.5,24.48-2.6,5.47-5.06,9.57-3.14,13.38,1.81,3.58,6.94,5.87,11.19,5.23,8-1.2,11.68-12.58,12.76-15.89,5.85-18.09-4.61-29.24,3.8-41.21,2.53-3.6,6.28-6.58,7.83-5.86,3.72,1.73-9.76,22.83-.45,36.19.49.7,4.7,6.57,9.9,6.27,6.12-.35,10.52-9.08,11.19-10.46,2.46-5.06,1.56-7.78,3.58-8.57,4.16-1.63,13.06,7.9,11.64,10-.9,1.35-5.33-1.11-9,1.25a8.36,8.36,0,0,0-3.14,4.81c-2.81,8.15-12.18,9.81-19.29,18-1.62,1.86-8.66,9.9-7.39,19,1.71,12.27,17.37,23.41,30.88,20.92,10-1.84,15.19-10.42,18.8-16.32,7.35-12,11.2-30.77,2.23-44.14-4.89-7.29-14.13-13.77-18.34-16.73-6.8-4.76-10.06-5.74-13.65-10.67-1.35-1.84-6.39-9.24-4.48-18,1-4.39,3.71-9.26,5.6-9,2.9.42.11,12.48,6,15.69,4.67,2.53,13.51-1.13,17.67-7.12,2.69-3.85,4.25-9.83,1.57-14.64-2.53-4.53-7.87-6.29-12.25-7.74-7-2.3-10-.91-13.88-4-2.71-2.14-5.22-6-4-8.16,1.49-2.74,8.53-2.59,13.59-1.25,13.59,3.57,16.05,16.56,23.27,15.68,4.95-.59,8.88-6.94,8.95-12.13.12-8.63-10.43-15.61-19.24-16.73-9.36-1.2-12.8,4.71-21,2.51-6.88-1.84-13.31-8.32-12.31-13.39,1.18-6,12.71-9.92,21.48-8.16s12.43,8.7,15.22,7.32c3.72-1.84-3.74-13.86,2.23-22.17,3.91-5.43,12.83-8.24,17.46-5.65,6.14,3.44,4.81,16.39,4.47,19.67-.44,4.34-1.54,7.36-.67,12.76.54,3.33,1.15,6.78,4,8.36a9.36,9.36,0,0,0,10.07-1.25c1.75-1.6,1.9-3.48,2.51-11.09.67-8.19,1-12.29,2-12.76,3.38-1.57,13.37,6.16,12.3,12.13-.54,3.09-3.6,3.25-7.6,8s-3.1,7-6.55,14.23c-5.24,11-10.22,11.34-9.62,16.1.89,6.95,10.75,14,19.69,12.76s13-10.19,15.67-15.89a32.25,32.25,0,0,0,2.9-18.83c-1.17-7-4-8.07-7-15.95-4.86-12.75-3.35-25.72-1.23-26.09,1.57-.28,3,6.47,10.51,16.73,3.27,4.46,7.58,10.36,9.85,9.62,4.39-1.43-5.61-25.64,2.46-30.54,5.15-3.12,17.09,1.95,18.57,8.16,1.38,5.81-7.19,9.27-7.61,19.66-.06,1.6-.33,8.21,3.14,9.83,5.67,2.66,15.31-10.94,21-8.36,2.9,1.3,4.38,6.6,2.91,10.66C921.6,446.87,902,443,895.51,454.33c-3.5,6.12-2.27,15.24,2.91,18.82,4.51,3.12,11.65,1.78,16.33-.42,9.45-4.43,11.41-14,25.06-30.33,1.63-1.95,4.08-4.79,6.34-4.32,2.43.51,4.31,4.77,3.34,8.09s-4.19,3.21-7.44,7.32c-3.07,3.87-4.83,9.88-2.46,12.55.36.41,2.15,2.21,8.5,1,18.42-3.39,25.56-22.63,32-20.92,5.84,1.54,9.62,19.93,1.57,27-7.4,6.47-18.43-2.17-37.37,4-9,2.91-19.64,9.12-18.8,13.8.6,3.35,7.14,6.15,13,5.86,12.3-.62,17.31-14.76,23.72-13,3.89,1.08,6.17,7.45,4.92,12.13-2.21,8.32-15.41,10.79-19.24,11.51-12.26,2.29-16.36-2.17-36-4.4-14.46-1.64-24.73-2.67-32.67,3.14-6.2,4.54-10.92,13.24-8,18.62,3.73,7,19.46,6.9,30,4.18,14.38-3.71,15.21-11.35,30.21-15.9,15.42-4.67,29.85-1.23,30,.42s-12.79.74-20.81,9.21c-6,6.31-7.69,16.17-4.47,18.4,4.82,3.35,17.63-12.6,28.19-8.57a12.61,12.61,0,0,1,7.61,12.13c-.69,7.8-11.54,12.11-17.9,14.64a54.76,54.76,0,0,1-18.57,3.77c-12.68.28-17.67-4-20.81-1.26-5.08,4.48,5.05,18.25,0,22.17-3.26,2.54-10.37-.94-11.86-1.67-4.14-2-9.25-6.27-8.28-9.2.6-1.83,3-1.53,4.92-3.35,4.27-4.09,2.51-15.56-3.8-20.29-8.91-6.67-25,1.52-30.66,4.39C860.62,556,844,564.84,838,583.8c-1.32,4.2-7.64,24.27,3.81,33.47,8.56,6.89,23.26,4.63,32.44.42,17.85-8.19,19.47-25.92,30.66-25.73,8.92.16,12.55,10.71,19.46,8.79,7.12-2,11.07-15.52,11.92-18.41,1.44-5,1.58-8.7,3.35-9,2.71-.46,3.9,8,10.24,10,5.32,1.74,12-1.73,15.66-5.23,4.49-4.28,3.29-7.43,8.34-17.78,3.27-6.71,7.71-13.44,9-13,2.09.75-7,19.73-1.66,23.23,4.3,2.82,16.21-5.59,21.93-9.63,9.73-6.87,15.92-13.92,17.73-12.76,1.53,1-2.67,6.27-.06,11.09,2.19,4,7.11,3.93,7.16,5.86.11,3.63-16.22,3.38-28.64,13.18-7.39,5.83-13.44,15.18-11,18.4,4.69,6.1,36.65-14.09,43.44-6.69,4.68,5.1-4.13,21.54-10.27,21.34-4.26-.15-5.46-8.25-10.29-8.37-5.24-.13-6.19,9.3-12.59,10.67-7.55,1.61-11.21-11-24.39-12.76-7-1-17.44.36-21.7,7.11-1.76,2.78-3.64,8.36-.9,11.5,4.8,5.51,18.17-2.79,38.94,1.68,8.43,1.81,10.08,4,10.29,5.44.31,2.11-2.66,2.78-4.7,6.69-3.09,5.91,0,11.35-2.41,12.55-2.26,1.12-5.87-3.2-7.43-2.3-1.1.63-1.1,3.81,3.75,15L976.79,664c-4-19.45-9.19-24.14-13.26-24.75-5.91-.89-8.13,7-18.57,9.62-12.68,3.21-19.24-6.12-29.76-2.3-7.78,2.82-14.26,11.57-12.31,16.94,3.27,9,30.31,8.66,45.87,6.9,26.43-3,42.49-12.66,56.39-18.82,39.56-17.55,78.67-14.29,109.64-11.72,7.66.64,9.14,1.1,117.25,32.22,38.75,11.15,46.72,13.44,58.63,20.91,36.3,22.8,31,44.76,58,64.29,51.31,37.11,145.28,12,145.59,3.35.06-1.62-3.19-2-11.41-5.93-24.12-11.54-50.61-34.39-46.32-46,2.93-7.92,20.84-12.48,32.67-7.53,8.19,3.43,13.82,13.3,25.06,33.05,5.35,9.39,10.14,19.11,20.14,21.55,1.73.42,4.06,1,4.92,0,3.36-3.88-23.47-23-38.93-56.69-2.62-5.71-10.64-23.57-4-29.08,3.22-2.67,7,0,9.62-2.09,8.14-6.42-20.11-38.45-25.13-81.85-1.62-14-3.73-32.2,7.75-39.61,11.18-7.21,32-2.11,39.39,8.93,3.2,4.75,1.88,7.58-.3,32.91-3,34.46-1.53,40.82,1.19,46.57,2.55,5.39,5.22,8.13,6.27,14.79,1.42,9-2.11,12.82,0,21.19,1.72,6.83,4.7,6.83,7.45,13.39,4.35,10.35-1.55,14-1.19,30.68.1,4.42.84,19,10.44,31.79.81,1.08,5.16,6.86,6.87,6.14,1.31-.56.54-4.77-2.39-16.46-5.78-23-6.46-21.41-6.86-26.77-.84-11.18,2.4-14.6-.6-24.27a41,41,0,0,0-5.37-10.87c-9.38-14.58-5.14-36.25-3-65.27,3.13-42.15-1.72-51.64,7.16-56.89,9.71-5.75,27-1.15,36.1,8.37,7.89,8.21,8.18,18.45,8.35,24.54.28,9.85-2.79,8-9.25,34-3.81,15.34-7,33.22-7.15,34v0c-3.54,19.86-5.07,41.76-6.26,55.22-2.93,33.09-6.56,46.36-1.2,48.53a5.91,5.91,0,0,0,5.67-1.11c3.23-3-.46-9.38-1.79-17.85a45.82,45.82,0,0,1,1.49-20.08,457.79,457.79,0,0,1,7.46-70.85c6.76-36.32,12.82-43.82,20.29-47.13,12.26-5.43,31.58-1,37.59,9.48,4.4,7.69.28,16.22-26.55,64.43-15.89,28.54-29,51.78-21.48,63.31.57.88,1.89,2.84,3.58,2.79,5.5-.15,8.24-21.52,12.53-42.39a523.69,523.69,0,0,1,16.11-57.74c12.57-36.63,20.35-59.3,39.08-64.14,13.63-3.53,31.21,2.85,37.59,13.94,6.49,11.28-.12,24.78-8.65,41.56-6.94,13.65-16.09,27.27-34,47.13-28.85,32-50.76,47.23-46,58.57.23.53,1.57,3.68,4.18,4.18,5.69,1.1,12.26-11.36,20-24,14.8-24.18,26.15-42.28,45.65-52.15,5.33-2.7,17.06-8.65,24.76-4.19,8.54,5,8.73,20.75,4.18,31.52-3,7.14-10.11,13.13-24.17,24.82-13.28,11-21,15.79-20,17.57s9.33.2,16.41-3.07c13.4-6.19,16.23-16.08,28-17.85a23.94,23.94,0,0,1,7,0v695.85H221.65Z"/><path class="cls-5" d="M-1241.38,696.76A348.64,348.64,0,0,0-1130.5,806c15.66,9.65,151.7,93.49,240.32,46.44,53.94-28.65,45.83-82.19,123.51-131.79,14.62-9.33,63.93-11.27,77.87-33.88,1.12-1.83,5.16-8.37,2.83-10.88-2.56-2.76-10.34,2.07-31.62,9.48-19.52,6.81-26.83,7.57-30.43,14.51-2.45,4.7-1.21,8.44-5.22,11.43-4.74,3.54-13,3.25-15.07.14-2.12-3.27,2.95-9.29,1.94-9.9s-5.32,7.16-11.78,7.53c-3.47.2-8.09-1.71-9-4.6-2.28-7.62,23.26-16.08,21.49-25.1-.94-4.76-9.39-9.29-15.07-7.53-9.46,2.92-5.15,21.43-20.74,33.47-3.55,2.74-7.48,4.64-8.8,3.62-2.67-2.07,8-14.07,3.73-20.08-1.72-2.41-5.15-2.76-11.93-3.35-15.86-1.38-22.75,2.86-27.15-1-3.19-2.78-4.16-9-1.49-11.72,6.38-6.48,29.74,11,39.08,3.35,3.06-2.51,4.25-7.43,2.54-10-3-4.55-13.14.44-21.19-5-5.74-3.9-8.47-11.8-6.26-13.95,2.93-2.85,13,6,34,10.18,10,2,18.57,3.61,23.12-1,4-4.08,4-12.13,0-16.46s-10.82-3.85-20.43-3.13c-20.14,1.5-28.1,8.33-37.37,3.76-4.43-2.18-7.51-6.15-6.72-7.74s6.34-.72,17.68-2.51c.93-.15,2.88-.06,3.81-1.25,1.32-1.7-.22-4.67-.62-5.44-1.52-2.92-3.75-4.37-10.6-8.83-4.76-3.1-7.14-4.67-7.08-5.61.16-2.57,7.2-6,13.37-4.81,9.17,1.81,8,12.26,19.47,18.2,10,5.18,20.39,2.15,21.93,1.68,3-.91,8.38-2.59,10.35-7.33,1.36-3.29,1-7.82-1.85-10.25-2-1.68-4.52-1.74-9.4-1.67-15.3.21-19.91,3.79-25.51.84-3.59-1.9-6.34-5.83-5.37-7.95,1.9-4.14,17.84-1,18.13-2.51.22-1.2-9.72-2.41-19.24-9.41-3.27-2.41-9-6.64-8.06-10.46.91-3.59,7.46-5.67,12.75-5.65,8.35,0,10.8,5.31,24.39,13.18,16.29,9.42,25,8.94,28.2,8.57,2.45-.28,8.15-.94,10.07-4.6,2-3.87-1.17-9.21-4-12.13-5.15-5.26-11.05-4.52-25.29-6.9-23-3.86-33-10-37.14-13-2.19-1.54-10.8-7.6-9.4-10.88s12.62-2.62,20.14-1c10.27,2.14,11.81,5.52,23.05,8.15,3.73.88,16.82,4,19.47-.21,1.67-2.62-1.35-7.28-3.81-11.08a28.4,28.4,0,0,0-7.16-8c-9.57-6.72-18.74.53-29.76-4.6-9.08-4.23-14.31-14.49-12.08-17.36s12.51.1,23.27,3.13c10.21,2.88,14.55,5.28,17.45,3.14,2.72-2,3.18-7.26.9-10.25-2.56-3.35-6.92-1.68-17-4.81-5.76-1.78-9.24-2.86-11.41-5.86-4.75-6.55-.13-18.08,3.58-18.4,3.44-.3,5.34,9.08,11.19,9.2a7.85,7.85,0,0,0,4.7-1.88c5.44-3.82,5.09-9.18,8.05-14.85,4.25-8.14,13.54-13.57,15.89-12.14,1.91,1.16-1.11,6.61-4.7,21.55-2.6,10.82-3.87,16.33-2.68,21.34,2.79,11.8,13.24,17.75,15.21,18.82,3,1.65,6.57,3.56,10.29,2.51,5.12-1.44,8.7-8,8.06-13.39-.6-5.07-4.51-6.14-9.17-16.31-2.24-4.87-2-6.11-1.57-6.91,2.17-3.85,13.68-4.67,18.57,0,5.33,5.09,1.87,15.76-3.13,31.17-4.48,13.8-6.72,20.7-8.5,24.48-2.6,5.47-5.06,9.57-3.14,13.38,1.81,3.58,6.94,5.87,11.19,5.23,8-1.2,11.68-12.58,12.76-15.89,5.85-18.09-4.61-29.24,3.8-41.21,2.53-3.6,6.28-6.58,7.83-5.86,3.72,1.73-9.76,22.83-.45,36.19.49.7,4.7,6.57,9.9,6.27,6.12-.35,10.52-9.08,11.19-10.46,2.46-5.06,1.56-7.78,3.58-8.57,4.16-1.63,13.06,7.9,11.64,10-.9,1.35-5.33-1.11-8.95,1.25a8.36,8.36,0,0,0-3.14,4.81c-2.81,8.15-12.18,9.81-19.29,18-1.62,1.86-8.66,9.9-7.39,19,1.71,12.27,17.37,23.41,30.88,20.92,10-1.84,15.19-10.42,18.8-16.32,7.35-12,11.2-30.77,2.23-44.14-4.89-7.29-14.13-13.77-18.34-16.73-6.8-4.76-10.06-5.74-13.65-10.67-1.35-1.84-6.39-9.24-4.48-18,1-4.39,3.71-9.26,5.6-9,2.9.42.11,12.48,6,15.69,4.67,2.53,13.51-1.13,17.67-7.12,2.69-3.85,4.25-9.83,1.57-14.64-2.53-4.53-7.87-6.29-12.25-7.74-7-2.3-10-.91-13.88-4-2.71-2.14-5.22-6-4-8.16,1.49-2.74,8.53-2.59,13.59-1.25,13.59,3.57,16.05,16.56,23.27,15.68,5-.59,8.88-6.94,9-12.13.12-8.63-10.43-15.61-19.24-16.73-9.36-1.2-12.8,4.71-21,2.51-6.88-1.84-13.31-8.32-12.31-13.39,1.18-6,12.71-9.92,21.48-8.16s12.43,8.7,15.22,7.32c3.72-1.84-3.74-13.86,2.23-22.17,3.91-5.43,12.83-8.24,17.46-5.65,6.14,3.44,4.81,16.39,4.47,19.67-.44,4.34-1.54,7.36-.67,12.76.54,3.33,1.15,6.78,4,8.36a9.36,9.36,0,0,0,10.07-1.25c1.75-1.6,1.9-3.48,2.51-11.09.67-8.19,1-12.29,2-12.76,3.38-1.57,13.37,6.16,12.3,12.13-.54,3.09-3.6,3.25-7.6,8s-3.1,7-6.55,14.23c-5.24,11-10.22,11.34-9.62,16.1.89,6.95,10.75,14,19.69,12.76s13-10.19,15.67-15.89a32.25,32.25,0,0,0,2.9-18.83c-1.17-7-4-8.07-7-15.95-4.86-12.75-3.35-25.72-1.23-26.09,1.57-.28,3,6.47,10.51,16.73,3.27,4.46,7.58,10.36,9.85,9.62,4.39-1.43-5.61-25.64,2.46-30.54,5.15-3.12,17.09,1.95,18.57,8.16,1.38,5.81-7.19,9.27-7.61,19.66-.06,1.6-.33,8.21,3.14,9.83,5.67,2.66,15.31-10.94,21-8.36,2.9,1.3,4.38,6.6,2.91,10.66-3.67,10.12-23.32,6.29-29.76,17.58-3.5,6.12-2.27,15.24,2.91,18.82,4.51,3.12,11.65,1.78,16.33-.42,9.45-4.43,11.41-14,25.06-30.33,1.63-1.95,4.08-4.79,6.34-4.32,2.43.51,4.31,4.77,3.34,8.09s-4.19,3.21-7.44,7.32c-3.07,3.87-4.83,9.88-2.46,12.55.37.41,2.15,2.21,8.5,1,18.42-3.39,25.56-22.63,32-20.92,5.84,1.54,9.62,19.93,1.57,27-7.4,6.47-18.43-2.17-37.37,4-9,2.91-19.64,9.12-18.8,13.8.6,3.35,7.14,6.15,13,5.86,12.3-.62,17.31-14.76,23.72-13,3.89,1.08,6.17,7.45,4.92,12.13-2.21,8.32-15.41,10.79-19.24,11.51-12.26,2.29-16.36-2.17-36-4.4-14.46-1.64-24.73-2.67-32.67,3.14-6.2,4.54-10.92,13.24-8,18.62,3.73,7,19.46,6.9,30,4.18,14.38-3.71,15.21-11.35,30.21-15.9,15.42-4.67,29.85-1.23,30,.42s-12.79.74-20.81,9.21c-6,6.31-7.69,16.17-4.47,18.4,4.82,3.35,17.63-12.6,28.19-8.57a12.61,12.61,0,0,1,7.61,12.13c-.69,7.8-11.54,12.11-17.9,14.64a54.76,54.76,0,0,1-18.57,3.77c-12.68.28-17.67-4-20.81-1.26-5.08,4.48,5,18.25,0,22.17-3.26,2.54-10.37-.94-11.86-1.67-4.14-2-9.25-6.27-8.28-9.2.6-1.83,3-1.53,4.92-3.35,4.27-4.09,2.51-15.56-3.8-20.29-8.91-6.67-25,1.52-30.66,4.39-4.23,2.15-20.87,11-26.85,29.91-1.32,4.2-7.64,24.27,3.81,33.47,8.56,6.89,23.26,4.63,32.44.42,17.85-8.19,19.47-25.92,30.66-25.73,8.92.16,12.55,10.71,19.46,8.79,7.12-2,11.07-15.52,11.92-18.41,1.44-5,1.58-8.7,3.35-9,2.71-.46,3.9,8,10.24,10,5.32,1.74,12-1.73,15.67-5.23,4.48-4.28,3.28-7.43,8.33-17.78,3.27-6.71,7.71-13.44,9-13,2.09.75-7,19.73-1.66,23.23,4.3,2.82,16.21-5.59,21.93-9.63,9.73-6.87,15.92-13.92,17.73-12.76,1.53,1-2.67,6.27-.06,11.09,2.19,4,7.11,3.93,7.16,5.86.11,3.63-16.22,3.38-28.64,13.18-7.39,5.83-13.44,15.18-11,18.4,4.69,6.1,36.65-14.09,43.44-6.69,4.68,5.1-4.13,21.54-10.27,21.34-4.26-.15-5.46-8.25-10.29-8.37-5.24-.13-6.19,9.3-12.59,10.67-7.55,1.61-11.21-11-24.39-12.76-7-1-17.44.36-21.7,7.11-1.76,2.78-3.64,8.36-.9,11.5,4.8,5.51,18.17-2.79,38.94,1.68,8.43,1.81,10.08,4,10.29,5.44.31,2.11-2.66,2.78-4.7,6.69-3.09,5.91,0,11.35-2.41,12.55-2.26,1.12-5.87-3.2-7.43-2.3-1.1.63-1.1,3.81,3.75,15l-13.32,5.4c-4-19.45-9.19-24.14-13.26-24.75-5.91-.89-8.13,7-18.57,9.62-12.68,3.21-19.24-6.12-29.76-2.3-7.78,2.82-14.26,11.57-12.31,16.94,3.28,9,30.31,8.66,45.87,6.9,26.43-3,42.49-12.66,56.39-18.82,39.56-17.55,78.67-14.29,109.64-11.72,7.66.64,9.14,1.1,117.25,32.22,38.75,11.15,46.72,13.44,58.63,20.91,36.3,22.8,31,44.76,58,64.29C-63,794.39,31,769.28,31.26,760.63c.06-1.62-3.19-2-11.41-5.93-24.12-11.54-50.61-34.39-46.32-46,2.93-7.92,20.84-12.48,32.67-7.53,8.19,3.43,13.82,13.3,25.06,33.05,5.35,9.39,10.14,19.11,20.14,21.55,1.73.42,4.06,1,4.92,0,3.36-3.88-23.47-23-38.93-56.69-2.62-5.71-10.64-23.57-4-29.08,3.22-2.67,7,0,9.62-2.09C31.12,661.47,2.87,629.44-2.15,586c-1.62-14-3.73-32.2,7.75-39.61,11.18-7.21,32-2.11,39.39,8.93,3.2,4.75,1.88,7.58-.3,32.91-3,34.46-1.53,40.82,1.19,46.57,2.55,5.39,5.22,8.13,6.27,14.79,1.42,9-2.11,12.82,0,21.19,1.72,6.83,4.7,6.83,7.45,13.39,4.35,10.35-1.55,14-1.19,30.68.1,4.42.84,19,10.44,31.79.81,1.08,5.16,6.86,6.87,6.14,1.31-.56.54-4.77-2.39-16.46-5.78-23-6.46-21.41-6.86-26.77-.84-11.18,2.4-14.6-.6-24.27a41,41,0,0,0-5.37-10.87c-9.38-14.58-5.14-36.25-3-65.27,3.13-42.15-1.72-51.64,7.16-56.89,9.71-5.75,26.95-1.15,36.1,8.37,7.89,8.21,8.18,18.45,8.35,24.54.28,9.85-2.79,8-9.25,34-3.81,15.34-7,33.22-7.15,34v0c-3.54,19.86-5.07,41.76-6.26,55.22-2.93,33.09-6.56,46.36-1.2,48.53a5.91,5.91,0,0,0,5.67-1.11c3.23-3-.46-9.38-1.79-17.85A45.82,45.82,0,0,1,90.63,718a457.79,457.79,0,0,1,7.46-70.85c6.76-36.32,12.82-43.82,20.29-47.13,12.26-5.43,31.58-1,37.59,9.48,4.4,7.69.28,16.22-26.55,64.43-15.89,28.54-29,51.78-21.48,63.31.57.88,1.89,2.84,3.58,2.79,5.5-.15,8.24-21.52,12.53-42.39a523.69,523.69,0,0,1,16.11-57.74c12.57-36.63,20.35-59.3,39.08-64.14,13.63-3.53,31.21,2.85,37.59,13.94,6.49,11.28-.12,24.78-8.65,41.56-6.94,13.65-16.09,27.27-34,47.13-28.85,32-50.76,47.23-45.95,58.57.23.53,1.57,3.68,4.18,4.18,5.69,1.1,12.26-11.36,20-24,14.8-24.18,26.15-42.28,45.65-52.15,5.33-2.7,17.06-8.65,24.76-4.19,8.54,5,8.73,20.75,4.18,31.52-3,7.14-10.11,13.13-24.17,24.82-13.28,11-21,15.79-20,17.57s9.33.2,16.41-3.07c13.4-6.19,16.23-16.08,28.05-17.85a23.94,23.94,0,0,1,7,0v695.85H-1241.38Z"/><path class="cls-5" d="M1693.41,682.34a348.74,348.74,0,0,0,110.88,109.19C1820,801.18,1956,885,2044.61,838c53.94-28.64,45.83-82.18,123.51-131.78,14.62-9.33,63.93-11.27,77.87-33.88,1.12-1.83,5.16-8.37,2.83-10.88-2.56-2.76-10.34,2.07-31.62,9.48-19.52,6.81-26.83,7.57-30.43,14.51-2.45,4.7-1.21,8.44-5.22,11.43-4.74,3.54-13.05,3.25-15.07.14-2.12-3.27,2.95-9.29,1.94-9.9s-5.32,7.16-11.78,7.53c-3.47.2-8.09-1.71-9-4.6-2.28-7.62,23.26-16.08,21.49-25.1-.94-4.76-9.39-9.29-15.07-7.53-9.46,2.92-5.15,21.42-20.74,33.47-3.55,2.74-7.48,4.64-8.8,3.62-2.67-2.07,8-14.08,3.73-20.08-1.72-2.41-5.15-2.76-11.93-3.35-15.86-1.38-22.75,2.86-27.15-1-3.19-2.78-4.16-9-1.49-11.72,6.38-6.48,29.74,11,39.08,3.35,3.06-2.52,4.25-7.43,2.54-10-3-4.55-13.14.44-21.19-5-5.74-3.9-8.47-11.8-6.26-13.95,2.93-2.85,13,6,34,10.18,10,2,18.57,3.61,23.12-1,4.05-4.08,4-12.13,0-16.46s-10.82-3.85-20.43-3.14c-20.14,1.51-28.1,8.34-37.37,3.77-4.43-2.18-7.51-6.15-6.72-7.74s6.34-.72,17.68-2.51c.94-.15,2.88-.06,3.81-1.25,1.32-1.7-.22-4.67-.62-5.44-1.52-2.92-3.75-4.37-10.6-8.83-4.76-3.1-7.14-4.67-7.08-5.61.16-2.57,7.2-6,13.37-4.81,9.17,1.81,8,12.26,19.47,18.2,10,5.18,20.39,2.15,21.93,1.67,2.95-.9,8.38-2.58,10.35-7.32,1.36-3.29,1-7.82-1.85-10.25-2-1.68-4.52-1.74-9.4-1.67-15.3.21-19.91,3.79-25.51.84-3.59-1.9-6.34-5.84-5.37-8,1.9-4.14,17.84-1,18.13-2.51.22-1.2-9.72-2.41-19.24-9.41-3.27-2.41-9-6.64-8.06-10.46.91-3.59,7.46-5.68,12.75-5.65,8.35,0,10.8,5.31,24.39,13.18,16.29,9.42,25,8.94,28.2,8.57,2.45-.28,8.15-.94,10.07-4.6,2-3.87-1.17-9.21-4-12.13-5.15-5.26-11-4.52-25.28-6.9-23-3.86-33-10-37.15-13-2.18-1.54-10.8-7.6-9.4-10.88s12.62-2.62,20.14-1c10.27,2.15,11.81,5.52,23.05,8.16,3.73.88,16.82,4,19.47-.21,1.67-2.62-1.35-7.28-3.81-11.08a28.26,28.26,0,0,0-7.16-8c-9.57-6.72-18.74.52-29.76-4.6-9.08-4.23-14.31-14.49-12.08-17.36s12.51.1,23.27,3.13c10.21,2.88,14.55,5.28,17.45,3.14,2.72-2,3.18-7.26.9-10.25-2.56-3.36-6.92-1.68-17-4.81-5.76-1.79-9.24-2.86-11.41-5.86-4.75-6.55-.13-18.08,3.58-18.4,3.44-.3,5.34,9.08,11.19,9.2a7.85,7.85,0,0,0,4.7-1.88c5.44-3.82,5.09-9.18,8.05-14.85,4.25-8.14,13.54-13.57,15.89-12.14,1.91,1.16-1.11,6.61-4.7,21.55-2.6,10.82-3.87,16.33-2.68,21.33,2.79,11.81,13.24,17.76,15.21,18.83,3,1.65,6.57,3.56,10.29,2.51,5.12-1.45,8.7-7.95,8.06-13.39-.6-5.07-4.51-6.15-9.17-16.31-2.24-4.87-2-6.11-1.57-6.91,2.17-3.85,13.68-4.67,18.57,0,5.33,5.09,1.87,15.76-3.13,31.17-4.48,13.8-6.72,20.7-8.5,24.47-2.6,5.48-5.06,9.58-3.14,13.39,1.81,3.58,6.94,5.87,11.19,5.23,8-1.2,11.68-12.58,12.76-15.9,5.85-18.09-4.61-29.23,3.8-41.2,2.53-3.6,6.28-6.58,7.83-5.86,3.72,1.73-9.76,22.83-.45,36.19.49.7,4.7,6.57,9.9,6.27,6.12-.35,10.52-9.09,11.19-10.46,2.46-5.06,1.56-7.78,3.58-8.57,4.16-1.63,13.06,7.9,11.64,10-.9,1.35-5.33-1.11-8.95,1.25a8.36,8.36,0,0,0-3.14,4.81c-2.81,8.14-12.18,9.81-19.29,18-1.62,1.86-8.66,9.9-7.39,19,1.71,12.27,17.37,23.41,30.88,20.91,10-1.83,15.19-10.41,18.8-16.31,7.35-12,11.2-30.77,2.23-44.14-4.89-7.29-14.13-13.77-18.34-16.73-6.8-4.77-10.06-5.74-13.65-10.67-1.35-1.84-6.39-9.24-4.48-18,1-4.39,3.71-9.27,5.6-9,2.9.42.11,12.48,6,15.69,4.67,2.53,13.51-1.14,17.67-7.12,2.69-3.85,4.25-9.83,1.57-14.64-2.53-4.53-7.87-6.29-12.25-7.74-7-2.3-10-.91-13.88-4-2.71-2.14-5.22-6-4-8.16,1.49-2.74,8.53-2.59,13.59-1.25,13.59,3.57,16,16.55,23.27,15.68,4.95-.59,8.88-6.94,8.95-12.13.12-8.64-10.42-15.61-19.24-16.73-9.36-1.2-12.8,4.71-21,2.51-6.88-1.84-13.31-8.32-12.31-13.39,1.18-6,12.71-9.93,21.48-8.16s12.43,8.7,15.22,7.32c3.72-1.84-3.74-13.86,2.23-22.17,3.91-5.43,12.83-8.24,17.46-5.65,6.14,3.44,4.81,16.38,4.47,19.67-.44,4.34-1.54,7.36-.67,12.76.54,3.33,1.15,6.78,4,8.36a9.36,9.36,0,0,0,10.07-1.25c1.75-1.6,1.9-3.48,2.51-11.09.67-8.19,1-12.29,2-12.76,3.38-1.57,13.37,6.16,12.3,12.13-.54,3.09-3.6,3.25-7.6,7.95s-3.1,7-6.55,14.23c-5.23,10.95-10.22,11.34-9.62,16.1.89,6.95,10.75,14,19.69,12.76s13-10.19,15.67-15.9a32.2,32.2,0,0,0,2.9-18.82c-1.17-7-4-8.07-7-15.95-4.86-12.75-3.35-25.72-1.23-26.1,1.57-.28,3,6.48,10.51,16.74,3.27,4.46,7.58,10.36,9.85,9.62,4.39-1.43-5.61-25.64,2.46-30.54,5.15-3.13,17.09,1.95,18.57,8.16,1.38,5.81-7.19,9.27-7.61,19.66-.06,1.59-.33,8.21,3.14,9.83,5.67,2.66,15.31-10.94,21-8.36,2.9,1.3,4.38,6.6,2.91,10.66-3.67,10.12-23.32,6.29-29.76,17.57-3.5,6.13-2.27,15.25,2.91,18.83,4.51,3.12,11.65,1.78,16.33-.42,9.45-4.43,11.41-14,25.06-30.33,1.63-2,4.08-4.79,6.34-4.32,2.43.51,4.31,4.76,3.34,8.09s-4.19,3.21-7.44,7.32c-3.07,3.87-4.83,9.88-2.46,12.55.37.41,2.15,2.21,8.5,1,18.42-3.38,25.56-22.62,32-20.91,5.85,1.54,9.62,19.93,1.57,27-7.4,6.47-18.43-2.17-37.37,4-9,2.92-19.64,9.13-18.8,13.81.6,3.35,7.15,6.15,13,5.86,12.3-.62,17.31-14.76,23.72-13,3.89,1.08,6.17,7.45,4.92,12.13-2.21,8.32-15.41,10.79-19.24,11.5-12.26,2.3-16.36-2.16-36-4.39-14.46-1.64-24.73-2.67-32.67,3.14-6.2,4.54-10.92,13.23-8,18.62,3.73,7,19.46,6.9,30,4.18,14.38-3.71,15.21-11.35,30.21-15.9,15.42-4.67,29.85-1.23,30,.42s-12.79.74-20.81,9.2c-6,6.32-7.69,16.18-4.47,18.41,4.82,3.35,17.63-12.6,28.19-8.57a12.61,12.61,0,0,1,7.61,12.13c-.69,7.8-11.54,12.11-17.9,14.64a55.29,55.29,0,0,1-18.57,3.77c-12.68.28-17.67-4-20.81-1.26-5.08,4.48,5.05,18.25,0,22.17-3.26,2.53-10.37-.94-11.86-1.67-4.14-2-9.25-6.27-8.28-9.2.6-1.83,3-1.53,4.92-3.35,4.27-4.09,2.51-15.56-3.8-20.29-8.91-6.68-25,1.52-30.66,4.39-4.22,2.15-20.87,10.95-26.85,29.91-1.32,4.2-7.64,24.27,3.81,33.47,8.56,6.88,23.26,4.63,32.44.42,17.85-8.19,19.47-25.92,30.66-25.73,8.92.16,12.55,10.71,19.46,8.79,7.12-2,11.07-15.52,11.92-18.41,1.44-5,1.58-8.7,3.35-9,2.71-.46,3.9,8,10.24,10,5.32,1.73,12-1.73,15.67-5.23,4.48-4.28,3.28-7.43,8.33-17.78,3.27-6.72,7.71-13.44,9-13,2.09.75-7,19.73-1.66,23.23,4.3,2.82,16.21-5.59,21.93-9.63,9.73-6.87,15.92-13.92,17.73-12.76,1.53,1-2.67,6.27-.06,11.09,2.19,4,7.11,3.93,7.16,5.86.11,3.63-16.22,3.38-28.64,13.18-7.39,5.83-13.44,15.18-11,18.4,4.69,6.1,36.65-14.09,43.44-6.69,4.68,5.1-4.13,21.54-10.27,21.33-4.26-.14-5.46-8.24-10.29-8.36-5.24-.13-6.19,9.3-12.59,10.67-7.55,1.61-11.21-11-24.39-12.76-7-1-17.44.36-21.7,7.11-1.76,2.78-3.64,8.36-.9,11.5,4.8,5.51,18.17-2.79,38.94,1.68,8.43,1.81,10.08,4,10.29,5.43.31,2.12-2.66,2.79-4.7,6.7-3.09,5.91,0,11.35-2.41,12.55-2.26,1.12-5.87-3.21-7.43-2.3-1.1.63-1.1,3.81,3.75,15l-13.32,5.4c-4-19.45-9.19-24.14-13.26-24.75-5.91-.89-8.13,7-18.57,9.62-12.68,3.21-19.24-6.12-29.76-2.3-7.78,2.82-14.26,11.57-12.31,16.94,3.28,9,30.31,8.66,45.87,6.9,26.43-3,42.49-12.66,56.39-18.82,39.56-17.55,78.67-14.3,109.64-11.72,7.66.64,9.14,1.1,117.25,32.22,38.75,11.14,46.72,13.44,58.63,20.91,36.3,22.8,31,44.76,58,64.29,51.31,37.11,145.28,12,145.59,3.35.06-1.63-3.19-2-11.41-5.93-24.12-11.54-50.61-34.4-46.32-46,2.93-7.92,20.84-12.48,32.67-7.53,8.2,3.43,13.82,13.3,25.06,33,5.35,9.39,10.14,19.11,20.14,21.55,1.73.42,4.06,1,4.92,0,3.36-3.88-23.46-23-38.93-56.69-2.62-5.71-10.64-23.58-4-29.08,3.22-2.67,7,0,9.62-2.09,8.14-6.42-20.11-38.45-25.13-81.86-1.62-14-3.72-32.19,7.75-39.6,11.18-7.21,32-2.11,39.39,8.93,3.2,4.75,1.88,7.58-.3,32.91-3,34.46-1.53,40.82,1.19,46.57,2.55,5.38,5.22,8.13,6.27,14.78,1.42,9-2.11,12.83,0,21.2,1.72,6.83,4.7,6.83,7.45,13.39,4.35,10.35-1.55,14-1.19,30.68.1,4.42.84,19,10.44,31.79.81,1.08,5.16,6.86,6.87,6.14,1.31-.56.54-4.78-2.39-16.46-5.78-23-6.46-21.41-6.86-26.77-.84-11.18,2.4-14.6-.6-24.27a41,41,0,0,0-5.37-10.87c-9.38-14.58-5.14-36.25-3-65.27,3.13-42.15-1.72-51.64,7.16-56.89,9.71-5.75,27-1.15,36.1,8.37,7.89,8.21,8.18,18.45,8.35,24.54.28,9.85-2.79,8-9.25,34-3.81,15.35-7,33.23-7.15,34v0c-3.54,19.86-5.07,41.75-6.26,55.22-2.93,33.09-6.56,46.36-1.2,48.53a5.93,5.93,0,0,0,5.67-1.11c3.23-3-.46-9.38-1.79-17.85a45.87,45.87,0,0,1,1.49-20.09,457.78,457.78,0,0,1,7.46-70.84c6.76-36.32,12.82-43.82,20.29-47.13,12.26-5.43,31.58-1,37.59,9.48,4.4,7.69.28,16.22-26.55,64.43-15.89,28.54-29.05,51.78-21.48,63.31.57.88,1.89,2.83,3.58,2.79,5.5-.15,8.24-21.52,12.53-42.4A523.89,523.89,0,0,1,3075,625.44c12.57-36.63,20.35-59.3,39.08-64.14,13.63-3.53,31.21,2.85,37.59,13.94,6.49,11.28-.12,24.78-8.65,41.56-6.94,13.64-16.09,27.27-34,47.13-28.85,32-50.76,47.23-45.95,58.57.23.53,1.57,3.68,4.18,4.18,5.69,1.1,12.26-11.36,20-24,14.8-24.18,26.15-42.28,45.65-52.16,5.33-2.7,17.06-8.64,24.76-4.18,8.54,4.95,8.73,20.75,4.18,31.52-3,7.14-10.11,13.13-24.17,24.82-13.28,11-21,15.78-20,17.57s9.33.2,16.41-3.07c13.4-6.19,16.23-16.08,28.05-17.85a23.94,23.94,0,0,1,7,0V1395.2H1693.41Z"/><path class="cls-6" d="M1958.23,1011.53a149.67,149.67,0,0,0-2.41-15.71c-3.59-17.51-7.2-19.49-7.86-33.38-.55-11.71,1.72-16.74-1.81-26.41-3-8.34-9.19-16.86-12.39-16-2.51.7-2.31,6.92-2.62,22.92-.49,25.44-1.22,21.33-1,31.36.63,29.72,6.8,53.28,6,53.41s-4.5-20-7.26-19.74c-2.36.21-2.08,15.29-3.93,15.39-2.6.14-5.67-29.75-7.85-29.61-1.34.09-3.8,11.65-2.72,24.38.49,5.79,1.55,9.92-1.21,13.36-2.43,3-7.18,4.72-10.27,3.48-4.68-1.87-6.91-11-3-22.35a86.1,86.1,0,0,0,5.38-13.37c2.32-8.71.76-18.53-1.45-18.85-3.54-.52-8.46,23.42-11.48,22.93-2.46-.4-2.21-16.78-.61-30.77,1.92-16.71,5.85-30.68,4.54-31.06-1.49-.42-5.77,17.51-13,17.71-5.52.15-9.85-10.11-10.88-9.58s3.21,8.23,5.61,15.91c5,16.11,3.44,34.94-2.28,36.63-5.13,1.51-11.71-11.27-15.72-9.58-4.51,1.9,3.26,18.38-3.4,24.34-5.75,5.15-18.23-1.1-36.79-6.92-.68-.22-17-3.63-49.56-10.45-30.43-6.38-42.55-6.52-75.85-11.32a1052.76,1052.76,0,0,1-140.52-29.9c-24.08-7-42.18-13.35-57.12-18.58-51.32-18-60.63-24.76-102.14-39.77-47-17-70.5-25.49-105.16-30.18-6.48-.88-37.26-1.56-98.82-2.91-42.48-.93-51.58-.77-65.58,2.91-25.29,6.64-39.89,17.78-47.75,11.61-6.52-5.13-.5-16-.9-37.74-.57-31.06-13.68-55.72-16.62-55.15-3.18.61,6.74,30.49-3.63,69.67-8.7,32.9-23.25,40.18-26.59,41.79-12.15,5.88-27.6,4.23-29,0-1.74-5.21,27.18-9.55,36.26-31.35,2.2-5.28,2.58-11.64,3.32-24.38.88-14.85-.15-28.65-1.69-28.73s.14,14.76-9.49,29c-2.23,3.31-6.38,8.53-21.15,18.29-15.48,10.23-25.56,14.18-33.85,18.58-30.06,15.93-24.41,31.25-48.35,44.12-11.19,6-31.43,6.23-71.92,6.67-46.53.51-55.28-3.71-61-9-12.51-11.47-3.74-22.79-15.72-37.16-20.35-24.4-62.55-27.34-91.87-20.9-36.22,8-54.77,32.35-58,29-3.44-3.52,16.92-31,45.27-52a192.71,192.71,0,0,1,28.41-17.42,166.66,166.66,0,0,1,22.66-10.74c10.94-4.2,18.05-6.85,27.68-7a57.27,57.27,0,0,1,20.67,3.55q28.07-.9,28.41-4.35.23-2.2-10.72-5.42c-20.16-2.49-52.1-4-86.53,8C685.46,815,667,821.5,651.24,838.21c-7.56,8-10.35,14-17.36,22.62A81.81,81.81,0,0,1,624.65,871c-13,11.47-33.6,17.09-37.24,12.29-2.65-3.49,5.74-9.85,21.16-36.76,5.64-9.85,9.58-16.81,13.29-26.9,5.61-15.25,3.24-17.37,7.66-26.9,5.13-11.06,12-17.78,27.4-29.42,16.74-12.67,25.11-19,35.34-23.88,16.08-7.66,29.82-10.4,48.06-14,11.89-2.38,21.92-3.69,29-4.46a43.09,43.09,0,0,1,12.7-3.09c11.3-1,18.85,3.12,20.35.77,1.37-2.15-3.8-7.41-5.65-9.29-3.08-3.13-8.3-8.82-16.72-10.64-5.24-1.13-9.5-.31-13.7.58-15.6,3.31-25.65,6.57-33.44,8.71-20.39,5.6-22.17,2.65-34,7.93-7.78,3.47-9.55,5.86-20.76,13.7-26.39,18.45-29.32,14.1-44.95,27.61-1.7,1.47-16.61,14.8-23.93,31.48-.22.51-.4.95-.55,1.32-4,9.92-3.61,15.41-9.37,28.16-3.62,8-12.94,26.16-17.22,25-4.79-1.34-6.16-27.66,6.34-49.06,7.67-13.12,13-11.48,24.78-29.31,11.21-17,7.5-20.19,17.53-30.77,12.32-13,29-21.19,29-21.19,8.1-4,13.67-5.37,13.42-7.33-.36-2.84-12.75-5-23.7-3.12-13.52,2.36-22.94,10.64-30.82,18.87-16.74,17.48-25.51,34.12-35.05,51.08-24,42.62-31.09,60.34-35.06,59.22-4.93-1.39-.23-30.52,1.21-39.48,3.8-23.53,8.1-30.84,12.09-48.76,2.07-9.33,2.45-14.27,3.93-67.64,1.59-57.7,1.51-64.72-.73-65.11-4.62-.82-15.19,27.29-20.43,52.92-3.28,16.07-2.25,20.34-5.74,49.64-4.25,35.73-6.5,54.74-11.78,55.15-5.51.43-14.84-18.44-15.42-36.28-.23-7.43,1-14.7-.6-15.1s-5.33,7.28-7.25,12.19c-6.89,17.59-5.4,32.17-6.65,32.22s-1.7-14.2-6.35-31.93a170,170,0,0,0-8.16-23.51c-13.86-33.5-17.53-40.09-24.13-44.68-.93-.65-11.21-7.8-14.31-5.24-4.8,4,13.9,26.09,30.59,67.63a262.7,262.7,0,0,1,12.13,36.69,257.52,257.52,0,0,1,7.21,62c0,19.21-2.13,40-4.23,40.06-1.75,0-2.37-14.41-7.26-43.83-2.51-15.13-4.34-26.15-6.65-34.55-7.63-27.83-25.17-44-37.47-58-10.15-11.62-19.4-29.4-32.12-58.35-3.05,7-6.45,8.77-8.74,9.3-10.31,2.4-18.13-16.88-35.05-19.15-8.51-1.15-16,2.45-20.55,5.22,27,19.54,46,37.55,56,48.76a294.22,294.22,0,0,1,18.79,23.65c2.23,3.1,4.57,6.59,7.2,10.89,14.29,23.39,23.95,49,20.55,50.8-3.7,2-17.55-28.52-49.56-53.7-24.92-19.6-51.62-28.72-71.69-33.38,10.68,8.15,12.3,11.68,11.49,13.36-1.19,2.44-7.58,1.06-17.53,1.74a83.88,83.88,0,0,0-22.36,4.64L326.32,736a196.8,196.8,0,0,0,23.56,16c7.62,4.41,11.76,5.79,16.69,8.7,22.56,13.36,36.47,26.88,35.36,28.45-1.77,2.49-37.45-30.81-89.15-31.93-.48,0-.88,0-1.33,0A185.61,185.61,0,0,0,269.26,763a155.47,155.47,0,0,0-32.39,13.07c-43.27,30.71-51.81,39.1-50.77,40.64s12.91-5.29,30.82-10.45a161.12,161.12,0,0,1,54-5.86c41.87-1,71.7,6.53,90.35,12.65,4.08,1.33,7.75,2.74,11.33,4.23,38.25,15.84,68.28,40.78,65.28,46.73-3.1,6.16-38.82-13.39-97.31-18s-105.23,8.48-122.09,13.36c-39.6,11.46-39.39,19.12-97.53,42Q93.42,926.62,96,929.94q1.84,2.34,18.54-6.1c17.48-4.74,24.39-8.5,55.56-15.68,23.93-5.51,40.54-8,63.77-11.61,26.18-4,49.92-7.65,50.76-4.64s-21.18,9-51.07,23.8c-24.75,12.24-35.17,20.69-55,33.09-28.43,17.78-68.57,42.87-116,53.41-21.07,4.68-53.94,8.78-96.56,1.16v457.46H1958.92c-.28-243.15-.37-416.28,0-429.59A147,147,0,0,0,1958.23,1011.53Z"/><path class="cls-6" d="M215.35,739.16c-5.72.21-13.64,1.4-30.59,9.87-25.48,12.74-39,25.79-41.26,23.51-1.45-1.5,5-11.11,5.77-12.19,3.13-4.61,5.21-6.16,4.82-8.8-.45-3.1-4-6-7-5.69-2.51.27-3.26,2.92-4.51,2.59-2.91-.77-3-8.33-3.46-21.48C138,692.9,138,688.6,136.29,678.78c-2-11.78-2.91-8.5-6.35-25.25-1.57-7.61-2.11-11.79-4.62-12.48-3.41-.95-8.7,5.05-11,11-2.63,6.94-1,13.44.29,18.58,5.22,20.18,9,30.78,12.11,42.37a232.47,232.47,0,0,1,5.79,29.75c1.46,11.25,2.16,17,.85,23.66-2.93,14.85-13.52,27.83-17.31,26.42-3.62-1.35,1.59-14.8,0-42.67-.66-11.58-1.13-19.7-4.62-30.19-3-9.11-4.79-9.29-13-28.45-4.68-10.93-6-15.29-7.5-15.09-2.72.37-4,15.27-2.6,29,2.45,23.78,11,28,19,57.47,6.71,24.61,3.51,37.06,1.73,42.38-2.79,8.36-9,19.87-14.42,19.16-3.92-.51-5.89-7.49-9.24-19.74C83.39,797,82.65,792,79.73,772.54c-2.36-15.79-.9-17.9-3.17-25-3.35-10.42-10.24-21.76-13.34-20.83-4.07,1.23-4.37,24.56,3.24,46.08,6.77,19.14,19.23,35.32,20,54.34a39.17,39.17,0,0,1-1,10.68c-1.89,7.83-5.91,12.92-12.12,20.61C69.67,863.07,67,866,63,868.33a29.69,29.69,0,0,1-4.77,2.19,36.7,36.7,0,0,1-.43,7.39c-.58,3.84-2.54,17-10.38,20.9a13.67,13.67,0,0,0-5,3.32,12.74,12.74,0,0,0-2.7,5.1c-1.12,3.81-.11,5.66-.25,13.71,0,0,0,1.14-.1,3.12-.89,12-5.79,23.5-8.66,23.22-3.84-.37-5.69-22-5.77-22.93C24.3,917,25,914.48,23,909.7c-2.44-6-5-5.93-8.48-12.34-4.95-9.18-3.38-16.12-5.77-16.55S1.26,887.63.1,895.91c-1.61,11.36,4.34,21.51,11.54,33.67,3.49,5.9,6.68,10.24,10.87,19.22a81.51,81.51,0,0,1,4.13,9.8c5.82,18.94-9.9,43.63-14.43,42.38-2.15-.59,0-6.59-3.17-18.28-4-14.58-13-26.16-15.16-25.26-.78.34-.07,2.14,0,8.71.11,9.59-1.34,11.71,0,16.26,1,3.51,2.42,4,5.93,9,2,2.92,9.19,12.8,10.67,24.68,1.24,9.86-2.11,15.42,1.57,18.29,2.17,1.69,5.89,1.76,7.67.09,2.44-2.28-.31-6.41,1.15-11.42,1.57-5.39,6.91-8,10-9.77,14.4-8.14,13.21-16.58,29.27-27.38,13.11-8.82,14.63-3.68,33.88-15.06,6.6-3.89,14.78-9.43,21-19.17,2.76-4.34,6.83-12.17,4.86-14s-8.43,5.28-22.79,11c-11.1,4.45-13.4,2.6-21.07,6.68-7.29,3.88-9.58,7.87-18.75,18.29-8,9.09-25.38,28.79-29.15,26.41-2.19-1.38.71-9.94,4.33-20.61a115.26,115.26,0,0,1,7.79-18,87.87,87.87,0,0,1,8.37-13.07,80.08,80.08,0,0,1,15.58-14.8c12.62-9.49,16.19-9.33,40.4-23.8,11.06-6.62,12.11-7.72,19.91-11.9,6.19-3.32,9.37-4.69,14.13-8.13,5.73-4.14,14.59-11.9,13.28-14.22s-12.91,1.85-26.84,7c-16.55,6.08-24.83,9.11-31.74,13.65s-13.9,11.59-27.84,25.68c-11.77,11.89-16.34,17.46-18,16.41-2.48-1.55,3.69-15.88,6.34-22.07,4-9.38,8.42-19.58,14.43-27.28,11.62-14.88,23.4-13,53.09-26.71,26.84-12.39,52-30.08,50.21-34.25-.91-2.08-8.5-.65-15,.58a100.23,100.23,0,0,0-32.26,12.14c-31,18.59-48.95,38.27-51.41,36-.66-.6.22-2.36,6.06-13.35,12.47-23.49,14.34-26.53,18.46-30.48a45.8,45.8,0,0,1,15.3-10.16c8.08-3.18,13.52-2.4,20.19-2.91,13.77-1,13-6.09,38.38-15.38,2.73-1,13.27-4.44,34.34-11.32,11.68-3.82,16-5.2,15.86-6.68-.23-2.48-13-4.52-25.1-2.61-7.71,1.22-8.11,2.91-20.77,6.1-12.89,3.24-12.67,1.53-19.62,4.06-8.52,3.1-9,5.7-23.09,13.06-7.1,3.7-14.7,7.61-16.15,5.81-.8-1,.89-3.52,4-8.71,3.65-6,7-11.58,13.28-16.84a49.84,49.84,0,0,1,9.81-6.38c21.49-10.93,35-8.25,54.53-18.87,12.79-6.94,17.43-13.75,31.45-16,5.6-.89,10.58-.71,10.68-1.75C240.61,742.72,228.05,738.7,215.35,739.16Z"/><path class="cls-6" d="M940.73,825.14c-2.79-4.54,1.95-14.79,9.23-19.15,11.35-6.81,22.6,4.45,32-2,8.91-6.12,9.6-23.57,4.9-26.41-2.54-1.54-5.68,1.81-19.33,7.84-10.33,4.56-15.55,6.8-18.18,4.93-4.3-3.06-3.83-15.43,2.31-23.22,8.22-10.43,22.23-6.42,25.39-15.09,1.83-5-.82-11.87-4.61-13.36-2-.79-4.16,0-11,4.07-13.34,7.89-15.5,10.81-17.89,9.87-4.2-1.66-6.34-14.1-1.15-22.65,6.78-11.17,22.32-9.44,23.08-16.25.46-4.12-4.71-9.46-9.81-9.87-10-.8-15.9,17.87-21.93,16.26-4.71-1.27-8.16-12.47-4.62-19.74,1.63-3.33,3.67-3.67,13.85-11,11.6-8.38,12.47-10.48,12.41-12.19-.13-3.92-5.15-8.08-9.52-7.84-3.76.2-4.79,3.54-11.83,9.87-6,5.39-10.76,9.68-14.72,8.42s-5.5-8-5.77-11.62c-.3-4.14.87-8.25,4-13.35,10-16.12,23.82-15.9,26-26.7,1.07-5.36-.86-11.62-4-12.77-4-1.45-7.68,6.07-19.36,12.53-6.91,3.82-17,7.5-19.36,4.6-2.52-3.14,6.76-10.78,4-16.84-2.93-6.5-18.09-7.64-20.78-3.19-1.39,2.31,1.41,4.76,1.45,10.74a22.39,22.39,0,0,1-3.48,11.71,31.33,31.33,0,0,1-17,1.05c-9.25-2.22-12.17-6.5-15-4.93-4,2.18-4.9,14.12.57,19.16,8.35,7.68,25.17-7.15,36.94,1.16,6.47,4.58,8.78,14.32,6.34,16.83-1.54,1.6-4.56-.16-17.31-2.61-9.75-1.87-12.53-1.71-14.43,0-2.17,2-3.17,5.95-1.73,8.42,3,5.07,15.94,3.1,21.07,2.32,6.85-1,8.7-2.49,11.83-1.16,4.94,2.1,8.79,9.32,6.92,13.35-3.8,8.18-33.54-.76-35.78,5.81-.87,2.57,3,6,3.46,6.38,6.19,5.35,14,1.17,29.44,1.75,4.65.17,20.16.75,21.35,5.8.81,3.46-5.2,8.54-11,10.45-3,1-6.36,1.3-17.89-1.16-14.54-3.1-19-5.7-20.19-4.06-1.8,2.42,3.84,13.7,13.85,18,13.55,5.82,23.18-6.3,38.66,0,2.45,1,9,4,11.54,11,1.94,5.28,1.66,13-2.6,16.55-2.24,1.88-6.2,3.15-29.43-4.06-17.48-5.43-24.27-9-25.68-7-1.53,2.18,3.53,10.75,11.55,15.67,16.78,10.31,34.63-2.7,42.7,6.68,4.41,5.13,3.82,14.53,0,17.71-4,3.34-12,0-23.08-4.65-12.59-5.28-19.07-10.35-20.2-9s3.34,7,7.21,10.74a46.08,46.08,0,0,0,9.52,7c16.16,9.52,19.06,8.79,22.51,13.64,3.6,5.07,5.4,12.84,2.31,16s-9.52.81-11,.29c-6.75-2.45-7.86-7.19-17.31-16.84-6.45-6.59-12.31-10.89-13.56-9.87s2.1,5.44.29,7.55c-1.62,1.87-5.67,0-6.1,1-.77,1.67,11.63,9.12,14.18,10.64,17,10.18,20.43,11,22.5,15.68,2.91,6.59,1,16-3.46,18C907.34,859,895.6,845,894,846.62c-1,1,4.18,6.48,8.08,15.68,2,4.74,8,18.75,2.31,24.38-3.49,3.48-11,3.31-15.58,0-6.63-4.76-6.48-15.4-6.35-23.22.21-12.91,4.26-17.32,1.16-26.32-2-5.68-5.67-10-6.94-9.48-1.49.56,1.42,7.22-1.34,15.29-.82,2.41-2.55,7.49-6.73,8.9-4.59,1.55-11.41-1.62-13.27-6.39-3.49-8.94,12.69-18.28,9.23-27.86-1.85-5.13-8.7-8.61-12.12-7-5.69,2.73.24,18.66-5.77,22.06-4.31,2.44-14-2-17.31-9.29-5.91-13.11,11.76-29.31,6.35-35.41-2.54-2.86-9.38-2.61-13.27.58-10,8.16,3.57,32-4.62,37.74-5.23,3.64-17.19-1.6-18.47-7.55-1-4.43,4.62-6.41,6.35-14.52s-1.55-17.1-4.62-17.41c-4.12-.42-6,15-13.27,15.67-3.38.3-7-2.63-8.08-5.8-2.52-7.2,7.62-16.08,9.81-18,13.14-11.5,28.66-10.58,28.28-14.51-.3-3.07-6.67-5.3-11.54-5.81-15.9-1.65-26.69,14-30.59,11-2.86-2.19.13-12.8,5.77-20.9,6.77-9.7,12.62-9,20.78-17.41,10.63-11,17.22-29.15,11.54-35.42-3.84-4.24-14-3.79-19,1.16-8.52,8.38-1.33,28.54-3.47,29-1.73.4-4.59-13.56-8.65-13.35-6.59.33-9.31,28.77-12.12,28.44-1.43-.16-2.83-7.76-1.15-15.67,2.2-10.4,7.59-11.27,10.38-21.48.39-1.41,3.12-12-1.73-22.64-2.29-5-6.82-11.26-9.23-10.45s0,8.61-2.31,22.64a79.89,79.89,0,0,1-5.19,18.58c-4.33,10.25-7.21,10.52-6.93,15.09.45,7.36,8,8.52,11,19.16,1,3.56,2,10.07-.57,11.61-2,1.22-5.08-1.42-13.85-7-10.55-6.67-15.83-10-17.31-8.7-1.81,1.57.74,10.23,6.92,15.67,8.57,7.53,18.32,3.79,21.35,9.87,2,4,.13,10.14-3.46,13.35-9,8.09-28.43-3.25-30,0-1.15,2.38,7.38,12.2,19,14.52,9.82,1.94,16-2.6,20.77,1.74,3.67,3.36,4.09,9.88,2.31,11-2.32,1.49-7.42-6.66-12.12-5.23-4.09,1.25-7.3,9.59-4.62,13.94,5.13,8.29,29.16-2.07,32.9,5.22,2.14,4.19-3.89,11.33-4.62,12.19-6.88,8.14-16.95,8.65-16.74,9.87s11.7,1.53,26.55-1.16c15.24-2.76,19.25-5.93,27.7-4.06,8.8,1.94,16.35,8,15.58,11-.91,3.6-13,.07-23.08,8.13-4.46,3.56-8.22,9.15-6.93,11,1.89,2.74,13-4.63,34-8.13,13.65-2.28,18.76-.81,21.93.58,1.82.79,10.68,4.92,13.85,14.51.34,1,3.45,10.76-.58,13.93-5.7,4.5-20.64-8.12-23.66-4.64-1.41,1.63.76,5.66,1.16,6.39,5.88,10.91,21.51,9.62,21.93,14.51.27,3.28-6.44,7.61-12.7,7.55-4.34-.05-7.41-2.2-11.54-5.23-18.49-13.58-22-18.48-26.55-17.41s-8.85,7.88-7.5,12.77c2.93,10.61,33.07,8,35.78,19.74.62,2.67-.53,4.59,1.15,6.67,2.37,2.93,6.7,1.56,16.18,1.42,13-.21,15.94,2.2,19.79-.78,1.65-1.28,1.51-2,5.58-10.8,4-8.53,6-12.77,8.08-14.51,4.93-4.17,12-3.44,17.31-2.9,11.23,1.14,14.36,6.26,20.2,4.06,5-1.88,8.74-7.9,7.5-11.61-.32-1-1.35-2.91-13.85-6.39-11.05-3.07-14.53-2.74-15.58-5.22-1.51-3.6,2.88-11.23,9.24-13.35,10.16-3.4,17.19,10,30,7.54,7.25-1.4,13.48-7.33,12.7-10.45-1.46-5.8-26.83.2-31.16-9.28-1.79-3.93.2-10.11,4-13.36,12-10.21,38.37,11.76,47.32,2.91,4.24-4.2,3.68-14.44-1.16-19.74C977.33,815.66,946.1,833.91,940.73,825.14Z"/><path class="cls-6" d="M1281.91,741.93c-7.81-8.74-32.48-1.83-47.9,11-14.19,11.83-10.06,19.95-25.39,32.8-11,9.25-13.73,5.51-36.38,18.54-19.22,11-29.1,20.53-32.3,17.75-2-1.78-.06-7.39,2.31-13.94,2.29-6.31,4.15-11.45,8.66-13.93s8.67-.51,13.85,0c16,1.58,30-12.5,37.22-19.74,6.77-6.8,16.22-16.32,17.6-29.6.57-5.51-.5-9.22,1.16-18.58s3.73-11.39,2.3-14.52c-3.92-8.6-25.68-6.1-28.27-5.8-6.43.74-19.78,2.27-30.88,12.77-10.16,9.62-13,21.58-14.71,29-5.15,22,2.51,32.92-6.35,43-3.82,4.32-10.69,8.46-14.43,6.38-6.49-3.6,2.92-21.94,3.47-56.89.29-19.24-2.42-22.6,1.73-30.19,9.56-17.49,35.78-21.11,38.66-21.48,9.17-1.15,9,1,17.89,0,16-1.73,39.21-10.95,42.13-27.86,1.19-6.93-.81-16.42-6.93-20.32-10.92-7-33.07,5-43.86,20.32-5.76,8.18-4.4,11.82-11,18.57-10.63,10.94-27.56,15.16-30.59,11-2.72-3.71,10.31-10.28,16.16-29.6,3.3-10.89,2-18,4.49-24.56a9.22,9.22,0,0,0,.62-2c1-5-2.73-9.42-3.72-10.52a50.92,50.92,0,0,1-6.58-4.75,49.14,49.14,0,0,1-9.2-10.35c-2.93-4.5-3.19-6.74-5.23-11.13-2.66-5.75-8.56-18.48-16.7-18.67-6.25-.14-12.91,7.16-13.85,14.71-.82,6.66,3,11.78,4.62,13.93a26.81,26.81,0,0,0,12.7,8.9c7.17,2.68,8.94.42,15.54,3.19,2.35,1,8.43,3.48,11.54,9.29,1.17,2.19,2.94,6.65.58,18-1.84,8.87-4.89,15.62-9.81,25-8.12,15.41-15.59,29.61-19,28.44-1.94-.65-2.12-6-2.31-11.61a56.58,56.58,0,0,1,.57-10.45c1.24-8.14-3.75-20.2-15.58-38.89-13.94-22-20.9-33-31.16-36.58-3.12-1.08-16.5-5.2-26,1.74-13.66,10-8.49,35.31-6.92,43,1.43,7,9,38.88,31.74,46.45,14.15,4.72,26-2.74,35.78,6.38,3.3,3.08,5,6.73,6.92,13.36,6.44,21.83,10.88,58.45.58,62.11-4.46,1.59-11.52-3.05-13.28-8.12-1.12-3.27.42-5.38,1.16-11,0-5-.83-12-5.48-17.42-3-3.5-6-4.44-11.56-7.52-12.44-6.83-12.35-10.14-19.89-14-9.26-4.68-26.93-8.59-34.63.58-5.34,6.36-4.73,17.66,0,24.38,3.9,5.55,8,4.23,16.92,10.61,11.67,8.3,8.81,13.38,17.13,17.84,12,6.45,20.64-3.56,33.47,4.06,5.38,3.2,8.9,7.47,13.27,12.78,4.2,5.08,9.11,11.17,11.54,20.31,1.35,5,3.84,14.43,0,17.42s-10.12-2.7-33.47-13.93c-13.49-6.49-15.65-6.09-21.35-10.45-9.8-7.49-8.81-12-17.31-20-3.17-3-20-18.21-39-14.22-7.6,1.6-19,7-20.49,15.67-2,11.88,15.52,25.9,31.45,27.58,5.37.56,5.32-.82,14.43-1.16,13.3-.5,23.27,2.09,36.07,5.51,14.47,3.87,21.77,5.83,31.16,11,9.14,5.07,19.33,10.71,26.54,22.64,8.34,13.78,8,28.09,7.26,34.88l7.43-.75c-.44-8-.69-14.8-.84-20.19-.31-11.71-.09-14.46,1.73-17.42,3.23-5.25,8.91-7,14.43-8.71,3.41-1.05,14.34-4.43,24.81.58,5,2.42,4,3.94,9.24,7,3.51,2.05,8.43,4,29.43,3.77,13-.11,19.49-.22,23.08-2.61,6.77-4.51,12-14.05,9.81-21.48-3.41-11.66-25.57-16.31-42.12-13.35-12.33,2.2-12.7,7-32.9,14.51-15.23,5.64-33,9.54-34,7-.34-.87,1.41-2.33,11.55-9.29,12.11-8.32,19.06-12.72,26.25-17.42,17.08-11.16,20.28-14.08,28.28-15.67,5.53-1.1,7.54-.42,14.14-.58,9.32-.24,35.19-1.46,47.89-16.84C1285.12,762.76,1287.54,748.25,1281.91,741.93Z"/><path class="cls-6" d="M1859.43,735.74c-3.2-3.23-29.27,22.49-36.36,16.84-2.29-1.83-1.56-6.67,0-16.26A132.37,132.37,0,0,1,1830,710.2c8.1-20,17.12-28.73,15-30.87-1.7-1.69-8.6,2.7-17.29,8.23s-10.37,8.17-11,9.28c-2.43,4.53-1.16,7.65-.87,16.26.27,8.08.7,21-5.48,30.77-1.91,3-3.61,3.64-10.39,9.87-16.41,15.08-24.62,22.62-28.28,24.38-16.52,8-22-4.51-39.24,2.9-14.71,6.33-17.2,18.19-31.74,19.16-1.44.1-10.62.71-13.27-4.06-2.75-5,2.9-14,9.23-18.58.81-.58,2-1.37,6.93-3.48a188.8,188.8,0,0,1,18.18-6.68A57.12,57.12,0,0,0,1744,753.16c11.33-11.95,4.12-18.81,15-31.64,9-10.57,17.56-10.3,21.93-21.77,2.13-5.61.55-6.91,3.17-13.07,5.16-12.14,15.53-17,14.72-18.28-.7-1.11-9,1.49-17.32,7.54-13.25,9.71-17.39,20.84-20.19,19.74-3-1.19-.4-15.18.57-20.32,3.5-18.45,9.25-29,8.08-29.6S1757.9,656.2,1752.67,673c-6.31,20.32,2.44,26.46-4.62,43.54-4.83,11.71-8.56,7.89-20.19,27.87-5.56,9.53-8,16.06-15.58,19.74-4.35,2.1-12.23,4.18-16.16.58-6-5.53-1.08-22.94,6.92-33.67,3.62-4.87,5.09-4.62,6.93-8.71.89-2,1.57-4.35,1.45-9.81a10.66,10.66,0,0,1-9.52-1.81c-2.61-2.19-2.51-6-3.37-6-1.27.08,0,8-4.14,11.77-2.62,2.36-7,2.73-9.81,1.74-10.58-3.7-12.15-28.89-9.24-47,4-25.14,17-38.61,15-40.06-2.46-1.78-26.23,15.39-28.28,38.9-.66,7.51,1.53,8.51,6.35,37.15,2.22,13.24,3.34,19.86,3.46,25,.49,20-5.58,22.15-5.19,40.63.32,15.88,4.87,18,2.88,30.19-.46,2.85-1.71,8.87-11.54,25-12.21,20-20.71,33.56-36.93,43-5.41,3.13-18.18,10.52-24.24,5.8-5.14-4-2.87-14.72-.58-25.54s5.21-24.61,16.16-36.58c12.53-13.69,20.76-8.76,29.43-20.32,13.17-17.55,7.44-46.63,2.31-47.6-2-.37-4.19,3.25-8.66,10.45-7.28,11.75-8,18.95-13.27,20.32a9.2,9.2,0,0,1-7.5-1.74c-9.27-7.14-2.31-34.14,5.77-52.25,10.93-24.48,19.23-22.22,22.51-39.48,1.81-9.53,0-14-.69-25-.48-7.75,1.93-11.92.11-18.51-.42-1.52-.89-2.72-1.58-5.57-1.77-7.4-1.42-11.15-2.42-11.35-.73-.15-2.16,1.6-5.25,10.66-.2,2.32-.5,5.92-.85,10.33-1.69,21.26-1.75,37.35-4.91,37.73-2.08.25-2.37-6.73-9.23-11.61-6.14-4.37-10.79-2.25-14.42-6.1-4.43-4.67-2.56-13.12-1.74-17.12.52-2.49,1-5.08,1.46-7.7q-4-12.24-6.42-11.93c-1.28.16-2.25,2.93-2.89,8.32a8.5,8.5,0,0,0-4.55,4.34c-1.54,4,2.11,7.21,3.59,12.88,2.34,8.94-3.82,12.19-2.15,19.05,2.35,9.67,16.84,7.63,20.2,16.84,4.79,13.13-12.06,21-17.31,44.7-3.91,17.63,4,19.81,4,58.63,0,20.54-2.15,26.85-5.77,31.93-7.82,11-24.69,19.76-34.62,13.36-7-4.51-8.63-15.3-7.48-24.14-4.06-2.75-6.79-7.85-5-13.43-1.46-1.32-4.78-3-5.66-3.6a11.74,11.74,0,0,1-5.27-9.32,18.77,18.77,0,0,1-6.57-5.83c-1.69-2.49-4.63-8.34,2.31-32.51,5.72-19.94,9.44-22,11.6-33.91,2.11-2.46,4.47-5.94,3.44-8.75-.92-2.5-3.86-2.65-6-4.06-9.65-6.5,2.07-37.33-2.52-39.41-2-.91-6.35,4.12-8.64,7.67-8.95,13.87-3.37,30.72-2.12,34.25a78.77,78.77,0,0,1,.16,10.54c-1,18.78-9.51,28.12-12.12,40.64-1.41,6.76-5.57,26.72,1.16,47.6,4,12.55,7.52,11.48,26.54,43,13.82,22.88,15.81,29.79,14.43,37.16-2.09,11.1-11.59,22.28-19.62,21.48-11.09-1.1-16.87-24.75-19-33.67-6.57-26.91,2.5-33.39-6.06-50.51-6-12.07-18.36-24.55-23.37-29.61-6.25-6.32-11.5-10.59-14.14-19-.18-.59-.32-1.16-.46-1.73a11.89,11.89,0,0,1-4.51-2.52c-5.75-5.07-10.48-9.59-13.27-14.82-6.69,1.32-14.64-11.69-21.86-23.52-5.19-8.48-14-22.71-15-42.37-1-20.36,6.73-24.16,2.31-37.16-2.84-8.36-6.77-8.9-24.23-26.7-18.93-19.3-26.65-31.24-29.44-29.61s2.17,14.89,2.89,16.83c9.35,25.21,24.31,29.54,29.43,50.51.46,1.89,4.58,19.37-1.73,23.22-7,4.28-26.61-8.41-35.78-26.12-7.15-13.8-1-20.39-9.81-33.09-1.28-1.86-9.88-13.94-23.91-16.2-5.62-.91-12.58-.32-13,1.68s5.76,4,11.25,7.84c5.24,3.63,9.85,8.87,19.33,31.64,11.8,28.33,9.27,31.94,16.16,37.16,9.6,7.26,15.53,2.17,28.85,9.86,6.82,3.94,11.48,8.87,24.24,27.29,14.82,21.39,15.37,24.61,23.08,35.41,23.32,32.66,38.41,31.45,46.17,55.16,1,3,1.8,13,3.46,33.08,3.62,43.68,1,47-1.15,48.19-6.86,3.61-21.69-9.79-28.85-22.06-7.06-12.09-7-23.66-6.93-28.74.12-7.35.35-20.87,9-27,4.31-3.07,8.65-2.81,8.65-4.36,0-2.54-11.65-6.86-16.73-2.61-2.73,2.28-.35,6.38-4,14.22-1.25,2.65-1.41,2-2.07,3.83-2.09,5.63,0,9.3-1.52,15.85a12,12,0,0,1-1.28,3.33c.21,9.12-1.54,22.41-7,23.73-6.56,1.59-15.72-15-25.4-32.51-8.6-15.59-15.64-28.32-19.62-47-3.09-14.55-.23-16.8-4-34.83-3.68-17.41-9.55-31.94-10.68-31.64-.64.17.42,5,1.44,17.42,1.4,16.94.43,20.11-1.73,21.77-2.82,2.17-7.34,1.46-10.39,0-6.47-3.11-7.24-11.32-9.81-19.74-6.84-22.46-18.45-20.33-23.66-40.64-2.93-11.44.72-12.26-2.88-29-2.87-13.32-8-26-9.81-25.55-1.22.28-.44,6.31,0,23.8.6,24.08-1,26.22-2.31,26.71-1,.37-3,.14-15-14.52-10.08-12.3-15.12-18.45-18.17-24.09-4.65-8.57-6.19-14.67-13.56-21.77-2.2-2.11-6.48-6.23-8.08-5.22-3,1.91,3.92,22.05,14.42,38.6,14.26,22.49,22.72,18.93,43.86,45,10.33,12.73,7.82,13,28.28,40.63,12,16.22,18,24.32,19.62,26.13a139.42,139.42,0,0,1,21.35,29.6c2.92,5.35,9.34,17.13,6.64,19.45-2,1.71-7.77-2.62-16.45-8.42-31.84-21.25-37.52-18.79-46.74-30.76-.64-.83-4.65-9.67-12.7-27.29-12.72-27.86-13.38-30.46-17.89-36.57-11.53-15.62-16.27-10.85-26.54-25.55-10.72-15.32-9.46-28.4-21.36-33.67-4-1.77-9.89-2.9-11.14-.95s2.31,5.88,6,10.53c5.8,7.41,20.82,26.6,17.31,31.93-2.26,3.44-11.93.68-13.27.29-23.81-7-33.64-36.32-37.91-34.52-1.78.75-1.7,6.52-.18,11.88,5.24,18.4,26.53,28.53,49,38.9,17.11,7.87,20.09,7,27.13,13.35,11.15,10,16.81,24.07,19,29.61,5.26,13,3,15.22,8.08,23.51,4.82,7.8,10.6,11.93,21.35,19.45,15,10.44,17.65,9.13,30,18,12.66,9.08,26.64,22.09,24.81,25-1.07,1.69-7.41-.64-15-3.49-16.05-6-24.44-11.53-41.84-20.9s-17.73-8.57-29.14-15.38c-11.76-7-17.64-10.54-23.07-14.65-7.4-5.61-10.55-9-17.9-11.77-6.45-2.4-8.85-1.58-12.7-4.06-4.34-2.8-8.33-8.4-9.81-19.74-13.73-18.5-17.92-34-23.08-33.09-4,.7-7.11,8.79-5.77,15.1,1.13,5.35,5.18,7.93,9.23,11.61,11.5,10.44,20.23,27.19,16.74,31.93-1.94,2.62-11.52.62-30.59-3.49-11.46-2.47-15.76-3.84-16.16-2.9-.67,1.59,9.87,9.73,23.09,13.35,15.42,4.23,21.94-1.11,35.2,1.16,13.42,2.31,17.72,9.71,32.89,20.9,23.63,17.43,29.53,11.51,72.71,34.26,8.54,4.49,28.09,14.75,36.24,22,4,.78,7.47,3.08,10.65,6.42a10.72,10.72,0,0,1,1.85,12.85,9.43,9.43,0,0,0,.33,2.94c1.22,4.42,5.61,7.3,9.45,8.12,2.82.6,3.25-.35,7.31-.39,3.85,0,6.12.81,12.08,2.61,9.51,2.87,8,1.24,14.42,4.06,14.28,6.22,4.25.61,27.13,10.45,19.82,8.53,29.86,12.89,35.78,18A68.37,68.37,0,0,1,1529.13,963c11.54,4,24.33,7.91,38.3,11.31a412.83,412.83,0,0,0,42,8c5.59,2.8,35.07,17.07,51.91,4.33,3.26-2.47,8.69-7.95,7.31-11.22-1.92-4.55-16.06-2.74-25-1.17a26.24,26.24,0,0,1-20.61-2.63c2.22-11,2.76-19.74-.55-21.36-4.44-2.17-12.52,10-16.8,7.71-3.47-1.85-3.75-12.8,1.58-19.76,6-7.77,15.35-5.86,17.53-11.56,1.15-3,.29-8.08-8.6-17.23-.09-.23-.21-.45-.29-.68-1.78-5.75,4-12.18,11-19.74,21.76-23.74,44-24,47.32-40,1.36-6.67-2-8.81.58-16.26,4.15-11.87,16.54-17.2,18.46-18,6.24-2.57,10.29-1.34,16.83.24,0-5.7,3.61-11.31,10.91-11.11,1.46,0,2.9.12,4.33.22a14.5,14.5,0,0,1,3.71-9.67c4.58-5,11.4-3.67,28.85-3.48,19.17.21,28.89.23,35.78-4.06,8.7-5.41,5.84-10.16,15-16.84,12.54-9.13,21.31-2.72,34.62-11C1855.44,751.37,1861.4,737.73,1859.43,735.74Z"/></g></g></svg>