<svg xmlns="http://www.w3.org/2000/svg" xmlns:xlink="http://www.w3.org/1999/xlink" viewBox="0 0 1920 1080"><defs><style>.cls-1{fill:none;}.cls-2{clip-path:url(#clip-path);}.cls-3{fill:#1d89b5;}.cls-4{clip-path:url(#clip-path-2);}.cls-5{clip-path:url(#clip-path-3);}.cls-6{fill:#47818d;}.cls-7{fill:#46acb1;}.cls-8{fill:#1998a2;}.cls-9{fill:#13657b;}.cls-10{clip-path:url(#clip-path-4);}</style><clipPath id="clip-path"><rect class="cls-1" x="2750.01" y="270" width="1917.97" height="1080"/></clipPath><clipPath id="clip-path-2"><rect class="cls-1" x="-8.2" y="-1.83" width="1936.4" height="1083.66"/></clipPath><clipPath id="clip-path-3"><rect class="cls-1" x="-8.62" y="-1.83" width="1927.49" height="1085.36"/></clipPath><clipPath id="clip-path-4"><rect class="cls-1" x="2183.63" y="-1329.95" width="1914.74" height="1075.91"/></clipPath></defs><g id="Layer_1" data-name="Layer 1"><g class="cls-2"><path class="cls-3" d="M1503.22,1039.27a349.4,349.4,0,0,0,111.12,109.43c15.71,9.68,152.05,93.71,240.86,46.54,54.06-28.71,45.94-82.36,123.79-132.07,14.66-9.36,64.08-11.3,78-34,1.13-1.83,5.17-8.39,2.85-10.91-2.57-2.77-10.38,2.08-31.7,9.51-19.56,6.82-26.88,7.58-30.5,14.53-2.45,4.72-1.21,8.46-5.23,11.46-4.75,3.55-13.08,3.26-15.1.14-2.12-3.27,3-9.31,1.94-9.92s-5.33,7.18-11.81,7.55c-3.47.2-8.1-1.72-9-4.61-2.29-7.64,23.31-16.12,21.53-25.16-.94-4.77-9.41-9.31-15.1-7.55-9.49,2.93-5.16,21.48-20.78,33.54-3.56,2.75-7.5,4.66-8.82,3.64-2.68-2.08,8-14.11,3.73-20.13-1.73-2.42-5.16-2.76-12-3.35-15.89-1.39-22.8,2.86-27.21-1-3.2-2.79-4.17-9-1.49-11.74,6.39-6.5,29.8,11.06,39.17,3.35,3.06-2.52,4.26-7.44,2.54-10.06-3-4.56-13.17.44-21.23-5-5.75-3.91-8.49-11.82-6.28-14,2.94-2.86,13.05,6,34.09,10.21,10,2,18.61,3.61,23.17-1,4.06-4.09,4-12.16,0-16.49s-10.85-3.87-20.48-3.15c-20.18,1.51-28.16,8.35-37.45,3.77-4.44-2.18-7.53-6.16-6.73-7.75s6.35-.72,17.72-2.52c.93-.15,2.88-.06,3.81-1.26,1.32-1.7-.22-4.67-.62-5.45-1.52-2.92-3.76-4.37-10.62-8.84-4.77-3.11-7.15-4.68-7.1-5.62.16-2.58,7.22-6,13.41-4.82,9.18,1.8,8,12.28,19.51,18.24,10,5.18,20.43,2.15,22,1.67,3-.91,8.4-2.59,10.37-7.34,1.37-3.29,1-7.84-1.84-10.27-2-1.69-4.53-1.74-9.42-1.68-15.34.21-20,3.8-25.57.84-3.6-1.9-6.36-5.84-5.38-8,1.9-4.15,17.88-1,18.16-2.52.23-1.2-9.73-2.41-19.28-9.43-3.28-2.41-9-6.65-8.08-10.48.92-3.6,7.48-5.69,12.79-5.67,8.36,0,10.81,5.33,24.44,13.21,16.32,9.44,25.08,9,28.26,8.6,2.46-.29,8.17-1,10.09-4.61,2-3.88-1.17-9.23-4-12.16-5.16-5.28-11.08-4.53-25.34-6.92-23-3.86-33.07-10.07-37.23-13-2.19-1.54-10.82-7.62-9.41-10.9s12.64-2.62,20.18-1.05c10.29,2.15,11.83,5.53,23.1,8.18,3.74.88,16.85,3.95,19.51-.21,1.67-2.63-1.35-7.31-3.81-11.11a28.56,28.56,0,0,0-7.18-8c-9.59-6.73-18.79.53-29.83-4.61-9.1-4.24-14.34-14.52-12.11-17.4s12.55.1,23.33,3.14c10.23,2.89,14.58,5.29,17.49,3.15,2.72-2,3.19-7.28.9-10.28-2.57-3.36-6.93-1.68-17.05-4.82-5.78-1.79-9.26-2.87-11.44-5.87-4.75-6.57-.13-18.12,3.59-18.45,3.45-.3,5.36,9.11,11.22,9.23a7.85,7.85,0,0,0,4.71-1.89c5.45-3.83,5.1-9.2,8.07-14.88,4.25-8.15,13.56-13.6,15.92-12.16,1.91,1.16-1.12,6.62-4.71,21.59-2.6,10.84-3.88,16.37-2.69,21.38,2.8,11.83,13.28,17.8,15.25,18.87,3,1.65,6.58,3.57,10.32,2.52,5.12-1.45,8.71-8,8.07-13.42-.6-5.08-4.52-6.16-9.19-16.35-2.24-4.88-2-6.12-1.57-6.92,2.17-3.86,13.7-4.69,18.61,0,5.34,5.1,1.87,15.79-3.14,31.24-4.49,13.83-6.73,20.74-8.52,24.53-2.6,5.48-5.07,9.59-3.14,13.41,1.81,3.59,7,5.88,11.21,5.24,8-1.2,11.71-12.6,12.78-15.93,5.88-18.13-4.62-29.3,3.82-41.3,2.53-3.61,6.29-6.59,7.85-5.87,3.72,1.73-9.79,22.88-.45,36.27.49.7,4.7,6.59,9.92,6.29,6.13-.36,10.54-9.11,11.21-10.48,2.46-5.08,1.56-7.81,3.59-8.6,4.17-1.63,13.09,7.92,11.66,10.06-.9,1.36-5.33-1.11-9,1.26a8.38,8.38,0,0,0-3.14,4.82c-2.82,8.16-12.21,9.83-19.34,18-1.62,1.86-8.67,9.92-7.4,19.08,1.71,12.3,17.41,23.46,30.95,21,10-1.84,15.22-10.43,18.84-16.35,7.36-12.06,11.22-30.84,2.24-44.23-4.91-7.32-14.16-13.81-18.39-16.77-6.81-4.78-10.08-5.76-13.68-10.7-1.35-1.84-6.4-9.26-4.49-18,1-4.4,3.72-9.28,5.61-9,2.91.42.11,12.51,6.06,15.72,4.68,2.54,13.53-1.13,17.71-7.12,2.69-3.86,4.26-9.86,1.57-14.68-2.53-4.55-7.89-6.31-12.28-7.76-7-2.3-10-.91-13.9-4-2.72-2.14-5.24-6-4-8.18,1.5-2.74,8.55-2.59,13.63-1.25,13.62,3.58,16.08,16.59,23.32,15.72,5-.6,8.9-7,9-12.16.12-8.66-10.45-15.64-19.29-16.77-9.38-1.2-12.83,4.72-21.08,2.51-6.89-1.84-13.33-8.34-12.33-13.41,1.18-6,12.74-10,21.53-8.18s12.46,8.72,15.25,7.34c3.73-1.85-3.75-13.9,2.24-22.22,3.92-5.45,12.85-8.26,17.49-5.66,6.16,3.44,4.83,16.41,4.49,19.7-.45,4.36-1.55,7.38-.68,12.79.54,3.34,1.16,6.8,4,8.39a9.4,9.4,0,0,0,10.09-1.26c1.76-1.61,1.91-3.49,2.52-11.11.67-8.21,1-12.33,2-12.79,3.39-1.58,13.4,6.17,12.34,12.16-.55,3.09-3.62,3.25-7.63,8s-3.1,7-6.56,14.25c-5.25,11-10.25,11.37-9.64,16.14.89,7,10.77,14,19.74,12.79s13.06-10.21,15.69-15.93a32.24,32.24,0,0,0,2.92-18.87c-1.17-7-4.05-8.09-7.06-16-4.87-12.77-3.36-25.77-1.24-26.15,1.58-.28,3,6.49,10.54,16.77,3.27,4.48,7.6,10.39,9.87,9.65,4.4-1.44-5.62-25.7,2.47-30.61,5.16-3.13,17.13,2,18.61,8.18,1.39,5.82-7.2,9.29-7.62,19.7-.07,1.6-.33,8.23,3.14,9.86,5.68,2.66,15.35-11,21.08-8.39,2.91,1.31,4.39,6.62,2.91,10.69-3.67,10.14-23.37,6.3-29.82,17.61-3.51,6.14-2.28,15.28,2.91,18.87,4.52,3.13,11.68,1.78,16.37-.42,9.47-4.44,11.44-14,25.12-30.4,1.63-2,4.09-4.8,6.35-4.33,2.44.51,4.32,4.78,3.35,8.11s-4.2,3.22-7.46,7.33c-3.07,3.89-4.84,9.91-2.47,12.58.37.41,2.16,2.22,8.53,1.05,18.46-3.39,25.61-22.67,32.07-21,5.85,1.54,9.64,20,1.57,27-7.42,6.49-18.48-2.18-37.46,4-9,2.92-19.68,9.15-18.83,13.84.6,3.36,7.15,6.16,13,5.87,12.33-.62,17.36-14.79,23.78-13,3.89,1.09,6.18,7.47,4.93,12.16-2.22,8.34-15.45,10.81-19.29,11.53-12.29,2.3-16.4-2.17-36.1-4.4-14.49-1.64-24.8-2.68-32.75,3.14-6.21,4.56-10.95,13.27-8.07,18.66,3.74,7,19.51,6.92,30.05,4.19,14.41-3.72,15.25-11.37,30.28-15.93,15.45-4.68,29.91-1.23,30.05.42s-12.82.74-20.86,9.23c-6,6.32-7.71,16.21-4.48,18.44,4.83,3.35,17.67-12.62,28.25-8.59a12.65,12.65,0,0,1,7.63,12.16c-.69,7.82-11.57,12.14-17.94,14.67a55.12,55.12,0,0,1-18.62,3.78c-12.7.28-17.7-4-20.85-1.26-5.09,4.49,5.06,18.29,0,22.22-3.27,2.54-10.4-.95-11.89-1.68-4.14-2-9.27-6.28-8.3-9.22.61-1.83,3-1.53,4.94-3.36,4.27-4.09,2.51-15.59-3.81-20.33-8.94-6.69-25.07,1.52-30.73,4.4-4.24,2.16-20.92,11-26.91,30-1.32,4.2-7.66,24.32,3.81,33.54,8.58,6.9,23.32,4.65,32.52.42,17.89-8.21,19.52-26,30.72-25.78,8.95.15,12.59,10.73,19.51,8.8,7.14-2,11.1-15.55,11.94-18.45,1.46-5,1.59-8.71,3.37-9,2.71-.46,3.9,8,10.26,10.06,5.33,1.74,12-1.73,15.7-5.24,4.49-4.28,3.29-7.45,8.35-17.82,3.28-6.73,7.73-13.47,9-13,2.09.76-7,19.78-1.66,23.28,4.31,2.83,16.24-5.59,22-9.64,9.76-6.89,16-14,17.77-12.79,1.54,1-2.67,6.28,0,11.11,2.2,4,7.12,3.94,7.18,5.87.1,3.64-16.26,3.39-28.71,13.21-7.41,5.85-13.47,15.22-11,18.45,4.7,6.11,36.73-14.12,43.54-6.71,4.69,5.11-4.13,21.59-10.29,21.38-4.27-.14-5.47-8.26-10.32-8.38-5.24-.13-6.2,9.32-12.61,10.69-7.57,1.62-11.24-11-24.44-12.79-7-1-17.49.37-21.76,7.13-1.76,2.79-3.65,8.38-.9,11.53,4.81,5.52,18.21-2.8,39,1.68,8.45,1.82,10.1,4,10.31,5.45.32,2.12-2.66,2.79-4.71,6.71-3.09,5.92,0,11.37-2.41,12.58-2.27,1.12-5.89-3.22-7.45-2.31-1.11.64-1.11,3.82,3.75,15l-13.34,5.42c-4-19.5-9.21-24.2-13.29-24.81-5.92-.89-8.15,7-18.61,9.64-12.71,3.22-19.29-6.13-29.83-2.31-7.79,2.83-14.29,11.6-12.33,17,3.28,9,30.37,8.69,46,6.92,26.49-3,42.58-12.69,56.51-18.86,39.65-17.59,78.85-14.33,109.89-11.74,7.67.63,9.16,1.1,117.51,32.28,38.83,11.17,46.83,13.47,58.76,21,36.38,22.85,31.09,44.86,58.16,64.44,51.43,37.18,145.6,12,145.92,3.35.06-1.63-3.2-2-11.44-5.94-24.17-11.56-50.73-34.47-46.42-46.12,2.93-7.94,20.88-12.51,32.74-7.55,8.21,3.44,13.85,13.33,25.12,33.13,5.36,9.41,10.16,19.15,20.18,21.59,1.74.42,4.08,1,4.94,0,3.36-3.89-23.52-23.06-39-56.82-2.62-5.72-10.66-23.62-4-29.14,3.22-2.68,7,0,9.64-2.09,8.15-6.44-20.16-38.54-25.19-82-1.63-14-3.73-32.27,7.77-39.7,11.2-7.23,32-2.11,39.47,8.95,3.21,4.77,1.89,7.6-.3,33-3,34.54-1.53,40.92,1.2,46.68,2.55,5.4,5.23,8.15,6.28,14.82,1.43,9.05-2.11,12.85,0,21.24,1.72,6.85,4.72,6.84,7.48,13.42,4.35,10.37-1.57,14-1.2,30.75.1,4.43.84,19,10.46,31.86.81,1.08,5.17,6.88,6.88,6.15,1.32-.56.55-4.78-2.39-16.49-5.79-23.07-6.47-21.46-6.88-26.83-.84-11.2,2.41-14.64-.6-24.32a40.59,40.59,0,0,0-5.38-10.9c-9.4-14.61-5.15-36.33-3-65.41,3.14-42.25-1.72-51.76,7.18-57,9.73-5.75,27-1.14,36.18,8.39,7.91,8.23,8.2,18.49,8.37,24.6.28,9.87-2.8,8-9.27,34.1-3.81,15.38-7,33.3-7.17,34.06v0c-3.55,19.91-5.09,41.85-6.28,55.35-2.94,33.16-6.57,46.46-1.2,48.64a6,6,0,0,0,5.68-1.12c3.24-3-.46-9.4-1.79-17.89a46,46,0,0,1,1.49-20.13,458.14,458.14,0,0,1,7.48-71c6.77-36.4,12.85-43.92,20.33-47.24,12.29-5.44,31.65-1,37.68,9.51,4.41,7.7.28,16.25-26.62,64.57-15.92,28.6-29.11,51.9-21.52,63.45.57.88,1.89,2.84,3.58,2.8,5.52-.16,8.27-21.57,12.56-42.49a524,524,0,0,1,16.15-57.86c12.6-36.72,20.4-59.44,39.17-64.3,13.66-3.53,31.28,2.87,37.68,14,6.5,11.3-.13,24.84-8.68,41.65-6.95,13.68-16.13,27.34-34.08,47.24-28.91,32-50.87,47.34-46.05,58.7.22.53,1.56,3.69,4.18,4.19,5.71,1.1,12.29-11.39,20-24,14.83-24.23,26.21-42.37,45.75-52.27,5.34-2.7,17.1-8.66,24.82-4.19,8.56,5,8.75,20.8,4.18,31.59-3,7.15-10.13,13.16-24.22,24.87-13.3,11.07-21,15.83-20,17.61s9.35.21,16.44-3.07c13.43-6.21,16.27-16.12,28.11-17.89a24.06,24.06,0,0,1,7,0v697.41H1503.22Z"/></g></g><g id="Layer_2" data-name="Layer 2"><g class="cls-4"><g class="cls-5"><path class="cls-6" d="M-8.62,1083.52l1927.49-1.27V-1.83H-8.62Z"/><path class="cls-7" d="M1359.62,616.54c35.56-22.12,89.44-48.16,156.22-50.56,84.62-3,100.77,35.09,217.43,50.56,58.79,7.8,180,23.88,236.39-40.45,16.33-18.64,18.65-34.24,41.71-48,31.59-18.9,68.62-14.36,126.41,0,136.66,34,130.65,58.52,184.56,56.88,23.63-.72,73.06-18.6,171.92-54.36,40.49-14.65,59.59-22.73,87.44-18.33,35,5.53,48.73,25.25,94.59,39.82A245.64,245.64,0,0,0,2749,563.45v850.73H1359.62Z"/><path class="cls-7" d="M-7.42,666.1C28.15,644,82,617.93,148.81,615.53c84.62-3,100.77,35.1,217.43,50.57,58.79,7.8,180,23.88,236.38-40.45,16.34-18.64,18.66-34.25,41.72-48,31.59-18.89,68.62-14.36,126.41,0,136.66,33.95,130.65,58.53,184.56,56.89,23.63-.72,73.06-18.6,171.91-54.36,40.5-14.65,59.59-22.73,87.45-18.33,35,5.53,48.73,25.25,94.58,39.82A245.74,245.74,0,0,0,1382,613v850.73H-7.42Z"/><path class="cls-8" d="M212,697.89a351.21,351.21,0,0,0,111.68,110c15.78,9.72,152.8,94.17,242.05,46.77,54.33-28.86,46.16-82.78,124.4-132.73,14.73-9.41,64.4-11.36,78.43-34.13,1.13-1.84,5.2-8.43,2.86-11-2.58-2.78-10.42,2.08-31.85,9.55-19.66,6.85-27,7.62-30.66,14.61-2.46,4.74-1.21,8.5-5.25,11.52-4.78,3.56-13.15,3.27-15.18.14-2.13-3.29,3-9.36,1.95-10s-5.35,7.21-11.87,7.58c-3.49.2-8.14-1.72-9-4.64-2.3-7.67,23.42-16.19,21.64-25.28-.95-4.79-9.46-9.35-15.18-7.58-9.53,2.94-5.19,21.58-20.88,33.71-3.58,2.76-7.54,4.68-8.87,3.65-2.69-2.09,8.08-14.18,3.76-20.23-1.74-2.43-5.19-2.77-12-3.37-16-1.39-22.92,2.88-27.35-1-3.21-2.8-4.19-9.07-1.5-11.8,6.43-6.53,30,11.11,39.36,3.37,3.08-2.53,4.29-7.48,2.56-10.11-3-4.58-13.23.44-21.34-5.06-5.78-3.92-8.53-11.88-6.31-14,3-2.88,13.12,6,34.26,10.25,10.08,2,18.71,3.63,23.29-1,4.07-4.11,4-12.22,0-16.58s-10.91-3.88-20.59-3.16c-20.27,1.52-28.3,8.39-37.63,3.8-4.46-2.2-7.57-6.2-6.76-7.8s6.37-.72,17.8-2.53c.94-.15,2.9-.06,3.83-1.26,1.33-1.71-.22-4.7-.62-5.48-1.52-2.94-3.77-4.39-10.68-8.89-4.79-3.12-7.18-4.7-7.13-5.65.16-2.59,7.26-6.07,13.47-4.84,9.24,1.81,8,12.34,19.61,18.33,10.09,5.21,20.53,2.16,22.09,1.68,3-.91,8.44-2.6,10.42-7.37,1.38-3.32,1-7.88-1.86-10.33-2-1.69-4.55-1.75-9.46-1.68-15.42.21-20.06,3.81-25.7.84-3.62-1.91-6.39-5.87-5.41-8,1.92-4.17,18-1,18.26-2.53.23-1.21-9.79-2.43-19.38-9.48-3.29-2.42-9.1-6.69-8.12-10.54.92-3.61,7.52-5.71,12.85-5.69,8.41,0,10.87,5.35,24.57,13.28,16.4,9.49,25.2,9,28.39,8.64,2.47-.29,8.22-.95,10.14-4.64,2-3.89-1.17-9.28-4-12.22-5.19-5.3-11.14-4.55-25.47-6.95-23.16-3.88-33.23-10.12-37.41-13.06-2.2-1.55-10.88-7.66-9.47-11s12.71-2.63,20.29-1.05c10.34,2.16,11.89,5.56,23.21,8.21,3.76.89,16.94,4,19.61-.21,1.68-2.64-1.36-7.34-3.83-11.16a28.69,28.69,0,0,0-7.22-8c-9.63-6.77-18.88.53-30-4.63-9.15-4.26-14.41-14.6-12.17-17.49s12.61.11,23.44,3.16c10.28,2.9,14.66,5.31,17.58,3.16,2.73-2,3.2-7.31.9-10.32-2.58-3.38-7-1.7-17.13-4.85-5.8-1.8-9.31-2.88-11.49-5.9-4.78-6.6-.14-18.21,3.6-18.54,3.47-.3,5.38,9.15,11.27,9.27a7.83,7.83,0,0,0,4.73-1.89c5.49-3.85,5.14-9.25,8.12-15,4.27-8.19,13.63-13.66,16-12.22,1.92,1.17-1.12,6.65-4.73,21.7-2.62,10.89-3.9,16.44-2.71,21.49,2.81,11.88,13.34,17.88,15.33,19,3,1.66,6.61,3.59,10.36,2.53,5.15-1.46,8.76-8,8.12-13.49-.6-5.1-4.54-6.19-9.24-16.43-2.25-4.9-2-6.15-1.58-6.95,2.18-3.88,13.77-4.71,18.71,0,5.36,5.12,1.87,15.87-3.16,31.39-4.51,13.9-6.76,20.85-8.56,24.65C719.5,546,717,550.15,719,554c1.82,3.61,7,5.91,11.27,5.27,8-1.21,11.76-12.67,12.85-16,5.9-18.22-4.65-29.45,3.83-41.51,2.55-3.62,6.32-6.62,7.89-5.9,3.74,1.75-9.84,23-.46,36.45.5.71,4.74,6.63,10,6.32,6.17-.35,10.6-9.15,11.27-10.53,2.48-5.1,1.57-7.84,3.61-8.64,4.19-1.64,13.15,8,11.72,10.11-.9,1.37-5.36-1.11-9,1.27a8.36,8.36,0,0,0-3.15,4.84c-2.83,8.2-12.27,9.88-19.44,18.12-1.62,1.87-8.71,10-7.43,19.17,1.71,12.36,17.49,23.58,31.1,21.07,10-1.85,15.3-10.49,18.93-16.43,7.4-12.12,11.28-31,2.25-44.45-4.93-7.35-14.23-13.88-18.48-16.86-6.84-4.8-10.13-5.78-13.75-10.74-1.35-1.86-6.43-9.31-4.5-18.12,1-4.43,3.73-9.34,5.63-9.06,2.93.42.12,12.57,6.09,15.8,4.71,2.55,13.6-1.14,17.8-7.16,2.7-3.88,4.28-9.91,1.58-14.75-2.55-4.57-7.93-6.34-12.34-7.8-7-2.31-10.06-.91-14-4-2.73-2.16-5.26-6-4.05-8.22,1.5-2.76,8.59-2.6,13.69-1.26,13.69,3.6,16.17,16.68,23.44,15.8,5-.6,8.94-7,9-12.22.12-8.7-10.5-15.72-19.38-16.85-9.43-1.21-12.89,4.74-21.18,2.52-6.93-1.85-13.4-8.38-12.4-13.48,1.19-6,12.81-10,21.64-8.22s12.52,8.76,15.32,7.38c3.75-1.86-3.77-14,2.26-22.34,3.94-5.47,12.91-8.29,17.58-5.68,6.18,3.46,4.84,16.5,4.5,19.8-.44,4.38-1.55,7.42-.67,12.85.54,3.36,1.15,6.84,4,8.43a9.46,9.46,0,0,0,10.15-1.26c1.76-1.62,1.91-3.51,2.53-11.17.67-8.25,1-12.38,2-12.85,3.4-1.59,13.46,6.2,12.39,12.22-.55,3.11-3.63,3.27-7.66,8s-3.12,7.07-6.59,14.33c-5.28,11-10.3,11.43-9.69,16.22.89,7,10.82,14.12,19.83,12.85s13.13-10.26,15.78-16a32.41,32.41,0,0,0,2.93-19c-1.18-7.08-4.07-8.13-7.1-16.07-4.9-12.83-3.37-25.9-1.24-26.28,1.58-.28,3,6.52,10.59,16.86,3.29,4.49,7.64,10.43,9.92,9.69,4.42-1.44-5.65-25.83,2.48-30.76,5.18-3.15,17.22,2,18.7,8.22,1.39,5.85-7.24,9.33-7.66,19.8-.06,1.6-.33,8.27,3.16,9.9,5.71,2.68,15.42-11,21.18-8.42,2.93,1.31,4.41,6.65,2.93,10.74-3.69,10.19-23.49,6.33-30,17.7-3.52,6.17-2.29,15.35,2.93,19,4.54,3.14,11.74,1.79,16.45-.42,9.51-4.46,11.49-14.07,25.24-30.55,1.64-2,4.11-4.82,6.38-4.35,2.45.51,4.34,4.79,3.36,8.14s-4.21,3.24-7.49,7.38c-3.08,3.9-4.86,9.95-2.48,12.64.37.41,2.17,2.23,8.57,1.05,18.55-3.41,25.74-22.78,32.23-21.07,5.88,1.56,9.69,20.08,1.58,27.18-7.45,6.52-18.57-2.19-37.64,4-9.05,2.94-19.78,9.19-18.93,13.91.6,3.37,7.19,6.19,13.07,5.9,12.39-.63,17.44-14.87,23.89-13.07,3.91,1.1,6.21,7.51,5,12.22-2.23,8.39-15.53,10.87-19.39,11.59-12.35,2.31-16.48-2.18-36.28-4.42-14.56-1.65-24.92-2.69-32.91,3.16-6.24,4.57-11,13.33-8.11,18.75,3.76,7,19.6,6.95,30.2,4.21,14.48-3.74,15.32-11.43,30.43-16,15.53-4.71,30.06-1.24,30.2.42s-12.89.74-21,9.27c-6,6.36-7.76,16.29-4.51,18.54,4.86,3.37,17.76-12.69,28.4-8.64a12.72,12.72,0,0,1,7.66,12.22c-.69,7.86-11.62,12.2-18,14.75a55.24,55.24,0,0,1-18.71,3.79c-12.76.29-17.79-4.06-21-1.26-5.11,4.51,5.09,18.38,0,22.33-3.28,2.55-10.44-1-11.94-1.68-4.17-2-9.32-6.32-8.34-9.27.6-1.84,3-1.54,5-3.38,4.3-4.11,2.52-15.67-3.83-20.43-9-6.72-25.19,1.53-30.88,4.42-4.26,2.17-21,11-27,30.13-1.34,4.22-7.7,24.44,3.83,33.71,8.62,6.93,23.43,4.66,32.68.42,18-8.25,19.61-26.11,30.87-25.91,9,.15,12.65,10.78,19.61,8.85,7.17-2,11.15-15.64,12-18.54,1.46-5,1.59-8.76,3.38-9.06,2.72-.46,3.92,8,10.31,10.11,5.36,1.75,12.08-1.74,15.78-5.27,4.52-4.3,3.3-7.48,8.39-17.91,3.3-6.76,7.77-13.53,9-13.07,2.11.76-7,19.87-1.67,23.4,4.34,2.84,16.33-5.63,22.09-9.69,9.81-6.93,16-14,17.86-12.86,1.55,1-2.69,6.32-.05,11.17,2.2,4.06,7.15,4,7.21,5.9.1,3.66-16.34,3.41-28.85,13.27-7.45,5.88-13.54,15.3-11,18.54,4.72,6.15,36.91-14.19,43.75-6.73,4.71,5.12-4.16,21.69-10.34,21.48-4.3-.15-5.5-8.31-10.37-8.43-5.27-.13-6.23,9.37-12.68,10.75-7.6,1.62-11.29-11-24.56-12.85-7-1-17.57.36-21.86,7.16-1.77,2.8-3.67,8.42-.91,11.59,4.84,5.54,18.3-2.82,39.22,1.68,8.5,1.83,10.15,4,10.37,5.48.31,2.13-2.68,2.81-4.74,6.74-3.11,6,0,11.44-2.42,12.64s-5.92-3.22-7.49-2.31c-1.11.64-1.11,3.83,3.77,15.06l-13.41,5.45c-4-19.6-9.25-24.32-13.35-24.94-6-.89-8.19,7-18.71,9.69-12.76,3.23-19.38-6.16-30-2.31-7.83,2.84-14.36,11.65-12.4,17.06,3.3,9.07,30.53,8.73,46.2,7,26.63-3,42.8-12.75,56.8-19,39.84-17.67,79.23-14.39,110.43-11.8,7.71.65,9.21,1.11,118.1,32.45,39,11.23,47.06,13.54,59,21.07,36.56,23,31.24,45.08,58.44,64.75,51.68,37.37,146.33,12.08,146.65,3.37,0-1.64-3.22-2-11.5-6-24.29-11.62-51-34.64-46.65-46.35,2.95-8,21-12.57,32.9-7.59,8.26,3.46,13.92,13.4,25.25,33.29,5.38,9.46,10.21,19.25,20.28,21.7,1.74.43,4.09,1,5,0,3.38-3.9-23.64-23.17-39.22-57.09-2.64-5.75-10.71-23.75-4-29.29,3.23-2.69,7,0,9.69-2.1,8.19-6.48-20.26-38.73-25.32-82.45-1.63-14.12-3.75-32.43,7.81-39.89,11.26-7.27,32.19-2.12,39.67,9,3.22,4.79,1.9,7.64-.3,33.15-3,34.7-1.54,41.11,1.2,46.91,2.56,5.42,5.25,8.19,6.31,14.89,1.43,9.1-2.12,12.91,0,21.34,1.73,6.89,4.74,6.88,7.51,13.49,4.38,10.42-1.57,14.1-1.2,30.9.1,4.46.84,19.14,10.52,32,.81,1.09,5.19,6.91,6.91,6.18,1.33-.56.55-4.8-2.4-16.57-5.82-23.19-6.51-21.56-6.92-27-.84-11.25,2.43-14.7-.6-24.44a41.09,41.09,0,0,0-5.41-11c-9.44-14.68-5.17-36.51-3-65.74,3.15-42.45-1.73-52,7.21-57.3,9.79-5.79,27.15-1.15,36.36,8.43,8,8.27,8.24,18.58,8.42,24.71.27,9.93-2.82,8.06-9.32,34.28-3.83,15.45-7.07,33.46-7.2,34.23v0c-3.57,20-5.11,42-6.31,55.62-3,33.32-6.6,46.69-1.2,48.88a6,6,0,0,0,5.7-1.13c3.26-3-.45-9.44-1.8-18a46.34,46.34,0,0,1,1.5-20.22,460.41,460.41,0,0,1,7.52-71.35c6.8-36.59,12.91-44.15,20.43-47.48,12.35-5.46,31.81-1,37.86,9.55,4.44,7.74.29,16.34-26.74,64.89-16,28.75-29.26,52.16-21.64,63.77.58.89,1.91,2.86,3.61,2.81,5.54-.15,8.31-21.67,12.62-42.7a527.71,527.71,0,0,1,16.23-58.15c12.66-36.89,20.5-59.72,39.36-64.61,13.73-3.55,31.44,2.88,37.87,14,6.53,11.36-.13,25-8.72,41.86-7,13.74-16.21,27.47-34.26,47.47-29,32.2-51.12,47.57-46.27,59,.22.53,1.57,3.71,4.2,4.21,5.73,1.1,12.36-11.44,20.14-24.15,14.91-24.36,26.34-42.59,46-52.53,5.37-2.72,17.19-8.71,25-4.22,8.6,5,8.79,20.9,4.2,31.74-3,7.2-10.18,13.23-24.34,25-13.37,11.12-21.15,15.9-20.13,17.69s9.4.21,16.53-3.09c13.49-6.23,16.34-16.19,28.24-18a24,24,0,0,1,7,0v700.86H212Z"/><path class="cls-8" d="M-1261.6,697.89a351.21,351.21,0,0,0,111.68,110c15.78,9.72,152.8,94.17,242.05,46.77,54.33-28.86,46.17-82.78,124.41-132.73,14.72-9.41,64.39-11.36,78.43-34.13,1.13-1.84,5.19-8.43,2.85-11-2.58-2.78-10.42,2.08-31.85,9.55-19.66,6.85-27,7.62-30.65,14.61-2.47,4.74-1.22,8.5-5.26,11.52-4.77,3.56-13.15,3.27-15.18.14-2.13-3.29,3-9.36,2-10s-5.36,7.21-11.87,7.58c-3.49.2-8.14-1.72-9-4.64-2.3-7.67,23.42-16.19,21.64-25.28-.94-4.79-9.46-9.35-15.18-7.58-9.53,2.94-5.18,21.58-20.88,33.71-3.58,2.76-7.54,4.68-8.87,3.65-2.69-2.09,8.09-14.18,3.76-20.23-1.74-2.43-5.19-2.77-12-3.37-16-1.39-22.91,2.88-27.35-1-3.21-2.8-4.18-9.07-1.5-11.8,6.43-6.53,30,11.11,39.37,3.37,3.08-2.53,4.28-7.48,2.55-10.11-3-4.58-13.23.44-21.33-5.06-5.79-3.92-8.53-11.88-6.31-14,2.95-2.88,13.11,6,34.25,10.25,10.08,2,18.71,3.63,23.29-1,4.08-4.11,4-12.22,0-16.58s-10.9-3.88-20.58-3.16c-20.28,1.52-28.3,8.39-37.64,3.8-4.46-2.2-7.56-6.2-6.76-7.8s6.38-.72,17.8-2.53c.94-.15,2.9-.06,3.83-1.26,1.34-1.71-.21-4.7-.62-5.48-1.52-2.94-3.77-4.39-10.67-8.89-4.79-3.12-7.19-4.7-7.13-5.65.15-2.59,7.25-6.07,13.47-4.84,9.23,1.81,8,12.34,19.6,18.33,10.09,5.21,20.54,2.16,22.09,1.68,3-.91,8.44-2.6,10.42-7.37,1.38-3.32,1-7.88-1.85-10.33-2-1.69-4.56-1.75-9.47-1.68-15.42.21-20.06,3.81-25.69.84-3.63-1.91-6.39-5.87-5.41-8,1.91-4.17,18-1,18.25-2.53.23-1.21-9.78-2.43-19.38-9.48-3.29-2.42-9.09-6.69-8.11-10.54.92-3.61,7.52-5.71,12.84-5.69,8.41,0,10.88,5.35,24.57,13.28,16.4,9.49,25.2,9,28.4,8.64,2.47-.29,8.21-.95,10.14-4.64,2-3.89-1.18-9.28-4.06-12.22-5.19-5.3-11.13-4.55-25.47-6.95-23.15-3.88-33.23-10.12-37.41-13.06-2.2-1.55-10.88-7.66-9.46-11s12.7-2.63,20.28-1.05c10.35,2.16,11.89,5.56,23.21,8.21,3.76.89,16.94,4,19.61-.21,1.68-2.64-1.36-7.34-3.83-11.16a28.78,28.78,0,0,0-7.21-8c-9.64-6.77-18.88.53-30-4.63C-828,523-833.26,512.64-831,509.75s12.61.11,23.44,3.16c10.29,2.9,14.66,5.31,17.58,3.16,2.74-2,3.2-7.31.9-10.32-2.58-3.38-7-1.7-17.13-4.85-5.8-1.8-9.31-2.88-11.49-5.9-4.78-6.6-.14-18.21,3.61-18.54,3.46-.3,5.38,9.15,11.26,9.27a7.89,7.89,0,0,0,4.74-1.89c5.48-3.85,5.13-9.25,8.11-15,4.27-8.19,13.63-13.66,16-12.22,1.92,1.17-1.12,6.65-4.73,21.7-2.62,10.89-3.9,16.44-2.7,21.49,2.81,11.88,13.34,17.88,15.32,19,3.06,1.66,6.62,3.59,10.37,2.53,5.15-1.46,8.76-8,8.11-13.49-.6-5.1-4.54-6.19-9.24-16.43-2.25-4.9-2-6.15-1.58-6.95,2.19-3.88,13.78-4.71,18.71,0,5.36,5.12,1.88,15.87-3.16,31.39-4.5,13.9-6.76,20.85-8.56,24.65-2.61,5.51-5.09,9.64-3.16,13.48,1.82,3.61,7,5.91,11.27,5.27,8.06-1.21,11.77-12.67,12.85-16,5.9-18.22-4.64-29.45,3.83-41.51,2.55-3.62,6.33-6.62,7.89-5.9,3.74,1.75-9.83,23-.45,36.45.49.71,4.73,6.63,10,6.32,6.17-.35,10.6-9.15,11.27-10.53,2.47-5.1,1.57-7.84,3.6-8.64,4.19-1.64,13.16,8,11.72,10.11-.9,1.37-5.36-1.11-9,1.27a8.38,8.38,0,0,0-3.16,4.84c-2.83,8.2-12.27,9.88-19.43,18.12-1.63,1.87-8.72,10-7.44,19.17,1.72,12.36,17.49,23.58,31.1,21.07,10-1.85,15.3-10.49,18.93-16.43,7.4-12.12,11.28-31,2.26-44.45-4.93-7.35-14.24-13.88-18.49-16.86-6.84-4.8-10.13-5.78-13.74-10.74-1.36-1.86-6.43-9.31-4.51-18.12,1-4.43,3.73-9.34,5.63-9.06,2.93.42.12,12.57,6.09,15.8,4.71,2.55,13.61-1.14,17.8-7.16,2.71-3.88,4.28-9.91,1.58-14.75-2.55-4.57-7.92-6.34-12.34-7.8-7-2.31-10.06-.91-14-4-2.74-2.16-5.27-6-4.06-8.22,1.51-2.76,8.59-2.6,13.69-1.26,13.69,3.6,16.17,16.68,23.44,15.8,5-.6,8.95-7,9-12.22.12-8.7-10.51-15.72-19.38-16.85-9.44-1.21-12.9,4.74-21.19,2.52-6.93-1.85-13.4-8.38-12.4-13.48,1.19-6,12.81-10,21.64-8.22s12.52,8.76,15.33,7.38c3.74-1.86-3.77-14,2.25-22.34,3.94-5.47,12.91-8.29,17.58-5.68,6.18,3.46,4.85,16.5,4.51,19.8-.45,4.38-1.56,7.42-.68,12.85.54,3.36,1.16,6.84,4.06,8.43a9.45,9.45,0,0,0,10.14-1.26c1.76-1.62,1.91-3.51,2.53-11.17.67-8.25,1-12.38,2-12.85,3.41-1.59,13.47,6.2,12.4,12.22-.56,3.11-3.64,3.27-7.67,8s-3.11,7.07-6.59,14.33c-5.27,11-10.3,11.43-9.69,16.22.89,7,10.83,14.12,19.84,12.85s13.12-10.26,15.77-16a32.41,32.41,0,0,0,2.93-19c-1.18-7.08-4.07-8.13-7.1-16.07-4.89-12.83-3.37-25.9-1.24-26.28,1.58-.28,3,6.52,10.59,16.86,3.29,4.49,7.64,10.43,9.92,9.69,4.43-1.44-5.65-25.83,2.48-30.76,5.19-3.15,17.22,2,18.71,8.22,1.39,5.85-7.24,9.33-7.67,19.8-.06,1.6-.33,8.27,3.16,9.9,5.71,2.68,15.43-11,21.18-8.42,2.93,1.31,4.42,6.65,2.93,10.74-3.69,10.19-23.48,6.33-30,17.7-3.52,6.17-2.28,15.35,2.93,19,4.54,3.14,11.74,1.79,16.45-.42,9.52-4.46,11.49-14.07,25.24-30.55,1.64-2,4.11-4.82,6.39-4.35,2.45.51,4.33,4.79,3.36,8.14s-4.22,3.24-7.49,7.38c-3.09,3.9-4.87,9.95-2.48,12.64.37.41,2.17,2.23,8.56,1.05,18.55-3.41,25.74-22.78,32.23-21.07,5.89,1.56,9.69,20.08,1.58,27.18-7.45,6.52-18.56-2.19-37.64,4-9,2.94-19.78,9.19-18.93,13.91.61,3.37,7.19,6.19,13.07,5.9,12.39-.63,17.44-14.87,23.89-13.07,3.92,1.1,6.21,7.51,5,12.22-2.23,8.39-15.52,10.87-19.38,11.59-12.35,2.31-16.48-2.18-36.29-4.42-14.56-1.65-24.91-2.69-32.9,3.16-6.25,4.57-11,13.33-8.12,18.75,3.76,7,19.61,6.95,30.2,4.21,14.49-3.74,15.33-11.43,30.43-16,15.53-4.71,30.06-1.24,30.2.42s-12.88.74-21,9.27c-6,6.36-7.75,16.29-4.51,18.54,4.86,3.37,17.76-12.69,28.4-8.64A12.71,12.71,0,0,1-506,544.72c-.69,7.86-11.62,12.2-18,14.75a55.2,55.2,0,0,1-18.7,3.79c-12.77.29-17.8-4.06-21-1.26-5.12,4.51,5.09,18.38,0,22.33-3.29,2.55-10.45-1-11.95-1.68-4.16-2-9.31-6.32-8.34-9.27.61-1.84,3-1.54,5-3.38,4.3-4.11,2.53-15.67-3.83-20.43-9-6.72-25.19,1.53-30.88,4.42-4.26,2.17-21,11-27,30.13-1.33,4.22-7.7,24.44,3.83,33.71,8.62,6.93,23.43,4.66,32.68.42,18-8.25,19.61-26.11,30.87-25.91,9,.15,12.65,10.78,19.61,8.85,7.17-2,11.15-15.64,12-18.54,1.46-5,1.59-8.76,3.38-9.06,2.73-.46,3.93,8,10.31,10.11,5.36,1.75,12.08-1.74,15.78-5.27,4.52-4.3,3.31-7.48,8.39-17.91,3.3-6.76,7.77-13.53,9.06-13.07,2.1.76-7.05,19.87-1.67,23.4,4.33,2.84,16.32-5.63,22.08-9.69,9.81-6.93,16-14,17.86-12.86,1.55,1-2.69,6.32-.05,11.17,2.2,4.06,7.16,4,7.21,5.9.1,3.66-16.34,3.41-28.85,13.27-7.45,5.88-13.53,15.3-11,18.54,4.72,6.15,36.91-14.19,43.76-6.73,4.71,5.12-4.16,21.69-10.35,21.48-4.29-.15-5.5-8.31-10.37-8.43-5.27-.13-6.23,9.37-12.67,10.75-7.61,1.62-11.29-11-24.57-12.85-7-1-17.57.36-21.86,7.16-1.77,2.8-3.67,8.42-.9,11.59,4.83,5.54,18.3-2.82,39.21,1.68,8.5,1.83,10.16,4,10.37,5.48.31,2.13-2.68,2.81-4.73,6.74-3.12,6,0,11.44-2.43,12.64-2.28,1.13-5.91-3.22-7.49-2.31-1.11.64-1.11,3.83,3.78,15.06L-501,664.89c-4-19.6-9.25-24.32-13.35-24.94-6-.89-8.19,7-18.7,9.69-12.77,3.23-19.39-6.16-30-2.31-7.83,2.84-14.36,11.65-12.39,17.06,3.29,9.07,30.52,8.73,46.2,7,26.62-3,42.79-12.75,56.79-19,39.84-17.67,79.24-14.39,110.43-11.8,7.71.65,9.21,1.11,118.1,32.45,39,11.23,47.06,13.54,59,21.07,36.56,23,31.25,45.08,58.45,64.75,51.68,37.37,146.32,12.08,146.64,3.37.06-1.64-3.22-2-11.5-6-24.29-11.62-51-34.64-46.65-46.35,3-8,21-12.57,32.91-7.59,8.25,3.46,13.91,13.4,25.24,33.29,5.38,9.46,10.21,19.25,20.28,21.7,1.75.43,4.1,1,5,0,3.38-3.9-23.64-23.17-39.21-57.09-2.64-5.75-10.72-23.75-4.06-29.29,3.24-2.69,7.05,0,9.69-2.1,8.19-6.48-20.26-38.73-25.32-82.45-1.63-14.12-3.75-32.43,7.82-39.89,11.25-7.27,32.18-2.12,39.66,9,3.23,4.79,1.9,7.64-.3,33.15-3,34.7-1.54,41.11,1.2,46.91,2.57,5.42,5.26,8.19,6.31,14.89,1.44,9.1-2.12,12.91,0,21.34,1.74,6.89,4.74,6.88,7.52,13.49,4.37,10.42-1.57,14.1-1.21,30.9.1,4.46.85,19.14,10.52,32,.82,1.09,5.19,6.91,6.91,6.18,1.33-.56.55-4.8-2.4-16.57-5.82-23.19-6.51-21.56-6.91-27-.85-11.25,2.42-14.7-.6-24.44a41.09,41.09,0,0,0-5.41-11c-9.45-14.68-5.18-36.51-3-65.74,3.15-42.45-1.73-52,7.21-57.3,9.79-5.79,27.15-1.15,36.36,8.43,8,8.27,8.25,18.58,8.42,24.71.28,9.93-2.81,8.06-9.32,34.28-3.83,15.45-7.07,33.46-7.2,34.23v0c-3.56,20-5.11,42-6.31,55.62-3,33.32-6.6,46.69-1.2,48.88a6,6,0,0,0,5.71-1.13c3.25-3-.46-9.44-1.8-18A46,46,0,0,1,80,719.24a459.38,459.38,0,0,1,7.51-71.35c6.81-36.59,12.91-44.15,20.43-47.48,12.35-5.46,31.81-1,37.87,9.55,4.43,7.74.28,16.34-26.75,64.89-16,28.75-29.25,52.16-21.63,63.77.58.89,1.91,2.86,3.6,2.81,5.54-.15,8.31-21.67,12.62-42.7a527.71,527.71,0,0,1,16.23-58.15c12.66-36.89,20.5-59.72,39.37-64.61,13.72-3.55,31.43,2.88,37.86,14,6.54,11.36-.13,25-8.72,41.86-7,13.74-16.21,27.47-34.25,47.47-29.06,32.2-51.12,47.57-46.28,59,.23.53,1.57,3.71,4.21,4.21,5.73,1.1,12.35-11.44,20.13-24.15,14.91-24.36,26.34-42.59,46-52.53,5.36-2.72,17.18-8.71,24.94-4.22,8.6,5,8.8,20.9,4.21,31.74-3,7.2-10.19,13.23-24.34,25-13.38,11.12-21.16,15.9-20.14,17.69s9.4.21,16.53-3.09c13.5-6.23,16.35-16.19,28.25-18a23.92,23.92,0,0,1,7,0v700.86H-1261.6Z"/><path class="cls-8" d="M1694.35,683.36a351.1,351.1,0,0,0,111.68,110c15.78,9.73,152.8,94.17,242,46.77,54.33-28.85,46.16-82.77,124.4-132.73,14.73-9.4,64.4-11.35,78.43-34.13,1.13-1.84,5.2-8.43,2.86-11-2.58-2.79-10.42,2.08-31.85,9.55-19.66,6.85-27,7.62-30.66,14.6-2.46,4.74-1.21,8.5-5.25,11.52-4.78,3.56-13.15,3.28-15.18.14s3-9.35,2-10-5.35,7.21-11.87,7.58c-3.49.2-8.14-1.72-9-4.63-2.3-7.67,23.42-16.19,21.64-25.28-.95-4.8-9.46-9.36-15.18-7.59-9.53,2.95-5.19,21.58-20.88,33.71-3.58,2.76-7.54,4.68-8.87,3.65-2.69-2.08,8.08-14.17,3.76-20.22-1.74-2.43-5.19-2.78-12-3.37-16-1.39-22.92,2.87-27.35-1-3.21-2.79-4.19-9.06-1.5-11.79,6.43-6.53,29.95,11.11,39.36,3.37,3.08-2.54,4.29-7.49,2.56-10.12-3-4.58-13.23.45-21.34-5.05-5.78-3.93-8.53-11.89-6.31-14,3-2.87,13.12,6,34.26,10.26,10.08,2,18.7,3.63,23.29-1,4.07-4.1,4-12.21,0-16.57s-10.91-3.88-20.59-3.16c-20.28,1.51-28.3,8.39-37.63,3.79-4.46-2.2-7.57-6.19-6.76-7.79s6.37-.73,17.8-2.53c.94-.15,2.9-.07,3.83-1.27,1.33-1.71-.22-4.7-.62-5.47-1.52-2.94-3.77-4.4-10.68-8.89-4.79-3.13-7.18-4.71-7.13-5.65.16-2.6,7.26-6.07,13.47-4.85,9.24,1.82,8,12.34,19.61,18.33,10.09,5.22,20.53,2.17,22.09,1.69,3-.92,8.43-2.6,10.42-7.38,1.38-3.31,1-7.88-1.86-10.32-2-1.7-4.55-1.75-9.46-1.69-15.42.21-20.06,3.82-25.7.85-3.62-1.91-6.39-5.88-5.41-8,1.92-4.16,18-1,18.26-2.53.23-1.2-9.79-2.42-19.38-9.48-3.29-2.42-9.1-6.68-8.12-10.53.92-3.62,7.52-5.71,12.85-5.69,8.41,0,10.87,5.35,24.57,13.27,16.4,9.49,25.2,9,28.39,8.64,2.47-.28,8.22-.95,10.14-4.63,2-3.9-1.17-9.28-4-12.22-5.19-5.3-11.14-4.56-25.47-7-23.16-3.88-33.23-10.12-37.41-13.06-2.2-1.55-10.88-7.66-9.47-10.95s12.71-2.64,20.29-1.06c10.34,2.16,11.89,5.56,23.21,8.22,3.76.88,16.94,4,19.61-.21,1.68-2.64-1.36-7.34-3.83-11.17a28.55,28.55,0,0,0-7.22-8c-9.63-6.77-18.88.53-30-4.64-9.15-4.26-14.41-14.59-12.17-17.49s12.61.11,23.44,3.16c10.28,2.9,14.66,5.32,17.58,3.17,2.73-2,3.2-7.31.9-10.33-2.58-3.38-7-1.7-17.13-4.84-5.8-1.8-9.31-2.89-11.49-5.9-4.78-6.61-.14-18.22,3.6-18.54,3.47-.3,5.38,9.15,11.27,9.27a7.84,7.84,0,0,0,4.73-1.9c5.49-3.85,5.14-9.24,8.12-15,4.27-8.19,13.63-13.66,16-12.22,1.92,1.17-1.12,6.66-4.73,21.7-2.62,10.9-3.9,16.45-2.71,21.49,2.81,11.89,13.34,17.89,15.33,19,3,1.66,6.61,3.59,10.36,2.53,5.15-1.45,8.76-8,8.12-13.48-.6-5.11-4.54-6.19-9.24-16.43-2.25-4.91-2-6.15-1.58-7,2.18-3.88,13.77-4.71,18.71,0,5.36,5.12,1.87,15.87-3.16,31.39-4.51,13.9-6.76,20.85-8.56,24.65-2.62,5.52-5.1,9.64-3.16,13.49,1.82,3.6,7,5.91,11.27,5.27,8.05-1.21,11.76-12.67,12.85-16,5.9-18.22-4.65-29.44,3.83-41.5,2.55-3.63,6.32-6.63,7.89-5.9,3.74,1.74-9.84,23-.46,36.45.5.7,4.74,6.62,10,6.32,6.17-.36,10.6-9.15,11.27-10.54,2.48-5.09,1.57-7.84,3.61-8.63,4.19-1.64,13.15,7.95,11.72,10.11-.9,1.36-5.36-1.12-9,1.26a8.41,8.41,0,0,0-3.15,4.85c-2.83,8.2-12.27,9.87-19.44,18.12-1.62,1.87-8.71,10-7.43,19.17,1.71,12.36,17.49,23.58,31.1,21.07,10-1.85,15.3-10.49,18.93-16.44,7.4-12.11,11.28-31,2.25-44.45-4.93-7.35-14.23-13.88-18.48-16.85-6.84-4.8-10.13-5.79-13.75-10.75-1.35-1.85-6.43-9.31-4.5-18.12,1-4.43,3.73-9.33,5.63-9.06,2.93.43.12,12.57,6.09,15.8,4.71,2.55,13.6-1.14,17.8-7.16,2.7-3.88,4.28-9.9,1.58-14.75-2.55-4.57-7.93-6.34-12.34-7.79-7-2.32-10.06-.92-14-4-2.73-2.15-5.26-6-4.05-8.21,1.5-2.76,8.59-2.61,13.69-1.27,13.69,3.61,16.17,16.68,23.44,15.8,5-.6,8.94-7,9-12.21.12-8.7-10.5-15.72-19.38-16.86-9.43-1.2-12.89,4.74-21.18,2.53-6.93-1.85-13.4-8.38-12.4-13.49,1.19-6,12.81-10,21.64-8.21s12.52,8.76,15.32,7.37c3.75-1.85-3.77-14,2.26-22.33,3.94-5.47,12.91-8.3,17.58-5.69,6.18,3.46,4.84,16.5,4.5,19.81-.44,4.37-1.55,7.41-.67,12.85.54,3.35,1.15,6.83,4.05,8.42a9.42,9.42,0,0,0,10.15-1.26c1.76-1.61,1.91-3.5,2.53-11.17.67-8.24,1-12.38,2-12.85,3.4-1.58,13.46,6.2,12.39,12.22-.55,3.11-3.63,3.27-7.66,8s-3.12,7.06-6.59,14.32c-5.28,11-10.3,11.43-9.69,16.23.89,7,10.82,14.11,19.83,12.85s13.13-10.27,15.78-16a32.45,32.45,0,0,0,2.93-19c-1.18-7.08-4.07-8.13-7.1-16.07-4.9-12.84-3.37-25.9-1.24-26.28,1.58-.28,3,6.52,10.59,16.85,3.29,4.5,7.64,10.44,9.92,9.69,4.42-1.44-5.65-25.82,2.48-30.75,5.18-3.15,17.22,2,18.7,8.21,1.39,5.85-7.24,9.34-7.66,19.81-.06,1.6-.33,8.27,3.16,9.9,5.71,2.67,15.42-11,21.18-8.43,2.93,1.32,4.41,6.65,2.93,10.75-3.69,10.18-23.49,6.33-30,17.69-3.52,6.17-2.29,15.36,2.93,19,4.54,3.15,11.74,1.79,16.45-.42,9.51-4.46,11.49-14.06,25.24-30.55,1.64-2,4.11-4.82,6.38-4.35,2.45.51,4.34,4.8,3.36,8.15s-4.21,3.23-7.49,7.37c-3.08,3.9-4.86,10-2.48,12.64.37.42,2.17,2.23,8.57,1,18.55-3.4,25.74-22.78,32.23-21.06,5.88,1.55,9.69,20.08,1.57,27.17-7.44,6.52-18.56-2.19-37.63,4-9,2.93-19.78,9.19-18.93,13.9.6,3.38,7.19,6.2,13.07,5.9,12.39-.62,17.44-14.86,23.89-13.06,3.91,1.09,6.21,7.5,5,12.22-2.23,8.38-15.53,10.86-19.39,11.59-12.35,2.3-16.48-2.18-36.28-4.43-14.56-1.65-24.92-2.69-32.91,3.16-6.24,4.58-11,13.33-8.11,18.75,3.76,7,19.6,6.95,30.2,4.22,14.48-3.74,15.32-11.44,30.43-16,15.53-4.7,30.06-1.24,30.2.43s-12.89.74-21,9.27c-6,6.35-7.76,16.29-4.51,18.54,4.86,3.36,17.76-12.69,28.4-8.64a12.71,12.71,0,0,1,7.66,12.22c-.69,7.86-11.62,12.2-18,14.75a55.5,55.5,0,0,1-18.71,3.79c-12.76.28-17.79-4.06-21-1.27-5.11,4.51,5.09,18.38,0,22.34-3.28,2.55-10.44-1-11.94-1.69-4.17-2-9.32-6.31-8.34-9.27.6-1.84,3-1.53,5-3.37,4.3-4.12,2.52-15.67-3.83-20.44-9-6.72-25.19,1.53-30.88,4.43-4.26,2.17-21,11-27,30.13-1.34,4.22-7.7,24.44,3.83,33.71,8.62,6.93,23.43,4.66,32.68.42,18-8.25,19.61-26.11,30.87-25.92,9,.16,12.65,10.79,19.61,8.85,7.17-2,11.15-15.63,12-18.54,1.46-5,1.59-8.76,3.38-9.06,2.72-.46,3.92,8,10.31,10.11,5.36,1.76,12.08-1.74,15.78-5.26,4.52-4.31,3.3-7.49,8.39-17.91,3.3-6.76,7.77-13.54,9.05-13.07,2.11.75-7.05,19.87-1.67,23.39,4.34,2.84,16.33-5.62,22.09-9.69,9.81-6.92,16-14,17.86-12.85,1.55,1-2.69,6.31,0,11.17,2.2,4.06,7.15,4,7.21,5.89.1,3.66-16.34,3.41-28.85,13.28-7.45,5.87-13.54,15.29-11,18.54,4.72,6.14,36.91-14.19,43.75-6.74,4.71,5.13-4.16,21.7-10.34,21.49-4.3-.15-5.5-8.31-10.37-8.43-5.27-.13-6.23,9.37-12.68,10.74-7.6,1.63-11.29-11-24.56-12.85-7-1-17.57.37-21.86,7.16-1.77,2.81-3.67,8.42-.91,11.59,4.84,5.55,18.3-2.81,39.22,1.69,8.5,1.83,10.15,4,10.37,5.48.31,2.13-2.68,2.8-4.74,6.74-3.11,6,0,11.43-2.42,12.64-2.28,1.13-5.92-3.23-7.49-2.32-1.11.64-1.11,3.84,3.77,15.07l-13.41,5.44c-4-19.59-9.25-24.32-13.35-24.93-5.95-.9-8.19,7-18.71,9.69-12.76,3.23-19.38-6.16-30-2.32-7.83,2.84-14.36,11.66-12.4,17.07,3.3,9.06,30.53,8.72,46.2,7,26.62-3,42.8-12.75,56.8-19,39.84-17.68,79.23-14.4,110.43-11.8,7.71.64,9.21,1.11,118.1,32.44,39,11.23,47.06,13.54,59,21.07,36.56,23,31.24,45.08,58.44,64.75,51.68,37.38,146.33,12.09,146.65,3.37,0-1.63-3.22-2-11.5-6-24.29-11.62-51-34.64-46.65-46.35,2.95-8,21-12.57,32.9-7.58,8.26,3.45,13.92,13.4,25.25,33.29,5.38,9.46,10.21,19.24,20.28,21.7,1.74.42,4.09,1,5,0,3.38-3.91-23.64-23.17-39.22-57.1-2.64-5.75-10.71-23.74-4.05-29.28,3.23-2.7,7.05,0,9.69-2.11,8.19-6.47-20.27-38.73-25.32-82.45-1.63-14.12-3.75-32.42,7.81-39.89,11.26-7.26,32.19-2.12,39.67,9,3.22,4.79,1.9,7.64-.3,33.15-3,34.71-1.54,41.12,1.2,46.91,2.56,5.42,5.25,8.19,6.31,14.89,1.43,9.1-2.12,12.92,0,21.35,1.73,6.88,4.74,6.88,7.51,13.48,4.38,10.43-1.57,14.11-1.2,30.9.1,4.46.84,19.15,10.52,32,.81,1.08,5.19,6.91,6.91,6.18,1.33-.57.55-4.81-2.4-16.58-5.82-23.18-6.51-21.56-6.92-27-.84-11.26,2.43-14.71-.6-24.44a41,41,0,0,0-5.41-11c-9.44-14.68-5.17-36.51-3-65.73,3.15-42.46-1.73-52,7.21-57.31,9.79-5.78,27.15-1.15,36.36,8.43,8,8.27,8.24,18.59,8.42,24.72.27,9.92-2.82,8-9.32,34.27-3.83,15.46-7.07,33.47-7.21,34.23v0c-3.57,20-5.11,42.06-6.31,55.62-3,33.33-6.6,46.7-1.2,48.88a5.94,5.94,0,0,0,5.7-1.12c3.26-3-.45-9.45-1.8-18a46.38,46.38,0,0,1,1.5-20.23,460.55,460.55,0,0,1,7.52-71.35c6.8-36.58,12.91-44.14,20.43-47.47,12.35-5.47,31.81-1,37.86,9.55,4.44,7.74.29,16.33-26.74,64.89-16,28.74-29.26,52.16-21.64,63.77.58.88,1.91,2.85,3.61,2.81,5.54-.16,8.31-21.67,12.62-42.7a527,527,0,0,1,16.23-58.15c12.66-36.89,20.5-59.73,39.36-64.61,13.73-3.55,31.44,2.88,37.87,14,6.53,11.36-.13,25-8.72,41.86-7,13.75-16.21,27.47-34.26,47.47-29,32.2-51.12,47.57-46.27,59,.22.53,1.57,3.7,4.2,4.21,5.73,1.1,12.36-11.45,20.14-24.16,14.91-24.36,26.34-42.58,46-52.53,5.37-2.72,17.19-8.71,25-4.21,8.6,5,8.79,20.9,4.2,31.74-3,7.19-10.18,13.23-24.34,25-13.37,11.12-21.15,15.9-20.13,17.7s9.4.2,16.53-3.09c13.49-6.24,16.34-16.2,28.24-18a24.35,24.35,0,0,1,7,0v700.87H1694.35Z"/></g><path class="cls-9" d="M1993.37,1023.44a33,33,0,0,0-12-1.61c-6.84.33-10.68-4.18-11.52-9.43a24.69,24.69,0,0,1-9.36-5.23,19.92,19.92,0,0,1-1.39-1.54c-.15.28-.3.48-.49.49-.56,0-1.14-1.38-1.73-3.6-3-5.25-3.56-11.59-3.4-17.74-1.06-5.93-2.06-10.76-2.93-10.7-1.38.09-3.9,12.6-2.79,26.38.5,6.27,1.59,10.73-1.25,14.45-2.49,3.27-7.37,5.11-10.54,3.77-4.8-2-7.09-11.86-3.11-24.19a95.45,95.45,0,0,0,5.53-14.46c2.38-9.43.78-20.06-1.49-20.4-3.64-.56-8.69,25.34-11.79,24.81-2.53-.43-2.27-18.16-.62-33.3,2-18.08,6-33.2,4.65-33.61s-5.08,15.22-11.21,18.52a98.54,98.54,0,0,0,.71,14.08c.73,5.41-.77,10.75-5.17,13.59.2,10.18-1.8,18.34-5.42,19.47-5.26,1.63-12-12.2-16.13-10.37-4.64,2.06,3.34,19.89-3.5,26.34-5.9,5.57-18.71-1.19-37.76-7.49-.7-.23-17.43-3.93-50.88-11.31-31.24-6.9-43.68-7.06-77.87-12.25a1032.42,1032.42,0,0,1-144.25-32.36c-24.71-7.57-43.3-14.44-58.63-20.1-52.68-19.47-62.25-26.8-104.86-43-48.25-18.39-72.37-27.59-108-32.67-6.65-1-38.25-1.68-101.45-3.14-43.61-1-53-.84-67.32,3.14-18.09,5-30.85,12.38-39.65,14.12a12.61,12.61,0,0,1-11.52,8.61,10.57,10.57,0,0,1-6.17-1.73c-.48.94-1,1.88-1.43,2.83-.18.53-.39,1-.54,1.59-1.77,6.65-8.55,10.07-15,8.59a10.24,10.24,0,0,1-3.67-1.68c-3.54,2.28-7.22,4.37-11,6.31-6.18,3.2-12,.79-15.41-3.51-11,3.23-22.31,1.38-23.52-2.46-1.78-5.65,27.9-10.33,37.23-33.92,2.26-5.72,2.64-12.61,3.41-26.39.9-16.07-.15-31-1.74-31.1s.14,16-9.74,31.41c-2.29,3.58-6.55,9.23-21.71,19.79-15.89,11.07-26.24,15.35-34.75,20.11-30.86,17.24-25.06,33.82-49.63,47.74-11.49,6.52-32.27,6.75-73.83,7.23-47.78.55-56.75-4-62.67-9.74-12.83-12.41-3.83-24.66-16.13-40.21-20.89-26.4-64.21-29.59-94.31-22.61a103.05,103.05,0,0,0-13.52,4.13,19.65,19.65,0,0,0-3.17,3.28,12.59,12.59,0,0,1-13.63,4.83c-17.48,10.25-27,21.61-29.24,19.17s5.75-15.91,19.66-31.26a11.63,11.63,0,0,1,2.22-5.16c6-8.11,13.14-12.62,21.06-17,1.16-1,2.34-1.9,3.53-2.83,4.52-3.53,8.89-6.61,13-9.31-2.85-1.64-5.46-3.22-5.93-3.48-3.43-1.85-5.63-5.92-6-10a91.74,91.74,0,0,0-22.75,18.41c-7.76,8.68-10.63,15.15-17.82,24.48-4.58,5.94-7.06,8.76-9.48,11-13.31,12.42-34.49,18.49-38.22,13.31-2.72-3.78,5.89-10.67,21.71-39.79,3-5.6,5.6-10.34,7.9-15.16a12,12,0,0,1-1.77-14c8.11-15.62,16.66-27.06,16.39-45.31,0-.73,0-1.41,0-2.12-.09-.29-.2-.58-.27-.89a19.6,19.6,0,0,1,.84-11.87,17.58,17.58,0,0,1,.69-6c-4.31,4.2-16.67,17.11-23.18,32.75-.23.56-.41,1-.57,1.44-4.08,10.73-3.7,16.67-9.61,30.47-3.71,8.65-13.29,28.31-17.68,27-4.91-1.45-6.33-29.93,6.51-53.09,7.87-14.2,13.36-12.43,25.44-31.72,11.5-18.38,7.7-21.86,18-33.3C642.61,678.86,659.74,670,659.74,670c8.31-4.3,14-5.81,13.78-7.93-.37-3.08-13.09-5.45-24.33-3.38-13.88,2.55-23.55,11.51-31.64,20.42-17.18,18.92-26.19,36.92-36,55.28-24.6,46.12-31.91,65.3-36,64.09-5.07-1.51-.24-33,1.24-42.73,3.9-25.46,8.32-33.37,12.41-52.77a95.25,95.25,0,0,0,2-15.45,11.6,11.6,0,0,1-4.33-.38c-6-1.66-10.74-8.9-8.48-15.14a70.64,70.64,0,0,0,2.76-9.46c.39-1.86.28-.68.27-1.75-6.86,1-12.22-5-13.23-11.31l-.47-.57c-.48,5.55-1.12,12.37-2.14,21.39C531.29,709,529,729.55,523.56,730c-5.66.46-15.24-20-15.83-39.27-.24-8,1.07-15.91-.62-16.34s-5.46,7.88-7.44,13.2c-7.08,19-5.54,34.81-6.83,34.87s-1.74-15.38-6.51-34.56A191.27,191.27,0,0,0,478,662.46c-14.23-36.26-18-43.39-24.77-48.36-1-.71-11.51-8.44-14.69-5.66-4.93,4.3,14.27,28.23,31.4,73.18a296.81,296.81,0,0,1,12.45,39.7,292.81,292.81,0,0,1,7.4,67.1c0,20.79-2.19,43.33-4.34,43.35-1.8,0-2.43-15.59-7.45-47.43C475.37,768,473.49,756,471.13,747c-7.84-30.13-25.84-47.6-38.47-62.83-10.43-12.57-19.92-31.82-33-63.15-3.13,7.52-6.62,9.5-9,10.07-10.59,2.6-18.62-18.26-36-20.73C346,609.08,338.3,613,333.64,616c27.72,21.15,47.2,40.64,57.45,52.77a315.22,315.22,0,0,1,19.29,25.59c2.29,3.36,4.69,7.14,7.39,11.79,14.68,25.31,24.58,53,21.09,55-3.79,2.16-18-30.86-50.87-58.11-25.58-21.21-53-31.07-73.59-36.12,11,8.81,12.62,12.64,11.79,14.45-1.22,2.65-7.78,1.16-18,1.89a82.5,82.5,0,0,0-23,5l32.26,6.91a204.68,204.68,0,0,0,24.19,17.27c7.82,4.77,12.08,6.26,17.14,9.42,23.16,14.46,37.44,29.09,36.29,30.78-1.81,2.69-38.44-33.34-91.51-34.55-.49,0-.9,0-1.36,0-19.55.61-35.12,3.87-43.32,6.28a155.81,155.81,0,0,0-33.25,14.15c-44.42,33.23-53.19,42.31-52.12,44s13.26-5.72,31.64-11.31a157.36,157.36,0,0,1,55.45-6.34c43-1.14,73.61,7.07,92.75,13.69,4.18,1.44,8,3,11.63,4.57,39.26,17.15,70.09,44.14,67,50.58-3.19,6.66-39.85-14.5-99.89-19.48s-108,9.17-125.33,14.45c-40.66,12.4-40.44,20.7-100.13,45.48q-5.19,5-9.33,9.21c9.44.39,19.44,3.17,28.83,2.06,9.56-1.14,16.34-7.74,23.9-13.09,7-4.93,14.49-8.92,22.9-10.42,8.09-1.44,17.12.44,24.92-2.43,7.27-2.67,12.44-8.35,20.19-10.37,3.65-1,7.74-.66,11.31-1.87,4.18-1.42,7.83-4.46,11.6-6.69,13.8-8.17,25.5-7.15,39.89-.77s1.92,27.54-12.27,21.25c-8.19-3.64-15,0-22.07,4.09,15.94-2.34,27.6-3.49,28.2-1.26.84,3.18-21.76,9.76-52.43,25.75-25.41,13.25-36.11,22.4-56.46,35.82-29.19,19.24-70.4,46.39-119.13,57.8-21.62,5.06-55.37,9.5-99.12,1.25v495.07H1993.47C1993.21,1241.57,1993.11,1065.61,1993.37,1023.44Z"/><path class="cls-9" d="M1908.59,819.85a8.48,8.48,0,0,1,.42-2.12c-.47-2,0-5.3.9-10.6a100,100,0,0,1,5.15-19.58c6-14.94,12.75-21.52,11.15-23.12-1.26-1.27-6.4,2-12.87,6.16s-7.71,6.13-8.16,7c-1.8,3.39-.85,5.73-.64,12.18.2,6,.52,15.73-4.08,23-1.42,2.26-2.69,2.73-7.73,7.39-12.22,11.3-18.33,17-21,18.27-12.3,6-16.38-3.37-29.21,2.18-11,4.74-12.81,13.63-23.63,14.35-1.07.07-7.9.53-9.88-3s2.16-10.5,6.88-13.92a25.37,25.37,0,0,1,5.15-2.61,138.16,138.16,0,0,1,13.53-5,42.52,42.52,0,0,0,16.54-10.66c8.43-9,3.07-14.09,11.17-23.71,6.67-7.91,13.07-7.71,16.32-16.31,1.59-4.2.41-5.17,2.36-9.78,3.85-9.1,11.56-12.75,11-13.71s-6.73,1.12-12.89,5.66c-9.87,7.27-12.94,15.61-15,14.79-2.27-.89-.3-11.38.43-15.23,2.6-13.82,6.88-21.71,6-22.18s-9,7.83-12.89,20.44c-4.69,15.23,1.82,19.83-3.43,32.63-3.6,8.77-6.38,5.91-15,20.88-4.13,7.14-6,12-11.6,14.78-3.23,1.58-9.1,3.13-12,.44-4.49-4.14-.8-17.19,5.15-25.23,2.7-3.64,3.79-3.46,5.16-6.52.66-1.49,1.16-3.26,1.08-7.35a7.91,7.91,0,0,1-7.09-1.36c-1.94-1.64-1.87-4.5-2.51-4.46-.94.05,0,6-3.08,8.82a7.84,7.84,0,0,1-7.3,1.3c-7.87-2.77-9-21.65-6.88-35.23,3-18.84,12.67-28.93,11.17-30-1.83-1.34-19.52,11.52-21,29.14-.49,5.63,1.14,6.37,4.73,27.84,1.65,9.91,2.48,14.87,2.58,18.7.36,15-4.15,16.6-3.87,30.45.24,11.89,3.63,13.48,2.15,22.62-.35,2.13-1.28,6.64-8.59,18.7-9.09,15-15.42,25.15-27.49,32.19-4,2.34-13.54,7.89-18,4.35-3.82-3-2.13-11-.43-19.14s3.88-18.44,12-27.4c9.33-10.27,15.46-6.57,21.91-15.23,9.8-13.15,5.54-34.94,1.72-35.67-1.45-.27-3.12,2.44-6.45,7.83-5.42,8.81-5.93,14.2-9.88,15.23a6.85,6.85,0,0,1-5.58-1.31c-6.9-5.34-1.72-25.58,4.3-39.14.28-.64.55-1.24.83-1.83a8.45,8.45,0,0,1,.86-5.7c3-5.74,9.28-10.51,6.15-17.33-1-2.13-1.91-4.09-2.74-6-1.51.06-1.78-5.08-6.82-8.7-4.57-3.27-8-1.68-10.74-4.56-3.29-3.51-1.91-9.84-1.29-12.83.38-1.87.74-3.81,1.09-5.78q-3-9.16-4.79-8.93c-1,.12-1.67,2.19-2.14,6.23a6.39,6.39,0,0,0-3.4,3.26c-1.14,3,1.58,5.4,2.68,9.64,1.74,6.71-2.84,9.14-1.6,14.28,1.75,7.25,12.53,5.72,15,12.61,3.57,9.84-9,15.71-12.88,33.5-2.91,13.21,2.95,14.84,3,43.93,0,15.38-1.6,20.11-4.29,23.92-5.83,8.23-18.38,14.8-25.78,10-5.2-3.37-6.42-11.45-5.56-18.08A8.89,8.89,0,0,1,1703,855.1a35.81,35.81,0,0,0-4.21-2.7,8.78,8.78,0,0,1-3.92-7,14,14,0,0,1-4.89-4.37c-1.26-1.86-3.45-6.25,1.72-24.36,4.26-14.94,7-16.46,8.63-25.41,1.57-1.84,3.33-4.44,2.56-6.55-.68-1.87-2.87-2-4.44-3-7.18-4.87,1.55-28-1.87-29.53-1.51-.68-4.72,3.08-6.43,5.75-6.66,10.39-2.51,23-1.58,25.66a59.38,59.38,0,0,1,.12,7.9c-.72,14.07-7.08,21.06-9,30.44-1.05,5.07-4.15,20,.86,35.67,3,9.41,5.6,8.6,19.76,32.19,10.28,17.14,11.77,22.31,10.74,27.84-1.56,8.32-8.63,16.69-14.61,16.09-8.25-.83-12.55-18.54-14.17-25.23-4.68-19.27,1.25-24.57-3.78-36.21-2.78,5.47-12.21,6.59-15.35-.14a46.84,46.84,0,0,1-4.12,3.2c.36,3.9.79,9.09,1.34,15.75,1.76,21.43,1.54,29.91.73,33.45a25.49,25.49,0,0,1,6.54,18.57c1.93,1.56,3.83,3.12,5.63,4.71,4.18,3.7,3.09,8.64-.06,11.63a37.67,37.67,0,0,1,7.35,4.72A51,51,0,0,1,1691.11,977c8.58,3,18.11,5.92,28.51,8.47a305.82,305.82,0,0,0,31.26,6c4.16,2.1,26.1,12.79,38.64,3.25,2.43-1.85,6.47-6,5.44-8.41-1.43-3.41-12-2-18.61-.87a19.52,19.52,0,0,1-15.35-2c1.65-8.28,2.06-14.79-.41-16-3.3-1.63-9.32,7.48-12.5,5.77-2.58-1.38-2.79-9.59,1.17-14.8,4.44-5.82,11.43-4.39,13-8.66.86-2.25.22-6.06-6.4-12.91a4.55,4.55,0,0,1-.21-.51c-1.33-4.31,3-9.13,8.16-14.79,16.2-17.79,32.78-18,35.22-30,1-5-1.51-6.6.43-12.18,3.1-8.9,12.32-12.89,13.75-13.48,4.64-1.94,7.65-1,12.53.17,0-4.27,2.69-8.47,8.12-8.32,1.08,0,2.16.09,3.22.17a10.92,10.92,0,0,1,2.76-7.25c3.41-3.77,8.49-2.75,21.48-2.61,14.26.16,21.5.17,26.63-3,6.47-4.05,4.35-7.62,11.17-12.62a20.62,20.62,0,0,1,7.59-3.56A48.26,48.26,0,0,0,1908.59,819.85Z"/><path class="cls-9" d="M1390,802.32c-5.81-6.55-24.18-1.37-35.66,8.26-10.56,8.87-7.48,14.95-18.9,24.58-8.21,6.93-10.21,4.13-27.07,13.88-14.31,8.28-21.67,15.39-24,13.31-1.52-1.33,0-5.54,1.72-10.44,1.7-4.73,3.08-8.58,6.44-10.44s6.46-.38,10.31,0c11.94,1.18,22.35-9.37,27.7-14.79,5-5.1,12.08-12.23,13.11-22.19.42-4.12-.38-6.9.86-13.91s2.77-8.54,1.71-10.88c-2.91-6.44-19.11-4.57-21-4.35-4.79.55-14.73,1.7-23,9.57-7.56,7.2-9.65,16.17-11,21.75-3.83,16.45,1.87,24.67-4.72,32.19-2.85,3.24-8,6.34-10.74,4.78-4.84-2.7,2.17-16.44,2.57-42.63.23-14.41-1.79-16.93,1.29-22.61,7.12-13.11,26.64-15.82,28.78-16.1,6.83-.86,6.67.73,13.32,0,11.88-1.29,29.18-8.2,31.36-20.88.89-5.19-.6-12.29-5.16-15.22-8.13-5.22-24.62,3.75-32.64,15.22-4.29,6.14-3.28,8.86-8.17,13.92-7.9,8.2-20.51,11.36-22.76,8.27-2-2.79,7.67-7.71,12-22.19,2.45-8.15,1.48-13.51,3.34-18.39a7.09,7.09,0,0,0,.46-1.48c.71-3.79-2-7.06-2.78-7.88a38,38,0,0,1-4.89-3.56,37,37,0,0,1-6.85-7.75c-2.18-3.38-2.37-5.05-3.89-8.35-2-4.3-6.38-13.84-12.43-14-4.65-.11-9.61,5.36-10.31,11-.62,5,2.24,8.82,3.44,10.44a20.07,20.07,0,0,0,9.45,6.67c5.34,2,6.66.31,11.57,2.38,1.74.74,6.27,2.61,8.59,7,.87,1.64,2.18,5,.43,13.48-1.37,6.65-3.64,11.7-7.3,18.71-6,11.55-11.61,22.18-14.18,21.31-1.44-.49-1.57-4.47-1.72-8.7a43,43,0,0,1,.43-7.83c.93-6.1-2.79-15.14-11.6-29.14-10.37-16.5-15.56-24.74-23.19-27.4-2.33-.81-12.29-3.9-19.33,1.3-10.17,7.52-6.32,26.45-5.16,32.19,1.07,5.25,6.73,29.13,23.63,34.8,10.53,3.53,19.34-2.05,26.63,4.78,2.46,2.31,3.7,5,5.16,10,4.79,16.35,8.09,43.79.43,46.54-3.32,1.19-8.58-2.29-9.88-6.09-.84-2.45.31-4,.86-8.27,0-3.77-.62-9-4.08-13.05-2.24-2.61-4.45-3.33-8.61-5.63-9.25-5.12-9.19-7.6-14.81-10.46-6.88-3.51-20-6.43-25.77.44-4,4.76-3.52,13.23,0,18.26,2.9,4.16,5.92,3.17,12.59,8,8.69,6.22,6.56,10,12.75,13.37,9,4.83,15.37-2.67,24.92,3,4,2.4,6.62,5.6,9.88,9.57,3.12,3.81,6.78,8.38,8.59,15.23,1,3.78,2.86,10.8,0,13.05s-7.54-2-24.91-10.44c-10-4.87-11.65-4.57-15.9-7.83-7.29-5.61-6.56-9-12.88-15-2.36-2.25-14.89-13.65-29-10.66-5.66,1.2-14.17,5.26-15.25,11.75-1.48,8.9,11.55,19.4,23.41,20.66,4,.42,4-.62,10.74-.87,9.9-.37,17.33,1.56,26.85,4.13,10.77,2.9,16.21,4.37,23.19,8.27,6.81,3.79,14.39,8,19.76,17,6.21,10.33,5.92,21,5.41,26.13l5.53-.56c-.33-6-.52-11.09-.63-15.13-.23-8.77-.07-10.83,1.29-13.05,2.4-3.93,6.63-5.25,10.74-6.53,2.54-.78,10.68-3.31,18.47.44,3.76,1.81,3,2.95,6.87,5.22,2.62,1.53,6.28,3,21.91,2.83,9.64-.09,14.51-.17,17.18-2,5-3.38,8.93-10.52,7.31-16.09-2.55-8.74-19-12.22-31.36-10-9.18,1.65-9.45,5.28-24.49,10.88-11.34,4.22-24.58,7.14-25.34,5.21-.26-.65,1-1.74,8.59-6.95,9-6.24,14.19-9.53,19.55-13.05,12.7-8.37,15.09-10.55,21-11.75,4.12-.82,5.62-.31,10.53-.43,6.94-.18,26.19-1.09,35.65-12.62C1392.4,817.92,1394.21,807.06,1390,802.32Z"/></g></g><g id="Layer_3" data-name="Layer 3"><g class="cls-10"><path class="cls-3" d="M939.62-635.24A348.64,348.64,0,0,0,1050.5-526c15.66,9.65,151.7,93.49,240.32,46.44,53.94-28.65,45.83-82.19,123.51-131.79,14.62-9.33,63.93-11.27,77.87-33.88,1.12-1.83,5.16-8.37,2.83-10.88-2.56-2.76-10.34,2.07-31.62,9.48-19.52,6.81-26.83,7.57-30.43,14.51-2.45,4.7-1.21,8.44-5.22,11.43-4.74,3.54-13,3.25-15.07.14-2.12-3.27,3-9.29,1.94-9.9s-5.32,7.16-11.78,7.53c-3.47.2-8.09-1.71-9-4.6-2.28-7.62,23.26-16.08,21.49-25.1-.94-4.76-9.39-9.29-15.07-7.53-9.46,2.92-5.15,21.43-20.74,33.47-3.55,2.74-7.48,4.64-8.8,3.62-2.67-2.07,8-14.07,3.73-20.08-1.72-2.41-5.15-2.76-11.93-3.35-15.86-1.38-22.75,2.86-27.15-1-3.19-2.78-4.16-9-1.49-11.72,6.38-6.48,29.74,11,39.08,3.35,3.06-2.51,4.25-7.43,2.54-10-3-4.55-13.14.44-21.19-5-5.74-3.9-8.47-11.8-6.26-13.95,2.93-2.85,13,6,34,10.18,10,2,18.57,3.61,23.12-1,4-4.08,4-12.13,0-16.46s-10.82-3.85-20.43-3.13c-20.14,1.5-28.1,8.33-37.37,3.76-4.43-2.18-7.51-6.15-6.72-7.74s6.34-.72,17.68-2.51c.93-.15,2.88-.06,3.81-1.25,1.32-1.7-.22-4.67-.62-5.44-1.52-2.92-3.75-4.37-10.6-8.83-4.76-3.1-7.14-4.67-7.08-5.61.16-2.57,7.2-6,13.37-4.81,9.17,1.81,8,12.26,19.47,18.2,10,5.18,20.39,2.15,21.93,1.68,2.95-.91,8.38-2.59,10.35-7.33,1.36-3.29,1-7.82-1.85-10.25-2-1.68-4.52-1.74-9.4-1.67-15.3.21-19.91,3.79-25.51.84-3.59-1.9-6.34-5.83-5.37-7.95,1.9-4.14,17.84-1,18.13-2.51.22-1.2-9.72-2.41-19.24-9.41-3.27-2.41-9-6.64-8.06-10.46.91-3.59,7.46-5.67,12.75-5.65,8.35,0,10.8,5.31,24.39,13.18,16.29,9.42,25,8.94,28.2,8.57,2.45-.28,8.15-.94,10.07-4.6,2-3.87-1.17-9.21-4-12.13-5.15-5.26-11-4.52-25.29-6.9-23-3.86-33-10-37.14-13-2.19-1.54-10.8-7.6-9.4-10.88s12.62-2.62,20.14-1c10.27,2.14,11.81,5.52,23,8.15,3.73.88,16.82,4,19.47-.21,1.67-2.62-1.35-7.28-3.81-11.08a28.4,28.4,0,0,0-7.16-8c-9.57-6.72-18.74.53-29.76-4.6-9.08-4.23-14.31-14.49-12.08-17.36s12.51.1,23.27,3.13c10.21,2.88,14.55,5.28,17.45,3.14,2.72-2,3.18-7.26.9-10.25-2.56-3.35-6.92-1.68-17-4.81-5.76-1.78-9.24-2.86-11.41-5.86-4.75-6.55-.13-18.08,3.58-18.4,3.44-.3,5.34,9.08,11.19,9.2a7.85,7.85,0,0,0,4.7-1.88c5.44-3.82,5.09-9.18,8-14.85,4.25-8.14,13.54-13.57,15.89-12.14,1.91,1.16-1.11,6.61-4.7,21.55-2.6,10.82-3.87,16.33-2.68,21.34,2.79,11.8,13.24,17.75,15.21,18.82,3,1.65,6.57,3.56,10.29,2.51,5.12-1.44,8.7-8,8.06-13.39-.6-5.07-4.51-6.14-9.17-16.31-2.24-4.87-2-6.11-1.57-6.91,2.17-3.85,13.68-4.67,18.57,0,5.33,5.09,1.87,15.76-3.13,31.17-4.48,13.8-6.72,20.7-8.5,24.48-2.6,5.47-5.06,9.57-3.14,13.38,1.81,3.58,6.94,5.87,11.19,5.23,8-1.2,11.68-12.58,12.76-15.89,5.85-18.09-4.61-29.24,3.8-41.21,2.53-3.6,6.28-6.58,7.83-5.86,3.72,1.73-9.76,22.83-.45,36.19.49.7,4.7,6.57,9.9,6.27,6.12-.35,10.52-9.08,11.19-10.46,2.46-5.06,1.56-7.78,3.58-8.57,4.16-1.63,13.06,7.9,11.64,10-.9,1.35-5.33-1.11-9,1.25a8.36,8.36,0,0,0-3.14,4.81c-2.81,8.15-12.18,9.81-19.29,18-1.62,1.86-8.66,9.9-7.39,19,1.71,12.27,17.37,23.41,30.88,20.92,10-1.84,15.19-10.42,18.8-16.32,7.35-12,11.2-30.77,2.23-44.14-4.89-7.29-14.13-13.77-18.34-16.73-6.8-4.76-10.06-5.74-13.65-10.67-1.35-1.84-6.39-9.24-4.48-18,1-4.39,3.71-9.26,5.6-9,2.9.42.11,12.48,6,15.69,4.67,2.53,13.51-1.13,17.67-7.12,2.69-3.85,4.25-9.83,1.57-14.64-2.53-4.53-7.87-6.29-12.25-7.74-7-2.3-10-.91-13.88-4-2.71-2.14-5.22-6-4-8.16,1.49-2.74,8.53-2.59,13.59-1.25,13.59,3.57,16,16.56,23.27,15.68,4.95-.59,8.88-6.94,8.95-12.13.12-8.63-10.43-15.61-19.24-16.73-9.36-1.2-12.8,4.71-21,2.51-6.88-1.84-13.31-8.32-12.31-13.39,1.18-6,12.71-9.92,21.48-8.16s12.43,8.7,15.22,7.32c3.72-1.84-3.74-13.86,2.23-22.17,3.91-5.43,12.83-8.24,17.46-5.65,6.14,3.44,4.81,16.39,4.47,19.67-.44,4.34-1.54,7.36-.67,12.76.54,3.33,1.15,6.78,4,8.36a9.36,9.36,0,0,0,10.07-1.25c1.75-1.6,1.9-3.48,2.51-11.09.67-8.19,1-12.29,2-12.76,3.38-1.57,13.37,6.16,12.3,12.13-.54,3.09-3.6,3.25-7.6,7.95s-3.1,7-6.55,14.23c-5.24,11-10.22,11.34-9.62,16.1.89,7,10.75,14,19.69,12.76s13-10.19,15.67-15.89a32.25,32.25,0,0,0,2.9-18.83c-1.17-7-4-8.07-7-15.95-4.86-12.75-3.35-25.72-1.23-26.09,1.57-.28,3,6.47,10.51,16.73,3.27,4.46,7.58,10.36,9.85,9.62,4.39-1.43-5.61-25.64,2.46-30.54,5.15-3.12,17.09,2,18.57,8.16,1.38,5.81-7.19,9.27-7.61,19.66-.06,1.6-.33,8.21,3.14,9.83,5.67,2.66,15.31-10.94,21-8.36,2.9,1.3,4.38,6.6,2.91,10.66-3.67,10.12-23.32,6.29-29.76,17.58-3.5,6.12-2.27,15.24,2.91,18.82,4.51,3.12,11.65,1.78,16.33-.42,9.45-4.43,11.41-14,25.06-30.33,1.63-1.95,4.08-4.79,6.34-4.32,2.43.51,4.31,4.77,3.34,8.09s-4.19,3.21-7.44,7.32c-3.07,3.87-4.83,9.88-2.46,12.55.37.41,2.15,2.21,8.5,1.05,18.42-3.39,25.56-22.63,32-20.92,5.84,1.54,9.62,19.93,1.57,27-7.4,6.47-18.43-2.17-37.37,4-9,2.91-19.64,9.12-18.8,13.8.6,3.35,7.14,6.15,13,5.86,12.3-.62,17.31-14.76,23.72-13,3.89,1.08,6.17,7.45,4.92,12.13-2.21,8.32-15.41,10.79-19.24,11.51-12.26,2.29-16.36-2.17-36-4.4-14.46-1.64-24.73-2.67-32.67,3.14-6.2,4.54-10.92,13.24-8.05,18.62,3.73,7,19.46,6.9,30,4.18,14.38-3.71,15.21-11.35,30.21-15.9,15.42-4.67,29.85-1.23,30,.42s-12.79.74-20.81,9.21c-6,6.31-7.69,16.17-4.47,18.4,4.82,3.35,17.63-12.6,28.19-8.57a12.61,12.61,0,0,1,7.61,12.13c-.69,7.8-11.54,12.11-17.9,14.64a54.76,54.76,0,0,1-18.57,3.77c-12.68.28-17.67-4-20.81-1.26-5.08,4.48,5,18.25,0,22.17-3.26,2.54-10.37-.94-11.86-1.67-4.14-2-9.25-6.27-8.28-9.2.6-1.83,3-1.53,4.92-3.35,4.27-4.09,2.51-15.56-3.8-20.29-8.91-6.67-25,1.52-30.66,4.39-4.23,2.15-20.87,11-26.85,29.91-1.32,4.2-7.64,24.27,3.81,33.47,8.56,6.89,23.26,4.63,32.44.42,17.85-8.19,19.47-25.92,30.66-25.73,8.92.16,12.55,10.71,19.46,8.79,7.12-2,11.07-15.52,11.92-18.41,1.44-5,1.58-8.7,3.35-9,2.71-.46,3.9,8,10.24,10,5.32,1.74,12-1.73,15.67-5.23,4.48-4.28,3.28-7.43,8.33-17.78,3.27-6.71,7.71-13.44,9-13,2.09.75-7,19.73-1.66,23.23,4.3,2.82,16.21-5.59,21.93-9.63,9.73-6.87,15.92-13.92,17.73-12.76,1.53,1-2.67,6.27-.06,11.09,2.19,4,7.11,3.93,7.16,5.86.11,3.63-16.22,3.38-28.64,13.18-7.39,5.83-13.44,15.18-11,18.4,4.69,6.1,36.65-14.09,43.44-6.69,4.68,5.1-4.13,21.54-10.27,21.34-4.26-.15-5.46-8.25-10.29-8.37-5.24-.13-6.19,9.3-12.59,10.67-7.55,1.61-11.21-11-24.39-12.76-7-1-17.44.36-21.7,7.11-1.76,2.78-3.64,8.36-.9,11.5,4.8,5.51,18.17-2.79,38.94,1.68,8.43,1.81,10.08,4,10.29,5.44.31,2.11-2.66,2.78-4.7,6.69-3.09,5.91,0,11.35-2.41,12.55-2.26,1.12-5.87-3.2-7.43-2.3-1.1.63-1.1,3.81,3.75,15l-13.32,5.4c-4-19.45-9.19-24.14-13.26-24.75-5.91-.89-8.13,7-18.57,9.62-12.68,3.21-19.24-6.12-29.76-2.3-7.78,2.82-14.26,11.57-12.31,16.94,3.28,9,30.31,8.66,45.87,6.9,26.43-3,42.49-12.66,56.39-18.82,39.56-17.55,78.67-14.29,109.64-11.72,7.66.64,9.14,1.1,117.25,32.22,38.75,11.15,46.72,13.44,58.63,20.91,36.3,22.8,31,44.76,58,64.29,51.31,37.11,145.28,12,145.59,3.35.06-1.62-3.19-2-11.41-5.93-24.12-11.54-50.61-34.39-46.32-46,2.93-7.92,20.84-12.48,32.67-7.53,8.19,3.43,13.82,13.3,25.06,33.05,5.35,9.39,10.14,19.11,20.14,21.55,1.73.42,4.06,1,4.92,0,3.36-3.88-23.47-23-38.93-56.69-2.62-5.71-10.64-23.57-4-29.08,3.22-2.67,7,0,9.62-2.09,8.14-6.42-20.11-38.45-25.13-81.85-1.62-14-3.73-32.2,7.75-39.61,11.18-7.21,32-2.11,39.39,8.93,3.2,4.75,1.88,7.58-.3,32.91-3,34.46-1.53,40.82,1.19,46.57,2.55,5.39,5.22,8.13,6.27,14.79,1.42,9-2.11,12.82,0,21.19,1.72,6.83,4.7,6.83,7.45,13.39,4.35,10.35-1.55,14-1.19,30.68.1,4.42.84,19,10.44,31.79.81,1.08,5.16,6.86,6.87,6.14,1.31-.56.54-4.77-2.39-16.46-5.78-23-6.46-21.41-6.86-26.77-.84-11.18,2.4-14.6-.6-24.27a41,41,0,0,0-5.37-10.87c-9.38-14.58-5.14-36.25-3-65.27,3.13-42.15-1.72-51.64,7.16-56.89,9.71-5.75,27-1.15,36.1,8.37,7.89,8.21,8.18,18.45,8.35,24.54.28,9.85-2.79,8-9.25,34-3.81,15.34-7,33.22-7.15,34v0c-3.54,19.86-5.07,41.76-6.26,55.22-2.93,33.09-6.56,46.36-1.2,48.53a5.91,5.91,0,0,0,5.67-1.11c3.23-3-.46-9.38-1.79-17.85a45.82,45.82,0,0,1,1.49-20.08,457.79,457.79,0,0,1,7.46-70.85c6.76-36.32,12.82-43.82,20.29-47.13,12.26-5.43,31.58-1,37.59,9.48,4.4,7.69.28,16.22-26.55,64.43-15.89,28.54-29.05,51.78-21.48,63.31.57.88,1.89,2.84,3.58,2.79,5.5-.15,8.24-21.52,12.53-42.39a523.69,523.69,0,0,1,16.11-57.74c12.57-36.63,20.35-59.3,39.08-64.14,13.63-3.53,31.21,2.85,37.59,13.94,6.49,11.28-.12,24.78-8.65,41.56-6.94,13.65-16.09,27.27-34,47.13-28.85,32-50.76,47.23-46,58.57.23.53,1.57,3.68,4.18,4.18,5.69,1.1,12.26-11.36,20-24,14.8-24.18,26.15-42.28,45.65-52.15,5.33-2.7,17.06-8.65,24.76-4.19,8.54,5,8.73,20.75,4.18,31.52-3,7.14-10.11,13.13-24.17,24.82-13.28,11-21,15.79-20,17.57s9.33.2,16.41-3.07c13.4-6.19,16.23-16.08,28.05-17.85a23.94,23.94,0,0,1,7,0V77.62H939.62Z"/></g></g></svg>