<?xml version="1.0" encoding="utf-8"?>
<!-- Generator: Adobe Illustrator 26.0.0, SVG Export Plug-In . SVG Version: 6.00 Build 0)  -->
<svg version="1.1" id="Layer_1" xmlns="http://www.w3.org/2000/svg" xmlns:xlink="http://www.w3.org/1999/xlink" x="0px" y="0px"
	 viewBox="0 0 434.55 286.98" style="enable-background:new 0 0 434.55 286.98;" xml:space="preserve">
<style type="text/css">
	.st0{fill:#26A6C8;}
	.st1{fill:#238BB2;}
	.st2{fill:#10587D;}
</style>
<path class="st0" d="M7.27,38.89c10.77-6.7,27.09-14.59,47.33-15.32c25.63-0.92,30.53,10.63,65.87,15.32
	c17.81,2.36,54.53,7.23,71.61-12.25c4.95-5.65,5.65-10.37,12.64-14.55c9.57-5.72,20.79-4.35,38.29,0
	c41.4,10.29,39.58,17.73,55.91,17.23c7.16-0.22,22.13-5.63,52.08-16.47c12.27-4.44,18.05-6.89,26.49-5.55
	c10.61,1.68,14.76,7.65,28.65,12.06c8.96,2.85,16.83,3.41,22.04,3.45c0,85.91,0,171.81,0,257.72c-140.3,0-280.6,0-420.9,0
	C7.27,199.98,7.27,119.43,7.27,38.89z"/>
</svg>
