<?xml version="1.0" encoding="utf-8"?>
<!-- Generator: Adobe Illustrator 26.0.0, SVG Export Plug-In . SVG Version: 6.00 Build 0)  -->
<svg version="1.1" id="Layer_1" xmlns="http://www.w3.org/2000/svg" xmlns:xlink="http://www.w3.org/1999/xlink" x="0px" y="0px"
	 viewBox="0 0 420.9 309.61" style="enable-background:new 0 0 420.9 309.61;" xml:space="preserve">
<style type="text/css">
	.st0{fill:#26A6C8;}
	.st1{fill:#238BB2;}
	.st2{fill:#10587D;}
</style>
<g>
	<path class="st1" d="M4.94,92.8c4.89,8.17,14.42,21.68,30.88,32.53c4.36,2.88,42.26,27.86,66.94,13.84
		c15.02-8.54,12.77-24.49,34.4-39.27c4.07-2.78,17.81-3.36,21.69-10.1c0.31-0.54,1.44-2.49,0.79-3.24
		c-0.71-0.82-2.88,0.62-8.81,2.83c-5.44,2.03-7.47,2.25-8.48,4.32c-0.68,1.4-0.34,2.51-1.45,3.41c-1.32,1.05-3.64,0.97-4.2,0.04
		c-0.59-0.97,0.82-2.77,0.54-2.95c-0.3-0.19-1.48,2.13-3.28,2.24c-0.97,0.06-2.25-0.51-2.49-1.37c-0.64-2.27,6.48-4.79,5.98-7.48
		c-0.26-1.42-2.62-2.77-4.2-2.24c-2.64,0.87-1.43,6.38-5.78,9.97c-0.99,0.82-2.08,1.38-2.45,1.08c-0.74-0.62,2.24-4.19,1.04-5.98
		c-0.48-0.72-1.44-0.82-3.32-1c-4.42-0.41-6.34,0.85-7.56-0.29c-0.89-0.83-1.16-2.68-0.42-3.49c1.78-1.93,8.28,3.29,10.89,1
		c0.85-0.75,1.18-2.21,0.71-2.99c-0.83-1.36-3.66,0.13-5.9-1.5c-1.6-1.16-2.36-3.52-1.75-4.16c0.82-0.85,3.63,1.78,9.47,3.03
		c2.79,0.6,5.17,1.07,6.44-0.29c1.13-1.21,1.12-3.61,0-4.9c-1.1-1.27-3.02-1.15-5.69-0.93c-5.61,0.45-7.83,2.48-10.41,1.12
		c-1.23-0.65-2.09-1.83-1.87-2.31c0.24-0.51,1.76-0.21,4.92-0.75c0.26-0.04,0.8-0.02,1.06-0.37c0.37-0.51-0.06-1.39-0.17-1.62
		c-0.42-0.87-1.04-1.3-2.95-2.63c-1.33-0.92-1.99-1.39-1.97-1.67c0.04-0.77,2.01-1.8,3.72-1.43c2.55,0.54,2.22,3.65,5.42,5.42
		c2.79,1.54,5.68,0.64,6.11,0.5c0.82-0.27,2.33-0.77,2.88-2.18c0.38-0.98,0.27-2.33-0.51-3.05c-0.55-0.5-1.26-0.52-2.62-0.5
		c-4.26,0.06-5.55,1.13-7.11,0.25c-1-0.57-1.77-1.74-1.5-2.37c0.53-1.23,4.97-0.29,5.05-0.75c0.06-0.36-2.71-0.72-5.36-2.8
		c-0.91-0.72-2.51-1.98-2.24-3.12c0.25-1.07,2.08-1.69,3.55-1.68c2.33,0.01,3.01,1.58,6.79,3.93c4.54,2.81,6.97,2.66,7.85,2.56
		c0.68-0.08,2.27-0.28,2.8-1.37c0.56-1.15-0.32-2.74-1.12-3.61c-1.44-1.57-3.08-1.35-7.04-2.06c-6.4-1.15-9.19-2.99-10.35-3.86
		c-0.61-0.46-3.01-2.27-2.62-3.24c0.4-0.99,3.51-0.78,5.61-0.31c2.86,0.64,3.29,1.64,6.42,2.43c1.04,0.26,4.68,1.18,5.42-0.06
		c0.47-0.78-0.38-2.17-1.06-3.3c-0.29-0.48-0.96-1.59-1.99-2.37c-2.66-2-5.22,0.16-8.29-1.37c-2.53-1.26-3.99-4.32-3.37-5.17
		c0.61-0.84,3.49,0.03,6.48,0.93c2.84,0.86,4.05,1.57,4.86,0.93c0.76-0.6,0.89-2.16,0.25-3.05c-0.71-1-1.93-0.5-4.74-1.43
		c-1.61-0.53-2.58-0.85-3.18-1.75c-1.32-1.95-0.04-5.39,1-5.48c0.96-0.09,1.49,2.71,3.12,2.74c0.55,0.01,0.95-0.29,1.31-0.56
		c1.52-1.14,1.42-2.74,2.24-4.43c1.18-2.42,3.77-4.04,4.43-3.61c0.53,0.35-0.31,1.97-1.31,6.42c-0.72,3.22-1.08,4.87-0.75,6.36
		c0.78,3.52,3.69,5.29,4.24,5.61c0.85,0.49,1.83,1.06,2.87,0.75c1.42-0.43,2.42-2.37,2.24-3.99c-0.17-1.51-1.26-1.83-2.56-4.86
		c-0.62-1.45-0.56-1.82-0.44-2.06c0.6-1.15,3.81-1.39,5.17,0c1.48,1.52,0.52,4.7-0.87,9.29c-1.25,4.11-1.87,6.17-2.37,7.29
		c-0.72,1.63-1.41,2.85-0.87,3.99c0.5,1.07,1.93,1.75,3.12,1.56c2.23-0.36,3.25-3.75,3.55-4.74c1.63-5.39-1.28-8.71,1.06-12.28
		c0.7-1.07,1.75-1.96,2.18-1.75c1.04,0.52-2.72,6.8-0.12,10.78c0.14,0.21,1.31,1.96,2.76,1.87c1.71-0.11,2.93-2.71,3.12-3.12
		c0.68-1.51,0.43-2.32,1-2.56c1.16-0.49,3.64,2.35,3.24,2.99c-0.25,0.4-1.48-0.33-2.49,0.37c-0.6,0.42-0.76,1.08-0.87,1.43
		c-0.78,2.43-3.39,2.92-5.38,5.36c-0.45,0.55-2.41,2.95-2.06,5.67c0.48,3.66,4.84,6.97,8.6,6.23c2.77-0.55,4.23-3.1,5.24-4.86
		c2.05-3.59,3.12-9.17,0.62-13.15c-1.36-2.17-3.94-4.1-5.11-4.99c-1.89-1.42-2.8-1.71-3.8-3.18c-0.37-0.55-1.78-2.75-1.25-5.36
		c0.27-1.31,1.03-2.76,1.56-2.68c0.81,0.13,0.03,3.72,1.68,4.67c1.3,0.75,3.76-0.34,4.92-2.12c0.75-1.15,1.18-2.93,0.44-4.36
		c-0.7-1.35-2.19-1.88-3.41-2.31c-1.94-0.69-2.78-0.27-3.86-1.18c-0.76-0.64-1.46-1.77-1.12-2.43c0.42-0.82,2.38-0.77,3.79-0.37
		c3.79,1.07,4.47,4.93,6.48,4.67c1.38-0.18,2.47-2.07,2.49-3.61c0.03-2.57-2.9-4.65-5.36-4.99c-2.61-0.36-3.57,1.4-5.86,0.75
		c-1.92-0.55-3.71-2.48-3.43-3.99c0.33-1.78,3.54-2.96,5.98-2.43c2.43,0.52,3.46,2.59,4.24,2.18c1.04-0.55-1.04-4.13,0.62-6.61
		c1.09-1.62,3.57-2.45,4.86-1.68c1.71,1.02,1.34,4.88,1.25,5.86c-0.12,1.29-0.43,2.19-0.19,3.8c0.15,0.99,0.32,2.02,1.12,2.49
		c0.85,0.5,2.12,0.3,2.8-0.37c0.49-0.48,0.53-1.04,0.7-3.3c0.18-2.44,0.28-3.66,0.56-3.8c0.94-0.47,3.72,1.83,3.43,3.61
		c-0.15,0.92-1,0.97-2.12,2.37c-1.11,1.39-0.86,2.09-1.82,4.24c-1.46,3.27-2.85,3.38-2.68,4.8c0.25,2.07,2.99,4.18,5.48,3.8
		c2.48-0.37,3.63-3.04,4.36-4.74c0.31-0.71,1.23-2.89,0.81-5.61c-0.33-2.09-1.13-2.4-1.96-4.75c-1.35-3.8-0.93-7.66-0.34-7.77
		c0.44-0.08,0.84,1.93,2.93,4.99c0.91,1.33,2.11,3.09,2.74,2.87c1.22-0.43-1.56-7.64,0.69-9.1c1.43-0.93,4.76,0.58,5.17,2.43
		c0.38,1.73-2,2.76-2.12,5.86c-0.02,0.47-0.09,2.45,0.87,2.93c1.58,0.79,4.27-3.26,5.86-2.49c0.81,0.39,1.22,1.97,0.81,3.18
		c-1.02,3.01-6.5,1.87-8.29,5.24c-0.97,1.83-0.63,4.54,0.81,5.61c1.26,0.93,3.25,0.53,4.55-0.12c2.63-1.32,3.18-4.16,6.98-9.04
		c0.45-0.58,1.14-1.43,1.77-1.29c0.68,0.15,1.2,1.42,0.93,2.41c-0.28,1.01-1.17,0.96-2.07,2.18c-0.85,1.15-1.35,2.95-0.69,3.74
		c0.1,0.12,0.6,0.66,2.37,0.31c5.13-1.01,7.12-6.74,8.91-6.23c1.63,0.46,2.68,5.94,0.44,8.04c-2.06,1.93-5.13-0.65-10.41,1.18
		c-2.5,0.87-5.47,2.72-5.24,4.11c0.17,1,1.99,1.83,3.61,1.75c3.43-0.18,4.82-4.4,6.61-3.86c1.08,0.32,1.72,2.22,1.37,3.61
		c-0.62,2.48-4.29,3.21-5.36,3.43c-3.41,0.68-4.56-0.64-10.03-1.31c-4.03-0.49-6.89-0.8-9.1,0.93c-1.73,1.35-3.04,3.94-2.24,5.55
		c1.04,2.08,5.42,2.06,8.35,1.25c4.01-1.11,4.24-3.38,8.41-4.74c4.3-1.39,8.31-0.37,8.35,0.12c0.04,0.47-3.56,0.22-5.8,2.74
		c-1.67,1.88-2.14,4.82-1.25,5.48c1.34,1,4.91-3.75,7.85-2.56c1.37,0.56,2.23,2.25,2.12,3.61c-0.19,2.32-3.21,3.61-4.99,4.36
		c-2.38,1.01-4.53,1.11-5.17,1.12c-3.53,0.08-4.92-1.2-5.8-0.37c-1.41,1.33,1.41,5.44,0,6.61c-0.91,0.75-2.89-0.28-3.3-0.5
		c-1.15-0.6-2.58-1.87-2.31-2.74c0.17-0.54,0.84-0.45,1.37-1c1.19-1.22,0.7-4.64-1.06-6.05c-2.48-1.99-6.97,0.45-8.54,1.31
		c-1.18,0.64-5.82,3.26-7.48,8.91c-0.37,1.25-2.13,7.23,1.06,9.97c2.38,2.05,6.48,1.38,9.04,0.12c4.97-2.44,5.42-7.72,8.54-7.67
		c2.48,0.05,3.5,3.19,5.42,2.62c1.98-0.59,3.08-4.62,3.32-5.48c0.4-1.48,0.44-2.59,0.93-2.68c0.75-0.14,1.09,2.37,2.85,2.99
		c1.48,0.52,3.34-0.51,4.36-1.56c1.25-1.27,0.91-2.21,2.32-5.3c0.91-2,2.15-4,2.5-3.87c0.58,0.22-1.95,5.88-0.46,6.92
		c1.2,0.84,4.51-1.66,6.11-2.87c2.71-2.05,4.44-4.15,4.94-3.8c0.43,0.29-0.74,1.87-0.01,3.3c0.61,1.2,1.98,1.17,1.99,1.75
		c0.03,1.08-4.52,1.01-7.98,3.93c-2.06,1.74-3.74,4.53-3.05,5.48c1.31,1.82,10.21-4.2,12.1-1.99c1.3,1.52-1.15,6.42-2.86,6.36
		c-1.19-0.04-1.52-2.46-2.87-2.49c-1.46-0.04-1.72,2.77-3.51,3.18c-2.1,0.48-3.12-3.27-6.79-3.8c-1.94-0.28-4.86,0.11-6.05,2.12
		c-0.49,0.83-1.01,2.49-0.25,3.43c1.34,1.64,5.06-0.83,10.84,0.5c2.35,0.54,2.81,1.2,2.87,1.62c0.09,0.63-0.74,0.83-1.31,1.99
		c-0.86,1.76,0,3.38-0.67,3.74c-0.63,0.33-1.64-0.95-2.07-0.69c-0.31,0.19-0.31,1.13,1.04,4.46c-1.24,0.54-2.47,1.07-3.71,1.61
		c-1.11-5.8-2.56-7.19-3.69-7.38c-1.65-0.26-2.26,2.08-5.17,2.87c-3.53,0.96-5.36-1.82-8.29-0.69c-2.17,0.84-3.97,3.45-3.43,5.05
		c0.91,2.68,8.44,2.58,12.78,2.06c7.36-0.89,11.84-3.77,15.71-5.61c11.02-5.23,21.91-4.26,30.54-3.49c2.13,0.19,2.55,0.33,32.66,9.6
		c10.79,3.32,13.01,4,16.33,6.23c10.11,6.79,8.64,13.34,16.16,19.16c14.29,11.06,40.47,3.58,40.55,1c0.02-0.48-0.89-0.6-3.18-1.77
		c-6.72-3.44-14.1-10.25-12.9-13.71c0.82-2.36,5.8-3.72,9.1-2.24c2.28,1.02,3.85,3.96,6.98,9.85c1.49,2.8,2.82,5.69,5.61,6.42
		c0.48,0.13,1.13,0.29,1.37,0c0.94-1.16-6.54-6.85-10.84-16.89c-0.73-1.7-2.96-7.02-1.12-8.66c0.9-0.8,1.95-0.01,2.68-0.62
		c2.27-1.91-5.6-11.46-7-24.39c-0.45-4.18-1.04-9.59,2.16-11.8c3.11-2.15,8.9-0.63,10.97,2.66c0.89,1.42,0.52,2.26-0.08,9.81
		c-0.83,10.27-0.43,12.16,0.33,13.88c0.71,1.6,1.45,2.42,1.75,4.4c0.4,2.69-0.59,3.82,0,6.32c0.48,2.04,1.31,2.03,2.08,3.99
		c1.21,3.08-0.43,4.17-0.33,9.14c0.03,1.32,0.23,5.66,2.91,9.47c0.23,0.32,1.44,2.04,1.91,1.83c0.37-0.17,0.15-1.42-0.66-4.9
		c-1.61-6.86-1.8-6.38-1.91-7.98c-0.23-3.33,0.67-4.35-0.17-7.23c-0.48-1.67-1.2-2.75-1.5-3.24c-2.61-4.34-1.43-10.8-0.83-19.45
		c0.87-12.56-0.48-15.39,1.99-16.95c2.71-1.71,7.51-0.34,10.06,2.49c2.2,2.45,2.28,5.5,2.33,7.31c0.08,2.94-0.78,2.38-2.58,10.14
		c-1.06,4.57-1.95,9.9-1.99,10.13c0,0,0,0.01,0,0.01c-0.99,5.92-1.41,12.44-1.75,16.45c-0.82,9.86-1.83,13.81-0.33,14.46
		c0.49,0.21,1.2,0.04,1.58-0.33c0.9-0.88-0.13-2.79-0.5-5.32c-0.2-1.38-0.28-3.4,0.42-5.98c0.23-8.89,1.2-16.08,2.08-21.11
		c1.88-10.82,3.57-13.06,5.65-14.04c3.41-1.62,8.8-0.3,10.47,2.83c1.23,2.29,0.08,4.83-7.4,19.2c-4.42,8.5-8.09,15.43-5.98,18.86
		c0.16,0.26,0.53,0.84,1,0.83c1.53-0.05,2.3-6.41,3.49-12.63c0,0,1.53-8,4.49-17.2c3.5-10.91,5.67-17.67,10.89-19.11
		c3.79-1.05,8.69,0.85,10.47,4.16c1.81,3.36-0.03,7.38-2.41,12.38c-1.93,4.07-4.48,8.13-9.47,14.04
		c-8.03,9.53-14.14,14.07-12.8,17.45c0.06,0.16,0.44,1.1,1.16,1.25c1.58,0.33,3.42-3.39,5.57-7.15c4.12-7.21,7.29-12.6,12.71-15.54
		c1.48-0.8,4.75-2.58,6.9-1.25c2.38,1.48,2.43,6.18,1.16,9.39c-0.84,2.13-2.82,3.91-6.73,7.4c-3.7,3.29-5.85,4.7-5.57,5.24
		c0.27,0.5,2.6,0.06,4.57-0.91c3.73-1.84,4.52-4.79,7.81-5.32c0.82-0.13,1.51-0.07,1.95,0c0,69.11,0,138.23,0,207.34
		c-137.01,0-274.02,0-411.03,0C4.94,234.41,4.94,163.6,4.94,92.8z"/>
	<path class="st1" d="M4.94,23.99c0.95-1.39,2.16-3.03,2.46-2.87c0.37,0.2-0.9,2.83-1.87,6.23c-0.22,0.78-2.98,10.69-0.59,11.97
		c1.33,0.71,4.35-1.22,5.58-3.74c1.31-2.68-0.31-4.18,0.75-7.48c1.21-3.78,4.65-6,4.99-5.73c0.28,0.22-1.62,2.26-2.62,6.11
		c-0.47,1.8-1.25,4.8,0,5.86c1.89,1.6,7.27-2.23,7.48-1.87c0.18,0.31-3.41,3.68-9.22,6.36c-4.08,1.88-6.54,2.17-6.95,3.99
		c-0.46,2.07,2.17,4.18,1.09,6.11c-0.32,0.58-0.76,0.74-1.09,1.62c-0.4,1.04-0.44,2.52,0,2.74c1.45,0.73,9.19-11.39,9.44-11.22
		c0.12,0.08-1.76,2.29-1.99,5.73c-0.08,1.2,0.13,1.13,0,1.75c-0.79,3.71-8.14,4.55-7.98,6.36c0.06,0.72,1.23,0.81,1.42,1.95
		c0.19,1.16-0.81,2.33-0.9,2.29c-0.09-0.05,0.24-1.88,1.47-2.99c1.44-1.3,2.77-0.39,4.74-1.62c0.49-0.3,1.22-1.26,2.68-3.17
		c1.84-2.4,2.06-2.98,3.18-3.94c1.44-1.24,1.78-0.91,2.62-1.75c2.04-2.03,0.62-4.64,1.75-7.73c1.58-4.34,6.89-6.13,7.11-5.86
		c0.19,0.24-3.46,2.04-4.74,6.11c-0.82,2.6-0.75,5.48-0.75,5.48c0.05,1.95,0.4,2.39,0,3.24c-0.79,1.7-2.75,1.21-5.11,2.99
		c-2.3,1.73-3.58,4.55-2.99,5.24c0.59,0.68,3.05-0.78,3.37-0.25c0.2,0.34-0.57,1.3-1.5,1.99c-1.25,0.93-3.05,1.22-6.61,1.75
		c-2.8,0.42-3.75,0.55-4.24,1.37c-0.39,0.65-0.43,1.61,0,2.24c1.04,1.55,4.54,0.78,6.11,0.25c1.43-0.49,2.46-1.19,3.91-2.18
		c1.34-0.91,2.19-1.66,2.95-2.31c4.16-3.54,4.48-3.11,5.73-4.49c3.87-4.26,1.82-9.53,5.24-11.09c0.19-0.09,1.32-0.61,1.99-0.12
		c1.05,0.75,0.66,3.71-0.62,5.86c-1.76,2.94-4.75,3.62-4.49,4.74c0.14,0.6,1.19,1.13,2.12,1c1.48-0.22,2.28-2.09,5.98-9.85
		c0.65-1.35,1.18-2.45,1.62-2.37c0.57,0.11,0.75,2.13,0.62,3.61c-0.34,3.88-3.08,6.7-4.36,7.85c-1.92,1.72-2.79,1.67-8.6,4.49
		c-2.67,1.29-8.13,3.95-7.85,4.74c0.22,0.64,3.87-1.11,8.1,0.5c0.92,0.35,0.67,0.4,3.61,1.87c3.67,1.83,4.93,2.18,4.86,2.49
		c-0.1,0.45-2.93,0.58-5.61-0.5c-1.95-0.78-1.73-1.36-3.37-1.99c-2.42-0.94-3.35,0.15-7.85-0.12c-1.12-0.07-2.2-0.21-4.36-0.5
		c-3.39-0.45-4.9-0.8-5.48,0c-0.32,0.44-0.31,1.16,0,1.62c0.75,1.13,2.88,0.09,5.36,0.62c3.46,0.74,5.59,4.07,5.36,4.36
		c-0.22,0.28-2.58-2.14-6.61-2.87c-2.13-0.38-4-0.16-5.33,0.12c0-7.35,0-14.71,0-22.06C4.94,39.28,4.94,31.64,4.94,23.99z"/>
</g>
</svg>
