<svg id="Layer_1" data-name="Layer 1" xmlns="http://www.w3.org/2000/svg" viewBox="0 0 1920 1080"><defs><style>.cls-1{fill:#aab2c2;}.cls-2{fill:#9da6b7;}</style></defs><path class="cls-1" d="M145.71.06c75.12.11,107.8,15.05,123.53,29.51,3.89,3.57,32.73,31,32.73,31h0c16.33,21.93,17.31,35.22,35.23,45.95,15.44,9.25,22.87,4.26,35.24,15.32,3.13,2.8,8.15,8,19.91,35.24,11,25.49,8.83,26,13.79,35.23,15.69,29.11,36.82,22.15,52.08,47.49,14.77,24.51-1.11,37.51,14.81,60.77C486,319.43,498.43,313.86,517,335.8c14.67,17.39,8.64,23,24,48,20.83,33.87,34.91,28.35,45.95,55.15,3.9,9.45,6.17,26.21,10.73,59.74,3.1,22.81,2.5,25.85,6.13,33.71,9.93,21.49,24.29,20.05,32.17,39.83,5.67,14.25-1,17.07,4.59,39.83,2.66,10.88,5.82,23.79,15.32,35.23,16.2,19.5,33.18,13.45,44.43,30.64,8,12.16.61,17,6.12,39.83,1.37,5.64,10,39.41,38.3,59.74,18.83,13.55,27.41,7.5,36.79,20,14,18.64-1.1,37.38,12.23,53.53,13.48,16.33,36,5.73,44.43,19.92,10.4,17.45-19.15,40.92-9.19,61.28,6.59,13.48,21.34,6.84,47.49,26,8.25,6.06,27.21,20,33.7,42.89,5.15,18.17-2.25,25.38,1.53,38.3,4.05,13.84,19.77,30.27,72,40.6H-.14V.06Z"/><path class="cls-2" d="M-.14,35.54C20,86.22,34.52,99.71,44.45,101.62a121.35,121.35,0,0,1,27.41,9.91,34.8,34.8,0,0,1,7.82,5.41c3.13,2.8,8.16,8,19.92,35.24,11,25.49,8.83,26,13.78,35.23,15.69,29.11,36.83,22.15,52.09,47.49,14.76,24.51-1.11,37.5,14.81,60.76,12.91,18.87,25.39,13.29,43.91,35.24,14.68,17.39,8.64,23,24,48,20.83,33.87,34.92,28.35,46,55.15,3.89,9.45,6.17,26.21,10.72,59.74,3.1,22.81,2.5,25.85,6.13,33.7,9.93,21.5,24.3,20.06,32.17,39.83,5.68,14.26-1,17.08,4.6,39.83,2.66,10.89,5.81,23.8,15.32,35.24,16.2,19.49,33.18,13.45,44.42,30.64,8,12.16.61,17,6.13,39.83,1.36,5.64,10,39.41,38.3,59.74,18.83,13.55,27.4,7.5,36.79,20,14,18.64-1.1,37.38,12.23,53.53,13.48,16.33,36,5.72,44.42,19.92,10.41,17.45-19.15,40.92-9.19,61.27,6.6,13.48,21.34,6.85,47.49,26,8.26,6.06,27.21,20,33.7,42.89,5.26,18.54-2.1,26.29,1.54,38.3,4.4,14.53,23.79,31.11,92.07,38L3.25,1078.66Z"/><path class="cls-2" d="M318.8,402l6.78,27.92q1.51,21.9,3,43.79,7.56,10.24,15.13,20.47Q361,514.23,378.3,534.29l-5.67-19.87-23.13-31-8.81-22.89q-1.1-16.54-2.18-33.09-3-18.8-5.9-37.59l-34.12-8.07-18.65,1.25,14.29,14.85-3.57,37,15.3-25.39Z"/><path class="cls-2" d="M165.49,58.21q-3.84,11.61-7.69,23.21l-18.72,32.9L142.26,136q5.27,22.35,10.51,44.69,2.39-8.44,4.75-16.9l-5-32.86L156,110.39l14.22-24.82,13.18-29.76-25.72-21.4-16.81-7.63L146.05,44,124.93,69l25.65-11.29Z"/><path class="cls-2" d="M594.54,745.48l35.16,16.38-6.24,26.95q7.69,18.15,15.4,36.3l-13.88,21-1.89-29.29q-7.56-10.26-15.11-20.54,4.88-14.29,9.76-28.6Z"/><path class="cls-2" d="M355.43,248.65q1.86-4.59,3.74-9.19l9.19,5.1q5.63-9.69,11.24-19.4c1.58,2.16,3.17,4.31,4.76,6.47l12.94,4.08-10.21,3.75-6.47-3.07-7.15,13.28-10.21.68c-.34,2-.69,4.09-1,6.13Z"/><path class="cls-2" d="M555.42,564.65c-.75,1.73,8.89,7.5,13.61,10.22l11.24,21.78,14.29,9.2,8.59,10.26q3.54,5.76,7.07,11.52l12.94-10.89,10.55,10.89q-.16-10-.34-20.08l-18.38,1-5.11-5.79-8.17,2.38-10.89-6.8-3.06-14.3-4.43,5.44-4.77-10.21-7.14-11.91C566.1,565.78,556.13,563,555.42,564.65Z"/><path class="cls-2" d="M28.77,34.09c.95-.5,5.67,4.82,7.78,7.26.71,3.13,1.42,6.25,2.14,9.38l6.06,14.09,11.66,6.6a53.9,53.9,0,0,1,6.22,3.45c1.5,1,2.84,1.95,4,2.88l-2.76,19.8L59.42,82.46l-6.29-8L35.84,71.56q.34-6,.68-12L28,52.76q2.36-4.57,4.72-9.15C31.15,40.87,27.81,34.61,28.77,34.09Z"/><path class="cls-2" d="M241.84,95.63l18.87-1.27,1.2,20.4,20.95,23.48q7.29,6,14.57,12.07l-10-.56-15.33-16-15-10.54-2.85-16.66Z"/><path class="cls-2" d="M422.11,760.16l39.69-33.8,16.92,1.15,22.09-14.75L532.56,688l-3.89,12.53L520,704.93l13.28,11.67-17.78-5.24L497,719.63l-16,14.69-18.17-1-18.73,29.3.24-11.92Z"/><path class="cls-2" d="M728.23,823.58q4.1,6.66,8.17,14c4.3,7.72,8.14,15.23,11.57,22.46l17.7,3.41,8.85,19.74,4.77,19.07-8.85,13.27,2-14.64L764,878.39l-12.25-5.79-19.07-9.87V843.66l-12.93-16.34q1.35-9.36,2.72-18.72Z"/><path class="cls-2" d="M475.09,340.49l26.55,19.15q.35,15.67.68,31.34l13.28,20.46-4.77,41.78q-9.7,17.85-19.4,35.7,1.19-13.28,2.38-26.55l-11.24-10L504.7,448l-2-39.17-9.19-6.1q-2-13.92-4.09-27.85l-21.44,2.61,19.4-18.72Z"/><path class="cls-2" d="M431.79,507.7l11.42,9.45q2.22,9.09,4.43,18.18l-2,30.19L453.42,587q-1.47,16-2.95,32l4.83,32.73-14.24-18.55q3.15-17.82,6.31-35.63-4.83-17.64-9.67-35.28,2.28-8.73,4.57-17.45-3.57-8.37-7.12-16.73-6.52,20.19-13,40.36.87-18.54,1.75-37.09,3.28-3.45,6.58-6.91Z"/><path class="cls-2" d="M656.13,1034.68q3.93-19.91,7.88-39.79l15.77-17.62L710,983.61l24.68,12.47-4.46,17.61,22.62-6.73q-3.76,15.25-7.54,30.49l11-4.75,9.26,7.32,10.28,7.72c.57-2.51,1.15-5,1.72-7.52l14.39,3.56q.86-9.69,1.72-19.4l-18.86,10.49-13.37-8.31q2.58-9.49,5.15-19c-.57-2.11-1.15-4.22-1.72-6.34H748.34q-3.44-6.91-6.86-13.85l-22.28-8.31-25-6.73-11-20.59-6.52,9.11-26.05-4.16,18.17,12.47-23,19.79Z"/><path class="cls-2" d="M206.05,337.08l7.89-39.79,15.76-17.61L259.87,286l24.68,12.47L280.1,316.1l22.62-6.73q-3.77,15.24-7.54,30.48l11-4.75,9.25,7.32,10.29,7.72,1.71-7.52,14.4,3.56,1.71-19.39-18.85,10.49L311.29,329q2.56-9.49,5.14-19l-1.71-6.33H298.26l-6.85-13.86-22.28-8.31-25-6.73-11-20.59-6.51,9.11-26.05-4.16,18.16,12.47-23,19.8Q200.91,314.22,206.05,337.08Z"/></svg>